<svg width="96" height="96" viewBox="0 0 96 96" fill="none" xmlns="http://www.w3.org/2000/svg">
<g id="_?&#235;&#141;&#137;&#236;&#148;&#160;??1" clip-path="url(#clip0_452_1230)">
<path id="Vector" d="M61.6518 96.0002H11.083C4.56555 96.0002 0 91.4459 0 84.9172C0 79.8805 4.09441 75.7861 9.11989 75.7861H59.6887C60.4066 75.7861 61.0012 76.3695 61.0012 77.0986C61.0012 77.8277 60.4179 78.411 59.6887 78.411C56.0991 78.411 53.1825 81.3276 53.1825 84.9285C53.1825 89.595 56.9741 93.3977 61.6518 93.3977C62.3697 93.3977 62.9642 93.981 62.9642 94.7102C62.9642 95.4393 62.3809 96.0226 61.6518 96.0226V96.0002ZM9.11989 78.3998C5.53026 78.3998 2.61369 81.3164 2.61369 84.9172C2.61369 90.0549 5.9341 93.3865 11.083 93.3865H54.5062C52.0944 91.3561 50.5688 88.3162 50.5688 84.9172C50.5688 82.3708 51.6233 80.06 53.3059 78.3998H9.11989Z" fill="#23295B"/>
<path id="Vector_2" d="M65.9469 84.6592C65.2289 84.6592 64.6344 84.0759 64.6344 83.3468C64.6344 80.6209 62.4133 78.3998 59.6875 78.3998C58.9695 78.3998 58.375 77.8165 58.375 77.0874C58.375 76.3582 58.9583 75.7749 59.6875 75.7749C63.8604 75.7749 67.2481 79.1626 67.2481 83.3355C67.2481 84.0535 66.6648 84.648 65.9356 84.648L65.9469 84.6592Z" fill="#23295B"/>
<path id="Vector_3" d="M61.6523 95.9998C60.9344 95.9998 60.3398 95.4165 60.3398 94.6874C60.3398 93.9582 60.9232 93.3749 61.6523 93.3749C67.6649 93.3749 72.567 88.484 72.567 82.4714V49.1552C72.567 48.4373 73.1503 47.8428 73.8795 47.8428C74.6086 47.8428 75.1919 48.4261 75.1919 49.1552V82.4714C75.1919 89.9311 69.1232 95.9886 61.6635 95.9886L61.6523 95.9998Z" fill="#23295B"/>
<path id="Vector_4" d="M10.2304 77.9623C9.5125 77.9623 8.91797 77.379 8.91797 76.6498V16.9835C8.91797 11.7113 13.2143 7.40373 18.4866 7.39251L47.9888 7.33643C48.7067 7.33643 49.29 7.91974 49.3012 8.63766C49.3012 9.35559 48.7179 9.95012 48 9.95012L18.4978 10.0062C14.6614 10.0062 11.5429 13.1471 11.5429 16.9835V76.6498C11.5429 77.3677 10.9596 77.9623 10.2304 77.9623Z" fill="#23295B"/>
<g id="Group">
<path id="Vector_5" d="M47.1794 36.9843H38.8671C38.1492 36.9843 37.5547 36.401 37.5547 35.6718C37.5547 34.9427 38.138 34.3594 38.8671 34.3594H47.1794C47.8973 34.3594 48.4918 34.9427 48.4918 35.6718C48.4918 36.401 47.9085 36.9843 47.1794 36.9843Z" fill="#23295B"/>
<path id="Vector_6" d="M43.9599 29.1767H38.8671C38.1492 29.1767 37.5547 28.5934 37.5547 27.8642C37.5547 27.1351 38.138 26.5518 38.8671 26.5518H43.9599C44.6778 26.5518 45.2724 27.1351 45.2724 27.8642C45.2724 28.5934 44.6891 29.1767 43.9599 29.1767Z" fill="#23295B"/>
<path id="Vector_7" d="M21.9181 35.1669C21.9181 35.1669 21.8956 35.1669 21.8844 35.1669C21.4806 35.1669 21.1104 34.965 20.8748 34.6397L18.5192 31.4763C18.0929 30.893 18.2051 30.0741 18.7884 29.6478C19.3717 29.2216 20.1906 29.3338 20.6168 29.9171L21.9742 31.7455L28.4691 23.9493C28.9291 23.3997 29.7592 23.3211 30.3088 23.7811C30.8585 24.241 30.937 25.0711 30.4771 25.6207L22.9164 34.6845C22.6697 34.9874 22.2995 35.1557 21.9069 35.1557L21.9181 35.1669Z" fill="#23295B"/>
<path id="Vector_8" d="M62.8728 63.2109H38.8671C38.1492 63.2109 37.5547 62.6275 37.5547 61.8984C37.5547 61.1693 38.138 60.5859 38.8671 60.5859H62.8728C63.5907 60.5859 64.1852 61.1693 64.1852 61.8984C64.1852 62.6275 63.6019 63.2109 62.8728 63.2109Z" fill="#23295B"/>
<path id="Vector_9" d="M62.8728 55.392H38.8671C38.1492 55.392 37.5547 54.8087 37.5547 54.0795C37.5547 53.3504 38.138 52.7671 38.8671 52.7671H62.8728C63.5907 52.7671 64.1852 53.3504 64.1852 54.0795C64.1852 54.8087 63.6019 55.392 62.8728 55.392Z" fill="#23295B"/>
<path id="Vector_10" d="M21.9181 61.831C21.9181 61.831 21.8956 61.831 21.8844 61.831C21.4806 61.831 21.1104 61.629 20.8748 61.3037L18.5192 58.1404C18.0929 57.5571 18.2051 56.7382 18.7884 56.3119C19.3717 55.8856 20.1906 55.9978 20.6168 56.5811L21.9742 58.4096L28.4691 50.6134C28.9291 50.0637 29.7592 49.9852 30.3088 50.4451C30.8585 50.905 30.937 51.7351 30.4771 52.2848L22.9164 61.3486C22.6697 61.6515 22.2995 61.8197 21.9069 61.8197L21.9181 61.831Z" fill="#23295B"/>
</g>
<g id="Group_2">
<g id="Group_3">
<path id="Vector_11" d="M87.8137 38.499C87.0958 38.499 86.5013 37.9157 86.5013 37.1865V36.6256C86.5013 34.6289 85.6263 32.7556 84.1119 31.4992C81.3188 29.1772 77.774 27.9096 74.1395 27.9096C70.505 27.9096 66.9715 29.1884 64.1783 31.4992C62.6639 32.7556 61.789 34.6289 61.789 36.6256V37.1865C61.789 37.9044 61.2057 38.499 60.4765 38.499C59.7474 38.499 59.1641 37.9157 59.1641 37.1865V36.6256C59.1641 33.8437 60.3756 31.2412 62.4957 29.48C65.76 26.7766 69.8881 25.2847 74.1283 25.2847C78.3685 25.2847 82.5078 26.7766 85.7609 29.48C87.881 31.2412 89.1038 33.8437 89.1038 36.6256V37.1865C89.1038 37.9044 88.5205 38.499 87.7913 38.499H87.8137Z" fill="#23295B"/>
<path id="Vector_12" d="M74.1389 27.9094C70.022 27.9094 66.668 23.4785 66.668 18.038V16.9835C66.668 13.3042 70.022 10.2979 74.1389 10.2979C78.2557 10.2979 81.6098 13.2929 81.6098 16.9835V18.038C81.6098 23.4785 78.2557 27.9094 74.1389 27.9094ZM74.1389 12.9115C71.4579 12.9115 69.2817 14.74 69.2817 16.9723V18.0268C69.2817 21.9641 71.5027 25.2845 74.1389 25.2845C76.775 25.2845 78.9961 21.9641 78.9961 18.0268V16.9723C78.9961 14.7288 76.8199 12.9115 74.1389 12.9115Z" fill="#23295B"/>
</g>
<path id="Vector_13" d="M94.1389 27.9093C94.038 27.9093 93.937 27.8981 93.8361 27.8757C93.1293 27.7074 92.7031 27.0007 92.8713 26.3052C93.2191 24.8582 93.3873 23.3662 93.3873 21.8631C93.3873 11.2512 84.761 2.62492 74.1492 2.62492C63.5374 2.62492 54.9111 11.2512 54.9111 21.8631C54.9111 23.3662 55.0906 24.8694 55.4271 26.3052C55.5953 27.0119 55.1579 27.7074 54.4624 27.8757C53.7557 28.0439 53.0602 27.6065 52.8919 26.911C52.4993 25.2732 52.3086 23.5681 52.3086 21.8631C52.3086 9.81539 62.1128 0.0112305 74.1604 0.0112305C86.2081 0.0112305 96.0123 9.81539 96.0123 21.8631C96.0123 23.5681 95.8103 25.2732 95.4289 26.911C95.2831 27.5167 94.7447 27.9206 94.1614 27.9206L94.1389 27.9093Z" fill="#23295B"/>
<path id="Vector_14" d="M74.1502 43.7035C68.777 43.7035 63.6169 41.7404 59.6122 38.1732C58.0193 36.7486 56.6508 35.122 55.5402 33.3272C55.1588 32.7103 55.3495 31.9026 55.9665 31.5324C56.5835 31.151 57.3911 31.3417 57.7613 31.9587C58.7372 33.5404 59.9375 34.9762 61.3397 36.2326C64.862 39.3735 69.4052 41.101 74.1278 41.101C78.8504 41.101 83.3935 39.3735 86.9158 36.2326C88.318 34.9762 89.5183 33.5404 90.4942 31.9587C90.8756 31.3417 91.6833 31.151 92.289 31.5324C92.906 31.9138 93.0967 32.7215 92.7153 33.3272C91.6047 35.122 90.2362 36.7598 88.6433 38.1732C84.6386 41.7404 79.4785 43.7035 74.1053 43.7035H74.1502Z" fill="#23295B"/>
</g>
</g>
<defs>
<clipPath id="clip0_452_1230">
<rect width="96" height="96" fill="white"/>
</clipPath>
</defs>
</svg>
