<svg width="99" height="88" viewBox="0 0 99 88" fill="none" xmlns="http://www.w3.org/2000/svg">
<g id="_?&#235;&#141;&#137;&#236;&#148;&#160;??1" clip-path="url(#clip0_799_66)">
<g id="Group">
<path id="Vector" d="M20.4706 61.584C16.6164 61.584 13.2119 60.8953 10.3212 59.5178C6.8845 57.886 4.24008 55.3429 2.44144 51.9522C-1.4449 44.641 -0.331458 34.6595 3.25511 30.6118C3.73689 30.0714 4.57197 30.0184 5.12869 30.4953C5.67471 30.9721 5.72824 31.7986 5.24646 32.3496C2.63415 35.2953 1.1567 43.9204 4.78609 50.7443C7.13075 55.1628 12.4303 60.1217 24.3677 58.7337C25.0957 58.6489 25.7488 59.1681 25.8344 59.878C25.9201 60.588 25.3955 61.2449 24.6782 61.3297C23.2221 61.4992 21.8196 61.584 20.4706 61.584Z" fill="#23295B"/>
<path id="Vector_2" d="M5.94299 34.5534C5.6111 34.5534 5.2685 34.4263 5.01155 34.172C1.20015 30.4316 1.16803 24.3283 4.94731 20.5561C7.08855 18.4157 10.0649 17.3985 13.084 17.7799C13.812 17.8753 14.3259 18.5322 14.2296 19.2422C14.1332 19.9627 13.4694 20.4713 12.7521 20.3759C10.5466 20.1004 8.384 20.8316 6.8316 22.3998C4.08011 25.1441 4.10153 29.5839 6.87442 32.3071C7.39903 32.8157 7.39903 33.6422 6.87442 34.1614C6.61748 34.4157 6.27488 34.5534 5.93228 34.5534H5.94299Z" fill="#23295B"/>
<path id="Vector_3" d="M65.6076 12.9801C65.5005 12.9801 65.3934 12.9695 65.2864 12.9377C64.5798 12.7576 64.1515 12.0477 64.3228 11.3483C65.2757 7.59732 62.9738 3.78276 59.1839 2.83971C57.2889 2.36289 55.3296 2.68077 53.6809 3.70858C53.0599 4.09004 52.2463 3.90991 51.8501 3.29534C51.4647 2.68077 51.6467 1.87547 52.2677 1.48342C54.5374 0.0635505 57.2246 -0.360291 59.8369 0.286067C65.0401 1.57878 68.2092 6.82381 66.8923 11.9735C66.7424 12.5669 66.1964 12.9695 65.6076 12.9695V12.9801Z" fill="#23295B"/>
<path id="Vector_4" d="M30.1694 27.9414C28.4885 27.9414 27.0325 27.5705 26.3366 27.348C25.6407 27.1361 25.2445 26.3943 25.4694 25.7056C25.6835 25.0169 26.4329 24.6248 27.1288 24.8473C28.6384 25.3135 32.3641 26.1188 34.4947 23.4804C34.955 22.9188 35.7901 22.8235 36.3575 23.2791C36.925 23.7347 37.0213 24.5612 36.561 25.1228C34.7516 27.348 32.2785 27.9414 30.1694 27.9414Z" fill="#23295B"/>
<path id="Vector_5" d="M54.7107 56.7099C54.4966 56.7099 54.2718 56.7099 54.047 56.6782C53.3189 56.6146 52.7729 55.9894 52.8372 55.2689C52.9014 54.5483 53.5438 54.0079 54.2611 54.0715C55.6529 54.1775 57.0126 53.7536 58.0832 52.853C59.1538 51.9523 59.8069 50.702 59.9139 49.3245C59.9782 48.604 60.6206 48.0636 61.3379 48.1272C62.0659 48.1907 62.6119 48.8159 62.5477 49.5364C62.3764 51.6132 61.3914 53.4993 59.7855 54.8556C58.3508 56.0636 56.5629 56.7099 54.7 56.7099H54.7107Z" fill="#23295B"/>
<path id="Vector_6" d="M21.6684 37.3298C21.1545 37.3298 20.6513 37.0225 20.4479 36.5245C20.1695 35.857 20.4907 35.0835 21.1652 34.808C22.6855 34.1828 23.9381 33.049 24.709 31.608C25.5976 29.955 25.7689 28.0477 25.2122 26.257C24.6554 24.4663 23.4242 22.9934 21.7434 22.1245C21.101 21.7855 20.844 20.9908 21.1866 20.355C21.5292 19.7192 22.3322 19.4649 22.9746 19.804C25.2764 21.0119 26.968 23.0252 27.7281 25.4835C28.4882 27.9417 28.2527 30.559 27.0322 32.8265C25.9723 34.808 24.2486 36.3656 22.1609 37.2239C21.9896 37.2874 21.8183 37.3298 21.6577 37.3298H21.6684Z" fill="#23295B"/>
<path id="Vector_7" d="M79.3116 44.556C78.1661 44.556 77.0312 44.2593 76.0034 43.6871C74.4296 42.8076 73.3054 41.3772 72.8237 39.6606C72.4061 38.1666 72.5239 36.5666 73.1556 35.1573C73.4553 34.5003 74.2369 34.2036 74.9007 34.4897C75.5645 34.7864 75.8642 35.5599 75.5752 36.2169C75.1897 37.0752 75.1148 38.05 75.3717 38.9507C75.6608 39.9891 76.346 40.858 77.2989 41.3983C78.2517 41.9282 79.3544 42.0659 80.4144 41.7798C81.121 41.5891 81.849 41.9917 82.0417 42.6911C82.2344 43.3904 81.8276 44.1109 81.121 44.3017C80.5214 44.4712 79.9112 44.5454 79.3009 44.5454L79.3116 44.556Z" fill="#23295B"/>
<path id="Vector_8" d="M73.5413 36.948C72.2245 36.948 70.8969 36.5666 69.7299 35.7719C68.4452 34.8924 67.4924 33.5891 67.0641 32.1057C66.8607 31.4063 67.2675 30.6858 67.9741 30.4845C68.6807 30.2831 69.4088 30.6858 69.6122 31.3851C69.8691 32.2858 70.4473 33.0805 71.2288 33.6103C73.0917 34.8712 75.6505 34.405 76.9245 32.5613C77.342 31.9679 78.1664 31.809 78.766 32.2222C79.3655 32.6355 79.5261 33.4514 79.1086 34.0447C77.8024 35.9308 75.6826 36.9374 73.5413 36.9374V36.948Z" fill="#23295B"/>
<path id="Vector_9" d="M91.2708 42.4901C90.7676 42.4901 90.2965 42.2146 90.0717 41.7272C89.7612 41.0703 90.0503 40.2862 90.714 39.9895C92.427 39.2054 93.7332 37.7961 94.3756 36.0372C95.0179 34.2782 94.943 32.3815 94.14 30.6756C92.4913 27.1683 88.273 25.6531 84.74 27.2742C84.0762 27.5815 83.284 27.2954 82.9842 26.6385C82.6737 25.9815 82.9628 25.1974 83.6266 24.9007C88.4872 22.665 94.2899 24.7524 96.5489 29.5736C97.6409 31.9047 97.7587 34.5219 96.8701 36.9378C95.9815 39.3537 94.1935 41.2822 91.8382 42.363C91.6562 42.4478 91.4635 42.4901 91.2815 42.4901H91.2708Z" fill="#23295B"/>
<path id="Vector_10" d="M84.3655 61.3404C83.1128 61.3404 81.8602 61.1814 80.629 60.8636C79.9224 60.6834 79.4941 59.9629 79.6869 59.2636C79.8689 58.5642 80.5969 58.1404 81.3035 58.3311C84.6759 59.2106 88.2518 58.596 91.121 56.6569C93.7655 54.8662 95.5427 52.1748 96.1422 49.0596C96.7418 45.9444 96.0673 42.7867 94.258 40.1695C93.8404 39.5761 94.001 38.7602 94.6006 38.347C95.2001 37.9338 96.0245 38.0927 96.442 38.6861C98.6475 41.8755 99.4612 45.7324 98.7438 49.5364C98.0265 53.3404 95.8425 56.6357 92.6199 58.8185C90.1682 60.4821 87.2775 61.3404 84.3655 61.3404Z" fill="#23295B"/>
<path id="Vector_11" d="M87.661 26.0239C87.0079 26.0239 86.4405 25.5471 86.3549 24.8901C85.3592 17.5894 79.5779 12.9908 76.2161 10.9033C71.4412 7.93646 66.8696 6.96163 65.8525 7.29011C65.1566 7.51262 64.4072 7.14176 64.1824 6.45302C63.9576 5.76428 64.3323 5.02256 65.0282 4.80004C67.3193 4.05832 72.9722 5.79607 77.6186 8.68878C81.3765 11.0199 87.843 16.1802 88.9779 24.5404C89.0742 25.261 88.5711 25.9179 87.843 26.0133C87.7788 26.0133 87.7253 26.0239 87.661 26.0239Z" fill="#23295B"/>
<path id="Vector_12" d="M39.7089 70.4846C30.887 70.4846 23.7031 64.1376 23.7031 56.3496C23.7031 55.629 24.292 55.0356 25.0307 55.0356C25.7694 55.0356 26.3583 55.6184 26.3583 56.3496C26.3583 62.6966 32.3537 67.8674 39.7196 67.8674C43.531 67.8674 47.1711 66.4582 49.7084 63.9999C50.233 63.4913 51.0681 63.5019 51.582 64.0211C52.0959 64.5403 52.0852 65.3668 51.5606 65.8754C48.5307 68.8105 44.2162 70.4952 39.7196 70.4952L39.7089 70.4846Z" fill="#23295B"/>
<path id="Vector_13" d="M61.1757 67.6342C54.9019 67.6342 50.6836 65.907 50.4374 65.8116C49.7629 65.5256 49.4524 64.7626 49.7308 64.0951C50.0199 63.4275 50.7907 63.1203 51.4652 63.3958C51.5508 63.4275 59.2058 66.5216 68.9484 64.0421C69.655 63.862 70.383 64.2858 70.565 64.9852C70.747 65.6845 70.3188 66.405 69.6121 66.5852C66.5609 67.3587 63.7023 67.6342 61.1864 67.6342H61.1757Z" fill="#23295B"/>
<path id="Vector_14" d="M77.4392 71.4597C76.754 71.4597 76.1759 70.9405 76.1223 70.2518C76.0581 69.5312 76.6041 68.8955 77.3321 68.8425C88.1775 67.963 90.4793 57.8862 90.5757 57.4624C90.7255 56.7524 91.4322 56.3074 92.1495 56.4557C92.8668 56.6041 93.3271 57.3034 93.1773 58.0028C93.1451 58.1299 92.4921 61.1604 90.2545 64.3286C88.1668 67.2849 84.2697 70.9193 77.557 71.4597C77.5248 71.4597 77.482 71.4597 77.4499 71.4597H77.4392Z" fill="#23295B"/>
<path id="Vector_15" d="M83.3483 87.9999C82.7273 87.9999 82.1706 87.5655 82.0528 86.9297C81.0786 81.8013 75.1795 77.1178 67.0106 74.9986C58.253 72.7311 57.3001 66.7549 57.268 66.5006C57.161 65.7801 57.6749 65.1231 58.3922 65.0171C59.1095 64.9112 59.784 65.4092 59.891 66.1191C59.9232 66.3311 60.7368 70.6542 67.6851 72.4556C76.8389 74.8291 83.4982 80.3178 84.6651 86.4423C84.8043 87.1522 84.3225 87.841 83.6052 87.9681C83.5196 87.9787 83.4446 87.9893 83.359 87.9893L83.3483 87.9999Z" fill="#23295B"/>
<path id="Vector_16" d="M88.874 86.9294H88.8526C88.1246 86.9188 87.5357 86.3149 87.5571 85.5943C87.7284 76.6089 80.7266 71.2473 80.6517 71.1943C80.0735 70.7599 79.9558 69.9334 80.3947 69.3612C80.8337 68.7785 81.658 68.6619 82.2469 69.0963C82.5788 69.34 90.4157 75.2738 90.2123 85.6367C90.2016 86.3573 89.6127 86.9188 88.8847 86.9188L88.874 86.9294Z" fill="#23295B"/>
<path id="Vector_17" d="M10.6104 20.3335C10.6104 20.3335 10.589 20.3335 10.5783 20.3335C9.85027 20.3123 9.27213 19.7084 9.29354 18.9878C9.29354 18.7441 9.50767 13.0011 14.0043 9.14413C17.1733 6.43154 21.5842 5.37194 27.13 6.0077C27.8581 6.09247 28.3827 6.73883 28.297 7.45936C28.2114 8.17989 27.5583 8.69909 26.8303 8.61432C22.0553 8.07393 18.3188 8.91101 15.7387 11.1256C12.12 14.2302 11.9487 19.0196 11.9487 19.062C11.9273 19.7719 11.3384 20.3335 10.6211 20.3335H10.6104Z" fill="#23295B"/>
<path id="Vector_18" d="M25.0195 11.3588C24.8375 11.3588 24.6447 11.3164 24.4627 11.2422C23.799 10.9349 23.5099 10.1614 23.8097 9.50448C23.8632 9.38792 25.2015 6.55878 28.5953 4.06872C31.6787 1.81176 37.1281 -0.60413 45.6288 0.720373C46.3569 0.836929 46.8494 1.50448 46.7316 2.21441C46.6138 2.92435 45.9393 3.42236 45.222 3.3058C30.9079 1.08064 26.4113 10.2038 26.2293 10.5959C26.0044 11.0727 25.5227 11.3482 25.0302 11.3482L25.0195 11.3588Z" fill="#23295B"/>
<path id="Vector_19" d="M64.1957 58.6489C63.5855 58.6489 63.0395 58.2357 62.9003 57.6211C62.3971 55.3854 60.2452 54.7602 60.1488 54.7284C59.4422 54.5483 59.0247 53.8278 59.2067 53.1284C59.3887 52.4291 60.1274 52.0158 60.834 52.196C60.9839 52.2383 64.624 53.2238 65.4805 57.0489C65.6411 57.7589 65.1914 58.4582 64.4741 58.6172C64.3777 58.6383 64.2814 58.6489 64.185 58.6489H64.1957Z" fill="#23295B"/>
</g>
<path id="Vector_20" d="M35.814 54.1562C35.4928 54.1562 35.1609 54.0397 34.9147 53.8065C34.4436 53.3721 34.358 52.6728 34.7006 52.143L44.1327 37.3933L39.4969 36.0794C39.0366 35.9522 38.694 35.592 38.5762 35.1363C38.4584 34.6807 38.5976 34.2039 38.9402 33.8754L58.9072 14.8132C59.3676 14.3787 60.0635 14.3257 60.5881 14.686C61.102 15.0463 61.2947 15.7138 61.0485 16.286L53.9289 32.3496L60.0207 34.045C60.5025 34.1827 60.8772 34.5748 60.9628 35.0728C61.0592 35.5602 60.8558 36.0688 60.4489 36.3655L36.617 53.9125C36.3814 54.082 36.1031 54.1668 35.8247 54.1668L35.814 54.1562ZM42.4197 34.1827L46.5523 35.3483C46.9484 35.4648 47.2803 35.7509 47.4302 36.143C47.5801 36.5244 47.5373 36.9589 47.3124 37.3085L40.7496 47.5655L56.6911 35.8251L51.7234 34.4476C51.3487 34.3416 51.0489 34.0873 50.8883 33.7483C50.7277 33.4092 50.717 33.0065 50.8776 32.6569L55.9202 21.2979L42.4411 34.1721L42.4197 34.1827Z" fill="#23295B"/>
</g>
<defs>
<clipPath id="clip0_799_66">
<rect width="99" height="88" fill="white"/>
</clipPath>
</defs>
</svg>
