<svg width="91" height="82" viewBox="0 0 91 82" fill="none" xmlns="http://www.w3.org/2000/svg">
<g id="_?&#235;&#141;&#137;&#236;&#148;&#160;??1" clip-path="url(#clip0_452_1190)">
<path id="Vector" d="M45.1616 53.0498C44.4416 53.0498 43.8516 52.4698 43.8516 51.7398V29.3798C43.8516 28.6598 44.4316 28.0698 45.1616 28.0698C45.8916 28.0698 46.4716 28.6498 46.4716 29.3798V51.7398C46.4716 52.4598 45.8916 53.0498 45.1616 53.0498Z" fill="#23295B"/>
<g id="Group">
<path id="Vector_2" d="M1.31 53.0498C0.59 53.0498 0 52.4698 0 51.7398V29.3798C0 28.6598 0.58 28.0698 1.31 28.0698C2.04 28.0698 2.62 28.6498 2.62 29.3798V51.7398C2.62 52.4598 2.04 53.0498 1.31 53.0498Z" fill="#23295B"/>
<path id="Vector_3" d="M12.2709 66.2099C11.5509 66.2099 10.9609 65.6299 10.9609 64.8999V16.2099C10.9609 15.4899 11.5409 14.8999 12.2709 14.8999C13.0009 14.8999 13.5809 15.4799 13.5809 16.2099V64.8999C13.5809 65.6199 13.0009 66.2099 12.2709 66.2099Z" fill="#23295B"/>
<path id="Vector_4" d="M34.1889 61.7401C33.4689 61.7401 32.8789 61.1601 32.8789 60.4301V20.6801C32.8789 19.9601 33.4589 19.3701 34.1889 19.3701C34.9189 19.3701 35.4989 19.9501 35.4989 20.6801V60.4301C35.4989 61.1501 34.9189 61.7401 34.1889 61.7401Z" fill="#23295B"/>
<path id="Vector_5" d="M23.2319 81.12C22.5119 81.12 21.9219 80.54 21.9219 79.81V1.31C21.9219 0.59 22.5019 0 23.2319 0C23.9619 0 24.5419 0.58 24.5419 1.31V79.82C24.5419 80.54 23.9619 81.13 23.2319 81.13V81.12Z" fill="#23295B"/>
</g>
<g id="Group_2">
<path id="Vector_6" d="M89.0092 53.0498C88.2892 53.0498 87.6992 52.4698 87.6992 51.7398V29.3798C87.6992 28.6598 88.2792 28.0698 89.0092 28.0698C89.7392 28.0698 90.3192 28.6498 90.3192 29.3798V51.7398C90.3192 52.4598 89.7392 53.0498 89.0092 53.0498Z" fill="#23295B"/>
<path id="Vector_7" d="M78.0405 66.2099C77.3205 66.2099 76.7305 65.6299 76.7305 64.8999V16.2099C76.7305 15.4899 77.3105 14.8999 78.0405 14.8999C78.7705 14.8999 79.3505 15.4799 79.3505 16.2099V64.8999C79.3505 65.6199 78.7705 66.2099 78.0405 66.2099Z" fill="#23295B"/>
<path id="Vector_8" d="M56.1186 61.7401C55.3986 61.7401 54.8086 61.1601 54.8086 60.4301V20.6801C54.8086 19.9601 55.3886 19.3701 56.1186 19.3701C56.8486 19.3701 57.4286 19.9501 57.4286 20.6801V60.4301C57.4286 61.1501 56.8486 61.7401 56.1186 61.7401Z" fill="#23295B"/>
<path id="Vector_9" d="M67.0795 81.12C66.3595 81.12 65.7695 80.54 65.7695 79.81V1.31C65.7695 0.59 66.3495 0 67.0795 0C67.8095 0 68.3895 0.58 68.3895 1.31V79.82C68.3895 80.54 67.8095 81.13 67.0795 81.13V81.12Z" fill="#23295B"/>
</g>
</g>
<defs>
<clipPath id="clip0_452_1190">
<rect width="90.31" height="81.12" fill="white"/>
</clipPath>
</defs>
</svg>
