<svg width="96" height="96" viewBox="0 0 96 96" fill="none" xmlns="http://www.w3.org/2000/svg">
<g id="_?&#235;&#141;&#137;&#236;&#148;&#160;??1" clip-path="url(#clip0_452_1152)">
<path id="Vector" d="M47.5692 56.1575C42.7836 56.1575 38.9023 52.2649 38.9023 47.4906C38.9023 42.7164 42.795 38.8237 47.5692 38.8237C52.3435 38.8237 56.2362 42.7164 56.2362 47.4906C56.2362 52.2649 52.3435 56.1575 47.5692 56.1575ZM47.5692 41.5371C44.2834 41.5371 41.6158 44.2048 41.6158 47.4906C41.6158 50.7765 44.2834 53.4441 47.5692 53.4441C50.8551 53.4441 53.5227 50.7765 53.5227 47.4906C53.5227 44.2048 50.8551 41.5371 47.5692 41.5371Z" fill="#23295B"/>
<path id="Vector_2" d="M67.5375 46.8952C66.8048 46.8952 66.198 46.3113 66.1751 45.5671C66.1407 43.7352 66.0491 41.8919 65.9232 40.1059C65.6828 36.7055 65.2706 33.3624 64.7096 30.1911C63.6792 24.3635 62.1908 19.2 60.2903 14.8379C56.867 7.01825 52.5049 2.71342 48.0055 2.71342C43.506 2.71342 38.915 7.31592 35.5146 15.3417C35.2169 16.0286 34.4269 16.3492 33.74 16.063C33.0531 15.7653 32.7325 14.9753 33.0187 14.2884C36.9114 5.07191 42.2352 0 47.994 0C53.7529 0 58.882 4.88873 62.7633 13.7503C64.7554 18.307 66.3125 23.6766 67.3772 29.7216C67.9497 32.9961 68.3733 36.4193 68.6252 39.9227C68.7625 41.7546 68.8427 43.6322 68.8885 45.5213C68.8999 46.2655 68.3046 46.8952 67.5604 46.9066C67.5604 46.9066 67.5375 46.9066 67.5261 46.9066L67.5375 46.8952Z" fill="#23295B"/>
<path id="Vector_3" d="M47.9928 96.0001C42.3599 96.0001 37.1162 91.1114 33.2236 82.2499C31.2085 77.6474 30.0064 73.4799 28.6211 66.3014C27.9227 62.7064 27.5105 59.3518 27.3617 56.0316C27.2701 53.9479 27.2701 51.8413 27.3617 49.769C27.396 49.0248 28.0257 48.4524 28.7813 48.4753C29.5255 48.5096 30.1094 49.1508 30.0751 49.895C29.9835 51.8871 29.9835 53.9136 30.0751 55.9057C30.2239 59.0885 30.6132 62.3171 31.2887 65.7747C32.6282 72.7243 33.796 76.7543 35.7194 81.1393C39.1542 88.959 43.5162 93.2638 48.0042 93.2638C52.4923 93.2638 57.0948 88.6613 60.4951 80.6356C60.7928 79.9486 61.5828 79.6281 62.2697 79.9143C62.9567 80.212 63.2772 81.0019 62.991 81.6889C59.0869 90.9053 53.7631 95.9772 47.9928 95.9772V96.0001Z" fill="#23295B"/>
<path id="Vector_4" d="M73.0549 85.1463C67.2617 85.1463 59.8313 82.5588 51.588 77.5098C50.9468 77.1205 50.7522 76.2847 51.1415 75.6436C51.5307 75.0024 52.3665 74.8078 53.0076 75.1971C65.1779 82.6618 75.5279 84.5166 80.0159 80.0286C83.3017 76.7427 82.6148 71.0067 81.4584 66.7706C81.2638 66.0493 81.6874 65.3051 82.4087 65.099C83.13 64.9044 83.8742 65.328 84.0803 66.0493C86.0152 73.1134 85.271 78.6089 81.9393 81.9405C79.7983 84.0815 76.7529 85.1463 73.0549 85.1463Z" fill="#23295B"/>
<path id="Vector_5" d="M73.3195 49.0703C72.5753 49.0703 71.957 48.4636 71.957 47.7194C71.957 46.9637 72.5638 46.3569 73.3195 46.3569C74.0751 46.3569 74.6819 46.9637 74.6819 47.7194C74.6819 48.475 74.0751 49.0818 73.3195 49.0818V49.0703Z" fill="#23295B"/>
<path id="Vector_6" d="M12.9246 29.7904C12.3063 29.7904 11.7568 29.3668 11.6079 28.7485C10.0852 22.2684 10.9324 17.185 14.058 14.0594C19.5764 8.54102 30.9339 10.2126 44.4552 18.5246C45.0963 18.9138 45.2909 19.7496 44.9017 20.3908C44.5124 21.0319 43.6766 21.2265 43.0355 20.8373C30.8423 13.3496 20.4809 11.4834 15.9815 15.9829C12.9131 19.0512 13.3482 24.2834 14.2527 28.1303C14.4244 28.863 13.9779 29.5958 13.2451 29.7675C13.1421 29.7904 13.0391 29.8018 12.936 29.8018L12.9246 29.7904Z" fill="#23295B"/>
<path id="Vector_7" d="M48.0049 68.923C37.6321 68.923 27.7745 67.5377 19.4969 64.9159C18.787 64.6869 18.3863 63.9313 18.6153 63.21C18.8443 62.5001 19.5999 62.0994 20.3212 62.3284C28.3355 64.8701 37.9069 66.2096 48.0049 66.2096C72.5516 66.2096 93.2858 57.8747 93.2858 48.0057C93.2858 43.4146 88.8436 39.8769 85.1226 37.713C84.47 37.3352 84.2525 36.5109 84.6303 35.8583C85.0081 35.2057 85.8325 34.9882 86.4851 35.366C92.7133 38.9724 96.0107 43.3459 96.0107 48.0057C96.0107 53.8103 90.8586 59.1685 81.5162 63.0955C72.5402 66.8622 60.6446 68.9345 48.0049 68.9345V68.923Z" fill="#23295B"/>
<path id="Vector_8" d="M10.1899 60.8171C9.96091 60.8171 9.72048 60.7599 9.5144 60.6339C3.29759 57.0275 0.0117188 52.6654 0.0117188 48.0057C0.0117188 42.2468 5.08363 36.923 14.3001 33.0075C18.7423 31.1184 23.9402 29.6414 29.7334 28.6225C32.8933 28.0615 36.2364 27.6493 39.6826 27.386C45.2124 26.9853 50.8568 26.9853 56.1005 27.386C59.581 27.6264 63.0042 28.05 66.2901 28.6339C69.3699 29.172 72.3466 29.8704 75.1402 30.6833C75.8614 30.8894 76.2736 31.645 76.0561 32.3663C75.8386 33.0876 75.0944 33.4998 74.3731 33.2822C71.6711 32.4922 68.7974 31.8282 65.8092 31.3015C62.6149 30.7405 59.2833 30.3284 55.8944 30.088C50.7767 29.7101 45.2697 29.6987 39.8772 30.088C36.5226 30.3398 33.2711 30.752 30.1913 31.2901C24.5928 32.2747 19.601 33.6944 15.342 35.5033C7.31619 38.9037 2.71369 43.4604 2.71369 47.9942C2.71369 52.528 7.14446 56.123 10.8654 58.2754C11.518 58.6533 11.7355 59.4776 11.3577 60.1302C11.1058 60.5652 10.6479 60.8057 10.1784 60.8057L10.1899 60.8171Z" fill="#23295B"/>
<path id="Vector_9" d="M23.3325 85.673C19.8062 85.673 16.9096 84.6769 14.8259 82.6848C11.6087 79.605 10.6584 74.5102 12.0781 67.9499C13.3948 61.8476 16.6806 54.7835 21.5579 47.5249C23.4126 44.7771 25.462 42.0408 27.6717 39.3846C29.3089 37.4154 31.072 35.4461 32.8924 33.5342C34.8502 31.4848 36.8652 29.5384 38.8803 27.7181C41.525 25.3367 44.227 23.1384 46.9289 21.1807C51.7719 17.6429 56.5232 14.9066 61.0227 13.0404C69.9529 9.31949 77.12 9.41108 81.1958 13.3037C85.4434 17.3681 85.7182 24.913 81.9515 34.5302C80.2112 38.9724 77.7153 43.6436 74.5096 48.4064C74.4982 48.4293 74.4867 48.4522 74.4638 48.4751C72.5976 51.2458 70.5368 53.9821 68.35 56.6039C66.7243 58.5617 64.9726 60.5195 63.1293 62.4544C61.1944 64.4809 59.1794 66.4386 57.1529 68.259C54.5425 70.6175 51.8291 72.8157 49.1042 74.8079C44.2728 78.3342 39.5329 81.0705 35.022 82.9481C30.6599 84.7571 26.7214 85.673 23.3554 85.673H23.3325ZM72.6663 13.0175C69.6896 13.0175 66.106 13.8647 62.0416 15.5478C57.7368 17.3338 53.1801 19.9671 48.5089 23.3789C45.8871 25.2794 43.2538 27.4204 40.6778 29.7445C38.72 31.5077 36.7508 33.4197 34.8388 35.4118C33.0642 37.2665 31.3468 39.19 29.744 41.1134C27.5915 43.7009 25.588 46.3571 23.7905 49.0247C14.3565 63.0268 11.5057 75.7581 16.6806 80.7041C19.9207 83.8068 26.0574 83.7152 33.9343 80.4293C38.2506 78.6318 42.8073 75.9986 47.467 72.5982C50.1118 70.6633 52.745 68.5224 55.2982 66.2325C57.2788 64.458 59.2366 62.546 61.1372 60.5653C62.9347 58.6876 64.652 56.7642 66.232 54.8637C68.35 52.322 70.3307 49.6773 72.1397 47.0097C72.1511 46.9868 72.1626 46.9639 72.174 46.9524C75.2881 42.327 77.7153 37.8161 79.3869 33.5342C82.6728 25.1306 82.6384 18.4672 79.2839 15.2615C77.7039 13.7503 75.4484 13.0061 72.6434 13.0061L72.6663 13.0175Z" fill="#23295B"/>
</g>
<defs>
<clipPath id="clip0_452_1152">
<rect width="96" height="96" fill="white"/>
</clipPath>
</defs>
</svg>
