<svg width="89" height="100" viewBox="0 0 89 100" fill="none" xmlns="http://www.w3.org/2000/svg">
<g id="_?&#235;&#141;&#137;&#236;&#148;&#160;??1" clip-path="url(#clip0_452_1276)">
<g id="Group">
<path id="Vector" d="M48.4857 69.9037C48.269 69.9037 48.0523 69.8562 47.8597 69.7493C37.2885 64.2406 31.1481 60.8689 27.9575 55.4076C24.8873 50.1839 24.5742 43.6066 24.5742 29.8467C24.5742 27.3773 24.6946 24.9078 24.9234 22.4978C24.9595 22.1178 25.1642 21.7736 25.4772 21.548C25.7903 21.3224 26.1876 21.2512 26.5608 21.3343C39.6484 24.3498 47.1011 14.9114 47.4142 14.5077C47.667 14.1753 48.0523 13.9972 48.4857 13.9854C48.9071 13.9854 49.3045 14.1753 49.5573 14.5077C49.8704 14.9114 57.3231 24.338 70.4107 21.3224C70.7839 21.2393 71.1812 21.3224 71.4943 21.5361C71.8073 21.7617 72.012 22.106 72.0481 22.4859C72.2889 24.896 72.3973 27.3654 72.3973 29.8348C72.3973 43.5829 72.0722 50.1601 69.014 55.3958C65.8114 60.8451 59.683 64.2287 49.1118 69.7375C48.9192 69.8443 48.7025 69.8918 48.4857 69.8918V69.9037ZM27.4638 24.2311C27.3193 26.0832 27.2471 27.9709 27.2471 29.8586C27.2471 55.0396 27.8491 56.3218 48.4857 67.0781C69.1224 56.3218 69.7244 55.0396 69.7244 29.8586C69.7244 27.9827 69.6521 26.0951 69.5077 24.2311C68.0869 24.4686 66.7264 24.5754 65.4261 24.5754C56.6609 24.5754 50.7734 19.6365 48.4857 17.3096C45.849 19.9808 38.4805 26.0951 27.4638 24.2311Z" fill="#23295B"/>
<g id="Group_2">
<path id="Vector_2" d="M33.302 30.7605C33.302 30.7605 33.2659 30.7605 33.2418 30.7605H33.1093C32.3629 30.7249 31.797 30.1075 31.8211 29.3833C31.8451 28.6472 32.4833 28.1011 33.2177 28.113H33.3501C34.0966 28.1486 34.6625 28.766 34.6384 29.4902C34.6143 30.2025 34.0123 30.7605 33.302 30.7605Z" fill="#23295B"/>
<path id="Vector_3" d="M38.0696 30.3333C37.4556 30.3333 36.9017 29.9178 36.7573 29.3004C36.6007 28.5881 37.0583 27.8757 37.7807 27.7214C41.1519 26.9853 43.7405 25.4063 45.3177 24.1953C45.9077 23.7442 46.7505 23.851 47.196 24.4328C47.6535 25.0145 47.5451 25.8456 46.9552 26.2849C45.1612 27.6502 42.2114 29.4547 38.3586 30.2977C38.2623 30.3214 38.1659 30.3333 38.0696 30.3333Z" fill="#23295B"/>
</g>
<path id="Vector_4" d="M46.9929 50.3737C46.6438 50.3737 46.3066 50.2431 46.0418 49.9819L39.3114 43.3453C38.7816 42.823 38.7816 41.9919 39.3114 41.4695C39.8411 40.9471 40.6839 40.9471 41.2137 41.4695L46.9929 47.1682L57.7206 36.59C58.2504 36.0676 59.0932 36.0676 59.6229 36.59C60.1527 37.1124 60.1527 37.9435 59.6229 38.4658L47.9441 49.9819C47.6792 50.2431 47.3421 50.3737 46.9929 50.3737Z" fill="#23295B"/>
</g>
<g id="Group_3">
<path id="Vector_5" d="M80.8001 99.9999C80.1982 99.9999 79.6443 99.5962 79.4998 98.9907C75.2376 81.5504 78.2958 72.0645 81.5346 62.0087C83.2202 56.7611 84.966 51.3474 85.9292 44.3546C87.3981 33.6221 84.7613 23.4832 78.5125 15.7781C72.3721 8.21549 63.4384 3.73965 52.6746 2.83736C47.4131 2.39809 29.3771 1.81635 18.517 13.1187C12.208 19.6841 9.83613 28.9207 11.4856 40.5793C12.0395 44.5327 9.06557 48.8067 6.4288 52.5821C4.34587 55.5739 2.19071 58.6726 2.80475 60.2635C3.16595 61.2014 3.73183 61.3082 5.6462 61.2251C7.25956 61.1539 9.95653 61.0352 10.5104 64.0626C10.7632 65.4398 10.5104 66.4845 10.3057 67.3987C10.101 68.2891 9.93245 68.9896 10.1973 69.9987C10.6669 71.7677 11.4856 72.7175 12.2923 73.6316C13.0629 74.522 13.8575 75.4362 14.1706 76.8727C14.315 77.5257 14.0983 78.2618 13.7853 79.3897C13.2073 81.4317 12.3284 84.5185 14.0863 86.24C16.0127 88.1276 21.7558 89.4217 38.1904 84.8509C38.9008 84.6491 39.6473 85.0646 39.852 85.7651C40.0566 86.4655 39.6352 87.2016 38.9249 87.4034C24.525 91.4163 15.7719 91.6537 12.196 88.1276C9.33045 85.302 10.5104 81.1586 11.2087 78.6892C11.3411 78.2024 11.5217 77.597 11.5458 77.3595C11.3652 76.6234 10.9077 76.101 10.2816 75.3768C9.37861 74.344 8.25889 73.0499 7.63281 70.6873C7.19936 69.0489 7.47628 67.8617 7.71709 66.8169C7.90973 66.0215 8.05421 65.3923 7.89769 64.5493C7.78933 63.9557 7.75321 63.7895 5.79068 63.8845C4.15323 63.9557 1.42014 64.0745 0.324499 61.2132C-0.783185 58.3164 1.66094 54.8141 4.24955 51.0981C6.59736 47.7264 9.27025 43.8916 8.86089 40.9592C7.091 28.4696 9.70369 18.485 16.6026 11.3023C28.2333 -0.866782 47.3168 -0.27317 52.8913 0.189848C64.2331 1.1515 74.0818 6.09036 80.5955 14.116C87.3138 22.3791 90.1553 33.2422 88.578 44.6989C87.5907 51.9173 85.8088 57.4497 84.0871 62.8041C80.8363 72.9074 78.0189 81.6454 82.1005 98.3615C82.269 99.0739 81.8356 99.7862 81.1132 99.9643C81.0048 99.988 80.8965 99.9999 80.8001 99.9999Z" fill="#23295B"/>
<path id="Vector_6" d="M30.3776 99.9998C30.3053 99.9998 30.2211 99.9998 30.1488 99.976C29.4144 99.8573 28.9328 99.1687 29.0532 98.4445C29.0532 98.4089 29.7515 94.2417 28.9568 88.2581C28.8605 87.5339 29.3782 86.869 30.1127 86.7741C30.8471 86.6791 31.5214 87.1896 31.6177 87.9138C32.4725 94.3367 31.7261 98.7057 31.6899 98.8956C31.5816 99.5367 31.0157 99.9998 30.3655 99.9998H30.3776Z" fill="#23295B"/>
</g>
</g>
<defs>
<clipPath id="clip0_452_1276">
<rect width="89" height="100" fill="white"/>
</clipPath>
</defs>
</svg>
