<svg width="24" height="24" viewBox="0 0 24 24" fill="none" xmlns="http://www.w3.org/2000/svg">
<g id="ic:baseline-apple">
<path id="Vector" d="M17.9974 22.1173C16.8344 23.2783 15.5645 23.095 14.3422 22.5451C13.0486 21.9829 11.8618 21.9585 10.497 22.5451C8.78802 23.3027 7.88607 23.0828 6.86544 22.1173C1.07395 15.9703 1.92843 6.60929 8.5032 6.26711C10.1054 6.35266 11.2209 7.17144 12.1585 7.24477C13.5589 6.95147 14.8999 6.10824 16.3953 6.21823C18.1873 6.36488 19.5403 7.09812 20.4303 8.41795C16.7276 10.7032 17.6058 15.7259 21 17.1313C20.3235 18.9644 19.4453 20.7853 17.9856 22.1296L17.9974 22.1173ZM12.0398 6.19379C11.8618 3.46858 14.0099 1.21997 16.4784 1C16.8225 4.15294 13.7013 6.49931 12.0398 6.19379Z" fill="white"/>
</g>
</svg>
