<svg width="20" height="20" viewBox="0 0 20 20" fill="none" xmlns="http://www.w3.org/2000/svg">
<g id="mage:playstore">
<path id="Vector" d="M3.03045 2.86169L10.3138 10.0042L3.08462 17.2125C2.96635 17.0585 2.87454 16.8859 2.81295 16.7017C2.7811 16.4932 2.7811 16.281 2.81295 16.0725V3.80586C2.79128 3.47669 2.86712 3.14752 3.02962 2.86169M13.4513 6.88919L11.0738 9.24419L3.87712 2.16669C4.11045 2.08586 4.36045 2.06336 4.60462 2.10169C4.98795 2.20669 5.35378 2.36836 5.68962 2.57919L12.203 6.18336C12.6263 6.41086 13.0388 6.65003 13.4513 6.88919ZM11.0746 10.775L13.4405 13.0984L11.7255 14.0534L6.49295 16.9617C6.05962 17.2009 5.62462 17.4292 5.20128 17.69C5.02014 17.8028 4.81702 17.8756 4.60549 17.9037C4.39395 17.9317 4.17888 17.9142 3.97462 17.8525L11.0746 10.775ZM17.208 10.0042C17.214 10.2956 17.1404 10.5831 16.995 10.8357C16.8496 11.0883 16.638 11.2964 16.383 11.4375L14.428 12.5225L11.8555 10.0042L14.4388 7.44252C15.1013 7.81169 15.753 8.18086 16.4038 8.52836C16.6633 8.67344 16.8765 8.88903 17.0187 9.1502C17.1609 9.41137 17.227 9.70745 17.208 10.0042Z" fill="white"/>
</g>
</svg>
