<svg width="32" height="32" viewBox="0 0 32 32" fill="none" xmlns="http://www.w3.org/2000/svg">
<g id="iconamoon:search">
<path id="Vector" d="M28.0003 28L22.2096 22.2093M22.2096 22.2093C23.2001 21.2188 23.9858 20.0429 24.5219 18.7487C25.058 17.4545 25.3339 16.0674 25.3339 14.6666C25.3339 13.2658 25.058 11.8787 24.5219 10.5846C23.9858 9.2904 23.2001 8.11449 22.2096 7.12397C21.2191 6.13345 20.0432 5.34773 18.749 4.81167C17.4548 4.2756 16.0677 3.99969 14.6669 3.99969C13.2661 3.99969 11.8791 4.2756 10.5849 4.81167C9.29071 5.34773 8.11479 6.13345 7.12427 7.12397C5.12384 9.12441 4 11.8376 4 14.6666C4 17.4957 5.12384 20.2089 7.12427 22.2093C9.12471 24.2097 11.8379 25.3336 14.6669 25.3336C17.496 25.3336 20.2092 24.2097 22.2096 22.2093Z" stroke="#3C3C3C" stroke-width="2" stroke-linecap="round" stroke-linejoin="round"/>
</g>
</svg>
