<svg width="152" height="23" viewBox="0 0 152 23" fill="none" xmlns="http://www.w3.org/2000/svg">
<path d="M28.836 14.0565H40.6376L41.9818 9.61409H28.836V5.6314H42.8105L44.1605 1.1626H24.3672V17.8518C24.3672 20.3732 26.4112 22.4172 28.9326 22.4172H42.916L44.266 17.9484H28.836V14.0536V14.0565Z" fill="#B0B0B0"/>
<path d="M15.8897 9.56137H4.44245V1.16552H0V22.3997H4.44245V14.0038H15.8897V22.3997H20.3322V1.16552H15.8897V9.56137Z" fill="#B0B0B0"/>
<path d="M72.4752 1.18311V5.62556H83.5828L71.5586 22.3206H90.7809L92.1251 17.8782H80.2356L92.2598 1.18311H72.4752Z" fill="#B0B0B0"/>
<path d="M68.5139 8.67698C68.549 6.72663 67.8023 4.87 66.4113 3.45263C64.9968 2.01184 63.0348 1.18602 61.0288 1.18602H48.3105V22.4202L52.712 22.4055V15.8956V11.4531V5.63139H61.0288C61.8487 5.63139 62.657 5.97402 63.2398 6.5685C63.7903 7.13076 64.0861 7.85116 64.0714 8.59791C64.0421 10.1705 62.7361 11.4531 61.1606 11.4531H54.062L52.7091 15.8956H60.8677L65.0085 22.4055H70.0162L65.1257 14.7154C67.1199 13.4269 68.467 11.2042 68.5139 8.6799V8.67698Z" fill="#B0B0B0"/>
<path d="M96.4609 22.3997H100.903V16.7536C100.019 15.2777 99.4948 13.4621 99.4948 11.5C99.4948 9.53795 100.019 7.72231 100.903 6.24638V1.16553H96.4609V22.4026V22.3997ZM98.7949 7.19227V15.8077C97.9105 14.5983 97.3863 13.1077 97.3863 11.5C97.3863 9.89229 97.9105 8.40171 98.7949 7.19227Z" fill="#B0B0B0"/>
<path d="M146.815 1.16552V18.8123L133.61 1.16552H129.168V6.26394C130.047 7.73695 130.565 9.5438 130.565 11.5C130.565 13.4562 130.044 15.2631 129.168 16.7361V22.3997H133.61V7.10148L145.055 22.3997H151.257V1.16552H146.815ZM131.259 15.8077V7.19226C132.143 8.40171 132.667 9.88936 132.667 11.5C132.667 13.1106 132.143 14.5983 131.259 15.8077Z" fill="#B0B0B0"/>
<path d="M126.283 9.18067C125.947 7.5466 125.267 6.03259 124.316 4.72944C122.222 1.86542 118.839 0 115.027 0C111.214 0 107.831 1.86542 105.74 4.72944C104.789 6.03259 104.109 7.54367 103.772 9.18067V4.72944C102.381 6.63 101.559 8.96982 101.559 11.5C101.559 14.0302 102.381 16.37 103.772 18.2706V13.8193C104.109 15.4534 104.789 16.9674 105.74 18.2706C107.834 21.1346 111.217 23 115.027 23C118.836 23 122.222 21.1346 124.316 18.2706C125.267 16.9674 125.947 15.4563 126.283 13.8193V18.2706C127.674 16.37 128.497 14.0302 128.497 11.5C128.497 8.96982 127.674 6.63 126.283 4.72944V9.18067ZM115.027 18.5576C111.135 18.5576 107.969 15.3919 107.969 11.5C107.969 7.6081 111.135 4.44245 115.027 4.44245C118.918 4.44245 122.084 7.6081 122.084 11.5C122.084 15.3919 118.918 18.5576 115.027 18.5576Z" fill="#B0B0B0"/>
</svg>
