<svg width="880" height="772" viewBox="0 0 880 772" fill="none" xmlns="http://www.w3.org/2000/svg">
<rect width="880" height="772" rx="24" fill="white"/>
<path d="M827 254.458H147.334V255.29H827V254.458Z" fill="#3B3C3C"/>
<path d="M827 284.096H147.334V284.928H827V284.096Z" fill="#3B3C3C"/>
<path d="M827 313.734H147.334V314.567H827V313.734Z" fill="#3B3C3C"/>
<path d="M827 343.373H147.334V344.205H827V343.373Z" fill="#3B3C3C"/>
<path d="M827 373.008H147.334V373.84H827V373.008Z" fill="#3B3C3C"/>
<path d="M827 402.646H147.334V403.478H827V402.646Z" fill="#3B3C3C"/>
<path d="M827 432.285H147.334V433.117H827V432.285Z" fill="#3B3C3C"/>
<path d="M827 461.923H147.334V462.755H827V461.923Z" fill="#3B3C3C"/>
<path d="M827 491.558H147.334V492.39H827V491.558Z" fill="#3B3C3C"/>
<path d="M800.667 483.789C800.644 483.789 800.62 483.789 800.6 483.789L777.665 482.87H729.905L708.764 480.813L685.846 478.813L663.108 479.525L640.069 478.819L616.904 474.895L594.133 473.304L572.598 469.359L548.38 469.386C548.17 469.386 547.963 469.346 547.765 469.269L523.394 459.673L502.153 455.059L479.144 448.961L456.293 444.174C456.113 444.138 455.939 444.068 455.779 443.971L432.844 430.247C432.64 430.124 432.466 429.964 432.333 429.768L409.398 396.831C409.278 396.661 409.194 396.471 409.144 396.272L388.587 311.068L365.148 293.18L343.239 319.07C342.951 319.413 342.537 319.622 342.09 319.656C341.635 319.682 341.201 319.543 340.864 319.253L318.874 300.213L295.138 315.395L248.483 372.911C248.262 373.184 247.962 373.377 247.624 373.47L205.025 385.071L182.294 399.011C182.03 399.171 181.729 399.257 181.419 399.257C181.422 399.257 159.202 399.257 158.52 399.271C157.478 399.191 156.837 398.558 156.817 397.643C156.797 396.724 157.525 395.965 158.444 395.942C158.978 395.932 177.163 395.929 180.944 395.929L203.478 382.108C203.615 382.025 203.759 381.962 203.912 381.918L246.225 370.395L292.713 313.088C292.826 312.948 292.96 312.829 293.11 312.735L318.129 296.735C318.751 296.338 319.566 296.395 320.127 296.878L341.779 315.628L363.622 289.814C364.196 289.135 365.205 289.025 365.916 289.565L391.093 308.778C391.397 309.011 391.61 309.337 391.701 309.71L412.324 395.183L434.875 427.568L457.258 440.962L479.919 445.709L502.941 451.81L524.37 456.487L548.704 466.044H572.905L594.557 469.992L617.308 471.579L640.407 475.501L663.115 476.183L685.943 475.477L709.075 477.484L730.072 479.535L777.736 479.528L800.737 480.447C801.659 480.484 802.377 481.259 802.337 482.178C802.301 483.073 801.562 483.776 800.67 483.776L800.667 483.789Z" fill="#AA6EFF"/>
<path d="M800.517 478.05C800.433 478.05 800.347 478.044 800.26 478.03L779.92 474.901L731.863 474.921C731.749 474.921 731.635 474.911 731.525 474.888L687.907 465.914L641.723 464.852C641.536 464.849 641.352 464.812 641.175 464.746L596.07 447.889L549.362 434.302C549.015 434.202 548.711 433.992 548.494 433.703L524.109 401.355C524.012 401.225 523.935 401.082 523.879 400.932L502.407 342.95L479.99 355.995L457.873 380.198C457.329 380.79 456.447 380.91 455.762 380.494L433.251 366.693C433.071 366.58 432.911 366.437 432.784 366.264L409.408 334.728L388.437 339.724L366.154 365.029L344.201 392.224C343.98 392.5 343.676 392.697 343.336 392.787L319.676 399.158L296.928 412.196L275.724 421.1L251.386 429.249C251.195 429.312 251.008 429.359 250.798 429.332L226.6 428.516L204.504 430.484L179.615 434.342C179.361 434.382 179.097 434.358 178.853 434.282L157.979 427.668C157.101 427.388 156.613 426.453 156.894 425.577C157.174 424.698 158.12 424.213 158.992 424.495L179.491 430.993L204.1 427.182L226.51 425.198L250.611 425.997L274.548 417.988L295.452 409.22L318.203 396.165C318.33 396.095 318.463 396.039 318.6 396.002L341.946 389.714L363.605 362.889L386.286 337.135C386.513 336.875 386.817 336.692 387.155 336.612L409.715 331.236C410.367 331.083 411.048 331.329 411.449 331.865L435.289 364.027L456.347 376.935L477.702 353.565C477.815 353.438 477.949 353.332 478.096 353.249L502.454 339.075C502.878 338.826 503.396 338.782 503.86 338.945C504.324 339.112 504.692 339.475 504.862 339.934L526.938 399.55L550.842 431.263L597.136 444.734L642.094 461.53L688.294 462.622L732.043 471.596H780.184L800.781 474.745C801.693 474.885 802.317 475.734 802.177 476.642C802.05 477.464 801.339 478.054 800.527 478.054L800.517 478.05Z" fill="#6777FF"/>
<path d="M163.469 397.607H153.498V428.83H163.469V397.607Z" fill="#202858"/>
<path d="M186.405 397.607H176.434V432.701H186.405V397.607Z" fill="#202858"/>
<path d="M209.338 383.54H199.367V428.83H209.338V383.54Z" fill="#202858"/>
<path d="M232.274 377.365H222.303V428.83H232.274V377.365Z" fill="#202858"/>
<path d="M255.209 371.873H245.238V428.83H255.209V371.873Z" fill="#202858"/>
<path d="M278.143 344.947H268.172V421.114H278.143V344.947Z" fill="#202858"/>
<path d="M301.078 312.01H291.107V410.755H301.078V312.01Z" fill="#202858"/>
<path d="M324.014 296.568H314.043V398.599H324.014V296.568Z" fill="#202858"/>
<path d="M346.951 316.813H336.98V392.804H346.951V316.813Z" fill="#202858"/>
<path d="M369.887 289.365H359.916V365.355H369.887V289.365Z" fill="#202858"/>
<path d="M392.821 306.951H382.85V339.628H392.821V306.951Z" fill="#202858"/>
<path d="M415.756 331.247H405.785V398.602H415.756V331.247Z" fill="#B0B0B0"/>
<path d="M438.692 363.931H428.721V431.286H438.692V363.931Z" fill="#B0B0B0"/>
<path d="M461.625 377.076H451.654V444.431H461.625V377.076Z" fill="#B0B0B0"/>
<path d="M484.561 353.761H474.59V448.698H484.561V353.761Z" fill="#B0B0B0"/>
<path d="M530.43 398.599H520.459V461.424H530.43V398.599Z" fill="#B0B0B0"/>
<path d="M553.369 430.011H543.398V469.659H553.369V430.011Z" fill="#B0B0B0"/>
<path d="M576.303 437.218H566.332V469.659H576.303V437.218Z" fill="#B0B0B0"/>
<path d="M599.239 444.431H589.268V471.829H599.239V444.431Z" fill="#B0B0B0"/>
<path d="M622.174 453.438H612.203V475.125H622.174V453.438Z" fill="#B0B0B0"/>
<path d="M645.108 460.984H635.137V477.911H645.108V460.984Z" fill="#B0B0B0"/>
<path d="M668.043 463.181H658.072V480.108H668.043V463.181Z" fill="#B0B0B0"/>
<path d="M690.979 463.182H681.008V480.108H690.979V463.182Z" fill="#B0B0B0"/>
<path d="M713.912 467.725H703.941V481.206H713.912V467.725Z" fill="#B0B0B0"/>
<path d="M736.848 471.829H726.877V483.899H736.848V471.829Z" fill="#B0B0B0"/>
<path d="M759.783 473.254H749.812V483.19H759.783V473.254Z" fill="#B0B0B0"/>
<path d="M782.721 472.189H772.75V482.125H782.721V472.189Z" fill="#B0B0B0"/>
<path d="M805.656 475.122H795.686V483.19H805.656V475.122Z" fill="#B0B0B0"/>
<path d="M507.496 339.628H497.525V455.605H507.496V339.628Z" fill="#B0B0B0"/>
<path d="M150.631 519.855L152.972 517.405C154.659 515.641 156.016 514.123 156.016 512.609C156.016 511.094 155.214 510.561 153.657 510.561C152.805 510.561 151.8 510.978 151.132 511.377L150.781 509.779C151.6 509.297 152.839 508.847 154.242 508.847C156.917 508.847 158.287 510.129 158.287 512.329C158.287 514.529 156.433 516.427 154.943 517.961L153.507 519.426H158.387V521.123H150.631V519.858V519.855Z" fill="#3B3C3C"/>
<path d="M159.248 515.508V514.759C159.248 510.412 161.506 508.844 164.015 508.844C166.523 508.844 168.695 510.428 168.695 514.692V515.458C168.695 519.722 166.537 521.34 163.978 521.34C161.419 521.34 159.248 519.639 159.248 515.508ZM166.436 515.608V514.692C166.436 511.81 165.601 510.528 163.995 510.528C162.388 510.528 161.536 511.746 161.536 514.576V515.508C161.536 518.324 162.338 519.672 163.978 519.672C165.618 519.672 166.436 518.507 166.436 515.608Z" fill="#3B3C3C"/>
<path d="M198.444 518.84H192.846V517.575L199.015 508.977H200.502V517.225H202.292V518.84H200.502V521.323H198.444V518.84ZM198.461 517.225V512.659L195.217 517.225H198.461Z" fill="#3B3C3C"/>
<path d="M202.964 515.508V514.759C202.964 510.412 205.222 508.844 207.728 508.844C210.233 508.844 212.407 510.428 212.407 514.692V515.458C212.407 519.722 210.25 521.34 207.694 521.34C205.139 521.34 202.961 519.639 202.961 515.508H202.964ZM210.156 515.608V514.692C210.156 511.81 209.321 510.528 207.714 510.528C206.108 510.528 205.259 511.746 205.259 514.576V515.508C205.259 518.324 206.061 519.672 207.698 519.672C209.334 519.672 210.156 518.507 210.156 515.608Z" fill="#3B3C3C"/>
<path d="M240.908 515.957V515.092C240.908 510.545 243.233 508.86 246.139 508.86C247.358 508.86 248.464 509.243 248.982 509.543L248.564 511.14C248.097 510.891 247.061 510.608 246.259 510.608C244.452 510.608 243.25 511.493 243.083 514.606C243.701 514.073 244.673 513.54 245.925 513.54C248.03 513.54 249.553 514.859 249.553 517.172C249.553 519.485 248.097 521.336 245.391 521.336C242.448 521.336 240.912 519.286 240.912 515.954L240.908 515.957ZM247.442 517.342C247.442 515.707 246.523 515.108 245.287 515.108C244.402 515.108 243.517 515.724 243.099 516.29V516.39C243.099 518.457 243.734 519.722 245.338 519.722C246.64 519.722 247.442 518.856 247.442 517.342Z" fill="#3B3C3C"/>
<path d="M250.344 515.508V514.759C250.344 510.412 252.602 508.844 255.11 508.844C257.619 508.844 259.79 510.428 259.79 514.692V515.458C259.79 519.722 257.632 521.34 255.074 521.34C252.515 521.34 250.344 519.639 250.344 515.508ZM257.532 515.608V514.692C257.532 511.81 256.697 510.528 255.09 510.528C253.484 510.528 252.632 511.746 252.632 514.576V515.508C252.632 518.324 253.434 519.672 255.074 519.672C256.714 519.672 257.532 518.507 257.532 515.608Z" fill="#3B3C3C"/>
<path d="M286.46 518.057C286.46 516.543 287.629 515.458 288.966 514.925C287.696 514.359 286.808 513.527 286.808 512.026C286.808 510.145 288.428 508.844 290.987 508.844C293.545 508.844 295.115 509.959 295.115 511.86C295.115 513.191 294.147 514.143 292.891 514.742C294.31 515.228 295.583 516.11 295.583 517.825C295.583 519.875 293.879 521.34 290.987 521.34C288.094 521.34 286.457 520.021 286.457 518.057H286.46ZM293.378 517.974C293.378 516.726 292.443 516.094 290.636 515.624C289.55 515.99 288.515 516.806 288.515 517.891C288.515 519.056 289.45 519.758 290.94 519.758C292.43 519.758 293.378 519.026 293.378 517.974ZM293.044 512.026C293.044 511.111 292.393 510.428 291.023 510.428C289.771 510.428 289.002 511.011 289.002 511.976C289.002 513.008 289.771 513.657 291.294 514.026C292.229 513.644 293.048 512.991 293.048 512.026H293.044Z" fill="#3B3C3C"/>
<path d="M296.412 515.508V514.759C296.412 510.412 298.67 508.844 301.178 508.844C303.687 508.844 305.858 510.428 305.858 514.692V515.458C305.858 519.722 303.7 521.34 301.141 521.34C298.583 521.34 296.408 519.639 296.408 515.508H296.412ZM303.603 515.608V514.692C303.603 511.81 302.768 510.528 301.162 510.528C299.555 510.528 298.703 511.746 298.703 514.576V515.508C298.703 518.324 299.505 519.672 301.145 519.672C302.785 519.672 303.603 518.507 303.603 515.608Z" fill="#3B3C3C"/>
<path d="M330.829 511.211L328.771 511.61V510.342L331.881 508.96H333.034V521.207H330.826V511.211H330.829Z" fill="#3B3C3C"/>
<path d="M335.222 515.508V514.759C335.222 510.412 337.48 508.844 339.989 508.844C342.497 508.844 344.669 510.428 344.669 514.692V515.458C344.669 519.722 342.511 521.34 339.952 521.34C337.393 521.34 335.219 519.639 335.219 515.508H335.222ZM342.411 515.608V514.692C342.411 511.81 341.575 510.528 339.969 510.528C338.362 510.528 337.51 511.746 337.51 514.576V515.508C337.51 518.324 338.312 519.672 339.952 519.672C341.592 519.672 342.411 518.507 342.411 515.608Z" fill="#3B3C3C"/>
<path d="M345.861 515.508V514.759C345.861 510.412 348.119 508.844 350.624 508.844C353.129 508.844 355.304 510.428 355.304 514.692V515.458C355.304 519.722 353.146 521.34 350.591 521.34C348.035 521.34 345.857 519.639 345.857 515.508H345.861ZM353.049 515.608V514.692C353.049 511.81 352.214 510.528 350.607 510.528C349.001 510.528 348.152 511.746 348.152 514.576V515.508C348.152 518.324 348.954 519.672 350.591 519.672C352.227 519.672 353.049 518.507 353.049 515.608Z" fill="#3B3C3C"/>
<path d="M377.288 511.211L375.23 511.61V510.342L378.34 508.96H379.493V521.207H377.285V511.211H377.288Z" fill="#3B3C3C"/>
<path d="M381.646 519.855L383.988 517.405C385.675 515.641 387.031 514.123 387.031 512.609C387.031 511.094 386.229 510.561 384.673 510.561C383.821 510.561 382.816 510.978 382.148 511.377L381.797 509.779C382.615 509.297 383.854 508.847 385.257 508.847C387.933 508.847 389.303 510.129 389.303 512.329C389.303 514.529 387.445 516.427 385.959 517.961L384.523 519.426H389.403V521.123H381.646V519.858V519.855Z" fill="#3B3C3C"/>
<path d="M390.265 515.508V514.759C390.265 510.412 392.523 508.844 395.028 508.844C397.534 508.844 399.708 510.428 399.708 514.692V515.458C399.708 519.722 397.55 521.34 394.995 521.34C392.44 521.34 390.262 519.639 390.262 515.508H390.265ZM397.454 515.608V514.692C397.454 511.81 396.618 510.528 395.012 510.528C393.405 510.528 392.557 511.746 392.557 514.576V515.508C392.557 518.324 393.358 519.672 394.995 519.672C396.632 519.672 397.454 518.507 397.454 515.608Z" fill="#3B3C3C"/>
<path d="M422.483 511.211L420.426 511.61V510.342L423.536 508.96H424.688V521.207H422.48V511.211H422.483Z" fill="#3B3C3C"/>
<path d="M431.955 518.84H426.354V517.575L432.523 508.977H434.01V517.225H435.8V518.84H434.01V521.323H431.952V518.84H431.955ZM431.972 517.225V512.659L428.729 517.225H431.972Z" fill="#3B3C3C"/>
<path d="M436.476 515.508V514.759C436.476 510.412 438.734 508.844 441.243 508.844C443.751 508.844 445.923 510.428 445.923 514.692V515.458C445.923 519.722 443.765 521.34 441.206 521.34C438.647 521.34 436.473 519.639 436.473 515.508H436.476ZM443.668 515.608V514.692C443.668 511.81 442.833 510.528 441.226 510.528C439.619 510.528 438.767 511.746 438.767 514.576V515.508C438.767 518.324 439.569 519.672 441.209 519.672C442.849 519.672 443.668 518.507 443.668 515.608Z" fill="#3B3C3C"/>
<path d="M468.956 511.211L466.898 511.61V510.342L470.008 508.96H471.161V521.207H468.953V511.211H468.956Z" fill="#3B3C3C"/>
<path d="M473.246 515.957V515.092C473.246 510.545 475.571 508.86 478.477 508.86C479.696 508.86 480.802 509.243 481.32 509.543L480.902 511.14C480.435 510.891 479.399 510.608 478.597 510.608C476.79 510.608 475.588 511.493 475.421 514.606C476.039 514.073 477.011 513.54 478.263 513.54C480.368 513.54 481.891 514.859 481.891 517.172C481.891 519.485 480.435 521.336 477.729 521.336C474.786 521.336 473.249 519.286 473.249 515.954L473.246 515.957ZM479.783 517.342C479.783 515.707 478.865 515.108 477.625 515.108C476.74 515.108 475.855 515.724 475.437 516.29V516.39C475.437 518.457 476.072 519.722 477.675 519.722C478.978 519.722 479.78 518.856 479.78 517.342H479.783Z" fill="#3B3C3C"/>
<path d="M482.683 515.508V514.759C482.683 510.412 484.941 508.844 487.45 508.844C489.958 508.844 492.13 510.428 492.13 514.692V515.458C492.13 519.722 489.972 521.34 487.413 521.34C484.854 521.34 482.68 519.639 482.68 515.508H482.683ZM489.875 515.608V514.692C489.875 511.81 489.04 510.528 487.433 510.528C485.826 510.528 484.975 511.746 484.975 514.576V515.508C484.975 518.324 485.776 519.672 487.416 519.672C489.056 519.672 489.875 518.507 489.875 515.608Z" fill="#3B3C3C"/>
<path d="M514.399 511.211L512.342 511.61V510.342L515.452 508.96H516.604V521.207H514.396V511.211H514.399Z" fill="#3B3C3C"/>
<path d="M518.554 518.057C518.554 516.543 519.723 515.458 521.059 514.925C519.79 514.359 518.901 513.527 518.901 512.026C518.901 510.145 520.522 508.844 523.08 508.844C525.639 508.844 527.209 509.959 527.209 511.86C527.209 513.191 526.24 514.143 524.984 514.742C526.404 515.228 527.677 516.11 527.677 517.825C527.677 519.875 525.973 521.34 523.08 521.34C520.188 521.34 518.551 520.021 518.551 518.057H518.554ZM525.475 517.974C525.475 516.726 524.54 516.094 522.733 515.624C521.647 515.99 520.608 516.806 520.608 517.891C520.608 519.056 521.544 519.758 523.034 519.758C524.523 519.758 525.472 519.026 525.472 517.974H525.475ZM525.141 512.026C525.141 511.111 524.49 510.428 523.12 510.428C521.868 510.428 521.099 511.011 521.099 511.976C521.099 513.008 521.868 513.657 523.391 514.026C524.326 513.644 525.145 512.991 525.145 512.026H525.141Z" fill="#3B3C3C"/>
<path d="M528.508 515.508V514.759C528.508 510.412 530.766 508.844 533.271 508.844C535.776 508.844 537.951 510.428 537.951 514.692V515.458C537.951 519.722 535.793 521.34 533.238 521.34C530.682 521.34 528.508 519.639 528.508 515.508ZM535.7 515.608V514.692C535.7 511.81 534.865 510.528 533.258 510.528C531.651 510.528 530.803 511.746 530.803 514.576V515.508C530.803 518.324 531.604 519.672 533.241 519.672C534.878 519.672 535.7 518.507 535.7 515.608Z" fill="#3B3C3C"/>
<path d="M557.266 519.855L559.607 517.405C561.294 515.641 562.65 514.123 562.65 512.609C562.65 511.094 561.849 510.561 560.292 510.561C559.44 510.561 558.435 510.978 557.767 511.377L557.416 509.779C558.234 509.297 559.474 508.847 560.877 508.847C563.552 508.847 564.922 510.129 564.922 512.329C564.922 514.529 563.064 516.427 561.578 517.961L560.142 519.426H565.022V521.123H557.266V519.858V519.855Z" fill="#3B3C3C"/>
<path d="M565.885 515.508V514.759C565.885 510.412 568.143 508.844 570.648 508.844C573.153 508.844 575.328 510.428 575.328 514.692V515.458C575.328 519.722 573.173 521.34 570.615 521.34C568.056 521.34 565.885 519.639 565.885 515.508ZM573.073 515.608V514.692C573.073 511.81 572.238 510.528 570.631 510.528C569.025 510.528 568.176 511.746 568.176 514.576V515.508C568.176 518.324 568.978 519.672 570.615 519.672C572.251 519.672 573.073 518.507 573.073 515.608Z" fill="#3B3C3C"/>
<path d="M576.523 515.508V514.759C576.523 510.412 578.782 508.844 581.29 508.844C583.799 508.844 585.97 510.428 585.97 514.692V515.458C585.97 519.722 583.812 521.34 581.253 521.34C578.695 521.34 576.523 519.639 576.523 515.508ZM583.712 515.608V514.692C583.712 511.81 582.877 510.528 581.27 510.528C579.663 510.528 578.812 511.746 578.812 514.576V515.508C578.812 518.324 579.613 519.672 581.253 519.672C582.894 519.672 583.712 518.507 583.712 515.608Z" fill="#3B3C3C"/>
<path d="M602.443 519.855L604.785 517.405C606.472 515.641 607.828 514.123 607.828 512.609C607.828 511.094 607.026 510.561 605.47 510.561C604.618 510.561 603.612 510.978 602.944 511.377L602.594 509.779C603.412 509.297 604.651 508.847 606.054 508.847C608.73 508.847 610.099 510.129 610.099 512.329C610.099 514.529 608.242 516.427 606.756 517.961L605.319 519.426H610.2V521.123H602.443V519.858V519.855Z" fill="#3B3C3C"/>
<path d="M611.109 519.855L613.451 517.405C615.138 515.641 616.494 514.123 616.494 512.609C616.494 511.094 615.692 510.561 614.136 510.561C613.284 510.561 612.278 510.978 611.61 511.377L611.26 509.779C612.078 509.297 613.317 508.847 614.72 508.847C617.396 508.847 618.765 510.129 618.765 512.329C618.765 514.529 616.908 516.427 615.422 517.961L613.985 519.426H618.866V521.123H611.109V519.858V519.855Z" fill="#3B3C3C"/>
<path d="M619.727 515.508V514.759C619.727 510.412 621.985 508.844 624.493 508.844C627.002 508.844 629.173 510.428 629.173 514.692V515.458C629.173 519.722 627.015 521.34 624.457 521.34C621.898 521.34 619.727 519.639 619.727 515.508ZM626.915 515.608V514.692C626.915 511.81 626.08 510.528 624.473 510.528C622.867 510.528 622.015 511.746 622.015 514.576V515.508C622.015 518.324 622.816 519.672 624.457 519.672C626.097 519.672 626.915 518.507 626.915 515.608Z" fill="#3B3C3C"/>
<path d="M650.512 519.855L652.853 517.405C654.54 515.641 655.896 514.123 655.896 512.609C655.896 511.094 655.095 510.561 653.538 510.561C652.686 510.561 651.681 510.978 651.013 511.377L650.662 509.779C651.48 509.297 652.72 508.847 654.123 508.847C656.798 508.847 658.168 510.129 658.168 512.329C658.168 514.529 656.314 516.427 654.824 517.961L653.388 519.426H658.268V521.123H650.512V519.858V519.855Z" fill="#3B3C3C"/>
<path d="M664.043 518.84H658.441V517.575L664.611 508.977H666.098V517.225H667.888V518.84H666.098V521.323H664.04V518.84H664.043ZM664.06 517.225V512.659L660.816 517.225H664.06Z" fill="#3B3C3C"/>
<path d="M668.566 515.508V514.759C668.566 510.412 670.824 508.844 673.333 508.844C675.841 508.844 678.012 510.428 678.012 514.692V515.458C678.012 519.722 675.854 521.34 673.296 521.34C670.737 521.34 668.562 519.639 668.562 515.508H668.566ZM675.754 515.608V514.692C675.754 511.81 674.919 510.528 673.312 510.528C671.706 510.528 670.854 511.746 670.854 514.576V515.508C670.854 518.324 671.656 519.672 673.296 519.672C674.936 519.672 675.754 518.507 675.754 515.608Z" fill="#3B3C3C"/>
<path d="M694.127 519.855L696.469 517.405C698.155 515.641 699.512 514.123 699.512 512.609C699.512 511.094 698.71 510.561 697.153 510.561C696.302 510.561 695.296 510.978 694.628 511.377L694.277 509.779C695.096 509.297 696.335 508.847 697.738 508.847C700.413 508.847 701.783 510.129 701.783 512.329C701.783 514.529 699.926 516.427 698.439 517.961L697.003 519.426H701.883V521.123H694.127V519.858V519.855Z" fill="#3B3C3C"/>
<path d="M702.559 515.957V515.092C702.559 510.545 704.88 508.86 707.79 508.86C709.009 508.86 710.114 509.243 710.632 509.543L710.215 511.14C709.747 510.891 708.712 510.608 707.91 510.608C706.103 510.608 704.9 511.493 704.733 514.606C705.354 514.073 706.323 513.54 707.576 513.54C709.68 513.54 711.203 514.859 711.203 517.172C711.203 519.485 709.747 521.336 707.041 521.336C704.098 521.336 702.562 519.286 702.562 515.954L702.559 515.957ZM709.096 517.342C709.096 515.707 708.177 515.108 706.938 515.108C706.053 515.108 705.167 515.724 704.747 516.29V516.39C704.747 518.457 705.381 519.722 706.988 519.722C708.294 519.722 709.096 518.856 709.096 517.342Z" fill="#3B3C3C"/>
<path d="M711.994 515.508V514.759C711.994 510.412 714.252 508.844 716.757 508.844C719.262 508.844 721.437 510.428 721.437 514.692V515.458C721.437 519.722 719.282 521.34 716.723 521.34C714.165 521.34 711.99 519.639 711.99 515.508H711.994ZM719.182 515.608V514.692C719.182 511.81 718.347 510.528 716.74 510.528C715.133 510.528 714.285 511.746 714.285 514.576V515.508C714.285 518.324 715.087 519.672 716.723 519.672C718.36 519.672 719.182 518.507 719.182 515.608Z" fill="#3B3C3C"/>
<path d="M738.891 519.855L741.232 517.405C742.919 515.641 744.275 514.123 744.275 512.609C744.275 511.094 743.474 510.561 741.917 510.561C741.065 510.561 740.06 510.978 739.392 511.377L739.041 509.779C739.859 509.297 741.099 508.847 742.502 508.847C745.177 508.847 746.547 510.129 746.547 512.329C746.547 514.529 744.689 516.427 743.203 517.961L741.767 519.426H746.647V521.123H738.891V519.858V519.855Z" fill="#3B3C3C"/>
<path d="M747.359 518.057C747.359 516.543 748.528 515.458 749.864 514.925C748.595 514.359 747.706 513.527 747.706 512.026C747.706 510.145 749.326 508.844 751.885 508.844C754.444 508.844 756.014 509.959 756.014 511.86C756.014 513.191 755.045 514.143 753.789 514.742C755.209 515.228 756.481 516.11 756.481 517.825C756.481 519.875 754.778 521.34 751.885 521.34C748.992 521.34 747.355 520.021 747.355 518.057H747.359ZM754.28 517.974C754.28 516.726 753.345 516.094 751.538 515.624C750.452 515.99 749.417 516.806 749.417 517.891C749.417 519.056 750.352 519.758 751.842 519.758C753.331 519.758 754.28 519.026 754.28 517.974ZM753.946 512.026C753.946 511.111 753.295 510.428 751.925 510.428C750.673 510.428 749.904 511.011 749.904 511.976C749.904 513.008 750.672 513.657 752.196 514.026C753.131 513.644 753.949 512.991 753.949 512.026H753.946Z" fill="#3B3C3C"/>
<path d="M757.314 515.508V514.759C757.314 510.412 759.572 508.844 762.081 508.844C764.589 508.844 766.76 510.428 766.76 514.692V515.458C766.76 519.722 764.603 521.34 762.044 521.34C759.485 521.34 757.311 519.639 757.311 515.508H757.314ZM764.502 515.608V514.692C764.502 511.81 763.667 510.528 762.061 510.528C760.454 510.528 759.602 511.746 759.602 514.576V515.508C759.602 518.324 760.404 519.672 762.044 519.672C763.684 519.672 764.502 518.507 764.502 515.608Z" fill="#3B3C3C"/>
<path d="M785.549 520.458L785.916 518.873C786.534 519.273 787.84 519.572 788.759 519.572C790.399 519.572 791.351 518.89 791.351 517.538C791.351 516.187 790.382 515.708 788.826 515.691L787.556 515.658V514.073L788.692 514.057C790.095 514.023 791.034 513.391 791.034 512.242C791.034 511.027 790.199 510.578 788.862 510.578C787.957 510.578 786.988 510.894 786.27 511.227L786.02 509.613C786.775 509.18 788.245 508.847 789.43 508.847C791.688 508.847 793.225 509.912 793.225 511.863C793.225 513.314 792.373 514.246 791.034 514.696C792.557 514.995 793.626 515.861 793.626 517.678C793.626 519.912 791.902 521.31 789.13 521.31C787.673 521.31 786.254 520.91 785.552 520.461L785.549 520.458Z" fill="#3B3C3C"/>
<path d="M794.568 515.508V514.759C794.568 510.412 796.826 508.844 799.331 508.844C801.836 508.844 804.011 510.428 804.011 514.692V515.458C804.011 519.722 801.853 521.34 799.298 521.34C796.742 521.34 794.564 519.639 794.564 515.508H794.568ZM801.756 515.608V514.692C801.756 511.81 800.921 510.528 799.314 510.528C797.708 510.528 796.859 511.746 796.859 514.576V515.508C796.859 518.324 797.661 519.672 799.298 519.672C800.934 519.672 801.756 518.507 801.756 515.608Z" fill="#3B3C3C"/>
<path d="M805.206 515.508V514.759C805.206 510.412 807.465 508.844 809.973 508.844C812.482 508.844 814.653 510.428 814.653 514.692V515.458C814.653 519.722 812.495 521.34 809.936 521.34C807.378 521.34 805.203 519.639 805.203 515.508H805.206ZM812.395 515.608V514.692C812.395 511.81 811.56 510.528 809.953 510.528C808.346 510.528 807.495 511.746 807.495 514.576V515.508C807.495 518.324 808.296 519.672 809.936 519.672C811.576 519.672 812.395 518.507 812.395 515.608Z" fill="#3B3C3C"/>
<path d="M87.8428 250.11L85.7852 250.509V249.241L88.895 247.86H90.0474V260.106H87.8395V250.11H87.8428Z" fill="#3B3C3C"/>
<path d="M92.4336 258.238H94.6082V260.319H92.4336V258.238Z" fill="#3B3C3C"/>
<path d="M95.7559 254.856V253.991C95.7559 249.444 98.0774 247.76 100.987 247.76C102.206 247.76 103.312 248.143 103.83 248.442L103.412 250.04C102.944 249.79 101.909 249.507 101.107 249.507C99.3 249.507 98.0974 250.393 97.9304 253.505C98.5517 252.972 99.5204 252.44 100.773 252.44C102.877 252.44 104.401 253.758 104.401 256.071C104.401 258.385 102.944 260.236 100.239 260.236C97.2958 260.236 95.7592 258.185 95.7592 254.853L95.7559 254.856ZM102.293 256.241C102.293 254.607 101.374 254.008 100.135 254.008C99.2499 254.008 98.3647 254.623 97.9438 255.189V255.289C97.9438 257.356 98.5785 258.621 100.185 258.621C101.491 258.621 102.293 257.756 102.293 256.241Z" fill="#3B3C3C"/>
<path d="M105.193 254.407V253.658C105.193 249.311 107.451 247.743 109.956 247.743C112.461 247.743 114.636 249.328 114.636 253.592V254.357C114.636 258.621 112.478 260.239 109.923 260.239C107.367 260.239 105.189 258.538 105.189 254.407H105.193ZM112.381 254.507V253.592C112.381 250.709 111.546 249.427 109.939 249.427C108.333 249.427 107.484 250.646 107.484 253.475V254.407C107.484 257.223 108.286 258.571 109.923 258.571C111.56 258.571 112.381 257.406 112.381 254.507Z" fill="#3B3C3C"/>
<path d="M115.831 254.407V253.658C115.831 249.311 118.09 247.743 120.598 247.743C123.107 247.743 125.278 249.328 125.278 253.592V254.357C125.278 258.621 123.12 260.239 120.561 260.239C118.003 260.239 115.828 258.538 115.828 254.407H115.831ZM123.02 254.507V253.592C123.02 250.709 122.185 249.427 120.578 249.427C118.971 249.427 118.12 250.646 118.12 253.475V254.407C118.12 257.223 118.921 258.571 120.561 258.571C122.202 258.571 123.02 257.406 123.02 254.507Z" fill="#3B3C3C"/>
<path d="M87.5752 279.902L85.5176 280.301V279.033L88.6275 277.651H89.7799V289.898H87.5719V279.902H87.5752Z" fill="#3B3C3C"/>
<path d="M92.166 288.03H94.3406V290.11H92.166V288.03Z" fill="#3B3C3C"/>
<path d="M100.674 287.531H95.0723V286.266L101.242 277.668H102.728V285.916H104.519V287.531H102.728V290.014H100.671V287.531H100.674ZM100.691 285.916V281.349L97.4473 285.916H100.691Z" fill="#3B3C3C"/>
<path d="M105.193 284.199V283.45C105.193 279.102 107.451 277.535 109.959 277.535C112.468 277.535 114.639 279.119 114.639 283.383V284.149C114.639 288.413 112.481 290.03 109.923 290.03C107.364 290.03 105.189 288.33 105.189 284.199H105.193ZM112.385 284.299V283.383C112.385 280.501 111.549 279.219 109.943 279.219C108.336 279.219 107.484 280.437 107.484 283.267V284.199C107.484 287.015 108.286 288.363 109.926 288.363C111.566 288.363 112.385 287.198 112.385 284.299Z" fill="#3B3C3C"/>
<path d="M115.831 284.199V283.45C115.831 279.102 118.09 277.535 120.595 277.535C123.1 277.535 125.275 279.119 125.275 283.383V284.149C125.275 288.413 123.117 290.03 120.561 290.03C118.006 290.03 115.828 288.33 115.828 284.199H115.831ZM123.023 284.299V283.383C123.023 280.501 122.188 279.219 120.581 279.219C118.975 279.219 118.126 280.437 118.126 283.267V284.199C118.126 287.015 118.928 288.363 120.565 288.363C122.202 288.363 123.023 287.198 123.023 284.299Z" fill="#3B3C3C"/>
<path d="M88.5948 309.693L86.5371 310.092V308.828L89.647 307.443H90.7994V319.686H88.5914V309.69L88.5948 309.693Z" fill="#3B3C3C"/>
<path d="M93.1836 317.825H95.3582V319.908H93.1836V317.825Z" fill="#3B3C3C"/>
<path d="M96.5742 318.341L98.9158 315.894C100.603 314.127 101.959 312.612 101.959 311.098C101.959 309.583 101.157 309.047 99.6006 309.047C98.7488 309.047 97.7433 309.463 97.0753 309.863L96.7245 308.265C97.5429 307.782 98.7822 307.333 100.185 307.333C102.861 307.333 104.23 308.615 104.23 310.815C104.23 313.015 102.373 314.912 100.887 316.447L99.4503 317.912H104.331V319.609H96.5742V318.344V318.341Z" fill="#3B3C3C"/>
<path d="M105.193 313.994V313.245C105.193 308.894 107.451 307.33 109.956 307.33C112.461 307.33 114.636 308.914 114.636 313.178V313.944C114.636 318.208 112.478 319.825 109.923 319.825C107.367 319.825 105.189 318.128 105.189 313.997L105.193 313.994ZM112.381 314.09V313.175C112.381 310.292 111.546 309.011 109.939 309.011C108.333 309.011 107.484 310.226 107.484 313.058V313.99C107.484 316.806 108.286 318.154 109.923 318.154C111.56 318.154 112.381 316.986 112.381 314.087V314.09Z" fill="#3B3C3C"/>
<path d="M115.831 313.994V313.245C115.831 308.894 118.09 307.33 120.598 307.33C123.107 307.33 125.278 308.914 125.278 313.178V313.944C125.278 318.208 123.12 319.825 120.561 319.825C118.003 319.825 115.828 318.128 115.828 313.997L115.831 313.994ZM123.02 314.09V313.175C123.02 310.292 122.185 309.011 120.578 309.011C118.971 309.011 118.12 310.226 118.12 313.058V313.99C118.12 316.806 118.921 318.154 120.561 318.154C122.202 318.154 123.02 316.986 123.02 314.087V314.09Z" fill="#3B3C3C"/>
<path d="M86.5401 339.485L84.4824 339.884V338.619L87.5923 337.234H88.7447V349.477H86.5367V339.481L86.5401 339.485Z" fill="#3B3C3C"/>
<path d="M91.1309 347.616H93.3054V349.7H91.1309V347.616Z" fill="#3B3C3C"/>
<path d="M94.5541 343.785V343.036C94.5541 338.686 96.8122 337.121 99.3175 337.121C101.823 337.121 103.997 338.706 103.997 342.97V343.735C103.997 347.999 101.839 349.617 99.2841 349.617C96.7287 349.617 94.5508 347.919 94.5508 343.788L94.5541 343.785ZM101.746 343.885V342.97C101.746 340.087 100.911 338.805 99.3041 338.805C97.6974 338.805 96.8489 340.02 96.8489 342.853V343.785C96.8489 346.601 97.6506 347.949 99.2874 347.949C100.924 347.949 101.746 346.781 101.746 343.882V343.885Z" fill="#3B3C3C"/>
<path d="M105.193 343.785V343.036C105.193 338.686 107.451 337.121 109.959 337.121C112.468 337.121 114.639 338.706 114.639 342.97V343.735C114.639 347.999 112.481 349.617 109.923 349.617C107.364 349.617 105.189 347.919 105.189 343.788L105.193 343.785ZM112.385 343.885V342.97C112.385 340.087 111.549 338.805 109.943 338.805C108.336 338.805 107.484 340.02 107.484 342.853V343.785C107.484 346.601 108.286 347.949 109.926 347.949C111.566 347.949 112.385 346.781 112.385 343.882V343.885Z" fill="#3B3C3C"/>
<path d="M115.831 343.785V343.036C115.831 338.686 118.09 337.121 120.595 337.121C123.1 337.121 125.275 338.706 125.275 342.97V343.735C125.275 347.999 123.117 349.617 120.561 349.617C118.006 349.617 115.828 347.919 115.828 343.788L115.831 343.785ZM123.023 343.885V342.97C123.023 340.087 122.188 338.805 120.581 338.805C118.975 338.805 118.126 340.02 118.126 342.853V343.785C118.126 346.601 118.928 347.949 120.565 347.949C122.202 347.949 123.023 346.781 123.023 343.882V343.885Z" fill="#3B3C3C"/>
<path d="M81.2084 373.577V372.828C81.2084 368.477 83.4665 366.913 85.9718 366.913C88.477 366.913 90.6516 368.497 90.6516 372.761V373.527C90.6516 377.791 88.4937 379.408 85.9384 379.408C83.383 379.408 81.2051 377.711 81.2051 373.58L81.2084 373.577ZM88.4002 373.676V372.761C88.4002 369.878 87.5651 368.597 85.9584 368.597C84.3517 368.597 83.5032 369.812 83.5032 372.645V373.577C83.5032 376.393 84.3049 377.741 85.9417 377.741C87.5785 377.741 88.4002 376.572 88.4002 373.673V373.676Z" fill="#3B3C3C"/>
<path d="M92.0488 377.408H94.2234V379.492H92.0488V377.408Z" fill="#3B3C3C"/>
<path d="M95.2377 376.126C95.2377 374.608 96.4068 373.527 97.743 372.994C96.4737 372.428 95.5851 371.596 95.5851 370.095C95.5851 368.211 97.2052 366.913 99.7639 366.913C102.323 366.913 103.893 368.028 103.893 369.928C103.893 371.26 102.924 372.212 101.668 372.811C103.088 373.294 104.36 374.176 104.36 375.893C104.36 377.94 102.657 379.408 99.7639 379.408C96.8712 379.408 95.2344 378.094 95.2344 376.126H95.2377ZM102.159 376.043C102.159 374.795 101.224 374.162 99.4165 373.693C98.3309 374.059 97.2954 374.875 97.2954 375.96C97.2954 377.125 98.2307 377.827 99.7205 377.827C101.21 377.827 102.159 377.095 102.159 376.043ZM101.825 370.095C101.825 369.179 101.174 368.497 99.804 368.497C98.5514 368.497 97.7831 369.08 97.7831 370.045C97.7831 371.08 98.5514 371.726 100.075 372.095C101.01 371.713 101.828 371.06 101.828 370.095H101.825Z" fill="#3B3C3C"/>
<path d="M105.193 373.577V372.828C105.193 368.477 107.451 366.913 109.959 366.913C112.468 366.913 114.639 368.497 114.639 372.761V373.527C114.639 377.791 112.481 379.408 109.923 379.408C107.364 379.408 105.189 377.711 105.189 373.58L105.193 373.577ZM112.385 373.676V372.761C112.385 369.878 111.549 368.597 109.943 368.597C108.336 368.597 107.484 369.812 107.484 372.645V373.577C107.484 376.393 108.286 377.741 109.926 377.741C111.566 377.741 112.385 376.572 112.385 373.673V373.676Z" fill="#3B3C3C"/>
<path d="M115.831 373.577V372.828C115.831 368.477 118.09 366.913 120.595 366.913C123.1 366.913 125.275 368.497 125.275 372.761V373.527C125.275 377.791 123.117 379.408 120.561 379.408C118.006 379.408 115.828 377.711 115.828 373.58L115.831 373.577ZM123.023 373.676V372.761C123.023 369.878 122.188 368.597 120.581 368.597C118.975 368.597 118.126 369.812 118.126 372.645V373.577C118.126 376.393 118.928 377.741 120.565 377.741C122.202 377.741 123.023 376.572 123.023 373.673V373.676Z" fill="#3B3C3C"/>
<path d="M81.5932 403.368V402.619C81.5932 398.269 83.8513 396.704 86.3599 396.704C88.8685 396.704 91.0397 398.289 91.0397 402.553V403.318C91.0397 407.582 88.8818 409.2 86.3231 409.2C83.7644 409.2 81.5898 407.503 81.5898 403.372L81.5932 403.368ZM88.7816 403.468V402.553C88.7816 399.67 87.9465 398.389 86.3398 398.389C84.7331 398.389 83.8813 399.604 83.8813 402.436V403.368C83.8813 406.184 84.683 407.532 86.3231 407.532C87.9632 407.532 88.7816 406.364 88.7816 403.465V403.468Z" fill="#3B3C3C"/>
<path d="M92.4336 407.2H94.6082V409.283H92.4336V407.2Z" fill="#3B3C3C"/>
<path d="M95.7559 403.817V402.952C95.7559 398.402 98.0774 396.721 100.987 396.721C102.206 396.721 103.312 397.103 103.83 397.406L103.412 399.004C102.944 398.755 101.909 398.472 101.107 398.472C99.3 398.472 98.0974 399.354 97.9304 402.469C98.5517 401.937 99.5204 401.404 100.773 401.404C102.877 401.404 104.401 402.719 104.401 405.036C104.401 407.352 102.944 409.2 100.239 409.2C97.2958 409.2 95.7592 407.153 95.7592 403.821L95.7559 403.817ZM102.293 405.202C102.293 403.571 101.374 402.972 100.135 402.972C99.2499 402.972 98.3647 403.588 97.9438 404.154V404.253C97.9438 406.321 98.5785 407.585 100.185 407.585C101.491 407.585 102.293 406.72 102.293 405.202Z" fill="#3B3C3C"/>
<path d="M105.193 403.368V402.619C105.193 398.269 107.451 396.704 109.956 396.704C112.461 396.704 114.636 398.289 114.636 402.553V403.318C114.636 407.582 112.478 409.2 109.923 409.2C107.367 409.2 105.189 407.503 105.189 403.372L105.193 403.368ZM112.381 403.468V402.553C112.381 399.67 111.546 398.389 109.939 398.389C108.333 398.389 107.484 399.604 107.484 402.436V403.368C107.484 406.184 108.286 407.532 109.923 407.532C111.56 407.532 112.381 406.364 112.381 403.465V403.468Z" fill="#3B3C3C"/>
<path d="M115.831 403.368V402.619C115.831 398.269 118.09 396.704 120.598 396.704C123.107 396.704 125.278 398.289 125.278 402.553V403.318C125.278 407.582 123.12 409.2 120.561 409.2C118.003 409.2 115.828 407.502 115.828 403.371L115.831 403.368ZM123.02 403.468V402.553C123.02 399.67 122.185 398.388 120.578 398.388C118.971 398.388 118.12 399.603 118.12 402.436V403.368C118.12 406.184 118.921 407.532 120.561 407.532C122.202 407.532 123.02 406.364 123.02 403.465V403.468Z" fill="#3B3C3C"/>
<path d="M81.3256 433.163V432.414C81.3256 428.067 83.5837 426.499 86.0923 426.499C88.6009 426.499 90.7721 428.083 90.7721 432.347V433.113C90.7721 437.377 88.6143 438.995 86.0556 438.995C83.4968 438.995 81.3223 437.294 81.3223 433.163H81.3256ZM88.5141 433.263V432.347C88.5141 429.465 87.679 428.183 86.0723 428.183C84.4655 428.183 83.6138 429.402 83.6138 432.231V433.163C83.6138 435.979 84.4154 437.327 86.0556 437.327C87.6957 437.327 88.5141 436.162 88.5141 433.263Z" fill="#3B3C3C"/>
<path d="M92.166 436.995H94.3406V439.075H92.166V436.995Z" fill="#3B3C3C"/>
<path d="M100.671 436.495H95.0723V435.23L101.242 426.632H102.728V434.881H104.519V436.495H102.728V438.978H100.671V436.495ZM100.691 434.881V430.314L97.4473 434.881H100.691Z" fill="#3B3C3C"/>
<path d="M105.193 433.163V432.414C105.193 428.067 107.451 426.499 109.956 426.499C112.461 426.499 114.636 428.083 114.636 432.347V433.113C114.636 437.377 112.478 438.995 109.923 438.995C107.367 438.995 105.189 437.294 105.189 433.163H105.193ZM112.381 433.263V432.347C112.381 429.465 111.546 428.183 109.939 428.183C108.333 428.183 107.484 429.402 107.484 432.231V433.163C107.484 435.979 108.286 437.327 109.923 437.327C111.56 437.327 112.381 436.162 112.381 433.263Z" fill="#3B3C3C"/>
<path d="M115.831 433.163V432.414C115.831 428.067 118.09 426.499 120.598 426.499C123.107 426.499 125.278 428.083 125.278 432.347V433.113C125.278 437.377 123.12 438.995 120.561 438.995C118.003 438.995 115.828 437.294 115.828 433.163H115.831ZM123.02 433.263V432.347C123.02 429.465 122.185 428.183 120.578 428.183C118.971 428.183 118.12 429.402 118.12 432.231V433.163C118.12 435.979 118.921 437.327 120.561 437.327C122.202 437.327 123.02 436.162 123.02 433.263Z" fill="#3B3C3C"/>
<path d="M82.3451 462.955V462.206C82.3451 457.858 84.6032 456.291 87.1085 456.291C89.6138 456.291 91.7883 457.875 91.7883 462.139V462.905C91.7883 467.169 89.6305 468.786 87.0751 468.786C84.5197 468.786 82.3418 467.085 82.3418 462.955H82.3451ZM89.5336 463.054V462.139C89.5336 459.256 88.6985 457.975 87.0918 457.975C85.4851 457.975 84.6366 459.193 84.6366 462.022V462.955C84.6366 465.771 85.4383 467.119 87.0751 467.119C88.7119 467.119 89.5336 465.954 89.5336 463.054Z" fill="#3B3C3C"/>
<path d="M93.1836 466.786H95.3582V468.867H93.1836V466.786Z" fill="#3B3C3C"/>
<path d="M96.5742 467.302L98.9158 464.852C100.603 463.088 101.959 461.57 101.959 460.055C101.959 458.541 101.157 458.008 99.6006 458.008C98.7488 458.008 97.7433 458.424 97.0753 458.824L96.7245 457.226C97.5429 456.743 98.7822 456.294 100.185 456.294C102.861 456.294 104.23 457.575 104.23 459.776C104.23 461.976 102.373 463.873 100.887 465.408L99.4503 466.872H104.331V468.57H96.5742V467.305V467.302Z" fill="#3B3C3C"/>
<path d="M105.193 462.955V462.206C105.193 457.859 107.451 456.291 109.956 456.291C112.461 456.291 114.636 457.875 114.636 462.139V462.905C114.636 467.169 112.478 468.787 109.923 468.787C107.367 468.787 105.189 467.086 105.189 462.955H105.193ZM112.381 463.055V462.139C112.381 459.257 111.546 457.975 109.939 457.975C108.333 457.975 107.484 459.193 107.484 462.023V462.955C107.484 465.771 108.286 467.119 109.923 467.119C111.56 467.119 112.381 465.954 112.381 463.055Z" fill="#3B3C3C"/>
<path d="M115.831 462.955V462.206C115.831 457.858 118.09 456.291 120.598 456.291C123.107 456.291 125.278 457.875 125.278 462.139V462.905C125.278 467.169 123.12 468.786 120.561 468.786C118.003 468.786 115.828 467.085 115.828 462.955H115.831ZM123.02 463.054V462.139C123.02 459.256 122.185 457.975 120.578 457.975C118.971 457.975 118.12 459.193 118.12 462.022V462.955C118.12 465.771 118.921 467.119 120.561 467.119C122.202 467.119 123.02 465.954 123.02 463.054Z" fill="#3B3C3C"/>
<path d="M80.2905 492.746V491.997C80.2905 487.65 82.5485 486.082 85.0571 486.082C87.5657 486.082 89.737 487.667 89.737 491.931V492.696C89.737 496.96 87.5791 498.578 85.0204 498.578C82.4617 498.578 80.2871 496.877 80.2871 492.746H80.2905ZM87.4822 492.849V491.934C87.4822 489.051 86.6471 487.77 85.0404 487.77C83.4337 487.77 82.5819 488.988 82.5819 491.818V492.75C82.5819 495.566 83.3836 496.914 85.0237 496.914C86.6639 496.914 87.4822 495.749 87.4822 492.849Z" fill="#3B3C3C"/>
<path d="M91.1309 496.581H93.3054V498.661H91.1309V496.581Z" fill="#3B3C3C"/>
<path d="M94.5541 492.746V491.997C94.5541 487.65 96.8122 486.082 99.3175 486.082C101.823 486.082 103.997 487.666 103.997 491.93V492.696C103.997 496.96 101.839 498.578 99.2841 498.578C96.7287 498.578 94.5508 496.877 94.5508 492.746H94.5541ZM101.746 492.849V491.934C101.746 489.051 100.911 487.77 99.3041 487.77C97.6974 487.77 96.8489 488.988 96.8489 491.817V492.749C96.8489 495.565 97.6506 496.914 99.2874 496.914C100.924 496.914 101.746 495.748 101.746 492.849Z" fill="#3B3C3C"/>
<path d="M105.193 492.746V491.997C105.193 487.65 107.451 486.082 109.959 486.082C112.468 486.082 114.639 487.667 114.639 491.931V492.696C114.639 496.96 112.481 498.578 109.923 498.578C107.364 498.578 105.189 496.877 105.189 492.746H105.193ZM112.385 492.849V491.934C112.385 489.051 111.549 487.77 109.943 487.77C108.336 487.77 107.484 488.988 107.484 491.818V492.75C107.484 495.566 108.286 496.914 109.926 496.914C111.566 496.914 112.385 495.749 112.385 492.849Z" fill="#3B3C3C"/>
<path d="M115.831 492.746V491.997C115.831 487.65 118.09 486.082 120.595 486.082C123.1 486.082 125.275 487.666 125.275 491.93V492.696C125.275 496.96 123.117 498.578 120.561 498.578C118.006 498.578 115.828 496.877 115.828 492.746H115.831ZM123.023 492.849V491.934C123.023 489.051 122.188 487.77 120.581 487.77C118.975 487.77 118.126 488.988 118.126 491.817V492.749C118.126 495.565 118.928 496.914 120.565 496.914C122.202 496.914 123.023 495.748 123.023 492.849Z" fill="#3B3C3C"/>
<path d="M49.74 462.86V445.08H51.94V462.86H49.74ZM48 455.24V452.76H50.66V455.24H48ZM50.64 452.56V450.24H55.56C56.0667 450.24 56.4733 450.293 56.78 450.4C57.0867 450.507 57.3267 450.74 57.5 451.1C57.66 451.433 57.76 451.833 57.8 452.3C57.8267 452.767 57.84 453.307 57.84 453.92C57.52 453.96 57.1667 454.047 56.78 454.18C56.38 454.3 56.0333 454.433 55.74 454.58C55.7533 454.233 55.76 453.893 55.76 453.56C55.76 453.213 55.76 452.98 55.76 452.86C55.76 452.753 55.74 452.68 55.7 452.64C55.66 452.587 55.5933 452.56 55.5 452.56H50.64ZM50.32 456.62V454.38H51.92C52.44 454.38 52.9933 454.42 53.58 454.5C54.1667 454.567 54.7533 454.713 55.34 454.94C55.9267 455.153 56.5 455.48 57.06 455.92C57.62 456.36 58.1267 456.947 58.58 457.68C58.42 457.8 58.24 457.967 58.04 458.18C57.8267 458.38 57.6267 458.593 57.44 458.82C57.24 459.047 57.08 459.253 56.96 459.44C56.5867 458.8 56.1867 458.293 55.76 457.92C55.32 457.547 54.88 457.267 54.44 457.08C53.9867 456.893 53.54 456.773 53.1 456.72C52.6467 456.653 52.2267 456.62 51.84 456.62H50.32ZM53.6 449.68L52.54 447.82C52.9 447.433 53.3067 447.04 53.76 446.64C54.2133 446.227 54.66 445.84 55.1 445.48C55.54 445.12 55.94 444.833 56.3 444.62L57.52 446.62C57.1467 446.807 56.7333 447.073 56.28 447.42C55.8267 447.753 55.3667 448.12 54.9 448.52C54.42 448.907 53.9867 449.293 53.6 449.68ZM52.62 460.3L53.22 458.06C54.0067 458.473 54.7733 458.993 55.52 459.62C56.2667 460.247 56.8867 460.907 57.38 461.6C57.1533 461.813 56.9067 462.087 56.64 462.42C56.36 462.753 56.1467 463.033 56 463.26C55.72 462.833 55.3933 462.427 55.02 462.04C54.6467 461.653 54.2533 461.313 53.84 461.02C53.4267 460.713 53.02 460.473 52.62 460.3ZM59.84 456.96C60.8267 456.28 61.6533 455.353 62.32 454.18C62.9733 452.993 63.48 451.587 63.84 449.96C64.2 448.333 64.4267 446.507 64.52 444.48C64.7067 444.64 64.9333 444.813 65.2 445C65.48 445.173 65.7533 445.34 66.02 445.5C66.3 445.647 66.5533 445.773 66.78 445.88C66.6067 448.013 66.28 449.913 65.8 451.58C65.32 453.247 64.6467 454.7 63.78 455.94C62.9133 457.18 61.8267 458.233 60.52 459.1L59.84 456.96ZM57.14 456.48L57.64 453.96C58.7867 454.787 59.8267 455.793 60.76 456.98C61.68 458.153 62.4933 459.607 63.2 461.34C63 461.433 62.7867 461.567 62.56 461.74C62.3333 461.913 62.12 462.1 61.92 462.3C61.7067 462.487 61.54 462.667 61.42 462.84C60.8733 461.227 60.2267 459.9 59.48 458.86C58.7333 457.82 57.9533 457.027 57.14 456.48ZM58.62 456.5V449.42H60.5V458.2L58.62 456.5ZM58.62 450.08V449.58L58.54 449.16L59.56 447.6C60.72 448.253 61.72 449.087 62.56 450.1C63.4 451.1 64.1067 452.247 64.68 453.54C65.24 454.833 65.6933 456.22 66.04 457.7C66.4 459.18 66.6667 460.713 66.84 462.3C66.64 462.353 66.4 462.447 66.12 462.58C65.8533 462.7 65.5867 462.84 65.32 463C65.0533 463.147 64.84 463.293 64.68 463.44C64.56 461.893 64.3667 460.427 64.1 459.04C63.8333 457.64 63.48 456.353 63.04 455.18C62.5867 454.007 62.0267 452.987 61.36 452.12C60.6933 451.24 59.9067 450.56 59 450.08H58.62ZM48.28 432.4V429.98H52.96V432.4H48.28ZM51.62 437.12V424.94H53.9V437.12H51.62ZM55.18 435.72L54.82 433.56C55.6467 433.333 56.54 433.12 57.5 432.92C58.4467 432.72 59.3667 432.553 60.26 432.42C61.14 432.273 61.9067 432.187 62.56 432.16L63.06 434.52C62.3933 434.547 61.6133 434.613 60.72 434.72C59.8267 434.827 58.9 434.967 57.94 435.14C56.9667 435.313 56.0467 435.507 55.18 435.72ZM54.68 428.98L55.1 426.38C55.9133 426.54 56.7467 426.72 57.6 426.92C58.4533 427.12 59.2867 427.327 60.1 427.54C60.9133 427.753 61.6933 427.973 62.44 428.2C63.1733 428.427 63.8333 428.64 64.42 428.84L63.96 431C63.36 430.787 62.68 430.587 61.92 430.4C61.1467 430.2 60.34 430.013 59.5 429.84C58.66 429.653 57.8333 429.487 57.02 429.34C56.1933 429.193 55.4133 429.073 54.68 428.98ZM63.68 437.52V424.52H65.94V437.52H63.68ZM48.06 438.9L48.8 436.66C49.92 437.113 51.0467 437.653 52.18 438.28C53.3 438.893 54.36 439.56 55.36 440.28C56.3467 440.987 57.22 441.72 57.98 442.48C57.78 442.56 57.52 442.673 57.2 442.82C56.88 442.967 56.56 443.127 56.24 443.3C55.92 443.473 55.6667 443.627 55.48 443.76C54.88 443.12 54.1867 442.5 53.4 441.9C52.6133 441.287 51.76 440.727 50.84 440.22C49.92 439.713 48.9933 439.273 48.06 438.9ZM53.58 440.84L51.3 438.56H51.32H66.74V440.84H53.58ZM69.04 414.769C67.4933 415.715 65.88 416.455 64.2 416.989C62.52 417.509 60.6867 417.769 58.7 417.769C56.7 417.769 54.86 417.509 53.18 416.989C51.5 416.455 49.8867 415.715 48.34 414.769L49.12 412.949C50.5867 413.789 52.14 414.409 53.78 414.809C55.42 415.195 57.06 415.389 58.7 415.389C60.34 415.389 61.98 415.195 63.62 414.809C65.26 414.409 66.8067 413.789 68.26 412.949L69.04 414.769ZM65 410.33H53.8V407.93L55.3 407.71V407.65C54.82 407.183 54.4067 406.677 54.06 406.13C53.7 405.583 53.52 404.943 53.52 404.21C53.52 403.41 53.6933 402.77 54.04 402.29C54.3733 401.797 54.8533 401.417 55.48 401.15C54.9333 400.617 54.4733 400.07 54.1 399.51C53.7133 398.937 53.52 398.29 53.52 397.57C53.52 396.37 53.92 395.497 54.72 394.95C55.5067 394.39 56.6067 394.11 58.02 394.11H65V397.03H58.38C57.5133 397.03 56.9067 397.157 56.56 397.41C56.2133 397.663 56.04 398.057 56.04 398.59C56.04 398.91 56.1467 399.25 56.36 399.61C56.56 399.957 56.8733 400.337 57.3 400.75H65V403.69H58.38C57.5133 403.69 56.9067 403.817 56.56 404.07C56.2133 404.323 56.04 404.717 56.04 405.25C56.04 405.557 56.1467 405.897 56.36 406.27C56.56 406.63 56.8733 407.003 57.3 407.39H65V410.33ZM65 391.053H53.8V388.653L55.3 388.433V388.373C54.82 387.906 54.4067 387.399 54.06 386.853C53.7 386.306 53.52 385.666 53.52 384.933C53.52 384.133 53.6933 383.493 54.04 383.013C54.3733 382.519 54.8533 382.139 55.48 381.873C54.9333 381.339 54.4733 380.793 54.1 380.233C53.7133 379.659 53.52 379.013 53.52 378.293C53.52 377.093 53.92 376.219 54.72 375.673C55.5067 375.113 56.6067 374.833 58.02 374.833H65V377.753H58.38C57.5133 377.753 56.9067 377.879 56.56 378.133C56.2133 378.386 56.04 378.779 56.04 379.313C56.04 379.633 56.1467 379.973 56.36 380.333C56.56 380.679 56.8733 381.059 57.3 381.473H65V384.413H58.38C57.5133 384.413 56.9067 384.539 56.56 384.793C56.2133 385.046 56.04 385.439 56.04 385.973C56.04 386.279 56.1467 386.619 56.36 386.993C56.56 387.353 56.8733 387.726 57.3 388.113H65V391.053ZM66.38 368.255C65.8733 368.655 65.36 369.102 64.84 369.595C64.32 370.089 63.8133 370.589 63.32 371.095C62.8133 371.602 62.36 372.089 61.96 372.555L60.16 370.475C60.5467 369.995 61.0067 369.482 61.54 368.935C62.06 368.389 62.5867 367.869 63.12 367.375C63.6533 366.869 64.1267 366.449 64.54 366.115L66.38 368.255ZM69.3 351.775H53.8V349.375L54.96 349.155V349.095C54.56 348.629 54.22 348.115 53.94 347.555C53.66 346.982 53.52 346.395 53.52 345.795C53.52 344.875 53.76 344.089 54.24 343.435C54.7067 342.782 55.3667 342.282 56.22 341.935C57.06 341.575 58.06 341.395 59.22 341.395C60.5 341.395 61.5933 341.622 62.5 342.075C63.4067 342.529 64.1 343.122 64.58 343.855C65.0467 344.575 65.28 345.342 65.28 346.155C65.28 346.635 65.1733 347.115 64.96 347.595C64.7467 348.062 64.4467 348.509 64.06 348.935L65.88 348.835H69.3V351.775ZM62.86 346.795C62.86 346.355 62.7333 345.955 62.48 345.595C62.2133 345.235 61.8133 344.949 61.28 344.735C60.7467 344.522 60.0733 344.415 59.26 344.415C58.5533 344.415 57.9533 344.495 57.46 344.655C56.9533 344.815 56.5733 345.055 56.32 345.375C56.0667 345.695 55.94 346.115 55.94 346.635C55.94 347.009 56.0333 347.375 56.22 347.735C56.4067 348.082 56.6933 348.449 57.08 348.835H62.02C62.34 348.475 62.56 348.122 62.68 347.775C62.8 347.429 62.86 347.102 62.86 346.795ZM60.34 339.563H58.22V334.103H60.34V339.563ZM69.3 331.561H53.8V329.161L54.96 328.941V328.881C54.56 328.414 54.22 327.901 53.94 327.341C53.66 326.767 53.52 326.181 53.52 325.581C53.52 324.661 53.76 323.874 54.24 323.221C54.7067 322.567 55.3667 322.067 56.22 321.721C57.06 321.361 58.06 321.181 59.22 321.181C60.5 321.181 61.5933 321.407 62.5 321.861C63.4067 322.314 64.1 322.907 64.58 323.641C65.0467 324.361 65.28 325.127 65.28 325.941C65.28 326.421 65.1733 326.901 64.96 327.381C64.7467 327.847 64.4467 328.294 64.06 328.721L65.88 328.621H69.3V331.561ZM62.86 326.581C62.86 326.141 62.7333 325.741 62.48 325.381C62.2133 325.021 61.8133 324.734 61.28 324.521C60.7467 324.307 60.0733 324.201 59.26 324.201C58.5533 324.201 57.9533 324.281 57.46 324.441C56.9533 324.601 56.5733 324.841 56.32 325.161C56.0667 325.481 55.94 325.901 55.94 326.421C55.94 326.794 56.0333 327.161 56.22 327.521C56.4067 327.867 56.6933 328.234 57.08 328.621H62.02C62.34 328.261 62.56 327.907 62.68 327.561C62.8 327.214 62.86 326.887 62.86 326.581ZM69.04 317.41L68.26 319.23C66.8067 318.39 65.26 317.776 63.62 317.39C61.98 316.99 60.34 316.79 58.7 316.79C57.06 316.79 55.42 316.99 53.78 317.39C52.14 317.776 50.5867 318.39 49.12 319.23L48.34 317.41C49.8867 316.463 51.5 315.73 53.18 315.21C54.86 314.676 56.7 314.41 58.7 314.41C60.6867 314.41 62.52 314.676 64.2 315.21C65.88 315.73 67.4933 316.463 69.04 317.41Z" fill="#3B3C3C"/>
<path d="M388.98 533.96H401.56V536.18H388.98V533.96ZM390.98 537.82H399.4V539.64H390.98V537.82ZM390.56 540.9H399.8V542.8H390.56V540.9ZM387.54 533.96H389.92V540.94C389.92 541.753 389.887 542.647 389.82 543.62C389.767 544.593 389.653 545.573 389.48 546.56C389.307 547.547 389.053 548.5 388.72 549.42C388.387 550.327 387.947 551.147 387.4 551.88C387.267 551.733 387.08 551.56 386.84 551.36C386.6 551.16 386.353 550.967 386.1 550.78C385.847 550.593 385.633 550.453 385.46 550.36C385.94 549.707 386.32 548.987 386.6 548.2C386.88 547.413 387.087 546.607 387.22 545.78C387.353 544.94 387.44 544.107 387.48 543.28C387.52 542.453 387.54 541.673 387.54 540.94V533.96ZM400.64 533.96H403.04V549.14C403.04 549.753 402.96 550.227 402.8 550.56C402.653 550.907 402.387 551.18 402 551.38C401.613 551.553 401.127 551.66 400.54 551.7C399.953 551.753 399.22 551.78 398.34 551.78C398.3 551.46 398.207 551.08 398.06 550.64C397.913 550.2 397.76 549.833 397.6 549.54C397.947 549.553 398.293 549.567 398.64 549.58C399 549.58 399.313 549.58 399.58 549.58C399.86 549.58 400.053 549.58 400.16 549.58C400.347 549.58 400.473 549.547 400.54 549.48C400.607 549.4 400.64 549.28 400.64 549.12V533.96ZM393.98 536.48H396.26V541.92H393.98V536.48ZM392.5 543.94H399.04V549.4H392.5V547.58H396.82V545.76H392.5V543.94ZM391.3 543.94H393.46V550.5H391.3V543.94ZM413.28 535.64H422.46V537.86H413.28V535.64ZM413.32 540.64H421.62V542.76H413.32V540.64ZM416.62 532.98H418.98V541.84H416.62V532.98ZM412 535.64H414.3V540.78C414.3 541.593 414.267 542.48 414.2 543.44C414.147 544.387 414.033 545.353 413.86 546.34C413.687 547.327 413.44 548.287 413.12 549.22C412.8 550.153 412.367 550.993 411.82 551.74C411.687 551.62 411.493 551.48 411.24 551.32C411 551.16 410.747 551.007 410.48 550.86C410.227 550.727 410 550.627 409.8 550.56C410.307 549.853 410.707 549.087 411 548.26C411.293 547.433 411.513 546.58 411.66 545.7C411.807 544.82 411.9 543.96 411.94 543.12C411.98 542.28 412 541.493 412 540.76V535.64ZM421.9 535.64H422.26L422.66 535.56L424.42 535.96C424.18 536.733 423.913 537.513 423.62 538.3C423.34 539.073 423.06 539.733 422.78 540.28L420.7 539.7C420.913 539.22 421.127 538.633 421.34 537.94C421.567 537.233 421.753 536.573 421.9 535.96V535.64ZM416.06 542.02C416.513 543.233 417.127 544.353 417.9 545.38C418.687 546.407 419.627 547.287 420.72 548.02C421.827 548.753 423.073 549.32 424.46 549.72C424.287 549.893 424.1 550.1 423.9 550.34C423.7 550.58 423.513 550.827 423.34 551.08C423.167 551.333 423.027 551.567 422.92 551.78C420.693 551.02 418.853 549.853 417.4 548.28C415.96 546.707 414.827 544.813 414 542.6L416.06 542.02ZM406.72 534.88L408.08 533.12C408.453 533.307 408.86 533.52 409.3 533.76C409.753 533.987 410.187 534.22 410.6 534.46C411.027 534.7 411.38 534.92 411.66 535.12L410.24 537.06C410 536.86 409.673 536.627 409.26 536.36C408.847 536.093 408.413 535.833 407.96 535.58C407.52 535.313 407.107 535.08 406.72 534.88ZM405.56 540.32L406.88 538.54C407.253 538.7 407.667 538.893 408.12 539.12C408.587 539.347 409.033 539.573 409.46 539.8C409.887 540.027 410.24 540.233 410.52 540.42L409.14 542.42C408.887 542.22 408.553 541.993 408.14 541.74C407.727 541.487 407.287 541.233 406.82 540.98C406.367 540.727 405.947 540.507 405.56 540.32ZM405.94 550.14C406.26 549.62 406.607 549.013 406.98 548.32C407.367 547.613 407.753 546.867 408.14 546.08C408.527 545.28 408.887 544.487 409.22 543.7L411.1 545.14C410.807 545.86 410.493 546.593 410.16 547.34C409.827 548.073 409.48 548.8 409.12 549.52C408.773 550.227 408.427 550.907 408.08 551.56L405.94 550.14ZM420.78 540.64H421.24L421.66 540.56L423.16 541.2C422.707 543.067 422.053 544.7 421.2 546.1C420.347 547.487 419.333 548.653 418.16 549.6C417 550.547 415.727 551.287 414.34 551.82C414.233 551.633 414.093 551.407 413.92 551.14C413.747 550.887 413.56 550.64 413.36 550.4C413.16 550.16 412.973 549.967 412.8 549.82C414.133 549.38 415.333 548.767 416.4 547.98C417.48 547.193 418.393 546.233 419.14 545.1C419.9 543.953 420.447 542.613 420.78 541.08V540.64ZM425.58 543.44H435.7V545.38H425.58V543.44ZM425.82 536.38H435.64V538.28H425.82V536.38ZM429.2 542.02L431.42 542.48C431.087 543.173 430.727 543.887 430.34 544.62C429.967 545.353 429.593 546.067 429.22 546.76C428.847 547.44 428.5 548.047 428.18 548.58L426.08 547.94C426.4 547.433 426.74 546.84 427.1 546.16C427.473 545.48 427.84 544.78 428.2 544.06C428.573 543.327 428.907 542.647 429.2 542.02ZM432.02 544.78L434.24 544.98C434.053 546.033 433.773 546.94 433.4 547.7C433.04 548.447 432.553 549.087 431.94 549.62C431.34 550.14 430.607 550.573 429.74 550.92C428.873 551.28 427.84 551.58 426.64 551.82C426.573 551.487 426.447 551.133 426.26 550.76C426.073 550.387 425.88 550.08 425.68 549.84C427 549.667 428.087 549.393 428.94 549.02C429.807 548.647 430.487 548.12 430.98 547.44C431.473 546.76 431.82 545.873 432.02 544.78ZM433.44 533.24L435.46 534.06C435.14 534.5 434.82 534.94 434.5 535.38C434.193 535.807 433.913 536.173 433.66 536.48L432.12 535.8C432.347 535.453 432.587 535.04 432.84 534.56C433.093 534.067 433.293 533.627 433.44 533.24ZM429.64 532.98H431.84V542.3H429.64V532.98ZM426.32 534.06L428.04 533.34C428.307 533.713 428.553 534.133 428.78 534.6C429.007 535.067 429.167 535.473 429.26 535.82L427.42 536.62C427.353 536.273 427.213 535.86 427 535.38C426.787 534.9 426.56 534.46 426.32 534.06ZM429.7 537.32L431.24 538.26C430.92 538.793 430.5 539.327 429.98 539.86C429.473 540.393 428.927 540.893 428.34 541.36C427.767 541.813 427.2 542.2 426.64 542.52C426.507 542.267 426.32 541.967 426.08 541.62C425.853 541.273 425.633 540.993 425.42 540.78C425.953 540.553 426.493 540.26 427.04 539.9C427.587 539.527 428.093 539.12 428.56 538.68C429.04 538.227 429.42 537.773 429.7 537.32ZM431.64 537.9C431.827 537.993 432.08 538.133 432.4 538.32C432.733 538.507 433.087 538.713 433.46 538.94C433.847 539.153 434.193 539.353 434.5 539.54C434.82 539.727 435.047 539.867 435.18 539.96L433.92 541.62C433.733 541.447 433.493 541.233 433.2 540.98C432.907 540.727 432.593 540.467 432.26 540.2C431.927 539.933 431.607 539.68 431.3 539.44C430.993 539.2 430.727 539.007 430.5 538.86L431.64 537.9ZM437.02 536.62H444.38V538.84H437.02V536.62ZM437.24 532.98L439.68 533.34C439.467 534.713 439.193 536.047 438.86 537.34C438.527 538.62 438.12 539.807 437.64 540.9C437.173 541.98 436.627 542.933 436 543.76C435.88 543.6 435.707 543.413 435.48 543.2C435.253 542.987 435.013 542.78 434.76 542.58C434.507 542.367 434.293 542.193 434.12 542.06C434.68 541.367 435.16 540.547 435.56 539.6C435.973 538.64 436.32 537.6 436.6 536.48C436.88 535.347 437.093 534.18 437.24 532.98ZM440.88 537.98L443.34 538.22C443.047 540.5 442.593 542.507 441.98 544.24C441.38 545.973 440.547 547.467 439.48 548.72C438.413 549.973 437.04 551.02 435.36 551.86C435.28 551.673 435.16 551.44 435 551.16C434.84 550.88 434.667 550.6 434.48 550.32C434.293 550.053 434.12 549.84 433.96 549.68C435.48 549.013 436.707 548.147 437.64 547.08C438.587 546.013 439.313 544.727 439.82 543.22C440.327 541.7 440.68 539.953 440.88 537.98ZM438.38 538.4C438.66 540.08 439.053 541.66 439.56 543.14C440.067 544.62 440.733 545.92 441.56 547.04C442.387 548.16 443.407 549.04 444.62 549.68C444.447 549.827 444.253 550.02 444.04 550.26C443.827 550.513 443.62 550.773 443.42 551.04C443.233 551.307 443.08 551.547 442.96 551.76C441.613 550.96 440.5 549.927 439.62 548.66C438.753 547.393 438.053 545.927 437.52 544.26C436.987 542.58 436.553 540.747 436.22 538.76L438.38 538.4ZM427.84 547.96L429.12 546.34C429.907 546.633 430.687 546.973 431.46 547.36C432.247 547.747 432.973 548.147 433.64 548.56C434.32 548.96 434.887 549.347 435.34 549.72L433.66 551.42C433.247 551.047 432.727 550.653 432.1 550.24C431.473 549.827 430.793 549.427 430.06 549.04C429.327 548.64 428.587 548.28 427.84 547.96ZM454.231 554.04C453.285 552.493 452.545 550.88 452.011 549.2C451.491 547.52 451.231 545.687 451.231 543.7C451.231 541.7 451.491 539.86 452.011 538.18C452.545 536.5 453.285 534.887 454.231 533.34L456.051 534.12C455.211 535.587 454.591 537.14 454.191 538.78C453.805 540.42 453.611 542.06 453.611 543.7C453.611 545.34 453.805 546.98 454.191 548.62C454.591 550.26 455.211 551.807 456.051 553.26L454.231 554.04ZM458.91 550V535.18H461.87V541.04H467.47V535.18H470.41V550H467.47V543.6H461.87V550H458.91ZM473.047 550V548.44L478.067 541.12H473.607V538.8H481.727V540.38L476.707 547.68H481.907V550H473.047ZM485.301 554.04L483.481 553.26C484.321 551.807 484.935 550.26 485.321 548.62C485.721 546.98 485.921 545.34 485.921 543.7C485.921 542.06 485.721 540.42 485.321 538.78C484.935 537.14 484.321 535.587 483.481 534.12L485.301 533.34C486.248 534.887 486.981 536.5 487.501 538.18C488.035 539.86 488.301 541.7 488.301 543.7C488.301 545.687 488.035 547.52 487.501 549.2C486.981 550.88 486.248 552.493 485.301 554.04Z" fill="#3B3C3C"/>
<path d="M511 238V222H527V238H511Z" fill="#202858"/>
<path d="M684 238V222H700V238H684Z" fill="#B0B0B0"/>
<path d="M542.812 221.7H545.188V229.08H542.812V221.7ZM536.908 223.176L538.87 222.42C539.194 222.828 539.5 223.278 539.788 223.77C540.076 224.25 540.334 224.73 540.562 225.21C540.79 225.678 540.97 226.104 541.102 226.488L539.014 227.37C538.906 226.986 538.738 226.548 538.51 226.056C538.294 225.564 538.048 225.066 537.772 224.562C537.496 224.058 537.208 223.596 536.908 223.176ZM548.86 222.24L551.272 222.96C551.008 223.488 550.732 224.028 550.444 224.58C550.156 225.12 549.868 225.636 549.58 226.128C549.304 226.62 549.034 227.058 548.77 227.442L546.862 226.758C547.102 226.35 547.348 225.888 547.6 225.372C547.852 224.856 548.086 224.328 548.302 223.788C548.53 223.236 548.716 222.72 548.86 222.24ZM537.322 227.946H550.966V238.602H548.662V230.124H537.322V227.946ZM537.952 231.78H549.49V233.85H537.952V231.78ZM536.926 235.722H549.85V237.864H536.926V235.722ZM560.38 235.974H570.622V238.098H560.38V235.974ZM561.118 227.28H570.19V229.368H561.118V227.28ZM564.538 221.88H566.77V237H564.538V221.88ZM553.918 225.048H559.804V226.992H553.918V225.048ZM556.492 231.186L558.634 228.63V238.62H556.492V231.186ZM556.492 221.718H558.634V225.948H556.492V221.718ZM558.4 229.242C558.568 229.35 558.796 229.53 559.084 229.782C559.384 230.022 559.702 230.292 560.038 230.592C560.374 230.88 560.68 231.15 560.956 231.402C561.232 231.642 561.43 231.816 561.55 231.924L560.254 233.688C560.074 233.46 559.852 233.196 559.588 232.896C559.336 232.584 559.066 232.266 558.778 231.942C558.49 231.618 558.208 231.312 557.932 231.024C557.656 230.736 557.422 230.496 557.23 230.304L558.4 229.242ZM559.03 225.048H559.444L559.822 224.958L561.028 225.75C560.584 226.926 560.002 228.048 559.282 229.116C558.562 230.172 557.77 231.126 556.906 231.978C556.042 232.83 555.16 233.538 554.26 234.102C554.2 233.91 554.104 233.682 553.972 233.418C553.852 233.142 553.726 232.884 553.594 232.644C553.474 232.392 553.354 232.194 553.234 232.05C554.062 231.618 554.854 231.054 555.61 230.358C556.366 229.65 557.044 228.876 557.644 228.036C558.244 227.184 558.706 226.314 559.03 225.426V225.048ZM574.078 223.77C574.342 223.782 574.618 223.8 574.906 223.824C575.194 223.848 575.506 223.86 575.842 223.86C576.094 223.86 576.442 223.86 576.886 223.86C577.33 223.86 577.834 223.86 578.398 223.86C578.962 223.86 579.544 223.86 580.144 223.86C580.744 223.86 581.326 223.86 581.89 223.86C582.454 223.86 582.964 223.86 583.42 223.86C583.876 223.86 584.236 223.86 584.5 223.86C584.812 223.86 585.106 223.854 585.382 223.842C585.658 223.818 585.904 223.794 586.12 223.77V226.02C585.892 226.008 585.646 225.996 585.382 225.984C585.13 225.972 584.836 225.966 584.5 225.966C584.236 225.966 583.864 225.966 583.384 225.966C582.904 225.966 582.358 225.966 581.746 225.966C581.146 225.966 580.528 225.966 579.892 225.966C579.268 225.966 578.674 225.966 578.11 225.966C577.546 225.966 577.06 225.966 576.652 225.966C576.256 225.966 575.986 225.966 575.842 225.966C575.506 225.966 575.194 225.972 574.906 225.984C574.618 225.984 574.342 225.996 574.078 226.02V223.77ZM580.27 230.106C580.27 230.322 580.27 230.61 580.27 230.97C580.27 231.33 580.27 231.714 580.27 232.122C580.27 232.518 580.27 232.884 580.27 233.22C580.27 233.556 580.27 233.802 580.27 233.958C580.27 234.45 580.432 234.798 580.756 235.002C581.08 235.206 581.602 235.308 582.322 235.308C583.138 235.308 583.936 235.284 584.716 235.236C585.496 235.188 586.246 235.128 586.966 235.056L586.804 237.486C586.42 237.51 585.952 237.534 585.4 237.558C584.86 237.582 584.284 237.6 583.672 237.612C583.06 237.624 582.472 237.63 581.908 237.63C580.816 237.63 579.97 237.51 579.37 237.27C578.782 237.03 578.374 236.694 578.146 236.262C577.918 235.818 577.804 235.29 577.804 234.678C577.804 234.39 577.804 234.036 577.804 233.616C577.804 233.196 577.804 232.758 577.804 232.302C577.804 231.846 577.804 231.42 577.804 231.024C577.804 230.628 577.804 230.298 577.804 230.034C577.804 229.89 577.804 229.662 577.804 229.35C577.804 229.038 577.804 228.684 577.804 228.288C577.804 227.88 577.804 227.484 577.804 227.1C577.804 226.716 577.804 226.374 577.804 226.074C577.804 225.762 577.804 225.552 577.804 225.444H580.27C580.27 225.552 580.27 225.774 580.27 226.11C580.27 226.446 580.27 226.836 580.27 227.28C580.27 227.712 580.27 228.138 580.27 228.558C580.27 228.978 580.27 229.332 580.27 229.62C580.27 229.908 580.27 230.07 580.27 230.106ZM572.89 228.936C573.154 228.948 573.478 228.966 573.862 228.99C574.258 229.014 574.594 229.026 574.87 229.026C575.11 229.026 575.458 229.026 575.914 229.026C576.382 229.026 576.916 229.026 577.516 229.026C578.128 229.026 578.77 229.026 579.442 229.026C580.126 229.026 580.798 229.026 581.458 229.026C582.118 229.026 582.736 229.026 583.312 229.026C583.9 229.026 584.398 229.026 584.806 229.026C585.226 229.026 585.526 229.026 585.706 229.026C585.838 229.026 586.012 229.02 586.228 229.008C586.444 228.996 586.66 228.99 586.876 228.99C587.104 228.978 587.296 228.966 587.452 228.954L587.47 231.258C587.23 231.234 586.936 231.222 586.588 231.222C586.24 231.21 585.964 231.204 585.76 231.204C585.58 231.204 585.274 231.204 584.842 231.204C584.422 231.204 583.918 231.204 583.33 231.204C582.742 231.204 582.112 231.204 581.44 231.204C580.768 231.204 580.096 231.204 579.424 231.204C578.752 231.204 578.11 231.204 577.498 231.204C576.898 231.204 576.37 231.204 575.914 231.204C575.458 231.204 575.11 231.204 574.87 231.204C574.618 231.204 574.294 231.216 573.898 231.24C573.502 231.252 573.166 231.27 572.89 231.294V228.936ZM602.14 223.176C602.308 223.428 602.488 223.722 602.68 224.058C602.884 224.382 603.082 224.712 603.274 225.048C603.466 225.372 603.634 225.678 603.778 225.966L602.212 226.632C602.032 226.248 601.864 225.906 601.708 225.606C601.552 225.294 601.384 224.994 601.204 224.706C601.036 224.406 600.844 224.106 600.628 223.806L602.14 223.176ZM604.606 222.312C604.798 222.54 604.996 222.816 605.2 223.14C605.404 223.464 605.602 223.788 605.794 224.112C605.986 224.436 606.154 224.73 606.298 224.994L604.768 225.678C604.576 225.306 604.39 224.97 604.21 224.67C604.042 224.37 603.868 224.082 603.688 223.806C603.508 223.53 603.304 223.242 603.076 222.942L604.606 222.312ZM594.31 222.834C594.61 222.99 594.946 223.182 595.318 223.41C595.69 223.638 596.068 223.878 596.452 224.13C596.836 224.37 597.202 224.604 597.55 224.832C597.898 225.048 598.186 225.24 598.414 225.408L597.082 227.388C596.83 227.22 596.53 227.022 596.182 226.794C595.846 226.566 595.486 226.332 595.102 226.092C594.73 225.852 594.358 225.624 593.986 225.408C593.626 225.18 593.302 224.982 593.014 224.814L594.31 222.834ZM590.98 235.614C591.652 235.494 592.336 235.344 593.032 235.164C593.728 234.984 594.418 234.768 595.102 234.516C595.786 234.252 596.452 233.94 597.1 233.58C598.12 233.004 599.068 232.356 599.944 231.636C600.832 230.916 601.63 230.154 602.338 229.35C603.046 228.534 603.634 227.694 604.102 226.83L605.488 229.278C604.66 230.526 603.628 231.708 602.392 232.824C601.168 233.928 599.818 234.906 598.342 235.758C597.73 236.094 597.058 236.418 596.326 236.73C595.594 237.03 594.874 237.288 594.166 237.504C593.47 237.72 592.858 237.876 592.33 237.972L590.98 235.614ZM591.538 226.938C591.838 227.094 592.18 227.286 592.564 227.514C592.948 227.742 593.332 227.976 593.716 228.216C594.1 228.444 594.46 228.672 594.796 228.9C595.144 229.116 595.432 229.308 595.66 229.476L594.346 231.492C594.082 231.312 593.776 231.108 593.428 230.88C593.092 230.652 592.732 230.418 592.348 230.178C591.976 229.938 591.604 229.71 591.232 229.494C590.872 229.266 590.542 229.074 590.242 228.918L591.538 226.938ZM619.396 228.414C619.348 228.534 619.312 228.666 619.288 228.81C619.264 228.954 619.24 229.074 619.216 229.17C619.18 229.422 619.126 229.77 619.054 230.214C618.994 230.658 618.922 231.15 618.838 231.69C618.766 232.218 618.688 232.752 618.604 233.292C618.52 233.832 618.442 234.324 618.37 234.768C618.31 235.212 618.256 235.566 618.208 235.83H615.742C615.79 235.578 615.844 235.26 615.904 234.876C615.964 234.48 616.03 234.054 616.102 233.598C616.186 233.13 616.258 232.662 616.318 232.194C616.39 231.726 616.45 231.294 616.498 230.898C616.546 230.502 616.576 230.184 616.588 229.944C616.42 229.944 616.162 229.944 615.814 229.944C615.478 229.944 615.094 229.944 614.662 229.944C614.242 229.944 613.822 229.944 613.402 229.944C612.994 229.944 612.64 229.944 612.34 229.944C612.04 229.944 611.836 229.944 611.728 229.944C611.44 229.944 611.128 229.956 610.792 229.98C610.468 229.992 610.18 230.01 609.928 230.034V227.658C610.084 227.682 610.27 227.7 610.486 227.712C610.702 227.724 610.918 227.736 611.134 227.748C611.362 227.76 611.554 227.766 611.71 227.766C611.89 227.766 612.136 227.766 612.448 227.766C612.76 227.766 613.102 227.766 613.474 227.766C613.846 227.766 614.218 227.766 614.59 227.766C614.962 227.766 615.298 227.766 615.598 227.766C615.91 227.766 616.15 227.766 616.318 227.766C616.45 227.766 616.606 227.76 616.786 227.748C616.966 227.736 617.14 227.718 617.308 227.694C617.476 227.658 617.59 227.616 617.65 227.568L619.396 228.414ZM608.272 234.948C608.512 234.972 608.788 234.996 609.1 235.02C609.424 235.032 609.742 235.038 610.054 235.038C610.234 235.038 610.564 235.038 611.044 235.038C611.536 235.038 612.112 235.038 612.772 235.038C613.444 235.038 614.134 235.038 614.842 235.038C615.562 235.038 616.246 235.038 616.894 235.038C617.554 235.038 618.118 235.038 618.586 235.038C619.054 235.038 619.354 235.038 619.486 235.038C619.714 235.038 620.008 235.032 620.368 235.02C620.728 235.008 621.022 234.99 621.25 234.966V237.288C621.13 237.276 620.962 237.264 620.746 237.252C620.542 237.252 620.326 237.246 620.098 237.234C619.882 237.234 619.69 237.234 619.522 237.234C619.378 237.234 619.066 237.234 618.586 237.234C618.106 237.234 617.536 237.234 616.876 237.234C616.216 237.234 615.52 237.234 614.788 237.234C614.068 237.234 613.372 237.234 612.7 237.234C612.04 237.234 611.47 237.234 610.99 237.234C610.51 237.234 610.198 237.234 610.054 237.234C609.742 237.234 609.454 237.234 609.19 237.234C608.926 237.246 608.62 237.264 608.272 237.288V234.948ZM625.39 228.666C625.606 228.678 625.882 228.696 626.218 228.72C626.554 228.732 626.902 228.744 627.262 228.756C627.634 228.768 627.976 228.774 628.288 228.774C628.588 228.774 628.96 228.774 629.404 228.774C629.848 228.774 630.328 228.774 630.844 228.774C631.372 228.774 631.912 228.774 632.464 228.774C633.028 228.774 633.586 228.774 634.138 228.774C634.69 228.774 635.212 228.774 635.704 228.774C636.196 228.774 636.634 228.774 637.018 228.774C637.414 228.774 637.726 228.774 637.954 228.774C638.374 228.774 638.77 228.762 639.142 228.738C639.514 228.702 639.82 228.678 640.06 228.666V231.492C639.856 231.48 639.55 231.462 639.142 231.438C638.734 231.414 638.338 231.402 637.954 231.402C637.726 231.402 637.414 231.402 637.018 231.402C636.622 231.402 636.178 231.402 635.686 231.402C635.194 231.402 634.672 231.402 634.12 231.402C633.58 231.402 633.028 231.402 632.464 231.402C631.9 231.402 631.354 231.402 630.826 231.402C630.31 231.402 629.83 231.402 629.386 231.402C628.954 231.402 628.588 231.402 628.288 231.402C627.772 231.402 627.244 231.414 626.704 231.438C626.164 231.45 625.726 231.468 625.39 231.492V228.666ZM650.788 236.604C650.824 236.424 650.854 236.22 650.878 235.992C650.914 235.752 650.932 235.512 650.932 235.272C650.932 235.14 650.932 234.876 650.932 234.48C650.932 234.084 650.932 233.604 650.932 233.04C650.932 232.476 650.932 231.87 650.932 231.222C650.932 230.562 650.932 229.896 650.932 229.224C650.932 228.552 650.932 227.922 650.932 227.334C650.932 226.734 650.932 226.212 650.932 225.768C650.932 225.312 650.932 224.982 650.932 224.778C650.932 224.37 650.908 224.016 650.86 223.716C650.824 223.416 650.8 223.254 650.788 223.23H653.47C653.458 223.254 653.434 223.422 653.398 223.734C653.362 224.034 653.344 224.388 653.344 224.796C653.344 225 653.344 225.306 653.344 225.714C653.344 226.11 653.344 226.572 653.344 227.1C653.344 227.616 653.344 228.168 653.344 228.756C653.344 229.344 653.344 229.926 653.344 230.502C653.344 231.066 653.344 231.606 653.344 232.122C653.344 232.626 653.344 233.058 653.344 233.418C653.344 233.778 653.344 234.042 653.344 234.21C653.836 233.994 654.346 233.7 654.874 233.328C655.402 232.956 655.918 232.524 656.422 232.032C656.938 231.528 657.394 230.988 657.79 230.412L659.176 232.392C658.684 233.04 658.084 233.676 657.376 234.3C656.68 234.924 655.96 235.494 655.216 236.01C654.472 236.526 653.758 236.958 653.074 237.306C652.882 237.414 652.726 237.51 652.606 237.594C652.486 237.69 652.384 237.774 652.3 237.846L650.788 236.604ZM642.454 236.334C643.246 235.782 643.894 235.116 644.398 234.336C644.902 233.556 645.274 232.788 645.514 232.032C645.646 231.636 645.742 231.15 645.802 230.574C645.874 229.986 645.928 229.362 645.964 228.702C646 228.03 646.018 227.37 646.018 226.722C646.03 226.062 646.036 225.456 646.036 224.904C646.036 224.544 646.018 224.238 645.982 223.986C645.958 223.722 645.922 223.476 645.874 223.248H648.52C648.508 223.272 648.49 223.374 648.466 223.554C648.454 223.722 648.436 223.926 648.412 224.166C648.4 224.394 648.394 224.634 648.394 224.886C648.394 225.414 648.388 226.032 648.376 226.74C648.364 227.436 648.34 228.15 648.304 228.882C648.268 229.614 648.214 230.31 648.142 230.97C648.07 231.618 647.974 232.17 647.854 232.626C647.578 233.646 647.164 234.594 646.612 235.47C646.072 236.334 645.418 237.108 644.65 237.792L642.454 236.334Z" fill="#3B3C3C"/>
<path d="M718.926 221.79H720.96V234.336H718.926V221.79ZM712.842 228.846L723.534 224.67L724.362 226.542L713.688 230.754L712.842 228.846ZM715.056 223.716H717.18V235.146C717.18 235.506 717.21 235.776 717.27 235.956C717.342 236.136 717.474 236.256 717.666 236.316C717.87 236.376 718.164 236.406 718.548 236.406C718.656 236.406 718.83 236.406 719.07 236.406C719.31 236.406 719.58 236.406 719.88 236.406C720.192 236.406 720.498 236.406 720.798 236.406C721.11 236.406 721.386 236.406 721.626 236.406C721.878 236.406 722.064 236.406 722.184 236.406C722.544 236.406 722.814 236.34 722.994 236.208C723.174 236.076 723.306 235.836 723.39 235.488C723.474 235.128 723.546 234.606 723.606 233.922C723.846 234.09 724.152 234.252 724.524 234.408C724.908 234.564 725.25 234.678 725.55 234.75C725.454 235.65 725.298 236.364 725.082 236.892C724.878 237.408 724.56 237.78 724.128 238.008C723.708 238.236 723.12 238.35 722.364 238.35C722.244 238.35 722.046 238.35 721.77 238.35C721.494 238.35 721.188 238.35 720.852 238.35C720.516 238.35 720.18 238.35 719.844 238.35C719.508 238.35 719.208 238.35 718.944 238.35C718.68 238.35 718.488 238.35 718.368 238.35C717.504 238.35 716.832 238.254 716.352 238.062C715.872 237.882 715.536 237.558 715.344 237.09C715.152 236.622 715.056 235.974 715.056 235.146V223.716ZM722.814 225.03H722.67L723.048 224.76L723.426 224.49L724.902 225.048L724.83 225.39C724.83 226.434 724.824 227.37 724.812 228.198C724.8 229.014 724.782 229.704 724.758 230.268C724.734 230.82 724.704 231.228 724.668 231.492C724.632 231.948 724.524 232.302 724.344 232.554C724.176 232.806 723.948 232.998 723.66 233.13C723.384 233.25 723.054 233.328 722.67 233.364C722.286 233.388 721.932 233.394 721.608 233.382C721.596 233.082 721.548 232.734 721.464 232.338C721.38 231.942 721.272 231.63 721.14 231.402C721.344 231.414 721.554 231.426 721.77 231.438C721.986 231.438 722.148 231.438 722.256 231.438C722.376 231.438 722.472 231.414 722.544 231.366C722.616 231.306 722.67 231.192 722.706 231.024C722.73 230.88 722.748 230.58 722.76 230.124C722.772 229.668 722.784 229.02 722.796 228.18C722.808 227.34 722.814 226.29 722.814 225.03ZM712.356 221.772L714.354 222.42C713.97 223.428 713.514 224.442 712.986 225.462C712.458 226.482 711.888 227.448 711.276 228.36C710.664 229.26 710.034 230.052 709.386 230.736C709.326 230.568 709.224 230.346 709.08 230.07C708.948 229.794 708.804 229.518 708.648 229.242C708.504 228.954 708.372 228.72 708.252 228.54C708.792 227.988 709.314 227.352 709.818 226.632C710.334 225.912 710.808 225.138 711.24 224.31C711.684 223.482 712.056 222.636 712.356 221.772ZM710.538 226.758L712.644 224.634L712.662 224.652V238.584H710.538V226.758ZM733.38 235.974H743.622V238.098H733.38V235.974ZM734.118 227.28H743.19V229.368H734.118V227.28ZM737.538 221.88H739.77V237H737.538V221.88ZM726.918 225.048H732.804V226.992H726.918V225.048ZM729.492 231.186L731.634 228.63V238.62H729.492V231.186ZM729.492 221.718H731.634V225.948H729.492V221.718ZM731.4 229.242C731.568 229.35 731.796 229.53 732.084 229.782C732.384 230.022 732.702 230.292 733.038 230.592C733.374 230.88 733.68 231.15 733.956 231.402C734.232 231.642 734.43 231.816 734.55 231.924L733.254 233.688C733.074 233.46 732.852 233.196 732.588 232.896C732.336 232.584 732.066 232.266 731.778 231.942C731.49 231.618 731.208 231.312 730.932 231.024C730.656 230.736 730.422 230.496 730.23 230.304L731.4 229.242ZM732.03 225.048H732.444L732.822 224.958L734.028 225.75C733.584 226.926 733.002 228.048 732.282 229.116C731.562 230.172 730.77 231.126 729.906 231.978C729.042 232.83 728.16 233.538 727.26 234.102C727.2 233.91 727.104 233.682 726.972 233.418C726.852 233.142 726.726 232.884 726.594 232.644C726.474 232.392 726.354 232.194 726.234 232.05C727.062 231.618 727.854 231.054 728.61 230.358C729.366 229.65 730.044 228.876 730.644 228.036C731.244 227.184 731.706 226.314 732.03 225.426V225.048ZM747.078 223.77C747.342 223.782 747.618 223.8 747.906 223.824C748.194 223.848 748.506 223.86 748.842 223.86C749.094 223.86 749.442 223.86 749.886 223.86C750.33 223.86 750.834 223.86 751.398 223.86C751.962 223.86 752.544 223.86 753.144 223.86C753.744 223.86 754.326 223.86 754.89 223.86C755.454 223.86 755.964 223.86 756.42 223.86C756.876 223.86 757.236 223.86 757.5 223.86C757.812 223.86 758.106 223.854 758.382 223.842C758.658 223.818 758.904 223.794 759.12 223.77V226.02C758.892 226.008 758.646 225.996 758.382 225.984C758.13 225.972 757.836 225.966 757.5 225.966C757.236 225.966 756.864 225.966 756.384 225.966C755.904 225.966 755.358 225.966 754.746 225.966C754.146 225.966 753.528 225.966 752.892 225.966C752.268 225.966 751.674 225.966 751.11 225.966C750.546 225.966 750.06 225.966 749.652 225.966C749.256 225.966 748.986 225.966 748.842 225.966C748.506 225.966 748.194 225.972 747.906 225.984C747.618 225.984 747.342 225.996 747.078 226.02V223.77ZM753.27 230.106C753.27 230.322 753.27 230.61 753.27 230.97C753.27 231.33 753.27 231.714 753.27 232.122C753.27 232.518 753.27 232.884 753.27 233.22C753.27 233.556 753.27 233.802 753.27 233.958C753.27 234.45 753.432 234.798 753.756 235.002C754.08 235.206 754.602 235.308 755.322 235.308C756.138 235.308 756.936 235.284 757.716 235.236C758.496 235.188 759.246 235.128 759.966 235.056L759.804 237.486C759.42 237.51 758.952 237.534 758.4 237.558C757.86 237.582 757.284 237.6 756.672 237.612C756.06 237.624 755.472 237.63 754.908 237.63C753.816 237.63 752.97 237.51 752.37 237.27C751.782 237.03 751.374 236.694 751.146 236.262C750.918 235.818 750.804 235.29 750.804 234.678C750.804 234.39 750.804 234.036 750.804 233.616C750.804 233.196 750.804 232.758 750.804 232.302C750.804 231.846 750.804 231.42 750.804 231.024C750.804 230.628 750.804 230.298 750.804 230.034C750.804 229.89 750.804 229.662 750.804 229.35C750.804 229.038 750.804 228.684 750.804 228.288C750.804 227.88 750.804 227.484 750.804 227.1C750.804 226.716 750.804 226.374 750.804 226.074C750.804 225.762 750.804 225.552 750.804 225.444H753.27C753.27 225.552 753.27 225.774 753.27 226.11C753.27 226.446 753.27 226.836 753.27 227.28C753.27 227.712 753.27 228.138 753.27 228.558C753.27 228.978 753.27 229.332 753.27 229.62C753.27 229.908 753.27 230.07 753.27 230.106ZM745.89 228.936C746.154 228.948 746.478 228.966 746.862 228.99C747.258 229.014 747.594 229.026 747.87 229.026C748.11 229.026 748.458 229.026 748.914 229.026C749.382 229.026 749.916 229.026 750.516 229.026C751.128 229.026 751.77 229.026 752.442 229.026C753.126 229.026 753.798 229.026 754.458 229.026C755.118 229.026 755.736 229.026 756.312 229.026C756.9 229.026 757.398 229.026 757.806 229.026C758.226 229.026 758.526 229.026 758.706 229.026C758.838 229.026 759.012 229.02 759.228 229.008C759.444 228.996 759.66 228.99 759.876 228.99C760.104 228.978 760.296 228.966 760.452 228.954L760.47 231.258C760.23 231.234 759.936 231.222 759.588 231.222C759.24 231.21 758.964 231.204 758.76 231.204C758.58 231.204 758.274 231.204 757.842 231.204C757.422 231.204 756.918 231.204 756.33 231.204C755.742 231.204 755.112 231.204 754.44 231.204C753.768 231.204 753.096 231.204 752.424 231.204C751.752 231.204 751.11 231.204 750.498 231.204C749.898 231.204 749.37 231.204 748.914 231.204C748.458 231.204 748.11 231.204 747.87 231.204C747.618 231.204 747.294 231.216 746.898 231.24C746.502 231.252 746.166 231.27 745.89 231.294V228.936ZM775.14 223.176C775.308 223.428 775.488 223.722 775.68 224.058C775.884 224.382 776.082 224.712 776.274 225.048C776.466 225.372 776.634 225.678 776.778 225.966L775.212 226.632C775.032 226.248 774.864 225.906 774.708 225.606C774.552 225.294 774.384 224.994 774.204 224.706C774.036 224.406 773.844 224.106 773.628 223.806L775.14 223.176ZM777.606 222.312C777.798 222.54 777.996 222.816 778.2 223.14C778.404 223.464 778.602 223.788 778.794 224.112C778.986 224.436 779.154 224.73 779.298 224.994L777.768 225.678C777.576 225.306 777.39 224.97 777.21 224.67C777.042 224.37 776.868 224.082 776.688 223.806C776.508 223.53 776.304 223.242 776.076 222.942L777.606 222.312ZM767.31 222.834C767.61 222.99 767.946 223.182 768.318 223.41C768.69 223.638 769.068 223.878 769.452 224.13C769.836 224.37 770.202 224.604 770.55 224.832C770.898 225.048 771.186 225.24 771.414 225.408L770.082 227.388C769.83 227.22 769.53 227.022 769.182 226.794C768.846 226.566 768.486 226.332 768.102 226.092C767.73 225.852 767.358 225.624 766.986 225.408C766.626 225.18 766.302 224.982 766.014 224.814L767.31 222.834ZM763.98 235.614C764.652 235.494 765.336 235.344 766.032 235.164C766.728 234.984 767.418 234.768 768.102 234.516C768.786 234.252 769.452 233.94 770.1 233.58C771.12 233.004 772.068 232.356 772.944 231.636C773.832 230.916 774.63 230.154 775.338 229.35C776.046 228.534 776.634 227.694 777.102 226.83L778.488 229.278C777.66 230.526 776.628 231.708 775.392 232.824C774.168 233.928 772.818 234.906 771.342 235.758C770.73 236.094 770.058 236.418 769.326 236.73C768.594 237.03 767.874 237.288 767.166 237.504C766.47 237.72 765.858 237.876 765.33 237.972L763.98 235.614ZM764.538 226.938C764.838 227.094 765.18 227.286 765.564 227.514C765.948 227.742 766.332 227.976 766.716 228.216C767.1 228.444 767.46 228.672 767.796 228.9C768.144 229.116 768.432 229.308 768.66 229.476L767.346 231.492C767.082 231.312 766.776 231.108 766.428 230.88C766.092 230.652 765.732 230.418 765.348 230.178C764.976 229.938 764.604 229.71 764.232 229.494C763.872 229.266 763.542 229.074 763.242 228.918L764.538 226.938ZM792.396 228.414C792.348 228.534 792.312 228.666 792.288 228.81C792.264 228.954 792.24 229.074 792.216 229.17C792.18 229.422 792.126 229.77 792.054 230.214C791.994 230.658 791.922 231.15 791.838 231.69C791.766 232.218 791.688 232.752 791.604 233.292C791.52 233.832 791.442 234.324 791.37 234.768C791.31 235.212 791.256 235.566 791.208 235.83H788.742C788.79 235.578 788.844 235.26 788.904 234.876C788.964 234.48 789.03 234.054 789.102 233.598C789.186 233.13 789.258 232.662 789.318 232.194C789.39 231.726 789.45 231.294 789.498 230.898C789.546 230.502 789.576 230.184 789.588 229.944C789.42 229.944 789.162 229.944 788.814 229.944C788.478 229.944 788.094 229.944 787.662 229.944C787.242 229.944 786.822 229.944 786.402 229.944C785.994 229.944 785.64 229.944 785.34 229.944C785.04 229.944 784.836 229.944 784.728 229.944C784.44 229.944 784.128 229.956 783.792 229.98C783.468 229.992 783.18 230.01 782.928 230.034V227.658C783.084 227.682 783.27 227.7 783.486 227.712C783.702 227.724 783.918 227.736 784.134 227.748C784.362 227.76 784.554 227.766 784.71 227.766C784.89 227.766 785.136 227.766 785.448 227.766C785.76 227.766 786.102 227.766 786.474 227.766C786.846 227.766 787.218 227.766 787.59 227.766C787.962 227.766 788.298 227.766 788.598 227.766C788.91 227.766 789.15 227.766 789.318 227.766C789.45 227.766 789.606 227.76 789.786 227.748C789.966 227.736 790.14 227.718 790.308 227.694C790.476 227.658 790.59 227.616 790.65 227.568L792.396 228.414ZM781.272 234.948C781.512 234.972 781.788 234.996 782.1 235.02C782.424 235.032 782.742 235.038 783.054 235.038C783.234 235.038 783.564 235.038 784.044 235.038C784.536 235.038 785.112 235.038 785.772 235.038C786.444 235.038 787.134 235.038 787.842 235.038C788.562 235.038 789.246 235.038 789.894 235.038C790.554 235.038 791.118 235.038 791.586 235.038C792.054 235.038 792.354 235.038 792.486 235.038C792.714 235.038 793.008 235.032 793.368 235.02C793.728 235.008 794.022 234.99 794.25 234.966V237.288C794.13 237.276 793.962 237.264 793.746 237.252C793.542 237.252 793.326 237.246 793.098 237.234C792.882 237.234 792.69 237.234 792.522 237.234C792.378 237.234 792.066 237.234 791.586 237.234C791.106 237.234 790.536 237.234 789.876 237.234C789.216 237.234 788.52 237.234 787.788 237.234C787.068 237.234 786.372 237.234 785.7 237.234C785.04 237.234 784.47 237.234 783.99 237.234C783.51 237.234 783.198 237.234 783.054 237.234C782.742 237.234 782.454 237.234 782.19 237.234C781.926 237.246 781.62 237.264 781.272 237.288V234.948ZM798.39 228.666C798.606 228.678 798.882 228.696 799.218 228.72C799.554 228.732 799.902 228.744 800.262 228.756C800.634 228.768 800.976 228.774 801.288 228.774C801.588 228.774 801.96 228.774 802.404 228.774C802.848 228.774 803.328 228.774 803.844 228.774C804.372 228.774 804.912 228.774 805.464 228.774C806.028 228.774 806.586 228.774 807.138 228.774C807.69 228.774 808.212 228.774 808.704 228.774C809.196 228.774 809.634 228.774 810.018 228.774C810.414 228.774 810.726 228.774 810.954 228.774C811.374 228.774 811.77 228.762 812.142 228.738C812.514 228.702 812.82 228.678 813.06 228.666V231.492C812.856 231.48 812.55 231.462 812.142 231.438C811.734 231.414 811.338 231.402 810.954 231.402C810.726 231.402 810.414 231.402 810.018 231.402C809.622 231.402 809.178 231.402 808.686 231.402C808.194 231.402 807.672 231.402 807.12 231.402C806.58 231.402 806.028 231.402 805.464 231.402C804.9 231.402 804.354 231.402 803.826 231.402C803.31 231.402 802.83 231.402 802.386 231.402C801.954 231.402 801.588 231.402 801.288 231.402C800.772 231.402 800.244 231.414 799.704 231.438C799.164 231.45 798.726 231.468 798.39 231.492V228.666ZM823.788 236.604C823.824 236.424 823.854 236.22 823.878 235.992C823.914 235.752 823.932 235.512 823.932 235.272C823.932 235.14 823.932 234.876 823.932 234.48C823.932 234.084 823.932 233.604 823.932 233.04C823.932 232.476 823.932 231.87 823.932 231.222C823.932 230.562 823.932 229.896 823.932 229.224C823.932 228.552 823.932 227.922 823.932 227.334C823.932 226.734 823.932 226.212 823.932 225.768C823.932 225.312 823.932 224.982 823.932 224.778C823.932 224.37 823.908 224.016 823.86 223.716C823.824 223.416 823.8 223.254 823.788 223.23H826.47C826.458 223.254 826.434 223.422 826.398 223.734C826.362 224.034 826.344 224.388 826.344 224.796C826.344 225 826.344 225.306 826.344 225.714C826.344 226.11 826.344 226.572 826.344 227.1C826.344 227.616 826.344 228.168 826.344 228.756C826.344 229.344 826.344 229.926 826.344 230.502C826.344 231.066 826.344 231.606 826.344 232.122C826.344 232.626 826.344 233.058 826.344 233.418C826.344 233.778 826.344 234.042 826.344 234.21C826.836 233.994 827.346 233.7 827.874 233.328C828.402 232.956 828.918 232.524 829.422 232.032C829.938 231.528 830.394 230.988 830.79 230.412L832.176 232.392C831.684 233.04 831.084 233.676 830.376 234.3C829.68 234.924 828.96 235.494 828.216 236.01C827.472 236.526 826.758 236.958 826.074 237.306C825.882 237.414 825.726 237.51 825.606 237.594C825.486 237.69 825.384 237.774 825.3 237.846L823.788 236.604ZM815.454 236.334C816.246 235.782 816.894 235.116 817.398 234.336C817.902 233.556 818.274 232.788 818.514 232.032C818.646 231.636 818.742 231.15 818.802 230.574C818.874 229.986 818.928 229.362 818.964 228.702C819 228.03 819.018 227.37 819.018 226.722C819.03 226.062 819.036 225.456 819.036 224.904C819.036 224.544 819.018 224.238 818.982 223.986C818.958 223.722 818.922 223.476 818.874 223.248H821.52C821.508 223.272 821.49 223.374 821.466 223.554C821.454 223.722 821.436 223.926 821.412 224.166C821.4 224.394 821.394 224.634 821.394 224.886C821.394 225.414 821.388 226.032 821.376 226.74C821.364 227.436 821.34 228.15 821.304 228.882C821.268 229.614 821.214 230.31 821.142 230.97C821.07 231.618 820.974 232.17 820.854 232.626C820.578 233.646 820.164 234.594 819.612 235.47C819.072 236.334 818.418 237.108 817.65 237.792L815.454 236.334Z" fill="#3B3C3C"/>
</svg>
