<svg width="1447" height="207" viewBox="0 0 1447 207" fill="none" xmlns="http://www.w3.org/2000/svg">
<rect x="16" y="153" width="104" height="54" rx="27" fill="url(#paint0_linear_1236_609)"/>
<path d="M54.224 170.632H66.608V173.128H54.224V170.632ZM56.72 174.928H65.96V177.28H56.72V174.928ZM54.896 179.2H66.992V181.624H54.896V179.2ZM53.12 170.632H55.784V177.712C55.784 178.768 55.744 179.92 55.664 181.168C55.6 182.4 55.456 183.672 55.232 184.984C55.024 186.296 54.712 187.568 54.296 188.8C53.88 190.016 53.328 191.12 52.64 192.112C52.496 191.936 52.288 191.736 52.016 191.512C51.744 191.304 51.464 191.096 51.176 190.888C50.904 190.696 50.664 190.552 50.456 190.456C51.08 189.544 51.568 188.552 51.92 187.48C52.288 186.392 52.552 185.28 52.712 184.144C52.888 183.008 53 181.896 53.048 180.808C53.096 179.704 53.12 178.672 53.12 177.712V170.632ZM56.552 180.784H59.096V189.88L56.552 190.096V180.784ZM54.704 189.256C55.664 189.112 56.792 188.92 58.088 188.68C59.4 188.44 60.736 188.192 62.096 187.936L62.336 190.216C61.104 190.472 59.88 190.728 58.664 190.984C57.448 191.24 56.328 191.48 55.304 191.704L54.704 189.256ZM65.264 182.08L67.16 183.88C66.504 184.408 65.832 184.944 65.144 185.488C64.456 186.016 63.824 186.456 63.248 186.808L61.832 185.32C62.2 185.048 62.592 184.728 63.008 184.36C63.424 183.992 63.832 183.608 64.232 183.208C64.648 182.792 64.992 182.416 65.264 182.08ZM62.48 180.76C62.688 182.152 62.984 183.44 63.368 184.624C63.768 185.808 64.312 186.84 65 187.72C65.688 188.6 66.56 189.28 67.616 189.76C67.408 189.936 67.192 190.16 66.968 190.432C66.744 190.704 66.528 190.992 66.32 191.296C66.128 191.6 65.96 191.872 65.816 192.112C64.616 191.472 63.632 190.624 62.864 189.568C62.112 188.496 61.512 187.248 61.064 185.824C60.632 184.4 60.296 182.808 60.056 181.048L62.48 180.76ZM44.504 181.672C45.464 181.464 46.608 181.184 47.936 180.832C49.28 180.48 50.632 180.112 51.992 179.728L52.352 182.32C51.12 182.688 49.872 183.056 48.608 183.424C47.36 183.792 46.2 184.128 45.128 184.432L44.504 181.672ZM44.888 174.16H52.232V176.8H44.888V174.16ZM47.408 169.624H50.048V189.112C50.048 189.768 49.976 190.288 49.832 190.672C49.704 191.072 49.456 191.384 49.088 191.608C48.736 191.832 48.288 191.984 47.744 192.064C47.216 192.144 46.552 192.176 45.752 192.16C45.72 191.808 45.632 191.368 45.488 190.84C45.344 190.328 45.184 189.88 45.008 189.496C45.456 189.512 45.864 189.528 46.232 189.544C46.616 189.544 46.88 189.536 47.024 189.52C47.168 189.52 47.264 189.496 47.312 189.448C47.376 189.384 47.408 189.272 47.408 189.112V169.624ZM68.912 185.128H80.12V187.168H68.912V185.128ZM68.384 173.704H80.384V175.792H68.384V173.704ZM73.136 172.024H75.752V189.232H73.136V172.024ZM68.24 188.944C69.248 188.88 70.4 188.8 71.696 188.704C72.992 188.608 74.36 188.504 75.8 188.392C77.256 188.264 78.704 188.136 80.144 188.008L80.168 190.192C78.808 190.336 77.432 190.48 76.04 190.624C74.664 190.768 73.336 190.896 72.056 191.008C70.792 191.136 69.632 191.256 68.576 191.368L68.24 188.944ZM71.288 181.312V182.392H77.624V181.312H71.288ZM71.288 178.528V179.608H77.624V178.528H71.288ZM69.008 176.728H80V184.192H69.008V176.728ZM78.848 169.744L80.096 171.88C79.088 172.088 77.952 172.272 76.688 172.432C75.44 172.576 74.16 172.696 72.848 172.792C71.536 172.872 70.28 172.928 69.08 172.96C69.032 172.656 68.944 172.312 68.816 171.928C68.704 171.528 68.576 171.184 68.432 170.896C69.328 170.848 70.248 170.792 71.192 170.728C72.136 170.648 73.064 170.56 73.976 170.464C74.904 170.368 75.776 170.264 76.592 170.152C77.424 170.024 78.176 169.888 78.848 169.744ZM80.36 175.048H88.688V177.688H80.36V175.048ZM87.512 175.048H90.272C90.272 175.048 90.272 175.128 90.272 175.288C90.272 175.448 90.272 175.632 90.272 175.84C90.272 176.032 90.272 176.192 90.272 176.32C90.208 178.784 90.144 180.88 90.08 182.608C90.016 184.32 89.944 185.736 89.864 186.856C89.8 187.96 89.696 188.824 89.552 189.448C89.424 190.072 89.264 190.52 89.072 190.792C88.8 191.192 88.512 191.472 88.208 191.632C87.92 191.808 87.576 191.936 87.176 192.016C86.808 192.08 86.36 192.112 85.832 192.112C85.304 192.128 84.752 192.128 84.176 192.112C84.16 191.712 84.072 191.248 83.912 190.72C83.768 190.192 83.584 189.736 83.36 189.352C83.872 189.4 84.344 189.432 84.776 189.448C85.208 189.464 85.536 189.472 85.76 189.472C85.952 189.472 86.112 189.44 86.24 189.376C86.368 189.312 86.488 189.208 86.6 189.064C86.728 188.872 86.84 188.504 86.936 187.96C87.032 187.4 87.112 186.608 87.176 185.584C87.256 184.544 87.32 183.208 87.368 181.576C87.432 179.944 87.48 177.968 87.512 175.648V175.048ZM82.664 170.008H85.424C85.424 172.056 85.4 174 85.352 175.84C85.32 177.68 85.216 179.416 85.04 181.048C84.88 182.664 84.6 184.168 84.2 185.56C83.816 186.936 83.272 188.192 82.568 189.328C81.864 190.464 80.96 191.464 79.856 192.328C79.712 192.088 79.52 191.832 79.28 191.56C79.056 191.288 78.816 191.024 78.56 190.768C78.32 190.528 78.08 190.328 77.84 190.168C78.848 189.4 79.664 188.52 80.288 187.528C80.912 186.52 81.392 185.408 81.728 184.192C82.064 182.96 82.296 181.616 82.424 180.16C82.552 178.688 82.624 177.112 82.64 175.432C82.656 173.736 82.664 171.928 82.664 170.008Z" fill="white"/>
<g clip-path="url(#clip0_1236_609)">
<g clip-path="url(#clip1_1236_609)">
<path d="M41.7917 121.382C41.2001 121.382 40.6085 121.159 40.1615 120.712L23.2421 103.792C22.3481 102.898 22.3481 101.439 23.2421 100.545L38.8075 84.9796L23.1763 69.3484C22.2824 68.4545 22.2824 66.9952 23.1763 66.1013L38.3079 50.9697L23.3998 36.0616C22.9528 35.6278 22.7162 35.0231 22.7294 34.392C22.7294 33.7742 23.0054 33.1826 23.4656 32.7487L40.0564 17.2491C40.9898 16.3814 42.4359 16.434 43.3035 17.3542C44.1712 18.2876 44.1186 19.7337 43.1984 20.6014L28.3429 34.4709L43.1984 49.3264C44.0923 50.2204 44.0923 51.6796 43.1984 52.5736L28.0668 67.7051L43.6979 83.3363C44.5919 84.2302 44.5919 85.6895 43.6979 86.5834L28.1325 102.149L43.4219 117.438C44.3158 118.332 44.3158 119.791 43.4219 120.685C42.9749 121.132 42.3833 121.356 41.7917 121.356V121.382Z" fill="white"/>
<path d="M64.8366 121.382C64.245 121.382 63.6534 121.159 63.2065 120.712L46.287 103.792C45.8531 103.358 45.6165 102.78 45.6165 102.162C45.6165 101.544 45.8531 100.966 46.287 100.532L61.8524 84.9664L46.2213 69.3353C45.3273 68.4413 45.3273 66.982 46.2213 66.0881L61.3528 50.9565L46.4447 36.0485C45.9978 35.6146 45.7611 35.0099 45.7743 34.3789C45.7743 33.761 46.0503 33.1694 46.5105 32.7355L63.1013 17.2359C64.0347 16.3682 65.4808 16.4208 66.3485 17.3411C67.2161 18.2745 67.1635 19.7206 66.2433 20.5882L51.3878 34.4577L66.2433 49.3132C67.1372 50.2072 67.1372 51.6664 66.2433 52.5604L51.1117 67.692L66.7429 83.3231C67.6368 84.217 67.6368 85.6763 66.7429 86.5702L51.1775 102.136L66.4799 117.425C67.3739 118.319 67.3739 119.778 66.4799 120.672C66.0329 121.119 65.4414 121.343 64.8498 121.343L64.8366 121.382Z" fill="white"/>
<path d="M87.8698 121.382C87.2782 121.382 86.6866 121.159 86.2397 120.712L69.3202 103.792C68.8864 103.358 68.6497 102.78 68.6497 102.162C68.6497 101.544 68.8864 100.966 69.3202 100.532L84.8856 84.9664L69.2545 69.3353C68.3605 68.4413 68.3605 66.982 69.2545 66.0881L84.386 50.9565L69.4779 36.0485C69.031 35.6146 68.7943 35.0099 68.8075 34.3789C68.8075 33.761 69.0836 33.1694 69.5437 32.7355L86.1345 17.2359C87.0679 16.3682 88.514 16.4208 89.3817 17.3411C90.2493 18.2745 90.1968 19.7206 89.2765 20.5882L74.421 34.4577L89.2765 49.3132C90.1705 50.2072 90.1705 51.6664 89.2765 52.5604L74.1449 67.692L89.7761 83.3231C90.67 84.217 90.67 85.6763 89.7761 86.5702L74.2107 102.136L89.5131 117.425C90.4071 118.319 90.4071 119.778 89.5131 120.672C89.0661 121.119 88.4746 121.343 87.883 121.343L87.8698 121.382Z" fill="white"/>
<path d="M110.915 121.382C110.323 121.382 109.732 121.159 109.285 120.712L92.3651 103.792C91.9313 103.358 91.6946 102.78 91.6946 102.162C91.6946 101.544 91.9313 100.966 92.3651 100.532L107.931 84.9664L92.2994 69.3353C91.4054 68.4413 91.4054 66.982 92.2994 66.0881L107.431 50.9565L92.5229 36.0485C92.0759 35.6146 91.8393 35.0099 91.8524 34.3789C91.8524 33.761 92.1285 33.1694 92.5886 32.7355L109.179 17.2359C110.113 16.3682 111.559 16.4208 112.427 17.3411C113.294 18.2745 113.242 19.7206 112.321 20.5882L97.4659 34.4577L112.321 49.3132C112.755 49.7471 112.992 50.3255 112.992 50.9434C112.992 51.5613 112.755 52.1397 112.321 52.5735L97.1899 67.7051L112.821 83.3362C113.715 84.2302 113.715 85.6894 112.821 86.5834L97.2556 102.149L112.558 117.438C113.452 118.332 113.452 119.791 112.558 120.685C112.111 121.132 111.519 121.356 110.928 121.356L110.915 121.382Z" fill="white"/>
</g>
</g>
<rect x="16" y="153" width="104" height="54" rx="27" fill="url(#paint1_linear_1236_609)"/>
<path d="M54.224 170.632H66.608V173.128H54.224V170.632ZM56.72 174.928H65.96V177.28H56.72V174.928ZM54.896 179.2H66.992V181.624H54.896V179.2ZM53.12 170.632H55.784V177.712C55.784 178.768 55.744 179.92 55.664 181.168C55.6 182.4 55.456 183.672 55.232 184.984C55.024 186.296 54.712 187.568 54.296 188.8C53.88 190.016 53.328 191.12 52.64 192.112C52.496 191.936 52.288 191.736 52.016 191.512C51.744 191.304 51.464 191.096 51.176 190.888C50.904 190.696 50.664 190.552 50.456 190.456C51.08 189.544 51.568 188.552 51.92 187.48C52.288 186.392 52.552 185.28 52.712 184.144C52.888 183.008 53 181.896 53.048 180.808C53.096 179.704 53.12 178.672 53.12 177.712V170.632ZM56.552 180.784H59.096V189.88L56.552 190.096V180.784ZM54.704 189.256C55.664 189.112 56.792 188.92 58.088 188.68C59.4 188.44 60.736 188.192 62.096 187.936L62.336 190.216C61.104 190.472 59.88 190.728 58.664 190.984C57.448 191.24 56.328 191.48 55.304 191.704L54.704 189.256ZM65.264 182.08L67.16 183.88C66.504 184.408 65.832 184.944 65.144 185.488C64.456 186.016 63.824 186.456 63.248 186.808L61.832 185.32C62.2 185.048 62.592 184.728 63.008 184.36C63.424 183.992 63.832 183.608 64.232 183.208C64.648 182.792 64.992 182.416 65.264 182.08ZM62.48 180.76C62.688 182.152 62.984 183.44 63.368 184.624C63.768 185.808 64.312 186.84 65 187.72C65.688 188.6 66.56 189.28 67.616 189.76C67.408 189.936 67.192 190.16 66.968 190.432C66.744 190.704 66.528 190.992 66.32 191.296C66.128 191.6 65.96 191.872 65.816 192.112C64.616 191.472 63.632 190.624 62.864 189.568C62.112 188.496 61.512 187.248 61.064 185.824C60.632 184.4 60.296 182.808 60.056 181.048L62.48 180.76ZM44.504 181.672C45.464 181.464 46.608 181.184 47.936 180.832C49.28 180.48 50.632 180.112 51.992 179.728L52.352 182.32C51.12 182.688 49.872 183.056 48.608 183.424C47.36 183.792 46.2 184.128 45.128 184.432L44.504 181.672ZM44.888 174.16H52.232V176.8H44.888V174.16ZM47.408 169.624H50.048V189.112C50.048 189.768 49.976 190.288 49.832 190.672C49.704 191.072 49.456 191.384 49.088 191.608C48.736 191.832 48.288 191.984 47.744 192.064C47.216 192.144 46.552 192.176 45.752 192.16C45.72 191.808 45.632 191.368 45.488 190.84C45.344 190.328 45.184 189.88 45.008 189.496C45.456 189.512 45.864 189.528 46.232 189.544C46.616 189.544 46.88 189.536 47.024 189.52C47.168 189.52 47.264 189.496 47.312 189.448C47.376 189.384 47.408 189.272 47.408 189.112V169.624ZM79.616 174.832H89.048V177.592H79.616V174.832ZM87.56 174.832H90.368C90.368 174.832 90.368 174.912 90.368 175.072C90.368 175.232 90.36 175.416 90.344 175.624C90.344 175.832 90.344 176 90.344 176.128C90.296 178.56 90.232 180.632 90.152 182.344C90.088 184.04 90.008 185.44 89.912 186.544C89.816 187.648 89.696 188.52 89.552 189.16C89.408 189.784 89.24 190.232 89.048 190.504C88.76 190.92 88.464 191.208 88.16 191.368C87.856 191.544 87.488 191.672 87.056 191.752C86.672 191.816 86.192 191.848 85.616 191.848C85.04 191.864 84.44 191.856 83.816 191.824C83.8 191.408 83.712 190.936 83.552 190.408C83.392 189.88 83.192 189.416 82.952 189.016C83.528 189.064 84.056 189.096 84.536 189.112C85.016 189.112 85.384 189.112 85.64 189.112C85.848 189.112 86.016 189.088 86.144 189.04C86.272 188.976 86.4 188.872 86.528 188.728C86.672 188.536 86.792 188.168 86.888 187.624C87 187.064 87.096 186.272 87.176 185.248C87.256 184.208 87.32 182.888 87.368 181.288C87.432 179.672 87.496 177.72 87.56 175.432V174.832ZM82.328 170.032H85.184C85.184 171.904 85.16 173.72 85.112 175.48C85.08 177.224 84.984 178.896 84.824 180.496C84.664 182.096 84.408 183.6 84.056 185.008C83.704 186.416 83.224 187.72 82.616 188.92C82.024 190.12 81.248 191.192 80.288 192.136C80.144 191.88 79.944 191.608 79.688 191.32C79.448 191.048 79.192 190.784 78.92 190.528C78.648 190.272 78.392 190.072 78.152 189.928C79.016 189.096 79.712 188.152 80.24 187.096C80.784 186.04 81.192 184.88 81.464 183.616C81.752 182.352 81.952 181 82.064 179.56C82.192 178.12 82.264 176.608 82.28 175.024C82.312 173.424 82.328 171.76 82.328 170.032ZM69.464 171.472H78.896V173.992H69.464V171.472ZM68.672 177.04H79.328V179.656H68.672V177.04ZM75.56 181.816L77.888 181.192C78.176 181.848 78.464 182.568 78.752 183.352C79.056 184.12 79.336 184.872 79.592 185.608C79.848 186.344 80.04 186.984 80.168 187.528L77.672 188.32C77.56 187.776 77.392 187.128 77.168 186.376C76.944 185.624 76.688 184.848 76.4 184.048C76.128 183.248 75.848 182.504 75.56 181.816ZM69.704 189.544L69.416 187.12L70.64 186.208L78.416 184.384C78.432 184.752 78.48 185.176 78.56 185.656C78.656 186.136 78.744 186.52 78.824 186.808C77.368 187.192 76.144 187.52 75.152 187.792C74.16 188.048 73.336 188.272 72.68 188.464C72.04 188.64 71.528 188.792 71.144 188.92C70.76 189.048 70.456 189.16 70.232 189.256C70.024 189.336 69.848 189.432 69.704 189.544ZM69.68 189.52C69.648 189.344 69.576 189.096 69.464 188.776C69.368 188.456 69.256 188.136 69.128 187.816C69 187.48 68.88 187.192 68.768 186.952C69.008 186.872 69.216 186.696 69.392 186.424C69.584 186.152 69.776 185.8 69.968 185.368C70.064 185.144 70.192 184.792 70.352 184.312C70.528 183.816 70.712 183.24 70.904 182.584C71.096 181.912 71.288 181.2 71.48 180.448C71.672 179.68 71.824 178.92 71.936 178.168L74.768 178.96C74.544 180.016 74.256 181.088 73.904 182.176C73.552 183.248 73.168 184.288 72.752 185.296C72.352 186.288 71.952 187.184 71.552 187.984V188.056C71.552 188.056 71.456 188.104 71.264 188.2C71.072 188.296 70.856 188.424 70.616 188.584C70.376 188.744 70.16 188.912 69.968 189.088C69.776 189.248 69.68 189.392 69.68 189.52Z" fill="white"/>
<g clip-path="url(#clip2_1236_609)">
<g clip-path="url(#clip3_1236_609)">
<path d="M41.7917 121.382C41.2001 121.382 40.6085 121.159 40.1615 120.712L23.2421 103.792C22.3481 102.898 22.3481 101.439 23.2421 100.545L38.8075 84.9796L23.1763 69.3484C22.2824 68.4545 22.2824 66.9952 23.1763 66.1013L38.3079 50.9697L23.3998 36.0616C22.9528 35.6278 22.7162 35.0231 22.7294 34.392C22.7294 33.7742 23.0054 33.1826 23.4656 32.7487L40.0564 17.2491C40.9898 16.3814 42.4359 16.434 43.3035 17.3542C44.1712 18.2876 44.1186 19.7337 43.1984 20.6014L28.3429 34.4709L43.1984 49.3264C44.0923 50.2204 44.0923 51.6796 43.1984 52.5736L28.0668 67.7051L43.6979 83.3363C44.5919 84.2302 44.5919 85.6895 43.6979 86.5834L28.1325 102.149L43.4219 117.438C44.3158 118.332 44.3158 119.791 43.4219 120.685C42.9749 121.132 42.3833 121.356 41.7917 121.356V121.382Z" fill="white"/>
<path d="M64.8366 121.382C64.245 121.382 63.6534 121.159 63.2065 120.712L46.287 103.792C45.8531 103.358 45.6165 102.78 45.6165 102.162C45.6165 101.544 45.8531 100.966 46.287 100.532L61.8524 84.9664L46.2213 69.3353C45.3273 68.4413 45.3273 66.982 46.2213 66.0881L61.3528 50.9565L46.4447 36.0485C45.9978 35.6146 45.7611 35.0099 45.7743 34.3789C45.7743 33.761 46.0503 33.1694 46.5105 32.7355L63.1013 17.2359C64.0347 16.3682 65.4808 16.4208 66.3485 17.3411C67.2161 18.2745 67.1635 19.7206 66.2433 20.5882L51.3878 34.4577L66.2433 49.3132C67.1372 50.2072 67.1372 51.6664 66.2433 52.5604L51.1117 67.692L66.7429 83.3231C67.6368 84.217 67.6368 85.6763 66.7429 86.5702L51.1775 102.136L66.4799 117.425C67.3739 118.319 67.3739 119.778 66.4799 120.672C66.0329 121.119 65.4414 121.343 64.8498 121.343L64.8366 121.382Z" fill="white"/>
<path d="M87.8698 121.382C87.2782 121.382 86.6866 121.159 86.2397 120.712L69.3202 103.792C68.8864 103.358 68.6497 102.78 68.6497 102.162C68.6497 101.544 68.8864 100.966 69.3202 100.532L84.8856 84.9664L69.2545 69.3353C68.3605 68.4413 68.3605 66.982 69.2545 66.0881L84.386 50.9565L69.4779 36.0485C69.031 35.6146 68.7943 35.0099 68.8075 34.3789C68.8075 33.761 69.0836 33.1694 69.5437 32.7355L86.1345 17.2359C87.0679 16.3682 88.514 16.4208 89.3817 17.3411C90.2493 18.2745 90.1968 19.7206 89.2765 20.5882L74.421 34.4577L89.2765 49.3132C90.1705 50.2072 90.1705 51.6664 89.2765 52.5604L74.1449 67.692L89.7761 83.3231C90.67 84.217 90.67 85.6763 89.7761 86.5702L74.2107 102.136L89.5131 117.425C90.4071 118.319 90.4071 119.778 89.5131 120.672C89.0661 121.119 88.4746 121.343 87.883 121.343L87.8698 121.382Z" fill="white"/>
<path d="M110.915 121.382C110.323 121.382 109.732 121.159 109.285 120.712L92.3651 103.792C91.9313 103.358 91.6946 102.78 91.6946 102.162C91.6946 101.544 91.9313 100.966 92.3651 100.532L107.931 84.9664L92.2994 69.3353C91.4054 68.4413 91.4054 66.982 92.2994 66.0881L107.431 50.9565L92.5229 36.0485C92.0759 35.6146 91.8393 35.0099 91.8524 34.3789C91.8524 33.761 92.1285 33.1694 92.5886 32.7355L109.179 17.2359C110.113 16.3682 111.559 16.4208 112.427 17.3411C113.294 18.2745 113.242 19.7206 112.321 20.5882L97.4659 34.4577L112.321 49.3132C112.755 49.7471 112.992 50.3255 112.992 50.9434C112.992 51.5613 112.755 52.1397 112.321 52.5735L97.1899 67.7051L112.821 83.3362C113.715 84.2302 113.715 85.6894 112.821 86.5834L97.2556 102.149L112.558 117.438C113.452 118.332 113.452 119.791 112.558 120.685C112.111 121.132 111.519 121.356 110.928 121.356L110.915 121.382Z" fill="white"/>
</g>
</g>
<path d="M254.834 68.9999H313.167M284.001 39.8333V98.1666" stroke="white" stroke-width="4" stroke-linecap="round" stroke-linejoin="round"/>
<path d="M1131 39C1130.49 39 1129.97 39.1947 1129.58 39.5725C1128.81 40.3282 1128.81 41.5648 1129.58 42.3205L1156.18 68.1975L1129.97 93.6852C1129.19 94.4409 1129.19 95.6775 1129.97 96.4332C1130.75 97.1889 1132.02 97.1889 1132.8 96.4332L1160.42 69.5716C1161.19 68.8159 1161.19 67.5792 1160.42 66.8235L1132.41 39.5726C1132.02 39.1947 1131.5 39.0001 1131 39.0001L1131 39Z" fill="white"/>
<path d="M1167 39C1166.49 39 1165.97 39.1947 1165.58 39.5725C1164.81 40.3282 1164.81 41.5648 1165.58 42.3205L1192.18 68.1975L1165.97 93.6852C1165.19 94.4409 1165.19 95.6775 1165.97 96.4332C1166.75 97.1889 1168.02 97.1889 1168.8 96.4332L1196.42 69.5716C1197.19 68.8159 1197.19 67.5792 1196.42 66.8235L1168.41 39.5726C1168.02 39.1947 1167.5 39.0001 1167 39.0001L1167 39Z" fill="white"/>
<path d="M691 55.5H741M691 80.5H741" stroke="white" stroke-width="4" stroke-linecap="round" stroke-linejoin="round"/>
<g clip-path="url(#clip4_1236_609)">
<path d="M504.976 24.8081C502.846 23.8747 500.453 24.2823 498.757 25.873L473.832 49.037C473.595 49.2605 473.293 49.3788 472.964 49.3788H449.787C446.579 49.3788 443.963 51.995 443.963 55.2027V82.7971C443.963 86.0048 446.579 88.621 449.787 88.621H472.977C473.293 88.621 473.608 88.7393 473.845 88.9628L498.77 112.127C499.875 113.152 501.255 113.678 502.662 113.678C503.437 113.678 504.226 113.52 504.989 113.192C507.118 112.258 508.446 110.234 508.446 107.907V30.093C508.446 27.7661 507.118 25.7415 504.989 24.8081H504.976ZM503.898 107.907C503.898 108.63 503.385 108.932 503.161 109.024C502.938 109.116 502.373 109.287 501.834 108.801L476.908 85.6367C475.83 84.6376 474.423 84.0854 472.951 84.0854H449.787C449.077 84.0854 448.498 83.507 448.498 82.7971V55.2027C448.498 54.4928 449.077 53.9144 449.787 53.9144H472.977C474.45 53.9144 475.856 53.3622 476.934 52.3631L501.86 29.199C502.386 28.7126 502.964 28.8835 503.188 28.9755C503.411 29.0676 503.924 29.3699 503.924 30.093V107.907H503.898Z" fill="white"/>
<path d="M553.75 71.3073H519.846C518.57 71.3073 517.545 70.2819 517.545 69.0067C517.545 67.7315 518.57 66.7061 519.846 66.7061H553.75C555.025 66.7061 556.051 67.7315 556.051 69.0067C556.051 70.2819 555.025 71.3073 553.75 71.3073Z" fill="white"/>
<path d="M519.846 50.6146C521.095 49.3657 543.825 26.6355 543.825 26.6355L519.846 50.6146Z" fill="white"/>
<path d="M519.846 52.9154C519.254 52.9154 518.662 52.6919 518.215 52.2449C517.321 51.3509 517.321 49.8917 518.215 48.9977C519.464 47.7488 542.195 25.0317 542.195 25.0317L545.442 28.2789C545.442 28.2789 522.711 51.0091 521.463 52.258C521.016 52.705 520.424 52.9285 519.832 52.9285L519.846 52.9154Z" fill="white"/>
<path d="M519.846 87.3853L543.825 111.364L519.846 87.3853Z" fill="white"/>
<path d="M543.811 113.665C543.219 113.665 542.628 113.442 542.181 112.995L518.202 89.0155C517.308 88.1216 517.308 86.6623 518.202 85.7684C519.096 84.8744 520.555 84.8744 521.449 85.7684L545.428 109.747C546.322 110.641 546.322 112.101 545.428 112.995C544.981 113.442 544.389 113.665 543.798 113.665H543.811Z" fill="white"/>
</g>
<rect x="448" y="153" width="104" height="54" rx="27" fill="url(#paint2_linear_1236_609)"/>
<path d="M477.44 171.424H498.512V173.848H477.44V171.424ZM479 175.336H497.408V177.736H479V175.336ZM481.208 183.928H495.08V186.352H481.208V183.928ZM481.256 179.08H497.072V187.648H494.168V181.408H481.256V179.08ZM479.384 179.08H482.24V182.08C482.24 182.848 482.192 183.68 482.096 184.576C482 185.472 481.824 186.384 481.568 187.312C481.312 188.224 480.952 189.112 480.488 189.976C480.024 190.824 479.424 191.592 478.688 192.28C478.544 192.088 478.336 191.864 478.064 191.608C477.792 191.352 477.504 191.104 477.2 190.864C476.912 190.624 476.664 190.44 476.456 190.312C477.336 189.512 477.984 188.624 478.4 187.648C478.816 186.672 479.08 185.704 479.192 184.744C479.32 183.768 479.384 182.872 479.384 182.056V179.08ZM486.488 169.6H489.392V176.608H486.488V169.6ZM486.56 179.872H489.368V185.44H486.56V179.872ZM509.456 172.768H520.472V175.432H509.456V172.768ZM509.504 178.768H519.464V181.312H509.504V178.768ZM513.464 169.576H516.296V180.208H513.464V169.576ZM507.92 172.768H510.68V178.936C510.68 179.912 510.64 180.976 510.56 182.128C510.496 183.264 510.36 184.424 510.152 185.608C509.944 186.792 509.648 187.944 509.264 189.064C508.88 190.184 508.36 191.192 507.704 192.088C507.544 191.944 507.312 191.776 507.008 191.584C506.72 191.392 506.416 191.208 506.096 191.032C505.792 190.872 505.52 190.752 505.28 190.672C505.888 189.824 506.368 188.904 506.72 187.912C507.072 186.92 507.336 185.896 507.512 184.84C507.688 183.784 507.8 182.752 507.848 181.744C507.896 180.736 507.92 179.792 507.92 178.912V172.768ZM519.8 172.768H520.232L520.712 172.672L522.824 173.152C522.536 174.08 522.216 175.016 521.864 175.96C521.528 176.888 521.192 177.68 520.856 178.336L518.36 177.64C518.616 177.064 518.872 176.36 519.128 175.528C519.4 174.68 519.624 173.888 519.8 173.152V172.768ZM512.792 180.424C513.336 181.88 514.072 183.224 515 184.456C515.944 185.688 517.072 186.744 518.384 187.624C519.712 188.504 521.208 189.184 522.872 189.664C522.664 189.872 522.44 190.12 522.2 190.408C521.96 190.696 521.736 190.992 521.528 191.296C521.32 191.6 521.152 191.88 521.024 192.136C518.352 191.224 516.144 189.824 514.4 187.936C512.672 186.048 511.312 183.776 510.32 181.12L512.792 180.424ZM501.584 171.856L503.216 169.744C503.664 169.968 504.152 170.224 504.68 170.512C505.224 170.784 505.744 171.064 506.24 171.352C506.752 171.64 507.176 171.904 507.512 172.144L505.808 174.472C505.52 174.232 505.128 173.952 504.632 173.632C504.136 173.312 503.616 173 503.072 172.696C502.544 172.376 502.048 172.096 501.584 171.856ZM500.192 178.384L501.776 176.248C502.224 176.44 502.72 176.672 503.264 176.944C503.824 177.216 504.36 177.488 504.872 177.76C505.384 178.032 505.808 178.28 506.144 178.504L504.488 180.904C504.184 180.664 503.784 180.392 503.288 180.088C502.792 179.784 502.264 179.48 501.704 179.176C501.16 178.872 500.656 178.608 500.192 178.384ZM500.648 190.168C501.032 189.544 501.448 188.816 501.896 187.984C502.36 187.136 502.824 186.24 503.288 185.296C503.752 184.336 504.184 183.384 504.584 182.44L506.84 184.168C506.488 185.032 506.112 185.912 505.712 186.808C505.312 187.688 504.896 188.56 504.464 189.424C504.048 190.272 503.632 191.088 503.216 191.872L500.648 190.168ZM518.456 178.768H519.008L519.512 178.672L521.312 179.44C520.768 181.68 519.984 183.64 518.96 185.32C517.936 186.984 516.72 188.384 515.312 189.52C513.92 190.656 512.392 191.544 510.728 192.184C510.6 191.96 510.432 191.688 510.224 191.368C510.016 191.064 509.792 190.768 509.552 190.48C509.312 190.192 509.088 189.96 508.88 189.784C510.48 189.256 511.92 188.52 513.2 187.576C514.496 186.632 515.592 185.48 516.488 184.12C517.4 182.744 518.056 181.136 518.456 179.296V178.768Z" fill="white"/>
<g clip-path="url(#clip5_1236_609)">
<path d="M900.395 120.382C899.804 120.382 899.212 120.159 898.765 119.712L881.846 102.792C881.412 102.358 881.175 101.78 881.175 101.162C881.175 100.544 881.412 99.9656 881.846 99.5318L897.411 83.9664L881.78 68.3353C880.886 67.4413 880.886 65.982 881.78 65.0881L896.911 49.9565L882.003 35.0485C881.556 34.6146 881.32 34.0099 881.333 33.3789C881.333 32.761 881.609 32.1694 882.069 31.7355L898.66 16.2359C899.593 15.3682 901.039 15.4208 901.907 16.3411C902.775 17.2745 902.722 18.7206 901.802 19.5882L886.946 33.4577L901.802 48.3132C902.696 49.2072 902.696 50.6664 901.802 51.5604L886.67 66.692L902.301 82.3231C903.195 83.217 903.195 84.6763 902.301 85.5702L886.736 101.136L902.039 116.425C902.932 117.319 902.932 118.778 902.039 119.672C901.592 120.119 901 120.343 900.408 120.343L900.395 120.382Z" fill="white"/>
<path d="M923.44 120.382C922.849 120.382 922.257 120.159 921.81 119.712L904.89 102.792C904.457 102.358 904.22 101.78 904.22 101.162C904.22 100.544 904.457 99.9656 904.89 99.5318L920.456 83.9664L904.825 68.3353C903.931 67.4413 903.931 65.982 904.825 65.0881L919.956 49.9565L905.048 35.0485C904.601 34.6146 904.365 34.0099 904.378 33.3789C904.378 32.761 904.654 32.1694 905.114 31.7355L921.705 16.2359C922.638 15.3682 924.084 15.4208 924.952 16.3411C925.82 17.2745 925.767 18.7206 924.847 19.5882L909.991 33.4577L924.847 48.3132C925.741 49.2072 925.741 50.6664 924.847 51.5604L909.715 66.692L925.346 82.3231C926.24 83.217 926.24 84.6763 925.346 85.5702L909.781 101.136L925.083 116.425C925.977 117.319 925.977 118.778 925.083 119.672C924.636 120.119 924.045 120.343 923.453 120.343L923.44 120.382Z" fill="white"/>
<path d="M946.473 120.382C945.882 120.382 945.29 120.159 944.843 119.712L927.924 102.792C927.49 102.358 927.253 101.78 927.253 101.162C927.253 100.544 927.49 99.9656 927.924 99.5318L943.489 83.9664L927.858 68.3353C926.964 67.4413 926.964 65.982 927.858 65.0881L942.99 49.9565L928.081 35.0485C927.634 34.6146 927.398 34.0099 927.411 33.3789C927.411 32.761 927.687 32.1694 928.147 31.7355L944.738 16.2359C945.671 15.3682 947.118 15.4208 947.985 16.3411C948.853 17.2745 948.8 18.7206 947.88 19.5882L933.025 33.4577L947.88 48.3132C948.314 48.7471 948.55 49.3255 948.55 49.9434C948.55 50.5613 948.314 51.1397 947.88 51.5735L932.748 66.7051L948.38 82.3362C949.274 83.2302 949.274 84.6894 948.38 85.5834L932.814 101.149L948.117 116.438C949.011 117.332 949.011 118.791 948.117 119.685C947.67 120.132 947.078 120.356 946.486 120.356L946.473 120.382Z" fill="white"/>
<path d="M994.59 70.3073H960.685C959.41 70.3073 958.385 69.2819 958.385 68.0067C958.385 66.7315 959.41 65.7061 960.685 65.7061H994.59C995.865 65.7061 996.891 66.7315 996.891 68.0067C996.891 69.2819 995.865 70.3073 994.59 70.3073Z" fill="white"/>
<path d="M960.686 49.6146C961.934 48.3657 984.665 25.6355 984.665 25.6355L960.686 49.6146Z" fill="white"/>
<path d="M960.685 51.9154C960.094 51.9154 959.502 51.6919 959.055 51.2449C958.161 50.3509 958.161 48.8917 959.055 47.9977L983.021 24.0317L986.268 27.2789C986.268 27.2789 963.538 50.0091 962.289 51.258C961.842 51.705 961.251 51.9285 960.659 51.9285L960.685 51.9154Z" fill="white"/>
<path d="M960.686 86.3853L984.665 110.364L960.686 86.3853Z" fill="white"/>
<path d="M984.651 112.665C984.059 112.665 983.468 112.442 983.021 111.995L959.042 88.0155C958.148 87.1216 958.148 85.6623 959.042 84.7684C959.936 83.8744 961.395 83.8744 962.289 84.7684L986.268 108.747C987.162 109.641 987.162 111.101 986.268 111.995C985.821 112.442 985.229 112.665 984.638 112.665H984.651Z" fill="white"/>
</g>
<rect x="864" y="152" width="151" height="54" rx="27" fill="url(#paint3_linear_1236_609)"/>
<path d="M893.66 170.424H914.732V172.848H893.66V170.424ZM895.22 174.336H913.628V176.736H895.22V174.336ZM897.428 182.928H911.3V185.352H897.428V182.928ZM897.476 178.08H913.292V186.648H910.388V180.408H897.476V178.08ZM895.604 178.08H898.46V181.08C898.46 181.848 898.412 182.68 898.316 183.576C898.22 184.472 898.044 185.384 897.788 186.312C897.532 187.224 897.172 188.112 896.708 188.976C896.244 189.824 895.644 190.592 894.908 191.28C894.764 191.088 894.556 190.864 894.284 190.608C894.012 190.352 893.724 190.104 893.42 189.864C893.132 189.624 892.884 189.44 892.676 189.312C893.556 188.512 894.204 187.624 894.62 186.648C895.036 185.672 895.3 184.704 895.412 183.744C895.54 182.768 895.604 181.872 895.604 181.056V178.08ZM902.708 168.6H905.612V175.608H902.708V168.6ZM902.78 178.872H905.588V184.44H902.78V178.872ZM925.676 171.768H936.692V174.432H925.676V171.768ZM925.724 177.768H935.684V180.312H925.724V177.768ZM929.684 168.576H932.516V179.208H929.684V168.576ZM924.14 171.768H926.9V177.936C926.9 178.912 926.86 179.976 926.78 181.128C926.716 182.264 926.58 183.424 926.372 184.608C926.164 185.792 925.868 186.944 925.484 188.064C925.1 189.184 924.58 190.192 923.924 191.088C923.764 190.944 923.532 190.776 923.228 190.584C922.94 190.392 922.636 190.208 922.316 190.032C922.012 189.872 921.74 189.752 921.5 189.672C922.108 188.824 922.588 187.904 922.94 186.912C923.292 185.92 923.556 184.896 923.732 183.84C923.908 182.784 924.02 181.752 924.068 180.744C924.116 179.736 924.14 178.792 924.14 177.912V171.768ZM936.02 171.768H936.452L936.932 171.672L939.044 172.152C938.756 173.08 938.436 174.016 938.084 174.96C937.748 175.888 937.412 176.68 937.076 177.336L934.58 176.64C934.836 176.064 935.092 175.36 935.348 174.528C935.62 173.68 935.844 172.888 936.02 172.152V171.768ZM929.012 179.424C929.556 180.88 930.292 182.224 931.22 183.456C932.164 184.688 933.292 185.744 934.604 186.624C935.932 187.504 937.428 188.184 939.092 188.664C938.884 188.872 938.66 189.12 938.42 189.408C938.18 189.696 937.956 189.992 937.748 190.296C937.54 190.6 937.372 190.88 937.244 191.136C934.572 190.224 932.364 188.824 930.62 186.936C928.892 185.048 927.532 182.776 926.54 180.12L929.012 179.424ZM917.804 170.856L919.436 168.744C919.884 168.968 920.372 169.224 920.9 169.512C921.444 169.784 921.964 170.064 922.46 170.352C922.972 170.64 923.396 170.904 923.732 171.144L922.028 173.472C921.74 173.232 921.348 172.952 920.852 172.632C920.356 172.312 919.836 172 919.292 171.696C918.764 171.376 918.268 171.096 917.804 170.856ZM916.412 177.384L917.996 175.248C918.444 175.44 918.94 175.672 919.484 175.944C920.044 176.216 920.58 176.488 921.092 176.76C921.604 177.032 922.028 177.28 922.364 177.504L920.708 179.904C920.404 179.664 920.004 179.392 919.508 179.088C919.012 178.784 918.484 178.48 917.924 178.176C917.38 177.872 916.876 177.608 916.412 177.384ZM916.868 189.168C917.252 188.544 917.668 187.816 918.116 186.984C918.58 186.136 919.044 185.24 919.508 184.296C919.972 183.336 920.404 182.384 920.804 181.44L923.06 183.168C922.708 184.032 922.332 184.912 921.932 185.808C921.532 186.688 921.116 187.56 920.684 188.424C920.268 189.272 919.852 190.088 919.436 190.872L916.868 189.168ZM934.676 177.768H935.228L935.732 177.672L937.532 178.44C936.988 180.68 936.204 182.64 935.18 184.32C934.156 185.984 932.94 187.384 931.532 188.52C930.14 189.656 928.612 190.544 926.948 191.184C926.82 190.96 926.652 190.688 926.444 190.368C926.236 190.064 926.012 189.768 925.772 189.48C925.532 189.192 925.308 188.96 925.1 188.784C926.7 188.256 928.14 187.52 929.42 186.576C930.716 185.632 931.812 184.48 932.708 183.12C933.62 181.744 934.276 180.136 934.676 178.296V177.768ZM949.484 169.632H961.868V172.128H949.484V169.632ZM951.98 173.928H961.22V176.28H951.98V173.928ZM950.156 178.2H962.252V180.624H950.156V178.2ZM948.38 169.632H951.044V176.712C951.044 177.768 951.004 178.92 950.924 180.168C950.86 181.4 950.716 182.672 950.492 183.984C950.284 185.296 949.972 186.568 949.556 187.8C949.14 189.016 948.588 190.12 947.9 191.112C947.756 190.936 947.548 190.736 947.276 190.512C947.004 190.304 946.724 190.096 946.436 189.888C946.164 189.696 945.924 189.552 945.716 189.456C946.34 188.544 946.828 187.552 947.18 186.48C947.548 185.392 947.812 184.28 947.972 183.144C948.148 182.008 948.26 180.896 948.308 179.808C948.356 178.704 948.38 177.672 948.38 176.712V169.632ZM951.812 179.784H954.356V188.88L951.812 189.096V179.784ZM949.964 188.256C950.924 188.112 952.052 187.92 953.348 187.68C954.66 187.44 955.996 187.192 957.356 186.936L957.596 189.216C956.364 189.472 955.14 189.728 953.924 189.984C952.708 190.24 951.588 190.48 950.564 190.704L949.964 188.256ZM960.524 181.08L962.42 182.88C961.764 183.408 961.092 183.944 960.404 184.488C959.716 185.016 959.084 185.456 958.508 185.808L957.092 184.32C957.46 184.048 957.852 183.728 958.268 183.36C958.684 182.992 959.092 182.608 959.492 182.208C959.908 181.792 960.252 181.416 960.524 181.08ZM957.74 179.76C957.948 181.152 958.244 182.44 958.628 183.624C959.028 184.808 959.572 185.84 960.26 186.72C960.948 187.6 961.82 188.28 962.876 188.76C962.668 188.936 962.452 189.16 962.228 189.432C962.004 189.704 961.788 189.992 961.58 190.296C961.388 190.6 961.22 190.872 961.076 191.112C959.876 190.472 958.892 189.624 958.124 188.568C957.372 187.496 956.772 186.248 956.324 184.824C955.892 183.4 955.556 181.808 955.316 180.048L957.74 179.76ZM939.764 180.672C940.724 180.464 941.868 180.184 943.196 179.832C944.54 179.48 945.892 179.112 947.252 178.728L947.612 181.32C946.38 181.688 945.132 182.056 943.868 182.424C942.62 182.792 941.46 183.128 940.388 183.432L939.764 180.672ZM940.148 173.16H947.492V175.8H940.148V173.16ZM942.668 168.624H945.308V188.112C945.308 188.768 945.236 189.288 945.092 189.672C944.964 190.072 944.716 190.384 944.348 190.608C943.996 190.832 943.548 190.984 943.004 191.064C942.476 191.144 941.812 191.176 941.012 191.16C940.98 190.808 940.892 190.368 940.748 189.84C940.604 189.328 940.444 188.88 940.268 188.496C940.716 188.512 941.124 188.528 941.492 188.544C941.876 188.544 942.14 188.536 942.284 188.52C942.428 188.52 942.524 188.496 942.572 188.448C942.636 188.384 942.668 188.272 942.668 188.112V168.624ZM974.876 173.832H984.308V176.592H974.876V173.832ZM982.82 173.832H985.628C985.628 173.832 985.628 173.912 985.628 174.072C985.628 174.232 985.62 174.416 985.604 174.624C985.604 174.832 985.604 175 985.604 175.128C985.556 177.56 985.492 179.632 985.412 181.344C985.348 183.04 985.268 184.44 985.172 185.544C985.076 186.648 984.956 187.52 984.812 188.16C984.668 188.784 984.5 189.232 984.308 189.504C984.02 189.92 983.724 190.208 983.42 190.368C983.116 190.544 982.748 190.672 982.316 190.752C981.932 190.816 981.452 190.848 980.876 190.848C980.3 190.864 979.7 190.856 979.076 190.824C979.06 190.408 978.972 189.936 978.812 189.408C978.652 188.88 978.452 188.416 978.212 188.016C978.788 188.064 979.316 188.096 979.796 188.112C980.276 188.112 980.644 188.112 980.9 188.112C981.108 188.112 981.276 188.088 981.404 188.04C981.532 187.976 981.66 187.872 981.788 187.728C981.932 187.536 982.052 187.168 982.148 186.624C982.26 186.064 982.356 185.272 982.436 184.248C982.516 183.208 982.58 181.888 982.628 180.288C982.692 178.672 982.756 176.72 982.82 174.432V173.832ZM977.588 169.032H980.444C980.444 170.904 980.42 172.72 980.372 174.48C980.34 176.224 980.244 177.896 980.084 179.496C979.924 181.096 979.668 182.6 979.316 184.008C978.964 185.416 978.484 186.72 977.876 187.92C977.284 189.12 976.508 190.192 975.548 191.136C975.404 190.88 975.204 190.608 974.948 190.32C974.708 190.048 974.452 189.784 974.18 189.528C973.908 189.272 973.652 189.072 973.412 188.928C974.276 188.096 974.972 187.152 975.5 186.096C976.044 185.04 976.452 183.88 976.724 182.616C977.012 181.352 977.212 180 977.324 178.56C977.452 177.12 977.524 175.608 977.54 174.024C977.572 172.424 977.588 170.76 977.588 169.032ZM964.724 170.472H974.156V172.992H964.724V170.472ZM963.932 176.04H974.588V178.656H963.932V176.04ZM970.82 180.816L973.148 180.192C973.436 180.848 973.724 181.568 974.012 182.352C974.316 183.12 974.596 183.872 974.852 184.608C975.108 185.344 975.3 185.984 975.428 186.528L972.932 187.32C972.82 186.776 972.652 186.128 972.428 185.376C972.204 184.624 971.948 183.848 971.66 183.048C971.388 182.248 971.108 181.504 970.82 180.816ZM964.964 188.544L964.676 186.12L965.9 185.208L973.676 183.384C973.692 183.752 973.74 184.176 973.82 184.656C973.916 185.136 974.004 185.52 974.084 185.808C972.628 186.192 971.404 186.52 970.412 186.792C969.42 187.048 968.596 187.272 967.94 187.464C967.3 187.64 966.788 187.792 966.404 187.92C966.02 188.048 965.716 188.16 965.492 188.256C965.284 188.336 965.108 188.432 964.964 188.544ZM964.94 188.52C964.908 188.344 964.836 188.096 964.724 187.776C964.628 187.456 964.516 187.136 964.388 186.816C964.26 186.48 964.14 186.192 964.028 185.952C964.268 185.872 964.476 185.696 964.652 185.424C964.844 185.152 965.036 184.8 965.228 184.368C965.324 184.144 965.452 183.792 965.612 183.312C965.788 182.816 965.972 182.24 966.164 181.584C966.356 180.912 966.548 180.2 966.74 179.448C966.932 178.68 967.084 177.92 967.196 177.168L970.028 177.96C969.804 179.016 969.516 180.088 969.164 181.176C968.812 182.248 968.428 183.288 968.012 184.296C967.612 185.288 967.212 186.184 966.812 186.984V187.056C966.812 187.056 966.716 187.104 966.524 187.2C966.332 187.296 966.116 187.424 965.876 187.584C965.636 187.744 965.42 187.912 965.228 188.088C965.036 188.248 964.94 188.392 964.94 188.52Z" fill="white"/>
<g clip-path="url(#clip6_1236_609)">
<path d="M1396.08 126.784C1395.97 126.784 1395.83 126.784 1395.72 126.745C1394.65 126.548 1393.94 125.509 1394.15 124.444L1396.51 112.021C1396.7 110.956 1397.75 110.246 1398.81 110.456C1399.87 110.654 1400.58 111.692 1400.37 112.757L1398.02 125.18C1397.83 126.127 1397 126.784 1396.08 126.784Z" fill="white"/>
<path d="M1352.74 126.784C1352.54 126.784 1352.35 126.758 1352.14 126.692C1351.1 126.364 1350.53 125.246 1350.86 124.221C1354.73 112.126 1353.9 104.856 1347.71 96.4291C1343.6 90.7236 1338.17 81.876 1338.17 70.8198C1338.17 59.7637 1342.97 48.3789 1351.35 40.5962C1359.84 32.7083 1370.91 28.8301 1382.54 29.6846C1403 31.1965 1419.35 47.5638 1420.59 67.783C1420.65 68.8742 1420.62 70.0179 1420.46 71.4772C1420.33 72.7261 1420.79 73.7647 1421.36 75.0924L1426.65 87.2529C1427.18 88.4624 1427.06 89.8296 1426.36 90.9339C1425.69 91.9988 1424.55 92.6692 1423.3 92.7613L1418.46 93.5369C1418.46 93.5369 1418.37 93.5895 1418.35 93.6421L1416.75 109.286C1416.46 112.336 1414.02 114.663 1410.94 114.821C1405.46 115.11 1401.47 114.952 1398.07 114.321C1394.7 113.69 1391.75 112.586 1388.18 110.627C1387.22 110.101 1386.88 108.905 1387.41 107.945C1387.93 106.999 1389.13 106.644 1390.09 107.17C1393.27 108.918 1395.87 109.891 1398.81 110.443C1401.89 111.022 1405.59 111.153 1410.74 110.89C1411.85 110.838 1412.73 109.996 1412.82 108.905L1414.42 93.2477C1414.59 91.4203 1416 89.9348 1417.82 89.6324L1422.77 88.8436C1422.85 88.8436 1422.94 88.8173 1423.02 88.8173L1417.74 76.67C1417.05 75.1056 1416.29 73.3308 1416.53 71.0565C1416.66 69.8207 1416.7 68.8873 1416.64 68.0197C1415.54 49.7724 1400.75 34.9826 1382.24 33.6154C1371.74 32.8398 1361.71 36.3499 1354.03 43.4752C1346.46 50.5086 1342.12 60.4736 1342.12 70.8067C1342.12 78.3528 1344.9 85.7542 1350.9 94.1022C1357.87 103.581 1358.88 112.06 1354.62 125.404C1354.36 126.245 1353.58 126.771 1352.74 126.771V126.784Z" fill="white"/>
<path d="M1379.01 24.4392C1377.91 24.4392 1377.03 23.5584 1377.03 22.4672V11.1875C1377.03 10.0964 1377.91 9.21558 1379.01 9.21558C1380.1 9.21558 1380.98 10.0964 1380.98 11.1875V22.4672C1380.98 23.5584 1380.1 24.4392 1379.01 24.4392Z" fill="white"/>
<path d="M1362.77 27.3051C1361.97 27.3051 1361.21 26.8056 1360.92 26.0036L1357.06 15.4076C1356.7 14.3822 1357.22 13.2516 1358.25 12.8835C1359.26 12.5154 1360.4 13.0412 1360.77 14.0667L1364.62 24.6627C1364.99 25.6881 1364.47 26.8187 1363.44 27.1868C1363.22 27.2657 1362.99 27.3051 1362.77 27.3051Z" fill="white"/>
<path d="M1348.49 35.5479C1347.93 35.5479 1347.38 35.3113 1346.98 34.838L1339.74 26.2008C1339.04 25.3725 1339.15 24.1236 1339.99 23.4269C1340.81 22.7301 1342.06 22.8353 1342.76 23.6766L1350 32.3139C1350.7 33.1421 1350.6 34.391 1349.75 35.0878C1349.39 35.4033 1348.94 35.5479 1348.49 35.5479Z" fill="white"/>
<path d="M1337.88 48.1817C1337.56 48.1817 1337.21 48.1028 1336.9 47.9188L1327.13 42.2789C1326.18 41.7399 1325.87 40.5305 1326.41 39.5839C1326.95 38.6374 1328.16 38.3219 1329.1 38.8609L1338.87 44.5007C1339.82 45.0397 1340.13 46.2492 1339.59 47.1957C1339.22 47.8267 1338.57 48.1817 1337.88 48.1817Z" fill="white"/>
<path d="M1395.24 27.3051C1395.02 27.3051 1394.8 27.2657 1394.57 27.1868C1393.55 26.8187 1393.02 25.6881 1393.39 24.6627L1397.24 14.0667C1397.61 13.0412 1398.75 12.5154 1399.76 12.8835C1400.79 13.2516 1401.32 14.3822 1400.95 15.4076L1397.1 26.0036C1396.81 26.8056 1396.04 27.3051 1395.24 27.3051Z" fill="white"/>
<path d="M1409.52 35.548C1409.07 35.548 1408.62 35.3902 1408.26 35.0879C1407.43 34.3911 1407.31 33.1422 1408.01 32.314L1415.25 23.6767C1415.95 22.8485 1417.2 22.7302 1418.02 23.427C1418.85 24.1237 1418.97 25.3726 1418.27 26.2009L1411.03 34.8381C1410.64 35.2982 1410.08 35.548 1409.52 35.548Z" fill="white"/>
<path d="M1420.11 48.1817C1419.43 48.1817 1418.77 47.8267 1418.41 47.1957C1417.87 46.2492 1418.18 45.0528 1419.13 44.5007L1428.9 38.8608C1429.84 38.3087 1431.04 38.6374 1431.59 39.5839C1432.13 40.5304 1431.81 41.7268 1430.87 42.2789L1421.1 47.9188C1420.78 48.1028 1420.46 48.1817 1420.11 48.1817Z" fill="white"/>
<path d="M1397.92 52.4675C1397.07 52.4675 1396.28 51.9022 1396.03 51.0477C1394.65 46.2492 1389.85 43.0415 1384.63 43.4622C1380.99 43.7514 1378.03 45.5261 1376.32 48.471C1375.77 49.4175 1374.56 49.733 1373.63 49.1809C1372.68 48.6287 1372.37 47.4324 1372.92 46.4858C1375.27 42.4367 1379.44 39.9126 1384.33 39.5314C1391.42 38.9792 1397.92 43.3701 1399.83 49.9565C1400.13 51.0082 1399.53 52.0994 1398.47 52.4017C1398.29 52.4543 1398.11 52.4806 1397.92 52.4806V52.4675Z" fill="white"/>
<path d="M1399.21 71.8715C1398.32 71.8715 1397.5 71.2537 1397.29 70.3466C1397.04 69.2817 1397.7 68.23 1398.76 67.9802C1402.46 67.1125 1405.29 62.1563 1405 58.7119C1404.72 55.4516 1401.67 52.8223 1397.75 52.4674C1396.66 52.3622 1395.87 51.4025 1395.96 50.3245C1396.07 49.2334 1397.04 48.4446 1398.11 48.5366C1403.94 49.0625 1408.49 53.2036 1408.93 58.3833C1409.36 63.4973 1405.4 70.478 1399.67 71.8321C1399.51 71.8715 1399.37 71.8847 1399.22 71.8847L1399.21 71.8715Z" fill="white"/>
<path d="M1361.38 78.9969C1354.62 78.9969 1350.42 73.4754 1349.35 67.9407C1348.19 62.0379 1350.36 54.8074 1357.83 52.8617C1358.88 52.5856 1359.96 53.2167 1360.23 54.2684C1360.51 55.3201 1359.88 56.3981 1358.83 56.6742C1353.79 57.9888 1352.38 62.9056 1353.21 67.1914C1354.07 71.5691 1357.3 75.684 1362.57 74.9872C1363.65 74.8557 1364.65 75.6051 1364.78 76.6831C1364.91 77.7611 1364.16 78.7602 1363.08 78.8917C1362.49 78.9706 1361.91 79.01 1361.36 79.01L1361.38 78.9969Z" fill="white"/>
<path d="M1358.29 56.7399C1357.32 56.7399 1356.47 56.0169 1356.34 55.0309C1356.26 54.413 1356.21 53.782 1356.21 53.1641C1356.21 49.5751 1358.49 45.9861 1362.31 43.5672C1367.28 40.412 1373.46 39.9256 1378.45 42.2657C1379.44 42.7258 1379.86 43.909 1379.4 44.895C1378.94 45.881 1377.76 46.3016 1376.77 45.8415C1372.25 43.7118 1367.44 44.987 1364.43 46.8932C1361.76 48.5891 1360.15 50.9292 1360.15 53.1641C1360.15 53.6111 1360.18 54.058 1360.25 54.505C1360.39 55.583 1359.63 56.5822 1358.55 56.7268C1358.46 56.7268 1358.38 56.7399 1358.29 56.7399Z" fill="white"/>
<path d="M1356.36 91.3676C1356.36 91.3676 1356.29 91.3676 1356.25 91.3676C1355.16 91.3151 1354.33 90.3817 1354.38 89.2905C1354.8 81.4815 1359.35 75.868 1363.63 74.3561C1364.32 74.1064 1365.02 73.9223 1365.73 73.7908C1366.79 73.5805 1367.83 74.3036 1368.03 75.3684C1368.23 76.4333 1367.52 77.4718 1366.45 77.669C1365.95 77.7611 1365.44 77.8925 1364.94 78.0766C1362.4 78.9837 1358.67 83.1248 1358.31 89.514C1358.26 90.5657 1357.38 91.3808 1356.34 91.3808L1356.36 91.3676Z" fill="white"/>
<path d="M1364.22 68.7558C1363.15 68.7558 1362.28 67.9144 1362.24 66.8364C1362.22 65.7452 1363.07 64.8381 1364.16 64.8118C1366.27 64.7461 1368.04 63.1554 1368.37 61.0257C1368.57 59.7242 1368.2 58.4358 1367.36 57.463C1366.64 56.6479 1366.71 55.399 1367.54 54.6759C1368.36 53.9529 1369.61 54.0449 1370.33 54.86C1371.95 56.7005 1372.66 59.172 1372.29 61.6173C1371.67 65.6269 1368.31 68.6243 1364.3 68.7426C1364.28 68.7426 1364.26 68.7426 1364.24 68.7426L1364.22 68.7558Z" fill="white"/>
<path d="M1374.72 71.1485C1373.09 71.1485 1371.47 70.5832 1370.18 69.4789C1368.08 67.6909 1367.3 64.9039 1368.11 62.0117C1368.4 60.96 1369.49 60.3421 1370.54 60.6445C1371.59 60.9337 1372.21 62.0248 1371.91 63.0765C1371.38 64.9828 1372.2 66.0345 1372.73 66.4946C1373.63 67.2571 1374.9 67.428 1375.97 66.9416C1376.97 66.4946 1378.12 66.9285 1378.58 67.9144C1379.04 68.9004 1378.61 70.0705 1377.61 70.5306C1376.69 70.9513 1375.69 71.1616 1374.71 71.1616L1374.72 71.1485Z" fill="white"/>
<path d="M1385.42 63.2606C1385.28 63.2606 1385.13 63.2475 1384.99 63.208C1383.92 62.9714 1383.25 61.9065 1383.5 60.8548C1383.83 59.3955 1382.94 57.8706 1381.36 57.2264C1380.36 56.8188 1379.27 56.832 1378.35 57.279C1377.36 57.7391 1376.19 57.3184 1375.72 56.3324C1375.26 55.3464 1375.68 54.1764 1376.67 53.7031C1378.59 52.796 1380.85 52.7566 1382.86 53.5717C1386.22 54.9389 1388.12 58.3701 1387.35 61.7093C1387.14 62.6296 1386.33 63.2475 1385.43 63.2475L1385.42 63.2606Z" fill="white"/>
<path d="M1385.58 58.541C1384.44 58.541 1383.25 58.2386 1382.11 57.6207C1381.15 57.0949 1380.79 55.8985 1381.32 54.952C1381.85 53.9923 1383.04 53.6373 1383.99 54.1632C1385.05 54.7416 1386.12 54.7548 1386.88 54.1763C1387.5 53.7162 1387.79 52.9932 1387.64 52.2701C1387.42 51.2052 1388.1 50.1667 1389.18 49.9432C1390.25 49.7197 1391.28 50.4033 1391.51 51.4813C1391.97 53.7162 1391.1 55.9643 1389.23 57.3446C1388.16 58.1466 1386.89 58.5541 1385.58 58.5541V58.541Z" fill="white"/>
<path d="M1363.72 93.8131C1363.72 93.8131 1363.64 93.8131 1363.6 93.8131C1362.51 93.7473 1361.68 92.8139 1361.74 91.7228C1362.26 83.3354 1368.84 78.1294 1378.97 78.1294H1380.6C1384.22 78.1294 1390.3 78.1294 1391.77 78.1425C1393.91 78.182 1397.63 77.6955 1398.24 74.0671C1398.41 73.0548 1398.21 72.1609 1397.66 71.4247C1396.9 70.3861 1395.45 69.6631 1393.7 69.4264C1392.55 69.3475 1391.35 69.6762 1390.57 70.373C1390.22 70.6885 1389.79 71.2143 1389.75 71.9505C1389.69 73.0417 1388.73 73.8436 1387.67 73.8173C1386.58 73.7647 1385.75 72.8313 1385.8 71.7402C1385.89 70.0969 1386.66 68.5588 1387.96 67.4019C1389.55 65.9952 1391.73 65.3247 1394.1 65.4956C1397.06 65.89 1399.41 67.1521 1400.82 69.0715C1402.01 70.6885 1402.46 72.6342 1402.1 74.7113C1401.33 79.3388 1397.54 82.0864 1391.97 82.0864C1391.88 82.0864 1391.77 82.0864 1391.68 82.0864C1390.23 82.0602 1383.95 82.0602 1380.57 82.0733H1378.94C1371 82.0733 1366.03 85.7675 1365.66 91.9726C1365.6 93.0243 1364.73 93.8262 1363.69 93.8262L1363.72 93.8131Z" fill="white"/>
<path d="M1358.33 56.7268C1357.42 56.7268 1356.62 56.1089 1356.41 55.1887C1356.17 54.1238 1356.83 53.0721 1357.89 52.8355C1359.34 52.5068 1360.27 52.4016 1361.65 52.4279C1362.74 52.4542 1363.61 53.3482 1363.59 54.4393C1363.56 55.5305 1362.65 56.4113 1361.57 56.3719C1360.55 56.3456 1359.88 56.4244 1358.76 56.6742C1358.62 56.7137 1358.47 56.7268 1358.33 56.7268Z" fill="white"/>
<path d="M1398.08 57.187C1397.98 57.187 1397.86 57.187 1397.75 57.1607C1396.67 56.9767 1395.95 55.9644 1396.14 54.8864C1396.37 53.4797 1396.41 52.5463 1396 50.9951C1395.73 49.9433 1396.36 48.8653 1397.41 48.5893C1398.46 48.3132 1399.54 48.9442 1399.82 49.9959C1400.4 52.1914 1400.32 53.7558 1400.01 55.5437C1399.86 56.5034 1399.01 57.187 1398.07 57.187H1398.08Z" fill="white"/>
</g>
<rect x="1315" y="152" width="128" height="54" rx="27" fill="url(#paint4_linear_1236_609)"/>
<path d="M1355.43 177.888L1357.26 176.496C1357.82 177.104 1358.39 177.76 1358.98 178.464C1359.59 179.168 1360.18 179.88 1360.74 180.6C1361.31 181.32 1361.83 182.016 1362.3 182.688C1362.76 183.36 1363.14 183.976 1363.45 184.536L1361.41 186.168C1361.14 185.608 1360.78 184.984 1360.33 184.296C1359.88 183.608 1359.38 182.896 1358.84 182.16C1358.3 181.408 1357.73 180.672 1357.14 179.952C1356.56 179.216 1355.99 178.528 1355.43 177.888ZM1360.54 174.816L1362.94 175.344C1362.54 176.848 1362.05 178.312 1361.46 179.736C1360.88 181.144 1360.22 182.456 1359.49 183.672C1358.77 184.888 1357.98 185.944 1357.11 186.84C1357 186.68 1356.83 186.48 1356.61 186.24C1356.4 186 1356.18 185.76 1355.96 185.52C1355.74 185.264 1355.54 185.064 1355.36 184.92C1356.58 183.752 1357.62 182.28 1358.5 180.504C1359.38 178.712 1360.06 176.816 1360.54 174.816ZM1352.62 171.936H1366.35V174.648H1352.62V171.936ZM1353.1 176.088H1355.74V187.464H1365.01V190.128H1353.1V176.088ZM1363.14 176.064H1365.78V191.112H1363.14V176.064ZM1356.78 169.416L1359.34 168.552C1359.7 169.096 1360.06 169.712 1360.42 170.4C1360.81 171.072 1361.1 171.656 1361.31 172.152L1358.58 173.136C1358.42 172.64 1358.15 172.048 1357.78 171.36C1357.43 170.656 1357.1 170.008 1356.78 169.416ZM1346.1 169.464H1351.26V171.696H1346.1V169.464ZM1349.65 169.464H1352.05V188.136C1352.05 188.712 1351.99 189.184 1351.88 189.552C1351.77 189.936 1351.54 190.232 1351.21 190.44C1350.86 190.648 1350.45 190.784 1349.98 190.848C1349.54 190.912 1348.98 190.944 1348.33 190.944C1348.31 190.592 1348.22 190.168 1348.06 189.672C1347.92 189.192 1347.77 188.784 1347.61 188.448C1347.96 188.464 1348.3 188.48 1348.62 188.496C1348.95 188.496 1349.18 188.496 1349.31 188.496C1349.54 188.48 1349.65 188.352 1349.65 188.112V169.464ZM1345.26 169.464H1347.73V178.32C1347.73 179.264 1347.7 180.304 1347.66 181.44C1347.62 182.56 1347.54 183.704 1347.42 184.872C1347.29 186.04 1347.1 187.176 1346.86 188.28C1346.64 189.368 1346.34 190.36 1345.95 191.256C1345.82 191.096 1345.62 190.904 1345.35 190.68C1345.1 190.456 1344.83 190.24 1344.56 190.032C1344.3 189.84 1344.08 189.704 1343.89 189.624C1344.32 188.536 1344.62 187.344 1344.8 186.048C1344.99 184.736 1345.11 183.408 1345.16 182.064C1345.22 180.704 1345.26 179.464 1345.26 178.344V169.464ZM1345.88 175.128H1350.92V177.456H1345.88V175.128ZM1345.83 180.6H1350.87V183H1345.83V180.6ZM1368.06 171.216H1380.49V173.784H1368.06V171.216ZM1373.02 168.816H1375.66V191.088H1373.02V168.816ZM1377.78 175.512H1380.27V180.12C1380.27 180.632 1380.22 181.048 1380.1 181.368C1380.01 181.688 1379.79 181.944 1379.46 182.136C1379.14 182.328 1378.76 182.448 1378.33 182.496C1377.9 182.528 1377.39 182.544 1376.82 182.544C1376.78 182.192 1376.7 181.816 1376.58 181.416C1376.45 181 1376.31 180.632 1376.17 180.312C1376.46 180.328 1376.73 180.336 1376.98 180.336C1377.24 180.336 1377.41 180.328 1377.49 180.312C1377.6 180.312 1377.67 180.296 1377.7 180.264C1377.75 180.232 1377.78 180.168 1377.78 180.072V175.512ZM1373.22 180.6L1375.11 181.512C1374.63 182.552 1374.06 183.608 1373.41 184.68C1372.75 185.752 1372.03 186.752 1371.25 187.68C1370.48 188.608 1369.68 189.384 1368.85 190.008C1368.7 189.608 1368.5 189.16 1368.22 188.664C1367.97 188.152 1367.72 187.72 1367.48 187.368C1368.25 186.856 1369 186.232 1369.74 185.496C1370.47 184.76 1371.14 183.968 1371.75 183.12C1372.36 182.256 1372.85 181.416 1373.22 180.6ZM1375.23 182.424C1375.46 182.536 1375.75 182.696 1376.12 182.904C1376.49 183.112 1376.88 183.352 1377.3 183.624C1377.73 183.88 1378.15 184.144 1378.57 184.416C1379 184.672 1379.38 184.912 1379.72 185.136C1380.07 185.344 1380.33 185.504 1380.49 185.616L1378.98 188.112C1378.67 187.824 1378.3 187.496 1377.85 187.128C1377.4 186.76 1376.92 186.376 1376.41 185.976C1375.91 185.576 1375.43 185.208 1374.97 184.872C1374.5 184.52 1374.1 184.232 1373.77 184.008L1375.23 182.424ZM1368.68 175.512H1378.69V177.984H1371.15V182.304H1368.68V175.512ZM1381.54 171.192H1384.26V184.752H1381.54V171.192ZM1386.61 169.104H1389.42V187.704C1389.42 188.52 1389.32 189.144 1389.13 189.576C1388.95 190.008 1388.63 190.336 1388.17 190.56C1387.7 190.8 1387.1 190.952 1386.37 191.016C1385.65 191.096 1384.77 191.136 1383.73 191.136C1383.7 190.864 1383.63 190.552 1383.54 190.2C1383.44 189.848 1383.33 189.488 1383.2 189.12C1383.07 188.768 1382.94 188.464 1382.79 188.208C1383.5 188.224 1384.15 188.24 1384.76 188.256C1385.38 188.256 1385.81 188.256 1386.03 188.256C1386.24 188.256 1386.38 188.216 1386.46 188.136C1386.56 188.056 1386.61 187.912 1386.61 187.704V169.104ZM1399.81 175.896V177.072H1403.05V175.896H1399.81ZM1399.81 172.872V174.024H1403.05V172.872H1399.81ZM1397.53 170.88H1405.45V179.064H1397.53V170.88ZM1396.78 180.528H1406.05V182.88H1396.78V180.528ZM1407.46 172.968H1413.85V175.56H1407.46V172.968ZM1399.81 183.96H1403.89V186.24H1399.81V183.96ZM1400.05 178.824H1402.74V181.704H1400.05V178.824ZM1400.26 168.576L1403.31 168.888C1403.09 169.56 1402.86 170.208 1402.62 170.832C1402.39 171.44 1402.19 171.96 1402.02 172.392L1399.54 172.008C1399.67 171.512 1399.81 170.952 1399.95 170.328C1400.1 169.688 1400.2 169.104 1400.26 168.576ZM1402.81 183.96H1405.33C1405.33 183.96 1405.32 184.072 1405.3 184.296C1405.3 184.52 1405.3 184.704 1405.28 184.848C1405.23 185.936 1405.18 186.848 1405.14 187.584C1405.09 188.304 1405.02 188.872 1404.92 189.288C1404.82 189.704 1404.7 190.016 1404.54 190.224C1404.34 190.448 1404.14 190.608 1403.91 190.704C1403.69 190.816 1403.43 190.896 1403.14 190.944C1402.9 190.992 1402.58 191.016 1402.18 191.016C1401.8 191.032 1401.38 191.032 1400.94 191.016C1400.92 190.664 1400.85 190.272 1400.72 189.84C1400.61 189.408 1400.47 189.048 1400.31 188.76C1400.65 188.792 1400.94 188.816 1401.2 188.832C1401.46 188.832 1401.65 188.832 1401.78 188.832C1402.05 188.832 1402.25 188.76 1402.38 188.616C1402.46 188.504 1402.52 188.296 1402.57 187.992C1402.62 187.688 1402.66 187.24 1402.69 186.648C1402.74 186.056 1402.78 185.272 1402.81 184.296V183.96ZM1410.37 174.6L1412.91 174.768C1412.69 177.328 1412.32 179.64 1411.81 181.704C1411.31 183.752 1410.62 185.568 1409.72 187.152C1408.84 188.736 1407.68 190.088 1406.24 191.208C1406.13 191.048 1405.94 190.856 1405.69 190.632C1405.45 190.408 1405.19 190.176 1404.92 189.936C1404.66 189.712 1404.45 189.528 1404.27 189.384C1405.66 188.44 1406.78 187.256 1407.61 185.832C1408.44 184.408 1409.07 182.752 1409.5 180.864C1409.94 178.976 1410.22 176.888 1410.37 174.6ZM1408.16 174.816C1408.3 176.016 1408.5 177.288 1408.76 178.632C1409.02 179.96 1409.37 181.272 1409.82 182.568C1410.26 183.848 1410.84 185.04 1411.54 186.144C1412.26 187.232 1413.13 188.144 1414.14 188.88C1413.96 189.04 1413.76 189.248 1413.54 189.504C1413.31 189.776 1413.09 190.056 1412.86 190.344C1412.66 190.648 1412.5 190.912 1412.38 191.136C1411.36 190.288 1410.5 189.264 1409.79 188.064C1409.1 186.864 1408.53 185.584 1408.06 184.224C1407.62 182.848 1407.26 181.48 1407.01 180.12C1406.75 178.744 1406.55 177.464 1406.41 176.28L1408.16 174.816ZM1392.15 170.928L1393.78 168.84C1394.22 169.016 1394.67 169.24 1395.15 169.512C1395.63 169.768 1396.09 170.04 1396.52 170.328C1396.95 170.6 1397.3 170.864 1397.58 171.12L1395.85 173.4C1395.61 173.144 1395.28 172.864 1394.86 172.56C1394.45 172.256 1394 171.96 1393.52 171.672C1393.04 171.384 1392.58 171.136 1392.15 170.928ZM1391.22 177.288L1392.82 175.176C1393.27 175.352 1393.74 175.56 1394.22 175.8C1394.7 176.04 1395.15 176.296 1395.58 176.568C1396.02 176.84 1396.37 177.104 1396.64 177.36L1394.94 179.664C1394.7 179.408 1394.37 179.136 1393.95 178.848C1393.54 178.56 1393.09 178.28 1392.61 178.008C1392.13 177.736 1391.66 177.496 1391.22 177.288ZM1391.58 189.432C1391.9 188.792 1392.23 188.056 1392.58 187.224C1392.95 186.376 1393.32 185.48 1393.69 184.536C1394.06 183.576 1394.4 182.624 1394.72 181.68L1397.02 183.192C1396.75 184.04 1396.46 184.912 1396.14 185.808C1395.83 186.688 1395.51 187.56 1395.18 188.424C1394.84 189.288 1394.51 190.112 1394.19 190.896L1391.58 189.432ZM1407.13 168.576L1409.79 169.032C1409.58 170.52 1409.31 171.984 1408.98 173.424C1408.64 174.848 1408.24 176.192 1407.78 177.456C1407.31 178.704 1406.77 179.792 1406.14 180.72C1406.02 180.544 1405.83 180.32 1405.59 180.048C1405.37 179.776 1405.13 179.504 1404.87 179.232C1404.63 178.96 1404.42 178.744 1404.22 178.584C1404.75 177.784 1405.2 176.856 1405.57 175.8C1405.94 174.728 1406.25 173.576 1406.5 172.344C1406.78 171.112 1406.98 169.856 1407.13 168.576ZM1399.09 182.088H1401.49V183.552C1401.49 184.096 1401.45 184.704 1401.37 185.376C1401.29 186.032 1401.11 186.712 1400.84 187.416C1400.57 188.12 1400.18 188.808 1399.66 189.48C1399.17 190.168 1398.5 190.792 1397.67 191.352C1397.45 191.096 1397.14 190.808 1396.76 190.488C1396.39 190.184 1396.06 189.92 1395.75 189.696C1396.49 189.2 1397.08 188.672 1397.53 188.112C1397.98 187.552 1398.31 187 1398.54 186.456C1398.76 185.896 1398.9 185.36 1398.97 184.848C1399.05 184.32 1399.09 183.856 1399.09 183.456V182.088Z" fill="white"/>
<defs>
<linearGradient id="paint0_linear_1236_609" x1="120" y1="180" x2="16" y2="180" gradientUnits="userSpaceOnUse">
<stop stop-color="#56387E"/>
<stop offset="1" stop-color="#23295B"/>
</linearGradient>
<linearGradient id="paint1_linear_1236_609" x1="120" y1="180" x2="16" y2="180" gradientUnits="userSpaceOnUse">
<stop stop-color="#56387E"/>
<stop offset="1" stop-color="#23295B"/>
</linearGradient>
<linearGradient id="paint2_linear_1236_609" x1="552" y1="180" x2="448" y2="180" gradientUnits="userSpaceOnUse">
<stop stop-color="#56387E"/>
<stop offset="1" stop-color="#23295B"/>
</linearGradient>
<linearGradient id="paint3_linear_1236_609" x1="1015" y1="179" x2="864" y2="179" gradientUnits="userSpaceOnUse">
<stop stop-color="#56387E"/>
<stop offset="1" stop-color="#23295B"/>
</linearGradient>
<linearGradient id="paint4_linear_1236_609" x1="1443" y1="179" x2="1315" y2="179" gradientUnits="userSpaceOnUse">
<stop stop-color="#56387E"/>
<stop offset="1" stop-color="#23295B"/>
</linearGradient>
<clipPath id="clip0_1236_609">
<rect width="136" height="136" fill="white" transform="translate(0 1)"/>
</clipPath>
<clipPath id="clip1_1236_609">
<rect width="136" height="136" fill="white" transform="translate(0 1)"/>
</clipPath>
<clipPath id="clip2_1236_609">
<rect width="136" height="136" fill="white" transform="translate(0 1)"/>
</clipPath>
<clipPath id="clip3_1236_609">
<rect width="136" height="136" fill="white" transform="translate(0 1)"/>
</clipPath>
<clipPath id="clip4_1236_609">
<rect width="136" height="136" fill="white" transform="translate(432 1)"/>
</clipPath>
<clipPath id="clip5_1236_609">
<rect width="136" height="136" fill="white" transform="translate(871)"/>
</clipPath>
<clipPath id="clip6_1236_609">
<rect width="136" height="136" fill="white" transform="translate(1311)"/>
</clipPath>
</defs>
</svg>
