<svg width="880" height="772" viewBox="0 0 880 772" fill="none" xmlns="http://www.w3.org/2000/svg">
<rect width="880" height="772" rx="24" fill="white"/>
<path d="M827 254.458H147.334V255.29H827V254.458Z" fill="#3B3C3C"/>
<path d="M827 284.096H147.334V284.928H827V284.096Z" fill="#3B3C3C"/>
<path d="M827 313.734H147.334V314.567H827V313.734Z" fill="#3B3C3C"/>
<path d="M827 343.373H147.334V344.205H827V343.373Z" fill="#3B3C3C"/>
<path d="M827 373.008H147.334V373.84H827V373.008Z" fill="#3B3C3C"/>
<path d="M827 402.646H147.334V403.478H827V402.646Z" fill="#3B3C3C"/>
<path d="M827 432.285H147.334V433.117H827V432.285Z" fill="#3B3C3C"/>
<path d="M827 461.923H147.334V462.755H827V461.923Z" fill="#3B3C3C"/>
<path d="M827 491.558H147.334V492.39H827V491.558Z" fill="#3B3C3C"/>
<path d="M800.667 483.789C800.644 483.789 800.62 483.789 800.6 483.789L777.665 482.87H729.905L708.764 480.813L685.846 478.813L663.108 479.525L640.069 478.819L616.904 474.895L594.133 473.304L572.598 469.359L548.38 469.386C548.17 469.386 547.963 469.346 547.765 469.269L523.394 459.673L502.153 455.059L479.144 448.961L456.293 444.174C456.113 444.138 455.939 444.068 455.779 443.971L432.844 430.247C432.64 430.124 432.466 429.964 432.333 429.768L409.398 396.831C409.278 396.661 409.194 396.471 409.144 396.272L388.587 311.068L365.148 293.18L343.239 319.07C342.951 319.413 342.537 319.622 342.09 319.656C341.635 319.682 341.201 319.543 340.864 319.253L318.874 300.213L295.138 315.395L248.483 372.911C248.262 373.184 247.962 373.377 247.624 373.47L205.025 385.071L182.294 399.011C182.03 399.171 181.729 399.257 181.419 399.257C181.422 399.257 159.202 399.257 158.52 399.271C157.478 399.191 156.837 398.558 156.817 397.643C156.797 396.724 157.525 395.965 158.444 395.942C158.978 395.932 177.163 395.929 180.944 395.929L203.478 382.108C203.615 382.025 203.759 381.962 203.912 381.918L246.225 370.395L292.713 313.088C292.826 312.948 292.96 312.829 293.11 312.735L318.129 296.735C318.751 296.338 319.566 296.395 320.127 296.878L341.779 315.628L363.622 289.814C364.196 289.135 365.205 289.025 365.916 289.565L391.093 308.778C391.397 309.011 391.61 309.337 391.701 309.71L412.324 395.183L434.875 427.568L457.258 440.962L479.919 445.709L502.941 451.81L524.37 456.487L548.704 466.044H572.905L594.557 469.992L617.308 471.579L640.407 475.501L663.115 476.183L685.943 475.477L709.075 477.484L730.072 479.535L777.736 479.528L800.737 480.447C801.659 480.484 802.377 481.259 802.337 482.178C802.301 483.073 801.562 483.776 800.67 483.776L800.667 483.789Z" fill="#AA6EFF"/>
<path d="M800.517 478.05C800.433 478.05 800.347 478.044 800.26 478.03L779.92 474.901L731.863 474.921C731.749 474.921 731.635 474.911 731.525 474.888L687.907 465.914L641.723 464.852C641.536 464.849 641.352 464.812 641.175 464.746L596.07 447.889L549.362 434.302C549.015 434.202 548.711 433.992 548.494 433.703L524.109 401.355C524.012 401.225 523.935 401.082 523.879 400.932L502.407 342.95L479.99 355.995L457.873 380.198C457.329 380.79 456.447 380.91 455.762 380.494L433.251 366.693C433.071 366.58 432.911 366.437 432.784 366.264L409.408 334.728L388.437 339.724L366.154 365.029L344.201 392.224C343.98 392.5 343.676 392.697 343.336 392.787L319.676 399.158L296.928 412.196L275.724 421.1L251.386 429.249C251.195 429.312 251.008 429.359 250.798 429.332L226.6 428.516L204.504 430.484L179.615 434.342C179.361 434.382 179.097 434.358 178.853 434.282L157.979 427.668C157.101 427.388 156.613 426.453 156.894 425.577C157.174 424.698 158.12 424.213 158.992 424.495L179.491 430.993L204.1 427.182L226.51 425.198L250.611 425.997L274.548 417.988L295.452 409.22L318.203 396.165C318.33 396.095 318.463 396.039 318.6 396.002L341.946 389.714L363.605 362.889L386.286 337.135C386.513 336.875 386.817 336.692 387.155 336.612L409.715 331.236C410.367 331.083 411.048 331.329 411.449 331.865L435.289 364.027L456.347 376.935L477.702 353.565C477.815 353.438 477.949 353.332 478.096 353.249L502.454 339.075C502.878 338.826 503.396 338.782 503.86 338.945C504.324 339.112 504.692 339.475 504.862 339.934L526.938 399.55L550.842 431.263L597.136 444.734L642.094 461.53L688.294 462.622L732.043 471.596H780.184L800.781 474.745C801.693 474.885 802.317 475.734 802.177 476.642C802.05 477.464 801.339 478.054 800.527 478.054L800.517 478.05Z" fill="#6777FF"/>
<path d="M163.469 397.607H153.498V428.83H163.469V397.607Z" fill="#202858"/>
<path d="M186.405 397.607H176.434V432.701H186.405V397.607Z" fill="#202858"/>
<path d="M209.338 383.54H199.367V428.83H209.338V383.54Z" fill="#202858"/>
<path d="M232.274 377.365H222.303V428.83H232.274V377.365Z" fill="#202858"/>
<path d="M255.209 371.873H245.238V428.83H255.209V371.873Z" fill="#202858"/>
<path d="M278.143 344.947H268.172V421.114H278.143V344.947Z" fill="#202858"/>
<path d="M301.078 312.01H291.107V410.755H301.078V312.01Z" fill="#202858"/>
<path d="M324.014 296.568H314.043V398.599H324.014V296.568Z" fill="#202858"/>
<path d="M346.951 316.813H336.98V392.804H346.951V316.813Z" fill="#202858"/>
<path d="M369.887 289.365H359.916V365.355H369.887V289.365Z" fill="#202858"/>
<path d="M392.821 306.951H382.85V339.628H392.821V306.951Z" fill="#202858"/>
<path d="M415.756 331.247H405.785V398.602H415.756V331.247Z" fill="#B0B0B0"/>
<path d="M438.692 363.931H428.721V431.286H438.692V363.931Z" fill="#B0B0B0"/>
<path d="M461.625 377.076H451.654V444.431H461.625V377.076Z" fill="#B0B0B0"/>
<path d="M484.561 353.761H474.59V448.698H484.561V353.761Z" fill="#B0B0B0"/>
<path d="M530.43 398.599H520.459V461.424H530.43V398.599Z" fill="#B0B0B0"/>
<path d="M553.369 430.011H543.398V469.659H553.369V430.011Z" fill="#B0B0B0"/>
<path d="M576.303 437.218H566.332V469.659H576.303V437.218Z" fill="#B0B0B0"/>
<path d="M599.239 444.431H589.268V471.829H599.239V444.431Z" fill="#B0B0B0"/>
<path d="M622.174 453.438H612.203V475.125H622.174V453.438Z" fill="#B0B0B0"/>
<path d="M645.108 460.984H635.137V477.911H645.108V460.984Z" fill="#B0B0B0"/>
<path d="M668.043 463.181H658.072V480.108H668.043V463.181Z" fill="#B0B0B0"/>
<path d="M690.979 463.182H681.008V480.108H690.979V463.182Z" fill="#B0B0B0"/>
<path d="M713.912 467.725H703.941V481.206H713.912V467.725Z" fill="#B0B0B0"/>
<path d="M736.848 471.829H726.877V483.899H736.848V471.829Z" fill="#B0B0B0"/>
<path d="M759.783 473.254H749.812V483.19H759.783V473.254Z" fill="#B0B0B0"/>
<path d="M782.721 472.189H772.75V482.125H782.721V472.189Z" fill="#B0B0B0"/>
<path d="M805.656 475.122H795.686V483.19H805.656V475.122Z" fill="#B0B0B0"/>
<path d="M507.496 339.628H497.525V455.605H507.496V339.628Z" fill="#B0B0B0"/>
<path d="M150.631 519.855L152.972 517.405C154.659 515.641 156.016 514.123 156.016 512.609C156.016 511.094 155.214 510.561 153.657 510.561C152.805 510.561 151.8 510.978 151.132 511.377L150.781 509.779C151.6 509.297 152.839 508.847 154.242 508.847C156.917 508.847 158.287 510.129 158.287 512.329C158.287 514.529 156.433 516.427 154.943 517.961L153.507 519.426H158.387V521.123H150.631V519.858V519.855Z" fill="#3B3C3C"/>
<path d="M159.248 515.508V514.759C159.248 510.412 161.506 508.844 164.015 508.844C166.523 508.844 168.695 510.428 168.695 514.692V515.458C168.695 519.722 166.537 521.34 163.978 521.34C161.419 521.34 159.248 519.639 159.248 515.508ZM166.436 515.608V514.692C166.436 511.81 165.601 510.528 163.995 510.528C162.388 510.528 161.536 511.746 161.536 514.576V515.508C161.536 518.324 162.338 519.672 163.978 519.672C165.618 519.672 166.436 518.507 166.436 515.608Z" fill="#3B3C3C"/>
<path d="M198.444 518.84H192.846V517.575L199.015 508.977H200.502V517.225H202.292V518.84H200.502V521.323H198.444V518.84ZM198.461 517.225V512.659L195.217 517.225H198.461Z" fill="#3B3C3C"/>
<path d="M202.964 515.508V514.759C202.964 510.412 205.222 508.844 207.728 508.844C210.233 508.844 212.407 510.428 212.407 514.692V515.458C212.407 519.722 210.25 521.34 207.694 521.34C205.139 521.34 202.961 519.639 202.961 515.508H202.964ZM210.156 515.608V514.692C210.156 511.81 209.321 510.528 207.714 510.528C206.108 510.528 205.259 511.746 205.259 514.576V515.508C205.259 518.324 206.061 519.672 207.698 519.672C209.334 519.672 210.156 518.507 210.156 515.608Z" fill="#3B3C3C"/>
<path d="M240.908 515.957V515.092C240.908 510.545 243.233 508.86 246.139 508.86C247.358 508.86 248.464 509.243 248.982 509.543L248.564 511.14C248.097 510.891 247.061 510.608 246.259 510.608C244.452 510.608 243.25 511.493 243.083 514.606C243.701 514.073 244.673 513.54 245.925 513.54C248.03 513.54 249.553 514.859 249.553 517.172C249.553 519.485 248.097 521.336 245.391 521.336C242.448 521.336 240.912 519.286 240.912 515.954L240.908 515.957ZM247.442 517.342C247.442 515.707 246.523 515.108 245.287 515.108C244.402 515.108 243.517 515.724 243.099 516.29V516.39C243.099 518.457 243.734 519.722 245.338 519.722C246.64 519.722 247.442 518.856 247.442 517.342Z" fill="#3B3C3C"/>
<path d="M250.344 515.508V514.759C250.344 510.412 252.602 508.844 255.11 508.844C257.619 508.844 259.79 510.428 259.79 514.692V515.458C259.79 519.722 257.632 521.34 255.074 521.34C252.515 521.34 250.344 519.639 250.344 515.508ZM257.532 515.608V514.692C257.532 511.81 256.697 510.528 255.09 510.528C253.484 510.528 252.632 511.746 252.632 514.576V515.508C252.632 518.324 253.434 519.672 255.074 519.672C256.714 519.672 257.532 518.507 257.532 515.608Z" fill="#3B3C3C"/>
<path d="M286.46 518.057C286.46 516.543 287.629 515.458 288.966 514.925C287.696 514.359 286.808 513.527 286.808 512.026C286.808 510.145 288.428 508.844 290.987 508.844C293.545 508.844 295.115 509.959 295.115 511.86C295.115 513.191 294.147 514.143 292.891 514.742C294.31 515.228 295.583 516.11 295.583 517.825C295.583 519.875 293.879 521.34 290.987 521.34C288.094 521.34 286.457 520.021 286.457 518.057H286.46ZM293.378 517.974C293.378 516.726 292.443 516.094 290.636 515.624C289.55 515.99 288.515 516.806 288.515 517.891C288.515 519.056 289.45 519.758 290.94 519.758C292.43 519.758 293.378 519.026 293.378 517.974ZM293.044 512.026C293.044 511.111 292.393 510.428 291.023 510.428C289.771 510.428 289.002 511.011 289.002 511.976C289.002 513.008 289.771 513.657 291.294 514.026C292.229 513.644 293.048 512.991 293.048 512.026H293.044Z" fill="#3B3C3C"/>
<path d="M296.412 515.508V514.759C296.412 510.412 298.67 508.844 301.178 508.844C303.687 508.844 305.858 510.428 305.858 514.692V515.458C305.858 519.722 303.7 521.34 301.141 521.34C298.583 521.34 296.408 519.639 296.408 515.508H296.412ZM303.603 515.608V514.692C303.603 511.81 302.768 510.528 301.162 510.528C299.555 510.528 298.703 511.746 298.703 514.576V515.508C298.703 518.324 299.505 519.672 301.145 519.672C302.785 519.672 303.603 518.507 303.603 515.608Z" fill="#3B3C3C"/>
<path d="M330.829 511.211L328.771 511.61V510.342L331.881 508.96H333.034V521.207H330.826V511.211H330.829Z" fill="#3B3C3C"/>
<path d="M335.222 515.508V514.759C335.222 510.412 337.48 508.844 339.989 508.844C342.497 508.844 344.669 510.428 344.669 514.692V515.458C344.669 519.722 342.511 521.34 339.952 521.34C337.393 521.34 335.219 519.639 335.219 515.508H335.222ZM342.411 515.608V514.692C342.411 511.81 341.575 510.528 339.969 510.528C338.362 510.528 337.51 511.746 337.51 514.576V515.508C337.51 518.324 338.312 519.672 339.952 519.672C341.592 519.672 342.411 518.507 342.411 515.608Z" fill="#3B3C3C"/>
<path d="M345.861 515.508V514.759C345.861 510.412 348.119 508.844 350.624 508.844C353.129 508.844 355.304 510.428 355.304 514.692V515.458C355.304 519.722 353.146 521.34 350.591 521.34C348.035 521.34 345.857 519.639 345.857 515.508H345.861ZM353.049 515.608V514.692C353.049 511.81 352.214 510.528 350.607 510.528C349.001 510.528 348.152 511.746 348.152 514.576V515.508C348.152 518.324 348.954 519.672 350.591 519.672C352.227 519.672 353.049 518.507 353.049 515.608Z" fill="#3B3C3C"/>
<path d="M377.288 511.211L375.23 511.61V510.342L378.34 508.96H379.493V521.207H377.285V511.211H377.288Z" fill="#3B3C3C"/>
<path d="M381.646 519.855L383.988 517.405C385.675 515.641 387.031 514.123 387.031 512.609C387.031 511.094 386.229 510.561 384.673 510.561C383.821 510.561 382.816 510.978 382.148 511.377L381.797 509.779C382.615 509.297 383.854 508.847 385.257 508.847C387.933 508.847 389.303 510.129 389.303 512.329C389.303 514.529 387.445 516.427 385.959 517.961L384.523 519.426H389.403V521.123H381.646V519.858V519.855Z" fill="#3B3C3C"/>
<path d="M390.265 515.508V514.759C390.265 510.412 392.523 508.844 395.028 508.844C397.534 508.844 399.708 510.428 399.708 514.692V515.458C399.708 519.722 397.55 521.34 394.995 521.34C392.44 521.34 390.262 519.639 390.262 515.508H390.265ZM397.454 515.608V514.692C397.454 511.81 396.618 510.528 395.012 510.528C393.405 510.528 392.557 511.746 392.557 514.576V515.508C392.557 518.324 393.358 519.672 394.995 519.672C396.632 519.672 397.454 518.507 397.454 515.608Z" fill="#3B3C3C"/>
<path d="M422.483 511.211L420.426 511.61V510.342L423.536 508.96H424.688V521.207H422.48V511.211H422.483Z" fill="#3B3C3C"/>
<path d="M431.955 518.84H426.354V517.575L432.523 508.977H434.01V517.225H435.8V518.84H434.01V521.323H431.952V518.84H431.955ZM431.972 517.225V512.659L428.729 517.225H431.972Z" fill="#3B3C3C"/>
<path d="M436.476 515.508V514.759C436.476 510.412 438.734 508.844 441.243 508.844C443.751 508.844 445.923 510.428 445.923 514.692V515.458C445.923 519.722 443.765 521.34 441.206 521.34C438.647 521.34 436.473 519.639 436.473 515.508H436.476ZM443.668 515.608V514.692C443.668 511.81 442.833 510.528 441.226 510.528C439.619 510.528 438.767 511.746 438.767 514.576V515.508C438.767 518.324 439.569 519.672 441.209 519.672C442.849 519.672 443.668 518.507 443.668 515.608Z" fill="#3B3C3C"/>
<path d="M468.956 511.211L466.898 511.61V510.342L470.008 508.96H471.161V521.207H468.953V511.211H468.956Z" fill="#3B3C3C"/>
<path d="M473.246 515.957V515.092C473.246 510.545 475.571 508.86 478.477 508.86C479.696 508.86 480.802 509.243 481.32 509.543L480.902 511.14C480.435 510.891 479.399 510.608 478.597 510.608C476.79 510.608 475.588 511.493 475.421 514.606C476.039 514.073 477.011 513.54 478.263 513.54C480.368 513.54 481.891 514.859 481.891 517.172C481.891 519.485 480.435 521.336 477.729 521.336C474.786 521.336 473.249 519.286 473.249 515.954L473.246 515.957ZM479.783 517.342C479.783 515.707 478.865 515.108 477.625 515.108C476.74 515.108 475.855 515.724 475.437 516.29V516.39C475.437 518.457 476.072 519.722 477.675 519.722C478.978 519.722 479.78 518.856 479.78 517.342H479.783Z" fill="#3B3C3C"/>
<path d="M482.683 515.508V514.759C482.683 510.412 484.941 508.844 487.45 508.844C489.958 508.844 492.13 510.428 492.13 514.692V515.458C492.13 519.722 489.972 521.34 487.413 521.34C484.854 521.34 482.68 519.639 482.68 515.508H482.683ZM489.875 515.608V514.692C489.875 511.81 489.04 510.528 487.433 510.528C485.826 510.528 484.975 511.746 484.975 514.576V515.508C484.975 518.324 485.776 519.672 487.416 519.672C489.056 519.672 489.875 518.507 489.875 515.608Z" fill="#3B3C3C"/>
<path d="M514.399 511.211L512.342 511.61V510.342L515.452 508.96H516.604V521.207H514.396V511.211H514.399Z" fill="#3B3C3C"/>
<path d="M518.554 518.057C518.554 516.543 519.723 515.458 521.059 514.925C519.79 514.359 518.901 513.527 518.901 512.026C518.901 510.145 520.522 508.844 523.08 508.844C525.639 508.844 527.209 509.959 527.209 511.86C527.209 513.191 526.24 514.143 524.984 514.742C526.404 515.228 527.677 516.11 527.677 517.825C527.677 519.875 525.973 521.34 523.08 521.34C520.188 521.34 518.551 520.021 518.551 518.057H518.554ZM525.475 517.974C525.475 516.726 524.54 516.094 522.733 515.624C521.647 515.99 520.608 516.806 520.608 517.891C520.608 519.056 521.544 519.758 523.034 519.758C524.523 519.758 525.472 519.026 525.472 517.974H525.475ZM525.141 512.026C525.141 511.111 524.49 510.428 523.12 510.428C521.868 510.428 521.099 511.011 521.099 511.976C521.099 513.008 521.868 513.657 523.391 514.026C524.326 513.644 525.145 512.991 525.145 512.026H525.141Z" fill="#3B3C3C"/>
<path d="M528.508 515.508V514.759C528.508 510.412 530.766 508.844 533.271 508.844C535.776 508.844 537.951 510.428 537.951 514.692V515.458C537.951 519.722 535.793 521.34 533.238 521.34C530.682 521.34 528.508 519.639 528.508 515.508ZM535.7 515.608V514.692C535.7 511.81 534.865 510.528 533.258 510.528C531.651 510.528 530.803 511.746 530.803 514.576V515.508C530.803 518.324 531.604 519.672 533.241 519.672C534.878 519.672 535.7 518.507 535.7 515.608Z" fill="#3B3C3C"/>
<path d="M557.266 519.855L559.607 517.405C561.294 515.641 562.65 514.123 562.65 512.609C562.65 511.094 561.849 510.561 560.292 510.561C559.44 510.561 558.435 510.978 557.767 511.377L557.416 509.779C558.234 509.297 559.474 508.847 560.877 508.847C563.552 508.847 564.922 510.129 564.922 512.329C564.922 514.529 563.064 516.427 561.578 517.961L560.142 519.426H565.022V521.123H557.266V519.858V519.855Z" fill="#3B3C3C"/>
<path d="M565.885 515.508V514.759C565.885 510.412 568.143 508.844 570.648 508.844C573.153 508.844 575.328 510.428 575.328 514.692V515.458C575.328 519.722 573.173 521.34 570.615 521.34C568.056 521.34 565.885 519.639 565.885 515.508ZM573.073 515.608V514.692C573.073 511.81 572.238 510.528 570.631 510.528C569.025 510.528 568.176 511.746 568.176 514.576V515.508C568.176 518.324 568.978 519.672 570.615 519.672C572.251 519.672 573.073 518.507 573.073 515.608Z" fill="#3B3C3C"/>
<path d="M576.523 515.508V514.759C576.523 510.412 578.782 508.844 581.29 508.844C583.799 508.844 585.97 510.428 585.97 514.692V515.458C585.97 519.722 583.812 521.34 581.253 521.34C578.695 521.34 576.523 519.639 576.523 515.508ZM583.712 515.608V514.692C583.712 511.81 582.877 510.528 581.27 510.528C579.663 510.528 578.812 511.746 578.812 514.576V515.508C578.812 518.324 579.613 519.672 581.253 519.672C582.894 519.672 583.712 518.507 583.712 515.608Z" fill="#3B3C3C"/>
<path d="M602.443 519.855L604.785 517.405C606.472 515.641 607.828 514.123 607.828 512.609C607.828 511.094 607.026 510.561 605.47 510.561C604.618 510.561 603.612 510.978 602.944 511.377L602.594 509.779C603.412 509.297 604.651 508.847 606.054 508.847C608.73 508.847 610.099 510.129 610.099 512.329C610.099 514.529 608.242 516.427 606.756 517.961L605.319 519.426H610.2V521.123H602.443V519.858V519.855Z" fill="#3B3C3C"/>
<path d="M611.109 519.855L613.451 517.405C615.138 515.641 616.494 514.123 616.494 512.609C616.494 511.094 615.692 510.561 614.136 510.561C613.284 510.561 612.278 510.978 611.61 511.377L611.26 509.779C612.078 509.297 613.317 508.847 614.72 508.847C617.396 508.847 618.765 510.129 618.765 512.329C618.765 514.529 616.908 516.427 615.422 517.961L613.985 519.426H618.866V521.123H611.109V519.858V519.855Z" fill="#3B3C3C"/>
<path d="M619.727 515.508V514.759C619.727 510.412 621.985 508.844 624.493 508.844C627.002 508.844 629.173 510.428 629.173 514.692V515.458C629.173 519.722 627.015 521.34 624.457 521.34C621.898 521.34 619.727 519.639 619.727 515.508ZM626.915 515.608V514.692C626.915 511.81 626.08 510.528 624.473 510.528C622.867 510.528 622.015 511.746 622.015 514.576V515.508C622.015 518.324 622.816 519.672 624.457 519.672C626.097 519.672 626.915 518.507 626.915 515.608Z" fill="#3B3C3C"/>
<path d="M650.512 519.855L652.853 517.405C654.54 515.641 655.896 514.123 655.896 512.609C655.896 511.094 655.095 510.561 653.538 510.561C652.686 510.561 651.681 510.978 651.013 511.377L650.662 509.779C651.48 509.297 652.72 508.847 654.123 508.847C656.798 508.847 658.168 510.129 658.168 512.329C658.168 514.529 656.314 516.427 654.824 517.961L653.388 519.426H658.268V521.123H650.512V519.858V519.855Z" fill="#3B3C3C"/>
<path d="M664.043 518.84H658.441V517.575L664.611 508.977H666.098V517.225H667.888V518.84H666.098V521.323H664.04V518.84H664.043ZM664.06 517.225V512.659L660.816 517.225H664.06Z" fill="#3B3C3C"/>
<path d="M668.566 515.508V514.759C668.566 510.412 670.824 508.844 673.333 508.844C675.841 508.844 678.012 510.428 678.012 514.692V515.458C678.012 519.722 675.854 521.34 673.296 521.34C670.737 521.34 668.562 519.639 668.562 515.508H668.566ZM675.754 515.608V514.692C675.754 511.81 674.919 510.528 673.312 510.528C671.706 510.528 670.854 511.746 670.854 514.576V515.508C670.854 518.324 671.656 519.672 673.296 519.672C674.936 519.672 675.754 518.507 675.754 515.608Z" fill="#3B3C3C"/>
<path d="M694.127 519.855L696.469 517.405C698.155 515.641 699.512 514.123 699.512 512.609C699.512 511.094 698.71 510.561 697.153 510.561C696.302 510.561 695.296 510.978 694.628 511.377L694.277 509.779C695.096 509.297 696.335 508.847 697.738 508.847C700.413 508.847 701.783 510.129 701.783 512.329C701.783 514.529 699.926 516.427 698.439 517.961L697.003 519.426H701.883V521.123H694.127V519.858V519.855Z" fill="#3B3C3C"/>
<path d="M702.559 515.957V515.092C702.559 510.545 704.88 508.86 707.79 508.86C709.009 508.86 710.114 509.243 710.632 509.543L710.215 511.14C709.747 510.891 708.712 510.608 707.91 510.608C706.103 510.608 704.9 511.493 704.733 514.606C705.354 514.073 706.323 513.54 707.576 513.54C709.68 513.54 711.203 514.859 711.203 517.172C711.203 519.485 709.747 521.336 707.041 521.336C704.098 521.336 702.562 519.286 702.562 515.954L702.559 515.957ZM709.096 517.342C709.096 515.707 708.177 515.108 706.938 515.108C706.053 515.108 705.167 515.724 704.747 516.29V516.39C704.747 518.457 705.381 519.722 706.988 519.722C708.294 519.722 709.096 518.856 709.096 517.342Z" fill="#3B3C3C"/>
<path d="M711.994 515.508V514.759C711.994 510.412 714.252 508.844 716.757 508.844C719.262 508.844 721.437 510.428 721.437 514.692V515.458C721.437 519.722 719.282 521.34 716.723 521.34C714.165 521.34 711.99 519.639 711.99 515.508H711.994ZM719.182 515.608V514.692C719.182 511.81 718.347 510.528 716.74 510.528C715.133 510.528 714.285 511.746 714.285 514.576V515.508C714.285 518.324 715.087 519.672 716.723 519.672C718.36 519.672 719.182 518.507 719.182 515.608Z" fill="#3B3C3C"/>
<path d="M738.891 519.855L741.232 517.405C742.919 515.641 744.275 514.123 744.275 512.609C744.275 511.094 743.474 510.561 741.917 510.561C741.065 510.561 740.06 510.978 739.392 511.377L739.041 509.779C739.859 509.297 741.099 508.847 742.502 508.847C745.177 508.847 746.547 510.129 746.547 512.329C746.547 514.529 744.689 516.427 743.203 517.961L741.767 519.426H746.647V521.123H738.891V519.858V519.855Z" fill="#3B3C3C"/>
<path d="M747.359 518.057C747.359 516.543 748.528 515.458 749.864 514.925C748.595 514.359 747.706 513.527 747.706 512.026C747.706 510.145 749.326 508.844 751.885 508.844C754.444 508.844 756.014 509.959 756.014 511.86C756.014 513.191 755.045 514.143 753.789 514.742C755.209 515.228 756.481 516.11 756.481 517.825C756.481 519.875 754.778 521.34 751.885 521.34C748.992 521.34 747.355 520.021 747.355 518.057H747.359ZM754.28 517.974C754.28 516.726 753.345 516.094 751.538 515.624C750.452 515.99 749.417 516.806 749.417 517.891C749.417 519.056 750.352 519.758 751.842 519.758C753.331 519.758 754.28 519.026 754.28 517.974ZM753.946 512.026C753.946 511.111 753.295 510.428 751.925 510.428C750.673 510.428 749.904 511.011 749.904 511.976C749.904 513.008 750.672 513.657 752.196 514.026C753.131 513.644 753.949 512.991 753.949 512.026H753.946Z" fill="#3B3C3C"/>
<path d="M757.314 515.508V514.759C757.314 510.412 759.572 508.844 762.081 508.844C764.589 508.844 766.76 510.428 766.76 514.692V515.458C766.76 519.722 764.603 521.34 762.044 521.34C759.485 521.34 757.311 519.639 757.311 515.508H757.314ZM764.502 515.608V514.692C764.502 511.81 763.667 510.528 762.061 510.528C760.454 510.528 759.602 511.746 759.602 514.576V515.508C759.602 518.324 760.404 519.672 762.044 519.672C763.684 519.672 764.502 518.507 764.502 515.608Z" fill="#3B3C3C"/>
<path d="M785.549 520.458L785.916 518.873C786.534 519.273 787.84 519.572 788.759 519.572C790.399 519.572 791.351 518.89 791.351 517.538C791.351 516.187 790.382 515.708 788.826 515.691L787.556 515.658V514.073L788.692 514.057C790.095 514.023 791.034 513.391 791.034 512.242C791.034 511.027 790.199 510.578 788.862 510.578C787.957 510.578 786.988 510.894 786.27 511.227L786.02 509.613C786.775 509.18 788.245 508.847 789.43 508.847C791.688 508.847 793.225 509.912 793.225 511.863C793.225 513.314 792.373 514.246 791.034 514.696C792.557 514.995 793.626 515.861 793.626 517.678C793.626 519.912 791.902 521.31 789.13 521.31C787.673 521.31 786.254 520.91 785.552 520.461L785.549 520.458Z" fill="#3B3C3C"/>
<path d="M794.568 515.508V514.759C794.568 510.412 796.826 508.844 799.331 508.844C801.836 508.844 804.011 510.428 804.011 514.692V515.458C804.011 519.722 801.853 521.34 799.298 521.34C796.742 521.34 794.564 519.639 794.564 515.508H794.568ZM801.756 515.608V514.692C801.756 511.81 800.921 510.528 799.314 510.528C797.708 510.528 796.859 511.746 796.859 514.576V515.508C796.859 518.324 797.661 519.672 799.298 519.672C800.934 519.672 801.756 518.507 801.756 515.608Z" fill="#3B3C3C"/>
<path d="M805.206 515.508V514.759C805.206 510.412 807.465 508.844 809.973 508.844C812.482 508.844 814.653 510.428 814.653 514.692V515.458C814.653 519.722 812.495 521.34 809.936 521.34C807.378 521.34 805.203 519.639 805.203 515.508H805.206ZM812.395 515.608V514.692C812.395 511.81 811.56 510.528 809.953 510.528C808.346 510.528 807.495 511.746 807.495 514.576V515.508C807.495 518.324 808.296 519.672 809.936 519.672C811.576 519.672 812.395 518.507 812.395 515.608Z" fill="#3B3C3C"/>
<path d="M87.8428 250.11L85.7852 250.509V249.241L88.895 247.86H90.0474V260.106H87.8395V250.11H87.8428Z" fill="#3B3C3C"/>
<path d="M92.4336 258.238H94.6082V260.319H92.4336V258.238Z" fill="#3B3C3C"/>
<path d="M95.7559 254.856V253.991C95.7559 249.444 98.0774 247.76 100.987 247.76C102.206 247.76 103.312 248.143 103.83 248.442L103.412 250.04C102.944 249.79 101.909 249.507 101.107 249.507C99.3 249.507 98.0974 250.393 97.9304 253.505C98.5517 252.972 99.5204 252.44 100.773 252.44C102.877 252.44 104.401 253.758 104.401 256.071C104.401 258.385 102.944 260.236 100.239 260.236C97.2958 260.236 95.7592 258.185 95.7592 254.853L95.7559 254.856ZM102.293 256.241C102.293 254.607 101.374 254.008 100.135 254.008C99.2499 254.008 98.3647 254.623 97.9438 255.189V255.289C97.9438 257.356 98.5785 258.621 100.185 258.621C101.491 258.621 102.293 257.756 102.293 256.241Z" fill="#3B3C3C"/>
<path d="M105.193 254.407V253.658C105.193 249.311 107.451 247.743 109.956 247.743C112.461 247.743 114.636 249.328 114.636 253.592V254.357C114.636 258.621 112.478 260.239 109.923 260.239C107.367 260.239 105.189 258.538 105.189 254.407H105.193ZM112.381 254.507V253.592C112.381 250.709 111.546 249.427 109.939 249.427C108.333 249.427 107.484 250.646 107.484 253.475V254.407C107.484 257.223 108.286 258.571 109.923 258.571C111.56 258.571 112.381 257.406 112.381 254.507Z" fill="#3B3C3C"/>
<path d="M115.831 254.407V253.658C115.831 249.311 118.09 247.743 120.598 247.743C123.107 247.743 125.278 249.328 125.278 253.592V254.357C125.278 258.621 123.12 260.239 120.561 260.239C118.003 260.239 115.828 258.538 115.828 254.407H115.831ZM123.02 254.507V253.592C123.02 250.709 122.185 249.427 120.578 249.427C118.971 249.427 118.12 250.646 118.12 253.475V254.407C118.12 257.223 118.921 258.571 120.561 258.571C122.202 258.571 123.02 257.406 123.02 254.507Z" fill="#3B3C3C"/>
<path d="M87.5752 279.902L85.5176 280.301V279.033L88.6275 277.651H89.7799V289.898H87.5719V279.902H87.5752Z" fill="#3B3C3C"/>
<path d="M92.166 288.03H94.3406V290.11H92.166V288.03Z" fill="#3B3C3C"/>
<path d="M100.674 287.531H95.0723V286.266L101.242 277.668H102.728V285.916H104.519V287.531H102.728V290.014H100.671V287.531H100.674ZM100.691 285.916V281.349L97.4473 285.916H100.691Z" fill="#3B3C3C"/>
<path d="M105.193 284.199V283.45C105.193 279.102 107.451 277.535 109.959 277.535C112.468 277.535 114.639 279.119 114.639 283.383V284.149C114.639 288.413 112.481 290.03 109.923 290.03C107.364 290.03 105.189 288.33 105.189 284.199H105.193ZM112.385 284.299V283.383C112.385 280.501 111.549 279.219 109.943 279.219C108.336 279.219 107.484 280.437 107.484 283.267V284.199C107.484 287.015 108.286 288.363 109.926 288.363C111.566 288.363 112.385 287.198 112.385 284.299Z" fill="#3B3C3C"/>
<path d="M115.831 284.199V283.45C115.831 279.102 118.09 277.535 120.595 277.535C123.1 277.535 125.275 279.119 125.275 283.383V284.149C125.275 288.413 123.117 290.03 120.561 290.03C118.006 290.03 115.828 288.33 115.828 284.199H115.831ZM123.023 284.299V283.383C123.023 280.501 122.188 279.219 120.581 279.219C118.975 279.219 118.126 280.437 118.126 283.267V284.199C118.126 287.015 118.928 288.363 120.565 288.363C122.202 288.363 123.023 287.198 123.023 284.299Z" fill="#3B3C3C"/>
<path d="M88.5948 309.693L86.5371 310.092V308.828L89.647 307.443H90.7994V319.686H88.5914V309.69L88.5948 309.693Z" fill="#3B3C3C"/>
<path d="M93.1836 317.825H95.3582V319.908H93.1836V317.825Z" fill="#3B3C3C"/>
<path d="M96.5742 318.341L98.9158 315.894C100.603 314.127 101.959 312.612 101.959 311.098C101.959 309.583 101.157 309.047 99.6006 309.047C98.7488 309.047 97.7433 309.463 97.0753 309.863L96.7245 308.265C97.5429 307.782 98.7822 307.333 100.185 307.333C102.861 307.333 104.23 308.615 104.23 310.815C104.23 313.015 102.373 314.912 100.887 316.447L99.4503 317.912H104.331V319.609H96.5742V318.344V318.341Z" fill="#3B3C3C"/>
<path d="M105.193 313.994V313.245C105.193 308.894 107.451 307.33 109.956 307.33C112.461 307.33 114.636 308.914 114.636 313.178V313.944C114.636 318.208 112.478 319.825 109.923 319.825C107.367 319.825 105.189 318.128 105.189 313.997L105.193 313.994ZM112.381 314.09V313.175C112.381 310.292 111.546 309.011 109.939 309.011C108.333 309.011 107.484 310.226 107.484 313.058V313.99C107.484 316.806 108.286 318.154 109.923 318.154C111.56 318.154 112.381 316.986 112.381 314.087V314.09Z" fill="#3B3C3C"/>
<path d="M115.831 313.994V313.245C115.831 308.894 118.09 307.33 120.598 307.33C123.107 307.33 125.278 308.914 125.278 313.178V313.944C125.278 318.208 123.12 319.825 120.561 319.825C118.003 319.825 115.828 318.128 115.828 313.997L115.831 313.994ZM123.02 314.09V313.175C123.02 310.292 122.185 309.011 120.578 309.011C118.971 309.011 118.12 310.226 118.12 313.058V313.99C118.12 316.806 118.921 318.154 120.561 318.154C122.202 318.154 123.02 316.986 123.02 314.087V314.09Z" fill="#3B3C3C"/>
<path d="M86.5401 339.485L84.4824 339.884V338.619L87.5923 337.234H88.7447V349.477H86.5367V339.481L86.5401 339.485Z" fill="#3B3C3C"/>
<path d="M91.1309 347.616H93.3054V349.7H91.1309V347.616Z" fill="#3B3C3C"/>
<path d="M94.5541 343.785V343.036C94.5541 338.686 96.8122 337.121 99.3175 337.121C101.823 337.121 103.997 338.706 103.997 342.97V343.735C103.997 347.999 101.839 349.617 99.2841 349.617C96.7287 349.617 94.5508 347.919 94.5508 343.788L94.5541 343.785ZM101.746 343.885V342.97C101.746 340.087 100.911 338.805 99.3041 338.805C97.6974 338.805 96.8489 340.02 96.8489 342.853V343.785C96.8489 346.601 97.6506 347.949 99.2874 347.949C100.924 347.949 101.746 346.781 101.746 343.882V343.885Z" fill="#3B3C3C"/>
<path d="M105.193 343.785V343.036C105.193 338.686 107.451 337.121 109.959 337.121C112.468 337.121 114.639 338.706 114.639 342.97V343.735C114.639 347.999 112.481 349.617 109.923 349.617C107.364 349.617 105.189 347.919 105.189 343.788L105.193 343.785ZM112.385 343.885V342.97C112.385 340.087 111.549 338.805 109.943 338.805C108.336 338.805 107.484 340.02 107.484 342.853V343.785C107.484 346.601 108.286 347.949 109.926 347.949C111.566 347.949 112.385 346.781 112.385 343.882V343.885Z" fill="#3B3C3C"/>
<path d="M115.831 343.785V343.036C115.831 338.686 118.09 337.121 120.595 337.121C123.1 337.121 125.275 338.706 125.275 342.97V343.735C125.275 347.999 123.117 349.617 120.561 349.617C118.006 349.617 115.828 347.919 115.828 343.788L115.831 343.785ZM123.023 343.885V342.97C123.023 340.087 122.188 338.805 120.581 338.805C118.975 338.805 118.126 340.02 118.126 342.853V343.785C118.126 346.601 118.928 347.949 120.565 347.949C122.202 347.949 123.023 346.781 123.023 343.882V343.885Z" fill="#3B3C3C"/>
<path d="M81.2084 373.577V372.828C81.2084 368.477 83.4665 366.913 85.9718 366.913C88.477 366.913 90.6516 368.497 90.6516 372.761V373.527C90.6516 377.791 88.4937 379.408 85.9384 379.408C83.383 379.408 81.2051 377.711 81.2051 373.58L81.2084 373.577ZM88.4002 373.676V372.761C88.4002 369.878 87.5651 368.597 85.9584 368.597C84.3517 368.597 83.5032 369.812 83.5032 372.645V373.577C83.5032 376.393 84.3049 377.741 85.9417 377.741C87.5785 377.741 88.4002 376.572 88.4002 373.673V373.676Z" fill="#3B3C3C"/>
<path d="M92.0488 377.408H94.2234V379.492H92.0488V377.408Z" fill="#3B3C3C"/>
<path d="M95.2377 376.126C95.2377 374.608 96.4068 373.527 97.743 372.994C96.4737 372.428 95.5851 371.596 95.5851 370.095C95.5851 368.211 97.2052 366.913 99.7639 366.913C102.323 366.913 103.893 368.028 103.893 369.928C103.893 371.26 102.924 372.212 101.668 372.811C103.088 373.294 104.36 374.176 104.36 375.893C104.36 377.94 102.657 379.408 99.7639 379.408C96.8712 379.408 95.2344 378.094 95.2344 376.126H95.2377ZM102.159 376.043C102.159 374.795 101.224 374.162 99.4165 373.693C98.3309 374.059 97.2954 374.875 97.2954 375.96C97.2954 377.125 98.2307 377.827 99.7205 377.827C101.21 377.827 102.159 377.095 102.159 376.043ZM101.825 370.095C101.825 369.179 101.174 368.497 99.804 368.497C98.5514 368.497 97.7831 369.08 97.7831 370.045C97.7831 371.08 98.5514 371.726 100.075 372.095C101.01 371.713 101.828 371.06 101.828 370.095H101.825Z" fill="#3B3C3C"/>
<path d="M105.193 373.577V372.828C105.193 368.477 107.451 366.913 109.959 366.913C112.468 366.913 114.639 368.497 114.639 372.761V373.527C114.639 377.791 112.481 379.408 109.923 379.408C107.364 379.408 105.189 377.711 105.189 373.58L105.193 373.577ZM112.385 373.676V372.761C112.385 369.878 111.549 368.597 109.943 368.597C108.336 368.597 107.484 369.812 107.484 372.645V373.577C107.484 376.393 108.286 377.741 109.926 377.741C111.566 377.741 112.385 376.572 112.385 373.673V373.676Z" fill="#3B3C3C"/>
<path d="M115.831 373.577V372.828C115.831 368.477 118.09 366.913 120.595 366.913C123.1 366.913 125.275 368.497 125.275 372.761V373.527C125.275 377.791 123.117 379.408 120.561 379.408C118.006 379.408 115.828 377.711 115.828 373.58L115.831 373.577ZM123.023 373.676V372.761C123.023 369.878 122.188 368.597 120.581 368.597C118.975 368.597 118.126 369.812 118.126 372.645V373.577C118.126 376.393 118.928 377.741 120.565 377.741C122.202 377.741 123.023 376.572 123.023 373.673V373.676Z" fill="#3B3C3C"/>
<path d="M81.5932 403.368V402.619C81.5932 398.269 83.8513 396.704 86.3599 396.704C88.8685 396.704 91.0397 398.289 91.0397 402.553V403.318C91.0397 407.582 88.8818 409.2 86.3231 409.2C83.7644 409.2 81.5898 407.503 81.5898 403.372L81.5932 403.368ZM88.7816 403.468V402.553C88.7816 399.67 87.9465 398.389 86.3398 398.389C84.7331 398.389 83.8813 399.604 83.8813 402.436V403.368C83.8813 406.184 84.683 407.532 86.3231 407.532C87.9632 407.532 88.7816 406.364 88.7816 403.465V403.468Z" fill="#3B3C3C"/>
<path d="M92.4336 407.2H94.6082V409.283H92.4336V407.2Z" fill="#3B3C3C"/>
<path d="M95.7559 403.817V402.952C95.7559 398.402 98.0774 396.721 100.987 396.721C102.206 396.721 103.312 397.103 103.83 397.406L103.412 399.004C102.944 398.755 101.909 398.472 101.107 398.472C99.3 398.472 98.0974 399.354 97.9304 402.469C98.5517 401.937 99.5204 401.404 100.773 401.404C102.877 401.404 104.401 402.719 104.401 405.036C104.401 407.352 102.944 409.2 100.239 409.2C97.2958 409.2 95.7592 407.153 95.7592 403.821L95.7559 403.817ZM102.293 405.202C102.293 403.571 101.374 402.972 100.135 402.972C99.2499 402.972 98.3647 403.588 97.9438 404.154V404.253C97.9438 406.321 98.5785 407.585 100.185 407.585C101.491 407.585 102.293 406.72 102.293 405.202Z" fill="#3B3C3C"/>
<path d="M105.193 403.368V402.619C105.193 398.269 107.451 396.704 109.956 396.704C112.461 396.704 114.636 398.289 114.636 402.553V403.318C114.636 407.582 112.478 409.2 109.923 409.2C107.367 409.2 105.189 407.503 105.189 403.372L105.193 403.368ZM112.381 403.468V402.553C112.381 399.67 111.546 398.389 109.939 398.389C108.333 398.389 107.484 399.604 107.484 402.436V403.368C107.484 406.184 108.286 407.532 109.923 407.532C111.56 407.532 112.381 406.364 112.381 403.465V403.468Z" fill="#3B3C3C"/>
<path d="M115.831 403.368V402.619C115.831 398.269 118.09 396.704 120.598 396.704C123.107 396.704 125.278 398.289 125.278 402.553V403.318C125.278 407.582 123.12 409.2 120.561 409.2C118.003 409.2 115.828 407.502 115.828 403.371L115.831 403.368ZM123.02 403.468V402.553C123.02 399.67 122.185 398.388 120.578 398.388C118.971 398.388 118.12 399.603 118.12 402.436V403.368C118.12 406.184 118.921 407.532 120.561 407.532C122.202 407.532 123.02 406.364 123.02 403.465V403.468Z" fill="#3B3C3C"/>
<path d="M81.3256 433.163V432.414C81.3256 428.067 83.5837 426.499 86.0923 426.499C88.6009 426.499 90.7721 428.083 90.7721 432.347V433.113C90.7721 437.377 88.6143 438.995 86.0556 438.995C83.4968 438.995 81.3223 437.294 81.3223 433.163H81.3256ZM88.5141 433.263V432.347C88.5141 429.465 87.679 428.183 86.0723 428.183C84.4655 428.183 83.6138 429.402 83.6138 432.231V433.163C83.6138 435.979 84.4154 437.327 86.0556 437.327C87.6957 437.327 88.5141 436.162 88.5141 433.263Z" fill="#3B3C3C"/>
<path d="M92.166 436.995H94.3406V439.075H92.166V436.995Z" fill="#3B3C3C"/>
<path d="M100.671 436.495H95.0723V435.23L101.242 426.632H102.728V434.881H104.519V436.495H102.728V438.978H100.671V436.495ZM100.691 434.881V430.314L97.4473 434.881H100.691Z" fill="#3B3C3C"/>
<path d="M105.193 433.163V432.414C105.193 428.067 107.451 426.499 109.956 426.499C112.461 426.499 114.636 428.083 114.636 432.347V433.113C114.636 437.377 112.478 438.995 109.923 438.995C107.367 438.995 105.189 437.294 105.189 433.163H105.193ZM112.381 433.263V432.347C112.381 429.465 111.546 428.183 109.939 428.183C108.333 428.183 107.484 429.402 107.484 432.231V433.163C107.484 435.979 108.286 437.327 109.923 437.327C111.56 437.327 112.381 436.162 112.381 433.263Z" fill="#3B3C3C"/>
<path d="M115.831 433.163V432.414C115.831 428.067 118.09 426.499 120.598 426.499C123.107 426.499 125.278 428.083 125.278 432.347V433.113C125.278 437.377 123.12 438.995 120.561 438.995C118.003 438.995 115.828 437.294 115.828 433.163H115.831ZM123.02 433.263V432.347C123.02 429.465 122.185 428.183 120.578 428.183C118.971 428.183 118.12 429.402 118.12 432.231V433.163C118.12 435.979 118.921 437.327 120.561 437.327C122.202 437.327 123.02 436.162 123.02 433.263Z" fill="#3B3C3C"/>
<path d="M82.3451 462.955V462.206C82.3451 457.858 84.6032 456.291 87.1085 456.291C89.6138 456.291 91.7883 457.875 91.7883 462.139V462.905C91.7883 467.169 89.6305 468.786 87.0751 468.786C84.5197 468.786 82.3418 467.085 82.3418 462.955H82.3451ZM89.5336 463.054V462.139C89.5336 459.256 88.6985 457.975 87.0918 457.975C85.4851 457.975 84.6366 459.193 84.6366 462.022V462.955C84.6366 465.771 85.4383 467.119 87.0751 467.119C88.7119 467.119 89.5336 465.954 89.5336 463.054Z" fill="#3B3C3C"/>
<path d="M93.1836 466.786H95.3582V468.867H93.1836V466.786Z" fill="#3B3C3C"/>
<path d="M96.5742 467.302L98.9158 464.852C100.603 463.088 101.959 461.57 101.959 460.055C101.959 458.541 101.157 458.008 99.6006 458.008C98.7488 458.008 97.7433 458.424 97.0753 458.824L96.7245 457.226C97.5429 456.743 98.7822 456.294 100.185 456.294C102.861 456.294 104.23 457.575 104.23 459.776C104.23 461.976 102.373 463.873 100.887 465.408L99.4503 466.872H104.331V468.57H96.5742V467.305V467.302Z" fill="#3B3C3C"/>
<path d="M105.193 462.955V462.206C105.193 457.859 107.451 456.291 109.956 456.291C112.461 456.291 114.636 457.875 114.636 462.139V462.905C114.636 467.169 112.478 468.787 109.923 468.787C107.367 468.787 105.189 467.086 105.189 462.955H105.193ZM112.381 463.055V462.139C112.381 459.257 111.546 457.975 109.939 457.975C108.333 457.975 107.484 459.193 107.484 462.023V462.955C107.484 465.771 108.286 467.119 109.923 467.119C111.56 467.119 112.381 465.954 112.381 463.055Z" fill="#3B3C3C"/>
<path d="M115.831 462.955V462.206C115.831 457.858 118.09 456.291 120.598 456.291C123.107 456.291 125.278 457.875 125.278 462.139V462.905C125.278 467.169 123.12 468.786 120.561 468.786C118.003 468.786 115.828 467.085 115.828 462.955H115.831ZM123.02 463.054V462.139C123.02 459.256 122.185 457.975 120.578 457.975C118.971 457.975 118.12 459.193 118.12 462.022V462.955C118.12 465.771 118.921 467.119 120.561 467.119C122.202 467.119 123.02 465.954 123.02 463.054Z" fill="#3B3C3C"/>
<path d="M80.2905 492.746V491.997C80.2905 487.65 82.5485 486.082 85.0571 486.082C87.5657 486.082 89.737 487.667 89.737 491.931V492.696C89.737 496.96 87.5791 498.578 85.0204 498.578C82.4617 498.578 80.2871 496.877 80.2871 492.746H80.2905ZM87.4822 492.849V491.934C87.4822 489.051 86.6471 487.77 85.0404 487.77C83.4337 487.77 82.5819 488.988 82.5819 491.818V492.75C82.5819 495.566 83.3836 496.914 85.0237 496.914C86.6639 496.914 87.4822 495.749 87.4822 492.849Z" fill="#3B3C3C"/>
<path d="M91.1309 496.581H93.3054V498.661H91.1309V496.581Z" fill="#3B3C3C"/>
<path d="M94.5541 492.746V491.997C94.5541 487.65 96.8122 486.082 99.3175 486.082C101.823 486.082 103.997 487.666 103.997 491.93V492.696C103.997 496.96 101.839 498.578 99.2841 498.578C96.7287 498.578 94.5508 496.877 94.5508 492.746H94.5541ZM101.746 492.849V491.934C101.746 489.051 100.911 487.77 99.3041 487.77C97.6974 487.77 96.8489 488.988 96.8489 491.817V492.749C96.8489 495.565 97.6506 496.914 99.2874 496.914C100.924 496.914 101.746 495.748 101.746 492.849Z" fill="#3B3C3C"/>
<path d="M105.193 492.746V491.997C105.193 487.65 107.451 486.082 109.959 486.082C112.468 486.082 114.639 487.667 114.639 491.931V492.696C114.639 496.96 112.481 498.578 109.923 498.578C107.364 498.578 105.189 496.877 105.189 492.746H105.193ZM112.385 492.849V491.934C112.385 489.051 111.549 487.77 109.943 487.77C108.336 487.77 107.484 488.988 107.484 491.818V492.75C107.484 495.566 108.286 496.914 109.926 496.914C111.566 496.914 112.385 495.749 112.385 492.849Z" fill="#3B3C3C"/>
<path d="M115.831 492.746V491.997C115.831 487.65 118.09 486.082 120.595 486.082C123.1 486.082 125.275 487.666 125.275 491.93V492.696C125.275 496.96 123.117 498.578 120.561 498.578C118.006 498.578 115.828 496.877 115.828 492.746H115.831ZM123.023 492.849V491.934C123.023 489.051 122.188 487.77 120.581 487.77C118.975 487.77 118.126 488.988 118.126 491.817V492.749C118.126 495.565 118.928 496.914 120.565 496.914C122.202 496.914 123.023 495.748 123.023 492.849Z" fill="#3B3C3C"/>
<path d="M48.28 476.4V473.98H52.96V476.4H48.28ZM51.62 481.12V468.94H53.9V481.12H51.62ZM55.18 479.72L54.82 477.56C55.6467 477.333 56.54 477.12 57.5 476.92C58.4467 476.72 59.3667 476.553 60.26 476.42C61.14 476.273 61.9067 476.187 62.56 476.16L63.06 478.52C62.3933 478.547 61.6133 478.613 60.72 478.72C59.8267 478.827 58.9 478.967 57.94 479.14C56.9667 479.313 56.0467 479.507 55.18 479.72ZM54.68 472.98L55.1 470.38C55.9133 470.54 56.7467 470.72 57.6 470.92C58.4533 471.12 59.2867 471.327 60.1 471.54C60.9133 471.753 61.6933 471.973 62.44 472.2C63.1733 472.427 63.8333 472.64 64.42 472.84L63.96 475C63.36 474.787 62.68 474.587 61.92 474.4C61.1467 474.2 60.34 474.013 59.5 473.84C58.66 473.653 57.8333 473.487 57.02 473.34C56.1933 473.193 55.4133 473.073 54.68 472.98ZM63.68 481.52V468.52H65.94V481.52H63.68ZM48.06 482.9L48.8 480.66C49.92 481.113 51.0467 481.653 52.18 482.28C53.3 482.893 54.36 483.56 55.36 484.28C56.3467 484.987 57.22 485.72 57.98 486.48C57.78 486.56 57.52 486.673 57.2 486.82C56.88 486.967 56.56 487.127 56.24 487.3C55.92 487.473 55.6667 487.627 55.48 487.76C54.88 487.12 54.1867 486.5 53.4 485.9C52.6133 485.287 51.76 484.727 50.84 484.22C49.92 483.713 48.9933 483.273 48.06 482.9ZM53.58 484.84L51.3 482.56H51.32H66.74V484.84H53.58ZM48.02 455.56L48.46 453.24C49.5533 453.867 50.5733 454.653 51.52 455.6C52.4667 456.547 53.32 457.72 54.08 459.12C53.8933 459.227 53.6933 459.367 53.48 459.54C53.2667 459.7 53.0667 459.88 52.88 460.08C52.68 460.267 52.5267 460.44 52.42 460.6C51.8333 459.333 51.1467 458.287 50.36 457.46C49.5733 456.633 48.7933 456 48.02 455.56ZM49.76 455.54V450.98H51.68V456.9L49.76 455.54ZM49.76 451.84V451.42L49.68 451.02L50.36 449.5C51.4133 449.887 52.36 450.393 53.2 451.02C54.0267 451.633 54.76 452.347 55.4 453.16C56.0267 453.973 56.5667 454.853 57.02 455.8C57.4733 456.747 57.8533 457.747 58.16 458.8C57.8667 458.92 57.5333 459.1 57.16 459.34C56.7733 459.58 56.4733 459.813 56.26 460.04C56.0333 459.093 55.74 458.193 55.38 457.34C55.0067 456.487 54.56 455.7 54.04 454.98C53.52 454.247 52.9333 453.613 52.28 453.08C51.6133 452.547 50.8867 452.133 50.1 451.84H49.76ZM53.12 457.84L51.94 456.34C52.1133 456.047 52.3133 455.74 52.54 455.42C52.7667 455.1 53 454.8 53.24 454.52C53.4667 454.24 53.6867 454.007 53.9 453.82L55.2 455.4C55 455.56 54.78 455.78 54.54 456.06C54.2867 456.327 54.04 456.62 53.8 456.94C53.5467 457.247 53.32 457.547 53.12 457.84ZM55.8 454.6L56.22 452.28C57.38 452.907 58.4733 453.72 59.5 454.72C60.5267 455.72 61.4533 456.967 62.28 458.46C62.0933 458.567 61.8933 458.707 61.68 458.88C61.4667 459.04 61.26 459.213 61.06 459.4C60.86 459.587 60.7067 459.767 60.6 459.94C60.1733 459.033 59.7 458.233 59.18 457.54C58.6467 456.847 58.0933 456.26 57.52 455.78C56.9467 455.287 56.3733 454.893 55.8 454.6ZM57.56 454.52V450.24H59.52V455.88L57.56 454.52ZM57.56 451.04V450.56L57.48 450.14L58.1 448.6C59.4067 449 60.5467 449.54 61.52 450.22C62.48 450.887 63.3067 451.68 64 452.6C64.6933 453.52 65.2667 454.54 65.72 455.66C66.1867 456.767 66.5667 457.96 66.86 459.24C66.5533 459.347 66.1933 459.513 65.78 459.74C65.38 459.967 65.06 460.193 64.82 460.42C64.62 459.273 64.3333 458.2 63.96 457.2C63.5867 456.2 63.12 455.293 62.56 454.48C61.9867 453.653 61.3133 452.953 60.54 452.38C59.7667 451.793 58.8867 451.347 57.9 451.04H57.56ZM61.26 457.3L59.92 455.7C60.1067 455.353 60.3267 454.993 60.58 454.62C60.82 454.247 61.0733 453.9 61.34 453.58C61.5933 453.26 61.84 453 62.08 452.8L63.52 454.5C63.2933 454.687 63.0467 454.933 62.78 455.24C62.5 455.547 62.2267 455.88 61.96 456.24C61.6933 456.6 61.46 456.953 61.26 457.3ZM49.88 464.3V461.98H66.78V464.3H49.88ZM53.64 467.18V459.84H55.86V467.18H53.64ZM54.54 464.18L55.14 462.78C55.86 462.967 56.6067 463.193 57.38 463.46C58.1533 463.727 58.92 464.02 59.68 464.34C60.4267 464.66 61.1333 465 61.8 465.36C62.4667 465.72 63.0467 466.093 63.54 466.48C63.1933 466.6 62.8067 466.773 62.38 467C61.94 467.213 61.5667 467.413 61.26 467.6C60.86 467.253 60.3933 466.913 59.86 466.58C59.3133 466.233 58.7333 465.907 58.12 465.6C57.5067 465.293 56.8933 465.02 56.28 464.78C55.6667 464.54 55.0867 464.34 54.54 464.18ZM48.22 461.2L50.06 459.58C50.3133 460.26 50.5467 461.007 50.76 461.82C50.9733 462.633 51.16 463.467 51.32 464.32C51.4667 465.16 51.5933 465.967 51.7 466.74C51.4333 466.793 51.1267 466.887 50.78 467.02C50.42 467.153 50.1133 467.287 49.86 467.42C49.74 466.687 49.6 465.94 49.44 465.18C49.2667 464.407 49.0733 463.68 48.86 463C48.6467 462.307 48.4333 461.707 48.22 461.2ZM56.42 462.02C56.5133 461.9 56.6867 461.72 56.94 461.48C57.18 461.227 57.4467 460.96 57.74 460.68C58.0333 460.387 58.3067 460.127 58.56 459.9C58.8 459.673 58.9733 459.507 59.08 459.4L60.98 460.78C60.7267 460.9 60.44 461.06 60.12 461.26C59.8 461.447 59.4667 461.653 59.12 461.88C58.7733 462.093 58.4467 462.307 58.14 462.52C57.82 462.733 57.56 462.92 57.36 463.08L56.42 462.02ZM57.4 434.74C55.9733 434.74 54.6667 434.56 53.48 434.2C52.2933 433.84 51.2267 433.36 50.28 432.76C49.3333 432.16 48.5067 431.507 47.8 430.8L48.64 428.9C49.3467 429.567 50.14 430.173 51.02 430.72C51.8867 431.253 52.8467 431.68 53.9 432C54.9533 432.32 56.12 432.48 57.4 432.48C58.6667 432.48 59.8333 432.32 60.9 432C61.9533 431.68 62.9133 431.253 63.78 430.72C64.6467 430.173 65.44 429.567 66.16 428.9L67 430.8C66.2933 431.507 65.4667 432.16 64.52 432.76C63.5733 433.36 62.5067 433.84 61.32 434.2C60.1333 434.56 58.8267 434.74 57.4 434.74ZM49.46 426.94L49.46 409.04H51.12L51.12 426.94H49.46ZM48 419.34V416.82H50.66V419.34H48ZM63.2 426.66L62.14 409.7L63.6 409.56L64.72 426.52L63.2 426.66ZM61 425.72L60.06 411.02L61.4 410.88L62.36 425.58L61 425.72ZM57.78 413.98L59 412.8C59.1733 413.533 59.3267 414.347 59.46 415.24C59.58 416.133 59.6933 417.067 59.8 418.04C59.9067 419.013 59.9933 419.993 60.06 420.98C60.1267 421.967 60.18 422.927 60.22 423.86C60.0467 423.873 59.84 423.92 59.6 424C59.3467 424.08 59.14 424.16 58.98 424.24C58.9267 423.347 58.86 422.427 58.78 421.48C58.7 420.52 58.6133 419.58 58.52 418.66C58.4133 417.74 58.3 416.88 58.18 416.08C58.06 415.28 57.9267 414.58 57.78 413.98ZM59.26 419.86V417.48H64.22C64.5667 417.48 64.7867 417.387 64.88 417.2C64.9733 417.013 65.02 416.613 65.02 416C65.02 415.88 65.02 415.693 65.02 415.44C65.02 415.187 65.02 414.893 65.02 414.56C65.02 414.227 65.02 413.893 65.02 413.56C65.02 413.227 65.02 412.92 65.02 412.64C65.02 412.36 65.02 412.147 65.02 412C65.02 411.693 64.9933 411.46 64.94 411.3C64.8733 411.127 64.7533 411.007 64.58 410.94C64.4067 410.86 64.1467 410.8 63.8 410.76C63.9467 410.507 64.08 410.187 64.2 409.8C64.3067 409.413 64.3867 409.067 64.44 408.76C65.04 408.84 65.5067 408.987 65.84 409.2C66.1733 409.413 66.4 409.72 66.52 410.12C66.6533 410.52 66.72 411.067 66.72 411.76C66.72 411.893 66.72 412.113 66.72 412.42C66.72 412.713 66.72 413.047 66.72 413.42C66.72 413.793 66.72 414.173 66.72 414.56C66.72 414.933 66.72 415.267 66.72 415.56C66.72 415.853 66.72 416.067 66.72 416.2C66.72 417.147 66.6467 417.887 66.5 418.42C66.3533 418.953 66.1 419.327 65.74 419.54C65.38 419.753 64.8733 419.86 64.22 419.86H59.26ZM56.32 426.74L56.32 409.2H59.74V411.38H57.88L57.88 424.66H59.86V426.74H56.32ZM53.24 421.88H54.24V414.16H53.24V421.88ZM51.92 424.28L51.92 411.6H55.58L55.58 424.28H51.92ZM55.5 407V388.98H57.92V407H55.5ZM48.02 399.3V396.72H66.8V399.3H48.02ZM48.88 392.32L49.92 389.64C50.5067 389.987 51.1 390.347 51.7 390.72C52.2867 391.093 52.8467 391.467 53.38 391.84C53.9133 392.213 54.3867 392.567 54.8 392.9L53.86 395C53.42 394.68 52.9133 394.353 52.34 394.02C51.7533 393.687 51.16 393.373 50.56 393.08C49.96 392.773 49.4 392.52 48.88 392.32ZM49.92 406.06L48.98 403.88C49.4333 403.507 49.9333 403.147 50.48 402.8C51.0267 402.44 51.5667 402.12 52.1 401.84C52.6333 401.547 53.12 401.333 53.56 401.2L54.62 403.58C54.1933 403.7 53.7133 403.887 53.18 404.14C52.6333 404.393 52.08 404.693 51.52 405.04C50.9467 405.373 50.4133 405.713 49.92 406.06ZM56.76 400.24L57.56 398.14C58.4133 398.58 59.2533 399.087 60.08 399.66C60.8933 400.233 61.6733 400.853 62.42 401.52C63.1667 402.173 63.8533 402.86 64.48 403.58C65.1067 404.287 65.66 405.007 66.14 405.74C65.94 405.873 65.7133 406.047 65.46 406.26C65.2067 406.473 64.96 406.693 64.72 406.92C64.48 407.133 64.28 407.333 64.12 407.52C63.72 406.813 63.2467 406.113 62.7 405.42C62.1533 404.713 61.56 404.04 60.92 403.4C60.2667 402.747 59.5867 402.153 58.88 401.62C58.1733 401.073 57.4667 400.613 56.76 400.24ZM56.6 395.88C57.3067 395.493 58.0133 395.027 58.72 394.48C59.4133 393.92 60.0867 393.307 60.74 392.64C61.3933 391.973 62 391.28 62.56 390.56C63.1067 389.84 63.5733 389.127 63.96 388.42C64.12 388.62 64.3267 388.833 64.58 389.06C64.82 389.287 65.0667 389.507 65.32 389.72C65.5867 389.933 65.8333 390.113 66.06 390.26C65.5667 390.98 65 391.7 64.36 392.42C63.72 393.14 63.0267 393.84 62.28 394.52C61.5333 395.187 60.7533 395.813 59.94 396.4C59.1133 396.973 58.28 397.493 57.44 397.96L56.6 395.88ZM67.76 384.12L66.14 384.76C65.8733 383.92 65.5067 383.28 65.04 382.84C64.5867 382.387 64.0667 382.16 63.48 382.16L61.52 382.32L63.3 381.2C63.4467 381.373 63.56 381.56 63.64 381.76C63.72 381.96 63.76 382.173 63.76 382.4C63.76 382.893 63.6067 383.333 63.3 383.72C62.98 384.107 62.5333 384.3 61.96 384.3C61.4 384.3 60.96 384.107 60.64 383.72C60.32 383.333 60.16 382.873 60.16 382.34C60.16 381.633 60.4067 381.1 60.9 380.74C61.3933 380.367 62.06 380.18 62.9 380.18C64.0333 380.18 65.0333 380.527 65.9 381.22C66.7667 381.913 67.3867 382.88 67.76 384.12ZM52.1 366.84V365.16H64.48V366.84H52.1ZM52.1 361.8V360.18H63.68V361.8H52.1ZM48.28 364.44V362.56H61.76V364.44H48.28ZM56.26 355.46V353.36H66.8V355.46H56.26ZM60.74 366.04V361.06H62.66V366.04H60.74ZM57.72 358.9V349.76H59.48V358.9H57.72ZM62.76 359.7V349.02H64.58V359.7H62.76ZM60.22 358.66V350.04H61.92V358.66H60.22ZM49.48 352.24V351.84L49.38 351.48L50.08 350.04C51.04 350.453 51.9133 350.98 52.7 351.62C53.4733 352.247 54.16 352.967 54.76 353.78C55.36 354.58 55.8867 355.44 56.34 356.36C56.78 357.28 57.1533 358.227 57.46 359.2C57.2067 359.32 56.9067 359.5 56.56 359.74C56.2133 359.967 55.9333 360.18 55.72 360.38C55.4933 359.5 55.1933 358.64 54.82 357.8C54.4467 356.96 54.0133 356.18 53.52 355.46C53.0133 354.727 52.4467 354.087 51.82 353.54C51.1933 352.98 50.52 352.547 49.8 352.24H49.48ZM48 356.2L48.5 354.28C49.5667 354.773 50.5533 355.42 51.46 356.22C52.3667 357.007 53.12 357.833 53.72 358.7C53.6 358.807 53.46 358.953 53.3 359.14C53.1267 359.327 52.9533 359.52 52.78 359.72C52.6067 359.907 52.4733 360.073 52.38 360.22C51.8733 359.367 51.24 358.587 50.48 357.88C49.7067 357.16 48.88 356.6 48 356.2ZM50.82 355.94C51.5667 355.473 52.2533 354.86 52.88 354.1C53.5067 353.34 54.0467 352.467 54.5 351.48C54.94 350.48 55.28 349.407 55.52 348.26C55.7333 348.5 56.0267 348.753 56.4 349.02C56.76 349.287 57.0867 349.5 57.38 349.66C57.06 350.833 56.62 351.933 56.06 352.96C55.4867 353.973 54.8067 354.88 54.02 355.68C53.2333 356.467 52.3533 357.133 51.38 357.68L50.82 355.94ZM49.48 356.1V351.56H51.24V357.32L49.48 356.1ZM52.1 346.84V345.16H64.48V346.84H52.1ZM52.1 341.8V340.18H63.68V341.8H52.1ZM48.28 344.44V342.56H61.76V344.44H48.28ZM56.26 335.46V333.36H66.8V335.46H56.26ZM60.74 346.04V341.06H62.66V346.04H60.74ZM57.72 338.9V329.76H59.48V338.9H57.72ZM62.76 339.7V329.02H64.58V339.7H62.76ZM60.22 338.66V330.04H61.92V338.66H60.22ZM49.48 332.24V331.84L49.38 331.48L50.08 330.04C51.04 330.453 51.9133 330.98 52.7 331.62C53.4733 332.247 54.16 332.967 54.76 333.78C55.36 334.58 55.8867 335.44 56.34 336.36C56.78 337.28 57.1533 338.227 57.46 339.2C57.2067 339.32 56.9067 339.5 56.56 339.74C56.2133 339.967 55.9333 340.18 55.72 340.38C55.4933 339.5 55.1933 338.64 54.82 337.8C54.4467 336.96 54.0133 336.18 53.52 335.46C53.0133 334.727 52.4467 334.087 51.82 333.54C51.1933 332.98 50.52 332.547 49.8 332.24H49.48ZM48 336.2L48.5 334.28C49.5667 334.773 50.5533 335.42 51.46 336.22C52.3667 337.007 53.12 337.833 53.72 338.7C53.6 338.807 53.46 338.953 53.3 339.14C53.1267 339.327 52.9533 339.52 52.78 339.72C52.6067 339.907 52.4733 340.073 52.38 340.22C51.8733 339.367 51.24 338.587 50.48 337.88C49.7067 337.16 48.88 336.6 48 336.2ZM50.82 335.94C51.5667 335.473 52.2533 334.86 52.88 334.1C53.5067 333.34 54.0467 332.467 54.5 331.48C54.94 330.48 55.28 329.407 55.52 328.26C55.7333 328.5 56.0267 328.753 56.4 329.02C56.76 329.287 57.0867 329.5 57.38 329.66C57.06 330.833 56.62 331.933 56.06 332.96C55.4867 333.973 54.8067 334.88 54.02 335.68C53.2333 336.467 52.3533 337.133 51.38 337.68L50.82 335.94ZM49.48 336.1V331.56H51.24V337.32L49.48 336.1ZM49.84 321.3L49.84 309.1H51.88L51.88 321.3H49.84ZM64.4 322.18V308.64H66.42V322.18H64.4ZM53.26 320.44V310.18H64.78V312.38H55.02V318.34H64.78V320.44H53.26ZM56.1 318.86V312H57.76V318.86H56.1ZM58.88 318.92V311.46H60.5V318.92H58.88ZM61.62 318.96V311.96H63.26V318.96H61.62ZM48.04 316.3L48.12 313.76C48.8267 313.867 49.5467 313.993 50.28 314.14C51 314.287 51.6867 314.433 52.34 314.58C52.9933 314.727 53.5667 314.873 54.06 315.02L53.9 317.1C53.3667 316.98 52.76 316.867 52.08 316.76C51.4 316.653 50.7067 316.56 50 316.48C49.2933 316.387 48.64 316.327 48.04 316.3ZM48.06 323.28L48.78 321.06C49.9 321.473 51.0333 321.96 52.18 322.52C53.3133 323.08 54.3867 323.687 55.4 324.34C56.4133 324.98 57.3067 325.647 58.08 326.34C57.88 326.407 57.6267 326.52 57.32 326.68C57 326.827 56.68 326.98 56.36 327.14C56.04 327.3 55.78 327.453 55.58 327.6C54.98 327.027 54.28 326.473 53.48 325.94C52.6667 325.393 51.8 324.893 50.88 324.44C49.96 323.987 49.02 323.6 48.06 323.28ZM53.62 325.24L51.36 323.04L51.38 323.02H66.78V325.24H53.62ZM57.4 301.26C58.8267 301.26 60.1333 301.44 61.32 301.8C62.5067 302.16 63.5733 302.64 64.52 303.24C65.4667 303.827 66.2933 304.48 67 305.2L66.16 307.1C65.44 306.433 64.6467 305.833 63.78 305.3C62.9133 304.753 61.9533 304.32 60.9 304C59.8333 303.68 58.6667 303.52 57.4 303.52C56.12 303.52 54.9533 303.68 53.9 304C52.8467 304.32 51.8867 304.753 51.02 305.3C50.14 305.833 49.3467 306.433 48.64 307.1L47.8 305.2C48.5067 304.48 49.3333 303.827 50.28 303.24C51.2267 302.64 52.2933 302.16 53.48 301.8C54.6667 301.44 55.9733 301.26 57.4 301.26Z" fill="#3B3C3C"/>
<path d="M387.24 534.12H396.14V536.2H387.24V534.12ZM391 535.42L393.14 535.92C392.913 536.48 392.693 537.02 392.48 537.54C392.267 538.06 392.067 538.513 391.88 538.9L389.96 538.44C390.147 538.013 390.34 537.52 390.54 536.96C390.74 536.387 390.893 535.873 391 535.42ZM387.68 537.92H395.74V547.26H393.66V539.68H389.66V547.34H387.68V537.92ZM390.72 540.46H392.66C392.647 541.9 392.613 543.173 392.56 544.28C392.507 545.373 392.38 546.34 392.18 547.18C391.993 548.007 391.7 548.72 391.3 549.32C390.9 549.907 390.36 550.407 389.68 550.82C389 551.233 388.127 551.593 387.06 551.9C386.98 551.647 386.827 551.347 386.6 551C386.387 550.653 386.18 550.38 385.98 550.18C386.913 549.953 387.673 549.68 388.26 549.36C388.86 549.027 389.327 548.62 389.66 548.14C389.993 547.66 390.233 547.073 390.38 546.38C390.527 545.687 390.62 544.853 390.66 543.88C390.7 542.907 390.72 541.767 390.72 540.46ZM391.44 548.62L392.74 547.32C393.153 547.613 393.6 547.947 394.08 548.32C394.56 548.68 395.02 549.04 395.46 549.4C395.9 549.76 396.26 550.087 396.54 550.38L395.16 551.84C394.893 551.547 394.547 551.207 394.12 550.82C393.707 550.447 393.26 550.067 392.78 549.68C392.313 549.293 391.867 548.94 391.44 548.62ZM382.86 535.14H386.64V537.08H382.86V535.14ZM377.58 538.94H387.1V541.04H377.58V538.94ZM381.96 532.98H384.06V540.12H381.96V532.98ZM378.8 534.74H380.68V540.2H378.8V534.74ZM385.12 542.22L387.16 542.66C386.8 544.34 386.267 545.773 385.56 546.96C384.867 548.133 383.96 549.113 382.84 549.9C381.733 550.687 380.367 551.34 378.74 551.86C378.633 551.553 378.467 551.22 378.24 550.86C378.013 550.513 377.787 550.227 377.56 550C379.013 549.627 380.24 549.113 381.24 548.46C382.253 547.807 383.073 546.967 383.7 545.94C384.327 544.913 384.8 543.673 385.12 542.22ZM379.1 541.96L381.08 542.38C380.88 543.22 380.607 544.047 380.26 544.86C379.927 545.673 379.56 546.353 379.16 546.9C379.04 546.793 378.873 546.673 378.66 546.54C378.447 546.407 378.227 546.273 378 546.14C377.787 546.007 377.6 545.9 377.44 545.82C377.827 545.327 378.16 544.74 378.44 544.06C378.72 543.367 378.94 542.667 379.1 541.96ZM381.48 540.54H383.66V547.1H381.48V540.54ZM405.7 533.02H408.18V535.82H405.7V533.02ZM405.7 544.72H408.18V551.8H405.7V544.72ZM397.98 546H416.06V548.22H397.98V546ZM398.64 534.96H415.44V537.14H398.64V534.96ZM413.42 537.38L415.56 538.4C415.053 538.867 414.527 539.32 413.98 539.76C413.433 540.187 412.933 540.56 412.48 540.88L410.72 539.94C411.027 539.713 411.34 539.453 411.66 539.16C411.993 538.867 412.313 538.567 412.62 538.26C412.94 537.94 413.207 537.647 413.42 537.38ZM405.52 536.52L407.54 537.28C407.14 537.8 406.727 538.32 406.3 538.84C405.887 539.36 405.507 539.8 405.16 540.16L403.66 539.5C403.873 539.22 404.093 538.907 404.32 538.56C404.547 538.213 404.767 537.86 404.98 537.5C405.193 537.14 405.373 536.813 405.52 536.52ZM408.52 537.98L410.38 538.84C409.833 539.48 409.233 540.147 408.58 540.84C407.927 541.52 407.273 542.173 406.62 542.8C405.967 543.413 405.347 543.953 404.76 544.42L403.36 543.64C403.947 543.147 404.553 542.58 405.18 541.94C405.82 541.287 406.433 540.613 407.02 539.92C407.607 539.227 408.107 538.58 408.52 537.98ZM402.66 539.72L403.78 538.36C404.167 538.587 404.58 538.847 405.02 539.14C405.46 539.433 405.88 539.727 406.28 540.02C406.68 540.3 407.007 540.56 407.26 540.8L406.08 542.36C405.84 542.107 405.527 541.827 405.14 541.52C404.753 541.2 404.34 540.887 403.9 540.58C403.46 540.26 403.047 539.973 402.66 539.72ZM402.48 542.92C403.147 542.893 403.907 542.867 404.76 542.84C405.613 542.8 406.52 542.76 407.48 542.72C408.44 542.667 409.407 542.62 410.38 542.58L410.36 544.28C409.027 544.387 407.7 544.493 406.38 544.6C405.06 544.707 403.873 544.793 402.82 544.86L402.48 542.92ZM407.98 541.58L409.68 540.86C409.973 541.233 410.26 541.64 410.54 542.08C410.833 542.507 411.1 542.933 411.34 543.36C411.58 543.787 411.753 544.173 411.86 544.52L410.06 545.34C409.953 544.993 409.787 544.607 409.56 544.18C409.347 543.74 409.1 543.293 408.82 542.84C408.553 542.373 408.273 541.953 407.98 541.58ZM397.76 543.28C398.4 543.08 399.167 542.807 400.06 542.46C400.967 542.113 401.887 541.767 402.82 541.42L403.24 543.18C402.52 543.54 401.773 543.9 401 544.26C400.24 544.62 399.54 544.94 398.9 545.22L397.76 543.28ZM398.36 538.86L399.96 537.58C400.307 537.767 400.673 537.987 401.06 538.24C401.46 538.48 401.833 538.727 402.18 538.98C402.54 539.233 402.833 539.467 403.06 539.68L401.38 541.1C401.18 540.887 400.907 540.647 400.56 540.38C400.227 540.113 399.867 539.847 399.48 539.58C399.093 539.313 398.72 539.073 398.36 538.86ZM410.28 542.58L411.92 541.26C412.373 541.487 412.867 541.753 413.4 542.06C413.933 542.367 414.44 542.68 414.92 543C415.4 543.307 415.8 543.587 416.12 543.84L414.38 545.3C414.1 545.033 413.727 544.74 413.26 544.42C412.793 544.1 412.3 543.773 411.78 543.44C411.26 543.107 410.76 542.82 410.28 542.58ZM430.26 542.4C430.26 540.973 430.44 539.667 430.8 538.48C431.16 537.293 431.64 536.227 432.24 535.28C432.84 534.333 433.493 533.507 434.2 532.8L436.1 533.64C435.433 534.347 434.827 535.14 434.28 536.02C433.747 536.887 433.32 537.847 433 538.9C432.68 539.953 432.52 541.12 432.52 542.4C432.52 543.667 432.68 544.833 433 545.9C433.32 546.953 433.747 547.913 434.28 548.78C434.827 549.647 435.433 550.44 436.1 551.16L434.2 552C433.493 551.293 432.84 550.467 432.24 549.52C431.64 548.573 431.16 547.507 430.8 546.32C430.44 545.133 430.26 543.827 430.26 542.4ZM450.42 533H452.62V540.46H450.42V533ZM446.9 539.04H456.2V541.22H446.9V539.04ZM447.42 535.22H455.5V537.32H447.42V535.22ZM449.46 540.52H451.28C451.253 542.307 451.167 543.913 451.02 545.34C450.873 546.767 450.573 548.02 450.12 549.1C449.68 550.167 448.98 551.067 448.02 551.8C447.887 551.533 447.687 551.233 447.42 550.9C447.167 550.58 446.92 550.327 446.68 550.14C447.52 549.527 448.127 548.78 448.5 547.9C448.887 547.007 449.14 545.953 449.26 544.74C449.38 543.513 449.447 542.107 449.46 540.52ZM453.6 542.58L455.22 542.2C455.447 542.72 455.653 543.287 455.84 543.9C456.027 544.513 456.18 545.113 456.3 545.7C456.433 546.273 456.527 546.787 456.58 547.24L454.84 547.68C454.8 547.213 454.72 546.687 454.6 546.1C454.493 545.513 454.353 544.913 454.18 544.3C454.007 543.687 453.813 543.113 453.6 542.58ZM447.58 542.18L449.26 542.5C449.113 543.5 448.9 544.473 448.62 545.42C448.34 546.367 448.013 547.167 447.64 547.82C447.48 547.687 447.247 547.533 446.94 547.36C446.633 547.173 446.38 547.033 446.18 546.94C446.54 546.34 446.833 545.62 447.06 544.78C447.287 543.927 447.46 543.06 447.58 542.18ZM451.96 540.54H453.86V549.68C453.86 550.147 453.813 550.527 453.72 550.82C453.64 551.113 453.453 551.34 453.16 551.5C452.867 551.66 452.513 551.76 452.1 551.8C451.7 551.84 451.213 551.853 450.64 551.84C450.613 551.573 450.547 551.253 450.44 550.88C450.347 550.52 450.233 550.2 450.1 549.92C450.447 549.933 450.767 549.94 451.06 549.94C451.367 549.94 451.573 549.94 451.68 549.94C451.8 549.94 451.873 549.92 451.9 549.88C451.94 549.84 451.96 549.767 451.96 549.66V540.54ZM441.32 533H443.52V540.46H441.32V533ZM437.82 539.04H446.42V541.22H437.82V539.04ZM438.58 535.22H446.02V537.32H438.58V535.22ZM440.42 540.52H442.28C442.267 542.307 442.187 543.92 442.04 545.36C441.907 546.787 441.62 548.04 441.18 549.12C440.753 550.2 440.08 551.113 439.16 551.86C439.013 551.593 438.807 551.293 438.54 550.96C438.287 550.627 438.033 550.36 437.78 550.16C438.58 549.547 439.16 548.793 439.52 547.9C439.893 547.007 440.133 545.947 440.24 544.72C440.347 543.493 440.407 542.093 440.42 540.52ZM444.42 542.8L445.82 542.28C446.113 542.8 446.373 543.373 446.6 544C446.827 544.627 446.987 545.173 447.08 545.64L445.58 546.2C445.513 545.733 445.367 545.18 445.14 544.54C444.913 543.9 444.673 543.32 444.42 542.8ZM438.52 542.32L440.18 542.66C440.047 543.527 439.86 544.4 439.62 545.28C439.393 546.16 439.14 546.9 438.86 547.5C438.7 547.38 438.467 547.24 438.16 547.08C437.853 546.907 437.6 546.773 437.4 546.68C437.68 546.12 437.907 545.453 438.08 544.68C438.267 543.893 438.413 543.107 438.52 542.32ZM442.9 540.54H444.82V549.56C444.82 550.027 444.773 550.4 444.68 550.68C444.587 550.973 444.4 551.2 444.12 551.36C443.84 551.52 443.5 551.62 443.1 551.66C442.713 551.7 442.24 551.72 441.68 551.72C441.667 551.44 441.607 551.12 441.5 550.76C441.407 550.4 441.293 550.08 441.16 549.8C441.48 549.813 441.78 549.82 442.06 549.82C442.34 549.82 442.533 549.813 442.64 549.8C442.747 549.8 442.813 549.787 442.84 549.76C442.88 549.72 442.9 549.647 442.9 549.54V540.54ZM461.32 538.16L463.78 538.86C463.46 539.407 463.127 539.967 462.78 540.54C462.447 541.113 462.113 541.653 461.78 542.16C461.447 542.667 461.127 543.12 460.82 543.52L459 542.86C459.28 542.433 459.567 541.947 459.86 541.4C460.153 540.853 460.427 540.293 460.68 539.72C460.933 539.147 461.147 538.627 461.32 538.16ZM464.24 541.1L466.54 542.02C466.087 542.7 465.593 543.393 465.06 544.1C464.54 544.807 464.007 545.513 463.46 546.22C462.913 546.913 462.373 547.573 461.84 548.2C461.307 548.827 460.793 549.393 460.3 549.9L458.62 549.04C459.1 548.507 459.593 547.92 460.1 547.28C460.62 546.627 461.133 545.947 461.64 545.24C462.147 544.52 462.62 543.807 463.06 543.1C463.5 542.393 463.893 541.727 464.24 541.1ZM463.32 546.88L465.22 546.14C465.487 546.633 465.733 547.167 465.96 547.74C466.187 548.3 466.387 548.86 466.56 549.42C466.733 549.967 466.853 550.46 466.92 550.9L464.88 551.72C464.827 551.28 464.72 550.78 464.56 550.22C464.413 549.66 464.233 549.087 464.02 548.5C463.807 547.913 463.573 547.373 463.32 546.88ZM457.7 542.82L458.98 540.98C459.5 541.34 460.013 541.733 460.52 542.16C461.04 542.587 461.52 543.013 461.96 543.44C462.413 543.853 462.787 544.233 463.08 544.58L461.68 546.7C461.413 546.34 461.06 545.933 460.62 545.48C460.18 545.013 459.707 544.547 459.2 544.08C458.693 543.613 458.193 543.193 457.7 542.82ZM457.64 548.66C458.587 548.633 459.74 548.587 461.1 548.52C462.46 548.453 463.86 548.387 465.3 548.32L465.28 550.34C463.973 550.487 462.673 550.62 461.38 550.74C460.087 550.873 458.927 550.987 457.9 551.08L457.64 548.66ZM469.96 538.18L472.44 538.9C472.107 539.447 471.753 540.007 471.38 540.58C471.02 541.153 470.66 541.7 470.3 542.22C469.94 542.74 469.6 543.2 469.28 543.6L467.48 542.92C467.773 542.493 468.073 542.007 468.38 541.46C468.7 540.913 468.993 540.353 469.26 539.78C469.54 539.193 469.773 538.66 469.96 538.18ZM473.12 540.94L475.42 541.86C474.953 542.54 474.453 543.24 473.92 543.96C473.4 544.667 472.86 545.373 472.3 546.08C471.74 546.773 471.187 547.433 470.64 548.06C470.107 548.687 469.593 549.253 469.1 549.76L467.4 548.9C467.893 548.38 468.4 547.793 468.92 547.14C469.453 546.473 469.973 545.787 470.48 545.08C471 544.36 471.48 543.647 471.92 542.94C472.373 542.233 472.773 541.567 473.12 540.94ZM472.12 546.6L474.04 545.64C474.413 546.147 474.767 546.707 475.1 547.32C475.433 547.92 475.727 548.513 475.98 549.1C476.247 549.687 476.44 550.213 476.56 550.68L474.52 551.76C474.4 551.28 474.213 550.74 473.96 550.14C473.72 549.54 473.44 548.933 473.12 548.32C472.8 547.693 472.467 547.12 472.12 546.6ZM466.42 542.92L467.7 541.12C468.22 541.48 468.747 541.873 469.28 542.3C469.813 542.727 470.307 543.153 470.76 543.58C471.213 543.993 471.587 544.373 471.88 544.72L470.48 546.82C470.2 546.447 469.833 546.033 469.38 545.58C468.94 545.127 468.46 544.667 467.94 544.2C467.42 543.72 466.913 543.293 466.42 542.92ZM466.84 548.66C467.8 548.633 468.96 548.587 470.32 548.52C471.693 548.453 473.093 548.387 474.52 548.32V550.34C473.213 550.487 471.913 550.62 470.62 550.74C469.327 550.873 468.167 550.987 467.14 551.08L466.84 548.66ZM458.12 536.26H475.92V538.46H458.12V536.26ZM460.78 534L462.88 533.08C463.12 533.373 463.36 533.693 463.6 534.04C463.853 534.373 464.08 534.713 464.28 535.06C464.493 535.393 464.653 535.7 464.76 535.98L462.52 537.02C462.427 536.74 462.28 536.427 462.08 536.08C461.893 535.733 461.687 535.373 461.46 535C461.233 534.627 461.007 534.293 460.78 534ZM470.92 533L473.42 533.86C473.007 534.407 472.587 534.96 472.16 535.52C471.733 536.067 471.353 536.527 471.02 536.9L469.12 536.14C469.333 535.847 469.553 535.52 469.78 535.16C470.007 534.787 470.22 534.413 470.42 534.04C470.62 533.667 470.787 533.32 470.92 533ZM483.74 542.4C483.74 543.827 483.56 545.133 483.2 546.32C482.84 547.507 482.36 548.573 481.76 549.52C481.173 550.467 480.52 551.293 479.8 552L477.9 551.16C478.567 550.44 479.167 549.647 479.7 548.78C480.247 547.913 480.68 546.953 481 545.9C481.32 544.833 481.48 543.667 481.48 542.4C481.48 541.12 481.32 539.953 481 538.9C480.68 537.847 480.247 536.887 479.7 536.02C479.167 535.14 478.567 534.347 477.9 533.64L479.8 532.8C480.52 533.507 481.173 534.333 481.76 535.28C482.36 536.227 482.84 537.293 483.2 538.48C483.56 539.667 483.74 540.973 483.74 542.4Z" fill="#3B3C3C"/>
<path d="M611 238V222H627V238H611Z" fill="#202858"/>
<path d="M731 238V222H747V238H731Z" fill="#B0B0B0"/>
<path d="M639.05 227.964H648.842V229.962H639.05V227.964ZM639.05 231.816H648.842V233.814H639.05V231.816ZM639.05 235.686H648.842V237.684H639.05V235.686ZM637.592 224.04H650.66V238.566H648.374V226.11H639.77V238.602H637.592V224.04ZM642.704 221.682L645.314 221.97C645.098 222.558 644.87 223.134 644.63 223.698C644.39 224.262 644.168 224.748 643.964 225.156L641.984 224.796C642.08 224.496 642.176 224.166 642.272 223.806C642.368 223.434 642.452 223.068 642.524 222.708C642.608 222.336 642.668 221.994 642.704 221.682ZM660.866 221.718H663.098V224.292H660.866V221.718ZM654.368 223.14H669.704V227.19H667.49V225.102H656.492V227.19H654.368V223.14ZM657.122 226.236H666.842V228.072H657.122V226.236ZM658.868 229.458L660.542 228.486C661.394 229.074 662.078 229.734 662.594 230.466C663.11 231.186 663.488 231.924 663.728 232.68C663.968 233.424 664.082 234.144 664.07 234.84C664.058 235.524 663.944 236.136 663.728 236.676C663.512 237.204 663.206 237.612 662.81 237.9C662.474 238.188 662.138 238.386 661.802 238.494C661.478 238.602 661.076 238.656 660.596 238.656C660.38 238.668 660.14 238.668 659.876 238.656C659.612 238.644 659.342 238.632 659.066 238.62C659.054 238.32 659 237.972 658.904 237.576C658.808 237.192 658.658 236.85 658.454 236.55C658.79 236.574 659.102 236.598 659.39 236.622C659.69 236.634 659.954 236.64 660.182 236.64C660.41 236.64 660.614 236.616 660.794 236.568C660.974 236.52 661.136 236.418 661.28 236.262C661.496 236.094 661.652 235.836 661.748 235.488C661.856 235.128 661.892 234.708 661.856 234.228C661.832 233.736 661.712 233.22 661.496 232.68C661.292 232.128 660.974 231.576 660.542 231.024C660.122 230.472 659.564 229.95 658.868 229.458ZM661.73 226.704L663.512 227.46C662.876 228.108 662.108 228.696 661.208 229.224C660.308 229.74 659.348 230.196 658.328 230.592C657.32 230.988 656.318 231.318 655.322 231.582C655.25 231.438 655.148 231.264 655.016 231.06C654.884 230.844 654.746 230.628 654.602 230.412C654.458 230.196 654.326 230.022 654.206 229.89C655.178 229.698 656.138 229.452 657.086 229.152C658.046 228.852 658.928 228.498 659.732 228.09C660.536 227.67 661.202 227.208 661.73 226.704ZM660.326 230.286L661.712 231.258C661.22 231.642 660.62 232.038 659.912 232.446C659.204 232.854 658.466 233.232 657.698 233.58C656.942 233.928 656.228 234.222 655.556 234.462C655.436 234.222 655.274 233.94 655.07 233.616C654.866 233.292 654.668 233.028 654.476 232.824C654.956 232.704 655.466 232.554 656.006 232.374C656.558 232.182 657.098 231.972 657.626 231.744C658.166 231.516 658.67 231.282 659.138 231.042C659.606 230.79 660.002 230.538 660.326 230.286ZM661.784 232.014L663.26 233.112C662.78 233.568 662.21 234.024 661.55 234.48C660.902 234.936 660.2 235.374 659.444 235.794C658.7 236.202 657.944 236.58 657.176 236.928C656.408 237.276 655.67 237.57 654.962 237.81C654.83 237.534 654.656 237.228 654.44 236.892C654.236 236.544 654.032 236.25 653.828 236.01C654.536 235.842 655.268 235.614 656.024 235.326C656.78 235.038 657.518 234.714 658.238 234.354C658.958 233.994 659.624 233.616 660.236 233.22C660.848 232.812 661.364 232.41 661.784 232.014ZM664.502 227.01C664.802 228.27 665.21 229.452 665.726 230.556C666.242 231.66 666.884 232.632 667.652 233.472C668.432 234.312 669.356 234.972 670.424 235.452C670.268 235.596 670.094 235.776 669.902 235.992C669.71 236.208 669.524 236.436 669.344 236.676C669.176 236.916 669.032 237.132 668.912 237.324C667.784 236.712 666.818 235.92 666.014 234.948C665.21 233.964 664.544 232.836 664.016 231.564C663.488 230.28 663.05 228.888 662.702 227.388L664.502 227.01ZM668.03 228.18L669.704 229.638C669.296 229.95 668.858 230.268 668.39 230.592C667.922 230.904 667.46 231.198 667.004 231.474C666.548 231.738 666.122 231.978 665.726 232.194L664.358 230.88C664.73 230.664 665.138 230.406 665.582 230.106C666.038 229.794 666.482 229.47 666.914 229.134C667.346 228.798 667.718 228.48 668.03 228.18ZM677.714 222.942H688.082V224.706H677.714V222.942ZM677.39 233.058H688.154V234.84H677.39V233.058ZM679.82 221.7H681.872V225.732H679.82V221.7ZM683.96 221.7H686.048V225.732H683.96V221.7ZM680.216 229.728V230.52H685.166V229.728H680.216ZM680.216 227.55V228.324H685.166V227.55H680.216ZM678.218 226.038H687.254V232.014H678.218V226.038ZM681.692 231.816H683.798C683.726 232.668 683.594 233.448 683.402 234.156C683.21 234.864 682.904 235.506 682.484 236.082C682.064 236.646 681.482 237.138 680.738 237.558C679.994 237.978 679.016 238.332 677.804 238.62C677.72 238.356 677.564 238.05 677.336 237.702C677.12 237.366 676.91 237.096 676.706 236.892C677.762 236.676 678.602 236.418 679.226 236.118C679.862 235.818 680.348 235.458 680.684 235.038C681.02 234.606 681.254 234.126 681.386 233.598C681.53 233.058 681.632 232.464 681.692 231.816ZM684.302 233.688C684.638 234.468 685.172 235.128 685.904 235.668C686.636 236.208 687.548 236.586 688.64 236.802C688.484 236.946 688.322 237.12 688.154 237.324C687.986 237.528 687.824 237.738 687.668 237.954C687.524 238.182 687.404 238.392 687.308 238.584C686.072 238.236 685.064 237.678 684.284 236.91C683.504 236.142 682.904 235.188 682.484 234.048L684.302 233.688ZM671.756 225.066H677.39V227.064H671.756V225.066ZM673.718 221.7H675.752V238.602H673.718V221.7ZM673.934 226.542L675.086 227.01C674.966 227.754 674.81 228.516 674.618 229.296C674.438 230.076 674.228 230.844 673.988 231.6C673.76 232.344 673.508 233.04 673.232 233.688C672.956 234.336 672.668 234.894 672.368 235.362C672.296 235.158 672.2 234.924 672.08 234.66C671.972 234.396 671.852 234.132 671.72 233.868C671.588 233.604 671.456 233.376 671.324 233.184C671.612 232.8 671.888 232.35 672.152 231.834C672.428 231.306 672.68 230.742 672.908 230.142C673.136 229.542 673.334 228.936 673.502 228.324C673.67 227.7 673.814 227.106 673.934 226.542ZM675.644 227.55C675.752 227.682 675.914 227.91 676.13 228.234C676.358 228.546 676.592 228.888 676.832 229.26C677.084 229.632 677.312 229.98 677.516 230.304C677.732 230.616 677.876 230.844 677.948 230.988L676.67 232.5C676.562 232.224 676.424 231.9 676.256 231.528C676.088 231.144 675.908 230.754 675.716 230.358C675.524 229.95 675.332 229.572 675.14 229.224C674.948 228.864 674.786 228.57 674.654 228.342L675.644 227.55ZM696.218 224.562H704.984V230.826H702.968V226.578H696.218V224.562ZM695.768 229.8H706.118V231.852H695.768V229.8ZM701.672 230.574C702.044 231.978 702.62 233.22 703.4 234.3C704.18 235.38 705.2 236.19 706.46 236.73C706.304 236.874 706.13 237.06 705.938 237.288C705.746 237.516 705.56 237.75 705.38 237.99C705.212 238.23 705.068 238.452 704.948 238.656C704.048 238.176 703.268 237.558 702.608 236.802C701.96 236.046 701.414 235.176 700.97 234.192C700.526 233.208 700.154 232.128 699.854 230.952L701.672 230.574ZM698.882 221.898H700.952V228.288C700.952 229.272 700.892 230.256 700.772 231.24C700.652 232.212 700.4 233.154 700.016 234.066C699.644 234.966 699.08 235.806 698.324 236.586C697.58 237.366 696.578 238.056 695.318 238.656C695.222 238.488 695.084 238.302 694.904 238.098C694.736 237.894 694.556 237.69 694.364 237.486C694.184 237.294 694.01 237.138 693.842 237.018C694.97 236.502 695.87 235.914 696.542 235.254C697.214 234.582 697.718 233.868 698.054 233.112C698.39 232.344 698.612 231.558 698.72 230.754C698.828 229.938 698.882 229.116 698.882 228.288V221.898ZM689.792 225.876H695.498V227.928H689.792V225.876ZM691.718 221.952H693.734V233.886H691.718V221.952ZM689.468 233.598C689.96 233.43 690.524 233.22 691.16 232.968C691.808 232.704 692.486 232.422 693.194 232.122C693.914 231.822 694.634 231.522 695.354 231.222L695.858 233.13C694.922 233.598 693.968 234.066 692.996 234.534C692.036 234.99 691.148 235.398 690.332 235.758L689.468 233.598Z" fill="#3B3C3C"/>
<path d="M765.926 221.79H767.96V234.336H765.926V221.79ZM759.842 228.846L770.534 224.67L771.362 226.542L760.688 230.754L759.842 228.846ZM762.056 223.716H764.18V235.146C764.18 235.506 764.21 235.776 764.27 235.956C764.342 236.136 764.474 236.256 764.666 236.316C764.87 236.376 765.164 236.406 765.548 236.406C765.656 236.406 765.83 236.406 766.07 236.406C766.31 236.406 766.58 236.406 766.88 236.406C767.192 236.406 767.498 236.406 767.798 236.406C768.11 236.406 768.386 236.406 768.626 236.406C768.878 236.406 769.064 236.406 769.184 236.406C769.544 236.406 769.814 236.34 769.994 236.208C770.174 236.076 770.306 235.836 770.39 235.488C770.474 235.128 770.546 234.606 770.606 233.922C770.846 234.09 771.152 234.252 771.524 234.408C771.908 234.564 772.25 234.678 772.55 234.75C772.454 235.65 772.298 236.364 772.082 236.892C771.878 237.408 771.56 237.78 771.128 238.008C770.708 238.236 770.12 238.35 769.364 238.35C769.244 238.35 769.046 238.35 768.77 238.35C768.494 238.35 768.188 238.35 767.852 238.35C767.516 238.35 767.18 238.35 766.844 238.35C766.508 238.35 766.208 238.35 765.944 238.35C765.68 238.35 765.488 238.35 765.368 238.35C764.504 238.35 763.832 238.254 763.352 238.062C762.872 237.882 762.536 237.558 762.344 237.09C762.152 236.622 762.056 235.974 762.056 235.146V223.716ZM769.814 225.03H769.67L770.048 224.76L770.426 224.49L771.902 225.048L771.83 225.39C771.83 226.434 771.824 227.37 771.812 228.198C771.8 229.014 771.782 229.704 771.758 230.268C771.734 230.82 771.704 231.228 771.668 231.492C771.632 231.948 771.524 232.302 771.344 232.554C771.176 232.806 770.948 232.998 770.66 233.13C770.384 233.25 770.054 233.328 769.67 233.364C769.286 233.388 768.932 233.394 768.608 233.382C768.596 233.082 768.548 232.734 768.464 232.338C768.38 231.942 768.272 231.63 768.14 231.402C768.344 231.414 768.554 231.426 768.77 231.438C768.986 231.438 769.148 231.438 769.256 231.438C769.376 231.438 769.472 231.414 769.544 231.366C769.616 231.306 769.67 231.192 769.706 231.024C769.73 230.88 769.748 230.58 769.76 230.124C769.772 229.668 769.784 229.02 769.796 228.18C769.808 227.34 769.814 226.29 769.814 225.03ZM759.356 221.772L761.354 222.42C760.97 223.428 760.514 224.442 759.986 225.462C759.458 226.482 758.888 227.448 758.276 228.36C757.664 229.26 757.034 230.052 756.386 230.736C756.326 230.568 756.224 230.346 756.08 230.07C755.948 229.794 755.804 229.518 755.648 229.242C755.504 228.954 755.372 228.72 755.252 228.54C755.792 227.988 756.314 227.352 756.818 226.632C757.334 225.912 757.808 225.138 758.24 224.31C758.684 223.482 759.056 222.636 759.356 221.772ZM757.538 226.758L759.644 224.634L759.662 224.652V238.584H757.538V226.758ZM780.38 235.974H790.622V238.098H780.38V235.974ZM781.118 227.28H790.19V229.368H781.118V227.28ZM784.538 221.88H786.77V237H784.538V221.88ZM773.918 225.048H779.804V226.992H773.918V225.048ZM776.492 231.186L778.634 228.63V238.62H776.492V231.186ZM776.492 221.718H778.634V225.948H776.492V221.718ZM778.4 229.242C778.568 229.35 778.796 229.53 779.084 229.782C779.384 230.022 779.702 230.292 780.038 230.592C780.374 230.88 780.68 231.15 780.956 231.402C781.232 231.642 781.43 231.816 781.55 231.924L780.254 233.688C780.074 233.46 779.852 233.196 779.588 232.896C779.336 232.584 779.066 232.266 778.778 231.942C778.49 231.618 778.208 231.312 777.932 231.024C777.656 230.736 777.422 230.496 777.23 230.304L778.4 229.242ZM779.03 225.048H779.444L779.822 224.958L781.028 225.75C780.584 226.926 780.002 228.048 779.282 229.116C778.562 230.172 777.77 231.126 776.906 231.978C776.042 232.83 775.16 233.538 774.26 234.102C774.2 233.91 774.104 233.682 773.972 233.418C773.852 233.142 773.726 232.884 773.594 232.644C773.474 232.392 773.354 232.194 773.234 232.05C774.062 231.618 774.854 231.054 775.61 230.358C776.366 229.65 777.044 228.876 777.644 228.036C778.244 227.184 778.706 226.314 779.03 225.426V225.048ZM797.714 222.942H808.082V224.706H797.714V222.942ZM797.39 233.058H808.154V234.84H797.39V233.058ZM799.82 221.7H801.872V225.732H799.82V221.7ZM803.96 221.7H806.048V225.732H803.96V221.7ZM800.216 229.728V230.52H805.166V229.728H800.216ZM800.216 227.55V228.324H805.166V227.55H800.216ZM798.218 226.038H807.254V232.014H798.218V226.038ZM801.692 231.816H803.798C803.726 232.668 803.594 233.448 803.402 234.156C803.21 234.864 802.904 235.506 802.484 236.082C802.064 236.646 801.482 237.138 800.738 237.558C799.994 237.978 799.016 238.332 797.804 238.62C797.72 238.356 797.564 238.05 797.336 237.702C797.12 237.366 796.91 237.096 796.706 236.892C797.762 236.676 798.602 236.418 799.226 236.118C799.862 235.818 800.348 235.458 800.684 235.038C801.02 234.606 801.254 234.126 801.386 233.598C801.53 233.058 801.632 232.464 801.692 231.816ZM804.302 233.688C804.638 234.468 805.172 235.128 805.904 235.668C806.636 236.208 807.548 236.586 808.64 236.802C808.484 236.946 808.322 237.12 808.154 237.324C807.986 237.528 807.824 237.738 807.668 237.954C807.524 238.182 807.404 238.392 807.308 238.584C806.072 238.236 805.064 237.678 804.284 236.91C803.504 236.142 802.904 235.188 802.484 234.048L804.302 233.688ZM791.756 225.066H797.39V227.064H791.756V225.066ZM793.718 221.7H795.752V238.602H793.718V221.7ZM793.934 226.542L795.086 227.01C794.966 227.754 794.81 228.516 794.618 229.296C794.438 230.076 794.228 230.844 793.988 231.6C793.76 232.344 793.508 233.04 793.232 233.688C792.956 234.336 792.668 234.894 792.368 235.362C792.296 235.158 792.2 234.924 792.08 234.66C791.972 234.396 791.852 234.132 791.72 233.868C791.588 233.604 791.456 233.376 791.324 233.184C791.612 232.8 791.888 232.35 792.152 231.834C792.428 231.306 792.68 230.742 792.908 230.142C793.136 229.542 793.334 228.936 793.502 228.324C793.67 227.7 793.814 227.106 793.934 226.542ZM795.644 227.55C795.752 227.682 795.914 227.91 796.13 228.234C796.358 228.546 796.592 228.888 796.832 229.26C797.084 229.632 797.312 229.98 797.516 230.304C797.732 230.616 797.876 230.844 797.948 230.988L796.67 232.5C796.562 232.224 796.424 231.9 796.256 231.528C796.088 231.144 795.908 230.754 795.716 230.358C795.524 229.95 795.332 229.572 795.14 229.224C794.948 228.864 794.786 228.57 794.654 228.342L795.644 227.55ZM816.218 224.562H824.984V230.826H822.968V226.578H816.218V224.562ZM815.768 229.8H826.118V231.852H815.768V229.8ZM821.672 230.574C822.044 231.978 822.62 233.22 823.4 234.3C824.18 235.38 825.2 236.19 826.46 236.73C826.304 236.874 826.13 237.06 825.938 237.288C825.746 237.516 825.56 237.75 825.38 237.99C825.212 238.23 825.068 238.452 824.948 238.656C824.048 238.176 823.268 237.558 822.608 236.802C821.96 236.046 821.414 235.176 820.97 234.192C820.526 233.208 820.154 232.128 819.854 230.952L821.672 230.574ZM818.882 221.898H820.952V228.288C820.952 229.272 820.892 230.256 820.772 231.24C820.652 232.212 820.4 233.154 820.016 234.066C819.644 234.966 819.08 235.806 818.324 236.586C817.58 237.366 816.578 238.056 815.318 238.656C815.222 238.488 815.084 238.302 814.904 238.098C814.736 237.894 814.556 237.69 814.364 237.486C814.184 237.294 814.01 237.138 813.842 237.018C814.97 236.502 815.87 235.914 816.542 235.254C817.214 234.582 817.718 233.868 818.054 233.112C818.39 232.344 818.612 231.558 818.72 230.754C818.828 229.938 818.882 229.116 818.882 228.288V221.898ZM809.792 225.876H815.498V227.928H809.792V225.876ZM811.718 221.952H813.734V233.886H811.718V221.952ZM809.468 233.598C809.96 233.43 810.524 233.22 811.16 232.968C811.808 232.704 812.486 232.422 813.194 232.122C813.914 231.822 814.634 231.522 815.354 231.222L815.858 233.13C814.922 233.598 813.968 234.066 812.996 234.534C812.036 234.99 811.148 235.398 810.332 235.758L809.468 233.598Z" fill="#3B3C3C"/>
</svg>
