<svg width="1520" height="209" viewBox="0 0 1520 209" fill="none" xmlns="http://www.w3.org/2000/svg">
<rect y="153" width="164" height="56" rx="28" fill="url(#paint0_linear_1143_354)"/>
<path d="M44.176 172.32L37.912 189H34.744L28.456 172.32H31.384L36.328 186.192L41.296 172.32H44.176ZM47.3761 174.024C46.8801 174.024 46.4641 173.856 46.1281 173.52C45.7921 173.184 45.6241 172.768 45.6241 172.272C45.6241 171.776 45.7921 171.36 46.1281 171.024C46.4641 170.688 46.8801 170.52 47.3761 170.52C47.8561 170.52 48.2641 170.688 48.6001 171.024C48.9361 171.36 49.1041 171.776 49.1041 172.272C49.1041 172.768 48.9361 173.184 48.6001 173.52C48.2641 173.856 47.8561 174.024 47.3761 174.024ZM48.7201 175.776V189H45.9841V175.776H48.7201ZM54.5682 177.744C55.0322 177.104 55.6642 176.584 56.4642 176.184C57.2802 175.768 58.1842 175.56 59.1762 175.56C60.3442 175.56 61.4002 175.84 62.3442 176.4C63.2882 176.96 64.0322 177.76 64.5762 178.8C65.1202 179.824 65.3922 181 65.3922 182.328C65.3922 183.656 65.1202 184.848 64.5762 185.904C64.0322 186.944 63.2802 187.76 62.3202 188.352C61.3762 188.928 60.3282 189.216 59.1762 189.216C58.1522 189.216 57.2402 189.016 56.4402 188.616C55.6562 188.216 55.0322 187.704 54.5682 187.08V189H51.8322V171.24H54.5682V177.744ZM62.6082 182.328C62.6082 181.416 62.4162 180.632 62.0322 179.976C61.6642 179.304 61.1682 178.8 60.5442 178.464C59.9362 178.112 59.2802 177.936 58.5762 177.936C57.8882 177.936 57.2322 178.112 56.6082 178.464C56.0002 178.816 55.5042 179.328 55.1202 180C54.7522 180.672 54.5682 181.464 54.5682 182.376C54.5682 183.288 54.7522 184.088 55.1202 184.776C55.5042 185.448 56.0002 185.96 56.6082 186.312C57.2322 186.664 57.8882 186.84 58.5762 186.84C59.2802 186.84 59.9362 186.664 60.5442 186.312C61.1682 185.944 61.6642 185.416 62.0322 184.728C62.4162 184.04 62.6082 183.24 62.6082 182.328ZM70.3538 177.696C70.7538 177.024 71.2818 176.504 71.9378 176.136C72.6098 175.752 73.4018 175.56 74.3138 175.56V178.392H73.6178C72.5458 178.392 71.7298 178.664 71.1698 179.208C70.6258 179.752 70.3538 180.696 70.3538 182.04V189H67.6178V175.776H70.3538V177.696ZM75.4368 182.328C75.4368 181 75.7088 179.824 76.2528 178.8C76.8128 177.776 77.5648 176.984 78.5088 176.424C79.4688 175.848 80.5248 175.56 81.6768 175.56C82.7168 175.56 83.6208 175.768 84.3888 176.184C85.1728 176.584 85.7968 177.088 86.2608 177.696V175.776H89.0208V189H86.2608V187.032C85.7968 187.656 85.1648 188.176 84.3648 188.592C83.5648 189.008 82.6528 189.216 81.6288 189.216C80.4928 189.216 79.4528 188.928 78.5088 188.352C77.5648 187.76 76.8128 186.944 76.2528 185.904C75.7088 184.848 75.4368 183.656 75.4368 182.328ZM86.2608 182.376C86.2608 181.464 86.0688 180.672 85.6848 180C85.3168 179.328 84.8288 178.816 84.2208 178.464C83.6128 178.112 82.9568 177.936 82.2528 177.936C81.5488 177.936 80.8928 178.112 80.2848 178.464C79.6768 178.8 79.1808 179.304 78.7968 179.976C78.4288 180.632 78.2448 181.416 78.2448 182.328C78.2448 183.24 78.4288 184.04 78.7968 184.728C79.1808 185.416 79.6768 185.944 80.2848 186.312C80.9088 186.664 81.5648 186.84 82.2528 186.84C82.9568 186.84 83.6128 186.664 84.2208 186.312C84.8288 185.96 85.3168 185.448 85.6848 184.776C86.0688 184.088 86.2608 183.288 86.2608 182.376ZM95.3264 178.008V185.328C95.3264 185.824 95.4384 186.184 95.6624 186.408C95.9024 186.616 96.3024 186.72 96.8624 186.72H98.5424V189H96.3824C95.1504 189 94.2064 188.712 93.5504 188.136C92.8944 187.56 92.5664 186.624 92.5664 185.328V178.008H91.0064V175.776H92.5664V172.488H95.3264V175.776H98.5424V178.008H95.3264ZM101.976 174.024C101.48 174.024 101.064 173.856 100.728 173.52C100.392 173.184 100.224 172.768 100.224 172.272C100.224 171.776 100.392 171.36 100.728 171.024C101.064 170.688 101.48 170.52 101.976 170.52C102.456 170.52 102.864 170.688 103.2 171.024C103.536 171.36 103.704 171.776 103.704 172.272C103.704 172.768 103.536 173.184 103.2 173.52C102.864 173.856 102.456 174.024 101.976 174.024ZM103.32 175.776V189H100.584V175.776H103.32ZM112.168 189.216C110.92 189.216 109.792 188.936 108.784 188.376C107.776 187.8 106.984 187 106.408 185.976C105.832 184.936 105.544 183.736 105.544 182.376C105.544 181.032 105.84 179.84 106.432 178.8C107.024 177.76 107.832 176.96 108.856 176.4C109.88 175.84 111.024 175.56 112.288 175.56C113.552 175.56 114.696 175.84 115.72 176.4C116.744 176.96 117.552 177.76 118.144 178.8C118.736 179.84 119.032 181.032 119.032 182.376C119.032 183.72 118.728 184.912 118.12 185.952C117.512 186.992 116.68 187.8 115.624 188.376C114.584 188.936 113.432 189.216 112.168 189.216ZM112.168 186.84C112.872 186.84 113.528 186.672 114.136 186.336C114.76 186 115.264 185.496 115.648 184.824C116.032 184.152 116.224 183.336 116.224 182.376C116.224 181.416 116.04 180.608 115.672 179.952C115.304 179.28 114.816 178.776 114.208 178.44C113.6 178.104 112.944 177.936 112.24 177.936C111.536 177.936 110.88 178.104 110.272 178.44C109.68 178.776 109.208 179.28 108.856 179.952C108.504 180.608 108.328 181.416 108.328 182.376C108.328 183.8 108.688 184.904 109.408 185.688C110.144 186.456 111.064 186.84 112.168 186.84ZM127.929 175.56C128.969 175.56 129.897 175.776 130.713 176.208C131.545 176.64 132.193 177.28 132.657 178.128C133.121 178.976 133.353 180 133.353 181.2V189H130.641V181.608C130.641 180.424 130.345 179.52 129.753 178.896C129.161 178.256 128.353 177.936 127.329 177.936C126.305 177.936 125.489 178.256 124.881 178.896C124.289 179.52 123.993 180.424 123.993 181.608V189H121.257V175.776H123.993V177.288C124.441 176.744 125.009 176.32 125.697 176.016C126.401 175.712 127.145 175.56 127.929 175.56Z" fill="white"/>
<g clip-path="url(#clip0_1143_354)">
<g clip-path="url(#clip1_1143_354)">
<path d="M55.7917 121.382C55.2001 121.382 54.6085 121.159 54.1615 120.712L37.2421 103.792C36.3481 102.898 36.3481 101.439 37.2421 100.545L52.8075 84.9796L37.1763 69.3484C36.2824 68.4545 36.2824 66.9952 37.1763 66.1013L52.3079 50.9697L37.3998 36.0616C36.9528 35.6278 36.7162 35.0231 36.7294 34.392C36.7294 33.7742 37.0054 33.1826 37.4656 32.7487L54.0564 17.2491C54.9898 16.3814 56.4359 16.434 57.3035 17.3542C58.1712 18.2876 58.1186 19.7337 57.1984 20.6014L42.3429 34.4709L57.1984 49.3264C58.0923 50.2204 58.0923 51.6796 57.1984 52.5736L42.0668 67.7051L57.6979 83.3363C58.5919 84.2302 58.5919 85.6895 57.6979 86.5834L42.1325 102.149L57.4219 117.438C58.3158 118.332 58.3158 119.791 57.4219 120.685C56.9749 121.132 56.3833 121.356 55.7917 121.356V121.382Z" fill="white"/>
<path d="M78.8366 121.382C78.245 121.382 77.6534 121.159 77.2065 120.712L60.287 103.792C59.8531 103.358 59.6165 102.78 59.6165 102.162C59.6165 101.544 59.8531 100.966 60.287 100.532L75.8524 84.9664L60.2213 69.3353C59.3273 68.4413 59.3273 66.982 60.2213 66.0881L75.3528 50.9565L60.4447 36.0485C59.9978 35.6146 59.7611 35.0099 59.7743 34.3789C59.7743 33.761 60.0503 33.1694 60.5105 32.7355L77.1013 17.2359C78.0347 16.3682 79.4808 16.4208 80.3485 17.3411C81.2161 18.2745 81.1635 19.7206 80.2433 20.5882L65.3878 34.4577L80.2433 49.3132C81.1372 50.2072 81.1372 51.6664 80.2433 52.5604L65.1117 67.692L80.7429 83.3231C81.6368 84.217 81.6368 85.6763 80.7429 86.5702L65.1775 102.136L80.4799 117.425C81.3739 118.319 81.3739 119.778 80.4799 120.672C80.0329 121.119 79.4414 121.343 78.8498 121.343L78.8366 121.382Z" fill="white"/>
<path d="M101.87 121.382C101.278 121.382 100.687 121.159 100.24 120.712L83.3204 103.792C82.8865 103.358 82.6499 102.78 82.6499 102.162C82.6499 101.544 82.8865 100.966 83.3204 100.532L98.8858 84.9664L83.2546 69.3353C82.3607 68.4413 82.3607 66.982 83.2546 66.0881L98.3862 50.9565L83.4781 36.0485C83.0311 35.6146 82.7945 35.0099 82.8077 34.3789C82.8077 33.761 83.0837 33.1694 83.5439 32.7355L100.135 17.2359C101.068 16.3682 102.514 16.4208 103.382 17.3411C104.25 18.2745 104.197 19.7206 103.277 20.5882L88.4212 34.4577L103.277 49.3132C104.171 50.2072 104.171 51.6664 103.277 52.5604L88.1451 67.692L103.776 83.3231C104.67 84.217 104.67 85.6763 103.776 86.5702L88.2108 102.136L103.513 117.425C104.407 118.319 104.407 119.778 103.513 120.672C103.066 121.119 102.475 121.343 101.883 121.343L101.87 121.382Z" fill="white"/>
<path d="M124.915 121.382C124.323 121.382 123.732 121.159 123.285 120.712L106.365 103.792C105.931 103.358 105.695 102.78 105.695 102.162C105.695 101.544 105.931 100.966 106.365 100.532L121.931 84.9664L106.299 69.3353C105.405 68.4413 105.405 66.982 106.299 66.0881L121.431 50.9565L106.523 36.0485C106.076 35.6146 105.839 35.0099 105.852 34.3789C105.852 33.761 106.128 33.1694 106.589 32.7355L123.179 17.2359C124.113 16.3682 125.559 16.4208 126.427 17.3411C127.294 18.2745 127.242 19.7206 126.321 20.5882L111.466 34.4577L126.321 49.3132C126.755 49.7471 126.992 50.3255 126.992 50.9434C126.992 51.5613 126.755 52.1397 126.321 52.5735L111.19 67.7051L126.821 83.3362C127.715 84.2302 127.715 85.6894 126.821 86.5834L111.256 102.149L126.558 117.438C127.452 118.332 127.452 119.791 126.558 120.685C126.111 121.132 125.519 121.356 124.928 121.356L124.915 121.382Z" fill="white"/>
</g>
</g>
<rect x="1263" y="148" width="257" height="56" rx="28" fill="url(#paint1_linear_1143_354)"/>
<path d="M1301.73 175.432C1302.62 175.592 1303.38 176.064 1304.01 176.848C1304.63 177.632 1304.94 178.52 1304.94 179.512C1304.94 180.36 1304.72 181.128 1304.27 181.816C1303.84 182.488 1303.21 183.024 1302.38 183.424C1301.54 183.808 1300.58 184 1299.47 184H1292.8V167.32H1299.16C1300.3 167.32 1301.27 167.512 1302.09 167.896C1302.9 168.28 1303.52 168.8 1303.94 169.456C1304.35 170.096 1304.56 170.816 1304.56 171.616C1304.56 172.576 1304.3 173.376 1303.79 174.016C1303.28 174.656 1302.59 175.128 1301.73 175.432ZM1295.54 174.328H1298.92C1299.82 174.328 1300.51 174.128 1301.01 173.728C1301.52 173.312 1301.78 172.72 1301.78 171.952C1301.78 171.2 1301.52 170.616 1301.01 170.2C1300.51 169.768 1299.82 169.552 1298.92 169.552H1295.54V174.328ZM1299.23 181.768C1300.16 181.768 1300.89 181.544 1301.42 181.096C1301.94 180.648 1302.21 180.024 1302.21 179.224C1302.21 178.408 1301.93 177.76 1301.37 177.28C1300.81 176.8 1300.06 176.56 1299.14 176.56H1295.54V181.768H1299.23ZM1310.17 172.696C1310.57 172.024 1311.1 171.504 1311.76 171.136C1312.43 170.752 1313.22 170.56 1314.13 170.56V173.392H1313.44C1312.37 173.392 1311.55 173.664 1310.99 174.208C1310.45 174.752 1310.17 175.696 1310.17 177.04V184H1307.44V170.776H1310.17V172.696ZM1315.26 177.328C1315.26 176 1315.53 174.824 1316.07 173.8C1316.63 172.776 1317.38 171.984 1318.33 171.424C1319.29 170.848 1320.34 170.56 1321.5 170.56C1322.54 170.56 1323.44 170.768 1324.21 171.184C1324.99 171.584 1325.62 172.088 1326.08 172.696V170.776H1328.84V184H1326.08V182.032C1325.62 182.656 1324.98 183.176 1324.18 183.592C1323.38 184.008 1322.47 184.216 1321.45 184.216C1320.31 184.216 1319.27 183.928 1318.33 183.352C1317.38 182.76 1316.63 181.944 1316.07 180.904C1315.53 179.848 1315.26 178.656 1315.26 177.328ZM1326.08 177.376C1326.08 176.464 1325.89 175.672 1325.5 175C1325.14 174.328 1324.65 173.816 1324.04 173.464C1323.43 173.112 1322.78 172.936 1322.07 172.936C1321.37 172.936 1320.71 173.112 1320.1 173.464C1319.5 173.8 1319 174.304 1318.62 174.976C1318.25 175.632 1318.06 176.416 1318.06 177.328C1318.06 178.24 1318.25 179.04 1318.62 179.728C1319 180.416 1319.5 180.944 1320.1 181.312C1320.73 181.664 1321.38 181.84 1322.07 181.84C1322.78 181.84 1323.43 181.664 1324.04 181.312C1324.65 180.96 1325.14 180.448 1325.5 179.776C1325.89 179.088 1326.08 178.288 1326.08 177.376ZM1333.35 169.024C1332.85 169.024 1332.43 168.856 1332.1 168.52C1331.76 168.184 1331.59 167.768 1331.59 167.272C1331.59 166.776 1331.76 166.36 1332.1 166.024C1332.43 165.688 1332.85 165.52 1333.35 165.52C1333.83 165.52 1334.23 165.688 1334.57 166.024C1334.91 166.36 1335.07 166.776 1335.07 167.272C1335.07 167.768 1334.91 168.184 1334.57 168.52C1334.23 168.856 1333.83 169.024 1333.35 169.024ZM1334.69 170.776V184H1331.95V170.776H1334.69ZM1344.47 170.56C1345.51 170.56 1346.44 170.776 1347.26 171.208C1348.09 171.64 1348.74 172.28 1349.2 173.128C1349.67 173.976 1349.9 175 1349.9 176.2V184H1347.19V176.608C1347.19 175.424 1346.89 174.52 1346.3 173.896C1345.71 173.256 1344.9 172.936 1343.87 172.936C1342.85 172.936 1342.03 173.256 1341.43 173.896C1340.83 174.52 1340.54 175.424 1340.54 176.608V184H1337.8V170.776H1340.54V172.288C1340.99 171.744 1341.55 171.32 1342.24 171.016C1342.95 170.712 1343.69 170.56 1344.47 170.56ZM1364.16 184.168C1363.04 184.168 1362.03 183.976 1361.13 183.592C1360.24 183.192 1359.53 182.632 1359.02 181.912C1358.51 181.192 1358.25 180.352 1358.25 179.392H1361.18C1361.25 180.112 1361.53 180.704 1362.02 181.168C1362.53 181.632 1363.25 181.864 1364.16 181.864C1365.1 181.864 1365.84 181.64 1366.37 181.192C1366.89 180.728 1367.16 180.136 1367.16 179.416C1367.16 178.856 1366.99 178.4 1366.65 178.048C1366.33 177.696 1365.93 177.424 1365.43 177.232C1364.95 177.04 1364.28 176.832 1363.41 176.608C1362.33 176.32 1361.44 176.032 1360.75 175.744C1360.08 175.44 1359.5 174.976 1359.02 174.352C1358.54 173.728 1358.3 172.896 1358.3 171.856C1358.3 170.896 1358.54 170.056 1359.02 169.336C1359.5 168.616 1360.17 168.064 1361.04 167.68C1361.9 167.296 1362.9 167.104 1364.04 167.104C1365.65 167.104 1366.97 167.512 1368 168.328C1369.04 169.128 1369.61 170.232 1369.73 171.64H1366.7C1366.65 171.032 1366.37 170.512 1365.84 170.08C1365.31 169.648 1364.61 169.432 1363.75 169.432C1362.97 169.432 1362.33 169.632 1361.83 170.032C1361.33 170.432 1361.09 171.008 1361.09 171.76C1361.09 172.272 1361.24 172.696 1361.54 173.032C1361.86 173.352 1362.26 173.608 1362.74 173.8C1363.22 173.992 1363.88 174.2 1364.71 174.424C1365.81 174.728 1366.71 175.032 1367.4 175.336C1368.1 175.64 1368.69 176.112 1369.17 176.752C1369.67 177.376 1369.92 178.216 1369.92 179.272C1369.92 180.12 1369.69 180.92 1369.22 181.672C1368.77 182.424 1368.11 183.032 1367.23 183.496C1366.37 183.944 1365.34 184.168 1364.16 184.168ZM1375.86 173.008V180.328C1375.86 180.824 1375.97 181.184 1376.19 181.408C1376.43 181.616 1376.83 181.72 1377.39 181.72H1379.07V184H1376.91C1375.68 184 1374.74 183.712 1374.08 183.136C1373.43 182.56 1373.1 181.624 1373.1 180.328V173.008H1371.54V170.776H1373.1V167.488H1375.86V170.776H1379.07V173.008H1375.86ZM1382.51 169.024C1382.01 169.024 1381.6 168.856 1381.26 168.52C1380.92 168.184 1380.76 167.768 1380.76 167.272C1380.76 166.776 1380.92 166.36 1381.26 166.024C1381.6 165.688 1382.01 165.52 1382.51 165.52C1382.99 165.52 1383.4 165.688 1383.73 166.024C1384.07 166.36 1384.24 166.776 1384.24 167.272C1384.24 167.768 1384.07 168.184 1383.73 168.52C1383.4 168.856 1382.99 169.024 1382.51 169.024ZM1383.85 170.776V184H1381.12V170.776H1383.85ZM1402.97 170.56C1404.01 170.56 1404.94 170.776 1405.76 171.208C1406.59 171.64 1407.24 172.28 1407.7 173.128C1408.18 173.976 1408.42 175 1408.42 176.2V184H1405.71V176.608C1405.71 175.424 1405.41 174.52 1404.82 173.896C1404.23 173.256 1403.42 172.936 1402.4 172.936C1401.37 172.936 1400.56 173.256 1399.95 173.896C1399.36 174.52 1399.06 175.424 1399.06 176.608V184H1396.35V176.608C1396.35 175.424 1396.05 174.52 1395.46 173.896C1394.87 173.256 1394.06 172.936 1393.04 172.936C1392.01 172.936 1391.2 173.256 1390.59 173.896C1390 174.52 1389.7 175.424 1389.7 176.608V184H1386.96V170.776H1389.7V172.288C1390.15 171.744 1390.72 171.32 1391.4 171.016C1392.09 170.712 1392.83 170.56 1393.61 170.56C1394.67 170.56 1395.61 170.784 1396.44 171.232C1397.28 171.68 1397.92 172.328 1398.36 173.176C1398.76 172.376 1399.39 171.744 1400.24 171.28C1401.08 170.8 1402 170.56 1402.97 170.56ZM1423.4 170.776V184H1420.66V182.44C1420.23 182.984 1419.66 183.416 1418.96 183.736C1418.27 184.04 1417.53 184.192 1416.75 184.192C1415.71 184.192 1414.77 183.976 1413.94 183.544C1413.13 183.112 1412.48 182.472 1412 181.624C1411.53 180.776 1411.3 179.752 1411.3 178.552V170.776H1414.01V178.144C1414.01 179.328 1414.31 180.24 1414.9 180.88C1415.49 181.504 1416.3 181.816 1417.33 181.816C1418.35 181.816 1419.16 181.504 1419.75 180.88C1420.36 180.24 1420.66 179.328 1420.66 178.144V170.776H1423.4ZM1429.26 166.24V184H1426.53V166.24H1429.26ZM1431.46 177.328C1431.46 176 1431.74 174.824 1432.28 173.8C1432.84 172.776 1433.59 171.984 1434.54 171.424C1435.5 170.848 1436.55 170.56 1437.7 170.56C1438.74 170.56 1439.65 170.768 1440.42 171.184C1441.2 171.584 1441.82 172.088 1442.29 172.696V170.776H1445.05V184H1442.29V182.032C1441.82 182.656 1441.19 183.176 1440.39 183.592C1439.59 184.008 1438.68 184.216 1437.66 184.216C1436.52 184.216 1435.48 183.928 1434.54 183.352C1433.59 182.76 1432.84 181.944 1432.28 180.904C1431.74 179.848 1431.46 178.656 1431.46 177.328ZM1442.29 177.376C1442.29 176.464 1442.1 175.672 1441.71 175C1441.34 174.328 1440.86 173.816 1440.25 173.464C1439.64 173.112 1438.98 172.936 1438.28 172.936C1437.58 172.936 1436.92 173.112 1436.31 173.464C1435.7 173.8 1435.21 174.304 1434.82 174.976C1434.46 175.632 1434.27 176.416 1434.27 177.328C1434.27 178.24 1434.46 179.04 1434.82 179.728C1435.21 180.416 1435.7 180.944 1436.31 181.312C1436.94 181.664 1437.59 181.84 1438.28 181.84C1438.98 181.84 1439.64 181.664 1440.25 181.312C1440.86 180.96 1441.34 180.448 1441.71 179.776C1442.1 179.088 1442.29 178.288 1442.29 177.376ZM1451.35 173.008V180.328C1451.35 180.824 1451.47 181.184 1451.69 181.408C1451.93 181.616 1452.33 181.72 1452.89 181.72H1454.57V184H1452.41C1451.18 184 1450.23 183.712 1449.58 183.136C1448.92 182.56 1448.59 181.624 1448.59 180.328V173.008H1447.03V170.776H1448.59V167.488H1451.35V170.776H1454.57V173.008H1451.35ZM1458 169.024C1457.51 169.024 1457.09 168.856 1456.76 168.52C1456.42 168.184 1456.25 167.768 1456.25 167.272C1456.25 166.776 1456.42 166.36 1456.76 166.024C1457.09 165.688 1457.51 165.52 1458 165.52C1458.48 165.52 1458.89 165.688 1459.23 166.024C1459.56 166.36 1459.73 166.776 1459.73 167.272C1459.73 167.768 1459.56 168.184 1459.23 168.52C1458.89 168.856 1458.48 169.024 1458 169.024ZM1459.35 170.776V184H1456.61V170.776H1459.35ZM1468.2 184.216C1466.95 184.216 1465.82 183.936 1464.81 183.376C1463.8 182.8 1463.01 182 1462.44 180.976C1461.86 179.936 1461.57 178.736 1461.57 177.376C1461.57 176.032 1461.87 174.84 1462.46 173.8C1463.05 172.76 1463.86 171.96 1464.88 171.4C1465.91 170.84 1467.05 170.56 1468.32 170.56C1469.58 170.56 1470.72 170.84 1471.75 171.4C1472.77 171.96 1473.58 172.76 1474.17 173.8C1474.76 174.84 1475.06 176.032 1475.06 177.376C1475.06 178.72 1474.76 179.912 1474.15 180.952C1473.54 181.992 1472.71 182.8 1471.65 183.376C1470.61 183.936 1469.46 184.216 1468.2 184.216ZM1468.2 181.84C1468.9 181.84 1469.56 181.672 1470.16 181.336C1470.79 181 1471.29 180.496 1471.68 179.824C1472.06 179.152 1472.25 178.336 1472.25 177.376C1472.25 176.416 1472.07 175.608 1471.7 174.952C1471.33 174.28 1470.84 173.776 1470.24 173.44C1469.63 173.104 1468.97 172.936 1468.27 172.936C1467.56 172.936 1466.91 173.104 1466.3 173.44C1465.71 173.776 1465.24 174.28 1464.88 174.952C1464.53 175.608 1464.36 176.416 1464.36 177.376C1464.36 178.8 1464.72 179.904 1465.44 180.688C1466.17 181.456 1467.09 181.84 1468.2 181.84ZM1483.96 170.56C1485 170.56 1485.92 170.776 1486.74 171.208C1487.57 171.64 1488.22 172.28 1488.68 173.128C1489.15 173.976 1489.38 175 1489.38 176.2V184H1486.67V176.608C1486.67 175.424 1486.37 174.52 1485.78 173.896C1485.19 173.256 1484.38 172.936 1483.36 172.936C1482.33 172.936 1481.52 173.256 1480.91 173.896C1480.32 174.52 1480.02 175.424 1480.02 176.608V184H1477.28V170.776H1480.02V172.288C1480.47 171.744 1481.04 171.32 1481.72 171.016C1482.43 170.712 1483.17 170.56 1483.96 170.56Z" fill="white"/>
<g clip-path="url(#clip2_1143_354)">
<path d="M1409.08 126.784C1408.97 126.784 1408.83 126.784 1408.72 126.745C1407.65 126.548 1406.94 125.509 1407.15 124.444L1409.51 112.021C1409.7 110.956 1410.75 110.246 1411.81 110.456C1412.87 110.654 1413.58 111.692 1413.37 112.757L1411.02 125.18C1410.83 126.127 1410 126.784 1409.08 126.784Z" fill="white"/>
<path d="M1365.74 126.784C1365.54 126.784 1365.35 126.758 1365.14 126.692C1364.1 126.364 1363.53 125.246 1363.86 124.221C1367.73 112.126 1366.9 104.856 1360.71 96.4291C1356.6 90.7236 1351.17 81.876 1351.17 70.8198C1351.17 59.7637 1355.97 48.3789 1364.35 40.5962C1372.84 32.7083 1383.91 28.8301 1395.54 29.6846C1416 31.1965 1432.35 47.5638 1433.59 67.783C1433.65 68.8742 1433.62 70.0179 1433.46 71.4772C1433.33 72.7261 1433.79 73.7647 1434.36 75.0924L1439.65 87.2529C1440.18 88.4624 1440.06 89.8296 1439.36 90.9339C1438.69 91.9988 1437.55 92.6692 1436.3 92.7613L1431.46 93.5369C1431.46 93.5369 1431.37 93.5895 1431.35 93.6421L1429.75 109.286C1429.46 112.336 1427.02 114.663 1423.94 114.821C1418.46 115.11 1414.47 114.952 1411.07 114.321C1407.7 113.69 1404.75 112.586 1401.18 110.627C1400.22 110.101 1399.88 108.905 1400.41 107.945C1400.93 106.999 1402.13 106.644 1403.09 107.17C1406.27 108.918 1408.87 109.891 1411.81 110.443C1414.89 111.022 1418.59 111.153 1423.74 110.89C1424.85 110.838 1425.73 109.996 1425.82 108.905L1427.42 93.2477C1427.59 91.4203 1429 89.9348 1430.82 89.6324L1435.77 88.8436C1435.85 88.8436 1435.94 88.8173 1436.02 88.8173L1430.74 76.67C1430.05 75.1056 1429.29 73.3308 1429.53 71.0565C1429.66 69.8207 1429.7 68.8873 1429.64 68.0197C1428.54 49.7724 1413.75 34.9826 1395.24 33.6154C1384.74 32.8398 1374.71 36.3499 1367.03 43.4752C1359.46 50.5086 1355.12 60.4736 1355.12 70.8067C1355.12 78.3528 1357.9 85.7542 1363.9 94.1022C1370.87 103.581 1371.88 112.06 1367.62 125.404C1367.36 126.245 1366.58 126.771 1365.74 126.771V126.784Z" fill="white"/>
<path d="M1392.01 24.4392C1390.91 24.4392 1390.03 23.5584 1390.03 22.4672V11.1875C1390.03 10.0964 1390.91 9.21558 1392.01 9.21558C1393.1 9.21558 1393.98 10.0964 1393.98 11.1875V22.4672C1393.98 23.5584 1393.1 24.4392 1392.01 24.4392Z" fill="white"/>
<path d="M1375.77 27.3051C1374.97 27.3051 1374.21 26.8056 1373.92 26.0036L1370.06 15.4076C1369.7 14.3822 1370.22 13.2516 1371.25 12.8835C1372.26 12.5154 1373.4 13.0412 1373.77 14.0667L1377.62 24.6627C1377.99 25.6881 1377.47 26.8187 1376.44 27.1868C1376.22 27.2657 1375.99 27.3051 1375.77 27.3051Z" fill="white"/>
<path d="M1361.49 35.5479C1360.93 35.5479 1360.38 35.3113 1359.98 34.838L1352.74 26.2008C1352.04 25.3725 1352.15 24.1236 1352.99 23.4269C1353.81 22.7301 1355.06 22.8353 1355.76 23.6766L1363 32.3139C1363.7 33.1421 1363.6 34.391 1362.75 35.0878C1362.39 35.4033 1361.94 35.5479 1361.49 35.5479Z" fill="white"/>
<path d="M1350.88 48.1817C1350.56 48.1817 1350.21 48.1028 1349.9 47.9188L1340.13 42.2789C1339.18 41.7399 1338.87 40.5305 1339.41 39.5839C1339.95 38.6374 1341.16 38.3219 1342.1 38.8609L1351.87 44.5007C1352.82 45.0397 1353.13 46.2492 1352.59 47.1957C1352.22 47.8267 1351.57 48.1817 1350.88 48.1817Z" fill="white"/>
<path d="M1408.24 27.3051C1408.02 27.3051 1407.8 27.2657 1407.57 27.1868C1406.55 26.8187 1406.02 25.6881 1406.39 24.6627L1410.24 14.0667C1410.61 13.0412 1411.75 12.5154 1412.76 12.8835C1413.79 13.2516 1414.32 14.3822 1413.95 15.4076L1410.1 26.0036C1409.81 26.8056 1409.04 27.3051 1408.24 27.3051Z" fill="white"/>
<path d="M1422.52 35.548C1422.07 35.548 1421.62 35.3902 1421.26 35.0879C1420.43 34.3911 1420.31 33.1422 1421.01 32.314L1428.25 23.6767C1428.95 22.8485 1430.2 22.7302 1431.02 23.427C1431.85 24.1237 1431.97 25.3726 1431.27 26.2009L1424.03 34.8381C1423.64 35.2982 1423.08 35.548 1422.52 35.548Z" fill="white"/>
<path d="M1433.11 48.1817C1432.43 48.1817 1431.77 47.8267 1431.41 47.1957C1430.87 46.2492 1431.18 45.0528 1432.13 44.5007L1441.9 38.8608C1442.84 38.3087 1444.04 38.6374 1444.59 39.5839C1445.13 40.5304 1444.81 41.7268 1443.87 42.2789L1434.1 47.9188C1433.78 48.1028 1433.46 48.1817 1433.11 48.1817Z" fill="white"/>
<path d="M1410.92 52.4675C1410.07 52.4675 1409.28 51.9022 1409.03 51.0477C1407.65 46.2492 1402.85 43.0415 1397.63 43.4622C1393.99 43.7514 1391.03 45.5261 1389.32 48.471C1388.77 49.4175 1387.56 49.733 1386.63 49.1809C1385.68 48.6287 1385.37 47.4324 1385.92 46.4858C1388.27 42.4367 1392.44 39.9126 1397.33 39.5314C1404.42 38.9792 1410.92 43.3701 1412.83 49.9565C1413.13 51.0082 1412.53 52.0994 1411.47 52.4017C1411.29 52.4543 1411.11 52.4806 1410.92 52.4806V52.4675Z" fill="white"/>
<path d="M1412.21 71.8715C1411.32 71.8715 1410.5 71.2537 1410.29 70.3466C1410.04 69.2817 1410.7 68.23 1411.76 67.9802C1415.46 67.1125 1418.29 62.1563 1418 58.7119C1417.72 55.4516 1414.67 52.8223 1410.75 52.4674C1409.66 52.3622 1408.87 51.4025 1408.96 50.3245C1409.07 49.2334 1410.04 48.4446 1411.11 48.5366C1416.94 49.0625 1421.49 53.2036 1421.93 58.3833C1422.36 63.4973 1418.4 70.478 1412.67 71.8321C1412.51 71.8715 1412.37 71.8847 1412.22 71.8847L1412.21 71.8715Z" fill="white"/>
<path d="M1374.38 78.9969C1367.62 78.9969 1363.42 73.4754 1362.35 67.9407C1361.19 62.0379 1363.36 54.8074 1370.83 52.8617C1371.88 52.5856 1372.96 53.2167 1373.23 54.2684C1373.51 55.3201 1372.88 56.3981 1371.83 56.6742C1366.79 57.9888 1365.38 62.9056 1366.21 67.1914C1367.07 71.5691 1370.3 75.684 1375.57 74.9872C1376.65 74.8557 1377.65 75.6051 1377.78 76.6831C1377.91 77.7611 1377.16 78.7602 1376.08 78.8917C1375.49 78.9706 1374.91 79.01 1374.36 79.01L1374.38 78.9969Z" fill="white"/>
<path d="M1371.29 56.7399C1370.32 56.7399 1369.47 56.0169 1369.34 55.0309C1369.26 54.413 1369.21 53.782 1369.21 53.1641C1369.21 49.5751 1371.49 45.9861 1375.31 43.5672C1380.28 40.412 1386.46 39.9256 1391.45 42.2657C1392.44 42.7258 1392.86 43.909 1392.4 44.895C1391.94 45.881 1390.76 46.3016 1389.77 45.8415C1385.25 43.7118 1380.44 44.987 1377.43 46.8932C1374.76 48.5891 1373.15 50.9292 1373.15 53.1641C1373.15 53.6111 1373.18 54.058 1373.25 54.505C1373.39 55.583 1372.63 56.5822 1371.55 56.7268C1371.46 56.7268 1371.38 56.7399 1371.29 56.7399Z" fill="white"/>
<path d="M1369.36 91.3676C1369.36 91.3676 1369.29 91.3676 1369.25 91.3676C1368.16 91.3151 1367.33 90.3817 1367.38 89.2905C1367.8 81.4815 1372.35 75.868 1376.63 74.3561C1377.32 74.1064 1378.02 73.9223 1378.73 73.7908C1379.79 73.5805 1380.83 74.3036 1381.03 75.3684C1381.23 76.4333 1380.52 77.4718 1379.45 77.669C1378.95 77.7611 1378.44 77.8925 1377.94 78.0766C1375.4 78.9837 1371.67 83.1248 1371.31 89.514C1371.26 90.5657 1370.38 91.3808 1369.34 91.3808L1369.36 91.3676Z" fill="white"/>
<path d="M1377.22 68.7558C1376.15 68.7558 1375.28 67.9144 1375.24 66.8364C1375.22 65.7452 1376.07 64.8381 1377.16 64.8118C1379.27 64.7461 1381.04 63.1554 1381.37 61.0257C1381.57 59.7242 1381.2 58.4358 1380.36 57.463C1379.64 56.6479 1379.71 55.399 1380.54 54.6759C1381.36 53.9529 1382.61 54.0449 1383.33 54.86C1384.95 56.7005 1385.66 59.172 1385.29 61.6173C1384.67 65.6269 1381.31 68.6243 1377.3 68.7426C1377.28 68.7426 1377.26 68.7426 1377.24 68.7426L1377.22 68.7558Z" fill="white"/>
<path d="M1387.72 71.1485C1386.09 71.1485 1384.47 70.5832 1383.18 69.4789C1381.08 67.6909 1380.3 64.9039 1381.11 62.0117C1381.4 60.96 1382.49 60.3421 1383.54 60.6445C1384.59 60.9337 1385.21 62.0248 1384.91 63.0765C1384.38 64.9828 1385.2 66.0345 1385.73 66.4946C1386.63 67.2571 1387.9 67.428 1388.97 66.9416C1389.97 66.4946 1391.12 66.9285 1391.58 67.9144C1392.04 68.9004 1391.61 70.0705 1390.61 70.5306C1389.69 70.9513 1388.69 71.1616 1387.71 71.1616L1387.72 71.1485Z" fill="white"/>
<path d="M1398.42 63.2606C1398.28 63.2606 1398.13 63.2475 1397.99 63.208C1396.92 62.9714 1396.25 61.9065 1396.5 60.8548C1396.83 59.3955 1395.94 57.8706 1394.36 57.2264C1393.36 56.8188 1392.27 56.832 1391.35 57.279C1390.36 57.7391 1389.19 57.3184 1388.72 56.3324C1388.26 55.3464 1388.68 54.1764 1389.67 53.7031C1391.59 52.796 1393.85 52.7566 1395.86 53.5717C1399.22 54.9389 1401.12 58.3701 1400.35 61.7093C1400.14 62.6296 1399.33 63.2475 1398.43 63.2475L1398.42 63.2606Z" fill="white"/>
<path d="M1398.58 58.5411C1397.44 58.5411 1396.25 58.2387 1395.11 57.6208C1394.15 57.095 1393.79 55.8986 1394.32 54.9521C1394.85 53.9924 1396.04 53.6375 1396.99 54.1633C1398.05 54.7418 1399.12 54.7549 1399.88 54.1765C1400.5 53.7163 1400.79 52.9933 1400.64 52.2702C1400.42 51.2054 1401.1 50.1668 1402.18 49.9433C1403.25 49.7198 1404.28 50.4034 1404.51 51.4814C1404.97 53.7163 1404.1 55.9644 1402.23 57.3448C1401.16 58.1467 1399.89 58.5542 1398.58 58.5542V58.5411Z" fill="white"/>
<path d="M1376.72 93.8131C1376.72 93.8131 1376.64 93.8131 1376.6 93.8131C1375.51 93.7473 1374.68 92.8139 1374.74 91.7228C1375.26 83.3354 1381.84 78.1294 1391.97 78.1294H1393.6C1397.22 78.1294 1403.3 78.1294 1404.77 78.1425C1406.91 78.182 1410.63 77.6955 1411.24 74.0671C1411.41 73.0548 1411.21 72.1609 1410.66 71.4247C1409.9 70.3861 1408.45 69.6631 1406.7 69.4264C1405.55 69.3475 1404.35 69.6762 1403.57 70.373C1403.22 70.6885 1402.79 71.2143 1402.75 71.9505C1402.69 73.0417 1401.73 73.8436 1400.67 73.8173C1399.58 73.7647 1398.75 72.8313 1398.8 71.7402C1398.89 70.0969 1399.66 68.5588 1400.96 67.4019C1402.55 65.9952 1404.73 65.3247 1407.1 65.4956C1410.06 65.89 1412.41 67.1521 1413.82 69.0715C1415.01 70.6885 1415.46 72.6342 1415.1 74.7113C1414.33 79.3388 1410.54 82.0864 1404.97 82.0864C1404.88 82.0864 1404.77 82.0864 1404.68 82.0864C1403.23 82.0602 1396.95 82.0602 1393.57 82.0733H1391.94C1384 82.0733 1379.03 85.7675 1378.66 91.9726C1378.6 93.0243 1377.73 93.8262 1376.69 93.8262L1376.72 93.8131Z" fill="white"/>
<path d="M1371.33 56.7268C1370.42 56.7268 1369.62 56.1089 1369.41 55.1887C1369.17 54.1238 1369.83 53.0721 1370.89 52.8355C1372.34 52.5068 1373.27 52.4016 1374.65 52.4279C1375.74 52.4542 1376.61 53.3482 1376.59 54.4393C1376.56 55.5305 1375.65 56.4113 1374.57 56.3719C1373.55 56.3456 1372.88 56.4244 1371.76 56.6742C1371.62 56.7137 1371.47 56.7268 1371.33 56.7268Z" fill="white"/>
<path d="M1411.08 57.1869C1410.98 57.1869 1410.86 57.1869 1410.75 57.1606C1409.67 56.9766 1408.95 55.9643 1409.14 54.8863C1409.37 53.4796 1409.41 52.5462 1409 50.9949C1408.73 49.9432 1409.36 48.8652 1410.41 48.5891C1411.46 48.3131 1412.54 48.9441 1412.82 49.9958C1413.4 52.1913 1413.32 53.7557 1413.01 55.5436C1412.86 56.5033 1412.01 57.1869 1411.07 57.1869H1411.08Z" fill="white"/>
</g>
<rect x="414" y="148" width="132" height="56" rx="28" fill="url(#paint2_linear_1143_354)"/>
<path d="M449.296 184.168C448.176 184.168 447.168 183.976 446.272 183.592C445.376 183.192 444.672 182.632 444.16 181.912C443.648 181.192 443.392 180.352 443.392 179.392H446.32C446.384 180.112 446.664 180.704 447.16 181.168C447.672 181.632 448.384 181.864 449.296 181.864C450.24 181.864 450.976 181.64 451.504 181.192C452.032 180.728 452.296 180.136 452.296 179.416C452.296 178.856 452.128 178.4 451.792 178.048C451.472 177.696 451.064 177.424 450.568 177.232C450.088 177.04 449.416 176.832 448.552 176.608C447.464 176.32 446.576 176.032 445.888 175.744C445.216 175.44 444.64 174.976 444.16 174.352C443.68 173.728 443.44 172.896 443.44 171.856C443.44 170.896 443.68 170.056 444.16 169.336C444.64 168.616 445.312 168.064 446.176 167.68C447.04 167.296 448.04 167.104 449.176 167.104C450.792 167.104 452.112 167.512 453.136 168.328C454.176 169.128 454.752 170.232 454.864 171.64H451.84C451.792 171.032 451.504 170.512 450.976 170.08C450.448 169.648 449.752 169.432 448.888 169.432C448.104 169.432 447.464 169.632 446.968 170.032C446.472 170.432 446.224 171.008 446.224 171.76C446.224 172.272 446.376 172.696 446.68 173.032C447 173.352 447.4 173.608 447.88 173.8C448.36 173.992 449.016 174.2 449.848 174.424C450.952 174.728 451.848 175.032 452.536 175.336C453.24 175.64 453.832 176.112 454.312 176.752C454.808 177.376 455.056 178.216 455.056 179.272C455.056 180.12 454.824 180.92 454.36 181.672C453.912 182.424 453.248 183.032 452.368 183.496C451.504 183.944 450.48 184.168 449.296 184.168ZM463.54 184.216C462.292 184.216 461.164 183.936 460.156 183.376C459.148 182.8 458.356 182 457.78 180.976C457.204 179.936 456.916 178.736 456.916 177.376C456.916 176.032 457.212 174.84 457.804 173.8C458.396 172.76 459.204 171.96 460.228 171.4C461.252 170.84 462.396 170.56 463.66 170.56C464.924 170.56 466.068 170.84 467.092 171.4C468.116 171.96 468.924 172.76 469.516 173.8C470.108 174.84 470.404 176.032 470.404 177.376C470.404 178.72 470.1 179.912 469.492 180.952C468.884 181.992 468.052 182.8 466.996 183.376C465.956 183.936 464.804 184.216 463.54 184.216ZM463.54 181.84C464.244 181.84 464.9 181.672 465.508 181.336C466.132 181 466.636 180.496 467.02 179.824C467.404 179.152 467.596 178.336 467.596 177.376C467.596 176.416 467.412 175.608 467.044 174.952C466.676 174.28 466.188 173.776 465.58 173.44C464.972 173.104 464.316 172.936 463.612 172.936C462.908 172.936 462.252 173.104 461.644 173.44C461.052 173.776 460.58 174.28 460.228 174.952C459.876 175.608 459.7 176.416 459.7 177.376C459.7 178.8 460.06 179.904 460.78 180.688C461.516 181.456 462.436 181.84 463.54 181.84ZM484.605 170.776V184H481.869V182.44C481.437 182.984 480.869 183.416 480.165 183.736C479.477 184.04 478.741 184.192 477.957 184.192C476.917 184.192 475.981 183.976 475.149 183.544C474.333 183.112 473.685 182.472 473.205 181.624C472.741 180.776 472.509 179.752 472.509 178.552V170.776H475.221V178.144C475.221 179.328 475.517 180.24 476.109 180.88C476.701 181.504 477.509 181.816 478.533 181.816C479.557 181.816 480.365 181.504 480.957 180.88C481.565 180.24 481.869 179.328 481.869 178.144V170.776H484.605ZM494.407 170.56C495.447 170.56 496.375 170.776 497.191 171.208C498.023 171.64 498.671 172.28 499.135 173.128C499.599 173.976 499.831 175 499.831 176.2V184H497.119V176.608C497.119 175.424 496.823 174.52 496.231 173.896C495.639 173.256 494.831 172.936 493.807 172.936C492.783 172.936 491.967 173.256 491.359 173.896C490.767 174.52 490.471 175.424 490.471 176.608V184H487.735V170.776H490.471V172.288C490.919 171.744 491.487 171.32 492.175 171.016C492.879 170.712 493.623 170.56 494.407 170.56ZM501.929 177.328C501.929 176 502.201 174.824 502.745 173.8C503.305 172.776 504.057 171.984 505.001 171.424C505.961 170.848 507.025 170.56 508.193 170.56C509.057 170.56 509.905 170.752 510.737 171.136C511.585 171.504 512.257 172 512.753 172.624V166.24H515.513V184H512.753V182.008C512.305 182.648 511.681 183.176 510.881 183.592C510.097 184.008 509.193 184.216 508.169 184.216C507.017 184.216 505.961 183.928 505.001 183.352C504.057 182.76 503.305 181.944 502.745 180.904C502.201 179.848 501.929 178.656 501.929 177.328ZM512.753 177.376C512.753 176.464 512.561 175.672 512.177 175C511.809 174.328 511.321 173.816 510.713 173.464C510.105 173.112 509.449 172.936 508.745 172.936C508.041 172.936 507.385 173.112 506.777 173.464C506.169 173.8 505.673 174.304 505.289 174.976C504.921 175.632 504.737 176.416 504.737 177.328C504.737 178.24 504.921 179.04 505.289 179.728C505.673 180.416 506.169 180.944 506.777 181.312C507.401 181.664 508.057 181.84 508.745 181.84C509.449 181.84 510.105 181.664 510.713 181.312C511.321 180.96 511.809 180.448 512.177 179.776C512.561 179.088 512.753 178.288 512.753 177.376Z" fill="white"/>
<g clip-path="url(#clip3_1143_354)">
<path d="M484.976 24.8082C482.846 23.8748 480.453 24.2824 478.757 25.8731L453.832 49.0371C453.595 49.2606 453.293 49.379 452.964 49.379H429.787C426.579 49.379 423.963 51.9951 423.963 55.2028V82.7972C423.963 86.005 426.579 88.6211 429.787 88.6211H452.977C453.293 88.6211 453.608 88.7394 453.845 88.9629L478.77 112.127C479.875 113.152 481.255 113.678 482.662 113.678C483.437 113.678 484.226 113.52 484.989 113.192C487.118 112.258 488.446 110.234 488.446 107.907V30.0931C488.446 27.7662 487.118 25.7416 484.989 24.8082H484.976ZM483.898 107.907C483.898 108.63 483.385 108.932 483.161 109.024C482.938 109.116 482.373 109.287 481.834 108.801L456.908 85.6368C455.83 84.6377 454.423 84.0856 452.951 84.0856H429.787C429.077 84.0856 428.498 83.5071 428.498 82.7972V55.2028C428.498 54.4929 429.077 53.9145 429.787 53.9145H452.977C454.45 53.9145 455.856 53.3623 456.934 52.3632L481.86 29.1992C482.386 28.7127 482.964 28.8836 483.188 28.9757C483.411 29.0677 483.924 29.3701 483.924 30.0931V107.907H483.898Z" fill="white"/>
<path d="M533.75 71.3072H499.846C498.57 71.3072 497.545 70.2818 497.545 69.0066C497.545 67.7314 498.57 66.7059 499.846 66.7059H533.75C535.025 66.7059 536.051 67.7314 536.051 69.0066C536.051 70.2818 535.025 71.3072 533.75 71.3072Z" fill="white"/>
<path d="M499.846 50.6147C501.094 49.3658 523.825 26.6356 523.825 26.6356L499.846 50.6147Z" fill="white"/>
<path d="M499.846 52.9154C499.254 52.9154 498.662 52.6919 498.215 52.2449C497.321 51.3509 497.321 49.8917 498.215 48.9977C499.464 47.7488 522.195 25.0317 522.195 25.0317L525.442 28.2789C525.442 28.2789 502.711 51.0091 501.463 52.258C501.016 52.705 500.424 52.9285 499.832 52.9285L499.846 52.9154Z" fill="white"/>
<path d="M499.846 87.3854L523.825 111.364L499.846 87.3854Z" fill="white"/>
<path d="M523.811 113.665C523.219 113.665 522.628 113.442 522.181 112.995L498.202 89.0155C497.308 88.1216 497.308 86.6623 498.202 85.7684C499.096 84.8744 500.555 84.8744 501.449 85.7684L525.428 109.747C526.322 110.641 526.322 112.101 525.428 112.995C524.981 113.442 524.389 113.665 523.798 113.665H523.811Z" fill="white"/>
</g>
<rect x="796" y="148" width="219" height="56" rx="28" fill="url(#paint3_linear_1143_354)"/>
<path d="M840.176 167.32L833.912 184H830.744L824.456 167.32H827.384L832.328 181.192L837.296 167.32H840.176ZM843.376 169.024C842.88 169.024 842.464 168.856 842.128 168.52C841.792 168.184 841.624 167.768 841.624 167.272C841.624 166.776 841.792 166.36 842.128 166.024C842.464 165.688 842.88 165.52 843.376 165.52C843.856 165.52 844.264 165.688 844.6 166.024C844.936 166.36 845.104 166.776 845.104 167.272C845.104 167.768 844.936 168.184 844.6 168.52C844.264 168.856 843.856 169.024 843.376 169.024ZM844.72 170.776V184H841.984V170.776H844.72ZM850.568 172.744C851.032 172.104 851.664 171.584 852.464 171.184C853.28 170.768 854.184 170.56 855.176 170.56C856.344 170.56 857.4 170.84 858.344 171.4C859.288 171.96 860.032 172.76 860.576 173.8C861.12 174.824 861.392 176 861.392 177.328C861.392 178.656 861.12 179.848 860.576 180.904C860.032 181.944 859.28 182.76 858.32 183.352C857.376 183.928 856.328 184.216 855.176 184.216C854.152 184.216 853.24 184.016 852.44 183.616C851.656 183.216 851.032 182.704 850.568 182.08V184H847.832V166.24H850.568V172.744ZM858.608 177.328C858.608 176.416 858.416 175.632 858.032 174.976C857.664 174.304 857.168 173.8 856.544 173.464C855.936 173.112 855.28 172.936 854.576 172.936C853.888 172.936 853.232 173.112 852.608 173.464C852 173.816 851.504 174.328 851.12 175C850.752 175.672 850.568 176.464 850.568 177.376C850.568 178.288 850.752 179.088 851.12 179.776C851.504 180.448 852 180.96 852.608 181.312C853.232 181.664 853.888 181.84 854.576 181.84C855.28 181.84 855.936 181.664 856.544 181.312C857.168 180.944 857.664 180.416 858.032 179.728C858.416 179.04 858.608 178.24 858.608 177.328ZM866.354 172.696C866.754 172.024 867.282 171.504 867.938 171.136C868.61 170.752 869.402 170.56 870.314 170.56V173.392H869.618C868.546 173.392 867.73 173.664 867.17 174.208C866.626 174.752 866.354 175.696 866.354 177.04V184H863.618V170.776H866.354V172.696ZM878.085 184.216C876.837 184.216 875.709 183.936 874.701 183.376C873.693 182.8 872.901 182 872.325 180.976C871.749 179.936 871.461 178.736 871.461 177.376C871.461 176.032 871.757 174.84 872.349 173.8C872.941 172.76 873.749 171.96 874.773 171.4C875.797 170.84 876.941 170.56 878.205 170.56C879.469 170.56 880.613 170.84 881.637 171.4C882.661 171.96 883.469 172.76 884.061 173.8C884.653 174.84 884.949 176.032 884.949 177.376C884.949 178.72 884.645 179.912 884.037 180.952C883.429 181.992 882.597 182.8 881.541 183.376C880.501 183.936 879.349 184.216 878.085 184.216ZM878.085 181.84C878.789 181.84 879.445 181.672 880.053 181.336C880.677 181 881.181 180.496 881.565 179.824C881.949 179.152 882.141 178.336 882.141 177.376C882.141 176.416 881.957 175.608 881.589 174.952C881.221 174.28 880.733 173.776 880.125 173.44C879.517 173.104 878.861 172.936 878.157 172.936C877.453 172.936 876.797 173.104 876.189 173.44C875.597 173.776 875.125 174.28 874.773 174.952C874.421 175.608 874.245 176.416 874.245 177.376C874.245 178.8 874.605 179.904 875.325 180.688C876.061 181.456 876.981 181.84 878.085 181.84ZM886.261 177.328C886.261 176 886.533 174.824 887.077 173.8C887.637 172.776 888.389 171.984 889.333 171.424C890.293 170.848 891.349 170.56 892.501 170.56C893.541 170.56 894.445 170.768 895.213 171.184C895.997 171.584 896.621 172.088 897.085 172.696V170.776H899.845V184H897.085V182.032C896.621 182.656 895.989 183.176 895.189 183.592C894.389 184.008 893.477 184.216 892.453 184.216C891.317 184.216 890.277 183.928 889.333 183.352C888.389 182.76 887.637 181.944 887.077 180.904C886.533 179.848 886.261 178.656 886.261 177.328ZM897.085 177.376C897.085 176.464 896.893 175.672 896.509 175C896.141 174.328 895.653 173.816 895.045 173.464C894.437 173.112 893.781 172.936 893.077 172.936C892.373 172.936 891.717 173.112 891.109 173.464C890.501 173.8 890.005 174.304 889.621 174.976C889.253 175.632 889.069 176.416 889.069 177.328C889.069 178.24 889.253 179.04 889.621 179.728C890.005 180.416 890.501 180.944 891.109 181.312C891.733 181.664 892.389 181.84 893.077 181.84C893.781 181.84 894.437 181.664 895.045 181.312C895.653 180.96 896.141 180.448 896.509 179.776C896.893 179.088 897.085 178.288 897.085 177.376ZM902.047 177.376C902.047 176.016 902.319 174.824 902.863 173.8C903.423 172.76 904.191 171.96 905.167 171.4C906.143 170.84 907.263 170.56 908.527 170.56C910.127 170.56 911.447 170.944 912.487 171.712C913.543 172.464 914.255 173.544 914.623 174.952H911.671C911.431 174.296 911.047 173.784 910.519 173.416C909.991 173.048 909.327 172.864 908.527 172.864C907.407 172.864 906.511 173.264 905.839 174.064C905.183 174.848 904.855 175.952 904.855 177.376C904.855 178.8 905.183 179.912 905.839 180.712C906.511 181.512 907.407 181.912 908.527 181.912C910.111 181.912 911.159 181.216 911.671 179.824H914.623C914.239 181.168 913.519 182.24 912.463 183.04C911.407 183.824 910.095 184.216 908.527 184.216C907.263 184.216 906.143 183.936 905.167 183.376C904.191 182.8 903.423 182 902.863 180.976C902.319 179.936 902.047 178.736 902.047 177.376ZM922.606 184.216C921.358 184.216 920.23 183.936 919.222 183.376C918.214 182.8 917.422 182 916.846 180.976C916.27 179.936 915.982 178.736 915.982 177.376C915.982 176.032 916.278 174.84 916.87 173.8C917.462 172.76 918.27 171.96 919.294 171.4C920.318 170.84 921.462 170.56 922.726 170.56C923.99 170.56 925.134 170.84 926.158 171.4C927.182 171.96 927.99 172.76 928.582 173.8C929.174 174.84 929.47 176.032 929.47 177.376C929.47 178.72 929.166 179.912 928.558 180.952C927.95 181.992 927.118 182.8 926.062 183.376C925.022 183.936 923.87 184.216 922.606 184.216ZM922.606 181.84C923.31 181.84 923.966 181.672 924.574 181.336C925.198 181 925.702 180.496 926.086 179.824C926.47 179.152 926.662 178.336 926.662 177.376C926.662 176.416 926.478 175.608 926.11 174.952C925.742 174.28 925.254 173.776 924.646 173.44C924.038 173.104 923.382 172.936 922.678 172.936C921.974 172.936 921.318 173.104 920.71 173.44C920.118 173.776 919.646 174.28 919.294 174.952C918.942 175.608 918.766 176.416 918.766 177.376C918.766 178.8 919.126 179.904 919.846 180.688C920.582 181.456 921.502 181.84 922.606 181.84ZM943.67 170.776V184H940.934V182.44C940.502 182.984 939.934 183.416 939.23 183.736C938.542 184.04 937.806 184.192 937.022 184.192C935.982 184.192 935.046 183.976 934.214 183.544C933.398 183.112 932.75 182.472 932.27 181.624C931.806 180.776 931.574 179.752 931.574 178.552V170.776H934.286V178.144C934.286 179.328 934.582 180.24 935.174 180.88C935.766 181.504 936.574 181.816 937.598 181.816C938.622 181.816 939.43 181.504 940.022 180.88C940.63 180.24 940.934 179.328 940.934 178.144V170.776H943.67ZM951.6 184.216C950.56 184.216 949.624 184.032 948.792 183.664C947.976 183.28 947.328 182.768 946.848 182.128C946.368 181.472 946.112 180.744 946.08 179.944H948.912C948.96 180.504 949.224 180.976 949.704 181.36C950.2 181.728 950.816 181.912 951.552 181.912C952.32 181.912 952.912 181.768 953.328 181.48C953.76 181.176 953.976 180.792 953.976 180.328C953.976 179.832 953.736 179.464 953.256 179.224C952.792 178.984 952.048 178.72 951.024 178.432C950.032 178.16 949.224 177.896 948.6 177.64C947.976 177.384 947.432 176.992 946.968 176.464C946.52 175.936 946.296 175.24 946.296 174.376C946.296 173.672 946.504 173.032 946.92 172.456C947.336 171.864 947.928 171.4 948.696 171.064C949.48 170.728 950.376 170.56 951.384 170.56C952.888 170.56 954.096 170.944 955.008 171.712C955.936 172.464 956.432 173.496 956.496 174.808H953.76C953.712 174.216 953.472 173.744 953.04 173.392C952.608 173.04 952.024 172.864 951.288 172.864C950.568 172.864 950.016 173 949.632 173.272C949.248 173.544 949.056 173.904 949.056 174.352C949.056 174.704 949.184 175 949.44 175.24C949.696 175.48 950.008 175.672 950.376 175.816C950.744 175.944 951.288 176.112 952.008 176.32C952.968 176.576 953.752 176.84 954.36 177.112C954.984 177.368 955.52 177.752 955.968 178.264C956.416 178.776 956.648 179.456 956.664 180.304C956.664 181.056 956.456 181.728 956.04 182.32C955.624 182.912 955.032 183.376 954.264 183.712C953.512 184.048 952.624 184.216 951.6 184.216ZM962.333 173.008V180.328C962.333 180.824 962.445 181.184 962.669 181.408C962.909 181.616 963.309 181.72 963.869 181.72H965.549V184H963.389C962.157 184 961.213 183.712 960.557 183.136C959.901 182.56 959.573 181.624 959.573 180.328V173.008H958.013V170.776H959.573V167.488H962.333V170.776H965.549V173.008H962.333ZM968.982 169.024C968.486 169.024 968.07 168.856 967.734 168.52C967.398 168.184 967.23 167.768 967.23 167.272C967.23 166.776 967.398 166.36 967.734 166.024C968.07 165.688 968.486 165.52 968.982 165.52C969.462 165.52 969.87 165.688 970.206 166.024C970.542 166.36 970.71 166.776 970.71 167.272C970.71 167.768 970.542 168.184 970.206 168.52C969.87 168.856 969.462 169.024 968.982 169.024ZM970.326 170.776V184H967.59V170.776H970.326ZM972.526 177.376C972.526 176.016 972.798 174.824 973.342 173.8C973.902 172.76 974.67 171.96 975.646 171.4C976.622 170.84 977.742 170.56 979.006 170.56C980.606 170.56 981.926 170.944 982.966 171.712C984.022 172.464 984.734 173.544 985.102 174.952H982.15C981.91 174.296 981.526 173.784 980.998 173.416C980.47 173.048 979.806 172.864 979.006 172.864C977.886 172.864 976.99 173.264 976.318 174.064C975.662 174.848 975.334 175.952 975.334 177.376C975.334 178.8 975.662 179.912 976.318 180.712C976.99 181.512 977.886 181.912 979.006 181.912C980.59 181.912 981.638 181.216 982.15 179.824H985.102C984.718 181.168 983.998 182.24 982.942 183.04C981.886 183.824 980.574 184.216 979.006 184.216C977.742 184.216 976.622 183.936 975.646 183.376C974.67 182.8 973.902 182 973.342 180.976C972.798 179.936 972.526 178.736 972.526 177.376Z" fill="white"/>
<g clip-path="url(#clip4_1143_354)">
<path d="M867.395 120.382C866.804 120.382 866.212 120.159 865.765 119.712L848.846 102.792C848.412 102.358 848.175 101.78 848.175 101.162C848.175 100.544 848.412 99.9656 848.846 99.5318L864.411 83.9664L848.78 68.3353C847.886 67.4413 847.886 65.982 848.78 65.0881L863.912 49.9565L849.004 35.0485C848.557 34.6146 848.32 34.0099 848.333 33.3789C848.333 32.761 848.609 32.1694 849.069 31.7355L865.66 16.2359C866.594 15.3682 868.04 15.4208 868.907 16.3411C869.775 17.2745 869.722 18.7206 868.802 19.5882L853.947 33.4577L868.802 48.3132C869.696 49.2072 869.696 50.6664 868.802 51.5604L853.671 66.692L869.302 82.3231C870.196 83.217 870.196 84.6763 869.302 85.5702L853.736 101.136L869.039 116.425C869.933 117.319 869.933 118.778 869.039 119.672C868.592 120.119 868 120.343 867.409 120.343L867.395 120.382Z" fill="white"/>
<path d="M890.44 120.382C889.849 120.382 889.257 120.159 888.81 119.712L871.891 102.792C871.457 102.358 871.22 101.78 871.22 101.162C871.22 100.544 871.457 99.9656 871.891 99.5318L887.456 83.9664L871.825 68.3353C870.931 67.4413 870.931 65.982 871.825 65.0881L886.957 49.9565L872.048 35.0485C871.602 34.6146 871.365 34.0099 871.378 33.3789C871.378 32.761 871.654 32.1694 872.114 31.7355L888.705 16.2359C889.638 15.3682 891.085 15.4208 891.952 16.3411C892.82 17.2745 892.767 18.7206 891.847 19.5882L876.992 33.4577L891.847 48.3132C892.741 49.2072 892.741 50.6664 891.847 51.5604L876.715 66.692L892.347 82.3231C893.241 83.217 893.241 84.6763 892.347 85.5702L876.781 101.136L892.084 116.425C892.978 117.319 892.978 118.778 892.084 119.672C891.637 120.119 891.045 120.343 890.454 120.343L890.44 120.382Z" fill="white"/>
<path d="M913.474 120.382C912.882 120.382 912.291 120.159 911.844 119.712L894.924 102.792C894.49 102.358 894.254 101.78 894.254 101.162C894.254 100.544 894.49 99.9656 894.924 99.5318L910.489 83.9664L894.858 68.3353C893.964 67.4413 893.964 65.982 894.858 65.0881L909.99 49.9565L895.082 35.0485C894.635 34.6146 894.398 34.0099 894.411 33.3789C894.411 32.761 894.687 32.1694 895.148 31.7355L911.738 16.2359C912.672 15.3682 914.118 15.4208 914.986 16.3411C915.853 17.2745 915.801 18.7206 914.88 19.5882L900.025 33.4577L914.88 48.3132C915.314 48.7471 915.551 49.3255 915.551 49.9434C915.551 50.5613 915.314 51.1397 914.88 51.5735L899.749 66.7051L915.38 82.3362C916.274 83.2302 916.274 84.6894 915.38 85.5834L899.815 101.149L915.117 116.438C916.011 117.332 916.011 118.791 915.117 119.685C914.67 120.132 914.078 120.356 913.487 120.356L913.474 120.382Z" fill="white"/>
<path d="M961.59 70.3072H927.686C926.41 70.3072 925.385 69.2818 925.385 68.0066C925.385 66.7314 926.41 65.7059 927.686 65.7059H961.59C962.866 65.7059 963.891 66.7314 963.891 68.0066C963.891 69.2818 962.866 70.3072 961.59 70.3072Z" fill="white"/>
<path d="M927.686 49.6147C928.935 48.3658 951.665 25.6356 951.665 25.6356L927.686 49.6147Z" fill="white"/>
<path d="M927.686 51.9154C927.094 51.9154 926.502 51.6919 926.055 51.2449C925.162 50.3509 925.162 48.8917 926.055 47.9977L950.021 24.0317L953.269 27.2789C953.269 27.2789 930.538 50.0091 929.29 51.258C928.843 51.705 928.251 51.9285 927.659 51.9285L927.686 51.9154Z" fill="white"/>
<path d="M927.686 86.3854L951.665 110.364L927.686 86.3854Z" fill="white"/>
<path d="M951.651 112.665C951.059 112.665 950.468 112.442 950.021 111.995L926.042 88.0155C925.148 87.1216 925.148 85.6623 926.042 84.7684C926.936 83.8744 928.395 83.8744 929.289 84.7684L953.268 108.747C954.162 109.641 954.162 111.101 953.268 111.995C952.821 112.442 952.23 112.665 951.638 112.665H951.651Z" fill="white"/>
</g>
<path d="M258.834 68.9999H317.167M288.001 39.8333V98.1666" stroke="white" stroke-width="4" stroke-linecap="round" stroke-linejoin="round"/>
<path d="M1107 39C1106.49 39 1105.97 39.1947 1105.58 39.5725C1104.81 40.3282 1104.81 41.5648 1105.58 42.3205L1132.18 68.1975L1105.97 93.6852C1105.19 94.4409 1105.19 95.6775 1105.97 96.4332C1106.75 97.1889 1108.02 97.1889 1108.8 96.4332L1136.42 69.5716C1137.19 68.8159 1137.19 67.5792 1136.42 66.8235L1108.41 39.5726C1108.02 39.1947 1107.5 39.0001 1107 39.0001L1107 39Z" fill="white"/>
<path d="M1143 39C1142.49 39 1141.97 39.1947 1141.58 39.5725C1140.81 40.3282 1140.81 41.5648 1141.58 42.3205L1168.18 68.1975L1141.97 93.6852C1141.19 94.4409 1141.19 95.6775 1141.97 96.4332C1142.75 97.1889 1144.02 97.1889 1144.8 96.4332L1172.42 69.5716C1173.19 68.8159 1173.19 67.5792 1172.42 66.8235L1144.41 39.5726C1144.02 39.1947 1143.5 39.0001 1143 39.0001L1143 39Z" fill="white"/>
<path d="M647 55.5H697M647 80.5H697" stroke="white" stroke-width="4" stroke-linecap="round" stroke-linejoin="round"/>
<defs>
<linearGradient id="paint0_linear_1143_354" x1="164" y1="181" x2="0" y2="181" gradientUnits="userSpaceOnUse">
<stop stop-color="#56387E"/>
<stop offset="1" stop-color="#23295B"/>
</linearGradient>
<linearGradient id="paint1_linear_1143_354" x1="1520" y1="176" x2="1263" y2="176" gradientUnits="userSpaceOnUse">
<stop stop-color="#56387E"/>
<stop offset="1" stop-color="#23295B"/>
</linearGradient>
<linearGradient id="paint2_linear_1143_354" x1="546" y1="176" x2="414" y2="176" gradientUnits="userSpaceOnUse">
<stop stop-color="#56387E"/>
<stop offset="1" stop-color="#23295B"/>
</linearGradient>
<linearGradient id="paint3_linear_1143_354" x1="1015" y1="176" x2="796" y2="176" gradientUnits="userSpaceOnUse">
<stop stop-color="#56387E"/>
<stop offset="1" stop-color="#23295B"/>
</linearGradient>
<clipPath id="clip0_1143_354">
<rect width="136" height="136" fill="white" transform="translate(14 1)"/>
</clipPath>
<clipPath id="clip1_1143_354">
<rect width="136" height="136" fill="white" transform="translate(14 1)"/>
</clipPath>
<clipPath id="clip2_1143_354">
<rect width="136" height="136" fill="white" transform="translate(1324)"/>
</clipPath>
<clipPath id="clip3_1143_354">
<rect width="136" height="136" fill="white" transform="translate(412 1)"/>
</clipPath>
<clipPath id="clip4_1143_354">
<rect width="136" height="136" fill="white" transform="translate(838)"/>
</clipPath>
</defs>
</svg>
