<svg width="100" height="100" viewBox="0 0 100 100" fill="none" xmlns="http://www.w3.org/2000/svg">
<g clip-path="url(#clip0_911_226)">
<path d="M65.7628 74.3936C65.7628 74.3936 65.6661 74.3936 65.6178 74.3936L45.8595 73.8233C45.0571 73.8039 44.4288 73.1369 44.4481 72.3346C44.4675 71.5323 45.1441 70.875 45.9368 70.9233L65.7048 71.4936C66.1398 71.4936 66.5168 71.368 66.7778 71.0973C67.0484 70.8266 67.1934 70.469 67.1838 70.092C67.1838 69.9373 67.1548 69.7827 67.1064 69.6377C67.0774 69.5507 67.0484 69.483 67.0098 69.425C66.3041 68.0427 63.4428 66.409 61.6062 66.3221L52.3264 65.4231C50.1127 65.1427 47.9861 64.5627 45.9755 63.6928C45.4245 63.4511 44.8735 63.1321 44.3901 62.8518C44.0518 62.6584 43.7328 62.4651 43.4332 62.3298C36.9179 59.2558 27.6091 62.0591 15.7483 70.6623C15.1006 71.136 14.192 70.991 13.7183 70.3433C13.2447 69.6957 13.3897 68.787 14.0373 68.3133C26.8164 59.0335 37.1209 56.1432 44.6608 59.7005C45.0185 59.8745 45.4148 60.0968 45.8305 60.3385C46.2654 60.5898 46.7198 60.8508 47.1161 61.0248C48.8754 61.7885 50.7314 62.2911 52.6357 62.5328L61.7995 63.4221C64.3708 63.5381 68.2858 65.5487 69.5617 68.062C69.6584 68.236 69.7551 68.4584 69.8324 68.6807C69.9871 69.1157 70.0644 69.5893 70.0741 70.0727C70.0741 71.223 69.6391 72.3056 68.8367 73.1176C68.0441 73.9199 66.9324 74.3839 65.7531 74.3839L65.7628 74.3936Z" fill="white"/>
<path d="M27.2409 87.1147C26.7866 87.1147 26.3322 86.902 26.0519 86.496C25.5879 85.8387 25.7522 84.9397 26.3999 84.4757L27.5309 83.6734C28.7005 82.8421 30.0925 82.3974 31.5328 82.3974L60.5613 82.2717C64.5536 82.2524 68.4879 80.8798 71.6391 78.4051L89.9088 64.0697C91.3781 62.9387 91.8228 61.9914 91.6198 61.5854C91.3008 60.9378 89.2515 60.1354 85.7426 61.0828C84.2926 61.4791 82.8619 62.1461 81.4796 63.0741L74.8774 68.0426C73.4758 69.0866 71.9195 69.8309 70.2375 70.2273L68.7972 70.5753C67.9079 70.7976 67.0089 70.0823 67.0089 69.164C67.0089 68.4583 67.5019 67.8783 68.1689 67.743L69.5608 67.4047C70.8561 67.0953 72.0645 66.525 73.1471 65.713L79.8073 60.6961C81.5183 59.5458 83.2389 58.7531 84.9886 58.2698C89.3385 57.0905 93.0408 57.9025 94.2201 60.2804C94.6647 61.1698 95.3027 63.5477 91.6875 66.3413L73.4274 80.6768C69.7638 83.5477 65.2012 85.1427 60.571 85.162L31.5328 85.2877C30.6918 85.2877 29.8798 85.5487 29.1935 86.032L28.0625 86.8343C27.8112 87.0083 27.5212 87.0953 27.2312 87.0953L27.2409 87.1147Z" fill="white"/>
<path d="M22.9487 94.2389C22.5717 94.2389 22.2043 94.0939 21.9144 93.8039C21.3537 93.2336 21.3537 92.3153 21.924 91.7546L26.6896 87.0374L13.3885 69.6087L7.57893 72.9629C6.88294 73.3593 6.00329 73.1273 5.59729 72.4313C5.20097 71.7353 5.43296 70.8556 6.12895 70.4496L13.0405 66.4574C13.6688 66.0901 14.4711 66.2544 14.9158 66.8344L29.7636 86.2834C30.2082 86.8634 30.1502 87.685 29.6282 88.1974L23.954 93.8136C23.6737 94.0939 23.3063 94.2293 22.939 94.2293L22.9487 94.2389Z" fill="white"/>
<path d="M82.0392 18.2987C81.4206 18.2987 80.8406 17.8927 80.6569 17.274C78.9943 11.8511 73.2137 8.24552 66.9305 8.70951C62.5322 9.0285 58.9749 11.0488 56.8966 14.4031C56.4713 15.0894 55.582 15.2924 54.9053 14.8767C54.219 14.4514 54.016 13.5621 54.4317 12.8854C56.9643 8.78684 61.4496 6.21555 66.7178 5.82889C74.3447 5.26823 81.3722 9.73416 83.4215 16.4427C83.6535 17.2064 83.2282 18.0184 82.4549 18.2503C82.3099 18.289 82.1746 18.318 82.0296 18.318L82.0392 18.2987Z" fill="white"/>
<path d="M83.499 38.956C82.832 38.956 82.2327 38.492 82.0877 37.8154C81.9137 37.0324 82.4067 36.2591 83.1897 36.0851C87.7136 35.0894 91.1645 29.4442 90.8165 25.5292C90.4782 21.74 86.7373 18.695 81.9234 18.2794C81.121 18.2117 80.5314 17.506 80.599 16.7134C80.6667 15.9111 81.3724 15.3214 82.165 15.3891C88.3806 15.9207 93.2332 20.0773 93.6972 25.2682C94.1611 30.4592 89.9465 37.5544 83.8083 38.9077C83.702 38.927 83.5957 38.9464 83.499 38.9464V38.956Z" fill="white"/>
<path d="M42.0187 46.0125C35.0008 46.0125 30.3222 41.2373 28.7659 36.0754C27.055 30.3915 28.8239 22.9482 36.7408 20.0386C37.4948 19.7583 38.3261 20.145 38.6064 20.8989C38.8868 21.6529 38.5001 22.4843 37.7461 22.7646C31.5499 25.0459 30.1676 30.6815 31.5499 35.244C33.0482 40.232 37.9008 44.4659 45.3343 42.7163C46.1173 42.5326 46.9003 43.0159 47.0743 43.7989C47.258 44.5819 46.7746 45.3552 45.9917 45.5389C44.59 45.8675 43.2657 46.0222 42.0187 46.0222V46.0125Z" fill="white"/>
<path d="M37.2066 22.842C36.4913 22.842 35.8726 22.32 35.776 21.595C35.689 20.957 35.6406 20.319 35.6406 19.6907C35.6406 16.2301 37.8156 12.8371 41.6145 10.3625C47.0084 6.85356 54.0843 6.18657 59.6522 8.6612C60.3869 8.98986 60.7155 9.84051 60.3869 10.5752C60.0582 11.3098 59.2076 11.6385 58.4729 11.3098C53.775 9.22185 47.7818 9.81151 43.1902 12.7985C40.2709 14.6931 38.5309 17.2741 38.5309 19.6907C38.5309 20.1837 38.5696 20.6863 38.6372 21.189C38.7532 21.9816 38.1926 22.7163 37.3999 22.8323C37.3323 22.8323 37.2646 22.842 37.1969 22.842H37.2066Z" fill="white"/>
<path d="M37.3822 54.2099C37.2178 54.2099 37.0535 54.1809 36.8892 54.1229C36.1352 53.8426 35.7485 53.0112 36.0289 52.2669C37.7785 47.482 41.8868 43.8474 44.864 42.8517C45.5794 42.6101 46.3334 42.4167 47.1163 42.2814C47.8993 42.1364 48.6533 42.6681 48.7983 43.4607C48.9336 44.2534 48.4117 44.9977 47.619 45.1427C46.9907 45.249 46.372 45.4037 45.792 45.6067C43.7911 46.2737 40.2918 49.0963 38.7645 53.2626C38.5518 53.8522 37.9912 54.2195 37.4015 54.2195L37.3822 54.2099Z" fill="white"/>
<path d="M43.5188 35.8918C42.7358 35.8918 42.0881 35.2731 42.0688 34.4805C42.0495 33.6781 42.6778 33.0112 43.4801 32.9918C46.4381 32.9048 48.9127 30.8362 49.367 28.0716C49.6377 26.4089 49.1253 24.7463 47.9654 23.4896C47.424 22.9 47.453 21.9913 48.0427 21.4403C48.6324 20.899 49.541 20.928 50.092 21.5177C51.8706 23.4316 52.6536 25.9836 52.238 28.5452C51.5613 32.6825 47.917 35.7758 43.5671 35.8918C43.5574 35.8918 43.5381 35.8918 43.5284 35.8918H43.5188Z" fill="white"/>
<path d="M56.0383 38.5792C54.2016 38.5792 52.394 37.9316 50.9923 36.6846C48.9044 34.8383 48.1987 32.1317 49.0397 29.251C49.262 28.4874 50.074 28.0427 50.8377 28.2747C51.6013 28.4971 52.046 29.309 51.814 30.0727C51.292 31.8513 51.6787 33.427 52.9063 34.5096C54.2499 35.6986 56.2799 35.9983 57.9619 35.2733C58.6965 34.9543 59.5472 35.2926 59.8662 36.0273C60.1852 36.7619 59.8469 37.6126 59.1122 37.9316C58.1262 38.3569 57.0726 38.5696 56.0383 38.5696V38.5792Z" fill="white"/>
<path d="M68.013 30.0629C67.897 30.0629 67.7906 30.0532 67.6746 30.0242C66.8917 29.8405 66.418 29.0575 66.6017 28.2746C67.0753 26.2929 65.7897 24.2146 63.5277 23.3543C62.0874 22.7936 60.4828 22.8226 59.1391 23.422C58.4045 23.7506 57.5538 23.422 57.2251 22.6873C56.8965 21.9527 57.2251 21.102 57.9598 20.7733C60.0091 19.8647 62.4161 19.8164 64.5717 20.6477C68.1966 22.0493 70.2459 25.5389 69.4243 28.9512C69.2599 29.6182 68.6703 30.0629 68.013 30.0629Z" fill="white"/>
<path d="M68.1857 24.7557C66.9678 24.7557 65.7111 24.456 64.5125 23.8374C63.7971 23.47 63.5168 22.6 63.8841 21.8847C64.2515 21.1694 65.1214 20.8891 65.8368 21.2564C67.5091 22.1167 69.2297 22.0587 70.4574 21.1211C71.366 20.4154 71.7817 19.3811 71.5497 18.3468C71.3757 17.5638 71.8687 16.7905 72.6517 16.6165C73.4346 16.4425 74.208 16.9355 74.382 17.7185C74.8459 19.8451 74.0243 22.0297 72.2263 23.412C71.076 24.3013 69.655 24.7557 68.1857 24.7557Z" fill="white"/>
<path d="M44.2351 56.5105C43.9741 56.5105 43.7035 56.4428 43.4618 56.2881C42.7852 55.8628 42.5822 54.9638 43.0075 54.2872C45.9944 49.5409 51.9103 46.9213 59.6726 46.9213H61.4222C65.5981 46.9213 73.37 46.9213 75.0616 46.9406C79.6532 47.018 82.6015 45.2297 83.1718 42.0397C83.3845 40.8507 83.1525 39.7874 82.4855 38.8788C81.5189 37.5545 79.6629 36.6361 77.3913 36.3461C75.719 36.2301 74.1336 36.6941 73.0897 37.6125C72.4323 38.1924 72.0553 38.8981 72.0167 39.6424C71.9684 40.4447 71.311 41.0441 70.4894 41.0054C69.6871 40.9571 69.0781 40.2804 69.1264 39.4781C69.2134 37.9604 69.9384 36.5298 71.1757 35.4375C72.7997 34.0068 75.1583 33.2819 77.6716 33.4559C80.8519 33.8522 83.3555 35.1668 84.8151 37.1485C85.9558 38.7048 86.3714 40.5607 86.0234 42.5327C85.2115 47.1146 81.2192 49.8309 75.3226 49.8309C75.2163 49.8309 75.1196 49.8309 75.0133 49.8309C73.3507 49.8019 65.5885 49.8019 61.4222 49.8116H59.6726C52.9447 49.8116 47.8987 51.9479 45.4628 55.8242C45.1825 56.2591 44.7185 56.5008 44.2351 56.5008V56.5105Z" fill="white"/>
<path d="M37.2462 22.842C36.6178 22.842 36.0378 22.436 35.8542 21.798C35.6319 21.0344 36.0765 20.2224 36.8402 20.0001C38.2611 19.5844 39.4598 19.4394 41.0741 19.4684C41.8764 19.4877 42.5144 20.1451 42.4951 20.9474C42.4757 21.74 41.8377 22.3684 41.0451 22.3684H41.0161C39.6821 22.3394 38.8025 22.4554 37.6522 22.784C37.5168 22.8227 37.3815 22.842 37.2462 22.842Z" fill="white"/>
<path d="M82.2224 23.3254C82.1354 23.3254 82.0484 23.3254 81.9614 23.3061C81.1687 23.1611 80.6467 22.4071 80.7917 21.6241C81.0721 20.0872 81.1204 18.9852 80.6371 17.2452C80.4244 16.4719 80.8691 15.6696 81.6424 15.4569C82.4157 15.2442 83.218 15.6889 83.4307 16.4622C84.059 18.7145 83.9913 20.2515 83.6434 22.1364C83.5177 22.8324 82.9087 23.3254 82.2224 23.3254Z" fill="white"/>
</g>
<defs>
<clipPath id="clip0_911_226">
<rect width="100" height="100" fill="white"/>
</clipPath>
</defs>
</svg>
