<svg width="100" height="100" viewBox="0 0 100 100" fill="none" xmlns="http://www.w3.org/2000/svg">
<g clip-path="url(#clip0_947_2288)">
<path d="M60.7919 95.7178C60.7049 95.7178 60.6082 95.7178 60.5212 95.6888C59.7382 95.5438 59.2163 94.7801 59.3709 93.9971L61.1012 84.8623C61.2462 84.0793 62.0195 83.5573 62.7929 83.712C63.5759 83.857 64.0978 84.6206 63.9432 85.4036L62.2129 94.5385C62.0775 95.2345 61.4686 95.7178 60.7919 95.7178Z" fill="white"/>
<path d="M28.9312 95.7179C28.7862 95.7179 28.6412 95.6986 28.4865 95.6502C27.7229 95.4086 27.3072 94.5869 27.5489 93.8329C30.3908 84.9397 29.7818 79.5942 25.2289 73.3979C22.213 69.2027 18.2207 62.6971 18.2207 54.5676C18.2207 46.438 21.749 38.0668 27.9065 32.3443C34.1511 26.5444 42.2903 23.6928 50.8452 24.3211C65.8862 25.4327 77.9114 37.4675 78.82 52.3346C78.8684 53.1369 78.8394 53.9779 78.7234 55.0509C78.6267 55.9692 78.965 56.7329 79.3904 57.7092L83.2763 66.6507C83.6629 67.54 83.576 68.5453 83.0636 69.3573C82.5706 70.1403 81.7296 70.6333 80.8113 70.701L77.2541 71.2713C77.2541 71.2713 77.1864 71.31 77.1767 71.3486L75.9974 82.8518C75.7847 85.0944 73.9868 86.8054 71.7248 86.9214C67.6939 87.134 64.7649 87.018 62.2613 86.554C59.7867 86.09 57.6117 85.2781 54.9921 83.8378C54.2864 83.4511 54.0351 82.5714 54.4218 81.8658C54.8084 81.1698 55.6881 80.9088 56.3937 81.2955C58.733 82.5811 60.647 83.2964 62.8026 83.7024C65.0743 84.1277 67.7905 84.2244 71.5798 84.0311C72.3918 83.9924 73.0395 83.3738 73.1071 82.5714L74.2864 71.0586C74.4121 69.715 75.4464 68.6227 76.7804 68.4003L80.4247 67.8204C80.4827 67.8204 80.5503 67.801 80.6083 67.801L76.7224 58.8692C76.2197 57.7189 75.6591 56.4139 75.8331 54.7416C75.9297 53.8329 75.9587 53.1466 75.9201 52.5086C75.1081 39.0915 64.2333 28.2167 50.6228 27.2114C42.8993 26.641 35.5237 29.222 29.8785 34.4612C24.3106 39.6328 21.1207 46.96 21.1207 54.5579C21.1207 60.1065 23.17 65.5487 27.5779 71.687C32.7011 78.6565 33.4454 84.8914 30.3135 94.7029C30.1202 95.3216 29.5498 95.7082 28.9312 95.7082V95.7179Z" fill="white"/>
<path d="M57.0425 20.6766C56.8008 20.6766 56.5592 20.6186 56.3368 20.493C55.6408 20.0967 55.3895 19.217 55.7858 18.521L59.9038 11.1938C60.1358 10.7878 60.5418 10.5171 60.9961 10.4688C61.4601 10.4108 61.9144 10.5848 62.2334 10.9231L64.273 13.1271L66.9216 7.33687C67.2503 6.61188 68.1106 6.28322 68.8453 6.62155C69.5703 6.95021 69.8893 7.81053 69.5606 8.54518L66.0033 16.317C65.8003 16.7617 65.3943 17.071 64.911 17.1484C64.4374 17.2257 63.9444 17.0614 63.6157 16.7037L61.4504 14.3644L58.3088 19.9613C58.0381 20.435 57.5548 20.696 57.0425 20.696V20.6766Z" fill="white"/>
<path d="M17.6895 35.3891C17.4479 35.3891 17.2062 35.3311 16.9839 35.2054L9.65668 31.0875C9.25069 30.8555 8.98002 30.4495 8.93169 29.9952C8.87369 29.5312 9.04769 29.0768 9.38602 28.7578L11.59 26.7182L5.79974 24.0696C5.07476 23.7409 4.75576 22.8806 5.08442 22.1459C5.41308 21.421 6.2734 21.0923 7.00806 21.4306L14.7799 24.9879C15.2246 25.1909 15.5339 25.5969 15.6112 26.0802C15.6886 26.5635 15.5146 27.0469 15.1666 27.3755L12.8273 29.5408L18.4242 32.6824C19.1202 33.0788 19.3715 33.9584 18.9752 34.6544C18.7045 35.1281 18.2212 35.3891 17.7089 35.3891H17.6895Z" fill="white"/>
<path d="M35.2931 22.7357C34.7711 22.7357 34.2685 22.4554 34.0075 21.9527L30.1312 14.4902C29.9185 14.0745 29.9089 13.5912 30.1215 13.1755C30.3245 12.7599 30.7209 12.4699 31.1752 12.3925L34.1331 11.8995L30.7402 6.5153C30.3149 5.83864 30.5179 4.93966 31.1945 4.51433C31.8712 4.08901 32.7702 4.292 33.1955 4.96866L37.7581 12.1992C38.0191 12.6052 38.0577 13.1175 37.8547 13.5622C37.6518 14.0068 37.2458 14.3162 36.7721 14.4032L33.6305 14.9348L36.5884 20.6284C36.9558 21.3437 36.6851 22.2137 35.9698 22.581C35.7571 22.697 35.5251 22.7454 35.3028 22.7454L35.2931 22.7357Z" fill="white"/>
<path d="M85.6063 35.0217C85.3066 35.0217 85.0069 34.9251 84.7556 34.7414C84.3593 34.4611 84.137 33.9971 84.1563 33.5137L84.282 30.3335L78.1051 32.0638C77.3414 32.2861 76.5294 31.8318 76.3168 31.0585C76.1041 30.2851 76.5488 29.4925 77.3221 29.2702L85.4226 26.9985C85.8673 26.8729 86.3506 26.9695 86.7083 27.2595C87.0756 27.5495 87.2786 27.9942 87.2592 28.4582L87.1432 31.4548L93.1075 29.2315C93.8615 28.9512 94.6928 29.3378 94.9731 30.0821C95.2534 30.8361 94.8668 31.6674 94.1225 31.9478L86.1186 34.9251C85.9543 34.9831 85.7803 35.0121 85.6159 35.0121L85.6063 35.0217Z" fill="white"/>
</g>
<defs>
<clipPath id="clip0_947_2288">
<rect width="100" height="100" fill="white"/>
</clipPath>
</defs>
</svg>
