<svg width="100" height="100" viewBox="0 0 100 100" fill="none" xmlns="http://www.w3.org/2000/svg">
<g clip-path="url(#clip0_911_303)">
<path d="M49.7918 64.3403C48.9895 64.3403 48.3418 63.6926 48.3418 62.8903V57.4771C48.3418 56.6748 48.9895 56.0271 49.7918 56.0271C50.5941 56.0271 51.2417 56.6748 51.2417 57.4771V62.8903C51.2417 63.6926 50.5941 64.3403 49.7918 64.3403Z" fill="white"/>
<path d="M32.7877 31.9864C32.6717 31.9864 32.5557 31.9767 32.4397 31.9477C27.4421 30.7201 26.1371 25.3552 26.1565 22.6969C26.1565 21.8946 26.8041 21.2566 27.6064 21.2566C28.4088 21.2566 29.0564 21.9139 29.0467 22.7066C29.0467 22.9386 29.1047 28.1488 33.126 29.1348C33.8993 29.3281 34.3827 30.1111 34.1893 30.8844C34.025 31.5418 33.4353 31.9864 32.778 31.9864H32.7877Z" fill="white"/>
<path d="M25.0453 46.2639C24.939 46.2639 24.8326 46.2543 24.7263 46.2253C17.8341 44.6786 16.5388 38.4534 16.4904 38.1827C16.3358 37.3997 16.8481 36.6361 17.6407 36.4814C18.4334 36.3364 19.1874 36.8391 19.342 37.6221C19.3807 37.8251 20.3667 42.2717 25.3739 43.393C26.1569 43.567 26.6499 44.3403 26.4663 45.1233C26.3116 45.7999 25.7123 46.2543 25.0549 46.2543L25.0453 46.2639Z" fill="white"/>
<path d="M15.7952 63.5861C15.7952 63.5861 15.7082 63.5861 15.6599 63.5861C14.8575 63.5184 14.2775 62.8128 14.3452 62.0105C14.3645 61.7688 14.9445 56.0366 21.1891 53.0979C21.9141 52.7596 22.7744 53.0689 23.1224 53.7939C23.4607 54.5189 23.1514 55.3792 22.4264 55.7272C17.6802 57.9602 17.2452 62.2231 17.2355 62.2715C17.1678 63.0254 16.5395 63.5958 15.7952 63.5958V63.5861Z" fill="white"/>
<path d="M27.5584 78.0571C26.8431 78.0571 26.2148 77.5254 26.1278 76.8004C26.0988 76.5781 25.4704 71.2615 30.2844 67.3176C30.903 66.8053 31.8213 66.9019 32.324 67.5206C32.8363 68.1392 32.7397 69.0479 32.121 69.5602C28.5927 72.4602 28.9891 76.2784 29.0084 76.4428C29.1051 77.2354 28.5347 77.9604 27.7421 78.0571C27.6841 78.0571 27.6261 78.0667 27.5584 78.0667V78.0571Z" fill="white"/>
<path d="M33.6409 36.2784C33.1383 36.2784 32.6453 36.0174 32.3843 35.5438C31.321 33.6781 31.2726 31.5708 32.2393 29.7632C33.1479 28.0619 34.8203 26.8922 36.4829 26.7666C37.2755 26.7086 37.9715 27.3079 38.0295 28.1102C38.0875 28.9125 37.4882 29.5989 36.6859 29.6569C36.1156 29.6955 35.2746 30.2175 34.7913 31.1262C34.4433 31.7835 34.1726 32.8371 34.8976 34.1034C35.2939 34.7994 35.0522 35.6888 34.3563 36.0851C34.1339 36.2108 33.8826 36.2784 33.6409 36.2784Z" fill="white"/>
<path d="M49.8015 61.7593C49.1055 61.7593 48.4965 61.2566 48.3708 60.551C47.8488 57.5253 44.9585 55.4857 41.9523 56.0077C40.8503 56.1914 39.8546 56.7037 39.0523 57.4674C38.4723 58.0183 37.554 57.999 37.003 57.4287C36.452 56.8487 36.4713 55.9304 37.0417 55.3794C38.2596 54.2097 39.787 53.4461 41.4593 53.1561C46.0509 52.3731 50.4395 55.4664 51.2224 60.0676C51.3578 60.8603 50.8261 61.6046 50.0431 61.7399C49.9561 61.7496 49.8788 61.7593 49.7918 61.7593H49.8015Z" fill="white"/>
<path d="M34.3653 60.377C33.7176 60.377 33.128 59.942 32.9637 59.2943C32.7607 58.521 33.2247 57.7284 34.0076 57.5254C36.4243 56.8971 37.9032 54.4901 37.2943 52.1508C37.0719 51.3098 36.6079 50.5558 35.9409 49.9855C35.332 49.4635 35.2643 48.5452 35.7863 47.9362C36.3083 47.3272 37.2266 47.2596 37.8356 47.7815C38.9472 48.7385 39.7302 49.9952 40.0975 51.4161C41.1029 55.3021 38.6959 59.2943 34.7326 60.3287C34.607 60.3577 34.491 60.377 34.3653 60.377Z" fill="white"/>
<path d="M82.8492 49.5116H49.7801C48.9777 49.5116 48.3301 48.864 48.3301 48.0616V43.8084C48.3301 43.0061 48.9777 42.3584 49.7801 42.3584C50.5824 42.3584 51.23 43.0061 51.23 43.8084V46.6117H82.8492C83.6515 46.6117 84.2991 47.2593 84.2991 48.0616C84.2991 48.864 83.6515 49.5116 82.8492 49.5116Z" fill="white"/>
<path d="M86.7636 53.079C84.028 53.079 81.8047 50.8557 81.8047 48.12C81.8047 45.3844 84.028 43.1611 86.7636 43.1611C89.4992 43.1611 91.7225 45.3844 91.7225 48.12C91.7225 50.8557 89.4992 53.079 86.7636 53.079ZM86.7636 46.0514C85.623 46.0514 84.7046 46.9794 84.7046 48.1104C84.7046 49.2414 85.6326 50.1693 86.7636 50.1693C87.8946 50.1693 88.8226 49.2414 88.8226 48.1104C88.8226 46.9794 87.8946 46.0514 86.7636 46.0514Z" fill="white"/>
<path d="M69.6157 39.0138H49.7801C48.9777 39.0138 48.3301 38.3662 48.3301 37.5639V33.9583C48.3301 33.1559 48.9777 32.5083 49.7801 32.5083C50.5824 32.5083 51.23 33.1559 51.23 33.9583V36.1139H69.0357L76.6626 28.8447C77.2426 28.2937 78.1609 28.313 78.7119 28.893C79.2629 29.473 79.2436 30.3913 78.6636 30.9423L70.621 38.6175C70.3504 38.8785 69.9927 39.0235 69.6157 39.0235V39.0138Z" fill="white"/>
<path d="M80.2519 32.4794C77.5163 32.4794 75.293 30.2561 75.293 27.5204C75.293 24.7848 77.5163 22.5615 80.2519 22.5615C82.9875 22.5615 85.2108 24.7848 85.2108 27.5204C85.2108 30.2561 82.9875 32.4794 80.2519 32.4794ZM80.2519 25.4518C79.1112 25.4518 78.1929 26.3798 78.1929 27.5108C78.1929 28.6418 79.1209 29.5697 80.2519 29.5697C81.3829 29.5697 82.3109 28.6418 82.3109 27.5108C82.3109 26.3798 81.3829 25.4518 80.2519 25.4518Z" fill="white"/>
<path d="M63.9822 73.9776C63.1992 73.9776 62.5612 73.359 62.5322 72.576L62.4066 68.5547H51.2417V72.5277C51.2417 73.33 50.5941 73.9776 49.7918 73.9776C48.9895 73.9776 48.3418 73.33 48.3418 72.5277V67.1048C48.3418 66.3024 48.9895 65.6548 49.7918 65.6548H63.8179C64.6009 65.6548 65.2388 66.2734 65.2678 67.0564L65.4418 72.4793C65.4708 73.2817 64.8425 73.9486 64.0402 73.9776C64.0209 73.9776 64.0112 73.9776 63.9919 73.9776H63.9822Z" fill="white"/>
<path d="M63.9824 81.5753C61.2467 81.5753 59.0234 79.352 59.0234 76.6164C59.0234 73.8808 61.2467 71.6575 63.9824 71.6575C66.718 71.6575 68.9413 73.8808 68.9413 76.6164C68.9413 79.352 66.718 81.5753 63.9824 81.5753ZM63.9824 74.5478C62.8417 74.5478 61.9234 75.4757 61.9234 76.6067C61.9234 77.7377 62.8514 78.6657 63.9824 78.6657C65.1133 78.6657 66.0413 77.7377 66.0413 76.6067C66.0413 75.4757 65.1133 74.5478 63.9824 74.5478Z" fill="white"/>
<path d="M39.7765 92.025C32.1496 92.025 26.6977 86.3218 26.1564 77.9893C19.3802 77.2836 14.0829 71.5417 14.0829 64.5818C14.0829 63.9825 14.1216 63.3735 14.1989 62.7742C10.4676 59.8549 8.26367 55.3793 8.26367 50.6137C8.26367 44.9878 11.357 39.8066 16.2385 37.1193C16.0935 36.3266 16.0259 35.5243 16.0259 34.7123C16.0259 28.4677 20.2211 23.1608 26.166 21.6529C26.5817 13.417 32.0336 7.96509 39.9988 7.96509C51.2216 7.96509 51.2216 19.0429 51.2216 22.6872V26.7568H62.3864L62.5121 22.7355C62.5411 21.9332 63.1791 21.2855 64.0104 21.3339C64.8127 21.3629 65.4411 22.0299 65.4121 22.8322L65.2381 28.2551C65.2091 29.0381 64.5711 29.6567 63.7881 29.6567H49.762C48.9597 29.6567 48.312 29.0091 48.312 28.2068V22.6872C48.312 14.2966 45.8954 10.865 39.9891 10.865C33.3289 10.865 29.0273 15.505 29.0273 22.6872C29.0273 22.7452 29.0273 22.8612 29.008 22.9385C28.9597 23.6055 28.4667 24.1662 27.79 24.2725C22.6474 25.1038 18.9065 29.4924 18.9065 34.7123C18.9065 35.6693 19.0322 36.6166 19.2835 37.5156C19.4768 38.2019 19.1385 38.9269 18.4812 39.2169C14.0249 41.2469 11.1346 45.7225 11.1346 50.6137C11.1346 54.7413 13.1646 58.5983 16.5769 60.9375C17.0602 61.2662 17.2922 61.8559 17.1762 62.4262C17.0312 63.1318 16.9539 63.8568 16.9539 64.5818C16.9539 70.4107 21.7001 75.157 27.529 75.157C28.3313 75.157 28.979 75.8046 28.979 76.6069C28.979 82.8322 32.3043 89.1251 39.7378 89.1251C47.1714 89.1251 48.3023 83.9728 48.3023 79.6519C48.3023 78.8496 48.95 78.2019 49.7523 78.2019C50.5546 78.2019 51.2023 78.8496 51.2023 79.6519C51.2023 87.5108 47.0264 92.025 39.7378 92.025H39.7765Z" fill="white"/>
<path d="M63.9824 23.6634C61.2467 23.6634 59.0234 21.4401 59.0234 18.7045C59.0234 15.9689 61.2467 13.7456 63.9824 13.7456C66.718 13.7456 68.9413 15.9689 68.9413 18.7045C68.9413 21.4401 66.718 23.6634 63.9824 23.6634ZM63.9824 16.6456C62.8417 16.6456 61.9234 17.5735 61.9234 18.7045C61.9234 19.8355 62.8514 20.7635 63.9824 20.7635C65.1133 20.7635 66.0413 19.8355 66.0413 18.7045C66.0413 17.5735 65.1133 16.6456 63.9824 16.6456Z" fill="white"/>
<path d="M77.6586 66.602C77.3009 66.602 76.9336 66.4667 76.6533 66.196L69.0264 58.9268H49.239C48.4367 58.9268 47.7891 58.2792 47.7891 57.4768C47.7891 56.6745 48.4367 56.0269 49.239 56.0269H69.6064C69.9834 56.0269 70.341 56.1719 70.6117 56.4329L78.6542 64.1081C79.2342 64.659 79.2535 65.5774 78.7025 66.1574C78.4222 66.457 78.0356 66.602 77.6586 66.602Z" fill="white"/>
<path d="M80.2519 72.4891C77.5163 72.4891 75.293 70.2658 75.293 67.5302C75.293 64.7946 77.5163 62.5713 80.2519 62.5713C82.9875 62.5713 85.2108 64.7946 85.2108 67.5302C85.2108 70.2658 82.9875 72.4891 80.2519 72.4891ZM80.2519 65.4712C79.1112 65.4712 78.1929 66.3992 78.1929 67.5302C78.1929 68.6612 79.1209 69.5892 80.2519 69.5892C81.3829 69.5892 82.3109 68.6612 82.3109 67.5302C82.3109 66.3992 81.3829 65.4712 80.2519 65.4712Z" fill="white"/>
</g>
<defs>
<clipPath id="clip0_911_303">
<rect width="100" height="100" fill="white"/>
</clipPath>
</defs>
</svg>
