<svg width="1446" height="203" viewBox="0 0 1446 203" fill="none" xmlns="http://www.w3.org/2000/svg">
<rect x="19" y="153" width="98" height="49" rx="24.5" fill="url(#paint0_linear_1026_105)"/>
<path d="M55.7514 171.207C55.7514 173.843 57.5497 176.428 60.9227 177.456L59.5884 179.503C57.1768 178.732 55.4365 177.133 54.4751 175.119C53.5138 177.315 51.7155 179.064 49.2127 179.917L47.8619 177.862C51.2762 176.743 53.0994 174 53.1077 171.207V170.602H48.5497V168.506H60.2099V170.602H55.7514V171.207ZM51.326 187.674V180.878H53.953V185.561H65.9365V187.674H51.326ZM62.7293 182.304V166.923H65.3398V182.304H62.7293ZM87.3009 177.05V179.122H67.9666V177.05H76.3616V175.019H70.3451V167.859H84.9556V169.906H72.9307V172.964H85.0716V175.019H78.9141V177.05H87.3009ZM70.2125 184.218C70.2125 181.74 72.9887 180.34 77.5882 180.34C82.171 180.34 84.9224 181.74 84.9307 184.218C84.9224 186.68 82.171 188.08 77.5882 188.088C72.9887 188.08 70.2125 186.68 70.2125 184.218ZM72.8644 184.218C72.8478 185.445 74.5136 186.083 77.5882 186.066C80.6296 186.083 82.3119 185.445 82.3285 184.218C82.3119 183 80.6296 182.345 77.5882 182.345C74.5136 182.345 72.8478 183 72.8644 184.218Z" fill="white"/>
<g clip-path="url(#clip0_1026_105)">
<g clip-path="url(#clip1_1026_105)">
<path d="M41.7917 121.382C41.2001 121.382 40.6085 121.159 40.1615 120.712L23.2421 103.792C22.3481 102.898 22.3481 101.439 23.2421 100.545L38.8075 84.9796L23.1763 69.3484C22.2824 68.4545 22.2824 66.9952 23.1763 66.1013L38.3079 50.9697L23.3998 36.0616C22.9528 35.6278 22.7162 35.0231 22.7294 34.392C22.7294 33.7742 23.0054 33.1826 23.4656 32.7487L40.0564 17.2491C40.9898 16.3814 42.4359 16.434 43.3035 17.3542C44.1712 18.2876 44.1186 19.7337 43.1984 20.6014L28.3429 34.4709L43.1984 49.3264C44.0923 50.2204 44.0923 51.6796 43.1984 52.5736L28.0668 67.7051L43.6979 83.3363C44.5919 84.2302 44.5919 85.6895 43.6979 86.5834L28.1325 102.149L43.4219 117.438C44.3158 118.332 44.3158 119.791 43.4219 120.685C42.9749 121.132 42.3833 121.356 41.7917 121.356V121.382Z" fill="white"/>
<path d="M64.8366 121.382C64.245 121.382 63.6534 121.159 63.2065 120.712L46.287 103.792C45.8531 103.358 45.6165 102.78 45.6165 102.162C45.6165 101.544 45.8531 100.966 46.287 100.532L61.8524 84.9664L46.2213 69.3353C45.3273 68.4413 45.3273 66.982 46.2213 66.0881L61.3528 50.9565L46.4447 36.0485C45.9978 35.6146 45.7611 35.0099 45.7743 34.3789C45.7743 33.761 46.0503 33.1694 46.5105 32.7355L63.1013 17.2359C64.0347 16.3682 65.4808 16.4208 66.3485 17.3411C67.2161 18.2745 67.1635 19.7206 66.2433 20.5882L51.3878 34.4577L66.2433 49.3132C67.1372 50.2072 67.1372 51.6664 66.2433 52.5604L51.1117 67.692L66.7429 83.3231C67.6368 84.217 67.6368 85.6763 66.7429 86.5702L51.1775 102.136L66.4799 117.425C67.3739 118.319 67.3739 119.778 66.4799 120.672C66.0329 121.119 65.4414 121.343 64.8498 121.343L64.8366 121.382Z" fill="white"/>
<path d="M87.8698 121.382C87.2782 121.382 86.6866 121.159 86.2397 120.712L69.3202 103.792C68.8864 103.358 68.6497 102.78 68.6497 102.162C68.6497 101.544 68.8864 100.966 69.3202 100.532L84.8856 84.9664L69.2545 69.3353C68.3605 68.4413 68.3605 66.982 69.2545 66.0881L84.386 50.9565L69.4779 36.0485C69.031 35.6146 68.7943 35.0099 68.8075 34.3789C68.8075 33.761 69.0836 33.1694 69.5437 32.7355L86.1345 17.2359C87.0679 16.3682 88.514 16.4208 89.3817 17.3411C90.2493 18.2745 90.1968 19.7206 89.2765 20.5882L74.421 34.4577L89.2765 49.3132C90.1705 50.2072 90.1705 51.6664 89.2765 52.5604L74.1449 67.692L89.7761 83.3231C90.67 84.217 90.67 85.6763 89.7761 86.5702L74.2107 102.136L89.5131 117.425C90.4071 118.319 90.4071 119.778 89.5131 120.672C89.0661 121.119 88.4746 121.343 87.883 121.343L87.8698 121.382Z" fill="white"/>
<path d="M110.915 121.382C110.323 121.382 109.732 121.159 109.285 120.712L92.3651 103.792C91.9313 103.358 91.6946 102.78 91.6946 102.162C91.6946 101.544 91.9313 100.966 92.3651 100.532L107.931 84.9664L92.2994 69.3353C91.4054 68.4413 91.4054 66.982 92.2994 66.0881L107.431 50.9565L92.5229 36.0485C92.0759 35.6146 91.8393 35.0099 91.8524 34.3789C91.8524 33.761 92.1285 33.1694 92.5886 32.7355L109.179 17.2359C110.113 16.3682 111.559 16.4208 112.427 17.3411C113.294 18.2745 113.242 19.7206 112.321 20.5882L97.4659 34.4577L112.321 49.3132C112.755 49.7471 112.992 50.3255 112.992 50.9434C112.992 51.5613 112.755 52.1397 112.321 52.5735L97.1899 67.7051L112.821 83.3362C113.715 84.2302 113.715 85.6894 112.821 86.5834L97.2556 102.149L112.558 117.438C113.452 118.332 113.452 119.791 112.558 120.685C112.111 121.132 111.519 121.356 110.928 121.356L110.915 121.382Z" fill="white"/>
</g>
</g>
<g clip-path="url(#clip2_1026_105)">
<path d="M1395.08 126.784C1394.97 126.784 1394.83 126.784 1394.72 126.745C1393.65 126.548 1392.94 125.509 1393.15 124.444L1395.51 112.021C1395.7 110.956 1396.75 110.246 1397.81 110.456C1398.87 110.654 1399.58 111.692 1399.37 112.757L1397.02 125.18C1396.83 126.127 1396 126.784 1395.08 126.784Z" fill="white"/>
<path d="M1351.74 126.784C1351.54 126.784 1351.35 126.758 1351.14 126.692C1350.1 126.364 1349.53 125.246 1349.86 124.221C1353.73 112.126 1352.9 104.856 1346.71 96.4291C1342.6 90.7236 1337.17 81.876 1337.17 70.8198C1337.17 59.7637 1341.97 48.3789 1350.35 40.5962C1358.84 32.7083 1369.91 28.8301 1381.54 29.6846C1402 31.1965 1418.35 47.5638 1419.59 67.783C1419.65 68.8742 1419.62 70.0179 1419.46 71.4772C1419.33 72.7261 1419.79 73.7647 1420.36 75.0924L1425.65 87.2529C1426.18 88.4624 1426.06 89.8296 1425.36 90.9339C1424.69 91.9988 1423.55 92.6692 1422.3 92.7613L1417.46 93.5369C1417.46 93.5369 1417.37 93.5895 1417.35 93.6421L1415.75 109.286C1415.46 112.336 1413.02 114.663 1409.94 114.821C1404.46 115.11 1400.47 114.952 1397.07 114.321C1393.7 113.69 1390.75 112.586 1387.18 110.627C1386.22 110.101 1385.88 108.905 1386.41 107.945C1386.93 106.999 1388.13 106.644 1389.09 107.17C1392.27 108.918 1394.87 109.891 1397.81 110.443C1400.89 111.022 1404.59 111.153 1409.74 110.89C1410.85 110.838 1411.73 109.996 1411.82 108.905L1413.42 93.2477C1413.59 91.4203 1415 89.9348 1416.82 89.6324L1421.77 88.8436C1421.85 88.8436 1421.94 88.8173 1422.02 88.8173L1416.74 76.67C1416.05 75.1056 1415.29 73.3308 1415.53 71.0565C1415.66 69.8207 1415.7 68.8873 1415.64 68.0197C1414.54 49.7724 1399.75 34.9826 1381.24 33.6154C1370.74 32.8398 1360.71 36.3499 1353.03 43.4752C1345.46 50.5086 1341.12 60.4736 1341.12 70.8067C1341.12 78.3528 1343.9 85.7542 1349.9 94.1022C1356.87 103.581 1357.88 112.06 1353.62 125.404C1353.36 126.245 1352.58 126.771 1351.74 126.771V126.784Z" fill="white"/>
<path d="M1378.01 24.4392C1376.91 24.4392 1376.03 23.5584 1376.03 22.4672V11.1875C1376.03 10.0964 1376.91 9.21558 1378.01 9.21558C1379.1 9.21558 1379.98 10.0964 1379.98 11.1875V22.4672C1379.98 23.5584 1379.1 24.4392 1378.01 24.4392Z" fill="white"/>
<path d="M1361.77 27.3051C1360.97 27.3051 1360.21 26.8056 1359.92 26.0036L1356.06 15.4076C1355.7 14.3822 1356.22 13.2516 1357.25 12.8835C1358.26 12.5154 1359.4 13.0412 1359.77 14.0667L1363.62 24.6627C1363.99 25.6881 1363.47 26.8187 1362.44 27.1868C1362.22 27.2657 1361.99 27.3051 1361.77 27.3051Z" fill="white"/>
<path d="M1347.49 35.5479C1346.93 35.5479 1346.38 35.3113 1345.98 34.838L1338.74 26.2008C1338.04 25.3725 1338.15 24.1236 1338.99 23.4269C1339.81 22.7301 1341.06 22.8353 1341.76 23.6766L1349 32.3139C1349.7 33.1421 1349.6 34.391 1348.75 35.0878C1348.39 35.4033 1347.94 35.5479 1347.49 35.5479Z" fill="white"/>
<path d="M1336.88 48.1817C1336.56 48.1817 1336.21 48.1028 1335.9 47.9188L1326.13 42.2789C1325.18 41.7399 1324.87 40.5305 1325.41 39.5839C1325.95 38.6374 1327.16 38.3219 1328.1 38.8609L1337.87 44.5007C1338.82 45.0397 1339.13 46.2492 1338.59 47.1957C1338.22 47.8267 1337.57 48.1817 1336.88 48.1817Z" fill="white"/>
<path d="M1394.24 27.3051C1394.02 27.3051 1393.8 27.2657 1393.57 27.1868C1392.55 26.8187 1392.02 25.6881 1392.39 24.6627L1396.24 14.0667C1396.61 13.0412 1397.75 12.5154 1398.76 12.8835C1399.79 13.2516 1400.32 14.3822 1399.95 15.4076L1396.1 26.0036C1395.81 26.8056 1395.04 27.3051 1394.24 27.3051Z" fill="white"/>
<path d="M1408.52 35.548C1408.07 35.548 1407.62 35.3902 1407.26 35.0879C1406.43 34.3911 1406.31 33.1422 1407.01 32.314L1414.25 23.6767C1414.95 22.8485 1416.2 22.7302 1417.02 23.427C1417.85 24.1237 1417.97 25.3726 1417.27 26.2009L1410.03 34.8381C1409.64 35.2982 1409.08 35.548 1408.52 35.548Z" fill="white"/>
<path d="M1419.11 48.1817C1418.43 48.1817 1417.77 47.8267 1417.41 47.1957C1416.87 46.2492 1417.18 45.0528 1418.13 44.5007L1427.9 38.8608C1428.84 38.3087 1430.04 38.6374 1430.59 39.5839C1431.13 40.5304 1430.81 41.7268 1429.87 42.2789L1420.1 47.9188C1419.78 48.1028 1419.46 48.1817 1419.11 48.1817Z" fill="white"/>
<path d="M1396.92 52.4675C1396.07 52.4675 1395.28 51.9022 1395.03 51.0477C1393.65 46.2492 1388.85 43.0415 1383.63 43.4622C1379.99 43.7514 1377.03 45.5261 1375.32 48.471C1374.77 49.4175 1373.56 49.733 1372.63 49.1809C1371.68 48.6287 1371.37 47.4324 1371.92 46.4858C1374.27 42.4367 1378.44 39.9126 1383.33 39.5314C1390.42 38.9792 1396.92 43.3701 1398.83 49.9565C1399.13 51.0082 1398.53 52.0994 1397.47 52.4017C1397.29 52.4543 1397.11 52.4806 1396.92 52.4806V52.4675Z" fill="white"/>
<path d="M1398.21 71.8715C1397.32 71.8715 1396.5 71.2537 1396.29 70.3466C1396.04 69.2817 1396.7 68.23 1397.76 67.9802C1401.46 67.1125 1404.29 62.1563 1404 58.7119C1403.72 55.4516 1400.67 52.8223 1396.75 52.4674C1395.66 52.3622 1394.87 51.4025 1394.96 50.3245C1395.07 49.2334 1396.04 48.4446 1397.11 48.5366C1402.94 49.0625 1407.49 53.2036 1407.93 58.3833C1408.36 63.4973 1404.4 70.478 1398.67 71.8321C1398.51 71.8715 1398.37 71.8847 1398.22 71.8847L1398.21 71.8715Z" fill="white"/>
<path d="M1360.38 78.9969C1353.62 78.9969 1349.42 73.4754 1348.35 67.9407C1347.19 62.0379 1349.36 54.8074 1356.83 52.8617C1357.88 52.5856 1358.96 53.2167 1359.23 54.2684C1359.51 55.3201 1358.88 56.3981 1357.83 56.6742C1352.79 57.9888 1351.38 62.9056 1352.21 67.1914C1353.07 71.5691 1356.3 75.684 1361.57 74.9872C1362.65 74.8557 1363.65 75.6051 1363.78 76.6831C1363.91 77.7611 1363.16 78.7602 1362.08 78.8917C1361.49 78.9706 1360.91 79.01 1360.36 79.01L1360.38 78.9969Z" fill="white"/>
<path d="M1357.29 56.7399C1356.32 56.7399 1355.47 56.0169 1355.34 55.0309C1355.26 54.413 1355.21 53.782 1355.21 53.1641C1355.21 49.5751 1357.49 45.9861 1361.31 43.5672C1366.28 40.412 1372.46 39.9256 1377.45 42.2657C1378.44 42.7258 1378.86 43.909 1378.4 44.895C1377.94 45.881 1376.76 46.3016 1375.77 45.8415C1371.25 43.7118 1366.44 44.987 1363.43 46.8932C1360.76 48.5891 1359.15 50.9292 1359.15 53.1641C1359.15 53.6111 1359.18 54.058 1359.25 54.505C1359.39 55.583 1358.63 56.5822 1357.55 56.7268C1357.46 56.7268 1357.38 56.7399 1357.29 56.7399Z" fill="white"/>
<path d="M1355.36 91.3676C1355.36 91.3676 1355.29 91.3676 1355.25 91.3676C1354.16 91.3151 1353.33 90.3817 1353.38 89.2905C1353.8 81.4815 1358.35 75.868 1362.63 74.3561C1363.32 74.1064 1364.02 73.9223 1364.73 73.7908C1365.79 73.5805 1366.83 74.3036 1367.03 75.3684C1367.23 76.4333 1366.52 77.4718 1365.45 77.669C1364.95 77.7611 1364.44 77.8925 1363.94 78.0766C1361.4 78.9837 1357.67 83.1248 1357.31 89.514C1357.26 90.5657 1356.38 91.3808 1355.34 91.3808L1355.36 91.3676Z" fill="white"/>
<path d="M1363.22 68.7558C1362.15 68.7558 1361.28 67.9144 1361.24 66.8364C1361.22 65.7452 1362.07 64.8381 1363.16 64.8118C1365.27 64.7461 1367.04 63.1554 1367.37 61.0257C1367.57 59.7242 1367.2 58.4358 1366.36 57.463C1365.64 56.6479 1365.71 55.399 1366.54 54.6759C1367.36 53.9529 1368.61 54.0449 1369.33 54.86C1370.95 56.7005 1371.66 59.172 1371.29 61.6173C1370.67 65.6269 1367.31 68.6243 1363.3 68.7426C1363.28 68.7426 1363.26 68.7426 1363.24 68.7426L1363.22 68.7558Z" fill="white"/>
<path d="M1373.72 71.1485C1372.09 71.1485 1370.47 70.5832 1369.18 69.4789C1367.08 67.6909 1366.3 64.9039 1367.11 62.0117C1367.4 60.96 1368.49 60.3421 1369.54 60.6445C1370.59 60.9337 1371.21 62.0248 1370.91 63.0765C1370.38 64.9828 1371.2 66.0345 1371.73 66.4946C1372.63 67.2571 1373.9 67.428 1374.97 66.9416C1375.97 66.4946 1377.12 66.9285 1377.58 67.9144C1378.04 68.9004 1377.61 70.0705 1376.61 70.5306C1375.69 70.9513 1374.69 71.1616 1373.71 71.1616L1373.72 71.1485Z" fill="white"/>
<path d="M1384.42 63.2606C1384.28 63.2606 1384.13 63.2475 1383.99 63.208C1382.92 62.9714 1382.25 61.9065 1382.5 60.8548C1382.83 59.3955 1381.94 57.8706 1380.36 57.2264C1379.36 56.8188 1378.27 56.832 1377.35 57.279C1376.36 57.7391 1375.19 57.3184 1374.72 56.3324C1374.26 55.3464 1374.68 54.1764 1375.67 53.7031C1377.59 52.796 1379.85 52.7566 1381.86 53.5717C1385.22 54.9389 1387.12 58.3701 1386.35 61.7093C1386.14 62.6296 1385.33 63.2475 1384.43 63.2475L1384.42 63.2606Z" fill="white"/>
<path d="M1384.58 58.541C1383.44 58.541 1382.25 58.2386 1381.11 57.6207C1380.15 57.0949 1379.79 55.8985 1380.32 54.952C1380.85 53.9923 1382.04 53.6373 1382.99 54.1632C1384.05 54.7416 1385.12 54.7548 1385.88 54.1763C1386.5 53.7162 1386.79 52.9932 1386.64 52.2701C1386.42 51.2052 1387.1 50.1667 1388.18 49.9432C1389.25 49.7197 1390.28 50.4033 1390.51 51.4813C1390.97 53.7162 1390.1 55.9643 1388.23 57.3446C1387.16 58.1466 1385.89 58.5541 1384.58 58.5541V58.541Z" fill="white"/>
<path d="M1362.72 93.8131C1362.72 93.8131 1362.64 93.8131 1362.6 93.8131C1361.51 93.7473 1360.68 92.8139 1360.74 91.7228C1361.26 83.3354 1367.84 78.1294 1377.97 78.1294H1379.6C1383.22 78.1294 1389.3 78.1294 1390.77 78.1425C1392.91 78.182 1396.63 77.6955 1397.24 74.0671C1397.41 73.0548 1397.21 72.1609 1396.66 71.4247C1395.9 70.3861 1394.45 69.6631 1392.7 69.4264C1391.55 69.3475 1390.35 69.6762 1389.57 70.373C1389.22 70.6885 1388.79 71.2143 1388.75 71.9505C1388.69 73.0417 1387.73 73.8436 1386.67 73.8173C1385.58 73.7647 1384.75 72.8313 1384.8 71.7402C1384.89 70.0969 1385.66 68.5588 1386.96 67.4019C1388.55 65.9952 1390.73 65.3247 1393.1 65.4956C1396.06 65.89 1398.41 67.1521 1399.82 69.0715C1401.01 70.6885 1401.46 72.6342 1401.1 74.7113C1400.33 79.3388 1396.54 82.0864 1390.97 82.0864C1390.88 82.0864 1390.77 82.0864 1390.68 82.0864C1389.23 82.0602 1382.95 82.0602 1379.57 82.0733H1377.94C1370 82.0733 1365.03 85.7675 1364.66 91.9726C1364.6 93.0243 1363.73 93.8262 1362.69 93.8262L1362.72 93.8131Z" fill="white"/>
<path d="M1357.33 56.7268C1356.42 56.7268 1355.62 56.1089 1355.41 55.1887C1355.17 54.1238 1355.83 53.0721 1356.89 52.8355C1358.34 52.5068 1359.27 52.4016 1360.65 52.4279C1361.74 52.4542 1362.61 53.3482 1362.59 54.4393C1362.56 55.5305 1361.65 56.4113 1360.57 56.3719C1359.55 56.3456 1358.88 56.4244 1357.76 56.6742C1357.62 56.7137 1357.47 56.7268 1357.33 56.7268Z" fill="white"/>
<path d="M1397.08 57.187C1396.98 57.187 1396.86 57.187 1396.75 57.1607C1395.67 56.9767 1394.95 55.9644 1395.14 54.8864C1395.37 53.4797 1395.41 52.5463 1395 50.9951C1394.73 49.9433 1395.36 48.8653 1396.41 48.5893C1397.46 48.3132 1398.54 48.9442 1398.82 49.9959C1399.4 52.1914 1399.32 53.7558 1399.01 55.5437C1398.86 56.5034 1398.01 57.187 1397.07 57.187H1397.08Z" fill="white"/>
</g>
<g clip-path="url(#clip3_1026_105)">
<path d="M470.976 24.8081C468.846 23.8747 466.453 24.2823 464.757 25.873L439.832 49.037C439.595 49.2605 439.293 49.3788 438.964 49.3788H415.787C412.579 49.3788 409.963 51.995 409.963 55.2027V82.7971C409.963 86.0048 412.579 88.621 415.787 88.621H438.977C439.293 88.621 439.608 88.7393 439.845 88.9628L464.77 112.127C465.875 113.152 467.255 113.678 468.662 113.678C469.437 113.678 470.226 113.52 470.989 113.192C473.118 112.258 474.446 110.234 474.446 107.907V30.093C474.446 27.7661 473.118 25.7415 470.989 24.8081H470.976ZM469.898 107.907C469.898 108.63 469.385 108.932 469.161 109.024C468.938 109.116 468.373 109.287 467.834 108.801L442.908 85.6367C441.83 84.6376 440.423 84.0854 438.951 84.0854H415.787C415.077 84.0854 414.498 83.507 414.498 82.7971V55.2027C414.498 54.4928 415.077 53.9144 415.787 53.9144H438.977C440.45 53.9144 441.856 53.3622 442.934 52.3631L467.86 29.199C468.386 28.7126 468.964 28.8835 469.188 28.9755C469.411 29.0676 469.924 29.3699 469.924 30.093V107.907H469.898Z" fill="white"/>
<path d="M519.75 71.3071H485.846C484.57 71.3071 483.545 70.2816 483.545 69.0064C483.545 67.7312 484.57 66.7058 485.846 66.7058H519.75C521.025 66.7058 522.051 67.7312 522.051 69.0064C522.051 70.2816 521.025 71.3071 519.75 71.3071Z" fill="white"/>
<path d="M485.846 50.6144C487.095 49.3655 509.825 26.6353 509.825 26.6353L485.846 50.6144Z" fill="white"/>
<path d="M485.846 52.9151C485.254 52.9151 484.662 52.6916 484.215 52.2446C483.321 51.3507 483.321 49.8914 484.215 48.9975C485.464 47.7486 508.195 25.0315 508.195 25.0315L511.442 28.2787C511.442 28.2787 488.711 51.0089 487.463 52.2578C487.016 52.7048 486.424 52.9283 485.832 52.9283L485.846 52.9151Z" fill="white"/>
<path d="M485.846 87.385L509.825 111.364L485.846 87.385Z" fill="white"/>
<path d="M509.811 113.665C509.219 113.665 508.628 113.441 508.181 112.994L484.202 89.0153C483.308 88.1213 483.308 86.6621 484.202 85.7681C485.096 84.8742 486.555 84.8742 487.449 85.7681L511.428 109.747C512.322 110.641 512.322 112.1 511.428 112.994C510.981 113.441 510.389 113.665 509.798 113.665H509.811Z" fill="white"/>
</g>
<path d="M853.286 120.765C852.694 120.765 852.103 120.542 851.656 120.095L834.736 103.175C834.302 102.742 834.066 102.163 834.066 101.545C834.066 100.927 834.302 100.349 834.736 99.9151L850.302 84.3497L834.67 68.7186C833.777 67.8246 833.777 66.3653 834.67 65.4714L849.802 50.3398L834.894 35.4318C834.447 34.9979 834.21 34.3932 834.223 33.7622C834.223 33.1443 834.5 32.5527 834.96 32.1188L851.551 16.6192C852.484 15.7515 853.93 15.8041 854.798 16.7244C855.665 17.6578 855.613 19.1039 854.693 19.9715L839.837 33.841L854.693 48.6965C855.586 49.5905 855.586 51.0497 854.693 51.9437L839.561 67.0753L855.192 82.7064C856.086 83.6003 856.086 85.0596 855.192 85.9535L839.627 101.519L854.929 116.808C855.823 117.702 855.823 119.161 854.929 120.055C854.482 120.502 853.891 120.726 853.299 120.726L853.286 120.765Z" fill="white"/>
<path d="M876.331 120.765C875.739 120.765 875.148 120.542 874.701 120.095L857.781 103.175C857.347 102.742 857.111 102.163 857.111 101.545C857.111 100.927 857.347 100.349 857.781 99.9151L873.347 84.3497L857.715 68.7186C856.821 67.8246 856.821 66.3653 857.715 65.4714L872.847 50.3398L857.939 35.4318C857.492 34.9979 857.255 34.3932 857.268 33.7622C857.268 33.1443 857.544 32.5527 858.005 32.1188L874.595 16.6192C875.529 15.7515 876.975 15.8041 877.843 16.7244C878.71 17.6578 878.658 19.1039 877.737 19.9715L862.882 33.841L877.737 48.6965C878.631 49.5905 878.631 51.0497 877.737 51.9437L862.606 67.0753L878.237 82.7064C879.131 83.6003 879.131 85.0596 878.237 85.9535L862.672 101.519L877.974 116.808C878.868 117.702 878.868 119.161 877.974 120.055C877.527 120.502 876.936 120.726 876.344 120.726L876.331 120.765Z" fill="white"/>
<path d="M899.364 120.765C898.772 120.765 898.181 120.542 897.734 120.095L880.814 103.175C880.38 102.742 880.144 102.163 880.144 101.545C880.144 100.927 880.38 100.349 880.814 99.9151L896.38 84.3497L880.749 68.7186C879.855 67.8246 879.855 66.3653 880.749 65.4714L895.88 50.3398L880.972 35.4318C880.525 34.9979 880.288 34.3932 880.302 33.7622C880.302 33.1443 880.578 32.5527 881.038 32.1188L897.629 16.6192C898.562 15.7515 900.008 15.8041 900.876 16.7244C901.743 17.6578 901.691 19.1039 900.771 19.9715L885.915 33.841L900.771 48.6965C901.204 49.1304 901.441 49.7088 901.441 50.3267C901.441 50.9446 901.204 51.523 900.771 51.9568L885.639 67.0884L901.27 82.7195C902.164 83.6135 902.164 85.0727 901.27 85.9667L885.705 101.532L901.007 116.821C901.901 117.715 901.901 119.175 901.007 120.069C900.56 120.516 899.969 120.739 899.377 120.739L899.364 120.765Z" fill="white"/>
<path d="M947.481 70.6906H913.576C912.301 70.6906 911.275 69.6652 911.275 68.39C911.275 67.1148 912.301 66.0894 913.576 66.0894H947.481C948.756 66.0894 949.781 67.1148 949.781 68.39C949.781 69.6652 948.756 70.6906 947.481 70.6906Z" fill="white"/>
<path d="M913.576 49.9979C914.825 48.749 937.555 26.0188 937.555 26.0188L913.576 49.9979Z" fill="white"/>
<path d="M913.576 52.2987C912.984 52.2987 912.393 52.0752 911.946 51.6282C911.052 50.7342 911.052 49.275 911.946 48.381L935.912 24.415L939.159 27.6622C939.159 27.6622 916.429 50.3924 915.18 51.6413C914.733 52.0883 914.141 52.3118 913.55 52.3118L913.576 52.2987Z" fill="white"/>
<path d="M913.576 86.7686L937.555 110.748L913.576 86.7686Z" fill="white"/>
<path d="M937.541 113.048C936.95 113.048 936.358 112.825 935.911 112.378L911.932 88.3988C911.038 87.5049 911.038 86.0456 911.932 85.1517C912.826 84.2577 914.285 84.2577 915.179 85.1517L939.158 109.131C940.052 110.025 940.052 111.484 939.158 112.378C938.712 112.825 938.12 113.048 937.528 113.048H937.541Z" fill="white"/>
<rect x="417" y="153" width="98" height="49" rx="24.5" fill="url(#paint1_linear_1026_105)"/>
<path d="M455.84 167.32C460.523 167.32 463.465 168.862 463.465 171.431C463.465 173.975 460.523 175.492 455.84 175.483C451.191 175.492 448.199 173.975 448.208 171.431C448.199 168.862 451.191 167.32 455.84 167.32ZM446.202 179.006V176.909H465.503V179.006H446.202ZM448.481 187.823V180.688H463.166V187.823H448.481ZM450.909 171.431C450.893 172.724 452.733 173.445 455.84 173.453C458.923 173.445 460.788 172.724 460.788 171.431C460.788 170.097 458.923 169.367 455.84 169.367C452.733 169.367 450.893 170.097 450.909 171.431ZM451.05 185.718H460.63V182.76H451.05V185.718ZM486.047 170.196V172.326H483.18V174.738H486.047V176.876H483.18V180.423H480.561V166.906H483.18V170.196H486.047ZM466.481 171.108V169.052H471.478V166.765H474.072V169.052H479.053V171.108H466.481ZM467.575 175.732C467.567 173.461 469.672 171.945 472.779 171.945C475.829 171.945 477.934 173.461 477.942 175.732C477.934 178.003 475.829 179.503 472.779 179.503C469.672 179.503 467.567 178.003 467.575 175.732ZM469.249 184.343C469.232 181.989 471.934 180.597 476.335 180.597C480.677 180.597 483.404 181.989 483.412 184.343C483.404 186.663 480.677 188.064 476.335 188.055C471.934 188.064 469.232 186.663 469.249 184.343ZM470.103 175.732C470.086 176.884 471.163 177.547 472.779 177.539C474.379 177.547 475.456 176.884 475.473 175.732C475.456 174.555 474.379 173.867 472.779 173.859C471.163 173.867 470.086 174.555 470.103 175.732ZM471.826 184.343C471.818 185.461 473.434 186.099 476.335 186.091C479.185 186.099 480.801 185.461 480.801 184.343C480.801 183.174 479.185 182.602 476.335 182.602C473.434 182.602 471.818 183.174 471.826 184.343Z" fill="white"/>
<rect x="820" y="153.383" width="143" height="49" rx="24.5" fill="url(#paint2_linear_1026_105)"/>
<path d="M858.471 167.704C863.153 167.704 866.095 169.245 866.095 171.814C866.095 174.358 863.153 175.875 858.471 175.867C853.821 175.875 850.83 174.358 850.838 171.814C850.83 169.245 853.821 167.704 858.471 167.704ZM848.832 179.389V177.292H868.133V179.389H848.832ZM851.111 188.207V181.071H865.796V188.207H851.111ZM853.54 171.814C853.523 173.107 855.363 173.828 858.471 173.836C861.553 173.828 863.418 173.107 863.418 171.814C863.418 170.48 861.553 169.751 858.471 169.751C855.363 169.751 853.523 170.48 853.54 171.814ZM853.68 186.102H863.261V183.143H853.68V186.102ZM888.677 170.579V172.709H885.81V175.121H888.677V177.259H885.81V180.806H883.191V167.289H885.81V170.579H888.677ZM869.111 171.491V169.436H874.108V167.148H876.702V169.436H881.683V171.491H869.111ZM870.205 176.115C870.197 173.845 872.302 172.328 875.409 172.328C878.459 172.328 880.564 173.845 880.572 176.115C880.564 178.386 878.459 179.886 875.409 179.886C872.302 179.886 870.197 178.386 870.205 176.115ZM871.879 184.726C871.863 182.372 874.564 180.98 878.965 180.98C883.307 180.98 886.034 182.372 886.042 184.726C886.034 187.046 883.307 188.447 878.965 188.439C874.564 188.447 871.863 187.046 871.879 184.726ZM872.733 176.115C872.716 177.267 873.793 177.93 875.409 177.922C877.009 177.93 878.086 177.267 878.103 176.115C878.086 174.939 877.009 174.251 875.409 174.242C873.793 174.251 872.716 174.939 872.733 176.115ZM874.456 184.726C874.448 185.845 876.064 186.483 878.965 186.474C881.816 186.483 883.432 185.845 883.432 184.726C883.432 183.557 881.816 182.986 878.965 182.986C876.064 182.986 874.448 183.557 874.456 184.726ZM902.619 171.59C902.619 174.226 904.417 176.811 907.79 177.839L906.456 179.886C904.044 179.115 902.304 177.516 901.343 175.502C900.381 177.698 898.583 179.447 896.08 180.3L894.73 178.245C898.144 177.126 899.967 174.383 899.975 171.59V170.986H895.417V168.889H907.078V170.986H902.619V171.59ZM898.194 188.057V181.262H900.821V185.944H912.804V188.057H898.194ZM909.597 182.687V167.306H912.207V182.687H909.597ZM934.169 177.433V179.505H914.834V177.433H923.229V175.403H917.213V168.242H931.823V170.289H919.798V173.347H931.939V175.403H925.782V177.433H934.169ZM917.08 184.602C917.08 182.124 919.856 180.723 924.456 180.723C929.039 180.723 931.79 182.124 931.798 184.602C931.79 187.063 929.039 188.463 924.456 188.472C919.856 188.463 917.08 187.063 917.08 184.602ZM919.732 184.602C919.715 185.828 921.381 186.466 924.456 186.45C927.497 186.466 929.18 185.828 929.196 184.602C929.18 183.383 927.497 182.729 924.456 182.729C921.381 182.729 919.715 183.383 919.732 184.602Z" fill="white"/>
<rect x="1317" y="153.383" width="123" height="49" rx="24.5" fill="url(#paint3_linear_1026_105)"/>
<path d="M1363.66 167.289V188.455H1361.09V167.289H1363.66ZM1346 181.966C1347.78 181.958 1349.75 181.95 1351.79 181.908V177.748H1347.55V169.229H1350.19V175.643H1358.68V177.748H1354.42V181.817C1356.24 181.734 1358.07 181.602 1359.79 181.386L1359.94 183.317C1355.28 184.079 1350.32 184.129 1346.29 184.088L1346 181.966ZM1379.04 173.298C1379.02 176.579 1380.99 180.3 1384.33 181.858L1382.87 183.914C1380.48 182.803 1378.72 180.524 1377.76 177.872C1376.8 180.781 1374.95 183.267 1372.53 184.444L1370.99 182.389C1374.37 180.798 1376.42 176.828 1376.43 173.298V171.516H1371.81V169.378H1383.47V171.516H1379.04V173.298ZM1385.42 188.455V167.289H1388.03V175.527H1391.3V177.715H1388.03V188.455H1385.42ZM1408.7 168.251V169.742C1408.7 171.3 1408.7 173.306 1408.23 176.008H1411.07V178.113H1391.7V176.008H1405.61C1406.04 173.613 1406.09 171.798 1406.1 170.339H1394.1V168.251H1408.7ZM1393.75 182.878V180.814H1408.78V188.488H1406.18V182.878H1393.75Z" fill="white"/>
<path d="M237.834 68.9999H296.167M267.001 39.8333V98.1666" stroke="white" stroke-width="4" stroke-linecap="round" stroke-linejoin="round"/>
<path d="M1093 39C1092.49 39 1091.97 39.1947 1091.58 39.5725C1090.81 40.3282 1090.81 41.5648 1091.58 42.3205L1118.18 68.1975L1091.97 93.6852C1091.19 94.4409 1091.19 95.6775 1091.97 96.4332C1092.75 97.1889 1094.02 97.1889 1094.8 96.4332L1122.42 69.5716C1123.19 68.8159 1123.19 67.5792 1122.42 66.8235L1094.41 39.5726C1094.02 39.1947 1093.5 39.0001 1093 39.0001L1093 39Z" fill="white"/>
<path d="M1129 39C1128.49 39 1127.97 39.1947 1127.58 39.5725C1126.81 40.3282 1126.81 41.5648 1127.58 42.3205L1154.18 68.1975L1127.97 93.6852C1127.19 94.4409 1127.19 95.6775 1127.97 96.4332C1128.75 97.1889 1130.02 97.1889 1130.8 96.4332L1158.42 69.5716C1159.19 68.8159 1159.19 67.5792 1158.42 66.8235L1130.41 39.5726C1130.02 39.1947 1129.5 39.0001 1129 39.0001L1129 39Z" fill="white"/>
<path d="M633 55.5H683M633 80.5H683" stroke="white" stroke-width="4" stroke-linecap="round" stroke-linejoin="round"/>
<defs>
<linearGradient id="paint0_linear_1026_105" x1="117" y1="177.5" x2="19" y2="177.5" gradientUnits="userSpaceOnUse">
<stop stop-color="#56387E"/>
<stop offset="1" stop-color="#23295B"/>
</linearGradient>
<linearGradient id="paint1_linear_1026_105" x1="515" y1="177.5" x2="417" y2="177.5" gradientUnits="userSpaceOnUse">
<stop stop-color="#56387E"/>
<stop offset="1" stop-color="#23295B"/>
</linearGradient>
<linearGradient id="paint2_linear_1026_105" x1="963" y1="177.883" x2="820" y2="177.883" gradientUnits="userSpaceOnUse">
<stop stop-color="#56387E"/>
<stop offset="1" stop-color="#23295B"/>
</linearGradient>
<linearGradient id="paint3_linear_1026_105" x1="1440" y1="177.883" x2="1317" y2="177.883" gradientUnits="userSpaceOnUse">
<stop stop-color="#56387E"/>
<stop offset="1" stop-color="#23295B"/>
</linearGradient>
<clipPath id="clip0_1026_105">
<rect width="136" height="136" fill="white" transform="translate(0 1)"/>
</clipPath>
<clipPath id="clip1_1026_105">
<rect width="136" height="136" fill="white" transform="translate(0 1)"/>
</clipPath>
<clipPath id="clip2_1026_105">
<rect width="136" height="136" fill="white" transform="translate(1310)"/>
</clipPath>
<clipPath id="clip3_1026_105">
<rect width="136" height="136" fill="white" transform="translate(398 1)"/>
</clipPath>
</defs>
</svg>
