<svg width="100" height="100" viewBox="0 0 100 100" fill="none" xmlns="http://www.w3.org/2000/svg">
<path d="M50.0885 91.0562C49.7704 91.0562 49.4524 90.9865 49.1697 90.8297C33.6573 82.746 24.6467 77.7983 19.9647 69.7843C15.4594 62.1187 15 52.4671 15 32.2754C15 28.6517 15.1767 25.028 15.5124 21.4914C15.5654 20.9339 15.8657 20.4286 16.3251 20.0976C16.7845 19.7666 17.3675 19.6621 17.9152 19.784C37.1202 24.2091 48.0567 10.3589 48.516 9.76656C48.8871 9.27875 49.4524 9.01742 50.0885 9C50.7068 9 51.2899 9.27875 51.6609 9.76656C52.1203 10.3589 63.0567 24.1917 82.2617 19.7666C82.8094 19.6447 83.3925 19.7666 83.8518 20.0802C84.3112 20.4112 84.6116 20.9164 84.6646 21.4739C85.0179 25.0105 85.1769 28.6342 85.1769 32.258C85.1769 52.4323 84.6999 62.0839 80.2123 69.7669C75.5126 77.7634 66.5196 82.7286 51.0072 90.8123C50.7245 90.9691 50.4065 91.0388 50.0885 91.0388V91.0562ZM19.2403 24.0349C19.0283 26.7527 18.9223 29.5228 18.9223 32.2928C18.9223 69.2442 19.8057 71.1258 50.0885 86.9098C80.3713 71.1258 81.2547 69.2442 81.2547 32.2928C81.2547 29.5402 81.1487 26.7701 80.9366 24.0349C78.8518 24.3834 76.8554 24.5402 74.9472 24.5402C62.085 24.5402 53.4454 17.2927 50.0885 13.8781C46.2192 17.798 35.4064 26.7701 19.2403 24.0349Z" fill="white"/>
<path d="M27.809 33.6172C27.809 33.6172 27.756 33.6172 27.7207 33.6172H27.5263C26.4309 33.565 25.6005 32.6591 25.6359 31.5963C25.6712 30.5162 26.6076 29.7148 27.6853 29.7322H27.8797C28.9751 29.7845 29.8055 30.6904 29.7701 31.7531C29.7348 32.7984 28.8514 33.6172 27.809 33.6172Z" fill="white"/>
<path d="M34.8048 32.9899C33.9038 32.9899 33.091 32.3801 32.879 31.4742C32.6493 30.4289 33.3207 29.3836 34.3808 29.1571C39.3278 28.077 43.1264 25.7599 45.4409 23.9829C46.3066 23.3209 47.5434 23.4777 48.1971 24.3313C48.8685 25.185 48.7095 26.4045 47.8437 27.0491C45.2112 29.0526 40.8826 31.7007 35.2288 32.9376C35.0875 32.9725 34.9462 32.9899 34.8048 32.9899Z" fill="white"/>
<path d="M47.8962 62.3974C47.3838 62.3974 46.8891 62.2058 46.5004 61.8225L36.6241 52.0838C35.8467 51.3172 35.8467 50.0977 36.6241 49.3312C37.4014 48.5646 38.6382 48.5646 39.4156 49.3312L47.8962 57.6936L63.6383 42.1709C64.4157 41.4043 65.6524 41.4043 66.4298 42.1709C67.2072 42.9374 67.2072 44.1569 66.4298 44.9235L49.2919 61.8225C48.9033 62.2058 48.4085 62.3974 47.8962 62.3974Z" fill="white"/>
</svg>
