<svg width="100" height="100" viewBox="0 0 100 100" fill="none" xmlns="http://www.w3.org/2000/svg">
<g clip-path="url(#clip0_911_455)">
<path d="M45.2501 87.4335H17.3815C12.0746 87.4335 7.71503 83.3446 7.44437 78.1344C7.30903 75.4181 8.25635 72.8275 10.1317 70.8652C12.007 68.8932 14.5299 67.8105 17.2462 67.8105C17.2752 67.8105 17.3235 67.8105 17.3525 67.8105H20.6971C21.4995 67.8105 22.1471 68.4582 22.1471 69.2605C22.1471 70.0628 21.4995 70.7105 20.6971 70.7105H17.2945C17.2945 70.7105 17.2172 70.7105 17.1882 70.7105C15.3322 70.7105 13.5536 71.4741 12.2293 72.8661C10.9146 74.2484 10.238 76.0754 10.3347 77.9894C10.528 81.6626 13.6116 84.5336 17.3719 84.5336H45.2404C47.0577 84.5336 48.5367 83.0546 48.5367 81.2373C48.5367 80.435 49.1843 79.7873 49.9867 79.7873C50.789 79.7873 51.4366 80.435 51.4366 81.2373C51.4366 84.6593 48.6527 87.4335 45.2404 87.4335H45.2501Z" fill="white"/>
<path d="M24.7661 58.9947C24.1087 58.9947 23.5191 58.55 23.3547 57.883C23.1807 57.1484 23.0938 56.3944 23.0938 55.6404C23.0938 50.3625 27.3857 46.0706 32.6636 46.0706C35.2155 46.0706 37.6128 47.0565 39.4108 48.8545C39.9811 49.4152 39.9811 50.3335 39.4108 50.9038C38.8502 51.4741 37.9222 51.4741 37.3615 50.9038C36.1049 49.6472 34.4326 48.9608 32.6539 48.9608C28.971 48.9608 25.984 51.9575 25.984 55.6307C25.984 56.1624 26.042 56.6844 26.1677 57.1967C26.3514 57.9797 25.8777 58.7627 25.0947 58.9463C24.9787 58.9753 24.8627 58.985 24.7564 58.985L24.7661 58.9947Z" fill="white"/>
<path d="M14.3461 71.2323C13.7468 71.2323 13.1861 70.865 12.9831 70.2656C12.5191 68.951 12.2871 67.5687 12.2871 66.167C12.2871 59.4102 17.7874 53.9099 24.5442 53.9099C25.3466 53.9099 25.9942 54.5576 25.9942 55.3599C25.9942 56.1622 25.3466 56.8099 24.5442 56.8099C19.3823 56.8099 15.1774 61.0051 15.1774 66.167C15.1774 67.24 15.3611 68.2937 15.7091 69.299C15.9797 70.053 15.5834 70.8843 14.8294 71.1453C14.6651 71.2033 14.5104 71.2323 14.3461 71.2323Z" fill="white"/>
<path d="M50.0055 76.0946C49.2032 76.0946 48.5555 75.447 48.5555 74.6446V49.0381C48.5555 45.7998 45.9165 43.1608 42.6783 43.1608C39.7687 43.1608 37.265 45.3261 36.859 48.1971C36.743 48.9897 36.0084 49.5407 35.2157 49.4247C34.4231 49.3087 33.8721 48.5741 33.9881 47.7814C34.5971 43.4895 38.338 40.2512 42.6783 40.2512C47.5212 40.2512 51.4555 44.1855 51.4555 49.0284V74.635C51.4555 75.4373 50.8078 76.085 50.0055 76.085V76.0946Z" fill="white"/>
<path d="M21.7329 75.7562C21.2786 75.7562 20.8243 75.5435 20.5439 75.1375C18.7943 72.6242 18.8233 69.2699 20.6213 66.7953C21.7039 65.2873 23.3086 64.2724 25.1355 63.934C25.9282 63.7794 26.6822 64.311 26.8272 65.094C26.9722 65.877 26.4502 66.6406 25.6672 66.7856C24.5749 66.9886 23.6179 67.5976 22.9702 68.4966C21.8972 69.9756 21.8779 71.9862 22.9219 73.4845C23.3762 74.1419 23.2216 75.0505 22.5642 75.5048C22.3129 75.6788 22.0229 75.7658 21.7329 75.7658V75.7562Z" fill="white"/>
<path d="M82.6097 87.4333H54.7412C51.3192 87.4333 48.5449 84.6494 48.5449 81.2371C48.5449 80.4348 49.1926 79.7871 49.9949 79.7871C50.7972 79.7871 51.4449 80.4348 51.4449 81.2371C51.4449 83.0544 52.9238 84.5334 54.7412 84.5334H82.6097C86.37 84.5334 89.4632 81.6624 89.6469 77.9891C89.7436 76.0655 89.0766 74.2482 87.7523 72.8659C86.4376 71.4836 84.6493 70.7103 82.745 70.7103H79.2941C78.4918 70.7103 77.8441 70.0626 77.8441 69.2603C77.8441 68.458 78.4918 67.8103 79.2941 67.8103H82.6967C85.4613 67.8103 87.9843 68.8929 89.8499 70.8649C91.7155 72.8369 92.6725 75.4178 92.5372 78.1341C92.2665 83.3444 87.9069 87.4333 82.6 87.4333H82.6097Z" fill="white"/>
<path d="M75.2459 58.9942C75.1299 58.9942 75.0236 58.9845 74.9076 58.9555C74.1246 58.7719 73.6509 57.9889 73.8346 57.2059C73.9602 56.7032 74.0182 56.1716 74.0182 55.6399C74.0182 51.957 71.0216 48.97 67.3484 48.97C65.5407 48.97 63.8491 49.6853 62.5828 50.971C62.0221 51.5413 61.1038 51.551 60.5335 50.9903C59.9631 50.4297 59.9535 49.5113 60.5141 48.941C62.3314 47.0851 64.7577 46.0701 67.3484 46.0701C72.6263 46.0701 76.9182 50.362 76.9182 55.6399C76.9182 56.4036 76.8312 57.1576 76.6572 57.8825C76.4929 58.5495 75.9032 58.9942 75.2459 58.9942Z" fill="white"/>
<path d="M85.6541 71.2322C85.4898 71.2322 85.3351 71.2032 85.1708 71.1452C84.4168 70.8745 84.0205 70.0529 84.2911 69.2892C84.6488 68.2839 84.8228 67.2399 84.8228 66.1573C84.8228 60.9954 80.6275 56.8001 75.4656 56.8001C74.6633 56.8001 74.0156 56.1524 74.0156 55.3501C74.0156 54.5478 74.6633 53.9001 75.4656 53.9001C82.2322 53.9001 87.7324 59.4004 87.7324 66.1573C87.7324 67.5589 87.5004 68.9412 87.0267 70.2559C86.8141 70.8552 86.2534 71.2225 85.6638 71.2225L85.6541 71.2322Z" fill="white"/>
<path d="M50.0047 50.4879C49.2023 50.4879 48.5547 49.8402 48.5547 49.0379C48.5547 44.195 52.489 40.2607 57.3319 40.2607C61.6721 40.2607 65.4131 43.499 66.0221 47.7909C66.1381 48.5836 65.5871 49.3183 64.7944 49.4343C64.0018 49.5406 63.2671 48.9993 63.1511 48.2066C62.7451 45.3357 60.2415 43.1704 57.3319 43.1704C54.0936 43.1704 51.4546 45.8093 51.4546 49.0476C51.4546 49.8499 50.807 50.4976 50.0047 50.4976V50.4879Z" fill="white"/>
<path d="M50.0065 70.3237C49.7938 70.3237 49.5812 70.2754 49.3782 70.1787C48.6532 69.8307 48.3535 68.9607 48.7015 68.2454C49.4942 66.5924 50.8088 65.4614 52.4811 64.9878C54.3274 64.4658 56.4831 64.8041 58.2424 65.9254C58.919 66.3508 59.122 67.2497 58.687 67.9264C58.252 68.6031 57.3627 68.8061 56.686 68.3711C55.6131 67.6944 54.3371 67.4721 53.2738 67.7717C52.4038 68.0231 51.7368 68.6031 51.3018 69.502C51.0505 70.024 50.5382 70.3237 49.9968 70.3237H50.0065Z" fill="white"/>
<path d="M61.2581 73.2428C61.1228 73.2428 60.9778 73.2234 60.8425 73.1848C59.5471 72.7981 58.4065 72.0441 57.5462 71.0001C56.3959 69.5985 55.8642 67.8392 56.0382 66.0412C56.2122 64.2432 57.0822 62.6193 58.4742 61.469C59.0928 60.9566 60.0015 61.0533 60.5138 61.672C61.0261 62.2906 60.9295 63.2089 60.3108 63.7116C59.5085 64.3689 59.0155 65.2969 58.9188 66.3215C58.8222 67.3462 59.1218 68.3515 59.7791 69.1538C60.2721 69.7532 60.9198 70.1881 61.6641 70.4008C62.4278 70.6328 62.8724 71.4351 62.6404 72.1988C62.4568 72.8271 61.8768 73.2331 61.2484 73.2331L61.2581 73.2428Z" fill="white"/>
<path d="M36.5411 87.4334C33.0805 87.4334 30.2676 84.6204 30.2676 81.1598C30.2676 79.7389 30.7606 78.3372 31.6499 77.2352C32.1525 76.6166 33.0612 76.5102 33.6895 77.0129C34.3178 77.5156 34.4145 78.4242 33.9119 79.0525C33.4285 79.6519 33.1675 80.3865 33.1675 81.1598C33.1675 83.0158 34.6755 84.5334 36.5411 84.5334C37.3435 84.5334 37.9911 85.1811 37.9911 85.9834C37.9911 86.7857 37.3435 87.4334 36.5411 87.4334Z" fill="white"/>
<path d="M67.1336 87.4333C66.3312 87.4333 65.6836 86.7856 65.6836 85.9833C65.6836 85.181 66.3312 84.5333 67.1336 84.5333C68.9895 84.5333 70.5072 83.0253 70.5072 81.1597C70.5072 80.3864 70.2462 79.6517 69.7629 79.0524C69.2602 78.4241 69.3569 77.5154 69.9852 77.0128C70.6038 76.5101 71.5222 76.6068 72.0248 77.2351C72.9141 78.3468 73.4071 79.7387 73.4071 81.1597C73.4071 84.6203 70.5942 87.4333 67.1336 87.4333Z" fill="white"/>
<path d="M50.0067 63.7311C49.2044 63.7311 48.5567 63.0835 48.5567 62.2811C48.5567 60.4252 47.0488 58.9075 45.1831 58.9075C44.4098 58.9075 43.6752 59.1685 43.0758 59.6518C42.4475 60.1545 41.5389 60.0578 41.0362 59.4295C40.5336 58.8012 40.6302 57.8925 41.2585 57.3899C42.3702 56.5006 43.7622 56.0076 45.1831 56.0076C48.6437 56.0076 51.4567 58.8205 51.4567 62.2811C51.4567 63.0835 50.809 63.7311 50.0067 63.7311Z" fill="white"/>
<path d="M50.3543 25.4132C49.552 25.4132 48.9043 24.7655 48.9043 23.9632V14.0164C48.9043 13.2141 49.552 12.5664 50.3543 12.5664C51.1566 12.5664 51.8042 13.2141 51.8042 14.0164V23.9632C51.8042 24.7655 51.1566 25.4132 50.3543 25.4132Z" fill="white"/>
<path d="M29.4835 32.9533C29.1452 32.9533 28.8069 32.8373 28.5362 32.5956L22.3497 27.25C21.7407 26.728 21.673 25.8097 22.2047 25.2007C22.7363 24.5917 23.645 24.5241 24.254 25.0557L30.4405 30.4013C31.0495 30.9233 31.1172 31.8416 30.5855 32.4506C30.2955 32.7793 29.8992 32.9533 29.4835 32.9533Z" fill="white"/>
<path d="M71.7174 32.3055C71.3114 32.3055 70.9054 32.1315 70.6154 31.8028C70.0935 31.1938 70.1611 30.2852 70.7604 29.7535L76.947 24.4079C77.556 23.8859 78.4646 23.9536 78.9963 24.5529C79.5183 25.1619 79.4506 26.0706 78.8513 26.6022L72.6647 31.9478C72.3941 32.1895 72.0558 32.3055 71.7174 32.3055Z" fill="white"/>
<path d="M84.3907 49.3958C83.8107 49.3958 83.2597 49.0381 83.0373 48.4678C82.7474 47.7235 83.1243 46.8825 83.8687 46.5925L91.5052 43.6636C92.2495 43.3736 93.0905 43.7506 93.3805 44.4949C93.6705 45.2392 93.2935 46.0802 92.5492 46.3702L84.9126 49.2991C84.7386 49.3668 84.5647 49.3958 84.3907 49.3958Z" fill="white"/>
<path d="M18.0857 48.8353C17.9793 48.8353 17.873 48.8256 17.7667 48.7966L9.7918 46.989C9.00881 46.815 8.52549 46.032 8.69948 45.2587C8.87348 44.4853 9.6468 43.9827 10.4298 44.1663L18.4047 45.974C19.1876 46.148 19.671 46.931 19.497 47.7043C19.3423 48.3809 18.743 48.8353 18.0857 48.8353Z" fill="white"/>
</g>
<defs>
<clipPath id="clip0_911_455">
<rect width="100" height="100" fill="white"/>
</clipPath>
</defs>
</svg>
