<svg width="100" height="100" viewBox="0 0 100 100" fill="none" xmlns="http://www.w3.org/2000/svg">
<g clip-path="url(#clip0_911_202)">
<path d="M8.5329 89.8517H84.7863V92.1875L93.75 88.3174L84.7863 84.4473V86.7831H11.532V53.4407H20.0145C22.9129 63.0587 25.8001 71.8638 32.2124 71.8638C38.6247 71.8638 41.5119 63.0587 44.4102 53.4407H64.3744C67.2728 63.0587 70.16 71.8638 76.5723 71.8638V68.7952C72.4989 68.7952 69.8243 61.0092 67.519 53.4407H76.5723V50.3721H66.5902C63.6806 40.7541 60.8046 31.9491 54.3923 31.9491C47.9801 31.9491 45.0929 40.7541 42.1945 50.3721H22.2303C19.5669 41.5327 16.9147 33.3918 11.532 32.1208V16.9839H13.8149L10.0325 7.8125L6.25 16.9839H8.5329V89.8632V89.8517ZM32.2124 68.7952C28.139 68.7952 25.4644 61.0092 23.1591 53.4407H41.2657C38.9604 61.0092 36.2858 68.7952 32.2124 68.7952ZM54.3923 35.0177C58.4658 35.0177 61.1403 42.8037 63.4456 50.3721H45.3279C47.6332 42.8037 50.3077 35.0177 54.3811 35.0177H54.3923ZM19.0857 50.3721H11.532V35.3841C14.7885 37.01 17.0714 43.7655 19.0857 50.3721Z" fill="white"/>
</g>
<defs>
<clipPath id="clip0_911_202">
<rect width="100" height="100" fill="white"/>
</clipPath>
</defs>
</svg>
