<svg width="350" height="350" viewBox="0 0 350 350" fill="none" xmlns="http://www.w3.org/2000/svg">
<rect width="350" height="350" rx="16" fill="white"/>
<g clip-path="url(#clip0_1210_126)">
<path d="M330.111 121.886H59.7891V122.217H330.111V121.886Z" fill="#3B3C3C"/>
<path d="M330.111 133.674H59.7891V134.005H330.111V133.674Z" fill="#3B3C3C"/>
<path d="M330.111 145.462H59.7891V145.793H330.111V145.462Z" fill="#3B3C3C"/>
<path d="M330.111 157.25H59.7891V157.581H330.111V157.25Z" fill="#3B3C3C"/>
<path d="M330.111 169.037H59.7891V169.368H330.111V169.037Z" fill="#3B3C3C"/>
<path d="M330.111 180.825H59.7891V181.156H330.111V180.825Z" fill="#3B3C3C"/>
<path d="M330.111 192.613H59.7891V192.944H330.111V192.613Z" fill="#3B3C3C"/>
<path d="M330.111 204.401H59.7891V204.732H330.111V204.401Z" fill="#3B3C3C"/>
<path d="M330.111 216.188H59.7891V216.518H330.111V216.188Z" fill="#3B3C3C"/>
<path d="M319.636 213.098C319.626 213.098 319.617 213.098 319.609 213.098L310.487 212.732H291.492L283.083 211.914L273.968 211.118L264.925 211.402L255.762 211.121L246.548 209.56L237.491 208.927L228.926 207.359L219.294 207.369C219.21 207.369 219.128 207.353 219.05 207.323L209.357 203.506L200.908 201.671L191.757 199.246L182.669 197.342C182.597 197.327 182.528 197.3 182.464 197.261L173.342 191.803C173.261 191.754 173.192 191.69 173.139 191.612L164.017 178.512C163.969 178.445 163.936 178.369 163.916 178.29L155.74 144.402L146.418 137.287L137.704 147.584C137.59 147.721 137.425 147.804 137.247 147.817C137.066 147.828 136.893 147.772 136.759 147.657L128.013 140.085L118.573 146.123L100.017 168.999C99.9292 169.107 99.8096 169.184 99.6754 169.221L82.7324 173.835L73.6916 179.379C73.5867 179.443 73.4671 179.477 73.3435 179.477C73.3449 179.477 64.5073 179.477 64.2363 179.483C63.8218 179.451 63.5667 179.199 63.5588 178.835C63.5508 178.47 63.8404 178.168 64.2058 178.159C64.4183 178.155 71.651 178.153 73.1549 178.153L82.1173 172.656C82.1718 172.623 82.2289 172.598 82.29 172.581L99.1187 167.998L117.608 145.205C117.653 145.15 117.707 145.102 117.766 145.065L127.717 138.701C127.964 138.544 128.288 138.566 128.512 138.758L137.123 146.216L145.811 135.949C146.039 135.679 146.44 135.635 146.723 135.849L156.737 143.491C156.858 143.584 156.943 143.713 156.978 143.862L165.181 177.857L174.15 190.737L183.053 196.064L192.066 197.952L201.222 200.379L209.745 202.239L219.423 206.04H229.048L237.66 207.61L246.709 208.242L255.896 209.801L264.927 210.073L274.007 209.792L283.207 210.59L291.558 211.406L310.515 211.403L319.664 211.768C320.03 211.783 320.316 212.092 320.3 212.457C320.285 212.813 319.992 213.092 319.637 213.092L319.636 213.098Z" fill="#AA6EFF"/>
<path d="M319.577 210.815C319.543 210.815 319.509 210.812 319.474 210.807L311.385 209.563L292.271 209.571C292.226 209.571 292.181 209.567 292.137 209.557L274.789 205.988L256.42 205.566C256.346 205.564 256.273 205.55 256.202 205.523L238.263 198.819L219.686 193.415C219.547 193.375 219.426 193.292 219.34 193.177L209.642 180.311C209.603 180.259 209.573 180.203 209.55 180.143L201.01 157.082L192.094 162.27L183.298 171.896C183.081 172.132 182.731 172.18 182.458 172.014L173.505 166.525C173.433 166.48 173.37 166.423 173.319 166.355L164.022 153.812L155.681 155.799L146.819 165.863L138.087 176.68C138 176.789 137.879 176.868 137.743 176.903L128.333 179.437L119.286 184.623L110.852 188.164L101.172 191.405C101.096 191.431 101.022 191.449 100.938 191.438L91.3143 191.114L82.526 191.897L72.6269 193.431C72.526 193.447 72.421 193.438 72.324 193.407L64.0219 190.777C63.6725 190.665 63.4785 190.293 63.5901 189.945C63.7017 189.596 64.0777 189.402 64.4245 189.515L72.5778 192.099L82.3652 190.583L91.2785 189.794L100.864 190.112L110.384 186.927L118.698 183.439L127.747 178.247C127.798 178.219 127.851 178.197 127.905 178.182L137.191 175.681L145.805 165.012L154.826 154.769C154.916 154.666 155.037 154.593 155.171 154.561L164.144 152.423C164.403 152.362 164.674 152.46 164.834 152.673L174.316 165.465L182.691 170.599L191.184 161.304C191.229 161.254 191.282 161.211 191.341 161.178L201.029 155.541C201.197 155.442 201.403 155.424 201.588 155.489C201.773 155.555 201.919 155.7 201.987 155.882L210.767 179.594L220.274 192.206L238.686 197.564L256.567 204.245L274.943 204.679L292.343 208.248H311.49L319.682 209.5C320.044 209.556 320.293 209.894 320.237 210.255C320.186 210.582 319.903 210.816 319.581 210.816L319.577 210.815Z" fill="#6777FF"/>
<path d="M66.204 178.821H62.2383V191.239H66.204V178.821Z" fill="#202858"/>
<path d="M75.3251 178.821H71.3594V192.779H75.3251V178.821Z" fill="#202858"/>
<path d="M84.4462 173.226H80.4805V191.239H84.4462V173.226Z" fill="#202858"/>
<path d="M93.5712 170.77H89.6055V191.239H93.5712V170.77Z" fill="#202858"/>
<path d="M102.692 168.586H98.7266V191.239H102.692V168.586Z" fill="#202858"/>
<path d="M111.813 157.876H107.848V188.17H111.813V157.876Z" fill="#202858"/>
<path d="M120.934 144.776H116.969V184.05H120.934V144.776Z" fill="#202858"/>
<path d="M130.056 138.635H126.09V179.215H130.056V138.635Z" fill="#202858"/>
<path d="M139.181 146.687H135.215V176.91H139.181V146.687Z" fill="#202858"/>
<path d="M148.302 135.77H144.336V165.993H148.302V135.77Z" fill="#202858"/>
<path d="M157.423 142.764H153.457V155.761H157.423V142.764Z" fill="#202858"/>
<path d="M166.544 152.427H162.578V179.216H166.544V152.427Z" fill="#B0B0B0"/>
<path d="M175.669 165.427H171.703V192.216H175.669V165.427Z" fill="#B0B0B0"/>
<path d="M184.79 170.655H180.824V197.444H184.79V170.655Z" fill="#B0B0B0"/>
<path d="M193.911 161.382H189.945V199.141H193.911V161.382Z" fill="#B0B0B0"/>
<path d="M212.153 179.215H208.188V204.202H212.153V179.215Z" fill="#B0B0B0"/>
<path d="M221.278 191.709H217.312V207.478H221.278V191.709Z" fill="#B0B0B0"/>
<path d="M230.399 194.575H226.434V207.478H230.399V194.575Z" fill="#B0B0B0"/>
<path d="M239.52 197.444H235.555V208.341H239.52V197.444Z" fill="#B0B0B0"/>
<path d="M248.645 201.026H244.68V209.652H248.645V201.026Z" fill="#B0B0B0"/>
<path d="M257.767 204.027H253.801V210.759H257.767V204.027Z" fill="#B0B0B0"/>
<path d="M266.888 204.901H262.922V211.633H266.888V204.901Z" fill="#B0B0B0"/>
<path d="M276.009 204.901H272.043V211.633H276.009V204.901Z" fill="#B0B0B0"/>
<path d="M285.13 206.708H281.164V212.07H285.13V206.708Z" fill="#B0B0B0"/>
<path d="M294.251 208.341H290.285V213.141H294.251V208.341Z" fill="#B0B0B0"/>
<path d="M303.376 208.907H299.41V212.859H303.376V208.907Z" fill="#B0B0B0"/>
<path d="M312.497 208.484H308.531V212.436H312.497V208.484Z" fill="#B0B0B0"/>
<path d="M321.618 209.65H317.652V212.86H321.618V209.65Z" fill="#B0B0B0"/>
<path d="M203.032 155.761H199.066V201.888H203.032V155.761Z" fill="#B0B0B0"/>
<path d="M251.203 116.384V109.772H257.847V116.384H251.203Z" fill="#202858"/>
<path d="M263.913 114.978C263.334 114.687 262.583 113.878 262.397 113.276C262.245 113.911 261.605 114.753 260.875 115.111L260.363 114.502C261.408 113.926 261.959 112.965 261.959 111.646V111.474H260.689V110.799H264.046V111.474H262.816V111.639C262.816 112.965 263.427 113.86 264.372 114.376L263.913 114.98V114.978ZM265.495 112.573H266.4V113.256H265.495V116.436H264.67V110.155H265.495V112.574V112.573Z" fill="#3B3C3C"/>
<path d="M269.652 114.939C269.134 114.608 268.409 113.865 268.196 113.183C267.99 113.891 267.351 114.68 266.7 115.064C266.534 114.859 266.368 114.661 266.195 114.462C267.22 113.805 267.758 112.799 267.758 111.547V110.685H268.609V111.5C268.609 112.746 269.189 113.721 270.138 114.323C269.972 114.528 269.82 114.735 269.654 114.94L269.652 114.939ZM271.269 112.573H272.18V113.249H271.269V116.436H270.451V110.155H271.269V112.574V112.573Z" fill="#3B3C3C"/>
<path d="M273.656 115.648V114.992H276.077V113.661H274.342V110.651H278.67V113.659H276.902V114.991H279.349V115.646H273.658L273.656 115.648ZM277.845 111.3H275.165V113.004H277.845V111.3Z" fill="#3B3C3C"/>
<path d="M283.674 113.335V113.758H284.373V115.362H280.981V115.732H284.599V116.408H280.158V114.785H283.549V114.414H280.118V113.757H280.863V113.334H279.434V112.677H285.125V113.334H283.676L283.674 113.335ZM280.191 112.268V110.261H284.406V110.923H281.015V111.612H284.453V112.269H280.191V112.268ZM281.687 113.758H282.851V113.335H281.687V113.758Z" fill="#3B3C3C"/>
<path d="M295.125 116.384V109.772H301.769V116.384H295.125Z" fill="#B0B0B0"/>
<path d="M305.549 114.363C306.447 114.363 307.337 114.33 308.043 114.177L308.136 114.827C307.491 114.973 306.56 115.026 305.336 115.026H304.73V110.705H307.623V111.353H305.548V112.493H307.51V113.149H305.548V114.361L305.549 114.363ZM309.412 112.528H310.29V113.203H309.412V116.436H308.587V110.155H309.412V112.528Z" fill="#3B3C3C"/>
<path d="M313.574 114.939C313.056 114.608 312.331 113.865 312.118 113.183C311.912 113.891 311.274 114.68 310.622 115.064C310.456 114.859 310.29 114.661 310.117 114.462C311.142 113.805 311.68 112.799 311.68 111.547V110.685H312.531V111.5C312.531 112.746 313.11 113.721 314.06 114.323C313.894 114.528 313.741 114.735 313.574 114.94V114.939ZM315.19 112.573H316.101V113.249H315.19V116.436H314.371V110.155H315.19V112.574V112.573Z" fill="#3B3C3C"/>
<path d="M317.578 115.648V114.992H319.999V113.661H318.264V110.651H322.592V113.659H320.822V114.991H323.27V115.646H317.578V115.648ZM321.767 111.3H319.087V113.004H321.767V111.3Z" fill="#3B3C3C"/>
<path d="M327.598 113.335V113.758H328.295V115.362H324.903V115.732H328.521V116.408H324.08V114.785H327.471V114.414H324.04V113.757H324.785V113.334H323.355V112.677H329.047V113.334H327.598V113.335ZM324.113 112.268V110.261H328.328V110.923H324.938V111.612H328.375V112.269H324.113V112.268ZM325.609 113.758H326.771V113.335H325.609V113.758Z" fill="#3B3C3C"/>
<path d="M61.1016 227.442L62.0329 226.468C62.7038 225.766 63.2432 225.162 63.2432 224.56C63.2432 223.958 62.9243 223.746 62.3052 223.746C61.9664 223.746 61.5666 223.911 61.3008 224.07L61.1613 223.435C61.4868 223.243 61.9797 223.064 62.5377 223.064C63.6019 223.064 64.1466 223.574 64.1466 224.449C64.1466 225.324 63.4093 226.078 62.8167 226.689L62.2454 227.271H64.1865V227.947H61.1016V227.443V227.442Z" fill="#3B3C3C"/>
<path d="M64.5273 225.713V225.415C64.5273 223.686 65.4254 223.062 66.4232 223.062C67.4209 223.062 68.2845 223.693 68.2845 225.389V225.693C68.2845 227.389 67.4262 228.032 66.4086 228.032C65.3909 228.032 64.5273 227.356 64.5273 225.713ZM67.3864 225.753V225.389C67.3864 224.242 67.0542 223.732 66.4152 223.732C65.7762 223.732 65.4374 224.217 65.4374 225.342V225.713C65.4374 226.833 65.7563 227.369 66.4086 227.369C67.0609 227.369 67.3864 226.906 67.3864 225.753Z" fill="#3B3C3C"/>
<path d="M80.1173 227.038H77.8906V226.535L80.3445 223.115H80.9357V226.396H81.6478V227.038H80.9357V228.026H80.1173V227.038ZM80.1239 226.396V224.579L78.8339 226.396H80.1239Z" fill="#3B3C3C"/>
<path d="M81.9154 225.713V225.415C81.9154 223.686 82.8135 223.062 83.8099 223.062C84.8063 223.062 85.6712 223.693 85.6712 225.389V225.693C85.6712 227.389 84.813 228.032 83.7966 228.032C82.7803 228.032 81.9141 227.356 81.9141 225.713H81.9154ZM84.7758 225.753V225.389C84.7758 224.242 84.4436 223.732 83.8046 223.732C83.1656 223.732 82.8281 224.217 82.8281 225.342V225.713C82.8281 226.833 83.147 227.369 83.7979 227.369C84.4489 227.369 84.7758 226.906 84.7758 225.753Z" fill="#3B3C3C"/>
<path d="M97.0078 225.892V225.548C97.0078 223.739 97.9325 223.069 99.0883 223.069C99.5732 223.069 100.013 223.222 100.219 223.341L100.053 223.976C99.8669 223.877 99.455 223.764 99.1362 223.764C98.4174 223.764 97.9391 224.117 97.8727 225.354C98.1185 225.143 98.5051 224.931 99.0033 224.931C99.8403 224.931 100.446 225.455 100.446 226.375C100.446 227.295 99.8669 228.031 98.7907 228.031C97.6203 228.031 97.0091 227.216 97.0091 225.891L97.0078 225.892ZM99.6065 226.443C99.6065 225.793 99.2411 225.554 98.7495 225.554C98.3975 225.554 98.0454 225.799 97.8793 226.024V226.064C97.8793 226.886 98.1318 227.389 98.7695 227.389C99.2876 227.389 99.6065 227.045 99.6065 226.443Z" fill="#3B3C3C"/>
<path d="M100.762 225.713V225.415C100.762 223.686 101.66 223.062 102.658 223.062C103.655 223.062 104.519 223.693 104.519 225.389V225.693C104.519 227.389 103.661 228.032 102.643 228.032C101.625 228.032 100.762 227.356 100.762 225.713ZM103.621 225.753V225.389C103.621 224.242 103.289 223.732 102.65 223.732C102.011 223.732 101.672 224.217 101.672 225.342V225.713C101.672 226.833 101.991 227.369 102.643 227.369C103.295 227.369 103.621 226.906 103.621 225.753Z" fill="#3B3C3C"/>
<path d="M115.126 226.727C115.126 226.125 115.591 225.693 116.123 225.481C115.618 225.256 115.264 224.925 115.264 224.328C115.264 223.58 115.909 223.062 116.927 223.062C117.944 223.062 118.569 223.506 118.569 224.262C118.569 224.792 118.183 225.17 117.684 225.408C118.248 225.602 118.755 225.953 118.755 226.634C118.755 227.45 118.077 228.032 116.927 228.032C115.776 228.032 115.125 227.508 115.125 226.727H115.126ZM117.878 226.694C117.878 226.197 117.506 225.946 116.787 225.759C116.355 225.905 115.943 226.229 115.943 226.661C115.943 227.124 116.315 227.404 116.908 227.404C117.5 227.404 117.878 227.112 117.878 226.694ZM117.745 224.328C117.745 223.964 117.486 223.693 116.941 223.693C116.443 223.693 116.137 223.924 116.137 224.308C116.137 224.719 116.443 224.977 117.049 225.124C117.421 224.972 117.746 224.712 117.746 224.328H117.745Z" fill="#3B3C3C"/>
<path d="M119.083 225.713V225.415C119.083 223.686 119.981 223.062 120.979 223.062C121.977 223.062 122.84 223.693 122.84 225.389V225.693C122.84 227.389 121.982 228.032 120.965 228.032C119.947 228.032 119.082 227.356 119.082 225.713H119.083ZM121.944 225.753V225.389C121.944 224.242 121.612 223.732 120.973 223.732C120.334 223.732 119.995 224.217 119.995 225.342V225.713C119.995 226.833 120.314 227.369 120.966 227.369C121.618 227.369 121.944 226.906 121.944 225.753Z" fill="#3B3C3C"/>
<path d="M132.772 224.004L131.953 224.163V223.658L133.19 223.109H133.648V227.98H132.77V224.004H132.772Z" fill="#3B3C3C"/>
<path d="M134.517 225.713V225.415C134.517 223.686 135.415 223.062 136.413 223.062C137.411 223.062 138.274 223.693 138.274 225.389V225.693C138.274 227.389 137.416 228.032 136.398 228.032C135.381 228.032 134.516 227.356 134.516 225.713H134.517ZM137.376 225.753V225.389C137.376 224.242 137.044 223.732 136.405 223.732C135.766 223.732 135.427 224.217 135.427 225.342V225.713C135.427 226.833 135.746 227.369 136.398 227.369C137.05 227.369 137.376 226.906 137.376 225.753Z" fill="#3B3C3C"/>
<path d="M138.751 225.713V225.415C138.751 223.686 139.649 223.062 140.646 223.062C141.642 223.062 142.507 223.693 142.507 225.389V225.693C142.507 227.389 141.649 228.032 140.633 228.032C139.616 228.032 138.75 227.356 138.75 225.713H138.751ZM141.61 225.753V225.389C141.61 224.242 141.278 223.732 140.639 223.732C140 223.732 139.663 224.217 139.663 225.342V225.713C139.663 226.833 139.982 227.369 140.633 227.369C141.284 227.369 141.61 226.906 141.61 225.753Z" fill="#3B3C3C"/>
<path d="M151.248 224.004L150.43 224.163V223.658L151.667 223.109H152.125V227.98H151.247V224.004H151.248Z" fill="#3B3C3C"/>
<path d="M152.984 227.442L153.916 226.467C154.587 225.766 155.126 225.162 155.126 224.559C155.126 223.957 154.807 223.745 154.188 223.745C153.849 223.745 153.449 223.911 153.184 224.07L153.044 223.434C153.37 223.242 153.863 223.063 154.421 223.063C155.485 223.063 156.029 223.573 156.029 224.448C156.029 225.323 155.291 226.078 154.7 226.688L154.128 227.271H156.069V227.946H152.984V227.443V227.442Z" fill="#3B3C3C"/>
<path d="M156.411 225.713V225.415C156.411 223.686 157.31 223.062 158.306 223.062C159.302 223.062 160.167 223.693 160.167 225.389V225.693C160.167 227.389 159.309 228.032 158.293 228.032C157.276 228.032 156.41 227.356 156.41 225.713H156.411ZM159.271 225.753V225.389C159.271 224.242 158.938 223.732 158.299 223.732C157.66 223.732 157.323 224.217 157.323 225.342V225.713C157.323 226.833 157.642 227.369 158.293 227.369C158.944 227.369 159.271 226.906 159.271 225.753Z" fill="#3B3C3C"/>
<path d="M169.225 224.004L168.406 224.163V223.658L169.643 223.109H170.101V227.98H169.223V224.004H169.225Z" fill="#3B3C3C"/>
<path d="M172.994 227.038H170.766V226.535L173.219 223.115H173.811V226.396H174.523V227.038H173.811V228.026H172.992V227.038H172.994ZM173 226.396V224.579L171.71 226.396H173Z" fill="#3B3C3C"/>
<path d="M174.79 225.713V225.415C174.79 223.686 175.688 223.062 176.686 223.062C177.684 223.062 178.548 223.693 178.548 225.389V225.693C178.548 227.389 177.689 228.032 176.672 228.032C175.654 228.032 174.789 227.356 174.789 225.713H174.79ZM177.651 225.753V225.389C177.651 224.242 177.319 223.732 176.68 223.732C176.041 223.732 175.702 224.217 175.702 225.342V225.713C175.702 226.833 176.021 227.369 176.673 227.369C177.325 227.369 177.651 226.906 177.651 225.753Z" fill="#3B3C3C"/>
<path d="M187.709 224.004L186.891 224.163V223.658L188.127 223.109H188.586V227.98H187.708V224.004H187.709Z" fill="#3B3C3C"/>
<path d="M189.414 225.892V225.548C189.414 223.739 190.339 223.069 191.495 223.069C191.979 223.069 192.419 223.222 192.625 223.341L192.459 223.976C192.273 223.877 191.861 223.764 191.542 223.764C190.824 223.764 190.345 224.117 190.279 225.354C190.525 225.143 190.911 224.931 191.41 224.931C192.247 224.931 192.852 225.455 192.852 226.375C192.852 227.295 192.273 228.031 191.197 228.031C190.027 228.031 189.415 227.216 189.415 225.891L189.414 225.892ZM192.014 226.443C192.014 225.793 191.649 225.554 191.156 225.554C190.804 225.554 190.452 225.799 190.286 226.024V226.064C190.286 226.886 190.538 227.389 191.176 227.389C191.694 227.389 192.013 227.045 192.013 226.443H192.014Z" fill="#3B3C3C"/>
<path d="M193.169 225.713V225.415C193.169 223.686 194.067 223.062 195.065 223.062C196.063 223.062 196.926 223.693 196.926 225.389V225.693C196.926 227.389 196.068 228.032 195.051 228.032C194.033 228.032 193.168 227.356 193.168 225.713H193.169ZM196.03 225.753V225.389C196.03 224.242 195.698 223.732 195.058 223.732C194.419 223.732 194.081 224.217 194.081 225.342V225.713C194.081 226.833 194.4 227.369 195.052 227.369C195.704 227.369 196.03 226.906 196.03 225.753Z" fill="#3B3C3C"/>
<path d="M205.783 224.004L204.965 224.163V223.658L206.202 223.109H206.66V227.98H205.782V224.004H205.783Z" fill="#3B3C3C"/>
<path d="M207.435 226.727C207.435 226.125 207.9 225.693 208.431 225.481C207.926 225.256 207.573 224.925 207.573 224.328C207.573 223.58 208.217 223.062 209.235 223.062C210.253 223.062 210.877 223.506 210.877 224.262C210.877 224.792 210.492 225.17 209.992 225.408C210.557 225.602 211.063 225.953 211.063 226.634C211.063 227.45 210.386 228.032 209.235 228.032C208.085 228.032 207.434 227.508 207.434 226.727H207.435ZM210.188 226.694C210.188 226.197 209.816 225.946 209.097 225.759C208.665 225.905 208.252 226.229 208.252 226.661C208.252 227.124 208.624 227.404 209.216 227.404C209.809 227.404 210.186 227.112 210.186 226.694H210.188ZM210.055 224.328C210.055 223.964 209.796 223.693 209.251 223.693C208.753 223.693 208.447 223.924 208.447 224.308C208.447 224.719 208.753 224.977 209.359 225.124C209.731 224.972 210.056 224.712 210.056 224.328H210.055Z" fill="#3B3C3C"/>
<path d="M211.395 225.713V225.415C211.395 223.686 212.293 223.062 213.289 223.062C214.285 223.062 215.15 223.693 215.15 225.389V225.693C215.15 227.389 214.292 228.032 213.276 228.032C212.259 228.032 211.395 227.356 211.395 225.713ZM214.255 225.753V225.389C214.255 224.242 213.923 223.732 213.284 223.732C212.645 223.732 212.307 224.217 212.307 225.342V225.713C212.307 226.833 212.626 227.369 213.277 227.369C213.928 227.369 214.255 226.906 214.255 225.753Z" fill="#3B3C3C"/>
<path d="M222.832 227.442L223.763 226.467C224.434 225.766 224.974 225.162 224.974 224.559C224.974 223.957 224.655 223.745 224.036 223.745C223.697 223.745 223.297 223.911 223.031 224.07L222.892 223.434C223.217 223.242 223.71 223.063 224.268 223.063C225.332 223.063 225.877 223.573 225.877 224.448C225.877 225.323 225.138 226.078 224.547 226.688L223.976 227.271H225.917V227.946H222.832V227.443V227.442Z" fill="#3B3C3C"/>
<path d="M226.258 225.713V225.415C226.258 223.686 227.156 223.062 228.152 223.062C229.149 223.062 230.014 223.693 230.014 225.389V225.693C230.014 227.389 229.157 228.032 228.139 228.032C227.121 228.032 226.258 227.356 226.258 225.713ZM229.117 225.753V225.389C229.117 224.242 228.785 223.732 228.146 223.732C227.507 223.732 227.169 224.217 227.169 225.342V225.713C227.169 226.833 227.488 227.369 228.139 227.369C228.79 227.369 229.117 226.906 229.117 225.753Z" fill="#3B3C3C"/>
<path d="M230.492 225.713V225.415C230.492 223.686 231.39 223.062 232.388 223.062C233.386 223.062 234.249 223.693 234.249 225.389V225.693C234.249 227.389 233.391 228.032 232.373 228.032C231.356 228.032 230.492 227.356 230.492 225.713ZM233.351 225.753V225.389C233.351 224.242 233.019 223.732 232.38 223.732C231.741 223.732 231.402 224.217 231.402 225.342V225.713C231.402 226.833 231.721 227.369 232.373 227.369C233.026 227.369 233.351 226.906 233.351 225.753Z" fill="#3B3C3C"/>
<path d="M240.801 227.442L241.732 226.468C242.403 225.766 242.942 225.162 242.942 224.56C242.942 223.958 242.624 223.746 242.004 223.746C241.666 223.746 241.266 223.911 241 224.07L240.861 223.435C241.186 223.243 241.679 223.064 242.237 223.064C243.301 223.064 243.846 223.574 243.846 224.449C243.846 225.324 243.107 226.078 242.516 226.689L241.945 227.271H243.886V227.947H240.801V227.443V227.442Z" fill="#3B3C3C"/>
<path d="M244.246 227.442L245.177 226.468C245.848 225.766 246.388 225.162 246.388 224.56C246.388 223.958 246.069 223.746 245.45 223.746C245.111 223.746 244.711 223.911 244.445 224.07L244.306 223.435C244.631 223.243 245.124 223.064 245.682 223.064C246.746 223.064 247.291 223.574 247.291 224.449C247.291 225.324 246.552 226.078 245.961 226.689L245.39 227.271H247.331V227.947H244.246V227.443V227.442Z" fill="#3B3C3C"/>
<path d="M247.672 225.713V225.415C247.672 223.686 248.57 223.062 249.568 223.062C250.565 223.062 251.429 223.693 251.429 225.389V225.693C251.429 227.389 250.571 228.032 249.553 228.032C248.535 228.032 247.672 227.356 247.672 225.713ZM250.531 225.753V225.389C250.531 224.242 250.199 223.732 249.56 223.732C248.921 223.732 248.582 224.217 248.582 225.342V225.713C248.582 226.833 248.901 227.369 249.553 227.369C250.205 227.369 250.531 226.906 250.531 225.753Z" fill="#3B3C3C"/>
<path d="M259.918 227.442L260.849 226.468C261.52 225.766 262.06 225.162 262.06 224.56C262.06 223.958 261.741 223.746 261.122 223.746C260.783 223.746 260.383 223.911 260.117 224.07L259.978 223.435C260.303 223.243 260.796 223.064 261.354 223.064C262.418 223.064 262.963 223.574 262.963 224.449C262.963 225.324 262.226 226.078 261.633 226.689L261.062 227.271H263.003V227.947H259.918V227.443V227.442Z" fill="#3B3C3C"/>
<path d="M265.298 227.038H263.07V226.535L265.524 223.115H266.115V226.396H266.827V227.038H266.115V228.026H265.297V227.038H265.298ZM265.305 226.396V224.579L264.015 226.396H265.305Z" fill="#3B3C3C"/>
<path d="M267.099 225.713V225.415C267.099 223.686 267.997 223.062 268.995 223.062C269.993 223.062 270.856 223.693 270.856 225.389V225.693C270.856 227.389 269.998 228.032 268.98 228.032C267.963 228.032 267.098 227.356 267.098 225.713H267.099ZM269.958 225.753V225.389C269.958 224.242 269.626 223.732 268.987 223.732C268.348 223.732 268.009 224.217 268.009 225.342V225.713C268.009 226.833 268.328 227.369 268.98 227.369C269.633 227.369 269.958 226.906 269.958 225.753Z" fill="#3B3C3C"/>
<path d="M277.266 227.442L278.197 226.467C278.868 225.766 279.407 225.162 279.407 224.559C279.407 223.957 279.088 223.745 278.469 223.745C278.131 223.745 277.731 223.911 277.465 224.07L277.325 223.434C277.651 223.242 278.144 223.063 278.702 223.063C279.766 223.063 280.311 223.573 280.311 224.448C280.311 225.323 279.572 226.078 278.981 226.688L278.41 227.271H280.351V227.946H277.266V227.443V227.442Z" fill="#3B3C3C"/>
<path d="M280.617 225.892V225.548C280.617 223.739 281.541 223.069 282.698 223.069C283.183 223.069 283.622 223.222 283.828 223.341L283.662 223.976C283.476 223.877 283.064 223.764 282.746 223.764C282.027 223.764 281.549 224.117 281.482 225.354C281.729 225.143 282.114 224.931 282.613 224.931C283.45 224.931 284.055 225.455 284.055 226.375C284.055 227.295 283.476 228.031 282.4 228.031C281.23 228.031 280.619 227.216 280.619 225.891L280.617 225.892ZM283.217 226.443C283.217 225.793 282.852 225.554 282.359 225.554C282.007 225.554 281.655 225.799 281.487 226.024V226.064C281.487 226.886 281.74 227.389 282.379 227.389C282.898 227.389 283.217 227.045 283.217 226.443Z" fill="#3B3C3C"/>
<path d="M284.372 225.713V225.415C284.372 223.686 285.271 223.062 286.267 223.062C287.263 223.062 288.128 223.693 288.128 225.389V225.693C288.128 227.389 287.271 228.032 286.254 228.032C285.236 228.032 284.371 227.356 284.371 225.713H284.372ZM287.231 225.753V225.389C287.231 224.242 286.899 223.732 286.26 223.732C285.621 223.732 285.284 224.217 285.284 225.342V225.713C285.284 226.833 285.603 227.369 286.254 227.369C286.905 227.369 287.231 226.906 287.231 225.753Z" fill="#3B3C3C"/>
<path d="M295.07 227.442L296.002 226.468C296.673 225.766 297.212 225.162 297.212 224.56C297.212 223.958 296.893 223.746 296.274 223.746C295.935 223.746 295.535 223.911 295.27 224.07L295.13 223.435C295.456 223.243 295.948 223.064 296.506 223.064C297.571 223.064 298.115 223.574 298.115 224.449C298.115 225.324 297.377 226.078 296.785 226.689L296.214 227.271H298.155V227.947H295.07V227.443V227.442Z" fill="#3B3C3C"/>
<path d="M298.435 226.727C298.435 226.125 298.9 225.693 299.431 225.481C298.926 225.256 298.573 224.925 298.573 224.328C298.573 223.58 299.217 223.062 300.235 223.062C301.253 223.062 301.877 223.506 301.877 224.262C301.877 224.792 301.492 225.17 300.992 225.408C301.557 225.602 302.063 225.953 302.063 226.634C302.063 227.45 301.386 228.032 300.235 228.032C299.085 228.032 298.434 227.508 298.434 226.727H298.435ZM301.188 226.694C301.188 226.197 300.816 225.946 300.097 225.759C299.665 225.905 299.253 226.229 299.253 226.661C299.253 227.124 299.625 227.404 300.218 227.404C300.81 227.404 301.188 227.112 301.188 226.694ZM301.055 224.328C301.055 223.964 300.796 223.693 300.251 223.693C299.753 223.693 299.447 223.924 299.447 224.308C299.447 224.719 299.753 224.977 300.359 225.124C300.731 224.972 301.056 224.712 301.056 224.328H301.055Z" fill="#3B3C3C"/>
<path d="M302.396 225.713V225.415C302.396 223.686 303.294 223.062 304.292 223.062C305.289 223.062 306.153 223.693 306.153 225.389V225.693C306.153 227.389 305.295 228.032 304.277 228.032C303.259 228.032 302.395 227.356 302.395 225.713H302.396ZM305.255 225.753V225.389C305.255 224.242 304.923 223.732 304.284 223.732C303.645 223.732 303.306 224.217 303.306 225.342V225.713C303.306 226.833 303.625 227.369 304.277 227.369C304.929 227.369 305.255 226.906 305.255 225.753Z" fill="#3B3C3C"/>
<path d="M313.625 227.682L313.771 227.052C314.017 227.21 314.536 227.33 314.902 227.33C315.554 227.33 315.933 227.058 315.933 226.521C315.933 225.983 315.547 225.793 314.928 225.786L314.423 225.773V225.142L314.875 225.136C315.433 225.123 315.806 224.871 315.806 224.414C315.806 223.931 315.474 223.752 314.943 223.752C314.583 223.752 314.198 223.878 313.912 224.011L313.812 223.368C314.113 223.196 314.697 223.064 315.169 223.064C316.067 223.064 316.678 223.488 316.678 224.263C316.678 224.841 316.339 225.211 315.806 225.39C316.412 225.509 316.837 225.853 316.837 226.576C316.837 227.465 316.152 228.021 315.049 228.021C314.47 228.021 313.905 227.862 313.626 227.683L313.625 227.682Z" fill="#3B3C3C"/>
<path d="M317.212 225.713V225.415C317.212 223.686 318.11 223.062 319.107 223.062C320.103 223.062 320.968 223.693 320.968 225.389V225.693C320.968 227.389 320.11 228.032 319.093 228.032C318.077 228.032 317.211 227.356 317.211 225.713H317.212ZM320.071 225.753V225.389C320.071 224.242 319.739 223.732 319.1 223.732C318.461 223.732 318.124 224.217 318.124 225.342V225.713C318.124 226.833 318.442 227.369 319.093 227.369C319.744 227.369 320.071 226.906 320.071 225.753Z" fill="#3B3C3C"/>
<path d="M321.443 225.713V225.415C321.443 223.686 322.341 223.062 323.339 223.062C324.336 223.062 325.2 223.693 325.2 225.389V225.693C325.2 227.389 324.342 228.032 323.324 228.032C322.306 228.032 321.441 227.356 321.441 225.713H321.443ZM324.302 225.753V225.389C324.302 224.242 323.97 223.732 323.331 223.732C322.692 223.732 322.353 224.217 322.353 225.342V225.713C322.353 226.833 322.672 227.369 323.324 227.369C323.976 227.369 324.302 226.906 324.302 225.753Z" fill="#3B3C3C"/>
<path d="M36.127 120.157L35.3086 120.316V119.812L36.5455 119.262H37.0038V124.133H36.1257V120.157H36.127Z" fill="#3B3C3C"/>
<path d="M37.9531 123.39H38.818V124.217H37.9531V123.39Z" fill="#3B3C3C"/>
<path d="M39.2734 122.045V121.701C39.2734 119.893 40.1968 119.223 41.3539 119.223C41.8389 119.223 42.2786 119.375 42.4845 119.494L42.3185 120.13C42.1325 120.03 41.7206 119.918 41.4018 119.918C40.683 119.918 40.2048 120.27 40.1383 121.508C40.3854 121.296 40.7707 121.084 41.2689 121.084C42.1059 121.084 42.7117 121.608 42.7117 122.528C42.7117 123.449 42.1325 124.185 41.0564 124.185C39.8859 124.185 39.2748 123.369 39.2748 122.044L39.2734 122.045ZM41.8734 122.596C41.8734 121.946 41.5081 121.708 41.0152 121.708C40.6631 121.708 40.311 121.953 40.1436 122.178V122.217C40.1436 123.039 40.3961 123.543 41.0351 123.543C41.5546 123.543 41.8734 123.198 41.8734 122.596Z" fill="#3B3C3C"/>
<path d="M43.0287 121.866V121.568C43.0287 119.839 43.9268 119.216 44.9232 119.216C45.9196 119.216 46.7845 119.846 46.7845 121.542V121.846C46.7845 123.542 45.9262 124.186 44.9099 124.186C43.8936 124.186 43.0273 123.509 43.0273 121.866H43.0287ZM45.8877 121.906V121.542C45.8877 120.395 45.5556 119.886 44.9165 119.886C44.2775 119.886 43.9401 120.37 43.9401 121.496V121.866C43.9401 122.986 44.2589 123.522 44.9099 123.522C45.5609 123.522 45.8877 123.059 45.8877 121.906Z" fill="#3B3C3C"/>
<path d="M47.2591 121.866V121.568C47.2591 119.839 48.1572 119.216 49.155 119.216C50.1527 119.216 51.0163 119.846 51.0163 121.542V121.846C51.0163 123.542 50.158 124.186 49.1404 124.186C48.1227 124.186 47.2578 123.509 47.2578 121.866H47.2591ZM50.1182 121.906V121.542C50.1182 120.395 49.786 119.886 49.147 119.886C48.508 119.886 48.1692 120.37 48.1692 121.496V121.866C48.1692 122.986 48.4881 123.522 49.1404 123.522C49.7927 123.522 50.1182 123.059 50.1182 121.906Z" fill="#3B3C3C"/>
<path d="M36.0215 132.006L35.2031 132.165V131.661L36.44 131.111H36.8984V135.982H36.0202V132.006H36.0215Z" fill="#3B3C3C"/>
<path d="M37.8438 135.239H38.7086V136.067H37.8438V135.239Z" fill="#3B3C3C"/>
<path d="M41.228 135.04H39V134.537L41.4538 131.118H42.045V134.398H42.7571V135.04H42.045V136.028H41.2267V135.04H41.228ZM41.2346 134.398V132.582L39.9446 134.398H41.2346Z" fill="#3B3C3C"/>
<path d="M43.0287 133.715V133.417C43.0287 131.688 43.9268 131.064 44.9245 131.064C45.9223 131.064 46.7858 131.695 46.7858 133.391V133.695C46.7858 135.391 45.9276 136.034 44.9099 136.034C43.8922 136.034 43.0273 135.358 43.0273 133.715H43.0287ZM45.889 133.755V133.391C45.889 132.244 45.5569 131.734 44.9179 131.734C44.2788 131.734 43.9401 132.219 43.9401 133.344V133.715C43.9401 134.835 44.2589 135.371 44.9112 135.371C45.5635 135.371 45.889 134.908 45.889 133.755Z" fill="#3B3C3C"/>
<path d="M47.2591 133.715V133.417C47.2591 131.688 48.1572 131.064 49.1537 131.064C50.1501 131.064 51.015 131.695 51.015 133.391V133.695C51.015 135.391 50.1567 136.034 49.1404 136.034C48.124 136.034 47.2578 135.358 47.2578 133.715H47.2591ZM50.1195 133.755V133.391C50.1195 132.244 49.7874 131.734 49.1483 131.734C48.5093 131.734 48.1719 132.219 48.1719 133.344V133.715C48.1719 134.835 48.4907 135.371 49.1417 135.371C49.7927 135.371 50.1195 134.908 50.1195 133.755Z" fill="#3B3C3C"/>
<path d="M36.4239 143.855L35.6055 144.014V143.511L36.8423 142.96H37.3007V147.829H36.4225V143.854L36.4239 143.855Z" fill="#3B3C3C"/>
<path d="M38.25 147.089H39.1149V147.918H38.25V147.089Z" fill="#3B3C3C"/>
<path d="M39.5977 147.294L40.529 146.321C41.1999 145.618 41.7393 145.016 41.7393 144.413C41.7393 143.811 41.4204 143.598 40.8013 143.598C40.4625 143.598 40.0626 143.763 39.7969 143.922L39.6574 143.287C39.9829 143.095 40.4758 142.916 41.0338 142.916C42.098 142.916 42.6427 143.426 42.6427 144.301C42.6427 145.176 41.904 145.931 41.3128 146.541L40.7415 147.123H42.6826V147.799H39.5977V147.295V147.294Z" fill="#3B3C3C"/>
<path d="M43.0287 145.565V145.268C43.0287 143.537 43.9268 142.915 44.9232 142.915C45.9196 142.915 46.7845 143.545 46.7845 145.241V145.546C46.7845 147.242 45.9262 147.885 44.9099 147.885C43.8936 147.885 43.0273 147.21 43.0273 145.567L43.0287 145.565ZM45.8877 145.604V145.24C45.8877 144.093 45.5556 143.584 44.9165 143.584C44.2775 143.584 43.9401 144.067 43.9401 145.193V145.564C43.9401 146.684 44.2589 147.22 44.9099 147.22C45.5609 147.22 45.8877 146.756 45.8877 145.603V145.604Z" fill="#3B3C3C"/>
<path d="M47.2591 145.565V145.268C47.2591 143.537 48.1572 142.915 49.155 142.915C50.1527 142.915 51.0163 143.545 51.0163 145.241V145.546C51.0163 147.242 50.158 147.885 49.1404 147.885C48.1227 147.885 47.2578 147.21 47.2578 145.567L47.2591 145.565ZM50.1182 145.604V145.24C50.1182 144.093 49.786 143.584 49.147 143.584C48.508 143.584 48.1692 144.067 48.1692 145.193V145.564C48.1692 146.684 48.4881 147.22 49.1404 147.22C49.7927 147.22 50.1182 146.756 50.1182 145.603V145.604Z" fill="#3B3C3C"/>
<path d="M35.6075 155.704L34.7891 155.862V155.359L36.0259 154.809H36.4843V159.678H35.6061V155.702L35.6075 155.704Z" fill="#3B3C3C"/>
<path d="M37.4336 158.938H38.2985V159.767H37.4336V158.938Z" fill="#3B3C3C"/>
<path d="M38.7943 157.414V157.116C38.7943 155.386 39.6924 154.764 40.6888 154.764C41.6852 154.764 42.5501 155.394 42.5501 157.09V157.394C42.5501 159.09 41.6919 159.734 40.6755 159.734C39.6592 159.734 38.793 159.058 38.793 157.415L38.7943 157.414ZM41.6547 157.454V157.09C41.6547 155.943 41.3225 155.434 40.6835 155.434C40.0445 155.434 39.707 155.917 39.707 157.043V157.414C39.707 158.534 40.0259 159.07 40.6769 159.07C41.3278 159.07 41.6547 158.606 41.6547 157.453V157.454Z" fill="#3B3C3C"/>
<path d="M43.0287 157.414V157.116C43.0287 155.386 43.9268 154.764 44.9245 154.764C45.9223 154.764 46.7858 155.394 46.7858 157.09V157.394C46.7858 159.09 45.9276 159.734 44.9099 159.734C43.8922 159.734 43.0273 159.058 43.0273 157.415L43.0287 157.414ZM45.889 157.454V157.09C45.889 155.943 45.5569 155.434 44.9179 155.434C44.2788 155.434 43.9401 155.917 43.9401 157.043V157.414C43.9401 158.534 44.2589 159.07 44.9112 159.07C45.5635 159.07 45.889 158.606 45.889 157.453V157.454Z" fill="#3B3C3C"/>
<path d="M47.2591 157.414V157.116C47.2591 155.386 48.1572 154.764 49.1537 154.764C50.1501 154.764 51.015 155.394 51.015 157.09V157.394C51.015 159.09 50.1567 159.734 49.1404 159.734C48.124 159.734 47.2578 159.058 47.2578 157.415L47.2591 157.414ZM50.1195 157.454V157.09C50.1195 155.943 49.7874 155.434 49.1483 155.434C48.5093 155.434 48.1719 155.917 48.1719 157.043V157.414C48.1719 158.534 48.4907 159.07 49.1417 159.07C49.7927 159.07 50.1195 158.606 50.1195 157.453V157.454Z" fill="#3B3C3C"/>
<path d="M33.4857 169.263V168.965C33.4857 167.235 34.3838 166.613 35.3802 166.613C36.3766 166.613 37.2415 167.243 37.2415 168.939V169.243C37.2415 170.939 36.3833 171.583 35.3669 171.583C34.3506 171.583 33.4844 170.908 33.4844 169.265L33.4857 169.263ZM36.3461 169.303V168.939C36.3461 167.792 36.0139 167.283 35.3749 167.283C34.7359 167.283 34.3984 167.766 34.3984 168.893V169.263C34.3984 170.383 34.7173 170.919 35.3683 170.919C36.0193 170.919 36.3461 170.455 36.3461 169.302V169.303Z" fill="#3B3C3C"/>
<path d="M37.8008 170.787H38.6657V171.616H37.8008V170.787Z" fill="#3B3C3C"/>
<path d="M39.0677 170.277C39.0677 169.674 39.5327 169.243 40.0641 169.032C39.5593 168.806 39.2059 168.476 39.2059 167.878C39.2059 167.129 39.8503 166.613 40.8679 166.613C41.8856 166.613 42.51 167.056 42.51 167.812C42.51 168.342 42.1247 168.72 41.6252 168.959C42.1898 169.151 42.696 169.502 42.696 170.185C42.696 170.999 42.0184 171.583 40.8679 171.583C39.7174 171.583 39.0664 171.06 39.0664 170.277H39.0677ZM41.8205 170.244C41.8205 169.748 41.4485 169.496 40.7298 169.31C40.298 169.455 39.8861 169.78 39.8861 170.211C39.8861 170.675 40.2581 170.954 40.8507 170.954C41.4432 170.954 41.8205 170.663 41.8205 170.244ZM41.6876 167.878C41.6876 167.514 41.4286 167.243 40.8839 167.243C40.3857 167.243 40.0801 167.475 40.0801 167.859C40.0801 168.27 40.3857 168.527 40.9915 168.674C41.3635 168.522 41.689 168.262 41.689 167.878H41.6876Z" fill="#3B3C3C"/>
<path d="M43.0287 169.263V168.965C43.0287 167.235 43.9268 166.613 44.9245 166.613C45.9223 166.613 46.7858 167.243 46.7858 168.939V169.243C46.7858 170.939 45.9276 171.583 44.9099 171.583C43.8922 171.583 43.0273 170.908 43.0273 169.265L43.0287 169.263ZM45.889 169.303V168.939C45.889 167.792 45.5569 167.283 44.9179 167.283C44.2788 167.283 43.9401 167.766 43.9401 168.893V169.263C43.9401 170.383 44.2589 170.919 44.9112 170.919C45.5635 170.919 45.889 170.455 45.889 169.302V169.303Z" fill="#3B3C3C"/>
<path d="M47.2591 169.263V168.965C47.2591 167.235 48.1572 166.613 49.1537 166.613C50.1501 166.613 51.015 167.243 51.015 168.939V169.243C51.015 170.939 50.1567 171.583 49.1404 171.583C48.124 171.583 47.2578 170.908 47.2578 169.265L47.2591 169.263ZM50.1195 169.303V168.939C50.1195 167.792 49.7874 167.283 49.1483 167.283C48.5093 167.283 48.1719 167.766 48.1719 168.893V169.263C48.1719 170.383 48.4907 170.919 49.1417 170.919C49.7927 170.919 50.1195 170.455 50.1195 169.302V169.303Z" fill="#3B3C3C"/>
<path d="M33.642 181.112V180.814C33.642 179.084 34.5401 178.462 35.5378 178.462C36.5355 178.462 37.3991 179.092 37.3991 180.788V181.093C37.3991 182.788 36.5409 183.432 35.5232 183.432C34.5055 183.432 33.6406 182.757 33.6406 181.114L33.642 181.112ZM36.501 181.152V180.788C36.501 179.642 36.1689 179.132 35.5298 179.132C34.8908 179.132 34.552 179.615 34.552 180.742V181.112C34.552 182.232 34.8709 182.769 35.5232 182.769C36.1755 182.769 36.501 182.304 36.501 181.151V181.152Z" fill="#3B3C3C"/>
<path d="M37.9531 182.636H38.818V183.465H37.9531V182.636Z" fill="#3B3C3C"/>
<path d="M39.2734 181.291V180.947C39.2734 179.137 40.1968 178.468 41.3539 178.468C41.8389 178.468 42.2786 178.621 42.4845 178.741L42.3185 179.376C42.1325 179.277 41.7206 179.165 41.4018 179.165C40.683 179.165 40.2048 179.515 40.1383 180.755C40.3854 180.543 40.7707 180.331 41.2689 180.331C42.1059 180.331 42.7117 180.854 42.7117 181.775C42.7117 182.697 42.1325 183.432 41.0564 183.432C39.8859 183.432 39.2748 182.617 39.2748 181.292L39.2734 181.291ZM41.8734 181.842C41.8734 181.193 41.5081 180.955 41.0152 180.955C40.6631 180.955 40.311 181.199 40.1436 181.425V181.464C40.1436 182.286 40.3961 182.789 41.0351 182.789C41.5546 182.789 41.8734 182.445 41.8734 181.842Z" fill="#3B3C3C"/>
<path d="M43.0287 181.112V180.814C43.0287 179.084 43.9268 178.462 44.9232 178.462C45.9196 178.462 46.7845 179.092 46.7845 180.788V181.093C46.7845 182.788 45.9262 183.432 44.9099 183.432C43.8936 183.432 43.0273 182.757 43.0273 181.114L43.0287 181.112ZM45.8877 181.152V180.788C45.8877 179.642 45.5556 179.132 44.9165 179.132C44.2775 179.132 43.9401 179.615 43.9401 180.742V181.112C43.9401 182.232 44.2589 182.769 44.9099 182.769C45.5609 182.769 45.8877 182.304 45.8877 181.151V181.152Z" fill="#3B3C3C"/>
<path d="M47.2591 181.112V180.814C47.2591 179.084 48.1572 178.462 49.155 178.462C50.1527 178.462 51.0163 179.092 51.0163 180.788V181.093C51.0163 182.788 50.158 183.432 49.1404 183.432C48.1227 183.432 47.2578 182.757 47.2578 181.114L47.2591 181.112ZM50.1182 181.152V180.788C50.1182 179.642 49.786 179.132 49.147 179.132C48.508 179.132 48.1692 179.615 48.1692 180.742V181.112C48.1692 182.232 48.4881 182.769 49.1404 182.769C49.7927 182.769 50.1182 182.304 50.1182 181.151V181.152Z" fill="#3B3C3C"/>
<path d="M33.5326 192.962V192.665C33.5326 190.936 34.4307 190.312 35.4284 190.312C36.4262 190.312 37.2897 190.942 37.2897 192.638V192.943C37.2897 194.639 36.4315 195.282 35.4138 195.282C34.3961 195.282 33.5312 194.605 33.5312 192.962H33.5326ZM36.3916 193.002V192.638C36.3916 191.492 36.0595 190.982 35.4204 190.982C34.7814 190.982 34.4426 191.466 34.4426 192.592V192.962C34.4426 194.082 34.7615 194.619 35.4138 194.619C36.0661 194.619 36.3916 194.155 36.3916 193.002Z" fill="#3B3C3C"/>
<path d="M37.8438 194.486H38.7086V195.314H37.8438V194.486Z" fill="#3B3C3C"/>
<path d="M41.2267 194.288H39V193.785L41.4538 190.365H42.045V193.646H42.7571V194.288H42.045V195.276H41.2267V194.288ZM41.2346 193.646V191.829L39.9446 193.646H41.2346Z" fill="#3B3C3C"/>
<path d="M43.0287 192.962V192.665C43.0287 190.936 43.9268 190.312 44.9232 190.312C45.9196 190.312 46.7845 190.942 46.7845 192.638V192.943C46.7845 194.639 45.9262 195.282 44.9099 195.282C43.8936 195.282 43.0273 194.605 43.0273 192.962H43.0287ZM45.8877 193.002V192.638C45.8877 191.492 45.5556 190.982 44.9165 190.982C44.2775 190.982 43.9401 191.466 43.9401 192.592V192.962C43.9401 194.082 44.2589 194.619 44.9099 194.619C45.5609 194.619 45.8877 194.155 45.8877 193.002Z" fill="#3B3C3C"/>
<path d="M47.2591 192.962V192.665C47.2591 190.936 48.1572 190.312 49.155 190.312C50.1527 190.312 51.0163 190.942 51.0163 192.638V192.943C51.0163 194.639 50.158 195.282 49.1404 195.282C48.1227 195.282 47.2578 194.605 47.2578 192.962H47.2591ZM50.1182 193.002V192.638C50.1182 191.492 49.786 190.982 49.147 190.982C48.508 190.982 48.1692 191.466 48.1692 192.592V192.962C48.1692 194.082 48.4881 194.619 49.1404 194.619C49.7927 194.619 50.1182 194.155 50.1182 193.002Z" fill="#3B3C3C"/>
<path d="M33.9388 204.812V204.514C33.9388 202.785 34.8369 202.161 35.8333 202.161C36.8298 202.161 37.6946 202.791 37.6946 204.487V204.792C37.6946 206.488 36.8364 207.131 35.8201 207.131C34.8037 207.131 33.9375 206.455 33.9375 204.812H33.9388ZM36.7979 204.851V204.487C36.7979 203.341 36.4657 202.831 35.8267 202.831C35.1877 202.831 34.8502 203.316 34.8502 204.441V204.812C34.8502 205.932 35.1691 206.468 35.8201 206.468C36.471 206.468 36.7979 206.004 36.7979 204.851Z" fill="#3B3C3C"/>
<path d="M38.25 206.335H39.1149V207.162H38.25V206.335Z" fill="#3B3C3C"/>
<path d="M39.5977 206.54L40.529 205.566C41.1999 204.864 41.7393 204.26 41.7393 203.658C41.7393 203.056 41.4204 202.844 40.8013 202.844C40.4625 202.844 40.0626 203.009 39.7969 203.168L39.6574 202.533C39.9829 202.341 40.4758 202.162 41.0338 202.162C42.098 202.162 42.6427 202.672 42.6427 203.547C42.6427 204.422 41.904 205.177 41.3128 205.787L40.7415 206.369H42.6826V207.045H39.5977V206.542V206.54Z" fill="#3B3C3C"/>
<path d="M43.0287 204.812V204.514C43.0287 202.785 43.9268 202.161 44.9232 202.161C45.9196 202.161 46.7845 202.791 46.7845 204.487V204.792C46.7845 206.488 45.9262 207.131 44.9099 207.131C43.8936 207.131 43.0273 206.455 43.0273 204.812H43.0287ZM45.8877 204.851V204.487C45.8877 203.341 45.5556 202.831 44.9165 202.831C44.2775 202.831 43.9401 203.316 43.9401 204.441V204.812C43.9401 205.932 44.2589 206.468 44.9099 206.468C45.5609 206.468 45.8877 206.004 45.8877 204.851Z" fill="#3B3C3C"/>
<path d="M47.2591 204.812V204.514C47.2591 202.785 48.1572 202.161 49.155 202.161C50.1527 202.161 51.0163 202.791 51.0163 204.487V204.792C51.0163 206.488 50.158 207.131 49.1404 207.131C48.1227 207.131 47.2578 206.455 47.2578 204.812H47.2591ZM50.1182 204.851V204.487C50.1182 203.341 49.786 202.831 49.147 202.831C48.508 202.831 48.1692 203.316 48.1692 204.441V204.812C48.1692 205.932 48.4881 206.468 49.1404 206.468C49.7927 206.468 50.1182 206.004 50.1182 204.851Z" fill="#3B3C3C"/>
<path d="M33.1224 216.66V216.362C33.1224 214.633 34.0205 214.01 35.0183 214.01C36.016 214.01 36.8796 214.64 36.8796 216.336V216.64C36.8796 218.336 36.0213 218.98 35.0037 218.98C33.986 218.98 33.1211 218.303 33.1211 216.66H33.1224ZM35.9828 216.701V216.337C35.9828 215.191 35.6507 214.681 35.0116 214.681C34.3726 214.681 34.0338 215.166 34.0338 216.291V216.662C34.0338 217.782 34.3527 218.318 35.005 218.318C35.6573 218.318 35.9828 217.854 35.9828 216.701Z" fill="#3B3C3C"/>
<path d="M37.4336 218.186H38.2985V219.013H37.4336V218.186Z" fill="#3B3C3C"/>
<path d="M38.7943 216.66V216.362C38.7943 214.633 39.6924 214.01 40.6888 214.01C41.6852 214.01 42.5501 214.64 42.5501 216.336V216.64C42.5501 218.336 41.6919 218.98 40.6755 218.98C39.6592 218.98 38.793 218.303 38.793 216.66H38.7943ZM41.6547 216.701V216.337C41.6547 215.191 41.3225 214.681 40.6835 214.681C40.0445 214.681 39.707 215.166 39.707 216.291V216.662C39.707 217.782 40.0259 218.318 40.6769 218.318C41.3278 218.318 41.6547 217.854 41.6547 216.701Z" fill="#3B3C3C"/>
<path d="M43.0287 216.66V216.362C43.0287 214.633 43.9268 214.01 44.9245 214.01C45.9223 214.01 46.7858 214.64 46.7858 216.336V216.64C46.7858 218.336 45.9276 218.98 44.9099 218.98C43.8922 218.98 43.0273 218.303 43.0273 216.66H43.0287ZM45.889 216.701V216.337C45.889 215.191 45.5569 214.681 44.9179 214.681C44.2788 214.681 43.9401 215.166 43.9401 216.291V216.662C43.9401 217.782 44.2589 218.318 44.9112 218.318C45.5635 218.318 45.889 217.854 45.889 216.701Z" fill="#3B3C3C"/>
<path d="M47.2591 216.66V216.362C47.2591 214.633 48.1572 214.01 49.1537 214.01C50.1501 214.01 51.015 214.64 51.015 216.336V216.64C51.015 218.336 50.1567 218.98 49.1404 218.98C48.124 218.98 47.2578 218.303 47.2578 216.66H47.2591ZM50.1195 216.701V216.337C50.1195 215.191 49.7874 214.681 49.1483 214.681C48.5093 214.681 48.1719 215.166 48.1719 216.291V216.662C48.1719 217.782 48.4907 218.318 49.1417 218.318C49.7927 218.318 50.1195 217.854 50.1195 216.701Z" fill="#3B3C3C"/>
<path d="M25.3631 184.844V185.829H23.5151V186.902H22.7113V185.829H21.8584V186.902H21.0453V185.829H19.8828V184.844H25.3631ZM24.1289 190.822H20.3611V189.829H21.5236V188.257H20.3451V187.272H24.1302V190.822H24.1289ZM22.2968 188.257V189.829H23.341V188.257H22.2968ZM27.2363 189.797H24.9021V188.812H26.4552V184.676H27.235V189.797H27.2363Z" fill="#3B3C3C"/>
<path d="M27.4356 177.885V178.862H19.8828V177.885H27.4356ZM23.4207 181.728C23.4207 182.904 22.7591 183.673 21.8504 183.673C20.9417 183.673 20.2415 182.902 20.2415 181.728C20.2415 180.554 20.9178 179.759 21.8504 179.759C22.783 179.759 23.4207 180.578 23.4207 181.728ZM21.0453 181.728C21.0453 182.284 21.3881 182.689 21.8424 182.689C22.2968 182.689 22.6077 182.292 22.6077 181.728C22.6077 181.132 22.2888 180.743 21.8424 180.743C21.396 180.743 21.0453 181.148 21.0453 181.728ZM27.2124 182.203H24.7187C24.7506 182.926 24.7666 183.505 24.7666 184.061L23.9548 184.204C23.9548 182.291 23.8353 180.321 23.7237 179.258L24.4889 179.178C24.5606 179.734 24.6244 180.48 24.6643 181.202H27.2138V182.202L27.2124 182.203Z" fill="#3B3C3C"/>
<path d="M27.3009 175.524C26.5357 176.334 25.3253 177.089 23.7789 177.089H23.6195C22.0731 177.089 20.8707 176.334 20.1055 175.524V174.691C20.9504 175.454 22.1767 176.088 23.5464 176.088H23.7856C25.1314 176.088 26.4466 175.454 27.2996 174.691V175.524H27.3009Z" fill="#3B3C3C"/>
<path d="M22.0576 174.434V173.497H22.4469V173.457C22.1838 173.092 21.9766 172.639 21.9766 172.132C21.9766 171.625 22.128 171.299 22.4708 171.101V171.053C22.1599 170.608 21.9766 170.116 21.9766 169.623C21.9766 168.861 22.3114 168.425 23.1709 168.425H26.4139V169.393H23.4021C22.9716 169.393 22.7896 169.56 22.7896 170.06C22.7896 170.346 22.8773 170.632 23.0367 170.958C23.1005 170.95 23.1483 170.942 23.236 170.942H26.4153V171.903H23.4034C22.973 171.903 22.791 172.078 22.791 172.57C22.791 172.88 22.8946 173.198 23.0301 173.459H26.4166V174.436H22.0576V174.434Z" fill="#3B3C3C"/>
<path d="M22.0576 167.699V166.761H22.4469V166.722C22.1838 166.356 21.9766 165.903 21.9766 165.396C21.9766 164.889 22.128 164.564 22.4708 164.365V164.317C22.1599 163.873 21.9766 163.38 21.9766 162.888C21.9766 162.125 22.3114 161.689 23.1709 161.689H26.4139V162.657H23.4021C22.9716 162.657 22.7896 162.824 22.7896 163.324C22.7896 163.61 22.8773 163.896 23.0367 164.222C23.1005 164.214 23.1483 164.206 23.236 164.206H26.4153V165.167H23.4034C22.973 165.167 22.791 165.342 22.791 165.835C22.791 166.144 22.8946 166.462 23.0301 166.723H26.4166V167.7H22.0576V167.699Z" fill="#3B3C3C"/>
<path d="M25.8516 160.955V159.892L27.5641 160.495V161.29L25.8516 160.956V160.955Z" fill="#3B3C3C"/>
<path d="M22.0563 159.239V158.301H22.423V158.262C22.1599 158 21.9766 157.555 21.9766 157.008C21.9766 156.102 22.5027 155.286 24.1036 155.286H24.2152C25.8493 155.286 26.4936 156.072 26.4936 157.254C26.4936 157.731 26.3661 158.057 26.2465 158.263H27.68V159.24H22.0563V159.239ZM24.3427 156.293H24.1673C23.0846 156.293 22.7737 156.666 22.7737 157.35C22.7737 157.771 22.9092 158.095 23.0288 158.262H25.5065C25.642 158.095 25.7616 157.769 25.7616 157.388C25.7616 156.689 25.4029 156.292 24.344 156.292L24.3427 156.293Z" fill="#3B3C3C"/>
<path d="M23.2031 154.87V152.544H24.0003V154.87H23.2031Z" fill="#3B3C3C"/>
<path d="M22.0563 151.979V151.041H22.423V151.002C22.1599 150.739 21.9766 150.295 21.9766 149.748C21.9766 148.842 22.5027 148.025 24.1036 148.025H24.2152C25.8493 148.025 26.4936 148.812 26.4936 149.994C26.4936 150.471 26.3661 150.796 26.2465 151.003H27.68V151.98H22.0563V151.979ZM24.3427 149.033H24.1673C23.0846 149.033 22.7737 149.406 22.7737 150.089C22.7737 150.51 22.9092 150.835 23.0288 151.002H25.5065C25.642 150.835 25.7616 150.509 25.7616 150.128C25.7616 149.429 25.4029 149.032 24.344 149.032L24.3427 149.033Z" fill="#3B3C3C"/>
<path d="M27.3009 147.991C26.4559 147.228 25.2217 146.594 23.8586 146.594H23.6115C22.2816 146.594 20.9584 147.228 20.1055 147.991V147.158C20.8707 146.356 22.081 145.603 23.6195 145.603H23.7789C25.332 145.603 26.5357 146.356 27.3009 147.158V147.991Z" fill="#3B3C3C"/>
<path d="M178.174 240.211V237.591H175.281V236.806H182.101V237.591H179.169V240.211H178.172H178.174ZM175.585 235.487C176.724 235.368 177.976 234.693 178.151 233.804H175.888V233.018H181.49V233.804H179.235C179.41 234.694 180.67 235.338 181.8 235.457C181.665 235.719 181.521 235.973 181.386 236.227C180.407 236.116 179.107 235.433 178.693 234.719C178.294 235.482 177.052 236.124 176.016 236.259L175.585 235.488V235.487Z" fill="#3B3C3C"/>
<path d="M186.815 238.187C185.924 238.337 183.859 238.463 182.178 238.463L182.051 237.623H183.087L182.84 234.733L183.811 234.605L183.971 237.613L184.823 237.589L184.991 234.588L185.938 234.691L185.675 237.533C186.106 237.501 186.464 237.461 186.743 237.405L186.815 238.184V238.187ZM182.298 234.122V233.336H186.512V234.122H182.298ZM188.113 235.59H189.181V236.409H188.113V240.219H187.125V232.692H188.113V235.59Z" fill="#3B3C3C"/>
<path d="M192.045 240.227V237.551H189.152V236.772H195.972V237.551H193.04V240.227H192.043H192.045ZM195.264 236.146C194.148 235.979 192.937 235.265 192.571 234.432C192.236 235.266 191.032 235.973 189.886 236.156L189.463 235.345C190.769 235.202 192.045 234.368 192.045 233.242V232.86H193.095V233.242C193.095 234.37 194.481 235.234 195.693 235.345L195.262 236.146H195.264Z" fill="#3B3C3C"/>
<path d="M197.809 240.084C196.996 239.321 196.238 238.115 196.238 236.574V236.415C196.238 234.874 196.996 233.676 197.809 232.914H198.644C197.879 233.756 197.243 234.978 197.243 236.342V236.581C197.243 237.922 197.88 239.233 198.644 240.082H197.809V240.084Z" fill="#3B3C3C"/>
<path d="M199.012 233.415H200.056V235.805H202.534V233.415H203.577V239.203H202.534V236.623H200.056V239.203H199.012V233.415Z" fill="#3B3C3C"/>
<path d="M204.207 238.504L206.374 235.638V235.614H204.311V234.861H207.562V235.527L205.363 238.433V238.465H207.546V239.203H204.207V238.504Z" fill="#3B3C3C"/>
<path d="M207.605 240.083C208.371 239.241 209.007 238.011 209.007 236.653V236.407C209.007 235.082 208.371 233.763 207.605 232.913H208.441C209.246 233.676 210.002 234.882 210.002 236.415V236.574C210.002 238.121 209.246 239.321 208.441 240.083H207.605Z" fill="#3B3C3C"/>
</g>
<defs>
<clipPath id="clip0_1210_126">
<rect x="19.8828" y="109.772" width="310.227" height="130.455" rx="16" fill="white"/>
</clipPath>
</defs>
</svg>
