<svg width="48" height="48" viewBox="0 0 48 48" fill="none" xmlns="http://www.w3.org/2000/svg">
<circle cx="24" cy="24" r="24" fill="#23295B"/>
<path d="M22.6077 28.663H25.9779L28.1547 31.4917C29.6354 30.0663 30.5525 27.779 30.5525 24.6851C30.5525 19.1823 27.6575 16.1989 23.768 16.1989C19.8785 16.1989 16.9834 19.1823 16.9834 24.6851C16.9834 30.1878 19.8785 33.1713 23.768 33.1713C24.4862 33.1713 25.1823 33.0718 25.8232 32.8619L22.6077 28.663ZM13.5691 24.6851C13.5691 17.4475 17.8785 13.0608 23.768 13.0608C29.6243 13.0608 33.9669 17.4475 33.9669 24.6851C33.9669 28.8508 32.5304 32.0773 30.1878 34.0552L33.2376 38.0331H29.7238L27.8011 35.5249C26.5746 36.0442 25.2155 36.3094 23.768 36.3094C17.8785 36.3094 13.5691 31.9116 13.5691 24.6851Z" fill="white"/>
</svg>
