<svg width="96" height="96" viewBox="0 0 96 96" fill="none" xmlns="http://www.w3.org/2000/svg">
<g id="_?&#235;&#141;&#137;&#236;&#148;&#160;??1" clip-path="url(#clip0_288_504)">
<path id="Vector" d="M47.5712 56.1571C42.7855 56.1571 38.9043 52.2644 38.9043 47.4901C38.9043 42.7159 42.797 38.8232 47.5712 38.8232C52.3454 38.8232 56.2381 42.7159 56.2381 47.4901C56.2381 52.2644 52.3454 56.1571 47.5712 56.1571ZM47.5712 41.5367C44.2853 41.5367 41.6177 44.2043 41.6177 47.4901C41.6177 50.776 44.2853 53.4436 47.5712 53.4436C50.8571 53.4436 53.5247 50.776 53.5247 47.4901C53.5247 44.2043 50.8571 41.5367 47.5712 41.5367Z" fill="#23295B"/>
<path id="Vector_2" d="M67.5375 46.8952C66.8048 46.8952 66.198 46.3113 66.1751 45.5671C66.1407 43.7352 66.0491 41.8919 65.9232 40.1059C65.6828 36.7055 65.2706 33.3624 64.7096 30.1911C63.6792 24.3635 62.1908 19.2 60.2903 14.8379C56.867 7.01825 52.5049 2.71342 48.0055 2.71342C43.506 2.71342 38.915 7.31592 35.5146 15.3417C35.2169 16.0286 34.4269 16.3492 33.74 16.063C33.0531 15.7653 32.7325 14.9753 33.0187 14.2884C36.9114 5.07191 42.2352 0 47.994 0C53.7529 0 58.882 4.88873 62.7633 13.7503C64.7554 18.307 66.3125 23.6766 67.3772 29.7216C67.9497 32.9961 68.3733 36.4193 68.6252 39.9227C68.7625 41.7546 68.8427 43.6322 68.8885 45.5213C68.8999 46.2655 68.3046 46.8952 67.5604 46.9066C67.5604 46.9066 67.5375 46.9066 67.5261 46.9066L67.5375 46.8952Z" fill="#23295B"/>
<path id="Vector_3" d="M47.9947 96.0001C42.3618 96.0001 37.1182 91.1114 33.2255 82.2499C31.2105 77.6474 30.0083 73.4799 28.623 66.3014C27.9246 62.7064 27.5125 59.3518 27.3636 56.0316C27.272 53.9479 27.272 51.8413 27.3636 49.769C27.398 49.0248 28.0277 48.4524 28.7833 48.4753C29.5275 48.5096 30.1114 49.1508 30.077 49.895C29.9854 51.8871 29.9854 53.9136 30.077 55.9057C30.2259 59.0885 30.6151 62.3171 31.2906 65.7747C32.6302 72.7243 33.798 76.7543 35.7214 81.1393C39.1561 88.959 43.5182 93.2638 48.0062 93.2638C52.4942 93.2638 57.0967 88.6613 60.4971 80.6356C60.7947 79.9486 61.5847 79.6281 62.2717 79.9143C62.9586 80.212 63.2792 81.0019 62.993 81.6889C59.0888 90.9053 53.765 95.9772 47.9947 95.9772V96.0001Z" fill="#23295B"/>
<path id="Vector_4" d="M73.0568 85.1463C67.2636 85.1463 59.8332 82.5588 51.5899 77.5098C50.9488 77.1205 50.7541 76.2847 51.1434 75.6436C51.5327 75.0024 52.3685 74.8078 53.0096 75.1971C65.1799 82.6618 75.5298 84.5166 80.0178 80.0286C83.3037 76.7427 82.6168 71.0067 81.4604 66.7706C81.2658 66.0493 81.6894 65.3051 82.4107 65.099C83.132 64.9044 83.8761 65.328 84.0822 66.0493C86.0171 73.1134 85.2729 78.6089 81.9413 81.9405C79.8003 84.0815 76.7549 85.1463 73.0568 85.1463Z" fill="#23295B"/>
<path id="Vector_5" d="M73.3195 49.0708C72.5753 49.0708 71.957 48.464 71.957 47.7199C71.957 46.9642 72.5638 46.3574 73.3195 46.3574C74.0751 46.3574 74.6819 46.9642 74.6819 47.7199C74.6819 48.4755 74.0751 49.0823 73.3195 49.0823V49.0708Z" fill="#23295B"/>
<path id="Vector_6" d="M12.9265 29.7899C12.3083 29.7899 11.7587 29.3663 11.6099 28.748C10.0872 22.2679 10.9344 17.1845 14.06 14.059C19.5784 8.54053 30.9358 10.2121 44.4571 18.5241C45.0983 18.9133 45.2929 19.7491 44.9036 20.3903C44.5144 21.0314 43.6786 21.226 43.0374 20.8368C30.8442 13.3491 20.4829 11.4829 15.9834 15.9824C12.9151 19.0507 13.3501 24.2829 14.2546 28.1298C14.4263 28.8625 13.9798 29.5953 13.2471 29.767C13.1441 29.7899 13.041 29.8014 12.938 29.8014L12.9265 29.7899Z" fill="#23295B"/>
<path id="Vector_7" d="M48.0049 68.923C37.6321 68.923 27.7745 67.5377 19.4969 64.9159C18.787 64.6869 18.3863 63.9313 18.6153 63.21C18.8443 62.5001 19.5999 62.0994 20.3212 62.3284C28.3355 64.8701 37.9069 66.2096 48.0049 66.2096C72.5516 66.2096 93.2858 57.8747 93.2858 48.0057C93.2858 43.4146 88.8436 39.8769 85.1226 37.713C84.47 37.3352 84.2525 36.5109 84.6303 35.8583C85.0081 35.2057 85.8325 34.9882 86.4851 35.366C92.7133 38.9724 96.0107 43.3459 96.0107 48.0057C96.0107 53.8103 90.8586 59.1685 81.5162 63.0955C72.5402 66.8622 60.6446 68.9345 48.0049 68.9345V68.923Z" fill="#23295B"/>
<path id="Vector_8" d="M10.1899 60.8176C9.96091 60.8176 9.72048 60.7604 9.5144 60.6344C3.29759 57.028 0.0117188 52.6659 0.0117188 48.0062C0.0117188 42.2473 5.08363 36.9235 14.3001 33.0079C18.7423 31.1189 23.9402 29.6419 29.7334 28.623C32.8933 28.062 36.2364 27.6498 39.6826 27.3865C45.2124 26.9858 50.8568 26.9858 56.1005 27.3865C59.581 27.6269 63.0042 28.0505 66.2901 28.6344C69.3699 29.1725 72.3466 29.8709 75.1402 30.6838C75.8614 30.8899 76.2736 31.6455 76.0561 32.3668C75.8386 33.0881 75.0944 33.5002 74.3731 33.2827C71.6711 32.4927 68.7974 31.8287 65.8092 31.302C62.6149 30.741 59.2833 30.3289 55.8944 30.0884C50.7767 29.7106 45.2697 29.6992 39.8772 30.0884C36.5226 30.3403 33.2711 30.7525 30.1913 31.2906C24.5928 32.2752 19.601 33.6949 15.342 35.5038C7.31619 38.9042 2.71369 43.4609 2.71369 47.9947C2.71369 52.5285 7.14446 56.1235 10.8654 58.2759C11.518 58.6537 11.7355 59.4781 11.3577 60.1307C11.1058 60.5657 10.6479 60.8062 10.1784 60.8062L10.1899 60.8176Z" fill="#23295B"/>
<path id="Vector_9" d="M23.3325 85.673C19.8062 85.673 16.9096 84.6769 14.8259 82.6848C11.6087 79.605 10.6584 74.5102 12.0781 67.9499C13.3948 61.8476 16.6806 54.7835 21.5579 47.5249C23.4126 44.7771 25.462 42.0408 27.6717 39.3846C29.3089 37.4154 31.072 35.4461 32.8924 33.5342C34.8502 31.4848 36.8652 29.5384 38.8803 27.7181C41.525 25.3367 44.227 23.1384 46.9289 21.1807C51.7719 17.6429 56.5232 14.9066 61.0227 13.0404C69.9529 9.31949 77.12 9.41108 81.1958 13.3037C85.4434 17.3681 85.7182 24.913 81.9515 34.5302C80.2112 38.9724 77.7153 43.6436 74.5096 48.4064C74.4982 48.4293 74.4867 48.4522 74.4638 48.4751C72.5976 51.2458 70.5368 53.9821 68.35 56.6039C66.7243 58.5617 64.9726 60.5195 63.1293 62.4544C61.1944 64.4809 59.1794 66.4386 57.1529 68.259C54.5425 70.6175 51.8291 72.8157 49.1042 74.8079C44.2728 78.3342 39.5329 81.0705 35.022 82.9481C30.6599 84.7571 26.7214 85.673 23.3554 85.673H23.3325ZM72.6663 13.0175C69.6896 13.0175 66.106 13.8647 62.0416 15.5478C57.7368 17.3338 53.1801 19.9671 48.5089 23.3789C45.8871 25.2794 43.2538 27.4204 40.6778 29.7445C38.72 31.5077 36.7508 33.4197 34.8388 35.4118C33.0642 37.2665 31.3468 39.19 29.744 41.1134C27.5915 43.7009 25.588 46.3571 23.7905 49.0247C14.3565 63.0268 11.5057 75.7581 16.6806 80.7041C19.9207 83.8068 26.0574 83.7152 33.9343 80.4293C38.2506 78.6318 42.8073 75.9986 47.467 72.5982C50.1118 70.6633 52.745 68.5224 55.2982 66.2325C57.2788 64.458 59.2366 62.546 61.1372 60.5653C62.9347 58.6876 64.652 56.7642 66.232 54.8637C68.35 52.322 70.3307 49.6773 72.1397 47.0097C72.1511 46.9868 72.1626 46.9639 72.174 46.9524C75.2881 42.327 77.7153 37.8161 79.3869 33.5342C82.6728 25.1306 82.6384 18.4672 79.2839 15.2615C77.7039 13.7503 75.4484 13.0061 72.6434 13.0061L72.6663 13.0175Z" fill="#23295B"/>
</g>
<defs>
<clipPath id="clip0_288_504">
<rect width="96" height="96" fill="white"/>
</clipPath>
</defs>
</svg>
