<svg width="89" height="100" viewBox="0 0 89 100" fill="none" xmlns="http://www.w3.org/2000/svg">
<g id="_?&#235;&#141;&#137;&#236;&#148;&#160;??1" clip-path="url(#clip0_288_550)">
<g id="Group">
<path id="Vector" d="M48.4857 69.9037C48.269 69.9037 48.0523 69.8562 47.8597 69.7493C37.2885 64.2406 31.1481 60.8689 27.9575 55.4076C24.8873 50.1839 24.5742 43.6066 24.5742 29.8467C24.5742 27.3773 24.6946 24.9078 24.9234 22.4978C24.9595 22.1178 25.1642 21.7736 25.4772 21.548C25.7903 21.3224 26.1876 21.2512 26.5608 21.3343C39.6484 24.3498 47.1011 14.9114 47.4142 14.5077C47.667 14.1753 48.0523 13.9972 48.4857 13.9854C48.9071 13.9854 49.3045 14.1753 49.5573 14.5077C49.8704 14.9114 57.3231 24.338 70.4107 21.3224C70.7839 21.2393 71.1812 21.3224 71.4943 21.5361C71.8073 21.7617 72.012 22.106 72.0481 22.4859C72.2889 24.896 72.3973 27.3654 72.3973 29.8348C72.3973 43.5829 72.0722 50.1601 69.014 55.3958C65.8114 60.8451 59.683 64.2287 49.1118 69.7375C48.9192 69.8443 48.7025 69.8918 48.4857 69.8918V69.9037ZM27.4638 24.2311C27.3193 26.0832 27.2471 27.9709 27.2471 29.8586C27.2471 55.0396 27.8491 56.3218 48.4857 67.0781C69.1224 56.3218 69.7244 55.0396 69.7244 29.8586C69.7244 27.9827 69.6521 26.0951 69.5077 24.2311C68.0869 24.4686 66.7264 24.5754 65.4261 24.5754C56.6609 24.5754 50.7734 19.6365 48.4857 17.3096C45.849 19.9808 38.4805 26.0951 27.4638 24.2311Z" fill="#23295B"/>
<g id="Group_2">
<path id="Vector_2" d="M33.3039 30.761C33.3039 30.761 33.2678 30.761 33.2437 30.761H33.1113C32.3648 30.7254 31.7989 30.108 31.823 29.3838C31.8471 28.6477 32.4852 28.1016 33.2197 28.1135H33.3521C34.0986 28.1491 34.6645 28.7664 34.6404 29.4907C34.6163 30.203 34.0143 30.761 33.3039 30.761Z" fill="#23295B"/>
<path id="Vector_3" d="M38.0716 30.3333C37.4575 30.3333 36.9037 29.9178 36.7592 29.3004C36.6027 28.5881 37.0602 27.8757 37.7826 27.7214C41.1538 26.9853 43.7424 25.4063 45.3197 24.1953C45.9096 23.7442 46.7524 23.851 47.1979 24.4328C47.6554 25.0145 47.5471 25.8456 46.9571 26.2849C45.1632 27.6502 42.2133 29.4547 38.3605 30.2977C38.2642 30.3214 38.1679 30.3333 38.0716 30.3333Z" fill="#23295B"/>
</g>
<path id="Vector_4" d="M46.9929 50.3737C46.6438 50.3737 46.3066 50.2431 46.0418 49.9819L39.3114 43.3453C38.7816 42.823 38.7816 41.9919 39.3114 41.4695C39.8411 40.9471 40.6839 40.9471 41.2137 41.4695L46.9929 47.1682L57.7206 36.59C58.2504 36.0676 59.0932 36.0676 59.6229 36.59C60.1527 37.1124 60.1527 37.9435 59.6229 38.4658L47.9441 49.9819C47.6792 50.2431 47.3421 50.3737 46.9929 50.3737Z" fill="#23295B"/>
</g>
<g id="Group_3">
<path id="Vector_5" d="M80.8001 100C80.1982 100 79.6443 99.5967 79.4998 98.9912C75.2376 81.5509 78.2958 72.065 81.5346 62.0092C83.2202 56.7616 84.966 51.3479 85.9292 44.3551C87.3981 33.6226 84.7613 23.4837 78.5125 15.7786C72.3721 8.21598 63.4384 3.74014 52.6746 2.83785C47.4131 2.39858 29.3771 1.81684 18.517 13.1192C12.208 19.6846 9.83613 28.9212 11.4856 40.5797C12.0395 44.5332 9.06557 48.8072 6.4288 52.5826C4.34587 55.5744 2.19071 58.6731 2.80475 60.2639C3.16595 61.2019 3.73183 61.3087 5.6462 61.2256C7.25956 61.1544 9.95653 61.0356 10.5104 64.0631C10.7632 65.4402 10.5104 66.485 10.3057 67.3992C10.101 68.2896 9.93245 68.9901 10.1973 69.9992C10.6669 71.7682 11.4856 72.7179 12.2923 73.6321C13.0629 74.5225 13.8575 75.4367 14.1706 76.8732C14.315 77.5262 14.0983 78.2623 13.7853 79.3902C13.2073 81.4322 12.3284 84.519 14.0863 86.2404C16.0127 88.1281 21.7558 89.4222 38.1904 84.8514C38.9008 84.6496 39.6473 85.0651 39.852 85.7655C40.0566 86.466 39.6352 87.2021 38.9249 87.4039C24.525 91.4167 15.7719 91.6542 12.196 88.1281C9.33045 85.3025 10.5104 81.1591 11.2087 78.6897C11.3411 78.2029 11.5217 77.5974 11.5458 77.36C11.3652 76.6239 10.9077 76.1015 10.2816 75.3773C9.37861 74.3444 8.25889 73.0504 7.63281 70.6878C7.19936 69.0494 7.47628 67.8622 7.71709 66.8174C7.90973 66.022 8.05421 65.3928 7.89769 64.5498C7.78933 63.9562 7.75321 63.79 5.79068 63.885C4.15323 63.9562 1.42014 64.0749 0.324499 61.2137C-0.783185 58.3169 1.66094 54.8146 4.24955 51.0986C6.59736 47.7268 9.27025 43.8921 8.86089 40.9597C7.091 28.47 9.70369 18.4855 16.6026 11.3028C28.2333 -0.866294 47.3168 -0.272682 52.8913 0.190336C64.2331 1.15199 74.0818 6.09085 80.5955 14.1165C87.3138 22.3796 90.1553 33.2427 88.578 44.6994C87.5907 51.9178 85.8088 57.4502 84.0871 62.8046C80.8363 72.9079 78.0189 81.6459 82.1005 98.362C82.269 99.0743 81.8356 99.7867 81.1132 99.9648C81.0048 99.9885 80.8965 100 80.8001 100Z" fill="#23295B"/>
<path id="Vector_6" d="M30.3756 100.001C30.3034 100.001 30.2191 100.001 30.1469 99.977C29.4124 99.8583 28.9308 99.1697 29.0512 98.4455C29.0512 98.4099 29.7495 94.2427 28.9549 88.2591C28.8586 87.5349 29.3763 86.87 30.1107 86.775C30.8452 86.6801 31.5194 87.1906 31.6157 87.9148C32.4706 94.3377 31.7241 98.7067 31.688 98.8966C31.5796 99.5377 31.0137 100.001 30.3636 100.001H30.3756Z" fill="#23295B"/>
</g>
</g>
<defs>
<clipPath id="clip0_288_550">
<rect width="89" height="100" fill="white"/>
</clipPath>
</defs>
</svg>
