<svg width="96" height="96" viewBox="0 0 96 96" fill="none" xmlns="http://www.w3.org/2000/svg">
<g id="_?&#235;&#141;&#137;&#236;&#148;&#160;??1" clip-path="url(#clip0_288_530)">
<path id="Vector" d="M61.6518 96.0002H11.083C4.56555 96.0002 0 91.4459 0 84.9172C0 79.8805 4.09441 75.7861 9.11989 75.7861H59.6887C60.4066 75.7861 61.0012 76.3695 61.0012 77.0986C61.0012 77.8277 60.4179 78.411 59.6887 78.411C56.0991 78.411 53.1825 81.3276 53.1825 84.9285C53.1825 89.595 56.9741 93.3977 61.6518 93.3977C62.3697 93.3977 62.9642 93.981 62.9642 94.7102C62.9642 95.4393 62.3809 96.0226 61.6518 96.0226V96.0002ZM9.11989 78.3998C5.53026 78.3998 2.61369 81.3164 2.61369 84.9172C2.61369 90.0549 5.9341 93.3865 11.083 93.3865H54.5062C52.0944 91.3561 50.5688 88.3162 50.5688 84.9172C50.5688 82.3708 51.6233 80.06 53.3059 78.3998H9.11989Z" fill="#23295B"/>
<path id="Vector_2" d="M65.9488 84.6587C65.2309 84.6587 64.6364 84.0754 64.6364 83.3463C64.6364 80.6204 62.4153 78.3993 59.6894 78.3993C58.9715 78.3993 58.377 77.816 58.377 77.0869C58.377 76.3577 58.9603 75.7744 59.6894 75.7744C63.8623 75.7744 67.2501 79.1621 67.2501 83.3351C67.2501 84.053 66.6667 84.6475 65.9376 84.6475L65.9488 84.6587Z" fill="#23295B"/>
<path id="Vector_3" d="M61.6523 95.9998C60.9344 95.9998 60.3398 95.4165 60.3398 94.6874C60.3398 93.9582 60.9232 93.3749 61.6523 93.3749C67.6649 93.3749 72.567 88.484 72.567 82.4714V49.1552C72.567 48.4373 73.1503 47.8428 73.8795 47.8428C74.6086 47.8428 75.1919 48.4261 75.1919 49.1552V82.4714C75.1919 89.9311 69.1232 95.9886 61.6635 95.9886L61.6523 95.9998Z" fill="#23295B"/>
<path id="Vector_4" d="M10.2304 77.9618C9.5125 77.9618 8.91797 77.3785 8.91797 76.6493V16.9831C8.91797 11.7108 13.2143 7.40324 18.4866 7.39203L47.9888 7.33594C48.7067 7.33594 49.29 7.91925 49.3012 8.63718C49.3012 9.3551 48.7179 9.94963 48 9.94963L18.4978 10.0057C14.6614 10.0057 11.5429 13.1466 11.5429 16.9831V76.6493C11.5429 77.3672 10.9596 77.9618 10.2304 77.9618Z" fill="#23295B"/>
<g id="Group">
<path id="Vector_5" d="M47.1813 36.9843H38.8691C38.1512 36.9843 37.5566 36.401 37.5566 35.6718C37.5566 34.9427 38.14 34.3594 38.8691 34.3594H47.1813C47.8992 34.3594 48.4938 34.9427 48.4938 35.6718C48.4938 36.401 47.9105 36.9843 47.1813 36.9843Z" fill="#23295B"/>
<path id="Vector_6" d="M43.9619 29.1776H38.8691C38.1512 29.1776 37.5566 28.5943 37.5566 27.8652C37.5566 27.136 38.14 26.5527 38.8691 26.5527H43.9619C44.6798 26.5527 45.2743 27.136 45.2743 27.8652C45.2743 28.5943 44.691 29.1776 43.9619 29.1776Z" fill="#23295B"/>
<path id="Vector_7" d="M21.92 35.1674C21.92 35.1674 21.8976 35.1674 21.8864 35.1674C21.4825 35.1674 21.1124 34.9655 20.8768 34.6402L18.5211 31.4768C18.0948 30.8935 18.207 30.0746 18.7903 29.6483C19.3736 29.2221 20.1925 29.3342 20.6188 29.9176L21.9761 31.746L28.4711 23.9498C28.931 23.4001 29.7611 23.3216 30.3108 23.7815C30.8604 24.2415 30.939 25.0716 30.479 25.6212L22.9184 34.685C22.6716 34.9879 22.3014 35.1562 21.9088 35.1562L21.92 35.1674Z" fill="#23295B"/>
<path id="Vector_8" d="M62.8747 63.2109H38.8691C38.1512 63.2109 37.5566 62.6275 37.5566 61.8984C37.5566 61.1693 38.14 60.5859 38.8691 60.5859H62.8747C63.5926 60.5859 64.1872 61.1693 64.1872 61.8984C64.1872 62.6275 63.6038 63.2109 62.8747 63.2109Z" fill="#23295B"/>
<path id="Vector_9" d="M62.8747 55.3925H38.8691C38.1512 55.3925 37.5566 54.8092 37.5566 54.08C37.5566 53.3509 38.14 52.7676 38.8691 52.7676H62.8747C63.5926 52.7676 64.1872 53.3509 64.1872 54.08C64.1872 54.8092 63.6038 55.3925 62.8747 55.3925Z" fill="#23295B"/>
<path id="Vector_10" d="M21.92 61.8314C21.92 61.8314 21.8976 61.8314 21.8864 61.8314C21.4825 61.8314 21.1124 61.6295 20.8768 61.3042L18.5211 58.1409C18.0948 57.5576 18.207 56.7387 18.7903 56.3124C19.3736 55.8861 20.1925 55.9983 20.6188 56.5816L21.9761 58.4101L28.4711 50.6139C28.931 50.0642 29.7611 49.9857 30.3108 50.4456C30.8604 50.9055 30.939 51.7356 30.479 52.2853L22.9184 61.3491C22.6716 61.652 22.3014 61.8202 21.9088 61.8202L21.92 61.8314Z" fill="#23295B"/>
</g>
<g id="Group_2">
<g id="Group_3">
<path id="Vector_11" d="M87.8098 38.4975C87.0919 38.4975 86.4974 37.9142 86.4974 37.1851V36.6242C86.4974 34.6274 85.6224 32.7541 84.108 31.4977C81.3149 29.1757 77.7701 27.9081 74.1356 27.9081C70.5011 27.9081 66.9676 29.1869 64.1744 31.4977C62.66 32.7541 61.7851 34.6274 61.7851 36.6242V37.1851C61.7851 37.903 61.2018 38.4975 60.4726 38.4975C59.7435 38.4975 59.1602 37.9142 59.1602 37.1851V36.6242C59.1602 33.8422 60.3717 31.2397 62.4918 29.4786C65.7561 26.7751 69.8842 25.2832 74.1244 25.2832C78.3646 25.2832 82.5039 26.7751 85.757 29.4786C87.8771 31.2397 89.0999 33.8422 89.0999 36.6242V37.1851C89.0999 37.903 88.5165 38.4975 87.7874 38.4975H87.8098Z" fill="#23295B"/>
<path id="Vector_12" d="M74.135 27.9085C70.0181 27.9085 66.6641 23.4775 66.6641 18.037V16.9825C66.6641 13.3032 70.0181 10.2969 74.135 10.2969C78.2518 10.2969 81.6059 13.292 81.6059 16.9825V18.037C81.6059 23.4775 78.2518 27.9085 74.135 27.9085ZM74.135 12.9106C71.454 12.9106 69.2778 14.739 69.2778 16.9713V18.0258C69.2778 21.9632 71.4988 25.2836 74.135 25.2836C76.7711 25.2836 78.9922 21.9632 78.9922 18.0258V16.9713C78.9922 14.7278 76.816 12.9106 74.135 12.9106Z" fill="#23295B"/>
</g>
<path id="Vector_13" d="M94.137 27.9088C94.036 27.9088 93.9351 27.8976 93.8341 27.8752C93.1274 27.7069 92.7011 27.0002 92.8694 26.3047C93.2171 24.8577 93.3854 23.3657 93.3854 21.8626C93.3854 11.2507 84.7591 2.62444 74.1473 2.62444C63.5354 2.62444 54.9091 11.2507 54.9091 21.8626C54.9091 23.3657 55.0886 24.8689 55.4251 26.3047C55.5934 27.0114 55.1559 27.7069 54.4604 27.8752C53.7537 28.0435 53.0582 27.606 52.89 26.9105C52.4973 25.2727 52.3066 23.5676 52.3066 21.8626C52.3066 9.8149 62.1108 0.0107422 74.1585 0.0107422C86.2061 0.0107422 96.0103 9.8149 96.0103 21.8626C96.0103 23.5676 95.8084 25.2727 95.427 26.9105C95.2812 27.5162 94.7427 27.9201 94.1594 27.9201L94.137 27.9088Z" fill="#23295B"/>
<path id="Vector_14" d="M74.1482 43.7035C68.775 43.7035 63.6149 41.7404 59.6103 38.1732C58.0174 36.7486 56.6488 35.122 55.5383 33.3272C55.1569 32.7103 55.3476 31.9026 55.9645 31.5324C56.5815 31.151 57.3892 31.3417 57.7594 31.9587C58.7353 33.5404 59.9356 34.9762 61.3378 36.2326C64.8601 39.3735 69.4032 41.101 74.1258 41.101C78.8484 41.101 83.3915 39.3735 86.9138 36.2326C88.316 34.9762 89.5163 33.5404 90.4922 31.9587C90.8736 31.3417 91.6813 31.151 92.287 31.5324C92.904 31.9138 93.0947 32.7215 92.7133 33.3272C91.6028 35.122 90.2342 36.7598 88.6413 38.1732C84.6367 41.7404 79.4766 43.7035 74.1034 43.7035H74.1482Z" fill="#23295B"/>
</g>
</g>
<defs>
<clipPath id="clip0_288_530">
<rect width="96" height="96" fill="white"/>
</clipPath>
</defs>
</svg>
