<svg width="91" height="82" viewBox="0 0 91 82" fill="none" xmlns="http://www.w3.org/2000/svg">
<g id="_?&#235;&#141;&#137;&#236;&#148;&#160;??1" clip-path="url(#clip0_288_516)">
<path id="Vector" d="M45.1596 53.0503C44.4396 53.0503 43.8496 52.4703 43.8496 51.7403V29.3803C43.8496 28.6603 44.4296 28.0703 45.1596 28.0703C45.8896 28.0703 46.4696 28.6503 46.4696 29.3803V51.7403C46.4696 52.4603 45.8896 53.0503 45.1596 53.0503Z" fill="#23295B"/>
<g id="Group">
<path id="Vector_2" d="M1.31 53.0503C0.59 53.0503 0 52.4703 0 51.7403V29.3803C0 28.6603 0.58 28.0703 1.31 28.0703C2.04 28.0703 2.62 28.6503 2.62 29.3803V51.7403C2.62 52.4603 2.04 53.0503 1.31 53.0503Z" fill="#23295B"/>
<path id="Vector_3" d="M12.2709 66.2104C11.5509 66.2104 10.9609 65.6304 10.9609 64.9004V16.2104C10.9609 15.4904 11.5409 14.9004 12.2709 14.9004C13.0009 14.9004 13.5809 15.4804 13.5809 16.2104V64.9004C13.5809 65.6204 13.0009 66.2104 12.2709 66.2104Z" fill="#23295B"/>
<path id="Vector_4" d="M34.1909 61.7401C33.4709 61.7401 32.8809 61.1601 32.8809 60.4301V20.6801C32.8809 19.9601 33.4609 19.3701 34.1909 19.3701C34.9209 19.3701 35.5009 19.9501 35.5009 20.6801V60.4301C35.5009 61.1501 34.9209 61.7401 34.1909 61.7401Z" fill="#23295B"/>
<path id="Vector_5" d="M23.2299 81.12C22.5099 81.12 21.9199 80.54 21.9199 79.81V1.31C21.9199 0.59 22.4999 0 23.2299 0C23.9599 0 24.5399 0.58 24.5399 1.31V79.82C24.5399 80.54 23.9599 81.13 23.2299 81.13V81.12Z" fill="#23295B"/>
</g>
<g id="Group_2">
<path id="Vector_6" d="M89.0112 53.0503C88.2912 53.0503 87.7012 52.4703 87.7012 51.7403V29.3803C87.7012 28.6603 88.2812 28.0703 89.0112 28.0703C89.7412 28.0703 90.3212 28.6503 90.3212 29.3803V51.7403C90.3212 52.4603 89.7412 53.0503 89.0112 53.0503Z" fill="#23295B"/>
<path id="Vector_7" d="M78.0405 66.2104C77.3205 66.2104 76.7305 65.6304 76.7305 64.9004V16.2104C76.7305 15.4904 77.3105 14.9004 78.0405 14.9004C78.7705 14.9004 79.3505 15.4804 79.3505 16.2104V64.9004C79.3505 65.6204 78.7705 66.2104 78.0405 66.2104Z" fill="#23295B"/>
<path id="Vector_8" d="M56.1205 61.7401C55.4005 61.7401 54.8105 61.1601 54.8105 60.4301V20.6801C54.8105 19.9601 55.3905 19.3701 56.1205 19.3701C56.8505 19.3701 57.4305 19.9501 57.4305 20.6801V60.4301C57.4305 61.1501 56.8505 61.7401 56.1205 61.7401Z" fill="#23295B"/>
<path id="Vector_9" d="M67.0815 81.12C66.3615 81.12 65.7715 80.54 65.7715 79.81V1.31C65.7715 0.59 66.3515 0 67.0815 0C67.8115 0 68.3915 0.58 68.3915 1.31V79.82C68.3915 80.54 67.8115 81.13 67.0815 81.13V81.12Z" fill="#23295B"/>
</g>
</g>
<defs>
<clipPath id="clip0_288_516">
<rect width="90.31" height="81.12" fill="white"/>
</clipPath>
</defs>
</svg>
