<svg width="100" height="82" viewBox="0 0 100 82" fill="none" xmlns="http://www.w3.org/2000/svg">
<g id="_?&#235;&#141;&#137;&#236;&#148;&#160;??1" clip-path="url(#clip0_288_668)">
<path id="Vector" d="M15.5329 25.8388C15.9272 21.938 20.0378 15.5559 22.5241 12.5962C29.2524 4.59492 38.2463 0.925472 48.3914 0.0370242C61.6063 -0.583312 74.6477 6.85546 81.2026 18.2791C82.4484 20.4503 83.2421 22.7687 84.3513 24.9924C87.605 22.4007 88.3725 25.7021 90.1544 28.4673L98.4177 41.4313C99.3481 42.8507 100.957 44.2544 99.243 45.4845C96.0733 47.7503 92.4148 50.0214 89.1031 52.1558C86.559 53.796 86.0807 54.9052 84.3513 52.1242C82.3538 56.9607 80.1566 59.8101 77.707 64.1104C80.083 67.2909 77.255 71.5544 73.1181 71.4545C72.4242 75.2133 69.6277 76.9271 65.9482 76.0229C64.5762 79.0773 61.1542 79.7134 58.2001 78.8197C56.3761 81.9109 53.0592 82.9307 49.9263 81.0592C49.3481 80.6912 48.8698 80.2706 48.3914 79.787C46.1259 82.0475 42.7301 81.2958 40.7274 79.1141C38.3042 80.4231 35.0767 79.5031 33.9255 76.9166C31.1395 77.7946 28.5218 76.0229 27.5493 73.3944C24.1378 73.0159 21.9722 70.7764 21.6305 67.3487C18.3872 65.9083 17.2833 62.5648 18.7236 59.4105C18.0561 57.0133 16.5369 53.9274 15.5277 51.6301C15.1177 52.3871 14.6393 53.5594 13.9612 54.1009C13.1254 54.7633 9.11997 51.4723 8.3315 50.9414C5.91875 49.3274 2.891 47.4244 0.614926 45.658C-0.851642 44.5225 0.625439 43.2082 1.4402 41.915L9.64037 28.8669C12.5998 24.1408 11.3435 23.7885 15.5224 25.8388H15.5329ZM49.1116 2.52363C43.7131 3.53824 40.3647 10.3251 39.0506 15.1091C41.9417 16.2604 47.9919 16.7335 50.9566 16.5916C54.3418 16.4602 57.5483 15.9082 60.8389 15.1091C59.3145 9.86777 55.5876 2.10306 49.1116 2.52363ZM42.6513 3.38053C37.4736 4.37938 32.8269 6.78186 28.7268 10.0465C29.6677 10.6563 30.5981 11.2924 31.6021 11.7919C33.116 12.817 34.9505 13.7054 36.6694 14.331C37.6997 11.2241 40.0125 5.61479 42.6618 3.44361V3.37527L42.6513 3.38053ZM57.1015 3.38053C59.714 5.92496 62.3738 10.7667 63.1254 14.3363C64.9757 13.5582 66.7209 12.6225 68.5396 11.7971C69.3597 11.1873 70.206 10.6195 71.0523 10.0518C66.7472 7.02895 62.3843 4.36886 57.1015 3.38579V3.38053ZM26.8975 11.7971C22.5188 15.251 19.0233 22.0484 17.4989 27.2214C21.1732 29.8184 21.8828 28.9037 26.5926 28.8984H34.3145C34.3197 24.1355 34.9926 21.0916 35.8756 16.5968C31.8229 15.3982 30.1145 13.4689 26.8975 11.7971ZM72.9078 11.7971C70.7264 13.6161 66.6526 15.7242 63.956 16.5968C64.776 20.6395 65.7064 24.7453 65.5592 28.8984H73.1181C74.879 28.8984 76.6505 28.8616 78.4166 28.8984C79.5994 27.9995 80.8241 27.1688 82.0647 26.3487C81.3077 21.8119 76.0617 14.8147 72.9131 11.7971H72.9078ZM38.4356 17.4485C37.2686 19.8457 36.601 26.2015 36.785 28.8984C39.2819 28.8984 62.9625 28.9773 63.1254 28.8984C63.0256 24.9924 62.5315 21.2283 61.538 17.4485C54.2419 19.1413 45.5529 20.1296 38.4356 17.4485ZM86.0859 26.7851C84.0727 27.9889 77.4389 32.0474 75.883 33.6613C76.251 35.1596 85.0661 48.8017 86.5853 50.7363L86.6957 50.7784C89.8075 48.8123 93.8971 45.6317 97.0773 44.0704C96.641 43.1399 96.0365 42.2724 95.4846 41.405L87.6418 29.1297C87.1898 28.4253 86.6589 27.3633 86.0912 26.7851H86.0859ZM13.3778 27.5631C9.97679 33.1146 6.21312 38.6188 2.93305 44.1965C5.5508 46.047 10.3132 49.7007 13.0834 51.0781C15.4909 47.4454 17.7354 43.6919 20.0483 39.9961L22.1351 36.6947C22.6135 35.9482 23.1654 35.1911 23.5544 34.3921C20.7264 32.2262 16.4265 29.34 13.3725 27.5631H13.3778ZM23.5596 31.3745C25.473 32.7834 25.7516 32.2419 26.5926 34.3921C28.5901 36.416 31.6967 36.4266 34.3145 35.9534C34.5773 35.7484 34.2934 31.9318 34.3145 31.3745H26.9396C25.8357 31.3745 24.653 31.2694 23.5596 31.3745ZM36.785 31.3745C36.7377 32.7519 36.8061 34.145 36.948 35.5171C38.9875 35.3173 40.7116 35.0807 42.6513 35.9482C43.1612 35.3962 43.9286 35.0492 44.591 34.7128C49.5741 32.1631 54.7203 31.527 60.1502 32.7361C61.17 32.9832 62.1477 33.2828 63.1307 33.6613C63.1465 32.8991 63.1622 32.1368 63.1307 31.3745H36.7903H36.785ZM65.5592 31.3745C65.5592 32.4312 65.5907 33.5194 65.4541 34.5708C67.9719 35.1754 70.8946 35.6958 72.9131 33.6613C72.7238 32.3418 73.5228 32.0369 74.4953 31.3745C71.5201 31.3745 68.5344 31.3114 65.5645 31.3745H65.5592ZM54.3471 34.5708C45.7684 35.0492 41.8471 40.2432 35.0136 44.0704C39.8338 48.7019 45.863 40.0224 50.5939 42.325C52.4337 43.2187 54.9726 45.4845 56.6547 46.8356L64.7918 53.3439C65.8746 54.2165 66.9206 55.1418 68.0193 55.9934C70.6685 58.0858 73.239 60.2727 75.8778 62.3808C78.5323 58.2592 81.0607 54.0746 82.727 49.4378C80.5823 46.2889 78.6164 42.9927 76.6084 39.749C75.8147 38.4716 74.8738 37.294 74.1799 35.9534C68.0613 40.5534 61.5117 34.0241 54.3523 34.5708H54.3471ZM25.0525 36.5317C22.7133 40.6848 19.8801 45.1849 17.2203 49.1908C18.2085 51.6721 19.4701 54.9105 20.6423 57.2867C23.5333 54.8369 27.3286 55.5571 28.9423 59.1056C31.9806 56.5349 35.7022 58.1068 36.7903 61.8078C40.1545 61.2085 42.0626 63.7739 42.2623 66.7862C44.6278 67.7272 46.1732 69.8301 45.7106 72.4113C48.034 73.468 49.1168 74.9294 49.4059 77.395C51.6452 79.3244 54.2787 81.0908 56.0239 77.395C54.5836 75.7601 49.3954 72.1485 47.5188 70.9078C48.055 70.2349 48.5386 69.4726 49.1168 68.8417L55.8346 73.8833C58.3262 75.7653 61.948 79.0668 63.9612 74.3407C63.0413 73.4943 61.9848 72.8161 60.9965 72.0538C57.9373 69.7039 54.1736 67.0964 51.3246 64.6413C51.7819 63.9421 52.2444 63.243 52.7701 62.5911C56.0659 65.1197 59.325 67.701 62.6524 70.1876C63.7457 71.0182 65.9377 72.9633 67.0521 73.4837C69.3649 74.5667 70.6948 72.4796 70.6317 70.4346C65.822 66.4918 60.5971 62.5122 55.6139 58.7587C56.0975 58.0805 56.5968 57.4181 57.112 56.761C58.1685 57.6179 59.2672 58.4169 60.3395 59.2528L70.3058 67.0175C71.2257 67.743 72.5188 69.194 73.8119 69.052C75.657 68.847 76.8187 66.5917 75.4257 65.2038C74.5636 64.3417 73.486 63.6057 72.5346 62.8382L55.7558 49.2644C54.0842 47.9185 52.4232 46.5307 50.699 45.2585C48.5018 43.6393 47.7922 44.5014 45.6107 45.5634C42.3885 47.13 37.8048 49.175 34.4669 46.8251C33.4419 46.1049 31.5495 44.144 32.5535 42.7824C32.8532 42.3828 38.7142 38.9079 40.0283 37.7829C35.4972 37.457 32.0226 40.0329 27.1814 37.8617C26.4139 37.52 25.7936 36.9365 25.0682 36.5317H25.0525ZM23.9276 58.2645C22.687 58.5011 21.5411 59.8994 20.8473 60.872C19.817 62.323 21.5516 65.3773 22.9867 65.1302L23.1338 65.0093C24.0537 64.0052 26.0197 62.202 26.6925 61.2295C27.5073 60.0624 25.5256 58.233 23.9223 58.2645H23.9276ZM31.5968 60.3884C30.1934 60.9614 24.5794 66.7547 24.2745 67.559C23.7226 69.0047 26.0828 70.524 27.1235 70.913C27.9225 70.8552 27.9698 69.8038 28.4377 69.2465C30.0462 67.3277 33.1265 65.0041 34.2041 63.0432C35.0609 61.4871 33.1055 60.2937 31.5968 60.3884ZM37.5735 64.1051C35.3027 64.5835 33.8309 67.17 32.338 68.7629C31.3077 69.8669 29.5047 70.913 29.9778 72.6531C30.2669 73.7045 31.1448 74.4878 32.2224 74.6088C34.2093 74.2933 38.0886 69.1151 39.2556 67.5012C40.2543 66.1238 39.3502 64.1261 37.5788 64.1051H37.5735ZM41.0954 69.1624C39.8653 70.6817 37.1162 73.4101 36.2962 74.8033C35.4604 76.2227 37.1267 77.4476 38.4356 77.395C39.6025 77.0375 46.7987 70.3558 41.0901 69.1572L41.0954 69.1624ZM44.2966 74.6088C43.629 75.4814 42.9772 76.3594 42.2571 77.19C42.9772 78.1941 43.8393 78.6041 45.0167 78.8197C48.3967 78.0784 46.7146 74.9347 44.2966 74.6088Z" fill="#23295B"/>
</g>
<defs>
<clipPath id="clip0_288_668">
<rect width="100" height="82" fill="white"/>
</clipPath>
</defs>
</svg>
