<svg width="99" height="88" viewBox="0 0 99 88" fill="none" xmlns="http://www.w3.org/2000/svg">
<g id="_?&#235;&#141;&#137;&#236;&#148;&#160;??1" clip-path="url(#clip0_288_562)">
<g id="Group">
<path id="Vector" d="M20.4706 61.5835C16.6164 61.5835 13.2119 60.8948 10.3212 59.5173C6.8845 57.8855 4.24008 55.3424 2.44144 51.9517C-1.4449 44.6405 -0.331458 34.659 3.25511 30.6113C3.73689 30.0709 4.57197 30.0179 5.12869 30.4948C5.67471 30.9716 5.72824 31.7981 5.24646 32.3491C2.63415 35.2948 1.1567 43.9199 4.78609 50.7438C7.13075 55.1623 12.4303 60.1213 24.3677 58.7332C25.0957 58.6484 25.7488 59.1676 25.8344 59.8775C25.9201 60.5875 25.3955 61.2444 24.6782 61.3292C23.2221 61.4987 21.8196 61.5835 20.4706 61.5835Z" fill="#23295B"/>
<path id="Vector_2" d="M5.94299 34.5534C5.6111 34.5534 5.2685 34.4263 5.01155 34.172C1.20015 30.4316 1.16803 24.3283 4.94731 20.5561C7.08855 18.4157 10.0649 17.3985 13.084 17.7799C13.812 17.8753 14.3259 18.5322 14.2296 19.2422C14.1332 19.9627 13.4694 20.4713 12.7521 20.3759C10.5466 20.1004 8.384 20.8316 6.8316 22.3998C4.08011 25.1441 4.10153 29.5839 6.87442 32.3071C7.39903 32.8157 7.39903 33.6422 6.87442 34.1614C6.61748 34.4157 6.27488 34.5534 5.93228 34.5534H5.94299Z" fill="#23295B"/>
<path id="Vector_3" d="M65.6076 12.9801C65.5005 12.9801 65.3934 12.9695 65.2864 12.9377C64.5798 12.7576 64.1515 12.0477 64.3228 11.3483C65.2757 7.59732 62.9738 3.78276 59.1839 2.83971C57.2889 2.36289 55.3296 2.68077 53.6809 3.70858C53.0599 4.09004 52.2463 3.90991 51.8501 3.29534C51.4647 2.68077 51.6467 1.87547 52.2677 1.48342C54.5374 0.0635505 57.2246 -0.360291 59.8369 0.286067C65.0401 1.57878 68.2092 6.82381 66.8923 11.9735C66.7424 12.5669 66.1964 12.9695 65.6076 12.9695V12.9801Z" fill="#23295B"/>
<path id="Vector_4" d="M30.1713 27.9414C28.4905 27.9414 27.0344 27.5705 26.3385 27.348C25.6426 27.1361 25.2465 26.3943 25.4713 25.7056C25.6854 25.0169 26.4349 24.6248 27.1308 24.8473C28.6403 25.3135 32.3661 26.1188 34.4966 23.4804C34.957 22.9188 35.7921 22.8235 36.3595 23.2791C36.9269 23.7347 37.0233 24.5612 36.5629 25.1228C34.7536 27.348 32.2804 27.9414 30.1713 27.9414Z" fill="#23295B"/>
<path id="Vector_5" d="M54.7088 56.7099C54.4947 56.7099 54.2698 56.7099 54.045 56.6782C53.317 56.6146 52.771 55.9894 52.8352 55.2689C52.8995 54.5483 53.5418 54.0079 54.2591 54.0715C55.6509 54.1775 57.0106 53.7536 58.0812 52.853C59.1519 51.9523 59.8049 50.702 59.912 49.3245C59.9762 48.604 60.6186 48.0636 61.3359 48.1272C62.0639 48.1907 62.61 48.8159 62.5457 49.5364C62.3744 51.6132 61.3894 53.4993 59.7835 54.8556C58.3489 56.0636 56.561 56.7099 54.6981 56.7099H54.7088Z" fill="#23295B"/>
<path id="Vector_6" d="M21.6704 37.3298C21.1565 37.3298 20.6533 37.0225 20.4499 36.5245C20.1715 35.857 20.4927 35.0835 21.1672 34.808C22.6875 34.1828 23.9401 33.049 24.7109 31.608C25.5995 29.955 25.7708 28.0477 25.2141 26.257C24.6574 24.4663 23.4262 22.9934 21.7453 22.1245C21.1029 21.7855 20.846 20.9908 21.1886 20.355C21.5312 19.7192 22.3341 19.4649 22.9765 19.804C25.2783 21.0119 26.9699 23.0252 27.7301 25.4835C28.4902 27.9417 28.2547 30.559 27.0342 32.8265C25.9742 34.808 24.2506 36.3656 22.1629 37.2239C21.9916 37.2874 21.8203 37.3298 21.6597 37.3298H21.6704Z" fill="#23295B"/>
<path id="Vector_7" d="M79.3116 44.556C78.1661 44.556 77.0312 44.2593 76.0034 43.6871C74.4296 42.8076 73.3054 41.3772 72.8237 39.6606C72.4061 38.1666 72.5239 36.5666 73.1556 35.1573C73.4553 34.5003 74.2369 34.2036 74.9007 34.4897C75.5645 34.7864 75.8642 35.5599 75.5752 36.2169C75.1897 37.0752 75.1148 38.05 75.3717 38.9507C75.6608 39.9891 76.346 40.858 77.2989 41.3983C78.2517 41.9282 79.3544 42.0659 80.4144 41.7798C81.121 41.5891 81.849 41.9917 82.0417 42.6911C82.2344 43.3904 81.8276 44.1109 81.121 44.3017C80.5214 44.4712 79.9112 44.5454 79.3009 44.5454L79.3116 44.556Z" fill="#23295B"/>
<path id="Vector_8" d="M73.5413 36.948C72.2245 36.948 70.8969 36.5666 69.7299 35.7719C68.4452 34.8924 67.4924 33.5891 67.0641 32.1057C66.8607 31.4063 67.2675 30.6858 67.9741 30.4845C68.6807 30.2831 69.4088 30.6858 69.6122 31.3851C69.8691 32.2858 70.4473 33.0805 71.2288 33.6103C73.0917 34.8712 75.6505 34.405 76.9245 32.5613C77.342 31.9679 78.1664 31.809 78.766 32.2222C79.3655 32.6355 79.5261 33.4514 79.1086 34.0447C77.8024 35.9308 75.6826 36.9374 73.5413 36.9374V36.948Z" fill="#23295B"/>
<path id="Vector_9" d="M91.2708 42.4901C90.7676 42.4901 90.2965 42.2146 90.0717 41.7272C89.7612 41.0703 90.0503 40.2862 90.714 39.9895C92.427 39.2054 93.7332 37.7961 94.3756 36.0372C95.0179 34.2782 94.943 32.3815 94.14 30.6756C92.4913 27.1683 88.273 25.6531 84.74 27.2742C84.0762 27.5815 83.284 27.2954 82.9842 26.6385C82.6737 25.9815 82.9628 25.1974 83.6266 24.9007C88.4872 22.665 94.2899 24.7524 96.5489 29.5736C97.6409 31.9047 97.7587 34.5219 96.8701 36.9378C95.9815 39.3537 94.1935 41.2822 91.8382 42.363C91.6562 42.4478 91.4635 42.4901 91.2815 42.4901H91.2708Z" fill="#23295B"/>
<path id="Vector_10" d="M84.3655 61.3404C83.1128 61.3404 81.8602 61.1814 80.629 60.8636C79.9224 60.6834 79.4941 59.9629 79.6869 59.2636C79.8689 58.5642 80.5969 58.1404 81.3035 58.3311C84.6759 59.2106 88.2518 58.596 91.121 56.6569C93.7655 54.8662 95.5427 52.1748 96.1422 49.0596C96.7418 45.9444 96.0673 42.7867 94.258 40.1695C93.8404 39.5761 94.001 38.7602 94.6006 38.347C95.2001 37.9338 96.0245 38.0927 96.442 38.6861C98.6475 41.8755 99.4612 45.7324 98.7438 49.5364C98.0265 53.3404 95.8425 56.6357 92.6199 58.8185C90.1682 60.4821 87.2775 61.3404 84.3655 61.3404Z" fill="#23295B"/>
<path id="Vector_11" d="M87.663 26.0239C87.0099 26.0239 86.4425 25.5471 86.3568 24.8901C85.3612 17.5894 79.5798 12.9908 76.2181 10.9033C71.4431 7.93646 66.8716 6.96163 65.8545 7.29011C65.1586 7.51262 64.4092 7.14176 64.1843 6.45302C63.9595 5.76428 64.3342 5.02256 65.0301 4.80004C67.3213 4.05832 72.9741 5.79607 77.6206 8.68878C81.3785 11.0199 87.845 16.1802 88.9798 24.5404C89.0762 25.261 88.573 25.9179 87.845 26.0133C87.7808 26.0133 87.7272 26.0239 87.663 26.0239Z" fill="#23295B"/>
<path id="Vector_12" d="M39.7089 70.4842C30.887 70.4842 23.7031 64.1371 23.7031 56.3491C23.7031 55.6285 24.292 55.0352 25.0307 55.0352C25.7694 55.0352 26.3583 55.6179 26.3583 56.3491C26.3583 62.6961 32.3537 67.8669 39.7196 67.8669C43.531 67.8669 47.1711 66.4577 49.7084 63.9994C50.233 63.4908 51.0681 63.5014 51.582 64.0206C52.0959 64.5398 52.0852 65.3663 51.5606 65.8749C48.5307 68.81 44.2162 70.4948 39.7196 70.4948L39.7089 70.4842Z" fill="#23295B"/>
<path id="Vector_13" d="M61.1757 67.6342C54.9019 67.6342 50.6836 65.907 50.4374 65.8116C49.7629 65.5256 49.4524 64.7626 49.7308 64.0951C50.0199 63.4275 50.7907 63.1203 51.4652 63.3958C51.5508 63.4275 59.2058 66.5216 68.9484 64.0421C69.655 63.862 70.383 64.2858 70.565 64.9852C70.747 65.6845 70.3188 66.405 69.6121 66.5852C66.5609 67.3587 63.7023 67.6342 61.1864 67.6342H61.1757Z" fill="#23295B"/>
<path id="Vector_14" d="M77.4372 71.4592C76.752 71.4592 76.1739 70.94 76.1204 70.2513C76.0561 69.5308 76.6022 68.895 77.3302 68.842C88.1755 67.9625 90.4774 57.8857 90.5737 57.4619C90.7236 56.7519 91.4302 56.3069 92.1475 56.4552C92.8648 56.6036 93.3252 57.3029 93.1753 58.0023C93.1432 58.1294 92.4901 61.1599 90.2525 64.3281C88.1648 67.2844 84.2678 70.9188 77.555 71.4592C77.5229 71.4592 77.4801 71.4592 77.4479 71.4592H77.4372Z" fill="#23295B"/>
<path id="Vector_15" d="M83.3483 87.9999C82.7273 87.9999 82.1706 87.5655 82.0528 86.9297C81.0786 81.8013 75.1795 77.1178 67.0106 74.9986C58.253 72.7311 57.3001 66.7549 57.268 66.5006C57.161 65.7801 57.6749 65.1231 58.3922 65.0171C59.1095 64.9112 59.784 65.4092 59.891 66.1191C59.9232 66.3311 60.7368 70.6542 67.6851 72.4556C76.8389 74.8291 83.4982 80.3178 84.6651 86.4423C84.8043 87.1522 84.3225 87.841 83.6052 87.9681C83.5196 87.9787 83.4446 87.9893 83.359 87.9893L83.3483 87.9999Z" fill="#23295B"/>
<path id="Vector_16" d="M88.872 86.9294H88.8506C88.1226 86.9188 87.5338 86.3149 87.5552 85.5943C87.7265 76.6089 80.7246 71.2473 80.6497 71.1943C80.0716 70.7599 79.9538 69.9334 80.3928 69.3612C80.8317 68.7785 81.6561 68.6619 82.2449 69.0963C82.5768 69.34 90.4137 75.2738 90.2103 85.6367C90.1996 86.3573 89.6108 86.9188 88.8827 86.9188L88.872 86.9294Z" fill="#23295B"/>
<path id="Vector_17" d="M10.6104 20.334C10.6104 20.334 10.589 20.334 10.5783 20.334C9.85027 20.3128 9.27213 19.7089 9.29354 18.9883C9.29354 18.7446 9.50767 13.0016 14.0043 9.14461C17.1733 6.43203 21.5842 5.37243 27.13 6.00819C27.8581 6.09296 28.3827 6.73932 28.297 7.45985C28.2114 8.18038 27.5583 8.69958 26.8303 8.61481C22.0553 8.07442 18.3188 8.9115 15.7387 11.1261C12.12 14.2307 11.9487 19.0201 11.9487 19.0625C11.9273 19.7724 11.3384 20.334 10.6211 20.334H10.6104Z" fill="#23295B"/>
<path id="Vector_18" d="M25.0214 11.3593C24.8394 11.3593 24.6467 11.3169 24.4647 11.2427C23.8009 10.9354 23.5118 10.1619 23.8116 9.50497C23.8652 9.38841 25.2034 6.55927 28.5973 4.06921C31.6807 1.81225 37.1301 -0.603642 45.6308 0.720861C46.3588 0.837418 46.8513 1.50497 46.7335 2.2149C46.6158 2.92483 45.9413 3.42285 45.224 3.30629C30.9098 1.08113 26.4132 10.2043 26.2312 10.5964C26.0064 11.0732 25.5246 11.3487 25.0321 11.3487L25.0214 11.3593Z" fill="#23295B"/>
<path id="Vector_19" d="M64.1938 58.6485C63.5835 58.6485 63.0375 58.2352 62.8983 57.6206C62.3951 55.3849 60.2432 54.7597 60.1468 54.7279C59.4402 54.5478 59.0227 53.8273 59.2047 53.1279C59.3867 52.4286 60.1254 52.0153 60.832 52.1955C60.9819 52.2379 64.622 53.2233 65.4785 57.0485C65.6391 57.7584 65.1895 58.4577 64.4721 58.6167C64.3758 58.6379 64.2794 58.6485 64.1831 58.6485H64.1938Z" fill="#23295B"/>
</g>
<path id="Vector_20" d="M35.8121 54.1567C35.4909 54.1567 35.159 54.0401 34.9127 53.807C34.4417 53.3726 34.356 52.6733 34.6986 52.1435L44.1308 37.3938L39.495 36.0799C39.0346 35.9527 38.692 35.5925 38.5743 35.1368C38.4565 34.6812 38.5957 34.2044 38.9383 33.8759L58.9053 14.8137C59.3656 14.3792 60.0615 14.3262 60.5861 14.6865C61.1 15.0468 61.2928 15.7143 61.0465 16.2865L53.9269 32.3501L60.0187 34.0454C60.5005 34.1832 60.8752 34.5752 60.9609 35.0733C61.0572 35.5607 60.8538 36.0693 60.447 36.366L36.615 53.913C36.3795 54.0825 36.1011 54.1673 35.8228 54.1673L35.8121 54.1567ZM42.4178 34.1832L46.5504 35.3488C46.9465 35.4653 47.2784 35.7514 47.4283 36.1435C47.5781 36.5249 47.5353 36.9593 47.3105 37.309L40.7476 47.566L56.6891 35.8256L51.7214 34.4481C51.3467 34.3421 51.0469 34.0878 50.8864 33.7488C50.7258 33.4097 50.7151 33.007 50.8757 32.6574L55.9183 21.2984L42.4392 34.1726L42.4178 34.1832Z" fill="#23295B"/>
</g>
<defs>
<clipPath id="clip0_288_562">
<rect width="99" height="88" fill="white"/>
</clipPath>
</defs>
</svg>
