<svg width="100" height="15" viewBox="0 0 100 15" fill="none" xmlns="http://www.w3.org/2000/svg">
<g id="Group 80">
<path id="Vector" d="M19.0638 9.1673H26.8662L27.7548 6.27005H19.0638V3.67265H28.3027L29.1953 0.758209H16.1094V11.6425C16.1094 13.2869 17.4608 14.6199 19.1277 14.6199H28.3724L29.265 11.7055H19.0638V9.16539V9.1673Z" fill="#3C3C3C"/>
<path id="Vector_2" d="M10.5051 6.23569H2.93702V0.760132H0V14.6085H2.93702V9.13294H10.5051V14.6085H13.4421V0.760132H10.5051V6.23569Z" fill="#3C3C3C"/>
<path id="Vector_3" d="M47.9146 0.771576V3.66883H55.2581L47.3086 14.5569H60.0169L60.9056 11.6597H53.0452L60.9947 0.771576H47.9146Z" fill="#3C3C3C"/>
<path id="Vector_4" d="M45.2944 5.65891C45.3177 4.38694 44.824 3.1761 43.9043 2.25173C42.9692 1.31208 41.6721 0.773499 40.3458 0.773499H31.9375V14.6219L34.8474 14.6123V10.3667V7.46945V3.67266H40.3458C40.8879 3.67266 41.4223 3.89611 41.8076 4.28381C42.1716 4.6505 42.3671 5.12033 42.3574 5.60734C42.3381 6.63293 41.4746 7.46945 40.433 7.46945H35.7399L34.8455 10.3667H40.2394L42.977 14.6123H46.2876L43.0544 9.59703C44.3729 8.75669 45.2635 7.30711 45.2944 5.66082V5.65891Z" fill="#3C3C3C"/>
<path id="Vector_5" d="M63.7734 14.6085H66.7105V10.9263C66.1258 9.96372 65.7792 8.77961 65.7792 7.50001C65.7792 6.22041 66.1258 5.0363 66.7105 4.07373V0.760132H63.7734V14.6104V14.6085ZM65.3165 4.69061V10.3094C64.7318 9.52064 64.3852 8.54852 64.3852 7.50001C64.3852 6.4515 64.7318 5.47938 65.3165 4.69061Z" fill="#3C3C3C"/>
<path id="Vector_6" d="M97.0613 0.760132V12.2689L88.3316 0.760132H85.3945V4.08519C85.9754 5.04585 86.318 6.22423 86.318 7.50001C86.318 8.77579 85.9734 9.95417 85.3945 10.9148V14.6085H88.3316V4.63141L95.8977 14.6085H99.9983V0.760132H97.0613ZM86.7769 10.3094V4.69061C87.3616 5.47938 87.7081 6.44959 87.7081 7.50001C87.7081 8.55043 87.3616 9.52064 86.7769 10.3094Z" fill="#3C3C3C"/>
<path id="Vector_7" d="M83.4908 5.9874C83.2681 4.9217 82.8189 3.9343 82.1897 3.08442C80.8054 1.21658 78.5693 0 76.0485 0C73.5278 0 71.2916 1.21658 69.9092 3.08442C69.28 3.9343 68.8308 4.91979 68.6082 5.9874V3.08442C67.6886 4.32391 67.1445 5.84989 67.1445 7.5C67.1445 9.15012 67.6886 10.6761 68.6082 11.9156V9.0126C68.8308 10.0783 69.28 11.0657 69.9092 11.9156C71.2935 13.7834 73.5297 15 76.0485 15C78.5673 15 80.8054 13.7834 82.1897 11.9156C82.8189 11.0657 83.2681 10.0802 83.4908 9.0126V11.9156C84.4104 10.6761 84.9544 9.15012 84.9544 7.5C84.9544 5.84989 84.4104 4.32391 83.4908 3.08442V5.9874ZM76.0485 12.1027C73.4755 12.1027 71.3826 10.0382 71.3826 7.5C71.3826 4.9618 73.4755 2.89725 76.0485 2.89725C78.6216 2.89725 80.7144 4.9618 80.7144 7.5C80.7144 10.0382 78.6216 12.1027 76.0485 12.1027Z" fill="#3C3C3C"/>
</g>
</svg>
