<svg width="152" height="23" viewBox="0 0 152 23" fill="none" xmlns="http://www.w3.org/2000/svg">
<g id="Group 174">
<g id="Group">
<path id="Vector" d="M29.7855 14.056H41.5672L42.9091 9.6136H29.7855V5.63092H43.7364L45.0842 1.16211H25.3242V17.8513C25.3242 20.3727 27.3648 22.4168 29.882 22.4168H43.8417L45.1894 17.948H29.7855V14.0531V14.056Z" fill="white"/>
<path id="Vector_2" d="M16.861 9.56089H5.433V1.16504H0.998047V22.3992H5.433V14.0033H16.861V22.3992H21.2959V1.16504H16.861V9.56089Z" fill="white"/>
<path id="Vector_3" d="M73.3526 1.18262V5.62507H84.4414L72.4375 22.3201H91.6273L92.9692 17.8777H81.0998L93.1037 1.18262H73.3526Z" fill="white"/>
<path id="Vector_4" d="M69.3958 8.67651C69.4309 6.72616 68.6854 4.86953 67.2967 3.45216C65.8847 2.01137 63.9259 1.18555 61.9233 1.18555H49.2266V22.4197L53.6206 22.4051V15.8951V11.4527V5.63092H61.9233C62.7419 5.63092 63.5488 5.97355 64.1306 6.56803C64.6802 7.13029 64.9754 7.85069 64.9608 8.59744C64.9316 10.17 63.6277 11.4527 62.0549 11.4527H54.9683L53.6177 15.8951H61.7625L65.8964 22.4051H70.8955L66.0133 14.715C68.0042 13.4264 69.349 11.2038 69.3958 8.67944V8.67651Z" fill="white"/>
<path id="Vector_5" d="M97.2949 22.3992H101.73V16.7531C100.847 15.2772 100.324 13.4616 100.324 11.4995C100.324 9.53746 100.847 7.72183 101.73 6.24589V1.16504H97.2949V22.4021V22.3992ZM99.6249 7.19178V15.8073C98.742 14.5978 98.2187 13.1072 98.2187 11.4995C98.2187 9.8918 98.742 8.40122 99.6249 7.19178Z" fill="white"/>
<path id="Vector_6" d="M147.564 1.16504V18.8118L134.382 1.16504H129.947V6.26346C130.824 7.73647 131.342 9.54332 131.342 11.4995C131.342 13.4557 130.821 15.2626 129.947 16.7356V22.3992H134.382V7.101L145.807 22.3992H151.999V1.16504H147.564ZM132.035 15.8073V7.19178C132.918 8.40122 133.441 9.88887 133.441 11.4995C133.441 13.1102 132.918 14.5978 132.035 15.8073Z" fill="white"/>
<path id="Vector_7" d="M127.068 9.18067C126.732 7.5466 126.053 6.03259 125.103 4.72944C123.013 1.86542 119.636 0 115.83 0C112.024 0 108.647 1.86542 106.56 4.72944C105.609 6.03259 104.931 7.54367 104.595 9.18067V4.72944C103.206 6.63 102.385 8.96982 102.385 11.5C102.385 14.0302 103.206 16.37 104.595 18.2706V13.8193C104.931 15.4534 105.609 16.9674 106.56 18.2706C108.65 21.1346 112.026 23 115.83 23C119.633 23 123.013 21.1346 125.103 18.2706C126.053 16.9674 126.732 15.4563 127.068 13.8193V18.2706C128.457 16.37 129.278 14.0302 129.278 11.5C129.278 8.96982 128.457 6.63 127.068 4.72944V9.18067ZM115.83 18.5576C111.945 18.5576 108.784 15.3919 108.784 11.5C108.784 7.6081 111.945 4.44245 115.83 4.44245C119.715 4.44245 122.876 7.6081 122.876 11.5C122.876 15.3919 119.715 18.5576 115.83 18.5576Z" fill="white"/>
</g>
</g>
</svg>
