<svg width="100" height="15" viewBox="0 0 100 15" fill="none" xmlns="http://www.w3.org/2000/svg">
<g id="Group 80">
<path id="Vector" d="M19.0638 9.1673H26.8662L27.7548 6.27005H19.0638V3.67265H28.3027L29.1953 0.758209H16.1094V11.6425C16.1094 13.2869 17.4608 14.6199 19.1277 14.6199H28.3724L29.265 11.7055H19.0638V9.16539V9.1673Z" fill="black"/>
<path id="Vector_2" d="M10.5051 6.23569H2.93702V0.760132H0V14.6085H2.93702V9.13294H10.5051V14.6085H13.4421V0.760132H10.5051V6.23569Z" fill="black"/>
<path id="Vector_3" d="M47.9165 0.771576V3.66883H55.26L47.3105 14.5569H60.0189L60.9076 11.6597H53.0471L60.9966 0.771576H47.9165Z" fill="black"/>
<path id="Vector_4" d="M45.2964 5.65891C45.3196 4.38694 44.8259 3.1761 43.9063 2.25173C42.9712 1.31208 41.674 0.773499 40.3478 0.773499H31.9395V14.6219L34.8494 14.6123V10.3667V7.46945V3.67266H40.3478C40.8899 3.67266 41.4243 3.89611 41.8095 4.28381C42.1735 4.6505 42.3691 5.12033 42.3594 5.60734C42.34 6.63293 41.4765 7.46945 40.4349 7.46945H35.7419L34.8474 10.3667H40.2413L42.9789 14.6123H46.2896L43.0564 9.59703C44.3748 8.75669 45.2654 7.30711 45.2964 5.66082V5.65891Z" fill="black"/>
<path id="Vector_5" d="M63.7715 14.6085H66.7085V10.9263C66.1238 9.96372 65.7772 8.77961 65.7772 7.50001C65.7772 6.22041 66.1238 5.0363 66.7085 4.07373V0.760132H63.7715V14.6104V14.6085ZM65.3145 4.69061V10.3094C64.7298 9.52064 64.3833 8.54852 64.3833 7.50001C64.3833 6.4515 64.7298 5.47938 65.3145 4.69061Z" fill="black"/>
<path id="Vector_6" d="M97.0632 0.760132V12.2689L88.3335 0.760132H85.3965V4.08519C85.9773 5.04585 86.32 6.22423 86.32 7.50001C86.32 8.77579 85.9754 9.95417 85.3965 10.9148V14.6085H88.3335V4.63141L95.8997 14.6085H100V0.760132H97.0632ZM86.7788 10.3094V4.69061C87.3635 5.47938 87.7101 6.44959 87.7101 7.50001C87.7101 8.55043 87.3635 9.52064 86.7788 10.3094Z" fill="black"/>
<path id="Vector_7" d="M83.4888 5.9874C83.2662 4.9217 82.817 3.9343 82.1878 3.08442C80.8035 1.21658 78.5673 0 76.0466 0C73.5258 0 71.2896 1.21658 69.9073 3.08442C69.2781 3.9343 68.8289 4.91979 68.6062 5.9874V3.08442C67.6866 4.32391 67.1426 5.84989 67.1426 7.5C67.1426 9.15011 67.6866 10.6761 68.6062 11.9156V9.0126C68.8289 10.0783 69.2781 11.0657 69.9073 11.9156C71.2916 13.7834 73.5277 15 76.0466 15C78.5654 15 80.8035 13.7834 82.1878 11.9156C82.817 11.0657 83.2662 10.0802 83.4888 9.0126V11.9156C84.4084 10.6761 84.9525 9.15011 84.9525 7.5C84.9525 5.84989 84.4084 4.32391 83.4888 3.08442V5.9874ZM76.0466 12.1028C73.4735 12.1028 71.3806 10.0382 71.3806 7.5C71.3806 4.9618 73.4735 2.89725 76.0466 2.89725C78.6196 2.89725 80.7125 4.9618 80.7125 7.5C80.7125 10.0382 78.6196 12.1028 76.0466 12.1028Z" fill="black"/>
</g>
</svg>
