<svg width="35" height="35" viewBox="0 0 35 35" fill="none" xmlns="http://www.w3.org/2000/svg">
<circle cx="17.5" cy="17.5" r="17.5" fill="white" fill-opacity="0.5"/>
<path d="M13.9225 11.0129C13.8423 10.9644 13.751 10.9384 13.6577 10.9375C13.5645 10.9367 13.4728 10.9611 13.3918 11.0082C13.3108 11.0552 13.2434 11.1234 13.1966 11.2057C13.1497 11.2879 13.125 11.3814 13.125 11.4765V23.961C13.125 24.0561 13.1497 24.1496 13.1966 24.2318C13.2434 24.3141 13.3108 24.3823 13.3918 24.4293C13.4728 24.4764 13.5645 24.5008 13.6577 24.5C13.751 24.4991 13.8423 24.4731 13.9225 24.4246L24.2414 18.1824C24.3202 18.1347 24.3855 18.0668 24.4308 17.9855C24.4762 17.9042 24.5 17.8123 24.5 17.7188C24.5 17.6252 24.4762 17.5333 24.4308 17.452C24.3855 17.3707 24.3202 17.3028 24.2414 17.2551L13.9225 11.0129Z" fill="white" stroke="white" stroke-width="2" stroke-linecap="round" stroke-linejoin="round"/>
</svg>
