<svg width="20" height="20" viewBox="0 0 20 20" fill="none" xmlns="http://www.w3.org/2000/svg">
<path d="M9.99984 1.66699C14.6023 1.66699 18.3332 5.39783 18.3332 10.0003C18.3332 14.6028 14.6023 18.3337 9.99984 18.3337C5.39734 18.3337 1.6665 14.6028 1.6665 10.0003C1.6665 5.39783 5.39734 1.66699 9.99984 1.66699ZM9.99984 3.33366C8.23173 3.33366 6.53603 4.03604 5.28579 5.28628C4.03555 6.53652 3.33317 8.23221 3.33317 10.0003C3.33317 11.7684 4.03555 13.4641 5.28579 14.7144C6.53603 15.9646 8.23173 16.667 9.99984 16.667C11.7679 16.667 13.4636 15.9646 14.7139 14.7144C15.9641 13.4641 16.6665 11.7684 16.6665 10.0003C16.6665 8.23221 15.9641 6.53652 14.7139 5.28628C13.4636 4.03604 11.7679 3.33366 9.99984 3.33366ZM9.99984 13.3337C10.2208 13.3337 10.4328 13.4215 10.5891 13.5777C10.7454 13.734 10.8332 13.946 10.8332 14.167C10.8332 14.388 10.7454 14.6 10.5891 14.7562C10.4328 14.9125 10.2208 15.0003 9.99984 15.0003C9.77882 15.0003 9.56686 14.9125 9.41058 14.7562C9.2543 14.6 9.1665 14.388 9.1665 14.167C9.1665 13.946 9.2543 13.734 9.41058 13.5777C9.56686 13.4215 9.77882 13.3337 9.99984 13.3337ZM9.99984 5.41699C10.7017 5.41701 11.3817 5.66145 11.923 6.10833C12.4643 6.5552 12.833 7.1766 12.9659 7.86581C13.0988 8.55501 12.9876 9.26898 12.6513 9.88508C12.315 10.5012 11.7747 10.981 11.1232 11.242C11.0267 11.2775 10.9397 11.3348 10.869 11.4095C10.8323 11.4512 10.8265 11.5045 10.8273 11.5595L10.8332 11.667C10.8329 11.8794 10.7516 12.0837 10.6058 12.2381C10.46 12.3926 10.2607 12.4855 10.0487 12.498C9.83664 12.5104 9.62785 12.4414 9.46498 12.3051C9.3021 12.1688 9.19742 11.9754 9.17234 11.7645L9.1665 11.667V11.4587C9.1665 10.4978 9.9415 9.92116 10.5032 9.69532C10.7318 9.60404 10.9312 9.45221 11.08 9.25615C11.2288 9.06008 11.3214 8.82718 11.3478 8.58245C11.3743 8.33773 11.3335 8.09043 11.23 7.86711C11.1265 7.64379 10.9641 7.45288 10.7603 7.31489C10.5565 7.1769 10.3189 7.09704 10.0731 7.08388C9.8273 7.07073 9.58256 7.12477 9.36516 7.24022C9.14777 7.35566 8.96593 7.52814 8.83916 7.73914C8.7124 7.95014 8.64551 8.19168 8.64567 8.43782C8.64567 8.65884 8.55787 8.8708 8.40159 9.02708C8.24531 9.18336 8.03335 9.27116 7.81234 9.27116C7.59132 9.27116 7.37936 9.18336 7.22308 9.02708C7.0668 8.8708 6.979 8.65884 6.979 8.43782C6.979 7.63665 7.29727 6.86829 7.86378 6.30177C8.4303 5.73526 9.19866 5.41699 9.99984 5.41699Z" fill="#707070"/>
</svg>
