<svg width="630" height="83" viewBox="0 0 630 83" fill="none" xmlns="http://www.w3.org/2000/svg">
<mask id="path-1-inside-1_717_16" fill="white">
<path d="M626 0C628.209 3.92996e-06 630 1.79086 630 4V79C630 81.2091 628.209 83 626 83H13C10.7909 83 9 81.2091 9 79V47.7734L0.5 42.8662C-0.166667 42.4813 -0.166667 41.5187 0.5 41.1338L9 36.2256V4C9 1.79086 10.7909 2.29013e-08 13 0H626Z"/>
</mask>
<path d="M626 0C628.209 3.92996e-06 630 1.79086 630 4V79C630 81.2091 628.209 83 626 83H13C10.7909 83 9 81.2091 9 79V47.7734L0.5 42.8662C-0.166667 42.4813 -0.166667 41.5187 0.5 41.1338L9 36.2256V4C9 1.79086 10.7909 2.29013e-08 13 0H626Z" fill="white"/>
<path d="M626 0L626 -1H626V0ZM630 79L631 79V79H630ZM626 83L626 84L626 83ZM13 83L13 84H13V83ZM9 47.7734H10V47.1961L9.49998 46.9074L9 47.7734ZM0.5 42.8662L-2.96631e-08 43.7322L1.91488e-05 43.7322L0.5 42.8662ZM0.5 41.1338L1 41.9998L1.00006 41.9998L0.5 41.1338ZM9 36.2256L9.50006 37.0916L10 36.8029V36.2256H9ZM9 4L8 4V4H9ZM13 0L13 -1L13 0ZM626 0L626 1C627.657 1 629 2.34315 629 4H630H631C631 1.23858 628.761 -0.999995 626 -1L626 0ZM630 4H629V79H630H631V4H630ZM630 79L629 79C629 80.6569 627.657 82 626 82L626 83L626 84C628.761 84 631 81.7614 631 79L630 79ZM626 83V82H13V83V84H626V83ZM13 83L13 82C11.3431 82 10 80.6568 10 79H9H8C8 81.7614 10.2386 84 13 84L13 83ZM9 79H10V47.7734H9H8V79H9ZM9 47.7734L9.49998 46.9074L0.999981 42.0002L0.5 42.8662L1.91488e-05 43.7322L8.50002 48.6395L9 47.7734ZM0.5 42.8662L1 42.0002L1 41.9998L0.5 41.1338L-3.73974e-09 40.2678C-1.33333 41.0376 -1.33333 42.9624 -2.95493e-08 43.7322L0.5 42.8662ZM0.5 41.1338L1.00006 41.9998L9.50006 37.0916L9 36.2256L8.49994 35.3596L-5.54715e-05 40.2678L0.5 41.1338ZM9 36.2256H10V4H9H8V36.2256H9ZM9 4L10 4C10 2.34315 11.3431 1 13 1L13 0L13 -1C10.2386 -1 8 1.23858 8 4L9 4ZM13 0V1H626V0V-1H13V0Z" fill="#707070" mask="url(#path-1-inside-1_717_16)"/>
</svg>
