<svg width="64" height="64" viewBox="0 0 64 64" fill="none" xmlns="http://www.w3.org/2000/svg">
<g clip-path="url(#clip0_1043_1177)">
<path d="M28.9616 55.9574H11.1257C7.72932 55.9574 4.93918 53.3405 4.76596 50.0059C4.67934 48.2675 5.28563 46.6095 6.48582 45.3536C7.68601 44.0916 9.30071 43.3987 11.0391 43.3987C11.0577 43.3987 11.0886 43.3987 11.1072 43.3987H13.2477C13.7612 43.3987 14.1757 43.8132 14.1757 44.3267C14.1757 44.8402 13.7612 45.2547 13.2477 45.2547H11.0701C11.0701 45.2547 11.0206 45.2547 11.002 45.2547C9.81419 45.2547 8.67587 45.7434 7.82831 46.6343C6.98693 47.5189 6.55387 48.6882 6.61574 49.9131C6.73947 52.264 8.71298 54.1014 11.1196 54.1014H28.9554C30.1185 54.1014 31.065 53.1549 31.065 51.9918C31.065 51.4783 31.4795 51.0638 31.993 51.0638C32.5065 51.0638 32.921 51.4783 32.921 51.9918C32.921 54.1819 31.1393 55.9574 28.9554 55.9574H28.9616Z" fill="white"/>
<path d="M15.8515 37.7565C15.4308 37.7565 15.0535 37.472 14.9483 37.0451C14.8369 36.5749 14.7812 36.0924 14.7812 35.6098C14.7812 32.2319 17.5281 29.4851 20.9059 29.4851C22.5392 29.4851 24.0735 30.1161 25.2242 31.2668C25.5892 31.6257 25.5892 32.2134 25.2242 32.5784C24.8653 32.9434 24.2714 32.9434 23.9126 32.5784C23.1084 31.7741 22.0381 31.3349 20.8998 31.3349C18.5427 31.3349 16.631 33.2527 16.631 35.6036C16.631 35.9439 16.6682 36.278 16.7486 36.6058C16.8661 37.107 16.563 37.6081 16.0619 37.7256C15.9876 37.7442 15.9134 37.7504 15.8453 37.7504L15.8515 37.7565Z" fill="white"/>
<path d="M9.18493 45.5888C8.80136 45.5888 8.44254 45.3537 8.31262 44.9701C8.01567 44.1287 7.86719 43.2441 7.86719 42.347C7.86719 38.0226 11.3873 34.5024 15.7117 34.5024C16.2252 34.5024 16.6397 34.9169 16.6397 35.4304C16.6397 35.9439 16.2252 36.3584 15.7117 36.3584C12.4081 36.3584 9.71697 39.0434 9.71697 42.347C9.71697 43.0337 9.83451 43.708 10.0572 44.3515C10.2305 44.834 9.97681 45.366 9.49425 45.5331C9.38908 45.5702 9.2901 45.5888 9.18493 45.5888Z" fill="white"/>
<path d="M32.0032 48.7005C31.4897 48.7005 31.0752 48.286 31.0752 47.7725V31.3843C31.0752 29.3118 29.3863 27.6229 27.3138 27.6229C25.4516 27.6229 23.8493 29.0087 23.5895 30.8461C23.5152 31.3534 23.045 31.706 22.5378 31.6318C22.0305 31.5576 21.6778 31.0874 21.7521 30.5801C22.1418 27.8332 24.536 25.7607 27.3138 25.7607C30.4132 25.7607 32.9312 28.2787 32.9312 31.3781V47.7663C32.9312 48.2798 32.5167 48.6943 32.0032 48.6943V48.7005Z" fill="white"/>
<path d="M13.912 48.484C13.6213 48.484 13.3305 48.3479 13.1511 48.088C12.0313 46.4795 12.0499 44.3328 13.2006 42.749C13.8935 41.7839 14.9204 41.1343 16.0897 40.9178C16.597 40.8188 17.0796 41.1591 17.1724 41.6602C17.2652 42.1613 16.9311 42.65 16.43 42.7428C15.7309 42.8727 15.1184 43.2625 14.7039 43.8378C14.0172 44.7844 14.0048 46.0712 14.673 47.0301C14.9638 47.4508 14.8648 48.0323 14.4441 48.3231C14.2832 48.4345 14.0976 48.4901 13.912 48.4901V48.484Z" fill="white"/>
<path d="M52.8718 55.9572H35.0359C32.8459 55.9572 31.0703 54.1754 31.0703 51.9916C31.0703 51.4781 31.4848 51.0636 31.9983 51.0636C32.5118 51.0636 32.9263 51.4781 32.9263 51.9916C32.9263 53.1546 33.8728 54.1012 35.0359 54.1012H52.8718C55.2783 54.1012 57.258 52.2638 57.3756 49.9129C57.4374 48.6818 57.0106 47.5187 56.163 46.634C55.3216 45.7493 54.1771 45.2544 52.9584 45.2544H50.7498C50.2363 45.2544 49.8218 44.8399 49.8218 44.3264C49.8218 43.8129 50.2363 43.3984 50.7498 43.3984H52.9274C54.6968 43.3984 56.3115 44.0913 57.5055 45.3534C58.6995 46.6154 59.312 48.2673 59.2254 50.0057C59.0521 53.3402 56.262 55.9572 52.8656 55.9572H52.8718Z" fill="white"/>
<path d="M48.1585 37.7563C48.0842 37.7563 48.0162 37.7501 47.9419 37.7316C47.4408 37.614 47.1377 37.1129 47.2552 36.6118C47.3356 36.2901 47.3728 35.9498 47.3728 35.6096C47.3728 33.2525 45.4549 31.3408 43.104 31.3408C41.9472 31.3408 40.8645 31.7986 40.0541 32.6215C39.6952 32.9865 39.1075 32.9926 38.7425 32.6338C38.3775 32.275 38.3713 31.6873 38.7301 31.3223C39.8932 30.1345 41.446 29.4849 43.104 29.4849C46.4819 29.4849 49.2287 32.2317 49.2287 35.6096C49.2287 36.0983 49.1731 36.5809 49.0617 37.0448C48.9565 37.4717 48.5791 37.7563 48.1585 37.7563Z" fill="white"/>
<path d="M54.8197 45.5886C54.7145 45.5886 54.6156 45.57 54.5104 45.5329C54.0278 45.3597 53.7742 44.8338 53.9474 44.3451C54.1763 43.7017 54.2877 43.0336 54.2877 42.3407C54.2877 39.037 51.6027 36.3521 48.2991 36.3521C47.7856 36.3521 47.3711 35.9376 47.3711 35.4241C47.3711 34.9106 47.7856 34.4961 48.2991 34.4961C52.6297 34.4961 56.1498 38.0163 56.1498 42.3407C56.1498 43.2377 56.0013 44.1224 55.6982 44.9638C55.5621 45.3473 55.2033 45.5824 54.8259 45.5824L54.8197 45.5886Z" fill="white"/>
<path d="M32.0061 32.3122C31.4926 32.3122 31.0781 31.8977 31.0781 31.3842C31.0781 28.2848 33.5961 25.7668 36.6955 25.7668C39.4733 25.7668 41.8675 27.8393 42.2572 30.5862C42.3315 31.0935 41.9789 31.5637 41.4716 31.6379C40.9643 31.7059 40.4941 31.3595 40.4198 30.8522C40.16 29.0148 38.5577 27.629 36.6955 27.629C34.623 27.629 32.9341 29.3179 32.9341 31.3904C32.9341 31.9039 32.5196 32.3184 32.0061 32.3184V32.3122Z" fill="white"/>
<path d="M32.006 45.0071C31.8699 45.0071 31.7338 44.9762 31.6039 44.9143C31.1399 44.6916 30.9481 44.1348 31.1708 43.677C31.6781 42.6191 32.5195 41.8953 33.5898 41.5922C34.7714 41.2581 36.151 41.4746 37.277 42.1922C37.71 42.4645 37.84 43.0398 37.5616 43.4729C37.2832 43.9059 36.714 44.0358 36.2809 43.7575C35.5942 43.3244 34.7776 43.1821 34.0971 43.3739C33.5403 43.5347 33.1134 43.9059 32.835 44.4813C32.6742 44.8154 32.3463 45.0071 31.9998 45.0071H32.006Z" fill="white"/>
<path d="M39.2052 46.8754C39.1186 46.8754 39.0258 46.863 38.9392 46.8382C38.1102 46.5908 37.3802 46.1082 36.8296 45.4401C36.0934 44.543 35.7531 43.4171 35.8644 42.2664C35.9758 41.1157 36.5326 40.0763 37.4235 39.3401C37.8194 39.0122 38.4009 39.0741 38.7288 39.47C39.0567 39.866 38.9948 40.4537 38.5989 40.7754C38.0854 41.1961 37.7699 41.79 37.708 42.4458C37.6462 43.1016 37.838 43.745 38.2586 44.2584C38.5742 44.642 38.9887 44.9204 39.465 45.0565C39.9538 45.205 40.2384 45.7185 40.0899 46.2072C39.9723 46.6093 39.6011 46.8692 39.199 46.8692L39.2052 46.8754Z" fill="white"/>
<path d="M23.3862 55.9573C21.1714 55.9573 19.3711 54.157 19.3711 51.9422C19.3711 51.0328 19.6866 50.1358 20.2558 49.4305C20.5775 49.0346 21.159 48.9665 21.5611 49.2882C21.9633 49.6099 22.0251 50.1914 21.7034 50.5936C21.3941 50.9771 21.2271 51.4473 21.2271 51.9422C21.2271 53.1301 22.1922 54.1013 23.3862 54.1013C23.8997 54.1013 24.3142 54.5158 24.3142 55.0293C24.3142 55.5428 23.8997 55.9573 23.3862 55.9573Z" fill="white"/>
<path d="M42.967 55.9573C42.4536 55.9573 42.0391 55.5428 42.0391 55.0293C42.0391 54.5158 42.4536 54.1013 42.967 54.1013C44.1549 54.1013 45.1262 53.1362 45.1262 51.9422C45.1262 51.4473 44.9591 50.9771 44.6498 50.5936C44.3281 50.1914 44.39 49.6099 44.7921 49.2882C45.188 48.9665 45.7758 49.0284 46.0975 49.4305C46.6666 50.1419 46.9821 51.0328 46.9821 51.9422C46.9821 54.157 45.1818 55.9573 42.967 55.9573Z" fill="white"/>
<path d="M32.0054 40.7878C31.4919 40.7878 31.0774 40.3733 31.0774 39.8598C31.0774 38.672 30.1123 37.7007 28.9183 37.7007C28.4234 37.7007 27.9532 37.8677 27.5696 38.1771C27.1675 38.4988 26.586 38.4369 26.2643 38.0348C25.9426 37.6326 26.0044 37.0511 26.4066 36.7294C27.118 36.1602 28.0089 35.8447 28.9183 35.8447C31.1331 35.8447 32.9334 37.645 32.9334 39.8598C32.9334 40.3733 32.5189 40.7878 32.0054 40.7878Z" fill="white"/>
<path d="M32.2288 16.2644C31.7153 16.2644 31.3008 15.8499 31.3008 15.3364V8.97046C31.3008 8.45698 31.7153 8.04248 32.2288 8.04248C32.7423 8.04248 33.1568 8.45698 33.1568 8.97046V15.3364C33.1568 15.8499 32.7423 16.2644 32.2288 16.2644Z" fill="white"/>
<path d="M18.8726 21.0901C18.6561 21.0901 18.4395 21.0158 18.2663 20.8612L14.3069 17.44C13.9172 17.1059 13.8738 16.5182 14.2141 16.1284C14.5544 15.7387 15.1359 15.6954 15.5257 16.0356L19.4851 19.4568C19.8748 19.7909 19.9181 20.3786 19.5779 20.7684C19.3923 20.9787 19.1386 21.0901 18.8726 21.0901Z" fill="white"/>
<path d="M45.8992 20.6756C45.6393 20.6756 45.3795 20.5642 45.1939 20.3539C44.8598 19.9641 44.9031 19.3826 45.2867 19.0423L49.2461 15.6211C49.6358 15.2871 50.2174 15.3304 50.5576 15.7139C50.8917 16.1037 50.8484 16.6852 50.4648 17.0255L46.5054 20.4466C46.3322 20.6013 46.1157 20.6756 45.8992 20.6756Z" fill="white"/>
<path d="M54.0108 31.6134C53.6396 31.6134 53.287 31.3845 53.1447 31.0195C52.9591 30.5431 53.2004 30.0049 53.6767 29.8193L58.5641 27.9447C59.0405 27.7591 59.5787 28.0004 59.7643 28.4768C59.9499 28.9531 59.7086 29.4914 59.2323 29.677L54.3449 31.5515C54.2335 31.5948 54.1222 31.6134 54.0108 31.6134Z" fill="white"/>
<path d="M11.5767 31.2546C11.5086 31.2546 11.4406 31.2484 11.3725 31.2298L6.26863 30.0729C5.76751 29.9616 5.45819 29.4605 5.56954 28.9655C5.6809 28.4706 6.17583 28.1489 6.67694 28.2665L11.7809 29.4233C12.282 29.5347 12.5913 30.0358 12.4799 30.5307C12.381 30.9638 11.9974 31.2546 11.5767 31.2546Z" fill="white"/>
</g>
<defs>
<clipPath id="clip0_1043_1177">
<rect width="64" height="64" fill="white"/>
</clipPath>
</defs>
</svg>
