<svg width="64" height="64" viewBox="0 0 64 64" fill="none" xmlns="http://www.w3.org/2000/svg">
<g clip-path="url(#clip0_1043_1040)">
<path d="M38.9073 61.2594C38.8516 61.2594 38.7897 61.2594 38.7341 61.2409C38.2329 61.1481 37.8989 60.6594 37.9979 60.1582L39.1053 54.3119C39.1981 53.8108 39.693 53.4768 40.1879 53.5757C40.689 53.6685 41.0231 54.1573 40.9241 54.6584L39.8167 60.5047C39.7301 60.9501 39.3403 61.2594 38.9073 61.2594Z" fill="white"/>
<path d="M18.5149 61.2594C18.4221 61.2594 18.3293 61.247 18.2303 61.2161C17.7415 61.0614 17.4755 60.5356 17.6302 60.053C19.449 54.3614 19.0593 50.9402 16.1454 46.9746C14.2152 44.2897 11.6602 40.1261 11.6602 34.9232C11.6602 29.7203 13.9183 24.3627 17.8591 20.7003C21.8556 16.9884 27.0647 15.1633 32.5398 15.5654C42.1661 16.2769 49.8622 23.9792 50.4437 33.4941C50.4747 34.0076 50.4561 34.5458 50.3819 35.2325C50.32 35.8203 50.5365 36.309 50.8087 36.9338L53.2957 42.6564C53.5432 43.2256 53.4875 43.869 53.1596 44.3887C52.8441 44.8898 52.3059 45.2053 51.7182 45.2486L49.4415 45.6136C49.4415 45.6136 49.3982 45.6383 49.392 45.6631L48.6373 53.0251C48.5011 54.4604 47.3504 55.5554 45.9028 55.6296C43.323 55.7657 41.4485 55.6915 39.8461 55.3946C38.2624 55.0976 36.8704 54.5779 35.1938 53.6561C34.7422 53.4087 34.5814 52.8457 34.8288 52.3941C35.0763 51.9486 35.6393 51.7816 36.0909 52.0291C37.588 52.8519 38.813 53.3097 40.1926 53.5695C41.6464 53.8417 43.3849 53.9036 45.81 53.7799C46.3297 53.7551 46.7442 53.3592 46.7875 52.8457L47.5422 45.4775C47.6227 44.6176 48.2846 43.9185 49.1384 43.7762L51.4707 43.405C51.5078 43.405 51.5511 43.3926 51.5882 43.3926L49.1012 37.6762C48.7795 36.94 48.4207 36.1048 48.5321 35.0346C48.5939 34.453 48.6125 34.0138 48.5878 33.6055C48.0681 25.0185 41.1082 18.0586 32.3975 17.4152C27.4545 17.0502 22.7341 18.702 19.1212 22.0552C15.5577 25.365 13.5161 30.0544 13.5161 34.917C13.5161 38.4681 14.8277 41.9511 17.6488 45.8796C20.9276 50.3401 21.404 54.3305 19.3995 60.6098C19.2758 61.0058 18.9108 61.2532 18.5149 61.2532V61.2594Z" fill="white"/>
<path d="M36.5067 13.2331C36.3521 13.2331 36.1974 13.1959 36.0551 13.1155C35.6097 12.8619 35.4488 12.2989 35.7025 11.8534L38.3379 7.16403C38.4864 6.9042 38.7463 6.73097 39.037 6.70004C39.334 6.66292 39.6247 6.77428 39.8289 6.99081L41.1343 8.40135L42.8294 4.69559C43.0397 4.2316 43.5903 4.02126 44.0605 4.23779C44.5245 4.44813 44.7287 4.99874 44.5183 5.46892L42.2417 10.4429C42.1117 10.7275 41.8519 10.9255 41.5426 10.975C41.2394 11.0244 40.9239 10.9193 40.7136 10.6904L39.3278 9.19323L37.3172 12.7752C37.1439 13.0784 36.8346 13.2454 36.5067 13.2454V13.2331Z" fill="white"/>
<path d="M11.3219 22.649C11.1673 22.649 11.0126 22.6118 10.8703 22.5314L6.1809 19.8959C5.92106 19.7475 5.74784 19.4876 5.71691 19.1969C5.67979 18.8999 5.79115 18.6091 6.00768 18.405L7.41821 17.0996L3.71246 15.4045C3.24847 15.1942 3.04431 14.6436 3.25466 14.1734C3.465 13.7094 4.0156 13.499 4.48578 13.7156L9.45978 15.9922C9.74436 16.1221 9.94233 16.382 9.99182 16.6913C10.0413 17.0006 9.92996 17.31 9.70724 17.5203L8.21009 18.9061L11.7921 20.9167C12.2375 21.1704 12.3984 21.7334 12.1447 22.1788C11.9715 22.4819 11.6622 22.649 11.3343 22.649H11.3219Z" fill="white"/>
<path d="M22.5885 14.5508C22.2545 14.5508 21.9328 14.3714 21.7657 14.0497L19.2849 9.27366C19.1488 9.00764 19.1426 8.69831 19.2787 8.43229C19.4086 8.16626 19.6623 7.98067 19.9531 7.93117L21.8461 7.61566L19.6747 4.16974C19.4025 3.73668 19.5324 3.16133 19.9654 2.88912C20.3985 2.61692 20.9738 2.74683 21.2461 3.17989L24.1661 7.80744C24.3331 8.06728 24.3579 8.39517 24.228 8.67975C24.0981 8.96433 23.8382 9.1623 23.5351 9.21798L21.5244 9.55824L23.4175 13.2021C23.6526 13.6599 23.4794 14.2167 23.0216 14.4518C22.8855 14.526 22.737 14.557 22.5947 14.557L22.5885 14.5508Z" fill="white"/>
<path d="M54.7879 22.414C54.5961 22.414 54.4043 22.3521 54.2434 22.2346C53.9898 22.0552 53.8475 21.7582 53.8599 21.4489L53.9403 19.4135L49.9871 20.5209C49.4983 20.6632 48.9787 20.3724 48.8426 19.8775C48.7065 19.3826 48.991 18.8753 49.486 18.733L54.6703 17.2792C54.9549 17.1987 55.2642 17.2606 55.4931 17.4462C55.7282 17.6318 55.8581 17.9164 55.8458 18.2133L55.7715 20.1312L59.5886 18.7082C60.0712 18.5288 60.6032 18.7763 60.7826 19.2527C60.962 19.7352 60.7146 20.2673 60.2382 20.4467L55.1157 22.3521C55.0106 22.3893 54.8992 22.4078 54.794 22.4078L54.7879 22.414Z" fill="white"/>
</g>
<defs>
<clipPath id="clip0_1043_1040">
<rect width="64" height="64" fill="white"/>
</clipPath>
</defs>
</svg>
