<svg width="64" height="64" viewBox="0 0 64 64" fill="none" xmlns="http://www.w3.org/2000/svg">
<g clip-path="url(#clip0_1043_1155)">
<path d="M31.8694 41.1779C31.3559 41.1779 30.9414 40.7634 30.9414 40.2499V36.7854C30.9414 36.2719 31.3559 35.8574 31.8694 35.8574C32.3829 35.8574 32.7974 36.2719 32.7974 36.7854V40.2499C32.7974 40.7634 32.3829 41.1779 31.8694 41.1779Z" fill="white"/>
<path d="M20.9863 20.4713C20.9121 20.4713 20.8378 20.4651 20.7636 20.4466C17.5651 19.6609 16.7299 16.2274 16.7423 14.526C16.7423 14.0126 17.1568 13.6042 17.6703 13.6042C18.1838 13.6042 18.5983 14.0249 18.5921 14.5322C18.5921 14.6807 18.6292 18.0153 21.2028 18.6463C21.6978 18.77 22.0071 19.2711 21.8834 19.7661C21.7782 20.1868 21.4008 20.4713 20.9801 20.4713H20.9863Z" fill="white"/>
<path d="M16.0318 29.609C15.9637 29.609 15.8957 29.6028 15.8276 29.5843C11.4166 28.5944 10.5876 24.6103 10.5567 24.437C10.4577 23.9359 10.7856 23.4472 11.2929 23.3482C11.8002 23.2554 12.2827 23.5771 12.3817 24.0782C12.4065 24.2081 13.0375 27.054 16.2421 27.7716C16.7432 27.883 17.0588 28.3779 16.9412 28.879C16.8422 29.3121 16.4587 29.6028 16.038 29.6028L16.0318 29.609Z" fill="white"/>
<path d="M10.1111 40.6951C10.1111 40.6951 10.0554 40.6951 10.0245 40.6951C9.51101 40.6518 9.13981 40.2002 9.18312 39.6867C9.19549 39.5321 9.56669 35.8634 13.5632 33.9827C14.0272 33.7662 14.5778 33.9641 14.8005 34.4281C15.0171 34.8921 14.8191 35.4427 14.3551 35.6655C11.3175 37.0945 11.0391 39.8228 11.0329 39.8538C10.9896 40.3363 10.5875 40.7013 10.1111 40.7013V40.6951Z" fill="white"/>
<path d="M17.6377 49.9566C17.1799 49.9566 16.7778 49.6163 16.7221 49.1523C16.7035 49.01 16.3014 45.6074 19.3823 43.0833C19.7782 42.7554 20.366 42.8173 20.6877 43.2132C21.0156 43.6092 20.9537 44.1907 20.5578 44.5186C18.2997 46.3745 18.5533 48.8182 18.5657 48.9234C18.6275 49.4307 18.2625 49.8947 17.7552 49.9566C17.7181 49.9566 17.681 49.9628 17.6377 49.9628V49.9566Z" fill="white"/>
<path d="M21.5343 23.2182C21.2126 23.2182 20.897 23.0512 20.73 22.7481C20.0495 21.554 20.0186 20.2054 20.6372 19.0485C21.2187 17.9597 22.289 17.2111 23.3531 17.1307C23.8604 17.0935 24.3058 17.4771 24.343 17.9906C24.3801 18.5041 23.9965 18.9433 23.483 18.9804C23.118 19.0052 22.5798 19.3393 22.2705 19.9208C22.0477 20.3415 21.8745 21.0158 22.3385 21.8263C22.5922 22.2717 22.4375 22.8409 21.9921 23.0945C21.8498 23.1749 21.6889 23.2182 21.5343 23.2182Z" fill="white"/>
<path d="M31.8737 39.526C31.4283 39.526 31.0385 39.2043 30.9581 38.7527C30.624 36.8163 28.7742 35.5109 26.8502 35.845C26.145 35.9625 25.5077 36.2904 24.9943 36.7791C24.6231 37.1318 24.0353 37.1194 23.6827 36.7544C23.3301 36.3832 23.3424 35.7955 23.7075 35.4428C24.487 34.6943 25.4644 34.2055 26.5347 34.0199C29.4733 33.5188 32.282 35.4985 32.7831 38.4433C32.8698 38.9506 32.5295 39.427 32.0284 39.5136C31.9727 39.5198 31.9232 39.526 31.8675 39.526H31.8737Z" fill="white"/>
<path d="M21.9979 38.6414C21.5834 38.6414 21.206 38.363 21.1008 37.9485C20.9709 37.4535 21.2678 36.9462 21.769 36.8163C23.3156 36.4142 24.2621 34.8737 23.8724 33.3766C23.7301 32.8384 23.4331 32.3558 23.0063 31.9908C22.6165 31.6567 22.5732 31.069 22.9073 30.6793C23.2414 30.2895 23.8291 30.2462 24.2188 30.5803C24.9303 31.1927 25.4314 31.997 25.6665 32.9064C26.3099 35.3934 24.7694 37.9485 22.2329 38.6104C22.1525 38.629 22.0783 38.6414 21.9979 38.6414Z" fill="white"/>
<path d="M53.0219 31.6874H31.8577C31.3442 31.6874 30.9297 31.2729 30.9297 30.7594V28.0374C30.9297 27.5239 31.3442 27.1094 31.8577 27.1094C32.3712 27.1094 32.7857 27.5239 32.7857 28.0374V29.8315H53.0219C53.5354 29.8315 53.9499 30.246 53.9499 30.7594C53.9499 31.2729 53.5354 31.6874 53.0219 31.6874Z" fill="white"/>
<path d="M55.5292 33.9705C53.7784 33.9705 52.3555 32.5476 52.3555 30.7968C52.3555 29.046 53.7784 27.623 55.5292 27.623C57.28 27.623 58.7029 29.046 58.7029 30.7968C58.7029 32.5476 57.28 33.9705 55.5292 33.9705ZM55.5292 29.4728C54.7992 29.4728 54.2114 30.0667 54.2114 30.7906C54.2114 31.5144 54.8054 32.1083 55.5292 32.1083C56.253 32.1083 56.8469 31.5144 56.8469 30.7906C56.8469 30.0667 56.253 29.4728 55.5292 29.4728Z" fill="white"/>
<path d="M44.5525 24.9688H31.8577C31.3442 24.9688 30.9297 24.5543 30.9297 24.0408V21.7333C30.9297 21.2198 31.3442 20.8053 31.8577 20.8053C32.3712 20.8053 32.7857 21.2198 32.7857 21.7333V23.1129H44.1813L49.0625 18.4606C49.4337 18.1079 50.0214 18.1203 50.3741 18.4915C50.7267 18.8627 50.7143 19.4504 50.3431 19.803L45.1959 24.7152C45.0227 24.8822 44.7938 24.975 44.5525 24.975V24.9688Z" fill="white"/>
<path d="M51.3612 20.7869C49.6104 20.7869 48.1875 19.364 48.1875 17.6132C48.1875 15.8624 49.6104 14.4395 51.3612 14.4395C53.112 14.4395 54.5349 15.8624 54.5349 17.6132C54.5349 19.364 53.112 20.7869 51.3612 20.7869ZM51.3612 16.2892C50.6312 16.2892 50.0435 16.8831 50.0435 17.607C50.0435 18.3308 50.6374 18.9247 51.3612 18.9247C52.085 18.9247 52.6789 18.3308 52.6789 17.607C52.6789 16.8831 52.085 16.2892 51.3612 16.2892Z" fill="white"/>
<path d="M40.9474 47.3457C40.4463 47.3457 40.0379 46.9497 40.0194 46.4486L39.939 43.875H32.7935V46.4177C32.7935 46.9312 32.379 47.3457 31.8655 47.3457C31.352 47.3457 30.9375 46.9312 30.9375 46.4177V42.947C30.9375 42.4335 31.352 42.019 31.8655 42.019H40.8422C41.3433 42.019 41.7516 42.415 41.7702 42.9161L41.8815 46.3868C41.9001 46.9002 41.498 47.3271 40.9845 47.3457C40.9721 47.3457 40.9659 47.3457 40.9535 47.3457H40.9474Z" fill="white"/>
<path d="M40.9471 52.2083C39.1963 52.2083 37.7734 50.7853 37.7734 49.0346C37.7734 47.2838 39.1963 45.8608 40.9471 45.8608C42.6979 45.8608 44.1209 47.2838 44.1209 49.0346C44.1209 50.7853 42.6979 52.2083 40.9471 52.2083ZM40.9471 47.7106C40.2171 47.7106 39.6294 48.3045 39.6294 49.0284C39.6294 49.7522 40.2233 50.3461 40.9471 50.3461C41.671 50.3461 42.2649 49.7522 42.2649 49.0284C42.2649 48.3045 41.671 47.7106 40.9471 47.7106Z" fill="white"/>
<path d="M25.4573 58.896C20.5761 58.896 17.0868 55.2459 16.7404 49.9131C12.4036 49.4615 9.01337 45.7867 9.01337 41.3324C9.01337 40.9488 9.03812 40.559 9.08761 40.1755C6.6996 38.3071 5.28906 35.4428 5.28906 32.3928C5.28906 28.7922 7.26876 25.4762 10.393 23.7563C10.3002 23.249 10.2569 22.7355 10.2569 22.2159C10.2569 18.2194 12.9418 14.8229 16.7466 13.8578C17.0126 8.58688 20.5018 5.09766 25.5996 5.09766C32.7822 5.09766 32.7822 12.1875 32.7822 14.5198V17.1243H39.9276L40.0081 14.5507C40.0266 14.0372 40.4349 13.6227 40.967 13.6537C41.4805 13.6722 41.8826 14.0991 41.864 14.6126L41.7527 18.0833C41.7341 18.5844 41.3258 18.9803 40.8247 18.9803H31.848C31.3345 18.9803 30.92 18.5658 30.92 18.0523V14.5198C30.92 9.14986 29.3734 6.95363 25.5934 6.95363C21.3308 6.95363 18.5778 9.92318 18.5778 14.5198C18.5778 14.5569 18.5778 14.6312 18.5654 14.6806C18.5345 15.1075 18.219 15.4663 17.7859 15.5344C14.4947 16.0664 12.1005 18.8751 12.1005 22.2159C12.1005 22.8283 12.1809 23.4346 12.3417 24.01C12.4655 24.4492 12.2489 24.9132 11.8283 25.0988C8.97625 26.398 7.12647 29.2624 7.12647 32.3928C7.12647 35.0344 8.42565 37.5029 10.6095 39C10.9188 39.2104 11.0673 39.5878 10.9931 39.9528C10.9003 40.4044 10.8508 40.8684 10.8508 41.3324C10.8508 45.0629 13.8884 48.1005 17.6189 48.1005C18.1324 48.1005 18.5469 48.515 18.5469 49.0285C18.5469 53.0126 20.675 57.04 25.4325 57.04C30.19 57.04 30.9138 53.7426 30.9138 50.9772C30.9138 50.4637 31.3283 50.0492 31.8418 50.0492C32.3553 50.0492 32.7698 50.4637 32.7698 50.9772C32.7698 56.0069 30.0972 58.896 25.4325 58.896H25.4573Z" fill="white"/>
<path d="M40.9471 15.1445C39.1963 15.1445 37.7734 13.7216 37.7734 11.9708C37.7734 10.22 39.1963 8.79712 40.9471 8.79712C42.6979 8.79712 44.1209 10.22 44.1209 11.9708C44.1209 13.7216 42.6979 15.1445 40.9471 15.1445ZM40.9471 10.6531C40.2171 10.6531 39.6294 11.247 39.6294 11.9708C39.6294 12.6947 40.2233 13.2886 40.9471 13.2886C41.671 13.2886 42.2649 12.6947 42.2649 11.9708C42.2649 11.247 41.671 10.6531 40.9471 10.6531Z" fill="white"/>
<path d="M49.7024 42.6253C49.4735 42.6253 49.2384 42.5387 49.059 42.3654L44.1778 37.7131H31.5139C31.0004 37.7131 30.5859 37.2986 30.5859 36.7852C30.5859 36.2717 31.0004 35.8572 31.5139 35.8572H44.549C44.7903 35.8572 45.0192 35.95 45.1924 36.117L50.3396 41.0291C50.7108 41.3818 50.7232 41.9695 50.3706 42.3407C50.1912 42.5325 49.9437 42.6253 49.7024 42.6253Z" fill="white"/>
<path d="M51.3612 46.3931C49.6104 46.3931 48.1875 44.9702 48.1875 43.2194C48.1875 41.4686 49.6104 40.0457 51.3612 40.0457C53.112 40.0457 54.5349 41.4686 54.5349 43.2194C54.5349 44.9702 53.112 46.3931 51.3612 46.3931ZM51.3612 41.9016C50.6312 41.9016 50.0435 42.4955 50.0435 43.2194C50.0435 43.9432 50.6374 44.5371 51.3612 44.5371C52.085 44.5371 52.6789 43.9432 52.6789 43.2194C52.6789 42.4955 52.085 41.9016 51.3612 41.9016Z" fill="white"/>
</g>
<defs>
<clipPath id="clip0_1043_1155">
<rect width="64" height="64" fill="white"/>
</clipPath>
</defs>
</svg>
