<svg width="64" height="64" viewBox="0 0 64 64" fill="none" xmlns="http://www.w3.org/2000/svg">
<g clip-path="url(#clip0_1043_1136)">
<path d="M42.0885 47.6118C42.0885 47.6118 42.0266 47.6118 41.9957 47.6118L29.3504 47.2468C28.8369 47.2344 28.4348 46.8076 28.4471 46.2941C28.4595 45.7806 28.8926 45.3599 29.3999 45.3908L42.0514 45.7558C42.3298 45.7558 42.5711 45.6754 42.7381 45.5022C42.9113 45.329 43.0041 45.1001 42.9979 44.8588C42.9979 44.7598 42.9794 44.6608 42.9484 44.568C42.9299 44.5123 42.9113 44.469 42.8866 44.4319C42.4349 43.5472 40.6037 42.5017 39.4283 42.446L33.4892 41.8707C32.0725 41.6913 30.7114 41.3201 29.4246 40.7633C29.072 40.6086 28.7193 40.4045 28.41 40.225C28.1935 40.1013 27.9893 39.9776 27.7975 39.891C23.6278 37.9236 17.6701 39.7177 10.0792 45.2238C9.66472 45.5269 9.08318 45.4341 8.78004 45.0196C8.4769 44.6051 8.5697 44.0236 8.9842 43.7205C17.1628 37.7814 23.7577 35.9316 28.5832 38.2082C28.8121 38.3196 29.0658 38.4619 29.3318 38.6165C29.6102 38.7774 29.901 38.9444 30.1546 39.0558C31.2806 39.5445 32.4684 39.8662 33.6871 40.0209L39.552 40.5901C41.1976 40.6643 43.7032 41.9511 44.5198 43.5596C44.5817 43.671 44.6436 43.8133 44.693 43.9555C44.792 44.2339 44.8415 44.5371 44.8477 44.8464C44.8477 45.5826 44.5693 46.2755 44.0558 46.7952C43.5485 47.3087 42.8371 47.6056 42.0823 47.6056L42.0885 47.6118Z" fill="white"/>
<path d="M17.4343 55.7533C17.1436 55.7533 16.8528 55.6172 16.6734 55.3574C16.3764 54.9367 16.4816 54.3614 16.8961 54.0644L17.6199 53.5509C18.3685 53.0189 19.2594 52.7343 20.1812 52.7343L38.7594 52.6539C41.3145 52.6415 43.8324 51.763 45.8492 50.1792L57.5418 41.0046C58.4822 40.2807 58.7667 39.6744 58.6368 39.4146C58.4327 39.0001 57.1211 38.4866 54.8754 39.0929C53.9474 39.3466 53.0318 39.7734 52.1471 40.3673L47.9217 43.5472C47.0247 44.2154 46.0286 44.6918 44.9522 44.9454L44.0304 45.1681C43.4612 45.3104 42.8858 44.8526 42.8858 44.2649C42.8858 43.8133 43.2014 43.4421 43.6282 43.3555L44.5191 43.1389C45.3481 42.941 46.1214 42.576 46.8143 42.0563L51.0769 38.8455C52.1719 38.1093 53.2731 37.602 54.3928 37.2926C57.1768 36.5379 59.5463 37.0575 60.301 38.5794C60.5856 39.1486 60.9939 40.6705 58.6801 42.4584L46.9937 51.6331C44.649 53.4705 41.729 54.4913 38.7656 54.5036L20.1812 54.5841C19.6429 54.5841 19.1233 54.7511 18.684 55.0604L17.9602 55.5739C17.7993 55.6853 17.6137 55.741 17.4281 55.741L17.4343 55.7533Z" fill="white"/>
<path d="M14.6854 60.3127C14.4442 60.3127 14.2091 60.2199 14.0235 60.0343C13.6646 59.6693 13.6646 59.0816 14.0297 58.7228L17.0796 55.7037L8.56692 44.5494L4.84879 46.6961C4.40336 46.9497 3.84038 46.8013 3.58055 46.3558C3.3269 45.9104 3.47538 45.3474 3.92081 45.0876L8.3442 42.5325C8.74633 42.2974 9.25981 42.4026 9.5444 42.7738L19.047 55.2212C19.3315 55.5924 19.2944 56.1182 18.9603 56.4461L15.3288 60.0405C15.1494 60.2199 14.9143 60.3065 14.6792 60.3065L14.6854 60.3127Z" fill="white"/>
<path d="M52.5017 11.7112C52.1057 11.7112 51.7345 11.4514 51.617 11.0554C50.5529 7.58476 46.8533 5.27717 42.8321 5.57412C40.0172 5.77828 37.7405 7.07127 36.4104 9.21801C36.1382 9.65726 35.569 9.78717 35.136 9.52115C34.6967 9.24894 34.5668 8.67978 34.8328 8.24672C36.4537 5.62362 39.3243 3.97799 42.696 3.73053C47.5772 3.37171 52.0748 6.2299 53.3863 10.5234C53.5348 11.0121 53.2626 11.5318 52.7677 11.6803C52.6749 11.705 52.5883 11.7236 52.4955 11.7236L52.5017 11.7112Z" fill="white"/>
<path d="M53.4375 24.9319C53.0106 24.9319 52.627 24.635 52.5342 24.2019C52.4229 23.7008 52.7384 23.2059 53.2395 23.0945C56.1348 22.4573 58.3434 18.8443 58.1207 16.3388C57.9042 13.9137 55.51 11.9649 52.4291 11.6989C51.9156 11.6556 51.5382 11.2039 51.5815 10.6966C51.6248 10.1832 52.0764 9.80578 52.5837 9.84909C56.5617 10.1893 59.6673 12.8496 59.9643 16.1718C60.2613 19.4939 57.5639 24.0349 53.6354 24.901C53.5674 24.9134 53.4993 24.9257 53.4375 24.9257V24.9319Z" fill="white"/>
<path d="M26.8906 29.4481C22.3991 29.4481 19.4048 26.392 18.4088 23.0883C17.3138 19.4506 18.4459 14.687 23.5127 12.8248C23.9953 12.6454 24.5273 12.8929 24.7067 13.3754C24.8861 13.858 24.6387 14.39 24.1561 14.5694C20.1905 16.0295 19.3058 19.6362 20.1905 22.5563C21.1494 25.7486 24.2551 28.4583 29.0126 27.3385C29.5137 27.221 30.0148 27.5303 30.1261 28.0314C30.2437 28.5325 29.9344 29.0274 29.4333 29.145C28.5362 29.3553 27.6886 29.4543 26.8906 29.4543V29.4481Z" fill="white"/>
<path d="M23.8108 14.6188C23.353 14.6188 22.9571 14.2848 22.8952 13.8208C22.8395 13.4125 22.8086 13.0042 22.8086 12.602C22.8086 10.3872 24.2006 8.21575 26.6319 6.63199C30.084 4.38627 34.6126 3.95939 38.176 5.54316C38.6462 5.7535 38.8565 6.29792 38.6462 6.76809C38.4359 7.23827 37.8914 7.44862 37.4213 7.23827C34.4146 5.90198 30.5789 6.27936 27.6403 8.191C25.772 9.40357 24.6584 11.0554 24.6584 12.602C24.6584 12.9175 24.6831 13.2392 24.7264 13.5609C24.8007 14.0682 24.4418 14.5384 23.9345 14.6127C23.8912 14.6127 23.8479 14.6188 23.8046 14.6188H23.8108Z" fill="white"/>
<path d="M23.9246 34.6944C23.8194 34.6944 23.7142 34.6758 23.6091 34.6387C23.1265 34.4593 22.8791 33.9273 23.0585 33.4509C24.1782 30.3886 26.8075 28.0624 28.713 27.4252C29.1708 27.2705 29.6533 27.1468 30.1545 27.0602C30.6556 26.9674 31.1381 27.3076 31.2309 27.8149C31.3175 28.3222 30.9835 28.7986 30.4762 28.8914C30.074 28.9595 29.6781 29.0584 29.3069 29.1884C28.0263 29.6152 25.7867 31.4217 24.8093 34.0881C24.6732 34.4655 24.3143 34.7006 23.937 34.7006L23.9246 34.6944Z" fill="white"/>
<path d="M27.8501 22.9708C27.349 22.9708 26.9345 22.5749 26.9222 22.0676C26.9098 21.5541 27.3119 21.1272 27.8254 21.1148C29.7185 21.0592 31.3022 19.7352 31.593 17.9659C31.7662 16.9018 31.4383 15.8377 30.696 15.0334C30.3495 14.6561 30.3681 14.0745 30.7454 13.7219C31.1228 13.3755 31.7044 13.394 32.057 13.7714C33.1953 14.9963 33.6964 16.6296 33.4304 18.269C32.9974 20.9169 30.665 22.8966 27.8811 22.9708C27.8749 22.9708 27.8625 22.9708 27.8563 22.9708H27.8501Z" fill="white"/>
<path d="M35.8648 24.6907C34.6893 24.6907 33.5325 24.2762 32.6354 23.4781C31.2991 22.2965 30.8475 20.5643 31.3857 18.7207C31.528 18.2319 32.0477 17.9473 32.5364 18.0958C33.0252 18.2381 33.3097 18.7578 33.1613 19.2465C32.8272 20.3848 33.0747 21.3933 33.8603 22.0862C34.7203 22.8471 36.0195 23.0389 37.0959 22.5749C37.5661 22.3707 38.1105 22.5873 38.3147 23.0574C38.5188 23.5276 38.3023 24.072 37.8321 24.2762C37.2011 24.5484 36.5268 24.6845 35.8648 24.6845V24.6907Z" fill="white"/>
<path d="M43.5249 19.2403C43.4506 19.2403 43.3826 19.2341 43.3083 19.2156C42.8072 19.098 42.5041 18.5969 42.6216 18.0958C42.9248 16.8276 42.1019 15.4974 40.6543 14.9468C39.7325 14.588 38.7055 14.6066 37.8456 14.9901C37.3754 15.2005 36.831 14.9901 36.6207 14.52C36.4103 14.0498 36.6207 13.5054 37.0908 13.295C38.4024 12.7135 39.9428 12.6826 41.3224 13.2146C43.6424 14.1117 44.954 16.345 44.4281 18.5289C44.3229 18.9557 43.9455 19.2403 43.5249 19.2403Z" fill="white"/>
<path d="M43.6376 15.8437C42.8581 15.8437 42.0539 15.652 41.2867 15.256C40.8289 15.0209 40.6495 14.4641 40.8846 14.0063C41.1197 13.5485 41.6765 13.3691 42.1343 13.6042C43.2046 14.1548 44.3058 14.1177 45.0915 13.5176C45.673 13.066 45.939 12.404 45.7905 11.7421C45.6792 11.2409 45.9947 10.746 46.4958 10.6347C46.9969 10.5233 47.4918 10.8388 47.6032 11.3399C47.9002 12.701 47.3743 14.0991 46.2236 14.9838C45.4874 15.553 44.578 15.8437 43.6376 15.8437Z" fill="white"/>
<path d="M28.3108 36.1667C28.1438 36.1667 27.9705 36.1234 27.8159 36.0245C27.3828 35.7522 27.2529 35.1769 27.5251 34.7438C29.4368 31.7062 33.2229 30.0297 38.1907 30.0297H39.3105C41.9831 30.0297 46.9571 30.0297 48.0398 30.042C50.9784 30.0915 52.8653 28.947 53.2303 26.9055C53.3664 26.1445 53.2179 25.464 52.791 24.8824C52.1724 24.0349 50.9846 23.4472 49.5307 23.2616C48.4604 23.1873 47.4458 23.4843 46.7777 24.072C46.357 24.4432 46.1157 24.8948 46.091 25.3712C46.0601 25.8847 45.6394 26.2682 45.1135 26.2435C44.6 26.2126 44.2103 25.7795 44.2412 25.266C44.2969 24.2947 44.7609 23.3791 45.5528 22.68C46.5921 21.7644 48.1016 21.3004 49.7101 21.4118C51.7455 21.6654 53.3478 22.5068 54.282 23.7751C55.012 24.7711 55.278 25.9589 55.0553 27.221C54.5356 30.1534 51.9806 31.8918 48.2068 31.8918C48.1387 31.8918 48.0769 31.8918 48.0088 31.8918C46.9447 31.8733 41.9769 31.8733 39.3105 31.8795H38.1907C33.8849 31.8795 30.6555 33.2467 29.0965 35.7275C28.9171 36.0059 28.6201 36.1606 28.3108 36.1606V36.1667Z" fill="white"/>
<path d="M23.8338 14.6189C23.4317 14.6189 23.0605 14.3591 22.9429 13.9508C22.8006 13.462 23.0852 12.9424 23.574 12.8001C24.4834 12.534 25.2505 12.4412 26.2837 12.4598C26.7972 12.4722 27.2055 12.8929 27.1931 13.4063C27.1807 13.9136 26.7724 14.3158 26.2651 14.3158H26.2466C25.3928 14.2972 24.8298 14.3715 24.0936 14.5818C24.007 14.6065 23.9204 14.6189 23.8338 14.6189Z" fill="white"/>
<path d="M52.6189 14.9282C52.5632 14.9282 52.5075 14.9282 52.4518 14.9159C51.9445 14.8231 51.6105 14.3405 51.7033 13.8394C51.8827 12.8557 51.9136 12.1505 51.6043 11.0369C51.4682 10.542 51.7528 10.0285 52.2477 9.89237C52.7426 9.75627 53.2561 10.0409 53.3922 10.5358C53.7943 11.9772 53.751 12.9609 53.5283 14.1673C53.4479 14.6127 53.0581 14.9282 52.6189 14.9282Z" fill="white"/>
</g>
<defs>
<clipPath id="clip0_1043_1136">
<rect width="64" height="64" fill="white"/>
</clipPath>
</defs>
</svg>
