<svg width="64" height="64" viewBox="0 0 64 64" fill="none" xmlns="http://www.w3.org/2000/svg">
<g clip-path="url(#clip0_1043_1037)">
<path d="M5.46106 57.5051H54.2632V59L60 56.5231L54.2632 54.0463V55.5412H7.38048V34.2021H12.8093C14.6643 40.3576 16.5121 45.9928 20.6159 45.9928C24.7198 45.9928 26.5676 40.3576 28.4226 34.2021H41.1996C43.0546 40.3576 44.9024 45.9928 49.0063 45.9928V44.0289C46.3993 44.0289 44.6876 39.0459 43.2122 34.2021H49.0063V32.2382H42.6177C40.7556 26.0826 38.915 20.4474 34.8111 20.4474C30.7073 20.4474 28.8594 26.0826 27.0045 32.2382H14.2274C12.5228 26.5809 10.8254 21.3707 7.38048 20.5573V10.8697H8.84154L6.42077 5L4 10.8697H5.46106V57.5124V57.5051ZM20.6159 44.0289C18.009 44.0289 16.2972 39.0459 14.8218 34.2021H26.41C24.9346 39.0459 23.2229 44.0289 20.6159 44.0289ZM34.8111 22.4113C37.4181 22.4113 39.1298 27.3944 40.6052 32.2382H29.0098C30.4852 27.3944 32.197 22.4113 34.8039 22.4113H34.8111ZM12.2149 32.2382H7.38048V22.6458C9.46464 23.6864 10.9257 28.0099 12.2149 32.2382Z" fill="white"/>
</g>
<defs>
<clipPath id="clip0_1043_1037">
<rect width="64" height="64" fill="white"/>
</clipPath>
</defs>
</svg>
