<svg width="64" height="64" viewBox="0 0 64 64" fill="none" xmlns="http://www.w3.org/2000/svg">
<path d="M32.0582 58.276C31.8546 58.276 31.6511 58.2314 31.4702 58.131C21.5422 52.9575 15.7754 49.7909 12.779 44.662C9.89556 39.756 9.60156 33.579 9.60156 20.6563C9.60156 18.3371 9.71464 16.0179 9.92948 13.7545C9.9634 13.3977 10.1556 13.0743 10.4496 12.8625C10.7436 12.6506 11.1168 12.5837 11.4673 12.6618C23.7585 15.4939 30.7578 6.6297 31.0518 6.25061C31.2893 5.93841 31.6511 5.77116 32.0582 5.76001C32.4539 5.76001 32.8271 5.93841 33.0645 6.25061C33.3585 6.6297 40.3579 15.4827 52.6491 12.6506C52.9996 12.5726 53.3727 12.6506 53.6667 12.8513C53.9607 13.0632 54.153 13.3865 54.1869 13.7433C54.413 16.0068 54.5148 18.3259 54.5148 20.6451C54.5148 33.5567 54.2095 39.7337 51.3374 44.6508C48.3296 49.7686 42.5741 52.9463 32.6462 58.1199C32.4653 58.2202 32.2617 58.2648 32.0582 58.2648V58.276ZM12.3154 15.3824C12.1797 17.1217 12.1118 18.8946 12.1118 20.6674C12.1118 44.3163 12.6772 45.5205 32.0582 55.6223C51.4392 45.5205 52.0045 44.3163 52.0045 20.6674C52.0045 18.9057 51.9367 17.1329 51.801 15.3824C50.4667 15.6054 49.189 15.7057 47.9678 15.7057C39.736 15.7057 34.2066 11.0674 32.0582 8.88198C29.5819 11.3907 22.6617 17.1329 12.3154 15.3824Z" fill="white"/>
<path d="M17.7978 21.5149C17.7978 21.5149 17.7638 21.5149 17.7412 21.5149H17.6168C16.9158 21.4815 16.3843 20.9017 16.4069 20.2215C16.4296 19.5302 17.0289 19.0173 17.7186 19.0285H17.843C18.5441 19.0619 19.0755 19.6417 19.0529 20.3219C19.0303 20.9909 18.4649 21.5149 17.7978 21.5149Z" fill="white"/>
<path d="M22.277 21.1135C21.7003 21.1135 21.1801 20.7232 21.0444 20.1434C20.8974 19.4745 21.3271 18.8055 22.0056 18.6605C25.1717 17.9692 27.6028 16.4863 29.0841 15.349C29.6381 14.9253 30.4296 15.0256 30.848 15.572C31.2777 16.1183 31.1759 16.8988 30.6219 17.3114C28.9371 18.5936 26.1667 20.2884 22.5483 21.08C22.4579 21.1023 22.3674 21.1135 22.277 21.1135Z" fill="white"/>
<path d="M30.6537 39.9343C30.3258 39.9343 30.0092 39.8116 29.7604 39.5664L23.4396 33.3336C22.942 32.843 22.942 32.0625 23.4396 31.5719C23.9371 31.0813 24.7286 31.0813 25.2261 31.5719L30.6537 36.9238L40.7287 26.9893C41.2262 26.4987 42.0177 26.4987 42.5152 26.9893C43.0128 27.4799 43.0128 28.2604 42.5152 28.751L31.547 39.5664C31.2982 39.8116 30.9816 39.9343 30.6537 39.9343Z" fill="white"/>
</svg>
