<svg width="333" height="298" viewBox="0 0 333 298" fill="none" xmlns="http://www.w3.org/2000/svg">
<g clip-path="url(#clip0_1137_269)">
<g clip-path="url(#clip1_1137_269)">
<path d="M24.5829 70.8129C24.2349 70.8129 23.8869 70.6814 23.624 70.4185L13.6713 60.4659C13.1455 59.94 13.1455 59.0816 13.6713 58.5558L22.8275 49.3997L13.6327 40.2049C13.1068 39.679 13.1068 38.8206 13.6327 38.2948L22.5336 29.3939L13.7641 20.6244C13.5012 20.3692 13.362 20.0135 13.3697 19.6423C13.3697 19.2788 13.5321 18.9308 13.8028 18.6756L23.5621 9.5582C24.1112 9.04781 24.9618 9.07874 25.4722 9.62006C25.9826 10.1691 25.9517 11.0198 25.4103 11.5302L16.6718 19.6887L25.4103 28.4272C25.9362 28.9531 25.9362 29.8115 25.4103 30.3373L16.5094 39.2382L25.7042 48.433C26.2301 48.9589 26.2301 49.8173 25.7042 50.3431L16.5481 59.4992L25.5418 68.493C26.0677 69.0188 26.0677 69.8772 25.5418 70.4031C25.2789 70.666 24.9309 70.7975 24.5829 70.7975V70.8129Z" fill="white"/>
<path d="M38.1376 70.813C37.7896 70.813 37.4416 70.6815 37.1787 70.4186L27.226 60.4659C26.9708 60.2107 26.8316 59.8705 26.8316 59.507C26.8316 59.1436 26.9708 58.8033 27.226 58.5481L36.3821 49.392L27.1874 40.1972C26.6615 39.6713 26.6615 38.813 27.1874 38.2871L36.0883 29.3862L27.3188 20.6167C27.0559 20.3615 26.9167 20.0058 26.9244 19.6346C26.9244 19.2711 27.0868 18.9232 27.3575 18.668L37.1168 9.55051C37.6659 9.04012 38.5165 9.07105 39.0269 9.61237C39.5373 10.1614 39.5064 11.0121 38.965 11.5225L30.2265 19.681L38.965 28.4195C39.4909 28.9454 39.4909 29.8038 38.965 30.3296L30.0641 39.2305L39.2589 48.4253C39.7848 48.9512 39.7848 49.8096 39.2589 50.3354L30.1028 59.4915L39.1042 68.4853C39.6301 69.0111 39.6301 69.8695 39.1042 70.3954C38.8413 70.6583 38.4933 70.7898 38.1453 70.7898L38.1376 70.813Z" fill="white"/>
<path d="M51.6884 70.813C51.3404 70.813 50.9924 70.6815 50.7294 70.4186L40.7768 60.4659C40.5216 60.2107 40.3824 59.8705 40.3824 59.507C40.3824 59.1436 40.5216 58.8033 40.7768 58.5481L49.9329 49.392L40.7381 40.1972C40.2123 39.6713 40.2123 38.813 40.7381 38.2871L49.6391 29.3862L40.8696 20.6167C40.6067 20.3615 40.4675 20.0058 40.4752 19.6346C40.4752 19.2711 40.6376 18.9232 40.9083 18.668L50.6676 9.55051C51.2166 9.04012 52.0673 9.07105 52.5777 9.61237C53.0881 10.1614 53.0571 11.0121 52.5158 11.5225L43.7773 19.681L52.5158 28.4195C53.0417 28.9454 53.0417 29.8038 52.5158 30.3296L43.6149 39.2305L52.8097 48.4253C53.3355 48.9512 53.3355 49.8096 52.8097 50.3354L43.6536 59.4915L52.655 68.4853C53.1809 69.0111 53.1809 69.8695 52.655 70.3954C52.3921 70.6583 52.0441 70.7898 51.6961 70.7898L51.6884 70.813Z" fill="white"/>
<path d="M65.2431 70.813C64.8951 70.813 64.5471 70.6815 64.2841 70.4186L54.3315 60.4659C54.0763 60.2107 53.9371 59.8705 53.9371 59.507C53.9371 59.1436 54.0763 58.8033 54.3315 58.5481L63.4876 49.392L54.2928 40.1972C53.767 39.6713 53.767 38.813 54.2928 38.2871L63.1938 29.3862L54.4243 20.6167C54.1614 20.3615 54.0222 20.0058 54.0299 19.6346C54.0299 19.2711 54.1923 18.9232 54.463 18.668L64.2223 9.55051C64.7713 9.04012 65.622 9.07105 66.1324 9.61237C66.6428 10.1614 66.6118 11.0121 66.0705 11.5225L57.332 19.681L66.0705 28.4195C66.3257 28.6747 66.4649 29.015 66.4649 29.3784C66.4649 29.7419 66.3257 30.0822 66.0705 30.3374L57.1696 39.2383L66.3644 48.4331C66.8902 48.9589 66.8902 49.8173 66.3644 50.3432L57.2083 59.4993L66.2097 68.493C66.7356 69.0189 66.7356 69.8772 66.2097 70.4031C65.9468 70.666 65.5988 70.7975 65.2508 70.7975L65.2431 70.813Z" fill="white"/>
</g>
</g>
<g clip-path="url(#clip2_1137_269)">
<path d="M271.049 232.579C270.98 232.579 270.902 232.579 270.833 232.556C270.206 232.44 269.789 231.829 269.912 231.203L271.297 223.895C271.413 223.268 272.031 222.851 272.65 222.974C273.276 223.09 273.694 223.701 273.57 224.328L272.186 231.636C272.078 232.192 271.59 232.579 271.049 232.579Z" fill="white"/>
<path d="M245.553 232.579C245.437 232.579 245.321 232.563 245.197 232.525C244.586 232.331 244.254 231.674 244.447 231.071C246.72 223.956 246.233 219.68 242.591 214.723C240.178 211.367 236.984 206.162 236.984 199.659C236.984 193.155 239.807 186.458 244.733 181.88C249.729 177.24 256.24 174.959 263.084 175.461C275.117 176.351 284.737 185.979 285.464 197.872C285.503 198.514 285.479 199.187 285.387 200.045C285.309 200.78 285.58 201.391 285.92 202.172L289.029 209.325C289.338 210.037 289.269 210.841 288.859 211.49C288.464 212.117 287.792 212.511 287.057 212.565L284.211 213.022C284.211 213.022 284.157 213.053 284.149 213.083L283.206 222.286C283.036 224.08 281.597 225.449 279.788 225.542C276.563 225.712 274.22 225.619 272.217 225.248C270.237 224.877 268.497 224.227 266.401 223.075C265.837 222.765 265.636 222.062 265.945 221.497C266.255 220.94 266.958 220.732 267.523 221.041C269.394 222.069 270.925 222.642 272.65 222.967C274.467 223.307 276.64 223.384 279.672 223.229C280.321 223.199 280.839 222.704 280.894 222.062L281.837 212.851C281.937 211.777 282.765 210.903 283.832 210.725L286.748 210.261C286.794 210.261 286.848 210.245 286.894 210.245L283.786 203.1C283.384 202.18 282.935 201.136 283.074 199.798C283.152 199.071 283.175 198.522 283.144 198.011C282.494 187.278 273.794 178.578 262.906 177.774C256.727 177.317 250.827 179.382 246.311 183.574C241.856 187.711 239.304 193.573 239.304 199.651C239.304 204.09 240.944 208.444 244.47 213.354C248.569 218.93 249.164 223.918 246.659 231.767C246.504 232.262 246.048 232.571 245.553 232.571V232.579Z" fill="white"/>
<path d="M261.004 172.376C260.362 172.376 259.844 171.858 259.844 171.216V164.581C259.844 163.939 260.362 163.421 261.004 163.421C261.646 163.421 262.164 163.939 262.164 164.581V171.216C262.164 171.858 261.646 172.376 261.004 172.376Z" fill="white"/>
<path d="M251.457 174.062C250.985 174.062 250.536 173.768 250.366 173.296L248.1 167.063C247.884 166.46 248.193 165.795 248.796 165.578C249.392 165.362 250.065 165.671 250.281 166.274L252.547 172.507C252.763 173.111 252.454 173.776 251.851 173.992C251.719 174.039 251.588 174.062 251.457 174.062Z" fill="white"/>
<path d="M243.057 178.91C242.725 178.91 242.4 178.771 242.168 178.493L237.907 173.412C237.497 172.925 237.559 172.19 238.054 171.78C238.541 171.371 239.276 171.432 239.686 171.927L243.947 177.008C244.357 177.495 244.295 178.23 243.8 178.64C243.583 178.825 243.32 178.91 243.057 178.91Z" fill="white"/>
<path d="M236.816 186.342C236.622 186.342 236.421 186.296 236.236 186.187L230.49 182.87C229.933 182.553 229.747 181.841 230.065 181.285C230.382 180.728 231.093 180.542 231.65 180.859L237.396 184.177C237.952 184.494 238.138 185.205 237.821 185.762C237.604 186.133 237.218 186.342 236.816 186.342Z" fill="white"/>
<path d="M270.558 174.062C270.426 174.062 270.295 174.039 270.163 173.992C269.56 173.776 269.251 173.111 269.467 172.507L271.733 166.274C271.95 165.671 272.623 165.362 273.218 165.578C273.821 165.795 274.131 166.46 273.914 167.063L271.648 173.296C271.478 173.768 271.03 174.062 270.558 174.062Z" fill="white"/>
<path d="M278.954 178.911C278.691 178.911 278.428 178.818 278.212 178.64C277.724 178.23 277.655 177.495 278.065 177.008L282.326 171.927C282.736 171.44 283.47 171.371 283.957 171.781C284.445 172.19 284.514 172.925 284.104 173.412L279.843 178.493C279.611 178.764 279.287 178.911 278.954 178.911Z" fill="white"/>
<path d="M285.187 186.342C284.785 186.342 284.398 186.133 284.182 185.762C283.865 185.205 284.05 184.502 284.607 184.177L290.353 180.859C290.91 180.534 291.613 180.728 291.938 181.285C292.255 181.841 292.07 182.545 291.513 182.87L285.767 186.187C285.581 186.296 285.388 186.342 285.187 186.342Z" fill="white"/>
<path d="M272.134 188.863C271.631 188.863 271.167 188.531 271.02 188.028C270.208 185.205 267.386 183.318 264.316 183.566C262.174 183.736 260.434 184.78 259.428 186.512C259.104 187.069 258.392 187.255 257.843 186.93C257.286 186.605 257.101 185.901 257.425 185.345C258.81 182.963 261.261 181.478 264.138 181.254C268.306 180.929 272.134 183.512 273.255 187.386C273.433 188.005 273.077 188.647 272.459 188.825C272.351 188.855 272.242 188.871 272.134 188.871V188.863Z" fill="white"/>
<path d="M272.891 200.277C272.365 200.277 271.885 199.914 271.762 199.38C271.615 198.754 272.001 198.135 272.628 197.988C274.801 197.478 276.463 194.563 276.293 192.536C276.131 190.619 274.337 189.072 272.032 188.863C271.39 188.801 270.926 188.237 270.981 187.603C271.042 186.961 271.615 186.497 272.241 186.551C275.675 186.86 278.35 189.296 278.606 192.343C278.861 195.351 276.533 199.458 273.161 200.254C273.069 200.277 272.984 200.285 272.898 200.285L272.891 200.277Z" fill="white"/>
<path d="M250.634 204.469C246.66 204.469 244.193 201.221 243.559 197.965C242.878 194.493 244.154 190.24 248.546 189.095C249.165 188.933 249.799 189.304 249.962 189.923C250.124 190.541 249.753 191.175 249.134 191.338C246.172 192.111 245.345 195.003 245.832 197.524C246.335 200.1 248.237 202.52 251.338 202.11C251.972 202.033 252.56 202.474 252.637 203.108C252.715 203.742 252.274 204.33 251.64 204.407C251.292 204.453 250.952 204.476 250.627 204.476L250.634 204.469Z" fill="white"/>
<path d="M248.82 191.376C248.247 191.376 247.752 190.951 247.675 190.371C247.629 190.008 247.598 189.636 247.598 189.273C247.598 187.162 248.936 185.051 251.186 183.628C254.109 181.772 257.744 181.486 260.682 182.862C261.262 183.133 261.51 183.829 261.239 184.409C260.968 184.989 260.272 185.236 259.692 184.966C257.032 183.713 254.202 184.463 252.431 185.584C250.861 186.582 249.918 187.958 249.918 189.273C249.918 189.536 249.933 189.799 249.972 190.062C250.057 190.696 249.608 191.284 248.974 191.369C248.92 191.369 248.874 191.376 248.82 191.376Z" fill="white"/>
<path d="M247.681 211.746C247.681 211.746 247.642 211.746 247.619 211.746C246.977 211.715 246.49 211.166 246.521 210.524C246.769 205.93 249.444 202.628 251.958 201.739C252.367 201.592 252.777 201.484 253.195 201.406C253.821 201.283 254.432 201.708 254.548 202.334C254.664 202.961 254.247 203.572 253.62 203.688C253.326 203.742 253.025 203.819 252.731 203.927C251.238 204.461 249.042 206.897 248.833 210.655C248.802 211.274 248.284 211.753 247.673 211.753L247.681 211.746Z" fill="white"/>
<path d="M252.305 198.445C251.678 198.445 251.168 197.95 251.145 197.315C251.129 196.674 251.632 196.14 252.274 196.125C253.511 196.086 254.555 195.15 254.749 193.897C254.865 193.132 254.648 192.374 254.153 191.802C253.728 191.322 253.774 190.588 254.261 190.162C254.741 189.737 255.475 189.791 255.901 190.271C256.852 191.353 257.27 192.807 257.053 194.245C256.69 196.604 254.71 198.367 252.351 198.437C252.344 198.437 252.328 198.437 252.32 198.437L252.305 198.445Z" fill="white"/>
<path d="M258.482 199.852C257.523 199.852 256.572 199.519 255.814 198.87C254.577 197.818 254.121 196.179 254.592 194.477C254.763 193.859 255.404 193.495 256.023 193.673C256.642 193.843 257.005 194.485 256.827 195.104C256.518 196.225 256.998 196.844 257.315 197.114C257.84 197.563 258.591 197.663 259.217 197.377C259.805 197.114 260.485 197.37 260.756 197.95C261.027 198.53 260.771 199.218 260.184 199.488C259.642 199.736 259.055 199.86 258.475 199.86L258.482 199.852Z" fill="white"/>
<path d="M264.778 195.212C264.693 195.212 264.608 195.204 264.522 195.181C263.896 195.042 263.502 194.416 263.649 193.797C263.842 192.939 263.316 192.041 262.388 191.663C261.8 191.423 261.159 191.431 260.617 191.693C260.037 191.964 259.349 191.717 259.071 191.137C258.8 190.557 259.047 189.868 259.627 189.59C260.756 189.056 262.086 189.033 263.27 189.513C265.249 190.317 266.363 192.335 265.914 194.3C265.791 194.841 265.311 195.204 264.785 195.204L264.778 195.212Z" fill="white"/>
<path d="M264.871 192.436C264.199 192.436 263.503 192.258 262.83 191.895C262.265 191.585 262.056 190.882 262.366 190.325C262.675 189.76 263.379 189.551 263.936 189.861C264.562 190.201 265.188 190.209 265.637 189.868C266 189.598 266.171 189.173 266.085 188.747C265.954 188.121 266.356 187.51 266.99 187.378C267.617 187.247 268.228 187.649 268.359 188.283C268.63 189.598 268.119 190.92 267.021 191.732C266.387 192.204 265.645 192.444 264.871 192.444V192.436Z" fill="white"/>
<path d="M252.01 213.184C252.01 213.184 251.963 213.184 251.94 213.184C251.298 213.146 250.811 212.596 250.85 211.955C251.151 207.021 255.026 203.958 260.98 203.958H261.939C264.074 203.958 267.646 203.958 268.512 203.966C269.773 203.989 271.961 203.703 272.317 201.569C272.418 200.973 272.302 200.448 271.977 200.015C271.528 199.404 270.678 198.978 269.649 198.839C268.969 198.793 268.265 198.986 267.809 199.396C267.6 199.581 267.345 199.891 267.322 200.324C267.291 200.966 266.726 201.437 266.1 201.422C265.458 201.391 264.971 200.842 265.002 200.2C265.056 199.233 265.504 198.329 266.27 197.648C267.206 196.821 268.489 196.426 269.881 196.527C271.621 196.759 273.005 197.501 273.833 198.63C274.537 199.581 274.8 200.726 274.591 201.948C274.134 204.67 271.907 206.286 268.628 206.286C268.574 206.286 268.512 206.286 268.458 206.286C267.608 206.271 263.911 206.271 261.924 206.278H260.965C256.294 206.278 253.371 208.451 253.154 212.102C253.116 212.72 252.605 213.192 251.994 213.192L252.01 213.184Z" fill="white"/>
<path d="M248.841 191.369C248.307 191.369 247.836 191.005 247.712 190.464C247.573 189.837 247.959 189.219 248.586 189.08C249.436 188.886 249.985 188.824 250.797 188.84C251.439 188.855 251.95 189.381 251.934 190.023C251.919 190.665 251.385 191.183 250.751 191.16C250.148 191.144 249.753 191.191 249.096 191.338C249.011 191.361 248.926 191.369 248.841 191.369Z" fill="white"/>
<path d="M272.225 191.639C272.163 191.639 272.093 191.639 272.032 191.624C271.397 191.516 270.972 190.92 271.08 190.286C271.22 189.459 271.243 188.91 271.003 187.997C270.841 187.378 271.212 186.744 271.83 186.582C272.449 186.419 273.083 186.791 273.246 187.409C273.586 188.701 273.539 189.621 273.362 190.673C273.269 191.237 272.774 191.639 272.217 191.639H272.225Z" fill="white"/>
</g>
<g clip-path="url(#clip3_1137_269)">
<path d="M264.925 14.0048C263.672 13.4557 262.265 13.6955 261.267 14.6312L246.605 28.2571C246.466 28.3886 246.288 28.4581 246.095 28.4581H232.461C230.574 28.4581 229.035 29.9971 229.035 31.884V48.116C229.035 50.0029 230.574 51.5418 232.461 51.5418H246.102C246.288 51.5418 246.474 51.6114 246.613 51.7428L261.275 65.3687C261.924 65.9719 262.736 66.2813 263.564 66.2813C264.02 66.2813 264.484 66.1885 264.933 65.9951C266.185 65.4461 266.967 64.2552 266.967 62.8864V17.1135C266.967 15.7448 266.185 14.5538 264.933 14.0048H264.925ZM264.291 62.8864C264.291 63.3117 263.989 63.4896 263.858 63.5437C263.726 63.5978 263.394 63.6984 263.077 63.4122L248.415 49.7863C247.78 49.1986 246.953 48.8738 246.087 48.8738H232.461C232.043 48.8738 231.703 48.5335 231.703 48.116V31.884C231.703 31.4664 232.043 31.1261 232.461 31.1261H246.102C246.968 31.1261 247.796 30.8013 248.43 30.2136L263.092 16.5877C263.402 16.3016 263.742 16.4021 263.873 16.4562C264.005 16.5103 264.306 16.6882 264.306 17.1135V62.8864H264.291Z" fill="white"/>
<path d="M293.618 41.3571H273.674C272.924 41.3571 272.321 40.7539 272.321 40.0038C272.321 39.2537 272.924 38.6505 273.674 38.6505H293.618C294.368 38.6505 294.971 39.2537 294.971 40.0038C294.971 40.7539 294.368 41.3571 293.618 41.3571Z" fill="white"/>
<path d="M273.672 29.1851C274.407 28.4504 287.777 15.0797 287.777 15.0797Z" fill="white"/>
<path d="M273.674 30.5384C273.326 30.5384 272.978 30.4069 272.715 30.144C272.189 29.6181 272.189 28.7597 272.715 28.2339C273.45 27.4992 286.82 14.1362 286.82 14.1362L288.73 16.0463C288.73 16.0463 275.36 29.417 274.625 30.1517C274.362 30.4146 274.014 30.5461 273.666 30.5461L273.674 30.5384Z" fill="white"/>
<path d="M273.676 50.8147L287.781 64.9201Z" fill="white"/>
<path d="M287.771 66.2735C287.423 66.2735 287.075 66.142 286.812 65.8791L272.707 51.7737C272.181 51.2479 272.181 50.3895 272.707 49.8636C273.233 49.3378 274.091 49.3378 274.617 49.8636L288.722 63.969C289.248 64.4949 289.248 65.3532 288.722 65.8791C288.459 66.142 288.111 66.2735 287.763 66.2735H287.771Z" fill="white"/>
</g>
<rect x="188" y="264" width="145" height="34" rx="17" fill="url(#paint0_linear_1137_269)"/>
<path d="M205.002 286V275.395H209.06C211.359 275.395 212.502 276.566 212.502 278.148C212.502 279.438 211.682 280.155 210.642 280.404V280.507C211.77 280.565 212.912 281.503 212.912 283.114C212.912 284.77 211.726 286 209.294 286H205.002ZM209.001 284.403C210.393 284.403 210.979 283.803 210.979 282.968C210.979 282.016 210.232 281.283 209.045 281.283H206.906V284.403H209.001ZM208.825 279.906C209.836 279.906 210.598 279.32 210.598 278.383C210.598 277.562 210.012 276.977 208.869 276.977H206.906V279.906H208.825ZM214.077 286V278.046H215.893V279.364H215.981C216.26 278.456 217.036 277.929 217.944 277.929C218.149 277.929 218.442 277.943 218.618 277.973V279.701C218.457 279.643 218.061 279.584 217.754 279.584C216.714 279.584 215.952 280.302 215.952 281.312V286H214.077ZM218.919 283.759C218.919 281.972 220.398 281.444 221.878 281.356C222.427 281.32 223.57 281.254 223.914 281.239V280.609C223.914 279.818 223.401 279.364 222.478 279.364C221.643 279.364 221.131 279.745 220.984 280.316H219.182C219.314 278.969 220.53 277.943 222.522 277.943C224.031 277.943 225.774 278.559 225.774 280.683V286H223.987V284.901H223.928C223.577 285.575 222.83 286.161 221.585 286.161C220.061 286.161 218.919 285.326 218.919 283.759ZM220.72 283.744C220.72 284.433 221.277 284.784 222.068 284.784C223.196 284.784 223.928 284.037 223.928 283.144V282.484L222.171 282.602C221.277 282.675 220.72 283.041 220.72 283.744ZM227.232 286V278.046H229.107V286H227.232ZM228.184 276.918C227.598 276.918 227.1 276.464 227.1 275.893C227.1 275.336 227.598 274.882 228.184 274.882C228.785 274.882 229.268 275.336 229.268 275.893C229.268 276.464 228.785 276.918 228.184 276.918ZM232.469 281.342V286H230.594V278.046H232.381V279.394H232.484C232.85 278.5 233.656 277.943 234.842 277.943C236.497 277.943 237.581 279.027 237.567 280.932V286H235.706V281.225C235.706 280.155 235.135 279.525 234.154 279.525C233.158 279.525 232.469 280.185 232.469 281.342ZM248.173 278.31C248.085 277.401 247.308 276.874 246.166 276.874C244.965 276.874 244.232 277.46 244.232 278.251C244.232 279.145 245.17 279.511 246.049 279.716L247.045 279.979C248.627 280.346 250.15 281.181 250.15 283.026C250.15 284.887 248.685 286.161 246.137 286.161C243.661 286.161 242.108 284.975 242.02 282.88H243.895C243.983 283.993 244.921 284.535 246.122 284.535C247.382 284.535 248.246 283.92 248.246 283.012C248.246 282.177 247.47 281.825 246.327 281.532L245.126 281.225C243.383 280.771 242.299 279.892 242.299 278.368C242.299 276.493 243.969 275.248 246.195 275.248C248.451 275.248 249.975 276.522 250.004 278.31H248.173ZM255.314 278.046V279.481H253.747V283.612C253.747 284.374 254.128 284.535 254.596 284.535C254.816 284.535 255.182 284.521 255.417 284.506V286.029C255.197 286.073 254.831 286.103 254.362 286.103C252.956 286.103 251.872 285.414 251.886 283.92V279.481H250.744V278.046H251.886V276.142H253.747V278.046H255.314ZM256.45 286V278.046H258.325V286H256.45ZM257.402 276.918C256.816 276.918 256.318 276.464 256.318 275.893C256.318 275.336 256.816 274.882 257.402 274.882C258.002 274.882 258.486 275.336 258.486 275.893C258.486 276.464 258.002 276.918 257.402 276.918ZM259.812 286V278.046H261.599V279.394H261.701C262.024 278.485 262.829 277.943 263.884 277.943C264.968 277.943 265.73 278.485 266.037 279.394H266.125C266.477 278.515 267.356 277.943 268.513 277.943C269.963 277.943 270.989 278.881 270.989 280.653V286H269.128V280.946C269.128 279.95 268.528 279.511 267.766 279.511C266.843 279.511 266.316 280.141 266.316 281.034V286H264.499V280.873C264.499 280.053 263.943 279.511 263.152 279.511C262.346 279.511 261.687 280.17 261.687 281.166V286H259.812ZM277.559 282.66V278.046H279.419V286H277.617V284.594H277.529C277.163 285.473 276.328 286.103 275.142 286.103C273.574 286.103 272.49 285.019 272.476 283.114V278.046H274.351V282.821C274.351 283.832 274.951 284.477 275.859 284.477C276.68 284.477 277.559 283.876 277.559 282.66ZM282.781 275.395V286H280.906V275.395H282.781ZM283.902 283.759C283.902 281.972 285.382 281.444 286.861 281.356C287.41 281.32 288.553 281.254 288.897 281.239V280.609C288.897 279.818 288.384 279.364 287.462 279.364C286.627 279.364 286.114 279.745 285.967 280.316H284.166C284.298 278.969 285.513 277.943 287.506 277.943C289.014 277.943 290.758 278.559 290.758 280.683V286H288.97V284.901H288.912C288.56 285.575 287.813 286.161 286.568 286.161C285.045 286.161 283.902 285.326 283.902 283.759ZM285.704 283.744C285.704 284.433 286.26 284.784 287.051 284.784C288.179 284.784 288.912 284.037 288.912 283.144V282.484L287.154 282.602C286.26 282.675 285.704 283.041 285.704 283.744ZM296.185 278.046V279.481H294.618V283.612C294.618 284.374 294.999 284.535 295.467 284.535C295.687 284.535 296.053 284.521 296.288 284.506V286.029C296.068 286.073 295.702 286.103 295.233 286.103C293.827 286.103 292.743 285.414 292.757 283.92V279.481H291.615V278.046H292.757V276.142H294.618V278.046H296.185ZM297.321 286V278.046H299.196V286H297.321ZM298.273 276.918C297.687 276.918 297.189 276.464 297.189 275.893C297.189 275.336 297.687 274.882 298.273 274.882C298.873 274.882 299.357 275.336 299.357 275.893C299.357 276.464 298.873 276.918 298.273 276.918ZM304.154 286.161C301.84 286.161 300.346 284.521 300.346 282.06C300.346 279.584 301.84 277.943 304.154 277.943C306.483 277.943 307.963 279.584 307.963 282.06C307.963 284.521 306.483 286.161 304.154 286.161ZM304.169 284.667C305.443 284.667 306.073 283.51 306.073 282.045C306.073 280.595 305.443 279.423 304.169 279.423C302.865 279.423 302.235 280.595 302.235 282.045C302.235 283.51 302.865 284.667 304.169 284.667ZM310.988 281.342V286H309.113V278.046H310.9V279.394H311.003C311.369 278.5 312.175 277.943 313.361 277.943C315.017 277.943 316.1 279.027 316.086 280.932V286H314.225V281.225C314.225 280.155 313.654 279.525 312.673 279.525C311.677 279.525 310.988 280.185 310.988 281.342Z" fill="white"/>
<rect y="264" width="125" height="34" rx="17" fill="url(#paint1_linear_1137_269)"/>
<path d="M18.4504 275.395L21.2043 283.759H21.3215L24.09 275.395H26.1848L22.4348 286H20.091L16.3557 275.395H18.4504ZM27.0566 286V278.046H28.9316V286H27.0566ZM28.0088 276.918C27.4229 276.918 26.9248 276.464 26.9248 275.893C26.9248 275.336 27.4229 274.882 28.0088 274.882C28.6094 274.882 29.0928 275.336 29.0928 275.893C29.0928 276.464 28.6094 276.918 28.0088 276.918ZM30.5066 286V275.395H32.3816V279.35H32.4549C32.7479 278.778 33.3191 277.943 34.7254 277.943C36.5711 277.943 38.0213 279.379 38.0213 282.03C38.0213 284.652 36.6004 286.146 34.74 286.146C33.3631 286.146 32.7479 285.326 32.4549 284.74H32.3377V286H30.5066ZM32.3377 282.016C32.3377 283.568 33.0115 284.608 34.2127 284.608C35.4578 284.608 36.117 283.524 36.117 282.016C36.117 280.536 35.4725 279.467 34.2127 279.467C33.0115 279.467 32.3377 280.478 32.3377 282.016ZM39.1861 286V278.046H41.0025V279.364H41.0904C41.3687 278.456 42.1451 277.929 43.0533 277.929C43.2584 277.929 43.5514 277.943 43.7271 277.973V279.701C43.566 279.643 43.1705 279.584 42.8629 279.584C41.8229 279.584 41.0611 280.302 41.0611 281.312V286H39.1861ZM47.7484 286.161C45.434 286.161 43.9398 284.521 43.9398 282.06C43.9398 279.584 45.434 277.943 47.7484 277.943C50.0775 277.943 51.557 279.584 51.557 282.06C51.557 284.521 50.0775 286.161 47.7484 286.161ZM47.7631 284.667C49.0375 284.667 49.6674 283.51 49.6674 282.045C49.6674 280.595 49.0375 279.423 47.7631 279.423C46.4594 279.423 45.8295 280.595 45.8295 282.045C45.8295 283.51 46.4594 284.667 47.7631 284.667ZM52.341 283.759C52.341 281.972 53.8205 281.444 55.3 281.356C55.8493 281.32 56.9919 281.254 57.3361 281.239V280.609C57.3361 279.818 56.8234 279.364 55.9006 279.364C55.0656 279.364 54.5529 279.745 54.4064 280.316H52.6047C52.7365 278.969 53.9523 277.943 55.9445 277.943C57.4533 277.943 59.1965 278.559 59.1965 280.683V286H57.4094V284.901H57.3508C56.9992 285.575 56.2521 286.161 55.007 286.161C53.4836 286.161 52.341 285.326 52.341 283.759ZM54.1428 283.744C54.1428 284.433 54.6994 284.784 55.4904 284.784C56.6184 284.784 57.3508 284.037 57.3508 283.144V282.484L55.593 282.602C54.6994 282.675 54.1428 283.041 54.1428 283.744ZM64.126 286.161C61.7529 286.161 60.3174 284.462 60.3174 282.06C60.3174 279.628 61.7969 277.943 64.126 277.943C66.0596 277.943 67.4072 279.071 67.5391 280.785H65.752C65.6055 280.023 65.0488 279.438 64.1406 279.438C62.9834 279.438 62.207 280.419 62.207 282.016C62.207 283.656 62.9688 284.638 64.1406 284.638C64.9756 284.638 65.5908 284.154 65.752 283.29H67.5391C67.3926 284.975 66.1182 286.161 64.126 286.161ZM72.117 286.161C69.8025 286.161 68.3084 284.521 68.3084 282.06C68.3084 279.584 69.8025 277.943 72.117 277.943C74.4461 277.943 75.9256 279.584 75.9256 282.06C75.9256 284.521 74.4461 286.161 72.117 286.161ZM72.1316 284.667C73.4061 284.667 74.0359 283.51 74.0359 282.045C74.0359 280.595 73.4061 279.423 72.1316 279.423C70.8279 279.423 70.198 280.595 70.198 282.045C70.198 283.51 70.8279 284.667 72.1316 284.667ZM82.1588 282.66V278.046H84.0191V286H82.2174V284.594H82.1295C81.7633 285.473 80.9283 286.103 79.7418 286.103C78.1744 286.103 77.0904 285.019 77.0758 283.114V278.046H78.9508V282.821C78.9508 283.832 79.5514 284.477 80.4596 284.477C81.2799 284.477 82.1588 283.876 82.1588 282.66ZM90.018 280.316C89.9008 279.716 89.4027 279.335 88.6117 279.335C87.8061 279.335 87.2201 279.73 87.2348 280.272C87.2201 280.683 87.557 280.99 88.3627 281.181L89.7104 281.459C91.2191 281.796 91.9369 282.484 91.9516 283.627C91.9369 285.121 90.6332 286.161 88.5531 286.161C86.5316 286.161 85.3305 285.253 85.14 283.729H87.0443C87.1615 284.403 87.6889 284.74 88.5531 284.74C89.4467 284.74 90.0473 284.374 90.0473 283.788C90.0473 283.334 89.6811 283.041 88.89 282.865L87.6156 282.587C86.1361 282.294 85.3744 281.518 85.3744 280.375C85.3744 278.91 86.6342 277.943 88.5824 277.943C90.4867 277.943 91.6586 278.866 91.7904 280.316H90.018ZM97.0422 278.046V279.481H95.4748V283.612C95.4748 284.374 95.8557 284.535 96.3244 284.535C96.5441 284.535 96.9104 284.521 97.1447 284.506V286.029C96.925 286.073 96.5588 286.103 96.09 286.103C94.6838 286.103 93.5998 285.414 93.6145 283.92V279.481H92.4719V278.046H93.6145V276.142H95.4748V278.046H97.0422ZM98.1777 286V278.046H100.053V286H98.1777ZM99.1299 276.918C98.5439 276.918 98.0459 276.464 98.0459 275.893C98.0459 275.336 98.5439 274.882 99.1299 274.882C99.7305 274.882 100.214 275.336 100.214 275.893C100.214 276.464 99.7305 276.918 99.1299 276.918ZM105.012 286.161C102.638 286.161 101.203 284.462 101.203 282.06C101.203 279.628 102.682 277.943 105.012 277.943C106.945 277.943 108.293 279.071 108.425 280.785H106.637C106.491 280.023 105.934 279.438 105.026 279.438C103.869 279.438 103.093 280.419 103.093 282.016C103.093 283.656 103.854 284.638 105.026 284.638C105.861 284.638 106.476 284.154 106.637 283.29H108.425C108.278 284.975 107.004 286.161 105.012 286.161Z" fill="white"/>
<rect y="88" width="94" height="34" rx="17" fill="url(#paint2_linear_1137_269)"/>
<path d="M18.8665 99.3945L21.6204 107.759H21.7376L24.5062 99.3945H26.6009L22.8509 110H20.5071L16.7718 99.3945H18.8665ZM27.4728 110V102.046H29.3478V110H27.4728ZM28.4249 100.918C27.839 100.918 27.3409 100.464 27.3409 99.8926C27.3409 99.3359 27.839 98.8818 28.4249 98.8818C29.0255 98.8818 29.5089 99.3359 29.5089 99.8926C29.5089 100.464 29.0255 100.918 28.4249 100.918ZM30.9228 110V99.3945H32.7978V103.35H32.871C33.164 102.778 33.7353 101.943 35.1415 101.943C36.9872 101.943 38.4374 103.379 38.4374 106.03C38.4374 108.652 37.0165 110.146 35.1562 110.146C33.7792 110.146 33.164 109.326 32.871 108.74H32.7538V110H30.9228ZM32.7538 106.016C32.7538 107.568 33.4276 108.608 34.6288 108.608C35.8739 108.608 36.5331 107.524 36.5331 106.016C36.5331 104.536 35.8886 103.467 34.6288 103.467C33.4276 103.467 32.7538 104.478 32.7538 106.016ZM39.6022 110V102.046H41.4187V103.364H41.5065C41.7849 102.456 42.5612 101.929 43.4694 101.929C43.6745 101.929 43.9675 101.943 44.1433 101.973V103.701C43.9821 103.643 43.5866 103.584 43.279 103.584C42.239 103.584 41.4772 104.302 41.4772 105.312V110H39.6022ZM44.4438 107.759C44.4438 105.972 45.9233 105.444 47.4028 105.356C47.9521 105.32 49.0947 105.254 49.439 105.239V104.609C49.439 103.818 48.9263 103.364 48.0034 103.364C47.1685 103.364 46.6558 103.745 46.5093 104.316H44.7075C44.8394 102.969 46.0552 101.943 48.0474 101.943C49.5562 101.943 51.2993 102.559 51.2993 104.683V110H49.5122V108.901H49.4536C49.1021 109.575 48.355 110.161 47.1099 110.161C45.5864 110.161 44.4438 109.326 44.4438 107.759ZM46.2456 107.744C46.2456 108.433 46.8022 108.784 47.5933 108.784C48.7212 108.784 49.4536 108.037 49.4536 107.144V106.484L47.6958 106.602C46.8022 106.675 46.2456 107.041 46.2456 107.744ZM56.7269 102.046V103.481H55.1595V107.612C55.1595 108.374 55.5403 108.535 56.0091 108.535C56.2288 108.535 56.595 108.521 56.8294 108.506V110.029C56.6097 110.073 56.2435 110.103 55.7747 110.103C54.3685 110.103 53.2845 109.414 53.2991 107.92V103.481H52.1565V102.046H53.2991V100.142H55.1595V102.046H56.7269ZM57.8624 110V102.046H59.7374V110H57.8624ZM58.8146 100.918C58.2286 100.918 57.7306 100.464 57.7306 99.8926C57.7306 99.3359 58.2286 98.8818 58.8146 98.8818C59.4151 98.8818 59.8985 99.3359 59.8985 99.8926C59.8985 100.464 59.4151 100.918 58.8146 100.918ZM64.6962 110.161C62.3817 110.161 60.8876 108.521 60.8876 106.06C60.8876 103.584 62.3817 101.943 64.6962 101.943C67.0253 101.943 68.5048 103.584 68.5048 106.06C68.5048 108.521 67.0253 110.161 64.6962 110.161ZM64.7108 108.667C65.9853 108.667 66.6151 107.51 66.6151 106.045C66.6151 104.595 65.9853 103.423 64.7108 103.423C63.4071 103.423 62.7772 104.595 62.7772 106.045C62.7772 107.51 63.4071 108.667 64.7108 108.667ZM71.53 105.342V110H69.655V102.046H71.4421V103.394H71.5446C71.9108 102.5 72.7165 101.943 73.903 101.943C75.5583 101.943 76.6423 103.027 76.6276 104.932V110H74.7673V105.225C74.7673 104.155 74.196 103.525 73.2146 103.525C72.2185 103.525 71.53 104.185 71.53 105.342Z" fill="white"/>
<rect x="224" y="88" width="76" height="34" rx="17" fill="url(#paint3_linear_1137_269)"/>
<path d="M247.043 102.31C246.955 101.401 246.179 100.874 245.037 100.874C243.835 100.874 243.103 101.46 243.103 102.251C243.103 103.145 244.04 103.511 244.919 103.716L245.915 103.979C247.497 104.346 249.021 105.181 249.021 107.026C249.021 108.887 247.556 110.161 245.007 110.161C242.532 110.161 240.979 108.975 240.891 106.88H242.766C242.854 107.993 243.791 108.535 244.993 108.535C246.252 108.535 247.117 107.92 247.117 107.012C247.117 106.177 246.34 105.825 245.198 105.532L243.996 105.225C242.253 104.771 241.169 103.892 241.169 102.368C241.169 100.493 242.839 99.248 245.066 99.248C247.322 99.248 248.845 100.522 248.874 102.31H247.043ZM253.687 110.161C251.372 110.161 249.878 108.521 249.878 106.06C249.878 103.584 251.372 101.943 253.687 101.943C256.016 101.943 257.495 103.584 257.495 106.06C257.495 108.521 256.016 110.161 253.687 110.161ZM253.701 108.667C254.976 108.667 255.606 107.51 255.606 106.045C255.606 104.595 254.976 103.423 253.701 103.423C252.398 103.423 251.768 104.595 251.768 106.045C251.768 107.51 252.398 108.667 253.701 108.667ZM263.729 106.66V102.046H265.589V110H263.787V108.594H263.699C263.333 109.473 262.498 110.103 261.312 110.103C259.744 110.103 258.66 109.019 258.646 107.114V102.046H260.521V106.821C260.521 107.832 261.121 108.477 262.029 108.477C262.85 108.477 263.729 107.876 263.729 106.66ZM268.951 105.342V110H267.076V102.046H268.863V103.394H268.966C269.332 102.5 270.138 101.943 271.324 101.943C272.979 101.943 274.063 103.027 274.049 104.932V110H272.188V105.225C272.188 104.155 271.617 103.525 270.636 103.525C269.639 103.525 268.951 104.185 268.951 105.342ZM278.495 110.146C276.62 110.146 275.213 108.652 275.213 106.03C275.213 103.379 276.664 101.943 278.509 101.943C279.916 101.943 280.502 102.778 280.78 103.35H280.853V99.3945H282.713V110H280.882V108.74H280.78C280.487 109.326 279.872 110.146 278.495 110.146ZM279.007 108.608C280.209 108.608 280.897 107.568 280.897 106.016C280.897 104.478 280.223 103.467 279.007 103.467C277.762 103.467 277.118 104.536 277.118 106.016C277.118 107.524 277.777 108.608 279.007 108.608Z" fill="white"/>
<path d="M132.332 39.9999H169.665M150.999 21.3333V58.6666" stroke="white" stroke-width="3" stroke-linecap="round" stroke-linejoin="round"/>
<path d="M130.516 179.44C130.192 179.44 129.86 179.565 129.612 179.806C129.114 180.29 129.114 181.081 129.612 181.565L146.633 198.126L129.86 214.438C129.363 214.922 129.363 215.714 129.86 216.197C130.358 216.681 131.171 216.681 131.669 216.197L149.346 199.006C149.843 198.522 149.843 197.731 149.346 197.247L131.42 179.806C131.171 179.565 130.84 179.44 130.516 179.44L130.516 179.44Z" fill="white"/>
<path d="M153.559 179.44C153.235 179.44 152.903 179.565 152.655 179.806C152.157 180.29 152.157 181.081 152.655 181.565L169.676 198.126L152.903 214.438C152.406 214.922 152.406 215.714 152.903 216.197C153.401 216.681 154.214 216.681 154.712 216.197L172.389 199.006C172.886 198.522 172.886 197.731 172.389 197.247L154.463 179.806C154.214 179.565 153.883 179.44 153.559 179.44L153.559 179.44Z" fill="white"/>
<path d="M18.2274 229.039C17.8794 229.039 17.5314 228.907 17.2685 228.644L7.31587 218.692C7.06068 218.436 6.92148 218.096 6.92148 217.733C6.92148 217.369 7.06068 217.029 7.31587 216.774L16.472 207.618L7.27721 198.423C6.75135 197.897 6.75135 197.039 7.27721 196.513L16.1781 187.612L7.40867 178.842C7.14574 178.587 7.00654 178.231 7.01428 177.86C7.01428 177.497 7.17667 177.149 7.44734 176.894L17.2066 167.776C17.7557 167.266 18.6064 167.297 19.1167 167.838C19.6271 168.387 19.5962 169.238 19.0549 169.748L10.3164 177.907L19.0549 186.645C19.5807 187.171 19.5807 188.029 19.0549 188.555L10.154 197.456L19.3487 206.651C19.8746 207.177 19.8746 208.035 19.3487 208.561L10.1926 217.717L19.1941 226.711C19.7199 227.237 19.7199 228.095 19.1941 228.621C18.9311 228.884 18.5832 229.015 18.2352 229.015L18.2274 229.039Z" fill="white"/>
<path d="M31.7821 229.039C31.4341 229.039 31.0861 228.907 30.8232 228.644L20.8706 218.692C20.6154 218.436 20.4762 218.096 20.4762 217.733C20.4762 217.369 20.6154 217.029 20.8706 216.774L30.0267 207.618L20.8319 198.423C20.306 197.897 20.306 197.039 20.8319 196.513L29.7328 187.612L20.9634 178.842C20.7004 178.587 20.5612 178.231 20.569 177.86C20.569 177.497 20.7314 177.149 21.002 176.894L30.7613 167.776C31.3104 167.266 32.161 167.297 32.6714 167.838C33.1818 168.387 33.1509 169.238 32.6096 169.748L23.871 177.907L32.6096 186.645C33.1354 187.171 33.1354 188.029 32.6096 188.555L23.7086 197.456L32.9034 206.651C33.4293 207.177 33.4293 208.035 32.9034 208.561L23.7473 217.717L32.7488 226.711C33.2746 227.237 33.2746 228.095 32.7488 228.621C32.4858 228.884 32.1378 229.015 31.7898 229.015L31.7821 229.039Z" fill="white"/>
<path d="M45.3329 229.039C44.9849 229.039 44.6369 228.907 44.374 228.644L34.4213 218.692C34.1661 218.436 34.0269 218.096 34.0269 217.733C34.0269 217.369 34.1661 217.029 34.4213 216.774L43.5775 207.618L34.3827 198.423C33.8568 197.897 33.8568 197.039 34.3827 196.513L43.2836 187.612L34.5141 178.842C34.2512 178.587 34.112 178.231 34.1197 177.86C34.1197 177.497 34.2821 177.149 34.5528 176.894L44.3121 167.776C44.8612 167.266 45.7118 167.297 46.2222 167.838C46.7326 168.387 46.7017 169.238 46.1603 169.748L37.4218 177.907L46.1603 186.645C46.4155 186.9 46.5547 187.241 46.5547 187.604C46.5547 187.967 46.4155 188.308 46.1603 188.563L37.2594 197.464L46.4542 206.659C46.9801 207.185 46.9801 208.043 46.4542 208.569L37.2981 217.725L46.2995 226.719C46.8254 227.244 46.8254 228.103 46.2995 228.629C46.0366 228.892 45.6886 229.023 45.3406 229.023L45.3329 229.039Z" fill="white"/>
<path d="M73.6332 199.583H53.6892C52.9391 199.583 52.3359 198.979 52.3359 198.229C52.3359 197.479 52.9391 196.876 53.6892 196.876H73.6332C74.3833 196.876 74.9865 197.479 74.9865 198.229C74.9865 198.979 74.3833 199.583 73.6332 199.583Z" fill="white"/>
<path d="M53.6914 187.411C54.4261 186.676 67.7968 173.305 67.7968 173.305Z" fill="white"/>
<path d="M53.6892 188.764C53.3413 188.764 52.9933 188.632 52.7303 188.37C52.2045 187.844 52.2045 186.985 52.7303 186.459L66.828 172.362L68.7381 174.272C68.7381 174.272 55.3674 187.643 54.6327 188.377C54.3698 188.64 54.0218 188.772 53.6738 188.772L53.6892 188.764Z" fill="white"/>
<path d="M53.6914 209.04L67.7968 223.146Z" fill="white"/>
<path d="M67.7907 224.499C67.4427 224.499 67.0947 224.368 66.8318 224.105L52.7264 209.999C52.2006 209.473 52.2006 208.615 52.7264 208.089C53.2523 207.563 54.1107 207.563 54.6365 208.089L68.7419 222.195C69.2677 222.72 69.2677 223.579 68.7419 224.105C68.479 224.368 68.131 224.499 67.783 224.499H67.7907Z" fill="white"/>
<defs>
<linearGradient id="paint0_linear_1137_269" x1="333" y1="281" x2="188" y2="281" gradientUnits="userSpaceOnUse">
<stop stop-color="#56387E"/>
<stop offset="1" stop-color="#23295B"/>
</linearGradient>
<linearGradient id="paint1_linear_1137_269" x1="125" y1="281" x2="0" y2="281" gradientUnits="userSpaceOnUse">
<stop stop-color="#56387E"/>
<stop offset="1" stop-color="#23295B"/>
</linearGradient>
<linearGradient id="paint2_linear_1137_269" x1="94" y1="105" x2="0" y2="105" gradientUnits="userSpaceOnUse">
<stop stop-color="#56387E"/>
<stop offset="1" stop-color="#23295B"/>
</linearGradient>
<linearGradient id="paint3_linear_1137_269" x1="300" y1="105" x2="224" y2="105" gradientUnits="userSpaceOnUse">
<stop stop-color="#56387E"/>
<stop offset="1" stop-color="#23295B"/>
</linearGradient>
<clipPath id="clip0_1137_269">
<rect width="80" height="80" fill="white"/>
</clipPath>
<clipPath id="clip1_1137_269">
<rect width="80" height="80" fill="white"/>
</clipPath>
<clipPath id="clip2_1137_269">
<rect width="80" height="80" fill="white" transform="translate(221 158)"/>
</clipPath>
<clipPath id="clip3_1137_269">
<rect width="80" height="80" fill="white" transform="translate(222)"/>
</clipPath>
</defs>
</svg>
