<svg width="302" height="298" viewBox="0 0 302 298" fill="none" xmlns="http://www.w3.org/2000/svg">
<g clip-path="url(#clip0_1233_108)">
<g clip-path="url(#clip1_1233_108)">
<path d="M24.5829 70.8129C24.2349 70.8129 23.8869 70.6814 23.624 70.4185L13.6713 60.4659C13.1455 59.94 13.1455 59.0816 13.6713 58.5558L22.8275 49.3997L13.6327 40.2049C13.1068 39.679 13.1068 38.8206 13.6327 38.2948L22.5336 29.3939L13.7641 20.6244C13.5012 20.3692 13.362 20.0135 13.3697 19.6423C13.3697 19.2788 13.5321 18.9308 13.8028 18.6756L23.5621 9.5582C24.1112 9.04781 24.9618 9.07874 25.4722 9.62006C25.9826 10.1691 25.9517 11.0198 25.4103 11.5302L16.6718 19.6887L25.4103 28.4272C25.9362 28.9531 25.9362 29.8115 25.4103 30.3373L16.5094 39.2382L25.7042 48.433C26.2301 48.9589 26.2301 49.8173 25.7042 50.3431L16.5481 59.4992L25.5418 68.493C26.0677 69.0188 26.0677 69.8772 25.5418 70.4031C25.2789 70.666 24.9309 70.7975 24.5829 70.7975V70.8129Z" fill="white"/>
<path d="M38.1376 70.813C37.7896 70.813 37.4416 70.6815 37.1787 70.4186L27.226 60.4659C26.9708 60.2107 26.8316 59.8705 26.8316 59.507C26.8316 59.1436 26.9708 58.8033 27.226 58.5481L36.3821 49.392L27.1874 40.1972C26.6615 39.6713 26.6615 38.813 27.1874 38.2871L36.0883 29.3862L27.3188 20.6167C27.0559 20.3615 26.9167 20.0058 26.9244 19.6346C26.9244 19.2711 27.0868 18.9232 27.3575 18.668L37.1168 9.55051C37.6659 9.04012 38.5165 9.07105 39.0269 9.61237C39.5373 10.1614 39.5064 11.0121 38.965 11.5225L30.2265 19.681L38.965 28.4195C39.4909 28.9454 39.4909 29.8038 38.965 30.3296L30.0641 39.2305L39.2589 48.4253C39.7848 48.9512 39.7848 49.8096 39.2589 50.3354L30.1028 59.4915L39.1042 68.4853C39.6301 69.0111 39.6301 69.8695 39.1042 70.3954C38.8413 70.6583 38.4933 70.7898 38.1453 70.7898L38.1376 70.813Z" fill="white"/>
<path d="M51.6884 70.813C51.3404 70.813 50.9924 70.6815 50.7294 70.4186L40.7768 60.4659C40.5216 60.2107 40.3824 59.8705 40.3824 59.507C40.3824 59.1436 40.5216 58.8033 40.7768 58.5481L49.9329 49.392L40.7381 40.1972C40.2123 39.6713 40.2123 38.813 40.7381 38.2871L49.6391 29.3862L40.8696 20.6167C40.6067 20.3615 40.4675 20.0058 40.4752 19.6346C40.4752 19.2711 40.6376 18.9232 40.9083 18.668L50.6676 9.55051C51.2166 9.04012 52.0673 9.07105 52.5777 9.61237C53.0881 10.1614 53.0571 11.0121 52.5158 11.5225L43.7773 19.681L52.5158 28.4195C53.0417 28.9454 53.0417 29.8038 52.5158 30.3296L43.6149 39.2305L52.8097 48.4253C53.3355 48.9512 53.3355 49.8096 52.8097 50.3354L43.6536 59.4915L52.655 68.4853C53.1809 69.0111 53.1809 69.8695 52.655 70.3954C52.3921 70.6583 52.0441 70.7898 51.6961 70.7898L51.6884 70.813Z" fill="white"/>
<path d="M65.2431 70.813C64.8951 70.813 64.5471 70.6815 64.2841 70.4186L54.3315 60.4659C54.0763 60.2107 53.9371 59.8705 53.9371 59.507C53.9371 59.1436 54.0763 58.8033 54.3315 58.5481L63.4876 49.392L54.2928 40.1972C53.767 39.6713 53.767 38.813 54.2928 38.2871L63.1938 29.3862L54.4243 20.6167C54.1614 20.3615 54.0222 20.0058 54.0299 19.6346C54.0299 19.2711 54.1923 18.9232 54.463 18.668L64.2223 9.55051C64.7713 9.04012 65.622 9.07105 66.1324 9.61237C66.6428 10.1614 66.6118 11.0121 66.0705 11.5225L57.332 19.681L66.0705 28.4195C66.3257 28.6747 66.4649 29.015 66.4649 29.3784C66.4649 29.7419 66.3257 30.0822 66.0705 30.3374L57.1696 39.2383L66.3644 48.4331C66.8902 48.9589 66.8902 49.8173 66.3644 50.3432L57.2083 59.4993L66.2097 68.493C66.7356 69.0189 66.7356 69.8772 66.2097 70.4031C65.9468 70.666 65.5988 70.7975 65.2508 70.7975L65.2431 70.813Z" fill="white"/>
</g>
</g>
<g clip-path="url(#clip2_1233_108)">
<path d="M271.049 232.579C270.98 232.579 270.902 232.579 270.833 232.556C270.206 232.44 269.789 231.829 269.912 231.202L271.297 223.895C271.413 223.268 272.031 222.851 272.65 222.974C273.276 223.09 273.694 223.701 273.57 224.328L272.186 231.635C272.078 232.192 271.59 232.579 271.049 232.579Z" fill="white"/>
<path d="M245.553 232.579C245.437 232.579 245.321 232.563 245.197 232.525C244.586 232.331 244.254 231.674 244.447 231.071C246.72 223.956 246.233 219.68 242.591 214.723C240.178 211.367 236.984 206.162 236.984 199.659C236.984 193.155 239.807 186.458 244.733 181.88C249.729 177.24 256.24 174.959 263.084 175.461C275.117 176.351 284.737 185.979 285.464 197.872C285.503 198.514 285.479 199.187 285.387 200.045C285.309 200.78 285.58 201.391 285.92 202.172L289.029 209.325C289.338 210.037 289.269 210.841 288.859 211.49C288.464 212.117 287.792 212.511 287.057 212.565L284.211 213.022C284.211 213.022 284.157 213.053 284.149 213.083L283.206 222.286C283.036 224.08 281.597 225.449 279.788 225.542C276.563 225.712 274.22 225.619 272.217 225.248C270.237 224.877 268.497 224.227 266.401 223.075C265.837 222.765 265.636 222.062 265.945 221.497C266.255 220.94 266.958 220.732 267.523 221.041C269.394 222.069 270.925 222.642 272.65 222.967C274.467 223.307 276.64 223.384 279.672 223.229C280.321 223.199 280.839 222.704 280.894 222.062L281.837 212.851C281.937 211.777 282.765 210.903 283.832 210.725L286.748 210.261C286.794 210.261 286.848 210.245 286.894 210.245L283.786 203.1C283.384 202.18 282.935 201.136 283.074 199.798C283.152 199.071 283.175 198.522 283.144 198.011C282.494 187.278 273.794 178.578 262.906 177.774C256.727 177.317 250.827 179.382 246.311 183.574C241.856 187.711 239.304 193.573 239.304 199.651C239.304 204.09 240.944 208.444 244.47 213.354C248.569 218.93 249.164 223.918 246.659 231.767C246.504 232.262 246.048 232.571 245.553 232.571V232.579Z" fill="white"/>
<path d="M261.004 172.376C260.362 172.376 259.844 171.858 259.844 171.216V164.581C259.844 163.939 260.362 163.421 261.004 163.421C261.646 163.421 262.164 163.939 262.164 164.581V171.216C262.164 171.858 261.646 172.376 261.004 172.376Z" fill="white"/>
<path d="M251.457 174.062C250.985 174.062 250.536 173.768 250.366 173.296L248.1 167.063C247.884 166.46 248.193 165.795 248.796 165.578C249.392 165.362 250.065 165.671 250.281 166.274L252.547 172.507C252.763 173.111 252.454 173.776 251.851 173.992C251.719 174.039 251.588 174.062 251.457 174.062Z" fill="white"/>
<path d="M243.057 178.91C242.725 178.91 242.4 178.771 242.168 178.493L237.907 173.412C237.497 172.925 237.559 172.19 238.054 171.78C238.541 171.371 239.276 171.432 239.686 171.927L243.947 177.008C244.357 177.495 244.295 178.23 243.8 178.64C243.583 178.825 243.32 178.91 243.057 178.91Z" fill="white"/>
<path d="M236.816 186.342C236.622 186.342 236.421 186.296 236.236 186.187L230.49 182.87C229.933 182.553 229.747 181.841 230.065 181.285C230.382 180.728 231.093 180.542 231.65 180.859L237.396 184.177C237.952 184.494 238.138 185.205 237.821 185.762C237.604 186.133 237.218 186.342 236.816 186.342Z" fill="white"/>
<path d="M270.558 174.062C270.426 174.062 270.295 174.039 270.163 173.992C269.56 173.776 269.251 173.111 269.467 172.507L271.733 166.274C271.95 165.671 272.623 165.362 273.218 165.578C273.821 165.795 274.131 166.46 273.914 167.063L271.648 173.296C271.478 173.768 271.03 174.062 270.558 174.062Z" fill="white"/>
<path d="M278.954 178.911C278.691 178.911 278.428 178.818 278.212 178.64C277.724 178.23 277.655 177.495 278.065 177.008L282.326 171.927C282.736 171.44 283.47 171.371 283.957 171.781C284.445 172.19 284.514 172.925 284.104 173.412L279.843 178.493C279.611 178.764 279.287 178.911 278.954 178.911Z" fill="white"/>
<path d="M285.187 186.342C284.785 186.342 284.398 186.133 284.182 185.762C283.865 185.205 284.05 184.502 284.607 184.177L290.353 180.859C290.91 180.534 291.613 180.728 291.938 181.285C292.255 181.841 292.07 182.545 291.513 182.87L285.767 186.187C285.581 186.296 285.388 186.342 285.187 186.342Z" fill="white"/>
<path d="M272.134 188.863C271.631 188.863 271.167 188.531 271.02 188.028C270.208 185.205 267.386 183.318 264.316 183.566C262.174 183.736 260.434 184.78 259.428 186.512C259.104 187.069 258.392 187.255 257.843 186.93C257.286 186.605 257.101 185.901 257.425 185.345C258.81 182.963 261.261 181.478 264.138 181.254C268.306 180.929 272.134 183.512 273.255 187.386C273.433 188.005 273.077 188.647 272.459 188.825C272.351 188.855 272.242 188.871 272.134 188.871V188.863Z" fill="white"/>
<path d="M272.891 200.277C272.365 200.277 271.886 199.914 271.762 199.38C271.615 198.754 272.002 198.135 272.628 197.988C274.801 197.478 276.464 194.563 276.294 192.536C276.131 190.619 274.337 189.072 272.033 188.863C271.391 188.801 270.927 188.237 270.981 187.603C271.043 186.961 271.615 186.497 272.241 186.551C275.675 186.86 278.351 189.296 278.606 192.343C278.861 195.351 276.533 199.458 273.162 200.254C273.069 200.277 272.984 200.285 272.899 200.285L272.891 200.277Z" fill="white"/>
<path d="M250.634 204.469C246.66 204.469 244.193 201.221 243.559 197.965C242.878 194.493 244.154 190.24 248.546 189.095C249.165 188.933 249.799 189.304 249.962 189.923C250.124 190.541 249.753 191.175 249.134 191.338C246.172 192.111 245.345 195.003 245.832 197.524C246.335 200.1 248.237 202.52 251.338 202.11C251.972 202.033 252.56 202.474 252.637 203.108C252.715 203.742 252.274 204.33 251.64 204.407C251.292 204.453 250.952 204.476 250.627 204.476L250.634 204.469Z" fill="white"/>
<path d="M248.82 191.376C248.247 191.376 247.752 190.951 247.675 190.371C247.629 190.008 247.598 189.636 247.598 189.273C247.598 187.162 248.936 185.051 251.186 183.628C254.109 181.772 257.744 181.486 260.682 182.862C261.262 183.133 261.51 183.829 261.239 184.409C260.968 184.989 260.272 185.236 259.692 184.966C257.032 183.713 254.202 184.463 252.431 185.584C250.861 186.582 249.918 187.958 249.918 189.273C249.918 189.536 249.933 189.799 249.972 190.062C250.057 190.696 249.608 191.284 248.974 191.369C248.92 191.369 248.874 191.376 248.82 191.376Z" fill="white"/>
<path d="M247.681 211.746C247.681 211.746 247.642 211.746 247.619 211.746C246.977 211.715 246.49 211.166 246.521 210.524C246.768 205.93 249.444 202.628 251.957 201.739C252.367 201.592 252.777 201.484 253.195 201.406C253.821 201.283 254.432 201.708 254.548 202.334C254.664 202.961 254.246 203.572 253.62 203.688C253.326 203.742 253.025 203.819 252.731 203.927C251.238 204.461 249.042 206.897 248.833 210.655C248.802 211.274 248.284 211.753 247.673 211.753L247.681 211.746Z" fill="white"/>
<path d="M252.305 198.445C251.678 198.445 251.168 197.95 251.145 197.315C251.129 196.674 251.632 196.14 252.274 196.125C253.511 196.086 254.555 195.15 254.749 193.897C254.865 193.132 254.648 192.374 254.153 191.802C253.728 191.322 253.774 190.588 254.261 190.162C254.741 189.737 255.475 189.791 255.901 190.271C256.852 191.353 257.27 192.807 257.053 194.245C256.69 196.604 254.71 198.367 252.351 198.437C252.344 198.437 252.328 198.437 252.32 198.437L252.305 198.445Z" fill="white"/>
<path d="M258.482 199.852C257.523 199.852 256.572 199.519 255.814 198.87C254.577 197.818 254.121 196.179 254.592 194.477C254.763 193.859 255.404 193.495 256.023 193.673C256.642 193.843 257.005 194.485 256.827 195.104C256.518 196.225 256.998 196.844 257.315 197.114C257.84 197.563 258.591 197.663 259.217 197.377C259.805 197.114 260.485 197.37 260.756 197.95C261.027 198.53 260.771 199.218 260.184 199.488C259.642 199.736 259.055 199.86 258.475 199.86L258.482 199.852Z" fill="white"/>
<path d="M264.778 195.212C264.693 195.212 264.608 195.204 264.522 195.181C263.896 195.042 263.502 194.416 263.649 193.797C263.842 192.939 263.316 192.041 262.388 191.663C261.8 191.423 261.159 191.431 260.617 191.693C260.037 191.964 259.349 191.717 259.071 191.137C258.8 190.557 259.047 189.868 259.627 189.59C260.756 189.056 262.086 189.033 263.27 189.513C265.249 190.317 266.363 192.335 265.914 194.3C265.791 194.841 265.311 195.204 264.785 195.204L264.778 195.212Z" fill="white"/>
<path d="M264.871 192.436C264.199 192.436 263.503 192.258 262.83 191.895C262.265 191.585 262.056 190.882 262.366 190.325C262.675 189.76 263.379 189.551 263.936 189.861C264.562 190.201 265.188 190.209 265.637 189.868C266 189.598 266.171 189.173 266.085 188.747C265.954 188.121 266.356 187.51 266.99 187.378C267.617 187.247 268.228 187.649 268.359 188.283C268.63 189.598 268.119 190.92 267.021 191.732C266.387 192.204 265.645 192.444 264.871 192.444V192.436Z" fill="white"/>
<path d="M252.01 213.184C252.01 213.184 251.963 213.184 251.94 213.184C251.298 213.146 250.811 212.596 250.85 211.955C251.151 207.021 255.026 203.958 260.98 203.958H261.939C264.074 203.958 267.646 203.958 268.512 203.966C269.773 203.989 271.961 203.703 272.317 201.569C272.418 200.973 272.302 200.448 271.977 200.015C271.528 199.404 270.678 198.978 269.649 198.839C268.969 198.793 268.265 198.986 267.809 199.396C267.6 199.581 267.345 199.891 267.322 200.324C267.291 200.966 266.726 201.437 266.1 201.422C265.458 201.391 264.971 200.842 265.002 200.2C265.056 199.233 265.504 198.329 266.27 197.648C267.206 196.821 268.489 196.426 269.881 196.527C271.621 196.759 273.005 197.501 273.833 198.63C274.537 199.581 274.8 200.726 274.591 201.948C274.134 204.67 271.907 206.286 268.628 206.286C268.574 206.286 268.512 206.286 268.458 206.286C267.608 206.271 263.911 206.271 261.924 206.278H260.965C256.294 206.278 253.371 208.451 253.154 212.102C253.116 212.72 252.605 213.192 251.994 213.192L252.01 213.184Z" fill="white"/>
<path d="M248.841 191.369C248.307 191.369 247.836 191.005 247.712 190.464C247.573 189.837 247.959 189.219 248.586 189.08C249.436 188.886 249.985 188.824 250.797 188.84C251.439 188.855 251.95 189.381 251.934 190.023C251.919 190.665 251.385 191.183 250.751 191.16C250.148 191.144 249.753 191.191 249.096 191.338C249.011 191.361 248.926 191.369 248.841 191.369Z" fill="white"/>
<path d="M272.225 191.639C272.163 191.639 272.093 191.639 272.032 191.624C271.397 191.516 270.972 190.92 271.08 190.286C271.22 189.459 271.243 188.91 271.003 187.997C270.841 187.378 271.212 186.744 271.83 186.582C272.449 186.419 273.083 186.791 273.246 187.409C273.586 188.701 273.539 189.621 273.362 190.673C273.269 191.237 272.774 191.639 272.217 191.639H272.225Z" fill="white"/>
</g>
<g clip-path="url(#clip3_1233_108)">
<path d="M264.925 14.0048C263.672 13.4557 262.265 13.6955 261.267 14.6312L246.605 28.2571C246.466 28.3886 246.288 28.4581 246.095 28.4581H232.461C230.574 28.4581 229.035 29.9971 229.035 31.884V48.116C229.035 50.0029 230.574 51.5418 232.461 51.5418H246.102C246.288 51.5418 246.474 51.6114 246.613 51.7428L261.275 65.3687C261.924 65.9719 262.736 66.2813 263.564 66.2813C264.02 66.2813 264.484 66.1885 264.933 65.9951C266.185 65.4461 266.967 64.2552 266.967 62.8864V17.1135C266.967 15.7448 266.185 14.5538 264.933 14.0048H264.925ZM264.291 62.8864C264.291 63.3117 263.989 63.4896 263.858 63.5437C263.726 63.5978 263.394 63.6984 263.077 63.4122L248.415 49.7863C247.78 49.1986 246.953 48.8738 246.087 48.8738H232.461C232.043 48.8738 231.703 48.5335 231.703 48.116V31.884C231.703 31.4664 232.043 31.1261 232.461 31.1261H246.102C246.968 31.1261 247.796 30.8013 248.43 30.2136L263.092 16.5877C263.402 16.3016 263.742 16.4021 263.873 16.4562C264.005 16.5103 264.306 16.6882 264.306 17.1135V62.8864H264.291Z" fill="white"/>
<path d="M293.618 41.3571H273.674C272.924 41.3571 272.32 40.7539 272.32 40.0038C272.32 39.2537 272.924 38.6505 273.674 38.6505H293.618C294.368 38.6505 294.971 39.2537 294.971 40.0038C294.971 40.7539 294.368 41.3571 293.618 41.3571Z" fill="white"/>
<path d="M273.672 29.1851C274.407 28.4504 287.777 15.0797 287.777 15.0797Z" fill="white"/>
<path d="M273.674 30.5384C273.326 30.5384 272.978 30.4069 272.715 30.144C272.189 29.6181 272.189 28.7597 272.715 28.2339C273.449 27.4992 286.82 14.1362 286.82 14.1362L288.73 16.0463C288.73 16.0463 275.359 29.417 274.625 30.1517C274.362 30.4146 274.014 30.5461 273.666 30.5461L273.674 30.5384Z" fill="white"/>
<path d="M273.676 50.8147L287.781 64.9201Z" fill="white"/>
<path d="M287.771 66.2735C287.423 66.2735 287.075 66.142 286.812 65.8791L272.707 51.7737C272.181 51.2479 272.181 50.3895 272.707 49.8636C273.233 49.3378 274.091 49.3378 274.617 49.8636L288.722 63.969C289.248 64.4949 289.248 65.3532 288.722 65.8791C288.459 66.142 288.111 66.2735 287.763 66.2735H287.771Z" fill="white"/>
</g>
<rect x="223" y="264" width="77" height="34" rx="17" fill="url(#paint0_linear_1233_108)"/>
<path d="M241.295 273.775H244.34V275.41H241.295V273.775ZM241.19 277.21H243.98V278.83H241.19V277.21ZM241.19 280.705H243.98V282.37H241.19V280.705ZM240.53 273.775H242.045V279.235C242.045 279.825 242.035 280.475 242.015 281.185C241.995 281.885 241.95 282.6 241.88 283.33C241.81 284.06 241.705 284.77 241.565 285.46C241.435 286.14 241.26 286.755 241.04 287.305C240.94 287.225 240.805 287.135 240.635 287.035C240.465 286.935 240.29 286.835 240.11 286.735C239.94 286.645 239.785 286.58 239.645 286.54C239.855 286.03 240.015 285.465 240.125 284.845C240.245 284.225 240.33 283.59 240.38 282.94C240.44 282.28 240.48 281.635 240.5 281.005C240.52 280.375 240.53 279.785 240.53 279.235V273.775ZM243.23 273.775H244.82V285.46C244.82 285.84 244.785 286.155 244.715 286.405C244.645 286.655 244.495 286.855 244.265 287.005C244.045 287.145 243.785 287.23 243.485 287.26C243.185 287.3 242.81 287.32 242.36 287.32C242.35 287.1 242.3 286.825 242.21 286.495C242.12 286.165 242.025 285.885 241.925 285.655C242.155 285.665 242.375 285.675 242.585 285.685C242.795 285.685 242.935 285.685 243.005 285.685C243.095 285.685 243.155 285.665 243.185 285.625C243.215 285.585 243.23 285.52 243.23 285.43V273.775ZM244.94 274.39L246.47 273.955C246.64 274.315 246.795 274.705 246.935 275.125C247.085 275.545 247.215 275.955 247.325 276.355C247.435 276.745 247.51 277.1 247.55 277.42L245.87 277.93C245.85 277.63 245.795 277.275 245.705 276.865C245.615 276.455 245.5 276.035 245.36 275.605C245.23 275.165 245.09 274.76 244.94 274.39ZM248.03 273.76L249.635 273.49C249.745 273.88 249.845 274.295 249.935 274.735C250.025 275.165 250.09 275.585 250.13 275.995C250.18 276.395 250.205 276.75 250.205 277.06L248.465 277.375C248.475 277.065 248.465 276.705 248.435 276.295C248.405 275.885 248.355 275.46 248.285 275.02C248.215 274.57 248.13 274.15 248.03 273.76ZM249.74 277.93L251.21 278.47C250.93 279.65 250.555 280.775 250.085 281.845C249.615 282.915 249.06 283.83 248.42 284.59C248.29 284.44 248.11 284.27 247.88 284.08C247.66 283.89 247.46 283.735 247.28 283.615C247.67 283.155 248.02 282.62 248.33 282.01C248.65 281.4 248.93 280.745 249.17 280.045C249.41 279.345 249.6 278.64 249.74 277.93ZM247.04 280.36L247.925 279.115C248.395 279.405 248.88 279.74 249.38 280.12C249.89 280.49 250.365 280.865 250.805 281.245C251.255 281.615 251.61 281.96 251.87 282.28L250.91 283.705C250.66 283.375 250.32 283.01 249.89 282.61C249.46 282.21 248.995 281.815 248.495 281.425C247.995 281.025 247.51 280.67 247.04 280.36ZM245.51 278.71H247.175V287.2H245.51V278.71ZM251.765 278.77H253.46V287.14H251.765V278.77ZM246.29 284.605H252.455V286.27H246.29V284.605ZM252.02 273.535L253.865 274.09C253.685 274.59 253.49 275.1 253.28 275.62C253.08 276.13 252.875 276.62 252.665 277.09C252.465 277.55 252.27 277.96 252.08 278.32L250.49 277.78C250.68 277.4 250.87 276.97 251.06 276.49C251.25 276 251.43 275.5 251.6 274.99C251.77 274.47 251.91 273.985 252.02 273.535ZM254.66 274.885H262.43V276.49H254.66V274.885ZM257.765 273.385H259.415V287.305H257.765V273.385ZM260.735 277.57H262.295V280.45C262.295 280.77 262.26 281.03 262.19 281.23C262.13 281.43 261.995 281.59 261.785 281.71C261.585 281.83 261.35 281.905 261.08 281.935C260.81 281.955 260.495 281.965 260.135 281.965C260.115 281.745 260.065 281.51 259.985 281.26C259.905 281 259.82 280.77 259.73 280.57C259.91 280.58 260.08 280.585 260.24 280.585C260.4 280.585 260.505 280.58 260.555 280.57C260.625 280.57 260.67 280.56 260.69 280.54C260.72 280.52 260.735 280.48 260.735 280.42V277.57ZM257.885 280.75L259.07 281.32C258.77 281.97 258.415 282.63 258.005 283.3C257.595 283.97 257.145 284.595 256.655 285.175C256.175 285.755 255.675 286.24 255.155 286.63C255.065 286.38 254.935 286.1 254.765 285.79C254.605 285.47 254.45 285.2 254.3 284.98C254.78 284.66 255.25 284.27 255.71 283.81C256.17 283.35 256.59 282.855 256.97 282.325C257.35 281.785 257.655 281.26 257.885 280.75ZM259.145 281.89C259.285 281.96 259.47 282.06 259.7 282.19C259.93 282.32 260.175 282.47 260.435 282.64C260.705 282.8 260.97 282.965 261.23 283.135C261.5 283.295 261.74 283.445 261.95 283.585C262.17 283.715 262.33 283.815 262.43 283.885L261.485 285.445C261.295 285.265 261.06 285.06 260.78 284.83C260.5 284.6 260.2 284.36 259.88 284.11C259.57 283.86 259.27 283.63 258.98 283.42C258.69 283.2 258.44 283.02 258.23 282.88L259.145 281.89ZM255.05 277.57H261.305V279.115H256.595V281.815H255.05V277.57ZM263.09 274.87H264.785V283.345H263.09V274.87ZM266.255 273.565H268.01V285.19C268.01 285.7 267.95 286.09 267.83 286.36C267.72 286.63 267.52 286.835 267.23 286.975C266.94 287.125 266.565 287.22 266.105 287.26C265.655 287.31 265.105 287.335 264.455 287.335C264.435 287.165 264.395 286.97 264.335 286.75C264.275 286.53 264.205 286.305 264.125 286.075C264.045 285.855 263.96 285.665 263.87 285.505C264.31 285.515 264.72 285.525 265.1 285.535C265.49 285.535 265.755 285.535 265.895 285.535C266.025 285.535 266.115 285.51 266.165 285.46C266.225 285.41 266.255 285.32 266.255 285.19V273.565ZM274.505 277.81V278.545H276.53V277.81H274.505ZM274.505 275.92V276.64H276.53V275.92H274.505ZM273.08 274.675H278.03V279.79H273.08V274.675ZM272.615 280.705H278.405V282.175H272.615V280.705ZM279.29 275.98H283.28V277.6H279.29V275.98ZM274.505 282.85H277.055V284.275H274.505V282.85ZM274.655 279.64H276.335V281.44H274.655V279.64ZM274.79 273.235L276.695 273.43C276.555 273.85 276.41 274.255 276.26 274.645C276.12 275.025 275.995 275.35 275.885 275.62L274.34 275.38C274.42 275.07 274.505 274.72 274.595 274.33C274.685 273.93 274.75 273.565 274.79 273.235ZM276.38 282.85H277.955C277.955 282.85 277.95 282.92 277.94 283.06C277.94 283.2 277.935 283.315 277.925 283.405C277.895 284.085 277.865 284.655 277.835 285.115C277.805 285.565 277.76 285.92 277.7 286.18C277.64 286.44 277.56 286.635 277.46 286.765C277.34 286.905 277.21 287.005 277.07 287.065C276.93 287.135 276.77 287.185 276.59 287.215C276.44 287.245 276.24 287.26 275.99 287.26C275.75 287.27 275.49 287.27 275.21 287.26C275.2 287.04 275.155 286.795 275.075 286.525C275.005 286.255 274.92 286.03 274.82 285.85C275.03 285.87 275.215 285.885 275.375 285.895C275.535 285.895 275.655 285.895 275.735 285.895C275.905 285.895 276.03 285.85 276.11 285.76C276.16 285.69 276.2 285.56 276.23 285.37C276.26 285.18 276.285 284.9 276.305 284.53C276.335 284.16 276.36 283.67 276.38 283.06V282.85ZM281.105 277L282.695 277.105C282.555 278.705 282.325 280.15 282.005 281.44C281.695 282.72 281.26 283.855 280.7 284.845C280.15 285.835 279.425 286.68 278.525 287.38C278.455 287.28 278.34 287.16 278.18 287.02C278.03 286.88 277.87 286.735 277.7 286.585C277.54 286.445 277.405 286.33 277.295 286.24C278.165 285.65 278.86 284.91 279.38 284.02C279.9 283.13 280.295 282.095 280.565 280.915C280.835 279.735 281.015 278.43 281.105 277ZM279.725 277.135C279.815 277.885 279.94 278.68 280.1 279.52C280.26 280.35 280.48 281.17 280.76 281.98C281.04 282.78 281.4 283.525 281.84 284.215C282.29 284.895 282.83 285.465 283.46 285.925C283.35 286.025 283.225 286.155 283.085 286.315C282.945 286.485 282.805 286.66 282.665 286.84C282.535 287.03 282.435 287.195 282.365 287.335C281.725 286.805 281.185 286.165 280.745 285.415C280.315 284.665 279.955 283.865 279.665 283.015C279.385 282.155 279.165 281.3 279.005 280.45C278.845 279.59 278.72 278.79 278.63 278.05L279.725 277.135ZM269.72 274.705L270.74 273.4C271.01 273.51 271.295 273.65 271.595 273.82C271.895 273.98 272.18 274.15 272.45 274.33C272.72 274.5 272.94 274.665 273.11 274.825L272.03 276.25C271.88 276.09 271.675 275.915 271.415 275.725C271.155 275.535 270.875 275.35 270.575 275.17C270.275 274.99 269.99 274.835 269.72 274.705ZM269.135 278.68L270.14 277.36C270.42 277.47 270.71 277.6 271.01 277.75C271.31 277.9 271.595 278.06 271.865 278.23C272.135 278.4 272.355 278.565 272.525 278.725L271.46 280.165C271.31 280.005 271.105 279.835 270.845 279.655C270.585 279.475 270.305 279.3 270.005 279.13C269.705 278.96 269.415 278.81 269.135 278.68ZM269.36 286.27C269.56 285.87 269.77 285.41 269.99 284.89C270.22 284.36 270.45 283.8 270.68 283.21C270.91 282.61 271.125 282.015 271.325 281.425L272.765 282.37C272.595 282.9 272.41 283.445 272.21 284.005C272.02 284.555 271.82 285.1 271.61 285.64C271.4 286.18 271.195 286.695 270.995 287.185L269.36 286.27ZM279.08 273.235L280.745 273.52C280.615 274.45 280.445 275.365 280.235 276.265C280.025 277.155 279.775 277.995 279.485 278.785C279.195 279.565 278.855 280.245 278.465 280.825C278.385 280.715 278.27 280.575 278.12 280.405C277.98 280.235 277.83 280.065 277.67 279.895C277.52 279.725 277.385 279.59 277.265 279.49C277.595 278.99 277.875 278.41 278.105 277.75C278.335 277.08 278.53 276.36 278.69 275.59C278.86 274.82 278.99 274.035 279.08 273.235ZM274.055 281.68H275.555V282.595C275.555 282.935 275.53 283.315 275.48 283.735C275.43 284.145 275.32 284.57 275.15 285.01C274.98 285.45 274.735 285.88 274.415 286.3C274.105 286.73 273.69 287.12 273.17 287.47C273.03 287.31 272.84 287.13 272.6 286.93C272.37 286.74 272.16 286.575 271.97 286.435C272.43 286.125 272.8 285.795 273.08 285.445C273.36 285.095 273.57 284.75 273.71 284.41C273.85 284.06 273.94 283.725 273.98 283.405C274.03 283.075 274.055 282.785 274.055 282.535V281.68Z" fill="white"/>
<rect x="1" y="264" width="92" height="34" rx="17" fill="url(#paint1_linear_1233_108)"/>
<path d="M23.84 273.895H31.58V275.455H23.84V273.895ZM25.4 276.58H31.175V278.05H25.4V276.58ZM24.26 279.25H31.82V280.765H24.26V279.25ZM23.15 273.895H24.815V278.32C24.815 278.98 24.79 279.7 24.74 280.48C24.7 281.25 24.61 282.045 24.47 282.865C24.34 283.685 24.145 284.48 23.885 285.25C23.625 286.01 23.28 286.7 22.85 287.32C22.76 287.21 22.63 287.085 22.46 286.945C22.29 286.815 22.115 286.685 21.935 286.555C21.765 286.435 21.615 286.345 21.485 286.285C21.875 285.715 22.18 285.095 22.4 284.425C22.63 283.745 22.795 283.05 22.895 282.34C23.005 281.63 23.075 280.935 23.105 280.255C23.135 279.565 23.15 278.92 23.15 278.32V273.895ZM25.295 280.24H26.885V285.925L25.295 286.06V280.24ZM24.14 285.535C24.74 285.445 25.445 285.325 26.255 285.175C27.075 285.025 27.91 284.87 28.76 284.71L28.91 286.135C28.14 286.295 27.375 286.455 26.615 286.615C25.855 286.775 25.155 286.925 24.515 287.065L24.14 285.535ZM30.74 281.05L31.925 282.175C31.515 282.505 31.095 282.84 30.665 283.18C30.235 283.51 29.84 283.785 29.48 284.005L28.595 283.075C28.825 282.905 29.07 282.705 29.33 282.475C29.59 282.245 29.845 282.005 30.095 281.755C30.355 281.495 30.57 281.26 30.74 281.05ZM29 280.225C29.13 281.095 29.315 281.9 29.555 282.64C29.805 283.38 30.145 284.025 30.575 284.575C31.005 285.125 31.55 285.55 32.21 285.85C32.08 285.96 31.945 286.1 31.805 286.27C31.665 286.44 31.53 286.62 31.4 286.81C31.28 287 31.175 287.17 31.085 287.32C30.335 286.92 29.72 286.39 29.24 285.73C28.77 285.06 28.395 284.28 28.115 283.39C27.845 282.5 27.635 281.505 27.485 280.405L29 280.225ZM17.765 280.795C18.365 280.665 19.08 280.49 19.91 280.27C20.75 280.05 21.595 279.82 22.445 279.58L22.67 281.2C21.9 281.43 21.12 281.66 20.33 281.89C19.55 282.12 18.825 282.33 18.155 282.52L17.765 280.795ZM18.005 276.1H22.595V277.75H18.005V276.1ZM19.58 273.265H21.23V285.445C21.23 285.855 21.185 286.18 21.095 286.42C21.015 286.67 20.86 286.865 20.63 287.005C20.41 287.145 20.13 287.24 19.79 287.29C19.46 287.34 19.045 287.36 18.545 287.35C18.525 287.13 18.47 286.855 18.38 286.525C18.29 286.205 18.19 285.925 18.08 285.685C18.36 285.695 18.615 285.705 18.845 285.715C19.085 285.715 19.25 285.71 19.34 285.7C19.43 285.7 19.49 285.685 19.52 285.655C19.56 285.615 19.58 285.545 19.58 285.445V273.265ZM33.02 282.955H40.025V284.23H33.02V282.955ZM32.69 275.815H40.19V277.12H32.69V275.815ZM35.66 274.765H37.295V285.52H35.66V274.765ZM32.6 285.34C33.23 285.3 33.95 285.25 34.76 285.19C35.57 285.13 36.425 285.065 37.325 284.995C38.235 284.915 39.14 284.835 40.04 284.755L40.055 286.12C39.205 286.21 38.345 286.3 37.475 286.39C36.615 286.48 35.785 286.56 34.985 286.63C34.195 286.71 33.47 286.785 32.81 286.855L32.6 285.34ZM34.505 280.57V281.245H38.465V280.57H34.505ZM34.505 278.83V279.505H38.465V278.83H34.505ZM33.08 277.705H39.95V282.37H33.08V277.705ZM39.23 273.34L40.01 274.675C39.38 274.805 38.67 274.92 37.88 275.02C37.1 275.11 36.3 275.185 35.48 275.245C34.66 275.295 33.875 275.33 33.125 275.35C33.095 275.16 33.04 274.945 32.96 274.705C32.89 274.455 32.81 274.24 32.72 274.06C33.28 274.03 33.855 273.995 34.445 273.955C35.035 273.905 35.615 273.85 36.185 273.79C36.765 273.73 37.31 273.665 37.82 273.595C38.34 273.515 38.81 273.43 39.23 273.34ZM40.175 276.655H45.38V278.305H40.175V276.655ZM44.645 276.655H46.37C46.37 276.655 46.37 276.705 46.37 276.805C46.37 276.905 46.37 277.02 46.37 277.15C46.37 277.27 46.37 277.37 46.37 277.45C46.33 278.99 46.29 280.3 46.25 281.38C46.21 282.45 46.165 283.335 46.115 284.035C46.075 284.725 46.01 285.265 45.92 285.655C45.84 286.045 45.74 286.325 45.62 286.495C45.45 286.745 45.27 286.92 45.08 287.02C44.9 287.13 44.685 287.21 44.435 287.26C44.205 287.3 43.925 287.32 43.595 287.32C43.265 287.33 42.92 287.33 42.56 287.32C42.55 287.07 42.495 286.78 42.395 286.45C42.305 286.12 42.19 285.835 42.05 285.595C42.37 285.625 42.665 285.645 42.935 285.655C43.205 285.665 43.41 285.67 43.55 285.67C43.67 285.67 43.77 285.65 43.85 285.61C43.93 285.57 44.005 285.505 44.075 285.415C44.155 285.295 44.225 285.065 44.285 284.725C44.345 284.375 44.395 283.88 44.435 283.24C44.485 282.59 44.525 281.755 44.555 280.735C44.595 279.715 44.625 278.48 44.645 277.03V276.655ZM41.615 273.505H43.34C43.34 274.785 43.325 276 43.295 277.15C43.275 278.3 43.21 279.385 43.1 280.405C43 281.415 42.825 282.355 42.575 283.225C42.335 284.085 41.995 284.87 41.555 285.58C41.115 286.29 40.55 286.915 39.86 287.455C39.77 287.305 39.65 287.145 39.5 286.975C39.36 286.805 39.21 286.64 39.05 286.48C38.9 286.33 38.75 286.205 38.6 286.105C39.23 285.625 39.74 285.075 40.13 284.455C40.52 283.825 40.82 283.13 41.03 282.37C41.24 281.6 41.385 280.76 41.465 279.85C41.545 278.93 41.59 277.945 41.6 276.895C41.61 275.835 41.615 274.705 41.615 273.505ZM48.44 274.465H60.425V276.055H48.44V274.465ZM47.6 277.9H61.115V279.505H47.6V277.9ZM50.63 282.925H58.115V284.29H50.63V282.925ZM50.645 285.355H58.13V286.855H50.645V285.355ZM53.36 273.25H55.265V275.425H53.36V273.25ZM49.73 280.405H59.24V287.32H57.35V281.905H51.545V287.335H49.73V280.405ZM56.66 275.77L58.67 276.19C58.49 276.57 58.31 276.94 58.13 277.3C57.96 277.66 57.805 277.965 57.665 278.215L55.925 277.81C56.015 277.62 56.105 277.405 56.195 277.165C56.295 276.925 56.385 276.685 56.465 276.445C56.555 276.195 56.62 275.97 56.66 275.77ZM50.345 276.19L52.13 275.83C52.32 276.14 52.49 276.48 52.64 276.85C52.79 277.21 52.885 277.53 52.925 277.81L51.05 278.23C51.02 277.95 50.935 277.615 50.795 277.225C50.665 276.835 50.515 276.49 50.345 276.19ZM67.415 275.035H70.535V275.92H67.415V275.035ZM63.845 280.18H74.525V281.275H63.845V280.18ZM65.3 284.95H72.86V285.685H65.3V284.95ZM65.3 286.135H72.86V287.02H65.3V286.135ZM62.24 282.07H75.905V283.225H62.24V282.07ZM62 277.45C62.52 277.42 63.12 277.38 63.8 277.33C64.49 277.27 65.21 277.21 65.96 277.15L65.99 278.215C65.33 278.305 64.675 278.39 64.025 278.47C63.385 278.55 62.79 278.625 62.24 278.695L62 277.45ZM66.275 278.44C66.855 278.39 67.54 278.325 68.33 278.245C69.13 278.165 69.945 278.085 70.775 278.005L70.82 279.07C70.07 279.18 69.33 279.29 68.6 279.4C67.87 279.5 67.2 279.595 66.59 279.685L66.275 278.44ZM65.72 276.565L67.055 276.76C66.845 277.44 66.54 278.04 66.14 278.56C65.74 279.08 65.265 279.53 64.715 279.91C64.165 280.29 63.555 280.61 62.885 280.87C62.835 280.77 62.76 280.655 62.66 280.525C62.56 280.385 62.46 280.245 62.36 280.105C62.26 279.965 62.165 279.86 62.075 279.79C62.985 279.5 63.76 279.095 64.4 278.575C65.05 278.045 65.49 277.375 65.72 276.565ZM74.525 273.655H74.765L74.975 273.595L76.025 274.075C75.865 274.455 75.695 274.83 75.515 275.2C75.335 275.57 75.155 275.93 74.975 276.28C75.355 276.6 75.625 276.91 75.785 277.21C75.945 277.51 76.03 277.78 76.04 278.02C76.04 278.31 75.99 278.555 75.89 278.755C75.79 278.945 75.64 279.105 75.44 279.235C75.34 279.295 75.22 279.35 75.08 279.4C74.95 279.44 74.82 279.47 74.69 279.49C74.55 279.5 74.385 279.51 74.195 279.52C74.005 279.52 73.815 279.515 73.625 279.505C73.615 279.315 73.575 279.11 73.505 278.89C73.435 278.66 73.345 278.46 73.235 278.29C73.405 278.31 73.56 278.32 73.7 278.32C73.84 278.32 73.96 278.32 74.06 278.32C74.13 278.31 74.195 278.3 74.255 278.29C74.325 278.28 74.38 278.265 74.42 278.245C74.57 278.165 74.645 278.025 74.645 277.825C74.645 277.665 74.56 277.48 74.39 277.27C74.23 277.05 73.96 276.795 73.58 276.505C73.78 276.025 73.96 275.555 74.12 275.095C74.29 274.625 74.425 274.21 74.525 273.85V273.655ZM62.165 275.485L62.87 274.48C63.11 274.61 63.365 274.765 63.635 274.945C63.905 275.115 64.155 275.29 64.385 275.47C64.625 275.64 64.82 275.8 64.97 275.95L64.22 277.09C64.08 276.94 63.89 276.77 63.65 276.58C63.42 276.39 63.175 276.2 62.915 276.01C62.655 275.82 62.405 275.645 62.165 275.485ZM64.025 273.235L65.27 273.685C65.02 274.055 64.76 274.425 64.49 274.795C64.23 275.165 63.985 275.48 63.755 275.74L62.81 275.35C62.94 275.15 63.08 274.925 63.23 274.675C63.39 274.425 63.54 274.175 63.68 273.925C63.82 273.675 63.935 273.445 64.025 273.235ZM65.39 274.39L66.62 274.9C66.34 275.27 66.04 275.655 65.72 276.055C65.4 276.445 65.08 276.82 64.76 277.18C64.45 277.54 64.15 277.86 63.86 278.14L62.915 277.66C63.195 277.37 63.49 277.04 63.8 276.67C64.11 276.29 64.405 275.9 64.685 275.5C64.965 275.1 65.2 274.73 65.39 274.39ZM71.705 273.655H74.93V274.87H73.13V279.94H71.705V273.655ZM66.92 273.685H68.285V278.86H66.92V273.685ZM67.46 273.685H71.195V277.285H67.46V276.385H69.83V274.57H67.46V273.685ZM68.12 279.52H69.815V280.855H68.12V279.52ZM64.34 283.645H74.045V287.35H72.335V284.515H65.99V287.365H64.34V283.645ZM65.69 281.395L67.13 281.02C67.26 281.16 67.38 281.32 67.49 281.5C67.61 281.68 67.685 281.845 67.715 281.995L66.2 282.385C66.17 282.245 66.105 282.08 66.005 281.89C65.905 281.7 65.8 281.535 65.69 281.395ZM69.2 277.66L70.205 277.135C70.535 277.415 70.855 277.745 71.165 278.125C71.475 278.495 71.7 278.83 71.84 279.13L70.775 279.715C70.645 279.415 70.43 279.075 70.13 278.695C69.83 278.305 69.52 277.96 69.2 277.66ZM71.105 280.84L72.725 281.26C72.525 281.5 72.335 281.72 72.155 281.92C71.985 282.12 71.825 282.295 71.675 282.445L70.4 282.055C70.52 281.865 70.645 281.655 70.775 281.425C70.915 281.195 71.025 281 71.105 280.84Z" fill="white"/>
<rect x="13" y="88" width="62" height="34" rx="17" fill="url(#paint2_linear_1233_108)"/>
<path d="M35.54 97.895H43.28V99.455H35.54V97.895ZM37.1 100.58H42.875V102.05H37.1V100.58ZM35.96 103.25H43.52V104.765H35.96V103.25ZM34.85 97.895H36.515V102.32C36.515 102.98 36.49 103.7 36.44 104.48C36.4 105.25 36.31 106.045 36.17 106.865C36.04 107.685 35.845 108.48 35.585 109.25C35.325 110.01 34.98 110.7 34.55 111.32C34.46 111.21 34.33 111.085 34.16 110.945C33.99 110.815 33.815 110.685 33.635 110.555C33.465 110.435 33.315 110.345 33.185 110.285C33.575 109.715 33.88 109.095 34.1 108.425C34.33 107.745 34.495 107.05 34.595 106.34C34.705 105.63 34.775 104.935 34.805 104.255C34.835 103.565 34.85 102.92 34.85 102.32V97.895ZM36.995 104.24H38.585V109.925L36.995 110.06V104.24ZM35.84 109.535C36.44 109.445 37.145 109.325 37.955 109.175C38.775 109.025 39.61 108.87 40.46 108.71L40.61 110.135C39.84 110.295 39.075 110.455 38.315 110.615C37.555 110.775 36.855 110.925 36.215 111.065L35.84 109.535ZM42.44 105.05L43.625 106.175C43.215 106.505 42.795 106.84 42.365 107.18C41.935 107.51 41.54 107.785 41.18 108.005L40.295 107.075C40.525 106.905 40.77 106.705 41.03 106.475C41.29 106.245 41.545 106.005 41.795 105.755C42.055 105.495 42.27 105.26 42.44 105.05ZM40.7 104.225C40.83 105.095 41.015 105.9 41.255 106.64C41.505 107.38 41.845 108.025 42.275 108.575C42.705 109.125 43.25 109.55 43.91 109.85C43.78 109.96 43.645 110.1 43.505 110.27C43.365 110.44 43.23 110.62 43.1 110.81C42.98 111 42.875 111.17 42.785 111.32C42.035 110.92 41.42 110.39 40.94 109.73C40.47 109.06 40.095 108.28 39.815 107.39C39.545 106.5 39.335 105.505 39.185 104.405L40.7 104.225ZM29.465 104.795C30.065 104.665 30.78 104.49 31.61 104.27C32.45 104.05 33.295 103.82 34.145 103.58L34.37 105.2C33.6 105.43 32.82 105.66 32.03 105.89C31.25 106.12 30.525 106.33 29.855 106.52L29.465 104.795ZM29.705 100.1H34.295V101.75H29.705V100.1ZM31.28 97.265H32.93V109.445C32.93 109.855 32.885 110.18 32.795 110.42C32.715 110.67 32.56 110.865 32.33 111.005C32.11 111.145 31.83 111.24 31.49 111.29C31.16 111.34 30.745 111.36 30.245 111.35C30.225 111.13 30.17 110.855 30.08 110.525C29.99 110.205 29.89 109.925 29.78 109.685C30.06 109.695 30.315 109.705 30.545 109.715C30.785 109.715 30.95 109.71 31.04 109.7C31.13 109.7 31.19 109.685 31.22 109.655C31.26 109.615 31.28 109.545 31.28 109.445V97.265ZM44.72 106.955H51.725V108.23H44.72V106.955ZM44.39 99.815H51.89V101.12H44.39V99.815ZM47.36 98.765H48.995V109.52H47.36V98.765ZM44.3 109.34C44.93 109.3 45.65 109.25 46.46 109.19C47.27 109.13 48.125 109.065 49.025 108.995C49.935 108.915 50.84 108.835 51.74 108.755L51.755 110.12C50.905 110.21 50.045 110.3 49.175 110.39C48.315 110.48 47.485 110.56 46.685 110.63C45.895 110.71 45.17 110.785 44.51 110.855L44.3 109.34ZM46.205 104.57V105.245H50.165V104.57H46.205ZM46.205 102.83V103.505H50.165V102.83H46.205ZM44.78 101.705H51.65V106.37H44.78V101.705ZM50.93 97.34L51.71 98.675C51.08 98.805 50.37 98.92 49.58 99.02C48.8 99.11 48 99.185 47.18 99.245C46.36 99.295 45.575 99.33 44.825 99.35C44.795 99.16 44.74 98.945 44.66 98.705C44.59 98.455 44.51 98.24 44.42 98.06C44.98 98.03 45.555 97.995 46.145 97.955C46.735 97.905 47.315 97.85 47.885 97.79C48.465 97.73 49.01 97.665 49.52 97.595C50.04 97.515 50.51 97.43 50.93 97.34ZM51.875 100.655H57.08V102.305H51.875V100.655ZM56.345 100.655H58.07C58.07 100.655 58.07 100.705 58.07 100.805C58.07 100.905 58.07 101.02 58.07 101.15C58.07 101.27 58.07 101.37 58.07 101.45C58.03 102.99 57.99 104.3 57.95 105.38C57.91 106.45 57.865 107.335 57.815 108.035C57.775 108.725 57.71 109.265 57.62 109.655C57.54 110.045 57.44 110.325 57.32 110.495C57.15 110.745 56.97 110.92 56.78 111.02C56.6 111.13 56.385 111.21 56.135 111.26C55.905 111.3 55.625 111.32 55.295 111.32C54.965 111.33 54.62 111.33 54.26 111.32C54.25 111.07 54.195 110.78 54.095 110.45C54.005 110.12 53.89 109.835 53.75 109.595C54.07 109.625 54.365 109.645 54.635 109.655C54.905 109.665 55.11 109.67 55.25 109.67C55.37 109.67 55.47 109.65 55.55 109.61C55.63 109.57 55.705 109.505 55.775 109.415C55.855 109.295 55.925 109.065 55.985 108.725C56.045 108.375 56.095 107.88 56.135 107.24C56.185 106.59 56.225 105.755 56.255 104.735C56.295 103.715 56.325 102.48 56.345 101.03V100.655ZM53.315 97.505H55.04C55.04 98.785 55.025 100 54.995 101.15C54.975 102.3 54.91 103.385 54.8 104.405C54.7 105.415 54.525 106.355 54.275 107.225C54.035 108.085 53.695 108.87 53.255 109.58C52.815 110.29 52.25 110.915 51.56 111.455C51.47 111.305 51.35 111.145 51.2 110.975C51.06 110.805 50.91 110.64 50.75 110.48C50.6 110.33 50.45 110.205 50.3 110.105C50.93 109.625 51.44 109.075 51.83 108.455C52.22 107.825 52.52 107.13 52.73 106.37C52.94 105.6 53.085 104.76 53.165 103.85C53.245 102.93 53.29 101.945 53.3 100.895C53.31 99.835 53.315 98.705 53.315 97.505Z" fill="white"/>
<rect x="231" y="88" width="62" height="34" rx="17" fill="url(#paint3_linear_1233_108)"/>
<path d="M248.74 98.465H260.725V100.055H248.74V98.465ZM247.9 101.9H261.415V103.505H247.9V101.9ZM250.93 106.925H258.415V108.29H250.93V106.925ZM250.945 109.355H258.43V110.855H250.945V109.355ZM253.66 97.25H255.565V99.425H253.66V97.25ZM250.03 104.405H259.54V111.32H257.65V105.905H251.845V111.335H250.03V104.405ZM256.96 99.77L258.97 100.19C258.79 100.57 258.61 100.94 258.43 101.3C258.26 101.66 258.105 101.965 257.965 102.215L256.225 101.81C256.315 101.62 256.405 101.405 256.495 101.165C256.595 100.925 256.685 100.685 256.765 100.445C256.855 100.195 256.92 99.97 256.96 99.77ZM250.645 100.19L252.43 99.83C252.62 100.14 252.79 100.48 252.94 100.85C253.09 101.21 253.185 101.53 253.225 101.81L251.35 102.23C251.32 101.95 251.235 101.615 251.095 101.225C250.965 100.835 250.815 100.49 250.645 100.19ZM267.715 99.035H270.835V99.92H267.715V99.035ZM264.145 104.18H274.825V105.275H264.145V104.18ZM265.6 108.95H273.16V109.685H265.6V108.95ZM265.6 110.135H273.16V111.02H265.6V110.135ZM262.54 106.07H276.205V107.225H262.54V106.07ZM262.3 101.45C262.82 101.42 263.42 101.38 264.1 101.33C264.79 101.27 265.51 101.21 266.26 101.15L266.29 102.215C265.63 102.305 264.975 102.39 264.325 102.47C263.685 102.55 263.09 102.625 262.54 102.695L262.3 101.45ZM266.575 102.44C267.155 102.39 267.84 102.325 268.63 102.245C269.43 102.165 270.245 102.085 271.075 102.005L271.12 103.07C270.37 103.18 269.63 103.29 268.9 103.4C268.17 103.5 267.5 103.595 266.89 103.685L266.575 102.44ZM266.02 100.565L267.355 100.76C267.145 101.44 266.84 102.04 266.44 102.56C266.04 103.08 265.565 103.53 265.015 103.91C264.465 104.29 263.855 104.61 263.185 104.87C263.135 104.77 263.06 104.655 262.96 104.525C262.86 104.385 262.76 104.245 262.66 104.105C262.56 103.965 262.465 103.86 262.375 103.79C263.285 103.5 264.06 103.095 264.7 102.575C265.35 102.045 265.79 101.375 266.02 100.565ZM274.825 97.655H275.065L275.275 97.595L276.325 98.075C276.165 98.455 275.995 98.83 275.815 99.2C275.635 99.57 275.455 99.93 275.275 100.28C275.655 100.6 275.925 100.91 276.085 101.21C276.245 101.51 276.33 101.78 276.34 102.02C276.34 102.31 276.29 102.555 276.19 102.755C276.09 102.945 275.94 103.105 275.74 103.235C275.64 103.295 275.52 103.35 275.38 103.4C275.25 103.44 275.12 103.47 274.99 103.49C274.85 103.5 274.685 103.51 274.495 103.52C274.305 103.52 274.115 103.515 273.925 103.505C273.915 103.315 273.875 103.11 273.805 102.89C273.735 102.66 273.645 102.46 273.535 102.29C273.705 102.31 273.86 102.32 274 102.32C274.14 102.32 274.26 102.32 274.36 102.32C274.43 102.31 274.495 102.3 274.555 102.29C274.625 102.28 274.68 102.265 274.72 102.245C274.87 102.165 274.945 102.025 274.945 101.825C274.945 101.665 274.86 101.48 274.69 101.27C274.53 101.05 274.26 100.795 273.88 100.505C274.08 100.025 274.26 99.555 274.42 99.095C274.59 98.625 274.725 98.21 274.825 97.85V97.655ZM262.465 99.485L263.17 98.48C263.41 98.61 263.665 98.765 263.935 98.945C264.205 99.115 264.455 99.29 264.685 99.47C264.925 99.64 265.12 99.8 265.27 99.95L264.52 101.09C264.38 100.94 264.19 100.77 263.95 100.58C263.72 100.39 263.475 100.2 263.215 100.01C262.955 99.82 262.705 99.645 262.465 99.485ZM264.325 97.235L265.57 97.685C265.32 98.055 265.06 98.425 264.79 98.795C264.53 99.165 264.285 99.48 264.055 99.74L263.11 99.35C263.24 99.15 263.38 98.925 263.53 98.675C263.69 98.425 263.84 98.175 263.98 97.925C264.12 97.675 264.235 97.445 264.325 97.235ZM265.69 98.39L266.92 98.9C266.64 99.27 266.34 99.655 266.02 100.055C265.7 100.445 265.38 100.82 265.06 101.18C264.75 101.54 264.45 101.86 264.16 102.14L263.215 101.66C263.495 101.37 263.79 101.04 264.1 100.67C264.41 100.29 264.705 99.9 264.985 99.5C265.265 99.1 265.5 98.73 265.69 98.39ZM272.005 97.655H275.23V98.87H273.43V103.94H272.005V97.655ZM267.22 97.685H268.585V102.86H267.22V97.685ZM267.76 97.685H271.495V101.285H267.76V100.385H270.13V98.57H267.76V97.685ZM268.42 103.52H270.115V104.855H268.42V103.52ZM264.64 107.645H274.345V111.35H272.635V108.515H266.29V111.365H264.64V107.645ZM265.99 105.395L267.43 105.02C267.56 105.16 267.68 105.32 267.79 105.5C267.91 105.68 267.985 105.845 268.015 105.995L266.5 106.385C266.47 106.245 266.405 106.08 266.305 105.89C266.205 105.7 266.1 105.535 265.99 105.395ZM269.5 101.66L270.505 101.135C270.835 101.415 271.155 101.745 271.465 102.125C271.775 102.495 272 102.83 272.14 103.13L271.075 103.715C270.945 103.415 270.73 103.075 270.43 102.695C270.13 102.305 269.82 101.96 269.5 101.66ZM271.405 104.84L273.025 105.26C272.825 105.5 272.635 105.72 272.455 105.92C272.285 106.12 272.125 106.295 271.975 106.445L270.7 106.055C270.82 105.865 270.945 105.655 271.075 105.425C271.215 105.195 271.325 105 271.405 104.84Z" fill="white"/>
<path d="M132.332 39.9999H169.665M150.999 21.3333V58.6666" stroke="white" stroke-width="3" stroke-linecap="round" stroke-linejoin="round"/>
<path d="M130.516 179.44C130.192 179.44 129.86 179.565 129.612 179.806C129.114 180.29 129.114 181.081 129.612 181.565L146.633 198.126L129.86 214.438C129.363 214.922 129.363 215.714 129.86 216.197C130.358 216.681 131.171 216.681 131.669 216.197L149.346 199.006C149.843 198.522 149.843 197.731 149.346 197.247L131.42 179.806C131.171 179.565 130.84 179.44 130.516 179.44L130.516 179.44Z" fill="white"/>
<path d="M153.559 179.44C153.235 179.44 152.903 179.565 152.655 179.806C152.157 180.29 152.157 181.081 152.655 181.565L169.676 198.126L152.903 214.438C152.406 214.922 152.406 215.714 152.903 216.197C153.401 216.681 154.214 216.681 154.712 216.197L172.389 199.006C172.886 198.522 172.886 197.731 172.389 197.247L154.463 179.806C154.214 179.565 153.883 179.44 153.559 179.44L153.559 179.44Z" fill="white"/>
<path d="M18.2274 229.039C17.8794 229.039 17.5314 228.907 17.2685 228.644L7.31587 218.692C7.06068 218.436 6.92148 218.096 6.92148 217.733C6.92148 217.369 7.06068 217.029 7.31587 216.774L16.472 207.618L7.27721 198.423C6.75135 197.897 6.75135 197.039 7.27721 196.513L16.1781 187.612L7.40867 178.842C7.14574 178.587 7.00654 178.231 7.01428 177.86C7.01428 177.497 7.17667 177.149 7.44734 176.894L17.2066 167.776C17.7557 167.266 18.6064 167.297 19.1167 167.838C19.6271 168.387 19.5962 169.238 19.0549 169.748L10.3164 177.907L19.0549 186.645C19.5807 187.171 19.5807 188.029 19.0549 188.555L10.154 197.456L19.3487 206.651C19.8746 207.177 19.8746 208.035 19.3487 208.561L10.1926 217.717L19.1941 226.711C19.7199 227.237 19.7199 228.095 19.1941 228.621C18.9311 228.884 18.5832 229.015 18.2352 229.015L18.2274 229.039Z" fill="white"/>
<path d="M31.7821 229.039C31.4341 229.039 31.0861 228.907 30.8232 228.644L20.8706 218.692C20.6154 218.436 20.4762 218.096 20.4762 217.733C20.4762 217.369 20.6154 217.029 20.8706 216.774L30.0267 207.618L20.8319 198.423C20.306 197.897 20.306 197.039 20.8319 196.513L29.7328 187.612L20.9634 178.842C20.7004 178.587 20.5612 178.231 20.569 177.86C20.569 177.497 20.7314 177.149 21.002 176.894L30.7613 167.776C31.3104 167.266 32.161 167.297 32.6714 167.838C33.1818 168.387 33.1509 169.238 32.6096 169.748L23.871 177.907L32.6096 186.645C33.1354 187.171 33.1354 188.029 32.6096 188.555L23.7086 197.456L32.9034 206.651C33.4293 207.177 33.4293 208.035 32.9034 208.561L23.7473 217.717L32.7488 226.711C33.2746 227.237 33.2746 228.095 32.7488 228.621C32.4858 228.884 32.1378 229.015 31.7898 229.015L31.7821 229.039Z" fill="white"/>
<path d="M45.3329 229.039C44.9849 229.039 44.6369 228.907 44.374 228.644L34.4213 218.692C34.1661 218.436 34.0269 218.096 34.0269 217.733C34.0269 217.369 34.1661 217.029 34.4213 216.774L43.5775 207.618L34.3827 198.423C33.8568 197.897 33.8568 197.039 34.3827 196.513L43.2836 187.612L34.5141 178.842C34.2512 178.587 34.112 178.231 34.1197 177.86C34.1197 177.497 34.2821 177.149 34.5528 176.894L44.3121 167.776C44.8612 167.266 45.7118 167.297 46.2222 167.838C46.7326 168.387 46.7017 169.238 46.1603 169.748L37.4218 177.907L46.1603 186.645C46.4155 186.9 46.5547 187.241 46.5547 187.604C46.5547 187.967 46.4155 188.308 46.1603 188.563L37.2594 197.464L46.4542 206.659C46.9801 207.185 46.9801 208.043 46.4542 208.569L37.2981 217.725L46.2995 226.719C46.8254 227.244 46.8254 228.103 46.2995 228.629C46.0366 228.892 45.6886 229.023 45.3406 229.023L45.3329 229.039Z" fill="white"/>
<path d="M73.6332 199.583H53.6892C52.9391 199.583 52.3359 198.979 52.3359 198.229C52.3359 197.479 52.9391 196.876 53.6892 196.876H73.6332C74.3833 196.876 74.9865 197.479 74.9865 198.229C74.9865 198.979 74.3833 199.583 73.6332 199.583Z" fill="white"/>
<path d="M53.6914 187.411C54.4261 186.676 67.7968 173.305 67.7968 173.305Z" fill="white"/>
<path d="M53.6892 188.764C53.3413 188.764 52.9933 188.632 52.7303 188.37C52.2045 187.844 52.2045 186.985 52.7303 186.459L66.828 172.362L68.7381 174.272C68.7381 174.272 55.3674 187.643 54.6327 188.377C54.3698 188.64 54.0218 188.772 53.6738 188.772L53.6892 188.764Z" fill="white"/>
<path d="M53.6914 209.04L67.7968 223.146Z" fill="white"/>
<path d="M67.7907 224.499C67.4427 224.499 67.0947 224.368 66.8318 224.105L52.7264 209.999C52.2006 209.473 52.2006 208.615 52.7264 208.089C53.2523 207.563 54.1107 207.563 54.6365 208.089L68.7419 222.195C69.2677 222.72 69.2677 223.579 68.7419 224.105C68.479 224.368 68.131 224.499 67.783 224.499H67.7907Z" fill="white"/>
<defs>
<linearGradient id="paint0_linear_1233_108" x1="300" y1="281" x2="223" y2="281" gradientUnits="userSpaceOnUse">
<stop stop-color="#56387E"/>
<stop offset="1" stop-color="#23295B"/>
</linearGradient>
<linearGradient id="paint1_linear_1233_108" x1="93" y1="281" x2="1" y2="281" gradientUnits="userSpaceOnUse">
<stop stop-color="#56387E"/>
<stop offset="1" stop-color="#23295B"/>
</linearGradient>
<linearGradient id="paint2_linear_1233_108" x1="75" y1="105" x2="13" y2="105" gradientUnits="userSpaceOnUse">
<stop stop-color="#56387E"/>
<stop offset="1" stop-color="#23295B"/>
</linearGradient>
<linearGradient id="paint3_linear_1233_108" x1="293" y1="105" x2="231" y2="105" gradientUnits="userSpaceOnUse">
<stop stop-color="#56387E"/>
<stop offset="1" stop-color="#23295B"/>
</linearGradient>
<clipPath id="clip0_1233_108">
<rect width="80" height="80" fill="white"/>
</clipPath>
<clipPath id="clip1_1233_108">
<rect width="80" height="80" fill="white"/>
</clipPath>
<clipPath id="clip2_1233_108">
<rect width="80" height="80" fill="white" transform="translate(221 158)"/>
</clipPath>
<clipPath id="clip3_1233_108">
<rect width="80" height="80" fill="white" transform="translate(222)"/>
</clipPath>
</defs>
</svg>
