<svg width="310" height="302" viewBox="0 0 310 302" fill="none" xmlns="http://www.w3.org/2000/svg">
<g clip-path="url(#clip0_1049_105)">
<g clip-path="url(#clip1_1049_105)">
<path d="M24.5829 70.8129C24.2349 70.8129 23.8869 70.6814 23.624 70.4185L13.6713 60.4659C13.1455 59.94 13.1455 59.0816 13.6713 58.5558L22.8275 49.3997L13.6327 40.2049C13.1068 39.679 13.1068 38.8206 13.6327 38.2948L22.5336 29.3939L13.7641 20.6244C13.5012 20.3692 13.362 20.0135 13.3697 19.6423C13.3697 19.2788 13.5321 18.9308 13.8028 18.6756L23.5621 9.5582C24.1112 9.04781 24.9618 9.07874 25.4722 9.62006C25.9826 10.1691 25.9517 11.0198 25.4103 11.5302L16.6718 19.6887L25.4103 28.4272C25.9362 28.9531 25.9362 29.8115 25.4103 30.3373L16.5094 39.2382L25.7042 48.433C26.2301 48.9589 26.2301 49.8173 25.7042 50.3431L16.5481 59.4992L25.5418 68.493C26.0677 69.0188 26.0677 69.8772 25.5418 70.4031C25.2789 70.666 24.9309 70.7975 24.5829 70.7975V70.8129Z" fill="white"/>
<path d="M38.1376 70.813C37.7896 70.813 37.4416 70.6815 37.1787 70.4186L27.226 60.4659C26.9708 60.2107 26.8316 59.8705 26.8316 59.507C26.8316 59.1436 26.9708 58.8033 27.226 58.5481L36.3821 49.392L27.1874 40.1972C26.6615 39.6713 26.6615 38.813 27.1874 38.2871L36.0883 29.3862L27.3188 20.6167C27.0559 20.3615 26.9167 20.0058 26.9244 19.6346C26.9244 19.2711 27.0868 18.9232 27.3575 18.668L37.1168 9.55051C37.6659 9.04012 38.5165 9.07105 39.0269 9.61237C39.5373 10.1614 39.5064 11.0121 38.965 11.5225L30.2265 19.681L38.965 28.4195C39.4909 28.9454 39.4909 29.8038 38.965 30.3296L30.0641 39.2305L39.2589 48.4253C39.7848 48.9512 39.7848 49.8096 39.2589 50.3354L30.1028 59.4915L39.1042 68.4853C39.6301 69.0111 39.6301 69.8695 39.1042 70.3954C38.8413 70.6583 38.4933 70.7898 38.1453 70.7898L38.1376 70.813Z" fill="white"/>
<path d="M51.6884 70.813C51.3404 70.813 50.9924 70.6815 50.7294 70.4186L40.7768 60.4659C40.5216 60.2107 40.3824 59.8705 40.3824 59.507C40.3824 59.1436 40.5216 58.8033 40.7768 58.5481L49.9329 49.392L40.7381 40.1972C40.2123 39.6713 40.2123 38.813 40.7381 38.2871L49.6391 29.3862L40.8696 20.6167C40.6067 20.3615 40.4675 20.0058 40.4752 19.6346C40.4752 19.2711 40.6376 18.9232 40.9083 18.668L50.6676 9.55051C51.2166 9.04012 52.0673 9.07105 52.5777 9.61237C53.0881 10.1614 53.0571 11.0121 52.5158 11.5225L43.7773 19.681L52.5158 28.4195C53.0417 28.9454 53.0417 29.8038 52.5158 30.3296L43.6149 39.2305L52.8097 48.4253C53.3355 48.9512 53.3355 49.8096 52.8097 50.3354L43.6536 59.4915L52.655 68.4853C53.1809 69.0111 53.1809 69.8695 52.655 70.3954C52.3921 70.6583 52.0441 70.7898 51.6961 70.7898L51.6884 70.813Z" fill="white"/>
<path d="M65.2431 70.813C64.8951 70.813 64.5471 70.6815 64.2841 70.4186L54.3315 60.4659C54.0763 60.2107 53.9371 59.8705 53.9371 59.507C53.9371 59.1436 54.0763 58.8033 54.3315 58.5481L63.4876 49.392L54.2928 40.1972C53.767 39.6713 53.767 38.813 54.2928 38.2871L63.1938 29.3862L54.4243 20.6167C54.1614 20.3615 54.0222 20.0058 54.0299 19.6346C54.0299 19.2711 54.1923 18.9232 54.463 18.668L64.2223 9.55051C64.7713 9.04012 65.622 9.07105 66.1324 9.61237C66.6428 10.1614 66.6118 11.0121 66.0705 11.5225L57.332 19.681L66.0705 28.4195C66.3257 28.6747 66.4649 29.015 66.4649 29.3784C66.4649 29.7419 66.3257 30.0822 66.0705 30.3374L57.1696 39.2383L66.3644 48.4331C66.8902 48.9589 66.8902 49.8173 66.3644 50.3432L57.2083 59.4993L66.2097 68.493C66.7356 69.0189 66.7356 69.8772 66.2097 70.4031C65.9468 70.666 65.5988 70.7975 65.2508 70.7975L65.2431 70.813Z" fill="white"/>
</g>
</g>
<g clip-path="url(#clip2_1049_105)">
<path d="M271.049 232.579C270.98 232.579 270.902 232.579 270.833 232.556C270.206 232.44 269.789 231.829 269.912 231.202L271.297 223.895C271.413 223.268 272.031 222.851 272.65 222.974C273.276 223.09 273.694 223.701 273.57 224.328L272.186 231.635C272.078 232.192 271.59 232.579 271.049 232.579Z" fill="white"/>
<path d="M245.553 232.579C245.437 232.579 245.321 232.563 245.197 232.525C244.586 232.331 244.254 231.674 244.447 231.071C246.72 223.956 246.233 219.68 242.591 214.723C240.178 211.367 236.984 206.162 236.984 199.659C236.984 193.155 239.807 186.458 244.733 181.88C249.729 177.24 256.24 174.959 263.084 175.461C275.117 176.351 284.737 185.979 285.464 197.872C285.503 198.514 285.479 199.187 285.387 200.045C285.309 200.78 285.58 201.391 285.92 202.172L289.029 209.325C289.338 210.037 289.269 210.841 288.859 211.49C288.464 212.117 287.792 212.511 287.057 212.565L284.211 213.022C284.211 213.022 284.157 213.053 284.149 213.083L283.206 222.286C283.036 224.08 281.597 225.449 279.788 225.542C276.563 225.712 274.22 225.619 272.217 225.248C270.237 224.877 268.497 224.227 266.401 223.075C265.837 222.765 265.636 222.062 265.945 221.497C266.255 220.94 266.958 220.732 267.523 221.041C269.394 222.069 270.925 222.642 272.65 222.967C274.467 223.307 276.64 223.384 279.672 223.229C280.321 223.199 280.839 222.704 280.894 222.062L281.837 212.851C281.937 211.777 282.765 210.903 283.832 210.725L286.748 210.261C286.794 210.261 286.848 210.245 286.894 210.245L283.786 203.1C283.384 202.18 282.935 201.136 283.074 199.798C283.152 199.071 283.175 198.522 283.144 198.011C282.494 187.278 273.794 178.578 262.906 177.774C256.727 177.317 250.827 179.382 246.311 183.574C241.856 187.711 239.304 193.573 239.304 199.651C239.304 204.09 240.944 208.444 244.47 213.354C248.569 218.93 249.164 223.918 246.659 231.767C246.504 232.262 246.048 232.571 245.553 232.571V232.579Z" fill="white"/>
<path d="M261.004 172.376C260.362 172.376 259.844 171.858 259.844 171.216V164.581C259.844 163.939 260.362 163.421 261.004 163.421C261.646 163.421 262.164 163.939 262.164 164.581V171.216C262.164 171.858 261.646 172.376 261.004 172.376Z" fill="white"/>
<path d="M251.457 174.062C250.985 174.062 250.536 173.768 250.366 173.296L248.1 167.063C247.884 166.46 248.193 165.795 248.796 165.578C249.392 165.362 250.065 165.671 250.281 166.274L252.547 172.507C252.763 173.111 252.454 173.776 251.851 173.992C251.719 174.039 251.588 174.062 251.457 174.062Z" fill="white"/>
<path d="M243.057 178.91C242.725 178.91 242.4 178.771 242.168 178.493L237.907 173.412C237.497 172.925 237.559 172.19 238.054 171.78C238.541 171.371 239.276 171.432 239.686 171.927L243.947 177.008C244.357 177.495 244.295 178.23 243.8 178.64C243.583 178.825 243.32 178.91 243.057 178.91Z" fill="white"/>
<path d="M236.816 186.342C236.622 186.342 236.421 186.296 236.236 186.187L230.49 182.87C229.933 182.553 229.747 181.841 230.065 181.285C230.382 180.728 231.093 180.542 231.65 180.859L237.396 184.177C237.952 184.494 238.138 185.205 237.821 185.762C237.604 186.133 237.218 186.342 236.816 186.342Z" fill="white"/>
<path d="M270.558 174.062C270.426 174.062 270.295 174.039 270.163 173.992C269.56 173.776 269.251 173.111 269.467 172.507L271.733 166.274C271.95 165.671 272.623 165.362 273.218 165.578C273.821 165.795 274.131 166.46 273.914 167.063L271.648 173.296C271.478 173.768 271.03 174.062 270.558 174.062Z" fill="white"/>
<path d="M278.954 178.911C278.691 178.911 278.428 178.818 278.212 178.64C277.724 178.23 277.655 177.495 278.065 177.008L282.326 171.927C282.736 171.44 283.47 171.371 283.957 171.781C284.445 172.19 284.514 172.925 284.104 173.412L279.843 178.493C279.611 178.764 279.287 178.911 278.954 178.911Z" fill="white"/>
<path d="M285.187 186.342C284.785 186.342 284.398 186.133 284.182 185.762C283.865 185.205 284.05 184.502 284.607 184.177L290.353 180.859C290.91 180.534 291.613 180.728 291.938 181.285C292.255 181.841 292.07 182.545 291.513 182.87L285.767 186.187C285.581 186.296 285.388 186.342 285.187 186.342Z" fill="white"/>
<path d="M272.134 188.863C271.631 188.863 271.167 188.531 271.02 188.028C270.208 185.205 267.386 183.318 264.316 183.566C262.174 183.736 260.434 184.78 259.428 186.512C259.104 187.069 258.392 187.255 257.843 186.93C257.286 186.605 257.101 185.901 257.425 185.345C258.81 182.963 261.261 181.478 264.138 181.254C268.306 180.929 272.134 183.512 273.255 187.386C273.433 188.005 273.077 188.647 272.459 188.825C272.351 188.855 272.242 188.871 272.134 188.871V188.863Z" fill="white"/>
<path d="M272.891 200.277C272.365 200.277 271.886 199.914 271.762 199.38C271.615 198.754 272.002 198.135 272.628 197.988C274.801 197.478 276.464 194.563 276.294 192.536C276.131 190.619 274.337 189.072 272.033 188.863C271.391 188.801 270.927 188.237 270.981 187.603C271.043 186.961 271.615 186.497 272.241 186.551C275.675 186.86 278.351 189.296 278.606 192.343C278.861 195.351 276.533 199.458 273.162 200.254C273.069 200.277 272.984 200.285 272.899 200.285L272.891 200.277Z" fill="white"/>
<path d="M250.634 204.469C246.66 204.469 244.193 201.221 243.559 197.965C242.878 194.493 244.154 190.24 248.546 189.095C249.165 188.933 249.799 189.304 249.962 189.923C250.124 190.541 249.753 191.175 249.134 191.338C246.172 192.111 245.345 195.003 245.832 197.524C246.335 200.1 248.237 202.52 251.338 202.11C251.972 202.033 252.56 202.474 252.637 203.108C252.715 203.742 252.274 204.33 251.64 204.407C251.292 204.453 250.952 204.476 250.627 204.476L250.634 204.469Z" fill="white"/>
<path d="M248.82 191.376C248.247 191.376 247.752 190.951 247.675 190.371C247.629 190.008 247.598 189.636 247.598 189.273C247.598 187.162 248.936 185.051 251.186 183.628C254.109 181.772 257.744 181.486 260.682 182.862C261.262 183.133 261.51 183.829 261.239 184.409C260.968 184.989 260.272 185.236 259.692 184.966C257.032 183.713 254.202 184.463 252.431 185.584C250.861 186.582 249.918 187.958 249.918 189.273C249.918 189.536 249.933 189.799 249.972 190.062C250.057 190.696 249.608 191.284 248.974 191.369C248.92 191.369 248.874 191.376 248.82 191.376Z" fill="white"/>
<path d="M247.681 211.746C247.681 211.746 247.642 211.746 247.619 211.746C246.977 211.715 246.49 211.166 246.521 210.524C246.768 205.93 249.444 202.628 251.957 201.739C252.367 201.592 252.777 201.484 253.195 201.406C253.821 201.283 254.432 201.708 254.548 202.334C254.664 202.961 254.246 203.572 253.62 203.688C253.326 203.742 253.025 203.819 252.731 203.927C251.238 204.461 249.042 206.897 248.833 210.655C248.802 211.274 248.284 211.753 247.673 211.753L247.681 211.746Z" fill="white"/>
<path d="M252.305 198.445C251.678 198.445 251.168 197.95 251.145 197.315C251.129 196.674 251.632 196.14 252.274 196.125C253.511 196.086 254.555 195.15 254.749 193.897C254.865 193.132 254.648 192.374 254.153 191.802C253.728 191.322 253.774 190.588 254.261 190.162C254.741 189.737 255.475 189.791 255.901 190.271C256.852 191.353 257.27 192.807 257.053 194.245C256.69 196.604 254.71 198.367 252.351 198.437C252.344 198.437 252.328 198.437 252.32 198.437L252.305 198.445Z" fill="white"/>
<path d="M258.482 199.852C257.523 199.852 256.572 199.519 255.814 198.87C254.577 197.818 254.121 196.179 254.592 194.477C254.763 193.859 255.404 193.495 256.023 193.673C256.642 193.843 257.005 194.485 256.827 195.104C256.518 196.225 256.998 196.844 257.315 197.114C257.84 197.563 258.591 197.663 259.217 197.377C259.805 197.114 260.485 197.37 260.756 197.95C261.027 198.53 260.771 199.218 260.184 199.488C259.642 199.736 259.055 199.86 258.475 199.86L258.482 199.852Z" fill="white"/>
<path d="M264.778 195.212C264.693 195.212 264.608 195.204 264.522 195.181C263.896 195.042 263.502 194.416 263.649 193.797C263.842 192.939 263.316 192.041 262.388 191.663C261.8 191.423 261.159 191.431 260.617 191.693C260.037 191.964 259.349 191.717 259.071 191.137C258.8 190.557 259.047 189.868 259.627 189.59C260.756 189.056 262.086 189.033 263.27 189.513C265.249 190.317 266.363 192.335 265.914 194.3C265.791 194.841 265.311 195.204 264.785 195.204L264.778 195.212Z" fill="white"/>
<path d="M264.871 192.436C264.199 192.436 263.503 192.258 262.83 191.895C262.265 191.585 262.056 190.882 262.366 190.325C262.675 189.76 263.379 189.551 263.936 189.861C264.562 190.201 265.188 190.209 265.637 189.868C266 189.598 266.171 189.173 266.085 188.747C265.954 188.121 266.356 187.51 266.99 187.378C267.617 187.247 268.228 187.649 268.359 188.283C268.63 189.598 268.119 190.92 267.021 191.732C266.387 192.204 265.645 192.444 264.871 192.444V192.436Z" fill="white"/>
<path d="M252.01 213.184C252.01 213.184 251.963 213.184 251.94 213.184C251.298 213.146 250.811 212.596 250.85 211.955C251.151 207.021 255.026 203.958 260.98 203.958H261.939C264.074 203.958 267.646 203.958 268.512 203.966C269.773 203.989 271.961 203.703 272.317 201.569C272.418 200.973 272.302 200.448 271.977 200.015C271.528 199.404 270.678 198.978 269.649 198.839C268.969 198.793 268.265 198.986 267.809 199.396C267.6 199.581 267.345 199.891 267.322 200.324C267.291 200.966 266.726 201.437 266.1 201.422C265.458 201.391 264.971 200.842 265.002 200.2C265.056 199.233 265.504 198.329 266.27 197.648C267.206 196.821 268.489 196.426 269.881 196.527C271.621 196.759 273.005 197.501 273.833 198.63C274.537 199.581 274.8 200.726 274.591 201.948C274.134 204.67 271.907 206.286 268.628 206.286C268.574 206.286 268.512 206.286 268.458 206.286C267.608 206.271 263.911 206.271 261.924 206.278H260.965C256.294 206.278 253.371 208.451 253.154 212.102C253.116 212.72 252.605 213.192 251.994 213.192L252.01 213.184Z" fill="white"/>
<path d="M248.841 191.369C248.307 191.369 247.836 191.005 247.712 190.464C247.573 189.837 247.959 189.219 248.586 189.08C249.436 188.886 249.985 188.824 250.797 188.84C251.439 188.855 251.95 189.381 251.934 190.023C251.919 190.665 251.385 191.183 250.751 191.16C250.148 191.144 249.753 191.191 249.096 191.338C249.011 191.361 248.926 191.369 248.841 191.369Z" fill="white"/>
<path d="M272.225 191.639C272.163 191.639 272.093 191.639 272.031 191.624C271.397 191.516 270.972 190.92 271.08 190.286C271.22 189.459 271.243 188.91 271.003 187.997C270.841 187.378 271.212 186.744 271.83 186.582C272.449 186.419 273.083 186.791 273.246 187.409C273.586 188.701 273.539 189.621 273.362 190.673C273.269 191.237 272.774 191.639 272.217 191.639H272.225Z" fill="white"/>
</g>
<g clip-path="url(#clip3_1049_105)">
<path d="M264.925 14.0048C263.672 13.4557 262.265 13.6955 261.267 14.6312L246.605 28.2571C246.466 28.3886 246.288 28.4581 246.095 28.4581H232.461C230.574 28.4581 229.035 29.9971 229.035 31.884V48.116C229.035 50.0029 230.574 51.5418 232.461 51.5418H246.102C246.288 51.5418 246.474 51.6114 246.613 51.7428L261.275 65.3687C261.924 65.9719 262.736 66.2813 263.564 66.2813C264.02 66.2813 264.484 66.1885 264.933 65.9951C266.185 65.4461 266.967 64.2552 266.967 62.8864V17.1135C266.967 15.7448 266.185 14.5538 264.933 14.0048H264.925ZM264.291 62.8864C264.291 63.3117 263.989 63.4896 263.858 63.5437C263.726 63.5978 263.394 63.6984 263.077 63.4122L248.415 49.7863C247.78 49.1986 246.953 48.8738 246.087 48.8738H232.461C232.043 48.8738 231.703 48.5336 231.703 48.116V31.884C231.703 31.4664 232.043 31.1261 232.461 31.1261H246.102C246.968 31.1261 247.796 30.8013 248.43 30.2136L263.092 16.5877C263.402 16.3016 263.742 16.4021 263.873 16.4562C264.005 16.5103 264.306 16.6882 264.306 17.1135V62.8864H264.291Z" fill="white"/>
<path d="M293.618 41.3571H273.674C272.924 41.3571 272.32 40.7539 272.32 40.0038C272.32 39.2537 272.924 38.6505 273.674 38.6505H293.618C294.368 38.6505 294.971 39.2537 294.971 40.0038C294.971 40.7539 294.368 41.3571 293.618 41.3571Z" fill="white"/>
<path d="M273.672 29.1851C274.407 28.4504 287.777 15.0797 287.777 15.0797L273.672 29.1851Z" fill="white"/>
<path d="M273.674 30.5384C273.326 30.5384 272.978 30.4069 272.715 30.144C272.189 29.6181 272.189 28.7597 272.715 28.2339C273.449 27.4992 286.82 14.1362 286.82 14.1362L288.73 16.0463C288.73 16.0463 275.359 29.417 274.625 30.1517C274.362 30.4146 274.014 30.5461 273.666 30.5461L273.674 30.5384Z" fill="white"/>
<path d="M273.676 50.8147L287.781 64.9201L273.676 50.8147Z" fill="white"/>
<path d="M287.771 66.2735C287.423 66.2735 287.075 66.142 286.812 65.8791L272.707 51.7737C272.181 51.2479 272.181 50.3895 272.707 49.8636C273.233 49.3378 274.091 49.3378 274.617 49.8636L288.722 63.969C289.248 64.4949 289.248 65.3532 288.722 65.8791C288.459 66.142 288.111 66.2735 287.763 66.2735H287.771Z" fill="white"/>
</g>
<rect x="212" y="264" width="98" height="38" rx="19" fill="url(#paint0_linear_1049_105)"/>
<path d="M236.228 275.99C239.74 275.99 241.946 277.146 241.946 279.073C241.946 280.981 239.74 282.119 236.228 282.113C232.741 282.119 230.497 280.981 230.503 279.073C230.497 277.146 232.741 275.99 236.228 275.99ZM228.999 284.754V283.182H243.475V284.754H228.999ZM230.709 291.367V286.016H241.722V291.367H230.709ZM232.53 279.073C232.517 280.043 233.897 280.584 236.228 280.59C238.54 280.584 239.939 280.043 239.939 279.073C239.939 278.073 238.54 277.526 236.228 277.526C233.897 277.526 232.517 278.073 232.53 279.073ZM232.635 289.789H239.82V287.57H232.635V289.789ZM258.883 278.147V279.744H256.733V281.553H258.883V283.157H256.733V285.817H254.768V275.68H256.733V278.147H258.883ZM244.208 278.831V277.289H247.956V275.574H249.902V277.289H253.637V278.831H244.208ZM245.029 282.299C245.023 280.596 246.601 279.459 248.932 279.459C251.219 279.459 252.798 280.596 252.804 282.299C252.798 284.002 251.219 285.127 248.932 285.127C246.601 285.127 245.023 284.002 245.029 282.299ZM246.284 288.757C246.272 286.992 248.298 285.948 251.599 285.948C254.855 285.948 256.9 286.992 256.907 288.757C256.9 290.497 254.855 291.548 251.599 291.541C248.298 291.548 246.272 290.497 246.284 288.757ZM246.925 282.299C246.912 283.163 247.72 283.66 248.932 283.654C250.132 283.66 250.94 283.163 250.952 282.299C250.94 281.416 250.132 280.901 248.932 280.894C247.72 280.901 246.912 281.416 246.925 282.299ZM248.217 288.757C248.211 289.596 249.423 290.075 251.599 290.068C253.737 290.075 254.949 289.596 254.949 288.757C254.949 287.881 253.737 287.452 251.599 287.452C249.423 287.452 248.211 287.881 248.217 288.757ZM269.339 278.905C269.339 280.882 270.688 282.821 273.218 283.592L272.217 285.127C270.408 284.549 269.103 283.349 268.382 281.839C267.661 283.486 266.312 284.798 264.435 285.438L263.422 283.896C265.983 283.057 267.35 281 267.357 278.905V278.452H263.938V276.879H272.683V278.452H269.339V278.905ZM266.02 291.256V286.159H267.991V289.671H276.978V291.256H266.02ZM274.573 287.228V275.692H276.531V287.228H274.573ZM293.001 283.287V284.841H278.501V283.287H284.797V281.765H280.285V276.394H291.242V277.93H282.224V280.223H291.329V281.765H286.711V283.287H293.001ZM280.185 288.664C280.185 286.805 282.267 285.755 285.717 285.755C289.154 285.755 291.218 286.805 291.224 288.664C291.218 290.51 289.154 291.56 285.717 291.566C282.267 291.56 280.185 290.51 280.185 288.664ZM282.174 288.664C282.162 289.584 283.411 290.062 285.717 290.05C287.998 290.062 289.26 289.584 289.272 288.664C289.26 287.75 287.998 287.259 285.717 287.259C283.411 287.259 282.162 287.75 282.174 288.664Z" fill="white"/>
<rect y="264" width="82" height="38" rx="19" fill="url(#paint1_linear_1049_105)"/>
<path d="M29.8676 275.68V291.554H27.9408V275.68H29.8676ZM16.6287 286.687C17.9588 286.681 19.4381 286.675 20.9671 286.644V283.523H17.7848V277.134H19.7675V281.945H26.1384V283.523H22.9374V286.575C24.3048 286.513 25.6784 286.414 26.9712 286.252L27.0831 287.7C23.5838 288.272 19.8669 288.309 16.84 288.278L16.6287 286.687ZM41.4053 280.186C41.3929 282.647 42.866 285.438 45.3708 286.606L44.2769 288.148C42.4868 287.315 41.1629 285.606 40.4481 283.617C39.7271 285.798 38.3411 287.663 36.52 288.546L35.3701 287.004C37.8998 285.811 39.4412 282.834 39.4475 280.186V278.849H35.9854V277.246H44.7244V278.849H41.4053V280.186ZM46.1912 291.554V275.68H48.1491V281.858H50.598V283.499H48.1491V291.554H46.1912ZM63.6503 276.401V277.519C63.6503 278.688 63.6503 280.192 63.296 282.218H65.4279V283.797H50.9024V282.218H61.3319C61.6551 280.422 61.6924 279.061 61.6986 277.967H52.6986V276.401H63.6503ZM52.4376 287.371V285.823H63.7125V291.579H61.7608V287.371H52.4376Z" fill="white"/>
<rect x="9" y="88" width="63" height="38" rx="19" fill="url(#paint2_linear_1049_105)"/>
<path d="M31.6869 102.905C31.6869 104.882 33.0357 106.821 35.5653 107.592L34.5647 109.127C32.756 108.549 31.4507 107.349 30.7297 105.839C30.0087 107.486 28.66 108.798 26.7829 109.438L25.7698 107.896C28.3305 107.057 29.6979 105 29.7042 102.905V102.452H26.2857V100.879H35.0308V102.452H31.6869V102.905ZM28.3678 115.256V110.159H30.3381V113.671H39.3257V115.256H28.3678ZM36.9203 111.228V99.692H38.8782V111.228H36.9203ZM55.349 107.287V108.841H40.8483V107.287H47.1446V105.765H42.6322V100.394H53.59V101.93H44.5714V104.223H53.677V105.765H49.059V107.287H55.349ZM42.5327 112.664C42.5327 110.805 44.6149 109.755 48.0645 109.755C51.5016 109.755 53.5652 110.805 53.5714 112.664C53.5652 114.51 51.5016 115.56 48.0645 115.566C44.6149 115.56 42.5327 114.51 42.5327 112.664ZM44.5217 112.664C44.5092 113.584 45.7585 114.062 48.0645 114.05C50.3456 114.062 51.6073 113.584 51.6197 112.664C51.6073 111.75 50.3456 111.259 48.0645 111.259C45.7585 111.259 44.5092 111.75 44.5217 112.664Z" fill="white"/>
<rect x="230" y="88" width="63" height="38" rx="19" fill="url(#paint3_linear_1049_105)"/>
<path d="M253.88 99.9903C257.392 99.9903 259.598 101.146 259.598 103.073C259.598 104.981 257.392 106.119 253.88 106.113C250.393 106.119 248.15 104.981 248.156 103.073C248.15 101.146 250.393 99.9903 253.88 99.9903ZM246.652 108.754V107.182H261.128V108.754H246.652ZM248.361 115.367V110.016H259.375V115.367H248.361ZM250.182 103.073C250.17 104.043 251.549 104.584 253.88 104.59C256.192 104.584 257.591 104.043 257.591 103.073C257.591 102.073 256.192 101.526 253.88 101.526C251.549 101.526 250.17 102.073 250.182 103.073ZM250.288 113.789H257.473V111.57H250.288V113.789ZM276.535 102.147V103.744H274.385V105.553H276.535V107.157H274.385V109.817H272.421V99.6796H274.385V102.147H276.535ZM261.861 102.831V101.289H265.609V99.5739H267.554V101.289H271.29V102.831H261.861ZM262.681 106.299C262.675 104.596 264.254 103.459 266.585 103.459C268.872 103.459 270.451 104.596 270.457 106.299C270.451 108.002 268.872 109.127 266.585 109.127C264.254 109.127 262.675 108.002 262.681 106.299ZM263.937 112.757C263.924 110.992 265.951 109.948 269.251 109.948C272.508 109.948 274.553 110.992 274.559 112.757C274.553 114.497 272.508 115.548 269.251 115.541C265.951 115.548 263.924 114.497 263.937 112.757ZM264.577 106.299C264.564 107.163 265.372 107.66 266.585 107.654C267.784 107.66 268.592 107.163 268.605 106.299C268.592 105.416 267.784 104.901 266.585 104.894C265.372 104.901 264.564 105.416 264.577 106.299ZM265.87 112.757C265.864 113.596 267.076 114.075 269.251 114.068C271.389 114.075 272.601 113.596 272.601 112.757C272.601 111.881 271.389 111.452 269.251 111.452C267.076 111.452 265.864 111.881 265.87 112.757Z" fill="white"/>
<path d="M132.332 39.9999H169.665M150.999 21.3333V58.6666" stroke="white" stroke-width="3" stroke-linecap="round" stroke-linejoin="round"/>
<path d="M130.516 179.44C130.192 179.44 129.86 179.565 129.612 179.806C129.114 180.29 129.114 181.081 129.612 181.565L146.633 198.126L129.86 214.438C129.363 214.922 129.363 215.714 129.86 216.197C130.358 216.681 131.171 216.681 131.669 216.197L149.346 199.006C149.843 198.522 149.843 197.731 149.346 197.247L131.42 179.806C131.171 179.565 130.84 179.44 130.516 179.44L130.516 179.44Z" fill="white"/>
<path d="M153.559 179.44C153.235 179.44 152.903 179.565 152.655 179.806C152.157 180.29 152.157 181.081 152.655 181.565L169.676 198.126L152.903 214.438C152.406 214.922 152.406 215.714 152.903 216.197C153.401 216.681 154.214 216.681 154.712 216.197L172.389 199.006C172.886 198.522 172.886 197.731 172.389 197.247L154.463 179.806C154.214 179.565 153.883 179.44 153.559 179.44L153.559 179.44Z" fill="white"/>
<path d="M18.2274 229.039C17.8794 229.039 17.5314 228.907 17.2685 228.644L7.31587 218.692C7.06068 218.436 6.92148 218.096 6.92148 217.733C6.92148 217.369 7.06068 217.029 7.31587 216.774L16.472 207.618L7.27721 198.423C6.75135 197.897 6.75135 197.039 7.27721 196.513L16.1781 187.612L7.40867 178.842C7.14574 178.587 7.00654 178.231 7.01428 177.86C7.01428 177.497 7.17667 177.149 7.44734 176.894L17.2066 167.776C17.7557 167.266 18.6064 167.297 19.1167 167.838C19.6271 168.387 19.5962 169.238 19.0549 169.748L10.3164 177.907L19.0549 186.645C19.5807 187.171 19.5807 188.029 19.0549 188.555L10.154 197.456L19.3487 206.651C19.8746 207.177 19.8746 208.035 19.3487 208.561L10.1926 217.717L19.1941 226.711C19.7199 227.237 19.7199 228.095 19.1941 228.621C18.9311 228.884 18.5832 229.015 18.2352 229.015L18.2274 229.039Z" fill="white"/>
<path d="M31.7821 229.039C31.4341 229.039 31.0861 228.907 30.8232 228.644L20.8706 218.692C20.6154 218.436 20.4762 218.096 20.4762 217.733C20.4762 217.369 20.6154 217.029 20.8706 216.774L30.0267 207.618L20.8319 198.423C20.306 197.897 20.306 197.039 20.8319 196.513L29.7328 187.612L20.9634 178.842C20.7004 178.587 20.5612 178.231 20.569 177.86C20.569 177.497 20.7314 177.149 21.002 176.894L30.7613 167.776C31.3104 167.266 32.161 167.297 32.6714 167.838C33.1818 168.387 33.1509 169.238 32.6096 169.748L23.871 177.907L32.6096 186.645C33.1354 187.171 33.1354 188.029 32.6096 188.555L23.7086 197.456L32.9034 206.651C33.4293 207.177 33.4293 208.035 32.9034 208.561L23.7473 217.717L32.7488 226.711C33.2746 227.237 33.2746 228.095 32.7488 228.621C32.4858 228.884 32.1378 229.015 31.7898 229.015L31.7821 229.039Z" fill="white"/>
<path d="M45.3329 229.039C44.9849 229.039 44.6369 228.907 44.374 228.644L34.4213 218.692C34.1661 218.436 34.0269 218.096 34.0269 217.733C34.0269 217.369 34.1661 217.029 34.4213 216.774L43.5775 207.618L34.3827 198.423C33.8568 197.897 33.8568 197.039 34.3827 196.513L43.2836 187.612L34.5141 178.842C34.2512 178.587 34.112 178.231 34.1197 177.86C34.1197 177.497 34.2821 177.149 34.5528 176.894L44.3121 167.776C44.8612 167.266 45.7118 167.297 46.2222 167.838C46.7326 168.387 46.7017 169.238 46.1603 169.748L37.4218 177.907L46.1603 186.645C46.4155 186.9 46.5547 187.241 46.5547 187.604C46.5547 187.967 46.4155 188.308 46.1603 188.563L37.2594 197.464L46.4542 206.659C46.9801 207.185 46.9801 208.043 46.4542 208.569L37.2981 217.725L46.2995 226.719C46.8254 227.244 46.8254 228.103 46.2995 228.629C46.0366 228.892 45.6886 229.023 45.3406 229.023L45.3329 229.039Z" fill="white"/>
<path d="M73.6332 199.583H53.6892C52.9391 199.583 52.3359 198.979 52.3359 198.229C52.3359 197.479 52.9391 196.876 53.6892 196.876H73.6332C74.3833 196.876 74.9865 197.479 74.9865 198.229C74.9865 198.979 74.3833 199.583 73.6332 199.583Z" fill="white"/>
<path d="M53.6914 187.411C54.4261 186.676 67.7968 173.305 67.7968 173.305L53.6914 187.411Z" fill="white"/>
<path d="M53.6892 188.764C53.3413 188.764 52.9933 188.632 52.7303 188.37C52.2045 187.844 52.2045 186.985 52.7303 186.459L66.828 172.362L68.7381 174.272C68.7381 174.272 55.3674 187.643 54.6327 188.377C54.3698 188.64 54.0218 188.772 53.6738 188.772L53.6892 188.764Z" fill="white"/>
<path d="M53.6914 209.04L67.7968 223.146L53.6914 209.04Z" fill="white"/>
<path d="M67.7907 224.499C67.4427 224.499 67.0947 224.368 66.8318 224.105L52.7264 209.999C52.2006 209.473 52.2006 208.615 52.7264 208.089C53.2523 207.563 54.1107 207.563 54.6365 208.089L68.7419 222.195C69.2677 222.72 69.2677 223.579 68.7419 224.105C68.479 224.368 68.131 224.499 67.783 224.499H67.7907Z" fill="white"/>
<defs>
<linearGradient id="paint0_linear_1049_105" x1="310" y1="283" x2="212" y2="283" gradientUnits="userSpaceOnUse">
<stop stop-color="#56387E"/>
<stop offset="1" stop-color="#23295B"/>
</linearGradient>
<linearGradient id="paint1_linear_1049_105" x1="82" y1="283" x2="0" y2="283" gradientUnits="userSpaceOnUse">
<stop stop-color="#56387E"/>
<stop offset="1" stop-color="#23295B"/>
</linearGradient>
<linearGradient id="paint2_linear_1049_105" x1="72" y1="107" x2="9" y2="107" gradientUnits="userSpaceOnUse">
<stop stop-color="#56387E"/>
<stop offset="1" stop-color="#23295B"/>
</linearGradient>
<linearGradient id="paint3_linear_1049_105" x1="293" y1="107" x2="230" y2="107" gradientUnits="userSpaceOnUse">
<stop stop-color="#56387E"/>
<stop offset="1" stop-color="#23295B"/>
</linearGradient>
<clipPath id="clip0_1049_105">
<rect width="80" height="80" fill="white"/>
</clipPath>
<clipPath id="clip1_1049_105">
<rect width="80" height="80" fill="white"/>
</clipPath>
<clipPath id="clip2_1049_105">
<rect width="80" height="80" fill="white" transform="translate(221 158)"/>
</clipPath>
<clipPath id="clip3_1049_105">
<rect width="80" height="80" fill="white" transform="translate(222)"/>
</clipPath>
</defs>
</svg>
