<svg width="300" height="298" viewBox="0 0 300 298" fill="none" xmlns="http://www.w3.org/2000/svg">
<g clip-path="url(#clip0_1236_395)">
<g clip-path="url(#clip1_1236_395)">
<path d="M30.5829 70.813C30.2349 70.813 29.8869 70.6816 29.624 70.4186L19.6713 60.466C19.1455 59.9402 19.1455 59.0818 19.6713 58.5559L28.8275 49.3998L19.6327 40.205C19.1068 39.6792 19.1068 38.8208 19.6327 38.2949L28.5336 29.394L19.7641 20.6245C19.5012 20.3693 19.362 20.0136 19.3697 19.6424C19.3697 19.279 19.5321 18.931 19.8028 18.6758L29.5621 9.55832C30.1112 9.04793 30.9618 9.07886 31.4722 9.62019C31.9826 10.1692 31.9517 11.0199 31.4103 11.5303L22.6718 19.6888L31.4103 28.4273C31.9362 28.9532 31.9362 29.8116 31.4103 30.3374L22.5094 39.2384L31.7042 48.4331C32.2301 48.959 32.2301 49.8174 31.7042 50.3432L22.5481 59.4994L31.5418 68.4931C32.0677 69.0189 32.0677 69.8773 31.5418 70.4032C31.2789 70.6661 30.9309 70.7976 30.5829 70.7976V70.813Z" fill="white"/>
<path d="M44.1376 70.813C43.7896 70.813 43.4416 70.6815 43.1787 70.4186L33.226 60.4659C32.9708 60.2107 32.8316 59.8705 32.8316 59.507C32.8316 59.1436 32.9708 58.8033 33.226 58.5481L42.3821 49.392L33.1874 40.1972C32.6615 39.6713 32.6615 38.813 33.1874 38.2871L42.0883 29.3862L33.3188 20.6167C33.0559 20.3615 32.9167 20.0058 32.9244 19.6346C32.9244 19.2711 33.0868 18.9232 33.3575 18.668L43.1168 9.55051C43.6659 9.04012 44.5165 9.07105 45.0269 9.61237C45.5373 10.1614 45.5064 11.0121 44.965 11.5225L36.2265 19.681L44.965 28.4195C45.4909 28.9454 45.4909 29.8038 44.965 30.3296L36.0641 39.2305L45.2589 48.4253C45.7848 48.9512 45.7848 49.8096 45.2589 50.3354L36.1028 59.4915L45.1042 68.4853C45.6301 69.0111 45.6301 69.8695 45.1042 70.3954C44.8413 70.6583 44.4933 70.7898 44.1453 70.7898L44.1376 70.813Z" fill="white"/>
<path d="M57.6884 70.813C57.3404 70.813 56.9924 70.6815 56.7294 70.4186L46.7768 60.4659C46.5216 60.2107 46.3824 59.8705 46.3824 59.507C46.3824 59.1436 46.5216 58.8033 46.7768 58.5481L55.9329 49.392L46.7381 40.1972C46.2123 39.6713 46.2123 38.813 46.7381 38.2871L55.6391 29.3862L46.8696 20.6167C46.6067 20.3615 46.4675 20.0058 46.4752 19.6346C46.4752 19.2711 46.6376 18.9232 46.9083 18.668L56.6676 9.55051C57.2166 9.04012 58.0673 9.07105 58.5777 9.61237C59.0881 10.1614 59.0571 11.0121 58.5158 11.5225L49.7773 19.681L58.5158 28.4195C59.0417 28.9454 59.0417 29.8038 58.5158 30.3296L49.6149 39.2305L58.8097 48.4253C59.3355 48.9512 59.3355 49.8096 58.8097 50.3354L49.6536 59.4915L58.655 68.4853C59.1809 69.0111 59.1809 69.8695 58.655 70.3954C58.3921 70.6583 58.0441 70.7898 57.6961 70.7898L57.6884 70.813Z" fill="white"/>
<path d="M71.2431 70.813C70.8951 70.813 70.5471 70.6815 70.2841 70.4186L60.3315 60.4659C60.0763 60.2107 59.9371 59.8705 59.9371 59.507C59.9371 59.1436 60.0763 58.8033 60.3315 58.5481L69.4876 49.392L60.2928 40.1972C59.767 39.6713 59.767 38.813 60.2928 38.2871L69.1938 29.3862L60.4243 20.6167C60.1614 20.3615 60.0222 20.0058 60.0299 19.6346C60.0299 19.2711 60.1923 18.9232 60.463 18.668L70.2223 9.55051C70.7713 9.04012 71.622 9.07105 72.1324 9.61237C72.6428 10.1614 72.6118 11.0121 72.0705 11.5225L63.332 19.681L72.0705 28.4195C72.3257 28.6747 72.4649 29.015 72.4649 29.3784C72.4649 29.7419 72.3257 30.0822 72.0705 30.3374L63.1696 39.2383L72.3644 48.4331C72.8902 48.9589 72.8902 49.8173 72.3644 50.3432L63.2083 59.4993L72.2097 68.493C72.7356 69.0189 72.7356 69.8772 72.2097 70.4031C71.9468 70.666 71.5988 70.7975 71.2508 70.7975L71.2431 70.813Z" fill="white"/>
</g>
</g>
<g clip-path="url(#clip2_1236_395)">
<path d="M269.049 232.579C268.98 232.579 268.902 232.579 268.833 232.556C268.206 232.44 267.789 231.829 267.912 231.203L269.297 223.895C269.413 223.268 270.031 222.851 270.65 222.974C271.276 223.09 271.694 223.701 271.57 224.328L270.186 231.636C270.078 232.192 269.59 232.579 269.049 232.579Z" fill="white"/>
<path d="M243.553 232.579C243.437 232.579 243.321 232.563 243.197 232.525C242.586 232.331 242.254 231.674 242.447 231.071C244.72 223.956 244.233 219.68 240.591 214.723C238.178 211.367 234.984 206.162 234.984 199.659C234.984 193.155 237.807 186.458 242.733 181.88C247.729 177.24 254.24 174.959 261.084 175.461C273.117 176.351 282.737 185.979 283.464 197.872C283.503 198.514 283.479 199.187 283.387 200.045C283.309 200.78 283.58 201.391 283.92 202.172L287.029 209.325C287.338 210.037 287.269 210.841 286.859 211.49C286.464 212.117 285.792 212.511 285.057 212.565L282.211 213.022C282.211 213.022 282.157 213.053 282.149 213.083L281.206 222.286C281.036 224.08 279.597 225.449 277.788 225.542C274.563 225.712 272.22 225.619 270.217 225.248C268.237 224.877 266.497 224.227 264.401 223.075C263.837 222.765 263.636 222.062 263.945 221.497C264.255 220.94 264.958 220.732 265.523 221.041C267.394 222.069 268.925 222.642 270.65 222.967C272.467 223.307 274.64 223.384 277.672 223.229C278.321 223.199 278.839 222.704 278.894 222.062L279.837 212.851C279.937 211.777 280.765 210.903 281.832 210.725L284.748 210.261C284.794 210.261 284.848 210.245 284.894 210.245L281.786 203.1C281.384 202.18 280.935 201.136 281.074 199.798C281.152 199.071 281.175 198.522 281.144 198.011C280.494 187.278 271.794 178.578 260.906 177.774C254.727 177.317 248.827 179.382 244.311 183.574C239.856 187.711 237.304 193.573 237.304 199.651C237.304 204.09 238.944 208.444 242.47 213.354C246.569 218.93 247.164 223.918 244.659 231.767C244.504 232.262 244.048 232.571 243.553 232.571V232.579Z" fill="white"/>
<path d="M259.004 172.376C258.362 172.376 257.844 171.858 257.844 171.216V164.581C257.844 163.939 258.362 163.421 259.004 163.421C259.646 163.421 260.164 163.939 260.164 164.581V171.216C260.164 171.858 259.646 172.376 259.004 172.376Z" fill="white"/>
<path d="M249.457 174.062C248.985 174.062 248.536 173.768 248.366 173.296L246.1 167.063C245.884 166.46 246.193 165.795 246.796 165.578C247.392 165.362 248.065 165.671 248.281 166.274L250.547 172.507C250.763 173.11 250.454 173.776 249.851 173.992C249.719 174.038 249.588 174.062 249.457 174.062Z" fill="white"/>
<path d="M241.057 178.911C240.725 178.911 240.4 178.771 240.168 178.493L235.907 173.412C235.497 172.925 235.559 172.19 236.054 171.781C236.541 171.371 237.276 171.433 237.686 171.928L241.947 177.008C242.357 177.495 242.295 178.23 241.8 178.64C241.583 178.826 241.32 178.911 241.057 178.911Z" fill="white"/>
<path d="M234.816 186.342C234.622 186.342 234.421 186.296 234.236 186.187L228.49 182.87C227.933 182.553 227.747 181.841 228.065 181.285C228.382 180.728 229.093 180.542 229.65 180.859L235.396 184.177C235.952 184.494 236.138 185.205 235.821 185.762C235.604 186.133 235.218 186.342 234.816 186.342Z" fill="white"/>
<path d="M268.558 174.062C268.426 174.062 268.295 174.038 268.163 173.992C267.56 173.776 267.251 173.11 267.467 172.507L269.733 166.274C269.95 165.671 270.623 165.362 271.218 165.578C271.821 165.795 272.131 166.46 271.914 167.063L269.648 173.296C269.478 173.768 269.03 174.062 268.558 174.062Z" fill="white"/>
<path d="M276.954 178.911C276.691 178.911 276.428 178.818 276.212 178.64C275.724 178.23 275.655 177.495 276.065 177.008L280.326 171.927C280.736 171.44 281.47 171.371 281.957 171.781C282.445 172.19 282.514 172.925 282.104 173.412L277.843 178.493C277.611 178.764 277.287 178.911 276.954 178.911Z" fill="white"/>
<path d="M283.187 186.342C282.785 186.342 282.398 186.133 282.182 185.762C281.865 185.205 282.05 184.502 282.607 184.177L288.353 180.859C288.91 180.534 289.613 180.728 289.938 181.285C290.255 181.841 290.07 182.545 289.513 182.87L283.767 186.187C283.581 186.296 283.388 186.342 283.187 186.342Z" fill="white"/>
<path d="M270.134 188.863C269.631 188.863 269.167 188.531 269.02 188.028C268.208 185.205 265.386 183.318 262.316 183.566C260.174 183.736 258.434 184.78 257.428 186.512C257.104 187.069 256.392 187.255 255.843 186.93C255.286 186.605 255.101 185.901 255.425 185.344C256.81 182.963 259.261 181.478 262.138 181.254C266.306 180.929 270.134 183.512 271.255 187.386C271.433 188.005 271.077 188.647 270.459 188.824C270.351 188.855 270.242 188.871 270.134 188.871V188.863Z" fill="white"/>
<path d="M270.891 200.277C270.365 200.277 269.886 199.914 269.762 199.38C269.615 198.754 270.002 198.135 270.628 197.988C272.801 197.478 274.464 194.563 274.294 192.536C274.131 190.619 272.337 189.072 270.033 188.863C269.391 188.801 268.927 188.237 268.981 187.603C269.043 186.961 269.615 186.497 270.241 186.551C273.675 186.86 276.351 189.296 276.606 192.343C276.861 195.351 274.533 199.458 271.162 200.254C271.069 200.277 270.984 200.285 270.899 200.285L270.891 200.277Z" fill="white"/>
<path d="M248.634 204.469C244.66 204.469 242.193 201.221 241.559 197.965C240.878 194.493 242.154 190.24 246.546 189.095C247.165 188.933 247.799 189.304 247.962 189.922C248.124 190.541 247.753 191.175 247.134 191.338C244.172 192.111 243.345 195.003 243.832 197.524C244.335 200.099 246.237 202.52 249.338 202.11C249.972 202.033 250.56 202.473 250.637 203.108C250.715 203.742 250.274 204.329 249.64 204.407C249.292 204.453 248.952 204.476 248.627 204.476L248.634 204.469Z" fill="white"/>
<path d="M246.82 191.376C246.247 191.376 245.752 190.951 245.675 190.371C245.629 190.008 245.598 189.636 245.598 189.273C245.598 187.162 246.936 185.051 249.186 183.628C252.109 181.772 255.744 181.486 258.682 182.862C259.262 183.133 259.51 183.829 259.239 184.409C258.968 184.989 258.272 185.236 257.692 184.966C255.032 183.713 252.202 184.463 250.431 185.584C248.861 186.582 247.918 187.958 247.918 189.273C247.918 189.536 247.933 189.799 247.972 190.062C248.057 190.696 247.608 191.284 246.974 191.369C246.92 191.369 246.874 191.376 246.82 191.376Z" fill="white"/>
<path d="M245.681 211.746C245.681 211.746 245.642 211.746 245.619 211.746C244.977 211.715 244.49 211.166 244.521 210.524C244.768 205.93 247.444 202.628 249.957 201.739C250.367 201.592 250.777 201.484 251.195 201.406C251.821 201.283 252.432 201.708 252.548 202.334C252.664 202.961 252.246 203.572 251.62 203.688C251.326 203.742 251.025 203.819 250.731 203.927C249.238 204.461 247.042 206.897 246.833 210.655C246.802 211.274 246.284 211.753 245.673 211.753L245.681 211.746Z" fill="white"/>
<path d="M250.305 198.445C249.678 198.445 249.168 197.95 249.145 197.316C249.129 196.674 249.632 196.14 250.274 196.125C251.511 196.086 252.555 195.15 252.749 193.898C252.865 193.132 252.648 192.374 252.153 191.802C251.728 191.322 251.774 190.588 252.261 190.162C252.741 189.737 253.475 189.791 253.901 190.271C254.852 191.353 255.27 192.807 255.053 194.246C254.69 196.604 252.71 198.367 250.351 198.437C250.344 198.437 250.328 198.437 250.32 198.437L250.305 198.445Z" fill="white"/>
<path d="M256.482 199.852C255.523 199.852 254.572 199.519 253.814 198.87C252.577 197.818 252.121 196.179 252.592 194.477C252.763 193.859 253.404 193.495 254.023 193.673C254.642 193.843 255.005 194.485 254.827 195.104C254.518 196.225 254.998 196.844 255.315 197.114C255.84 197.563 256.591 197.663 257.217 197.377C257.805 197.114 258.485 197.37 258.756 197.95C259.027 198.53 258.771 199.218 258.184 199.488C257.642 199.736 257.055 199.86 256.475 199.86L256.482 199.852Z" fill="white"/>
<path d="M262.778 195.212C262.693 195.212 262.608 195.204 262.522 195.181C261.896 195.042 261.502 194.415 261.649 193.797C261.842 192.938 261.316 192.041 260.388 191.662C259.8 191.423 259.159 191.43 258.617 191.693C258.037 191.964 257.349 191.717 257.071 191.137C256.8 190.557 257.047 189.868 257.627 189.59C258.756 189.056 260.086 189.033 261.27 189.513C263.249 190.317 264.363 192.335 263.914 194.299C263.791 194.841 263.311 195.204 262.785 195.204L262.778 195.212Z" fill="white"/>
<path d="M262.871 192.436C262.199 192.436 261.503 192.258 260.83 191.895C260.265 191.585 260.056 190.882 260.366 190.325C260.675 189.76 261.379 189.551 261.936 189.861C262.562 190.201 263.188 190.209 263.637 189.868C264 189.598 264.171 189.173 264.085 188.747C263.954 188.121 264.356 187.51 264.99 187.378C265.617 187.247 266.228 187.649 266.359 188.283C266.63 189.598 266.119 190.92 265.021 191.732C264.387 192.204 263.645 192.444 262.871 192.444V192.436Z" fill="white"/>
<path d="M250.01 213.184C250.01 213.184 249.963 213.184 249.94 213.184C249.298 213.146 248.811 212.596 248.85 211.955C249.151 207.021 253.026 203.958 258.98 203.958H259.939C262.074 203.958 265.646 203.958 266.512 203.966C267.773 203.989 269.961 203.703 270.317 201.569C270.418 200.973 270.302 200.448 269.977 200.015C269.528 199.404 268.678 198.978 267.649 198.839C266.969 198.793 266.265 198.986 265.809 199.396C265.6 199.581 265.345 199.891 265.322 200.324C265.291 200.966 264.726 201.437 264.1 201.422C263.458 201.391 262.971 200.842 263.002 200.2C263.056 199.233 263.504 198.329 264.27 197.648C265.206 196.821 266.489 196.426 267.881 196.527C269.621 196.759 271.005 197.501 271.833 198.63C272.537 199.581 272.8 200.726 272.591 201.948C272.134 204.67 269.907 206.286 266.628 206.286C266.574 206.286 266.512 206.286 266.458 206.286C265.608 206.271 261.911 206.271 259.924 206.278H258.965C254.294 206.278 251.371 208.451 251.154 212.102C251.116 212.72 250.605 213.192 249.994 213.192L250.01 213.184Z" fill="white"/>
<path d="M246.841 191.369C246.307 191.369 245.836 191.005 245.712 190.464C245.573 189.837 245.959 189.219 246.586 189.08C247.436 188.886 247.985 188.824 248.797 188.84C249.439 188.855 249.95 189.381 249.934 190.023C249.919 190.665 249.385 191.183 248.751 191.16C248.148 191.144 247.753 191.191 247.096 191.338C247.011 191.361 246.926 191.369 246.841 191.369Z" fill="white"/>
<path d="M270.225 191.639C270.163 191.639 270.093 191.639 270.031 191.624C269.397 191.516 268.972 190.92 269.08 190.286C269.22 189.459 269.243 188.91 269.003 187.997C268.841 187.378 269.212 186.744 269.83 186.582C270.449 186.419 271.083 186.791 271.246 187.409C271.586 188.701 271.539 189.621 271.362 190.673C271.269 191.237 270.774 191.639 270.217 191.639H270.225Z" fill="white"/>
</g>
<g clip-path="url(#clip3_1236_395)">
<path d="M262.925 14.0048C261.672 13.4557 260.265 13.6955 259.267 14.6312L244.605 28.2571C244.466 28.3886 244.288 28.4581 244.095 28.4581H230.461C228.574 28.4581 227.035 29.9971 227.035 31.884V48.116C227.035 50.0029 228.574 51.5418 230.461 51.5418H244.102C244.288 51.5418 244.474 51.6114 244.613 51.7428L259.275 65.3687C259.924 65.9719 260.736 66.2813 261.564 66.2813C262.02 66.2813 262.484 66.1885 262.933 65.9951C264.185 65.4461 264.967 64.2552 264.967 62.8864V17.1135C264.967 15.7448 264.185 14.5538 262.933 14.0048H262.925ZM262.291 62.8864C262.291 63.3117 261.989 63.4896 261.858 63.5437C261.726 63.5978 261.394 63.6984 261.077 63.4122L246.415 49.7863C245.78 49.1986 244.953 48.8738 244.087 48.8738H230.461C230.043 48.8738 229.703 48.5336 229.703 48.116V31.884C229.703 31.4664 230.043 31.1261 230.461 31.1261H244.102C244.968 31.1261 245.796 30.8013 246.43 30.2136L261.092 16.5877C261.402 16.3016 261.742 16.4021 261.873 16.4562C262.005 16.5103 262.306 16.6882 262.306 17.1135V62.8864H262.291Z" fill="white"/>
<path d="M291.618 41.3573H271.674C270.924 41.3573 270.32 40.7541 270.32 40.0039C270.32 39.2538 270.924 38.6506 271.674 38.6506H291.618C292.368 38.6506 292.971 39.2538 292.971 40.0039C292.971 40.7541 292.368 41.3573 291.618 41.3573Z" fill="white"/>
<path d="M271.672 29.185C272.407 28.4503 285.777 15.0796 285.777 15.0796L271.672 29.185Z" fill="white"/>
<path d="M271.674 30.5384C271.326 30.5384 270.978 30.4069 270.715 30.144C270.189 29.6181 270.189 28.7597 270.715 28.2339C271.449 27.4992 284.82 14.1362 284.82 14.1362L286.73 16.0463C286.73 16.0463 273.359 29.417 272.625 30.1517C272.362 30.4146 272.014 30.5461 271.666 30.5461L271.674 30.5384Z" fill="white"/>
<path d="M271.676 50.8147L285.781 64.9201L271.676 50.8147Z" fill="white"/>
<path d="M285.771 66.2735C285.423 66.2735 285.075 66.142 284.812 65.8791L270.707 51.7737C270.181 51.2479 270.181 50.3895 270.707 49.8636C271.233 49.3378 272.091 49.3378 272.617 49.8636L286.722 63.969C287.248 64.4949 287.248 65.3532 286.722 65.8791C286.459 66.142 286.111 66.2735 285.763 66.2735H285.771Z" fill="white"/>
</g>
<rect x="221" y="264" width="77" height="34" rx="17" fill="url(#paint0_linear_1236_395)"/>
<path d="M244.77 280.055L245.91 279.185C246.26 279.565 246.62 279.975 246.99 280.415C247.37 280.855 247.735 281.3 248.085 281.75C248.445 282.2 248.77 282.635 249.06 283.055C249.35 283.475 249.59 283.86 249.78 284.21L248.505 285.23C248.335 284.88 248.11 284.49 247.83 284.06C247.55 283.63 247.24 283.185 246.9 282.725C246.56 282.255 246.205 281.795 245.835 281.345C245.475 280.885 245.12 280.455 244.77 280.055ZM247.965 278.135L249.465 278.465C249.215 279.405 248.905 280.32 248.535 281.21C248.175 282.09 247.765 282.91 247.305 283.67C246.855 284.43 246.36 285.09 245.82 285.65C245.75 285.55 245.645 285.425 245.505 285.275C245.375 285.125 245.24 284.975 245.1 284.825C244.96 284.665 244.835 284.54 244.725 284.45C245.485 283.72 246.14 282.8 246.69 281.69C247.24 280.57 247.665 279.385 247.965 278.135ZM243.015 276.335H251.595V278.03H243.015V276.335ZM243.315 278.93H244.965V286.04H250.755V287.705H243.315V278.93ZM249.585 278.915H251.235V288.32H249.585V278.915ZM245.61 274.76L247.215 274.22C247.435 274.56 247.66 274.945 247.89 275.375C248.13 275.795 248.315 276.16 248.445 276.47L246.735 277.085C246.635 276.775 246.47 276.405 246.24 275.975C246.02 275.535 245.81 275.13 245.61 274.76ZM238.935 274.79H242.16V276.185H238.935V274.79ZM241.155 274.79H242.655V286.46C242.655 286.82 242.62 287.115 242.55 287.345C242.48 287.585 242.34 287.77 242.13 287.9C241.91 288.03 241.655 288.115 241.365 288.155C241.085 288.195 240.74 288.215 240.33 288.215C240.32 287.995 240.265 287.73 240.165 287.42C240.075 287.12 239.98 286.865 239.88 286.655C240.1 286.665 240.31 286.675 240.51 286.685C240.72 286.685 240.865 286.685 240.945 286.685C241.085 286.675 241.155 286.595 241.155 286.445V274.79ZM238.41 274.79H239.955V280.325C239.955 280.915 239.94 281.565 239.91 282.275C239.89 282.975 239.84 283.69 239.76 284.42C239.68 285.15 239.565 285.86 239.415 286.55C239.275 287.23 239.085 287.85 238.845 288.41C238.765 288.31 238.64 288.19 238.47 288.05C238.31 287.91 238.145 287.775 237.975 287.645C237.815 287.525 237.675 287.44 237.555 287.39C237.825 286.71 238.015 285.965 238.125 285.155C238.245 284.335 238.32 283.505 238.35 282.665C238.39 281.815 238.41 281.04 238.41 280.34V274.79ZM238.8 278.33H241.95V279.785H238.8V278.33ZM238.77 281.75H241.92V283.25H238.77V281.75ZM252.66 275.885H260.43V277.49H252.66V275.885ZM255.765 274.385H257.415V288.305H255.765V274.385ZM258.735 278.57H260.295V281.45C260.295 281.77 260.26 282.03 260.19 282.23C260.13 282.43 259.995 282.59 259.785 282.71C259.585 282.83 259.35 282.905 259.08 282.935C258.81 282.955 258.495 282.965 258.135 282.965C258.115 282.745 258.065 282.51 257.985 282.26C257.905 282 257.82 281.77 257.73 281.57C257.91 281.58 258.08 281.585 258.24 281.585C258.4 281.585 258.505 281.58 258.555 281.57C258.625 281.57 258.67 281.56 258.69 281.54C258.72 281.52 258.735 281.48 258.735 281.42V278.57ZM255.885 281.75L257.07 282.32C256.77 282.97 256.415 283.63 256.005 284.3C255.595 284.97 255.145 285.595 254.655 286.175C254.175 286.755 253.675 287.24 253.155 287.63C253.065 287.38 252.935 287.1 252.765 286.79C252.605 286.47 252.45 286.2 252.3 285.98C252.78 285.66 253.25 285.27 253.71 284.81C254.17 284.35 254.59 283.855 254.97 283.325C255.35 282.785 255.655 282.26 255.885 281.75ZM257.145 282.89C257.285 282.96 257.47 283.06 257.7 283.19C257.93 283.32 258.175 283.47 258.435 283.64C258.705 283.8 258.97 283.965 259.23 284.135C259.5 284.295 259.74 284.445 259.95 284.585C260.17 284.715 260.33 284.815 260.43 284.885L259.485 286.445C259.295 286.265 259.06 286.06 258.78 285.83C258.5 285.6 258.2 285.36 257.88 285.11C257.57 284.86 257.27 284.63 256.98 284.42C256.69 284.2 256.44 284.02 256.23 283.88L257.145 282.89ZM253.05 278.57H259.305V280.115H254.595V282.815H253.05V278.57ZM261.09 275.87H262.785V284.345H261.09V275.87ZM264.255 274.565H266.01V286.19C266.01 286.7 265.95 287.09 265.83 287.36C265.72 287.63 265.52 287.835 265.23 287.975C264.94 288.125 264.565 288.22 264.105 288.26C263.655 288.31 263.105 288.335 262.455 288.335C262.435 288.165 262.395 287.97 262.335 287.75C262.275 287.53 262.205 287.305 262.125 287.075C262.045 286.855 261.96 286.665 261.87 286.505C262.31 286.515 262.72 286.525 263.1 286.535C263.49 286.535 263.755 286.535 263.895 286.535C264.025 286.535 264.115 286.51 264.165 286.46C264.225 286.41 264.255 286.32 264.255 286.19V274.565ZM272.505 278.81V279.545H274.53V278.81H272.505ZM272.505 276.92V277.64H274.53V276.92H272.505ZM271.08 275.675H276.03V280.79H271.08V275.675ZM270.615 281.705H276.405V283.175H270.615V281.705ZM277.29 276.98H281.28V278.6H277.29V276.98ZM272.505 283.85H275.055V285.275H272.505V283.85ZM272.655 280.64H274.335V282.44H272.655V280.64ZM272.79 274.235L274.695 274.43C274.555 274.85 274.41 275.255 274.26 275.645C274.12 276.025 273.995 276.35 273.885 276.62L272.34 276.38C272.42 276.07 272.505 275.72 272.595 275.33C272.685 274.93 272.75 274.565 272.79 274.235ZM274.38 283.85H275.955C275.955 283.85 275.95 283.92 275.94 284.06C275.94 284.2 275.935 284.315 275.925 284.405C275.895 285.085 275.865 285.655 275.835 286.115C275.805 286.565 275.76 286.92 275.7 287.18C275.64 287.44 275.56 287.635 275.46 287.765C275.34 287.905 275.21 288.005 275.07 288.065C274.93 288.135 274.77 288.185 274.59 288.215C274.44 288.245 274.24 288.26 273.99 288.26C273.75 288.27 273.49 288.27 273.21 288.26C273.2 288.04 273.155 287.795 273.075 287.525C273.005 287.255 272.92 287.03 272.82 286.85C273.03 286.87 273.215 286.885 273.375 286.895C273.535 286.895 273.655 286.895 273.735 286.895C273.905 286.895 274.03 286.85 274.11 286.76C274.16 286.69 274.2 286.56 274.23 286.37C274.26 286.18 274.285 285.9 274.305 285.53C274.335 285.16 274.36 284.67 274.38 284.06V283.85ZM279.105 278L280.695 278.105C280.555 279.705 280.325 281.15 280.005 282.44C279.695 283.72 279.26 284.855 278.7 285.845C278.15 286.835 277.425 287.68 276.525 288.38C276.455 288.28 276.34 288.16 276.18 288.02C276.03 287.88 275.87 287.735 275.7 287.585C275.54 287.445 275.405 287.33 275.295 287.24C276.165 286.65 276.86 285.91 277.38 285.02C277.9 284.13 278.295 283.095 278.565 281.915C278.835 280.735 279.015 279.43 279.105 278ZM277.725 278.135C277.815 278.885 277.94 279.68 278.1 280.52C278.26 281.35 278.48 282.17 278.76 282.98C279.04 283.78 279.4 284.525 279.84 285.215C280.29 285.895 280.83 286.465 281.46 286.925C281.35 287.025 281.225 287.155 281.085 287.315C280.945 287.485 280.805 287.66 280.665 287.84C280.535 288.03 280.435 288.195 280.365 288.335C279.725 287.805 279.185 287.165 278.745 286.415C278.315 285.665 277.955 284.865 277.665 284.015C277.385 283.155 277.165 282.3 277.005 281.45C276.845 280.59 276.72 279.79 276.63 279.05L277.725 278.135ZM267.72 275.705L268.74 274.4C269.01 274.51 269.295 274.65 269.595 274.82C269.895 274.98 270.18 275.15 270.45 275.33C270.72 275.5 270.94 275.665 271.11 275.825L270.03 277.25C269.88 277.09 269.675 276.915 269.415 276.725C269.155 276.535 268.875 276.35 268.575 276.17C268.275 275.99 267.99 275.835 267.72 275.705ZM267.135 279.68L268.14 278.36C268.42 278.47 268.71 278.6 269.01 278.75C269.31 278.9 269.595 279.06 269.865 279.23C270.135 279.4 270.355 279.565 270.525 279.725L269.46 281.165C269.31 281.005 269.105 280.835 268.845 280.655C268.585 280.475 268.305 280.3 268.005 280.13C267.705 279.96 267.415 279.81 267.135 279.68ZM267.36 287.27C267.56 286.87 267.77 286.41 267.99 285.89C268.22 285.36 268.45 284.8 268.68 284.21C268.91 283.61 269.125 283.015 269.325 282.425L270.765 283.37C270.595 283.9 270.41 284.445 270.21 285.005C270.02 285.555 269.82 286.1 269.61 286.64C269.4 287.18 269.195 287.695 268.995 288.185L267.36 287.27ZM277.08 274.235L278.745 274.52C278.615 275.45 278.445 276.365 278.235 277.265C278.025 278.155 277.775 278.995 277.485 279.785C277.195 280.565 276.855 281.245 276.465 281.825C276.385 281.715 276.27 281.575 276.12 281.405C275.98 281.235 275.83 281.065 275.67 280.895C275.52 280.725 275.385 280.59 275.265 280.49C275.595 279.99 275.875 279.41 276.105 278.75C276.335 278.08 276.53 277.36 276.69 276.59C276.86 275.82 276.99 275.035 277.08 274.235ZM272.055 282.68H273.555V283.595C273.555 283.935 273.53 284.315 273.48 284.735C273.43 285.145 273.32 285.57 273.15 286.01C272.98 286.45 272.735 286.88 272.415 287.3C272.105 287.73 271.69 288.12 271.17 288.47C271.03 288.31 270.84 288.13 270.6 287.93C270.37 287.74 270.16 287.575 269.97 287.435C270.43 287.125 270.8 286.795 271.08 286.445C271.36 286.095 271.57 285.75 271.71 285.41C271.85 285.06 271.94 284.725 271.98 284.405C272.03 284.075 272.055 283.785 272.055 283.535V282.68Z" fill="white"/>
<rect y="264" width="92" height="34" rx="17" fill="url(#paint1_linear_1236_395)"/>
<path d="M17.35 275.39H30.52V276.905H17.35V275.39ZM18.325 277.835H29.83V279.335H18.325V277.835ZM19.705 283.205H28.375V284.72H19.705V283.205ZM19.735 280.175H29.62V285.53H27.805V281.63H19.735V280.175ZM18.565 280.175H20.35V282.05C20.35 282.53 20.32 283.05 20.26 283.61C20.2 284.17 20.09 284.74 19.93 285.32C19.77 285.89 19.545 286.445 19.255 286.985C18.965 287.515 18.59 287.995 18.13 288.425C18.04 288.305 17.91 288.165 17.74 288.005C17.57 287.845 17.39 287.69 17.2 287.54C17.02 287.39 16.865 287.275 16.735 287.195C17.285 286.695 17.69 286.14 17.95 285.53C18.21 284.92 18.375 284.315 18.445 283.715C18.525 283.105 18.565 282.545 18.565 282.035V280.175ZM23.005 274.25H24.82V278.63H23.005V274.25ZM23.05 280.67H24.805V284.15H23.05V280.67ZM37.36 276.23H44.245V277.895H37.36V276.23ZM37.39 279.98H43.615V281.57H37.39V279.98ZM39.865 274.235H41.635V280.88H39.865V274.235ZM36.4 276.23H38.125V280.085C38.125 280.695 38.1 281.36 38.05 282.08C38.01 282.79 37.925 283.515 37.795 284.255C37.665 284.995 37.48 285.715 37.24 286.415C37 287.115 36.675 287.745 36.265 288.305C36.165 288.215 36.02 288.11 35.83 287.99C35.65 287.87 35.46 287.755 35.26 287.645C35.07 287.545 34.9 287.47 34.75 287.42C35.13 286.89 35.43 286.315 35.65 285.695C35.87 285.075 36.035 284.435 36.145 283.775C36.255 283.115 36.325 282.47 36.355 281.84C36.385 281.21 36.4 280.62 36.4 280.07V276.23ZM43.825 276.23H44.095L44.395 276.17L45.715 276.47C45.535 277.05 45.335 277.635 45.115 278.225C44.905 278.805 44.695 279.3 44.485 279.71L42.925 279.275C43.085 278.915 43.245 278.475 43.405 277.955C43.575 277.425 43.715 276.93 43.825 276.47V276.23ZM39.445 281.015C39.785 281.925 40.245 282.765 40.825 283.535C41.415 284.305 42.12 284.965 42.94 285.515C43.77 286.065 44.705 286.49 45.745 286.79C45.615 286.92 45.475 287.075 45.325 287.255C45.175 287.435 45.035 287.62 44.905 287.81C44.775 288 44.67 288.175 44.59 288.335C42.92 287.765 41.54 286.89 40.45 285.71C39.37 284.53 38.52 283.11 37.9 281.45L39.445 281.015ZM32.44 275.66L33.46 274.34C33.74 274.48 34.045 274.64 34.375 274.82C34.715 274.99 35.04 275.165 35.35 275.345C35.67 275.525 35.935 275.69 36.145 275.84L35.08 277.295C34.9 277.145 34.655 276.97 34.345 276.77C34.035 276.57 33.71 276.375 33.37 276.185C33.04 275.985 32.73 275.81 32.44 275.66ZM31.57 279.74L32.56 278.405C32.84 278.525 33.15 278.67 33.49 278.84C33.84 279.01 34.175 279.18 34.495 279.35C34.815 279.52 35.08 279.675 35.29 279.815L34.255 281.315C34.065 281.165 33.815 280.995 33.505 280.805C33.195 280.615 32.865 280.425 32.515 280.235C32.175 280.045 31.86 279.88 31.57 279.74ZM31.855 287.105C32.095 286.715 32.355 286.26 32.635 285.74C32.925 285.21 33.215 284.65 33.505 284.06C33.795 283.46 34.065 282.865 34.315 282.275L35.725 283.355C35.505 283.895 35.27 284.445 35.02 285.005C34.77 285.555 34.51 286.1 34.24 286.64C33.98 287.17 33.72 287.68 33.46 288.17L31.855 287.105ZM42.985 279.98H43.33L43.645 279.92L44.77 280.4C44.43 281.8 43.94 283.025 43.3 284.075C42.66 285.115 41.9 285.99 41.02 286.7C40.15 287.41 39.195 287.965 38.155 288.365C38.075 288.225 37.97 288.055 37.84 287.855C37.71 287.665 37.57 287.48 37.42 287.3C37.27 287.12 37.13 286.975 37 286.865C38 286.535 38.9 286.075 39.7 285.485C40.51 284.895 41.195 284.175 41.755 283.325C42.325 282.465 42.735 281.46 42.985 280.31V279.98ZM52.24 274.895H59.98V276.455H52.24V274.895ZM53.8 277.58H59.575V279.05H53.8V277.58ZM52.66 280.25H60.22V281.765H52.66V280.25ZM51.55 274.895H53.215V279.32C53.215 279.98 53.19 280.7 53.14 281.48C53.1 282.25 53.01 283.045 52.87 283.865C52.74 284.685 52.545 285.48 52.285 286.25C52.025 287.01 51.68 287.7 51.25 288.32C51.16 288.21 51.03 288.085 50.86 287.945C50.69 287.815 50.515 287.685 50.335 287.555C50.165 287.435 50.015 287.345 49.885 287.285C50.275 286.715 50.58 286.095 50.8 285.425C51.03 284.745 51.195 284.05 51.295 283.34C51.405 282.63 51.475 281.935 51.505 281.255C51.535 280.565 51.55 279.92 51.55 279.32V274.895ZM53.695 281.24H55.285V286.925L53.695 287.06V281.24ZM52.54 286.535C53.14 286.445 53.845 286.325 54.655 286.175C55.475 286.025 56.31 285.87 57.16 285.71L57.31 287.135C56.54 287.295 55.775 287.455 55.015 287.615C54.255 287.775 53.555 287.925 52.915 288.065L52.54 286.535ZM59.14 282.05L60.325 283.175C59.915 283.505 59.495 283.84 59.065 284.18C58.635 284.51 58.24 284.785 57.88 285.005L56.995 284.075C57.225 283.905 57.47 283.705 57.73 283.475C57.99 283.245 58.245 283.005 58.495 282.755C58.755 282.495 58.97 282.26 59.14 282.05ZM57.4 281.225C57.53 282.095 57.715 282.9 57.955 283.64C58.205 284.38 58.545 285.025 58.975 285.575C59.405 286.125 59.95 286.55 60.61 286.85C60.48 286.96 60.345 287.1 60.205 287.27C60.065 287.44 59.93 287.62 59.8 287.81C59.68 288 59.575 288.17 59.485 288.32C58.735 287.92 58.12 287.39 57.64 286.73C57.17 286.06 56.795 285.28 56.515 284.39C56.245 283.5 56.035 282.505 55.885 281.405L57.4 281.225ZM46.165 281.795C46.765 281.665 47.48 281.49 48.31 281.27C49.15 281.05 49.995 280.82 50.845 280.58L51.07 282.2C50.3 282.43 49.52 282.66 48.73 282.89C47.95 283.12 47.225 283.33 46.555 283.52L46.165 281.795ZM46.405 277.1H50.995V278.75H46.405V277.1ZM47.98 274.265H49.63V286.445C49.63 286.855 49.585 287.18 49.495 287.42C49.415 287.67 49.26 287.865 49.03 288.005C48.81 288.145 48.53 288.24 48.19 288.29C47.86 288.34 47.445 288.36 46.945 288.35C46.925 288.13 46.87 287.855 46.78 287.525C46.69 287.205 46.59 286.925 46.48 286.685C46.76 286.695 47.015 286.705 47.245 286.715C47.485 286.715 47.65 286.71 47.74 286.7C47.83 286.7 47.89 286.685 47.92 286.655C47.96 286.615 47.98 286.545 47.98 286.445V274.265ZM68.11 277.52H74.005V279.245H68.11V277.52ZM73.075 277.52H74.83C74.83 277.52 74.83 277.57 74.83 277.67C74.83 277.77 74.825 277.885 74.815 278.015C74.815 278.145 74.815 278.25 74.815 278.33C74.785 279.85 74.745 281.145 74.695 282.215C74.655 283.275 74.605 284.15 74.545 284.84C74.485 285.53 74.41 286.075 74.32 286.475C74.23 286.865 74.125 287.145 74.005 287.315C73.825 287.575 73.64 287.755 73.45 287.855C73.26 287.965 73.03 288.045 72.76 288.095C72.52 288.135 72.22 288.155 71.86 288.155C71.5 288.165 71.125 288.16 70.735 288.14C70.725 287.88 70.67 287.585 70.57 287.255C70.47 286.925 70.345 286.635 70.195 286.385C70.555 286.415 70.885 286.435 71.185 286.445C71.485 286.445 71.715 286.445 71.875 286.445C72.005 286.445 72.11 286.43 72.19 286.4C72.27 286.36 72.35 286.295 72.43 286.205C72.52 286.085 72.595 285.855 72.655 285.515C72.725 285.165 72.785 284.67 72.835 284.03C72.885 283.38 72.925 282.555 72.955 281.555C72.995 280.545 73.035 279.325 73.075 277.895V277.52ZM69.805 274.52H71.59C71.59 275.69 71.575 276.825 71.545 277.925C71.525 279.015 71.465 280.06 71.365 281.06C71.265 282.06 71.105 283 70.885 283.88C70.665 284.76 70.365 285.575 69.985 286.325C69.615 287.075 69.13 287.745 68.53 288.335C68.44 288.175 68.315 288.005 68.155 287.825C68.005 287.655 67.845 287.49 67.675 287.33C67.505 287.17 67.345 287.045 67.195 286.955C67.735 286.435 68.17 285.845 68.5 285.185C68.84 284.525 69.095 283.8 69.265 283.01C69.445 282.22 69.57 281.375 69.64 280.475C69.72 279.575 69.765 278.63 69.775 277.64C69.795 276.64 69.805 275.6 69.805 274.52ZM61.765 275.42H67.66V276.995H61.765V275.42ZM61.27 278.9H67.93V280.535H61.27V278.9ZM65.575 281.885L67.03 281.495C67.21 281.905 67.39 282.355 67.57 282.845C67.76 283.325 67.935 283.795 68.095 284.255C68.255 284.715 68.375 285.115 68.455 285.455L66.895 285.95C66.825 285.61 66.72 285.205 66.58 284.735C66.44 284.265 66.28 283.78 66.1 283.28C65.93 282.78 65.755 282.315 65.575 281.885ZM61.915 286.715L61.735 285.2L62.5 284.63L67.36 283.49C67.37 283.72 67.4 283.985 67.45 284.285C67.51 284.585 67.565 284.825 67.615 285.005C66.705 285.245 65.94 285.45 65.32 285.62C64.7 285.78 64.185 285.92 63.775 286.04C63.375 286.15 63.055 286.245 62.815 286.325C62.575 286.405 62.385 286.475 62.245 286.535C62.115 286.585 62.005 286.645 61.915 286.715ZM61.9 286.7C61.88 286.59 61.835 286.435 61.765 286.235C61.705 286.035 61.635 285.835 61.555 285.635C61.475 285.425 61.4 285.245 61.33 285.095C61.48 285.045 61.61 284.935 61.72 284.765C61.84 284.595 61.96 284.375 62.08 284.105C62.14 283.965 62.22 283.745 62.32 283.445C62.43 283.135 62.545 282.775 62.665 282.365C62.785 281.945 62.905 281.5 63.025 281.03C63.145 280.55 63.24 280.075 63.31 279.605L65.08 280.1C64.94 280.76 64.76 281.43 64.54 282.11C64.32 282.78 64.08 283.43 63.82 284.06C63.57 284.68 63.32 285.24 63.07 285.74V285.785C63.07 285.785 63.01 285.815 62.89 285.875C62.77 285.935 62.635 286.015 62.485 286.115C62.335 286.215 62.2 286.32 62.08 286.43C61.96 286.53 61.9 286.62 61.9 286.7Z" fill="white"/>
<rect x="15" y="88" width="62" height="34" rx="17" fill="url(#paint2_linear_1236_395)"/>
<path d="M37.54 98.895H45.28V100.455H37.54V98.895ZM39.1 101.58H44.875V103.05H39.1V101.58ZM37.96 104.25H45.52V105.765H37.96V104.25ZM36.85 98.895H38.515V103.32C38.515 103.98 38.49 104.7 38.44 105.48C38.4 106.25 38.31 107.045 38.17 107.865C38.04 108.685 37.845 109.48 37.585 110.25C37.325 111.01 36.98 111.7 36.55 112.32C36.46 112.21 36.33 112.085 36.16 111.945C35.99 111.815 35.815 111.685 35.635 111.555C35.465 111.435 35.315 111.345 35.185 111.285C35.575 110.715 35.88 110.095 36.1 109.425C36.33 108.745 36.495 108.05 36.595 107.34C36.705 106.63 36.775 105.935 36.805 105.255C36.835 104.565 36.85 103.92 36.85 103.32V98.895ZM38.995 105.24H40.585V110.925L38.995 111.06V105.24ZM37.84 110.535C38.44 110.445 39.145 110.325 39.955 110.175C40.775 110.025 41.61 109.87 42.46 109.71L42.61 111.135C41.84 111.295 41.075 111.455 40.315 111.615C39.555 111.775 38.855 111.925 38.215 112.065L37.84 110.535ZM44.44 106.05L45.625 107.175C45.215 107.505 44.795 107.84 44.365 108.18C43.935 108.51 43.54 108.785 43.18 109.005L42.295 108.075C42.525 107.905 42.77 107.705 43.03 107.475C43.29 107.245 43.545 107.005 43.795 106.755C44.055 106.495 44.27 106.26 44.44 106.05ZM42.7 105.225C42.83 106.095 43.015 106.9 43.255 107.64C43.505 108.38 43.845 109.025 44.275 109.575C44.705 110.125 45.25 110.55 45.91 110.85C45.78 110.96 45.645 111.1 45.505 111.27C45.365 111.44 45.23 111.62 45.1 111.81C44.98 112 44.875 112.17 44.785 112.32C44.035 111.92 43.42 111.39 42.94 110.73C42.47 110.06 42.095 109.28 41.815 108.39C41.545 107.5 41.335 106.505 41.185 105.405L42.7 105.225ZM31.465 105.795C32.065 105.665 32.78 105.49 33.61 105.27C34.45 105.05 35.295 104.82 36.145 104.58L36.37 106.2C35.6 106.43 34.82 106.66 34.03 106.89C33.25 107.12 32.525 107.33 31.855 107.52L31.465 105.795ZM31.705 101.1H36.295V102.75H31.705V101.1ZM33.28 98.265H34.93V110.445C34.93 110.855 34.885 111.18 34.795 111.42C34.715 111.67 34.56 111.865 34.33 112.005C34.11 112.145 33.83 112.24 33.49 112.29C33.16 112.34 32.745 112.36 32.245 112.35C32.225 112.13 32.17 111.855 32.08 111.525C31.99 111.205 31.89 110.925 31.78 110.685C32.06 110.695 32.315 110.705 32.545 110.715C32.785 110.715 32.95 110.71 33.04 110.7C33.13 110.7 33.19 110.685 33.22 110.655C33.26 110.615 33.28 110.545 33.28 110.445V98.265ZM53.41 101.52H59.305V103.245H53.41V101.52ZM58.375 101.52H60.13C60.13 101.52 60.13 101.57 60.13 101.67C60.13 101.77 60.125 101.885 60.115 102.015C60.115 102.145 60.115 102.25 60.115 102.33C60.085 103.85 60.045 105.145 59.995 106.215C59.955 107.275 59.905 108.15 59.845 108.84C59.785 109.53 59.71 110.075 59.62 110.475C59.53 110.865 59.425 111.145 59.305 111.315C59.125 111.575 58.94 111.755 58.75 111.855C58.56 111.965 58.33 112.045 58.06 112.095C57.82 112.135 57.52 112.155 57.16 112.155C56.8 112.165 56.425 112.16 56.035 112.14C56.025 111.88 55.97 111.585 55.87 111.255C55.77 110.925 55.645 110.635 55.495 110.385C55.855 110.415 56.185 110.435 56.485 110.445C56.785 110.445 57.015 110.445 57.175 110.445C57.305 110.445 57.41 110.43 57.49 110.4C57.57 110.36 57.65 110.295 57.73 110.205C57.82 110.085 57.895 109.855 57.955 109.515C58.025 109.165 58.085 108.67 58.135 108.03C58.185 107.38 58.225 106.555 58.255 105.555C58.295 104.545 58.335 103.325 58.375 101.895V101.52ZM55.105 98.52H56.89C56.89 99.69 56.875 100.825 56.845 101.925C56.825 103.015 56.765 104.06 56.665 105.06C56.565 106.06 56.405 107 56.185 107.88C55.965 108.76 55.665 109.575 55.285 110.325C54.915 111.075 54.43 111.745 53.83 112.335C53.74 112.175 53.615 112.005 53.455 111.825C53.305 111.655 53.145 111.49 52.975 111.33C52.805 111.17 52.645 111.045 52.495 110.955C53.035 110.435 53.47 109.845 53.8 109.185C54.14 108.525 54.395 107.8 54.565 107.01C54.745 106.22 54.87 105.375 54.94 104.475C55.02 103.575 55.065 102.63 55.075 101.64C55.095 100.64 55.105 99.6 55.105 98.52ZM47.065 99.42H52.96V100.995H47.065V99.42ZM46.57 102.9H53.23V104.535H46.57V102.9ZM50.875 105.885L52.33 105.495C52.51 105.905 52.69 106.355 52.87 106.845C53.06 107.325 53.235 107.795 53.395 108.255C53.555 108.715 53.675 109.115 53.755 109.455L52.195 109.95C52.125 109.61 52.02 109.205 51.88 108.735C51.74 108.265 51.58 107.78 51.4 107.28C51.23 106.78 51.055 106.315 50.875 105.885ZM47.215 110.715L47.035 109.2L47.8 108.63L52.66 107.49C52.67 107.72 52.7 107.985 52.75 108.285C52.81 108.585 52.865 108.825 52.915 109.005C52.005 109.245 51.24 109.45 50.62 109.62C50 109.78 49.485 109.92 49.075 110.04C48.675 110.15 48.355 110.245 48.115 110.325C47.875 110.405 47.685 110.475 47.545 110.535C47.415 110.585 47.305 110.645 47.215 110.715ZM47.2 110.7C47.18 110.59 47.135 110.435 47.065 110.235C47.005 110.035 46.935 109.835 46.855 109.635C46.775 109.425 46.7 109.245 46.63 109.095C46.78 109.045 46.91 108.935 47.02 108.765C47.14 108.595 47.26 108.375 47.38 108.105C47.44 107.965 47.52 107.745 47.62 107.445C47.73 107.135 47.845 106.775 47.965 106.365C48.085 105.945 48.205 105.5 48.325 105.03C48.445 104.55 48.54 104.075 48.61 103.605L50.38 104.1C50.24 104.76 50.06 105.43 49.84 106.11C49.62 106.78 49.38 107.43 49.12 108.06C48.87 108.68 48.62 109.24 48.37 109.74V109.785C48.37 109.785 48.31 109.815 48.19 109.875C48.07 109.935 47.935 110.015 47.785 110.115C47.635 110.215 47.5 110.32 47.38 110.43C47.26 110.53 47.2 110.62 47.2 110.7Z" fill="white"/>
<rect x="229" y="88" width="62" height="38" rx="19" fill="url(#paint3_linear_1236_395)"/>
<path d="M251.765 108.63H249.065V109.065C249.065 109.425 249.05 109.8 249.02 110.205H251.765V108.63ZM256.49 110.205V108.63H253.505V110.205H256.49ZM258.275 107.175V112.5H256.49V111.705H248.795C248.51 113.04 247.955 114.375 246.875 115.395C246.59 115.05 245.855 114.405 245.48 114.165C247.115 112.665 247.295 110.565 247.295 109.035V107.175H258.275ZM259.175 103.935H253.52V104.85H258.5V106.35H247.055V104.85H251.72V103.935H246.11V102.42H251.72V101.295H253.52V102.42H259.175V103.935ZM264.845 102.855L263.795 104.31C263.225 103.86 262.01 103.14 261.185 102.675L262.175 101.37C262.985 101.79 264.23 102.45 264.845 102.855ZM264.005 106.83L262.97 108.315C262.4 107.865 261.17 107.19 260.3 106.74L261.29 105.42C262.115 105.795 263.375 106.41 264.005 106.83ZM263.03 109.29L264.425 110.355C263.765 111.96 262.955 113.685 262.19 115.14L260.585 114.075C261.305 112.92 262.28 111.03 263.03 109.29ZM265.76 113.82C266.855 113.46 267.86 112.92 268.73 112.23C267.92 111.255 267.29 110.145 266.765 108.885C266.675 110.505 266.39 112.29 265.76 113.82ZM268.55 104.91H266.825V106.995H268.55V104.91ZM271.295 108.57H268.355C268.76 109.47 269.285 110.295 269.915 111.015C270.5 110.325 270.965 109.5 271.295 108.57ZM272.33 106.935L273.44 107.415C272.975 109.335 272.195 110.925 271.175 112.2C272.09 112.875 273.17 113.43 274.4 113.775C274.025 114.135 273.5 114.84 273.26 115.29C271.985 114.87 270.905 114.24 269.96 113.46C269.03 114.27 267.98 114.885 266.84 115.32C266.615 114.93 266.09 114.21 265.745 113.865C265.535 114.375 265.265 114.855 264.965 115.275C264.65 115.005 263.9 114.555 263.465 114.39C264.98 112.29 265.115 109.26 265.115 107.085V103.26H268.55V101.28H270.32V103.26H272.765L273.065 103.185L274.37 103.5C274.04 104.64 273.575 105.915 273.14 106.725L271.595 106.275C271.76 105.93 271.955 105.435 272.12 104.91H270.32V106.995H272.015L272.33 106.935Z" fill="white"/>
<path d="M130 39.9999H167.333M148.667 21.3333V58.6666" stroke="white" stroke-width="3" stroke-linecap="round" stroke-linejoin="round"/>
<path d="M132.516 179.44C132.192 179.44 131.86 179.565 131.612 179.806C131.114 180.29 131.114 181.081 131.612 181.565L148.633 198.126L131.86 214.438C131.363 214.922 131.363 215.714 131.86 216.197C132.358 216.681 133.171 216.681 133.669 216.197L151.346 199.006C151.843 198.522 151.843 197.731 151.346 197.247L133.42 179.806C133.171 179.565 132.84 179.44 132.516 179.44L132.516 179.44Z" fill="white"/>
<path d="M155.559 179.44C155.235 179.44 154.903 179.565 154.655 179.806C154.157 180.29 154.157 181.081 154.655 181.565L171.676 198.126L154.903 214.438C154.406 214.922 154.406 215.714 154.903 216.197C155.401 216.681 156.214 216.681 156.712 216.197L174.389 199.006C174.886 198.522 174.886 197.731 174.389 197.247L156.463 179.806C156.214 179.565 155.883 179.44 155.559 179.44L155.559 179.44Z" fill="white"/>
<path d="M23.2274 229.039C22.8794 229.039 22.5314 228.907 22.2685 228.644L12.3159 218.692C12.0607 218.436 11.9215 218.096 11.9215 217.733C11.9215 217.369 12.0607 217.029 12.3159 216.774L21.472 207.618L12.2772 198.423C11.7513 197.897 11.7513 197.039 12.2772 196.513L21.1781 187.612L12.4087 178.842C12.1457 178.587 12.0065 178.231 12.0143 177.86C12.0143 177.497 12.1767 177.149 12.4473 176.894L22.2066 167.776C22.7557 167.266 23.6064 167.297 24.1167 167.838C24.6271 168.387 24.5962 169.238 24.0549 169.748L15.3164 177.907L24.0549 186.645C24.5807 187.171 24.5807 188.029 24.0549 188.555L15.154 197.456L24.3487 206.651C24.8746 207.177 24.8746 208.035 24.3487 208.561L15.1926 217.717L24.1941 226.711C24.7199 227.237 24.7199 228.095 24.1941 228.621C23.9311 228.884 23.5832 229.015 23.2352 229.015L23.2274 229.039Z" fill="white"/>
<path d="M36.7821 229.039C36.4341 229.039 36.0861 228.907 35.8232 228.644L25.8706 218.692C25.6154 218.436 25.4762 218.096 25.4762 217.733C25.4762 217.369 25.6154 217.029 25.8706 216.774L35.0267 207.618L25.8319 198.423C25.306 197.897 25.306 197.039 25.8319 196.513L34.7328 187.612L25.9634 178.842C25.7004 178.587 25.5612 178.231 25.569 177.86C25.569 177.497 25.7314 177.149 26.002 176.894L35.7613 167.776C36.3104 167.266 37.161 167.297 37.6714 167.838C38.1818 168.387 38.1509 169.238 37.6096 169.748L28.871 177.907L37.6096 186.645C38.1354 187.171 38.1354 188.029 37.6096 188.555L28.7086 197.456L37.9034 206.651C38.4293 207.177 38.4293 208.035 37.9034 208.561L28.7473 217.717L37.7488 226.711C38.2746 227.237 38.2746 228.095 37.7488 228.621C37.4858 228.884 37.1378 229.015 36.7898 229.015L36.7821 229.039Z" fill="white"/>
<path d="M50.3329 229.039C49.9849 229.039 49.6369 228.907 49.374 228.644L39.4213 218.692C39.1661 218.436 39.0269 218.096 39.0269 217.733C39.0269 217.369 39.1661 217.029 39.4213 216.774L48.5775 207.618L39.3827 198.423C38.8568 197.897 38.8568 197.039 39.3827 196.513L48.2836 187.612L39.5141 178.842C39.2512 178.587 39.112 178.231 39.1197 177.86C39.1197 177.497 39.2821 177.149 39.5528 176.894L49.3121 167.776C49.8612 167.266 50.7118 167.297 51.2222 167.838C51.7326 168.387 51.7017 169.238 51.1603 169.748L42.4218 177.907L51.1603 186.645C51.4155 186.9 51.5547 187.241 51.5547 187.604C51.5547 187.967 51.4155 188.308 51.1603 188.563L42.2594 197.464L51.4542 206.659C51.9801 207.185 51.9801 208.043 51.4542 208.569L42.2981 217.725L51.2995 226.719C51.8254 227.244 51.8254 228.103 51.2995 228.629C51.0366 228.892 50.6886 229.023 50.3406 229.023L50.3329 229.039Z" fill="white"/>
<path d="M78.6332 199.583H58.6892C57.9391 199.583 57.3359 198.979 57.3359 198.229C57.3359 197.479 57.9391 196.876 58.6892 196.876H78.6332C79.3833 196.876 79.9865 197.479 79.9865 198.229C79.9865 198.979 79.3833 199.583 78.6332 199.583Z" fill="white"/>
<path d="M58.6914 187.411C59.4261 186.676 72.7968 173.305 72.7968 173.305L58.6914 187.411Z" fill="white"/>
<path d="M58.6892 188.764C58.3413 188.764 57.9933 188.632 57.7303 188.37C57.2045 187.844 57.2045 186.985 57.7303 186.459L71.828 172.362L73.7381 174.272C73.7381 174.272 60.3674 187.643 59.6327 188.377C59.3698 188.64 59.0218 188.772 58.6738 188.772L58.6892 188.764Z" fill="white"/>
<path d="M58.6914 209.04L72.7968 223.146L58.6914 209.04Z" fill="white"/>
<path d="M72.7907 224.499C72.4427 224.499 72.0947 224.368 71.8318 224.105L57.7264 209.999C57.2006 209.473 57.2006 208.615 57.7264 208.089C58.2523 207.563 59.1107 207.563 59.6365 208.089L73.7419 222.195C74.2677 222.72 74.2677 223.579 73.7419 224.105C73.479 224.368 73.131 224.499 72.783 224.499H72.7907Z" fill="white"/>
<defs>
<linearGradient id="paint0_linear_1236_395" x1="298" y1="281" x2="221" y2="281" gradientUnits="userSpaceOnUse">
<stop stop-color="#56387E"/>
<stop offset="1" stop-color="#23295B"/>
</linearGradient>
<linearGradient id="paint1_linear_1236_395" x1="92" y1="281" x2="0" y2="281" gradientUnits="userSpaceOnUse">
<stop stop-color="#56387E"/>
<stop offset="1" stop-color="#23295B"/>
</linearGradient>
<linearGradient id="paint2_linear_1236_395" x1="77" y1="105" x2="15" y2="105" gradientUnits="userSpaceOnUse">
<stop stop-color="#56387E"/>
<stop offset="1" stop-color="#23295B"/>
</linearGradient>
<linearGradient id="paint3_linear_1236_395" x1="291" y1="107" x2="229" y2="107" gradientUnits="userSpaceOnUse">
<stop stop-color="#56387E"/>
<stop offset="1" stop-color="#23295B"/>
</linearGradient>
<clipPath id="clip0_1236_395">
<rect width="80" height="80" fill="white" transform="translate(6)"/>
</clipPath>
<clipPath id="clip1_1236_395">
<rect width="80" height="80" fill="white" transform="translate(6)"/>
</clipPath>
<clipPath id="clip2_1236_395">
<rect width="80" height="80" fill="white" transform="translate(219 158)"/>
</clipPath>
<clipPath id="clip3_1236_395">
<rect width="80" height="80" fill="white" transform="translate(220)"/>
</clipPath>
</defs>
</svg>
