<svg width="72" height="80" viewBox="0 0 72 80" fill="none" xmlns="http://www.w3.org/2000/svg">
<g id="_?&#235;&#141;&#137;&#236;&#148;&#160;??1" clip-path="url(#clip0_610_410)">
<g id="Group">
<path id="Vector" d="M8.88531 72.6588C10.5784 70.0609 11.2337 67.0557 11.5432 64.0143C11.9619 59.941 11.9346 55.9672 10.2325 52.1745C8.75787 48.8887 6.42766 46.0645 4.6891 42.9235C3.69694 41.1222 2.55914 39.0041 2.23145 36.9584C1.94017 35.1571 2.09492 33.1657 2.24966 31.3553C3.50579 17.1077 14.7199 5.2046 28.7832 2.62483C43.1741 -0.0182995 59.3672 8.1736 62.9354 22.8376C63.4451 24.9195 63.7091 27.0466 63.7819 29.1919C63.8183 30.26 63.9548 31.4549 63.527 32.4687C63.1993 33.229 62.6623 33.8717 62.3892 34.6592C61.4517 37.3295 63.3268 40.0451 64.8742 42.0727C65.8572 43.3671 66.9222 44.5981 67.9235 45.8744C68.6153 46.7706 69.6985 47.9835 69.8259 49.1512C69.9624 50.4184 68.2694 50.3732 67.3682 50.4999C66.103 50.69 64.7923 51.034 64.2097 52.2922C63.4724 53.8672 64.0004 55.9491 64.2734 57.5784C64.3827 58.2302 64.5192 58.7009 64.2097 59.3164C63.791 60.1582 63.1356 60.9005 62.5804 61.6699C61.4608 63.2087 61.3334 64.3673 61.9705 66.1415C62.3073 67.0738 62.5713 67.9337 62.1799 68.8932C61.743 69.9523 60.8145 70.785 59.8588 71.3734C56.236 73.6092 52.4858 71.5726 48.945 70.2872C47.8254 69.8799 46.4145 69.4182 45.2676 69.9975C44.1298 70.5678 43.966 71.7445 44.1207 72.8851C44.3938 74.8765 44.8034 76.5873 44.2481 78.5968C43.9205 79.7735 45.7591 80.2714 46.0868 79.1037C46.6421 77.0851 46.4691 75.1842 46.0868 73.1566C46.0231 72.8217 45.7591 71.9799 46.0777 71.7083C46.46 71.3825 47.3885 71.7626 47.7799 71.8803C51.2297 72.9484 54.5248 74.967 58.2749 74.0799C60.15 73.6364 61.9796 72.4687 63.1538 70.9389C64.4191 69.2915 64.501 67.5264 63.8183 65.6165C63.4906 64.7022 63.2631 64.1048 63.791 63.2358C64.2825 62.4302 64.9288 61.7242 65.4476 60.9367C66.3761 59.5155 66.367 58.5108 66.0939 56.8996C65.9301 55.931 65.748 54.9444 65.7935 53.9577C65.8481 52.9711 66.1758 52.6452 67.1225 52.437C68.4332 52.1474 70.0079 52.256 71.0274 51.2241C72.9389 49.287 70.7543 46.4175 69.5073 44.7973C67.6777 42.4257 64.8378 39.9002 64.146 36.8769C63.7819 35.2929 64.8651 34.3062 65.393 32.9213C66.1121 31.0023 65.7298 28.504 65.5114 26.5126C64.6648 18.891 61.1331 12.0297 55.0163 7.29557C49.1725 2.80587 41.8269 0.235152 34.4358 0.2261C19.9902 0.207996 6.64612 9.83008 2.01299 23.4078C0.802375 26.9652 0.210718 30.7307 0.228923 34.4872C0.238026 36.5511 0.538405 38.2347 1.30301 40.1627C2.06761 42.1089 3.04157 43.9464 4.14296 45.7296C6.06356 48.8253 8.41198 51.7762 9.37684 55.3426C9.95939 57.506 9.93208 59.6966 9.81375 61.9143C9.69542 63.9781 9.47696 66.06 8.90351 68.0514C8.53031 69.3549 7.98417 70.5678 7.24688 71.7083C6.5824 72.7312 8.22994 73.6816 8.89441 72.6678L8.88531 72.6588Z" fill="#23295B"/>
<path id="Vector_2" d="M45.212 80C44.8752 80 44.5294 79.8642 44.2927 79.6289C44.0105 79.3483 43.9104 78.95 44.0287 78.5426C44.4838 76.8862 44.2745 75.465 44.0287 73.8176C43.9832 73.5189 43.9377 73.2292 43.9013 72.9215C43.6919 71.3827 44.1197 70.3326 45.1665 69.7986C46.4591 69.1469 48.0611 69.7262 49.0259 70.0792C49.5175 70.2602 50.009 70.4503 50.5096 70.6404C53.568 71.8262 56.7175 73.0482 59.7486 71.1835C60.5132 70.7128 61.5235 69.9163 61.9787 68.8119C62.3337 67.943 62.1061 67.1555 61.7693 66.2141C61.0957 64.3403 61.2596 63.1184 62.4065 61.5343C62.5612 61.3261 62.716 61.127 62.8707 60.9188C63.2894 60.3756 63.7172 59.8144 64.0085 59.217C64.2452 58.7373 64.1814 58.348 64.0813 57.814L64.0449 57.6148C64.0085 57.4067 63.9721 57.1985 63.9357 56.9812C63.6535 55.4152 63.3258 53.6411 63.9994 52.2019C64.6366 50.8531 66.0383 50.473 67.3309 50.2829C67.4674 50.2648 67.6222 50.2467 67.786 50.2286C68.405 50.1652 69.1696 50.0837 69.4699 49.7126C69.5792 49.5768 69.6247 49.4048 69.5974 49.1785C69.4881 48.2191 68.678 47.1962 68.0227 46.3725L67.7405 46.0104C67.2763 45.413 66.7938 44.8246 66.3114 44.2362C65.7744 43.5755 65.2191 42.8966 64.6912 42.2086C63.4441 40.5793 61.1321 37.5379 62.1698 34.587C62.3337 34.1344 62.5703 33.7271 62.807 33.3288C62.9981 33.012 63.1802 32.7042 63.3167 32.3784C63.6717 31.5546 63.6171 30.5952 63.5807 29.6538L63.5625 29.2012C63.4806 26.9835 63.1984 24.8654 62.716 22.8921C59.339 9.02467 44.138 0.0271557 28.8277 2.84227C14.7827 5.43109 3.70508 17.4248 2.48536 31.3646C2.31241 33.3107 2.18498 35.2025 2.45805 36.9133C2.76753 38.8414 3.787 40.8056 4.88839 42.8061C5.59838 44.0914 6.41759 45.3406 7.21861 46.5535C8.37461 48.3096 9.56703 50.1199 10.4409 52.0751C12.2795 56.1665 12.143 60.4119 11.7698 64.0326C11.3784 67.8162 10.541 70.5137 9.0755 72.7766C8.83883 73.1387 8.47474 73.3288 8.03782 73.3198C7.59181 73.2926 7.16399 73.0301 6.97284 72.6499C6.7999 72.3059 6.8272 71.9258 7.05476 71.5818C7.78296 70.4684 8.31089 69.2917 8.68409 67.9882C9.30306 65.8339 9.4851 63.5981 9.58523 61.8964C9.69446 59.914 9.76728 57.6239 9.15742 55.3971C8.42012 52.6816 6.83631 50.2829 5.3162 47.9565C4.85198 47.2505 4.38776 46.5535 3.95084 45.8384C2.75843 43.9104 1.82088 42.0819 1.09269 40.2444C0.337191 38.3435 0.00950401 36.6237 0.000401606 34.4874C-0.0178032 30.6314 0.582955 26.8839 1.79357 23.3356C6.49041 9.58588 19.8983 0 34.3984 0H34.4348C41.8532 0 49.208 2.54356 55.1428 7.14189C61.0866 11.7493 64.8459 18.6286 65.7289 26.5128L65.7926 27.0649C66.0201 29.0201 66.275 31.2288 65.6014 33.0301C65.4376 33.4736 65.2191 33.8629 65.0098 34.2521C64.5364 35.112 64.1359 35.8452 64.3635 36.859C64.8641 39.0586 66.5299 40.9866 68.141 42.8423C68.6962 43.4759 69.2151 44.0824 69.6793 44.6888C70.9263 46.3091 73.2474 49.3143 71.1812 51.4053C70.3711 52.22 69.2788 52.3648 68.2229 52.5096C67.8497 52.5549 67.5038 52.6092 67.167 52.6816C66.2932 52.8717 66.0656 53.1342 66.0201 53.9941C65.9746 54.8902 66.1294 55.8135 66.2841 56.7006L66.3114 56.8816C66.6027 58.6196 66.5754 59.6425 65.6378 61.0817C65.4012 61.4438 65.1372 61.7877 64.8823 62.1136C64.5728 62.5209 64.2543 62.9373 63.9903 63.3718C63.5261 64.1412 63.7081 64.6572 64.0267 65.5261C64.8095 67.6895 64.5819 69.4908 63.344 71.1021C62.1516 72.659 60.2765 73.8629 58.3377 74.3245C55.4431 75.0124 52.8034 73.9986 50.2457 73.021C49.4173 72.7042 48.5617 72.3784 47.7152 72.1159L47.5331 72.0615C47.1873 71.9439 46.4591 71.6995 46.2224 71.8986C46.0586 72.0344 46.2042 72.6499 46.2588 72.9124C46.277 72.9939 46.2952 73.0663 46.3043 73.1297C46.6502 75.0034 46.8869 77.031 46.3043 79.1763C46.1951 79.5836 45.9038 79.8733 45.5215 79.9728C45.4214 80 45.3213 80.009 45.2211 80.009L45.212 80ZM46.4955 69.9525C46.095 69.9525 45.7218 70.0249 45.3668 70.2059C44.4929 70.6495 44.1562 71.5184 44.3473 72.8581C44.3837 73.1568 44.4292 73.4555 44.4747 73.7452C44.7205 75.3745 44.9481 76.9133 44.4747 78.6603C44.3837 78.9771 44.5112 79.1853 44.6295 79.3121C44.8206 79.5022 45.1392 79.5927 45.4123 79.5293C45.5761 79.484 45.7855 79.3664 45.8765 79.0496C46.4136 77.1034 46.2679 75.3112 45.8765 73.2021C45.8674 73.1478 45.8492 73.0844 45.831 73.0029C45.7218 72.5503 45.567 71.8534 45.9402 71.5456C46.3771 71.1745 47.1691 71.446 47.6879 71.618L47.8608 71.6723C48.7256 71.9348 49.5812 72.2697 50.4186 72.5866C53.0219 73.5823 55.4795 74.5236 58.2376 73.8719C60.0763 73.4374 61.8512 72.2969 62.989 70.8124C64.1359 69.3188 64.3362 67.6986 63.6171 65.7072C63.2803 64.7839 63.0345 64.0869 63.6171 63.1274C63.8902 62.6748 64.2178 62.2403 64.5364 61.833C64.7913 61.5071 65.0462 61.1722 65.2737 60.8192C66.1385 59.5067 66.1658 58.6015 65.8836 56.945L65.8563 56.764C65.7015 55.8497 65.5377 54.9083 65.5923 53.9579C65.6469 52.8988 66.0292 52.4644 67.0942 52.229C67.4492 52.1475 67.8224 52.1023 68.1865 52.048C69.1696 51.9212 70.189 51.7855 70.8808 51.0794C72.674 49.26 70.5076 46.4539 69.3425 44.9513C68.8874 44.3539 68.3685 43.7565 67.8224 43.1319C66.1749 41.231 64.4727 39.2577 63.9448 36.9495C63.6808 35.7728 64.1632 34.8857 64.6275 34.0258C64.8277 33.6547 65.0371 33.2745 65.1918 32.8672C65.829 31.1745 65.5832 29.0201 65.3557 27.1193L65.2919 26.5671C64.4272 18.8006 60.7316 12.0299 54.8788 7.50396C49.0077 2.95995 41.7531 0.461643 34.4348 0.452591H34.3984C20.0803 0.452591 6.86361 9.9208 2.22139 23.4804C1.02897 26.9835 0.428214 30.6857 0.455522 34.4874C0.464624 36.5965 0.774106 38.2168 1.5114 40.0815C2.23049 41.9009 3.14983 43.7022 4.33315 45.6121C4.77006 46.3182 5.23428 47.0152 5.6894 47.7212C7.23681 50.0747 8.83883 52.5006 9.59433 55.2885C10.2133 57.5786 10.1496 59.914 10.0404 61.9326C9.94022 63.6615 9.74907 65.9244 9.12101 68.124C8.73871 69.4727 8.18346 70.6857 7.43706 71.8353C7.30053 72.0434 7.28232 72.2607 7.38245 72.4598C7.50078 72.6952 7.78296 72.8672 8.06513 72.8853C8.25628 72.8853 8.50205 72.8491 8.6932 72.5503C10.1223 70.3508 10.9324 67.7167 11.3147 64.0054C11.6788 60.4481 11.8153 56.2752 10.0221 52.2833C9.15742 50.3643 7.97411 48.563 6.83631 46.8251C6.03529 45.6031 5.20698 44.3449 4.48789 43.0505C3.35919 41.0138 2.32151 39.0133 2.00293 37.0129C1.72076 35.2478 1.84819 33.3288 2.02114 31.3555C3.26816 17.1804 14.5005 5.01471 28.7458 2.39873C35.8639 1.09527 43.6191 2.41684 50.0363 6.03756C56.7994 9.85743 61.4689 15.8045 63.162 22.7834C63.6444 24.7839 63.9357 26.9292 64.0176 29.1831L64.0358 29.6357C64.0813 30.6223 64.1359 31.6361 63.7445 32.5594C63.5898 32.9124 63.3986 33.2473 63.2075 33.5642C62.9799 33.9534 62.7524 34.3245 62.6067 34.7409C61.651 37.4655 63.872 40.3802 65.0644 41.9461C65.5832 42.625 66.1385 43.3039 66.6755 43.9647C67.1579 44.5531 67.6404 45.1505 68.1137 45.7479L68.3959 46.1009C69.0876 46.9699 69.9433 48.0471 70.0616 49.1423C70.098 49.4863 70.0252 49.776 69.834 50.0113C69.4153 50.5273 68.5415 50.6178 67.8497 50.6902C67.695 50.7083 67.5402 50.7264 67.4128 50.7445C66.184 50.9255 64.9642 51.2514 64.4272 52.41C63.8173 53.7226 64.1268 55.4152 64.3908 56.9179C64.4272 57.1351 64.4727 57.3523 64.5 57.5605L64.5364 57.7597C64.6366 58.3299 64.7276 58.8187 64.4181 59.4343C64.0995 60.0769 63.6626 60.6472 63.2348 61.2084C63.0801 61.4076 62.9253 61.6157 62.7797 61.8149C61.7238 63.2722 61.5782 64.3494 62.1971 66.0783C62.5521 67.074 62.8161 67.9792 62.3974 68.993C61.8967 70.2059 60.8136 71.0749 59.9852 71.5818C56.7721 73.5642 53.5043 72.2969 50.3458 71.0749C49.8543 70.8848 49.3627 70.6947 48.8712 70.5137C48.0793 70.224 47.2601 69.9615 46.5046 69.9615L46.4955 69.9525Z" fill="#23295B"/>
</g>
<g id="Group_2">
<g id="Group_3">
<path id="Vector_3" d="M37.2476 30.4325C35.5546 32.6321 33.8615 34.8407 32.1685 37.0403C32.6054 36.9226 33.0332 36.814 33.4701 36.6963C32.5326 36.1442 31.5859 35.6011 30.6484 35.0489C29.5925 34.4334 28.6276 36.0718 29.6835 36.6873C30.6211 37.2394 31.5677 37.7826 32.5053 38.3347C32.9877 38.6153 33.4974 38.3981 33.8069 37.9908C35.4999 35.7912 37.193 33.5825 38.886 31.3829C39.6324 30.4144 37.9758 29.473 37.2385 30.4234L37.2476 30.4325Z" fill="#23295B"/>
<path id="Vector_4" d="M32.9595 38.6876C32.7684 38.6876 32.5681 38.6333 32.3952 38.5337L29.5735 36.8863C29.2094 36.6691 29 36.3251 29 35.9268C29 35.4923 29.264 35.0578 29.6372 34.8406C29.9831 34.6415 30.3927 34.6505 30.7568 34.8678L32.6865 35.9902L37.0647 30.2966C37.3469 29.9345 37.7656 29.7625 38.2207 29.8259C38.6759 29.8893 39.0764 30.1699 39.2311 30.541C39.3676 30.8669 39.3039 31.2199 39.0673 31.5276L33.9881 38.1355C33.7059 38.4975 33.3327 38.6876 32.9595 38.6876ZM30.1651 35.1484C30.0377 35.1484 29.9375 35.1846 29.8556 35.2298C29.619 35.3656 29.446 35.6553 29.446 35.9268C29.446 36.0898 29.5006 36.3251 29.7919 36.4971L32.6137 38.1445C33.0142 38.3799 33.3965 38.1445 33.624 37.8639L38.7032 31.2561C38.8488 31.066 38.8852 30.885 38.8124 30.713C38.7214 30.4867 38.4574 30.3056 38.157 30.2694C37.9841 30.2423 37.6655 30.2604 37.4197 30.5681L33.0779 36.2165L34.0518 36.7777L31.576 37.4204L32.4043 36.3432L30.5201 35.2479C30.3836 35.1665 30.2652 35.1393 30.156 35.1393L30.1651 35.1484ZM32.8048 36.5786L32.7502 36.651L32.8776 36.6148L32.8048 36.5695V36.5786Z" fill="#23295B"/>
</g>
<g id="Group_4">
<path id="Vector_5" d="M34.6622 14.664V10.8984C34.6622 9.67643 32.7598 9.67643 32.7598 10.8984V14.664C32.7598 15.886 34.6622 15.886 34.6622 14.664Z" fill="#23295B"/>
<path id="Vector_6" d="M33.7146 15.8044C33.132 15.8044 32.5312 15.4152 32.5312 14.6639V10.8983C32.5312 10.5453 32.6587 10.2556 32.9044 10.0384C33.5325 9.50432 34.8888 9.75777 34.8888 10.8983V14.6639C34.8888 15.4152 34.2971 15.8044 33.7146 15.8044ZM33.7146 10.2104C33.5234 10.2104 33.3414 10.2737 33.2048 10.3823C33.0592 10.5091 32.9864 10.6811 32.9864 10.8983V14.6639C32.9864 15.6143 34.4337 15.6143 34.4337 14.6639V10.8983C34.4337 10.4186 34.0696 10.2104 33.7055 10.2104H33.7146Z" fill="#23295B"/>
</g>
<g id="Group_5">
<path id="Vector_7" d="M14.8 32.5229H11.0134C9.78459 32.5229 9.78459 34.4148 11.0134 34.4148H14.8C16.0288 34.4148 16.0288 32.5229 14.8 32.5229Z" fill="#23295B"/>
<path id="Vector_8" d="M14.8007 34.6413H11.0141C10.6591 34.6413 10.3678 34.5146 10.1494 34.2702C9.96731 34.062 9.86719 33.7723 9.86719 33.4736C9.86719 32.8943 10.2586 32.2969 11.0141 32.2969H14.8007C15.5562 32.2969 15.9476 32.8852 15.9476 33.4736C15.9476 34.062 15.5562 34.6503 14.8007 34.6503V34.6413ZM11.0141 32.7495C10.5317 32.7495 10.3223 33.1115 10.3223 33.4736C10.3223 33.6637 10.386 33.8447 10.4953 33.9805C10.6227 34.1253 10.7956 34.1978 11.0141 34.1978H14.8007C15.2831 34.1978 15.4925 33.8357 15.4925 33.4736C15.4925 33.1115 15.2831 32.7495 14.8007 32.7495H11.0141Z" fill="#23295B"/>
</g>
<g id="Group_6">
<path id="Vector_9" d="M21.0088 19.5065L18.3327 16.8453C17.4679 15.9854 16.1208 17.325 16.9855 18.1849C17.8775 19.072 18.7696 19.9591 19.6616 20.8462C20.5263 21.7061 21.8735 20.3664 21.0088 19.5065Z" fill="#23295B"/>
<path id="Vector_10" d="M20.2982 21.3442C20.0251 21.3442 19.752 21.2447 19.5062 21.0003L16.8301 18.339C16.5844 18.0946 16.466 17.7869 16.4842 17.4701C16.5024 17.1895 16.639 16.9179 16.8483 16.7097C17.0668 16.4925 17.3399 16.3657 17.622 16.3476C17.9406 16.3295 18.2501 16.4382 18.4959 16.6916L21.172 19.3528C21.4177 19.5972 21.5452 19.905 21.5179 20.2218C21.4997 20.5024 21.3631 20.774 21.1538 20.9912C20.9262 21.2175 20.6258 21.3623 20.2982 21.3623V21.3442ZM17.6949 16.7912C17.4946 16.7912 17.3126 16.8907 17.1669 17.0265C16.9121 17.28 16.8028 17.6873 17.1487 18.0222L19.8248 20.6835C20.1616 21.0184 20.5712 20.9098 20.8261 20.6654C21.081 20.421 21.1902 20.0046 20.8443 19.6697L18.1682 17.0084C18.0134 16.8545 17.8496 16.7912 17.6949 16.7912Z" fill="#23295B"/>
</g>
<g id="Group_7">
<path id="Vector_11" d="M52.6306 34.4148H56.4172C57.646 34.4148 57.646 32.5229 56.4172 32.5229H52.6306C51.4018 32.5229 51.4018 34.4148 52.6306 34.4148Z" fill="#23295B"/>
<path id="Vector_12" d="M56.4081 34.6411H52.6215C51.866 34.6411 51.4746 34.0527 51.4746 33.4643C51.4746 32.876 51.866 32.2876 52.6215 32.2876H56.4081C57.1636 32.2876 57.555 32.876 57.555 33.4643C57.555 34.0527 57.1636 34.6411 56.4081 34.6411ZM52.6306 32.7492C52.1482 32.7492 51.9388 33.1113 51.9388 33.4734C51.9388 33.8355 52.1482 34.1975 52.6306 34.1975H56.4172C56.8996 34.1975 57.109 33.8355 57.109 33.4734C57.109 33.1113 56.8905 32.7492 56.4172 32.7492H52.6306Z" fill="#23295B"/>
</g>
<g id="Group_8">
<path id="Vector_13" d="M47.7604 20.8374C48.6524 19.9503 49.5445 19.0632 50.4365 18.1762C51.3012 17.3162 49.9541 15.9766 49.0893 16.8365L46.4132 19.4977C45.5485 20.3576 46.8957 21.6973 47.7604 20.8374Z" fill="#23295B"/>
<path id="Vector_14" d="M47.1318 21.3441C46.8132 21.3441 46.5037 21.1992 46.2761 20.9729C46.0577 20.7557 45.9303 20.4841 45.9121 20.2035C45.8847 19.8777 46.0031 19.579 46.2579 19.3346L48.934 16.6733C49.2344 16.3746 49.6258 16.266 50.0172 16.3656C50.4359 16.4742 50.8 16.8363 50.9093 17.2526C51.0094 17.6419 50.9093 18.0311 50.5998 18.3298L47.9237 20.991C47.6779 21.2354 47.4048 21.335 47.1318 21.335V21.3441ZM49.726 16.791C49.5803 16.791 49.4165 16.8363 49.2526 17.0082L46.5765 19.6695C46.2397 20.0044 46.3399 20.4117 46.5947 20.6652C46.7313 20.8009 46.9042 20.8824 47.0772 20.9005C47.2683 20.9186 47.4413 20.8462 47.596 20.6923L50.2721 18.0311C50.5088 17.7957 50.5088 17.5513 50.4633 17.3884C50.3904 17.1259 50.1538 16.8906 49.8898 16.8181C49.8443 16.8091 49.7806 16.791 49.726 16.791Z" fill="#23295B"/>
</g>
<g id="Group_9">
<path id="Vector_15" d="M48.0418 33.5823C47.9417 26.2956 42.3801 20.1042 35.0345 19.3981C27.7616 18.7011 20.8347 23.9421 19.6059 31.1112C18.9505 34.913 19.8425 38.8777 22.1546 41.9915C23.3652 43.6299 25.3859 44.7794 26.0231 46.7708C26.4054 47.9747 26.2233 49.251 26.2597 50.4911C26.369 53.7136 28.8448 55.9132 32.0307 55.9494C34.4337 55.9675 37.2008 56.3386 39.1852 54.7002C40.5687 53.5688 41.1513 51.9666 41.1695 50.2286C41.1877 48.5541 41.0329 46.8976 42.0433 45.4402C42.7078 44.4898 43.7364 43.829 44.501 42.951C45.2018 42.1454 45.8299 41.2673 46.3396 40.3259C47.4592 38.244 48.0054 35.9449 48.0418 33.5823C48.06 32.3603 46.1576 32.3603 46.1394 33.5823C46.0757 37.4113 44.419 40.5884 41.6064 43.123C39.3945 45.1234 39.3035 47.5493 39.2671 50.3011C39.2489 51.8037 38.548 53.1614 37.1007 53.7679C36.1996 54.1481 35.1892 54.0485 34.2334 54.0485C31.8213 54.0485 28.7538 54.2295 28.2259 51.1157C28.0711 50.2196 28.1895 49.2691 28.1712 48.364C28.1439 46.8976 27.7525 45.4855 26.8787 44.2816C25.8865 42.9057 24.4393 41.9734 23.4653 40.5522C22.4367 39.0406 21.745 37.3388 21.4446 35.5375C20.3523 28.9478 25.0491 22.5301 31.6302 21.3895C39.1852 20.077 46.0393 26.0693 46.1394 33.5733C46.1576 34.7862 48.06 34.7953 48.0418 33.5733V33.5823Z" fill="#23295B"/>
<path id="Vector_16" d="M34.3882 56.2209C33.9422 56.2209 33.5053 56.2118 33.0684 56.1937C32.7134 56.1847 32.3584 56.1756 32.0216 56.1665C28.6537 56.1394 26.1415 53.7497 26.0231 50.4911C26.014 50.129 26.0231 49.7669 26.0231 49.4048C26.0413 48.5449 26.0595 47.6488 25.7956 46.8341C25.4133 45.6302 24.503 44.7522 23.5382 43.8199C22.992 43.2858 22.4186 42.7336 21.9635 42.1181C19.6515 38.9952 18.7048 34.9672 19.3784 31.0658C20.6254 23.7882 27.6616 18.4657 35.0527 19.1717C42.453 19.8868 48.1147 26.033 48.2603 33.5008C48.2603 33.5279 48.2603 33.5551 48.2603 33.5822C48.2603 33.6094 48.2603 33.6366 48.2603 33.6637C48.2148 36.1168 47.6322 38.3888 46.5308 40.4345C46.0393 41.3487 45.4113 42.2448 44.6649 43.1048C44.3372 43.4849 43.9549 43.8289 43.5817 44.1548C43.0719 44.6074 42.5895 45.0419 42.2254 45.5669C41.388 46.7798 41.388 48.1376 41.388 49.5678C41.388 49.785 41.388 50.0023 41.388 50.2285C41.3607 52.1747 40.6507 53.7859 39.3217 54.8721C37.92 56.0308 36.1177 56.2209 34.3882 56.2209ZM33.7238 19.561C27.0517 19.561 20.9713 24.5214 19.8335 31.1473C19.1872 34.931 20.0975 38.8323 22.3367 41.8556C22.7736 42.444 23.3288 42.978 23.8659 43.503C24.8216 44.4263 25.8138 45.3858 26.2416 46.7074C26.5238 47.6035 26.5056 48.5268 26.4874 49.4229C26.4874 49.776 26.4783 50.129 26.4874 50.482C26.5875 53.5325 28.8722 55.6868 32.0307 55.723C32.3766 55.723 32.7316 55.7321 33.0866 55.7502C35.2075 55.8135 37.4011 55.8769 39.0396 54.5282C40.2593 53.5234 40.9238 52.0389 40.942 50.2285C40.942 50.0113 40.942 49.7941 40.942 49.5768C40.942 48.1376 40.942 46.644 41.8613 45.3134C42.2618 44.7431 42.7807 44.2724 43.2904 43.8199C43.6545 43.494 44.0186 43.1681 44.3372 42.8061C45.0563 41.9823 45.6661 41.1134 46.1394 40.2263C47.0679 38.4974 47.6231 36.5875 47.7688 34.5417C47.5776 34.6594 47.3501 34.7318 47.1225 34.7318H47.1043C46.8221 34.7318 46.5399 34.6413 46.3215 34.4693C46.0484 37.8366 44.5192 40.8056 41.7521 43.3039C39.5584 45.2863 39.522 47.7302 39.4856 50.3191C39.4583 52.048 38.6209 53.3876 37.1827 53.9941C36.3908 54.329 35.5351 54.3109 34.7068 54.3019C34.543 54.3019 34.3882 54.3019 34.2244 54.3019H33.8512C31.4846 54.32 28.5172 54.32 27.9893 51.188C27.88 50.5725 27.8982 49.9298 27.9164 49.3143C27.9164 49.0066 27.9346 48.7078 27.9255 48.4091C27.8891 46.8794 27.4704 45.5488 26.6785 44.4625C26.2143 43.8199 25.6317 43.2586 25.0583 42.7155C24.4302 42.1091 23.7748 41.4845 23.256 40.7241C22.191 39.1672 21.4992 37.4474 21.1989 35.6189C20.0975 28.9749 24.8489 22.3851 31.5665 21.2084C35.1346 20.5838 38.812 21.5705 41.6429 23.9149C44.3463 26.1416 46.012 29.3188 46.2942 32.7404C46.3397 32.7042 46.3943 32.668 46.4489 32.6318C46.8312 32.4146 47.341 32.4236 47.7142 32.6499H47.7324C47.1862 25.8339 41.8522 20.3213 34.9799 19.6605C34.5521 19.6153 34.1152 19.5972 33.6965 19.5972L33.7238 19.561ZM34.2335 53.8221C34.3973 53.8221 34.5612 53.8221 34.725 53.8221C35.5078 53.8312 36.3088 53.8493 37.0097 53.5506C38.275 53.0165 39.0214 51.8307 39.0396 50.2919C39.076 47.7212 39.1124 45.069 41.4517 42.9509C44.3554 40.3259 45.8482 37.1758 45.9119 33.5732C45.8664 29.9615 44.2097 26.558 41.3789 24.2227C38.6391 21.9688 35.0982 21.0183 31.6666 21.6157C25.1857 22.7472 20.6072 29.1016 21.6722 35.5012C21.9635 37.2663 22.637 38.9319 23.6565 40.4254C24.148 41.1405 24.7852 41.756 25.3951 42.3444C25.9776 42.9056 26.5784 43.4759 27.0608 44.1548C27.9073 45.3225 28.3534 46.7436 28.3898 48.3639C28.3898 48.6716 28.3898 48.9794 28.3807 49.2962C28.3625 49.8936 28.3442 50.5092 28.4444 51.0794C28.9177 53.8402 31.5392 53.8402 33.8603 53.8221H34.2335ZM46.3579 33.5822C46.3579 34.0529 46.7402 34.2702 47.0952 34.2702H47.1043C47.4411 34.2702 47.7779 34.071 47.8052 33.6456C47.8052 33.6275 47.8052 33.6003 47.8052 33.5822C47.8052 33.5641 47.8052 33.537 47.8052 33.5189C47.787 33.2292 47.6413 33.0844 47.5048 33.0029C47.2681 32.8581 46.9405 32.8581 46.6947 33.0029C46.5399 33.0844 46.367 33.2564 46.3579 33.5913V33.5822Z" fill="#23295B"/>
</g>
<g id="Group_10">
<path id="Vector_17" d="M27.2068 48.78H40.2141C41.4429 48.78 41.4429 46.8882 40.2141 46.8882H27.2068C25.978 46.8882 25.978 48.78 27.2068 48.78Z" fill="#23295B"/>
<path id="Vector_18" d="M40.2148 49.0063H27.2074C26.452 49.0063 26.0605 48.4179 26.0605 47.8296C26.0605 47.2412 26.452 46.6528 27.2074 46.6528H40.2148C40.9703 46.6528 41.3617 47.2412 41.3617 47.8296C41.3617 48.4179 40.9703 49.0063 40.2148 49.0063ZM27.2074 47.1145C26.725 47.1145 26.5157 47.4765 26.5157 47.8386C26.5157 48.2007 26.7341 48.5628 27.2074 48.5628H40.2148C40.6972 48.5628 40.9066 48.2007 40.9066 47.8386C40.9066 47.4765 40.6972 47.1145 40.2148 47.1145H27.2074Z" fill="#23295B"/>
</g>
</g>
</g>
<defs>
<clipPath id="clip0_610_410">
<rect width="72" height="80" fill="white"/>
</clipPath>
</defs>
</svg>
