<svg width="80" height="80" viewBox="0 0 80 80" fill="none" xmlns="http://www.w3.org/2000/svg">
<g id="_?&#235;&#141;&#137;&#236;&#148;&#160;??1" clip-path="url(#clip0_610_236)">
<path id="Vector" d="M78.9642 80.0001H1.91288C1.33822 80.0001 0.867188 79.5291 0.867188 78.9546C0.867188 78.3801 1.3288 77.9092 1.91288 77.9092H78.9642C79.5389 77.9092 80.0099 78.3801 80.0099 78.9546C80.0099 79.5291 79.5483 80.0001 78.9642 80.0001Z" fill="#23295B"/>
<path id="Vector_2" d="M9.54374 79.303C8.96908 79.303 8.49805 78.8321 8.49805 78.2575V46.3291C8.49805 45.7546 8.95966 45.2837 9.54374 45.2837C10.1278 45.2837 10.5894 45.7546 10.5894 46.3291V78.2575C10.5894 78.8321 10.1278 79.303 9.54374 79.303Z" fill="#23295B"/>
<path id="Vector_3" d="M1.04569 46.6304C0.471032 46.6304 0 46.1595 0 45.585C0 43.042 1.75224 40.3013 4.57843 40.3013C5.15309 40.3013 5.62412 40.7722 5.62412 41.3467C5.62412 41.9212 5.16251 42.3922 4.57843 42.3922C3.08997 42.3922 2.08196 44.0498 2.08196 45.5944C2.08196 46.1689 1.62035 46.6399 1.03627 46.6399L1.04569 46.6304Z" fill="#23295B"/>
<path id="Vector_4" d="M26.4629 15.7476C26.2839 15.7476 26.1049 15.7005 25.9448 15.6064C23.1939 14.0335 22.6287 10.6994 23.486 8.2129C24.3338 5.74528 26.3969 4.37961 28.7238 4.71867C29.0159 4.76576 29.2702 4.92587 29.4398 5.17075C29.6 5.41563 29.6565 5.71702 29.5905 5.99957C29.3173 7.11094 31.0413 8.34476 31.5218 8.61789C31.7761 8.75917 31.9645 9.01346 32.0305 9.30544C32.6334 12.065 30.363 14.0994 30.2594 14.1842C30.005 14.4102 29.6565 14.495 29.3173 14.4102C28.9876 14.3254 28.7144 14.09 28.592 13.7698C28.1303 12.5548 27.5274 12.1121 27.1129 12.1121C26.8774 12.1121 26.6701 12.2534 26.5759 12.4889C26.4158 12.8939 26.6419 13.4401 27.1789 13.9487C27.5651 14.3066 27.6216 14.9 27.3013 15.3238C27.0941 15.5969 26.7832 15.7476 26.4629 15.7476ZM27.1035 10.0307C27.6405 10.0307 28.7521 10.2096 29.7036 11.4905C29.892 11.1044 30.0427 10.6523 30.0239 10.1531C28.997 9.45613 27.7724 8.25999 27.5086 6.80014C26.1897 7.07327 25.6056 8.4201 25.4455 8.89102C25.2382 9.4938 25.144 10.1625 25.2005 10.8312C25.6904 10.3226 26.3687 10.0307 27.0941 10.0307H27.1035Z" fill="#23295B"/>
<path id="Vector_5" d="M48.4312 49.5785C48.1674 49.5785 47.8942 49.4749 47.6964 49.2771C47.2913 48.8722 47.2913 48.2129 47.6964 47.8079C47.9979 47.5065 48.4218 47.1109 48.9117 46.6588C50.6356 45.0577 53.5372 42.3734 54.5735 40.3014C54.8278 39.7834 55.459 39.5762 55.9677 39.8399C56.4858 40.0942 56.6931 40.7252 56.4293 41.2338C55.2235 43.6449 52.2748 46.3763 50.3247 48.1846C49.8537 48.6179 49.4486 48.9946 49.166 49.2866C48.9588 49.4938 48.695 49.588 48.4312 49.588V49.5785Z" fill="#23295B"/>
<path id="Vector_6" d="M46.3025 44.8129C46.001 44.8129 45.709 44.681 45.5017 44.4361C45.1343 43.9935 45.1909 43.3342 45.6336 42.9669C49.2135 39.9812 50.5135 37.2687 52.1715 33.8216C52.4824 33.1717 52.8027 32.503 53.1513 31.806C53.4056 31.288 54.0368 31.0808 54.5455 31.3445C55.0637 31.5988 55.2709 32.2299 55.0072 32.7385C54.668 33.426 54.3477 34.0853 54.0462 34.7163C52.3505 38.2388 50.8903 41.2904 46.9619 44.5586C46.7641 44.7187 46.5286 44.8034 46.2931 44.8034L46.3025 44.8129Z" fill="#23295B"/>
<path id="Vector_7" d="M74.7996 79.303C74.2249 79.303 73.7539 78.8321 73.7539 78.2576V71.3162C73.7539 70.7417 74.2155 70.2708 74.7996 70.2708C75.3837 70.2708 75.8453 70.7417 75.8453 71.3162V78.2576C75.8453 78.8321 75.3837 79.303 74.7996 79.303Z" fill="#23295B"/>
<path id="Vector_8" d="M77.4276 71.6742H53.3767C53.0752 71.6742 52.7926 71.5423 52.5948 71.3163C52.397 71.0902 52.3027 70.7888 52.3498 70.4875L55.176 49.9836C55.2514 49.4091 55.779 49.0229 56.3536 49.0982C56.9189 49.1736 57.3239 49.701 57.2392 50.2755L54.5731 69.6021H76.2311L73.5651 50.2755C73.4897 49.7104 73.8854 49.183 74.4506 49.0982C75.0159 49.0229 75.5434 49.4185 75.6282 49.9836L78.4544 70.4875C78.4921 70.7888 78.4073 71.0902 78.2095 71.3163C78.0116 71.5423 77.729 71.6742 77.4276 71.6742Z" fill="#23295B"/>
<path id="Vector_9" d="M61.6115 50.8499H57.9845C56.9294 50.8499 55.9026 50.4073 55.1772 49.635C54.4518 48.8627 54.0656 47.8078 54.1315 46.7529C54.1692 46.1125 54.2069 45.538 54.2446 44.9917C54.3576 43.3717 54.4518 41.9684 54.4518 39.9152C54.4518 38.7473 54.1598 38.0126 53.8206 37.1556C53.4532 36.2231 53.0293 35.1683 53.0293 33.5483C53.0293 31.6741 53.8206 30.1012 54.6591 28.4247C55.2431 27.2568 55.912 25.9382 56.4019 24.3277C56.5715 23.7814 57.1555 23.4612 57.7019 23.6401C58.2483 23.8097 58.5592 24.3936 58.3991 24.9399C57.8621 26.7105 57.1555 28.1233 56.5244 29.3571C55.733 30.93 55.1113 32.1638 55.1113 33.5389C55.1113 34.7633 55.4127 35.5073 55.7519 36.3833C56.1098 37.2968 56.5244 38.3329 56.5244 39.9057C56.5244 42.0343 56.4207 43.4659 56.3077 45.133C56.27 45.6792 56.2323 46.2538 56.1946 46.8848C56.1664 47.384 56.3359 47.8549 56.6751 48.2128C57.0142 48.5707 57.4758 48.7685 57.9657 48.7685H61.5926C62.1673 48.7685 62.6383 49.2394 62.6383 49.8139C62.6383 50.3884 62.1767 50.8594 61.5926 50.8594L61.6115 50.8499Z" fill="#23295B"/>
<path id="Vector_10" d="M74.7531 50.85H69.242C68.6674 50.85 68.1963 50.3791 68.1963 49.8046C68.1963 49.23 68.658 48.7591 69.242 48.7591H74.7531C75.7328 48.7591 76.5336 47.9585 76.5336 46.979V45.3591C75.7517 31.3916 71.8327 22.9621 64.5506 19.6562C64.023 19.4208 63.7969 18.7991 64.0324 18.2811C64.2679 17.7537 64.8897 17.5277 65.4078 17.7631C73.4625 21.4269 77.7771 30.4309 78.6061 45.3026V46.979C78.6061 49.1076 76.8727 50.8406 74.7437 50.8406L74.7531 50.85Z" fill="#23295B"/>
<path id="Vector_11" d="M53.6043 79.4914C53.0296 79.4914 52.5586 79.0205 52.5586 78.4459C52.5586 76.242 54.3579 74.4431 56.5624 74.4431H57.6363C58.1073 74.4431 58.4842 74.0664 58.4842 73.5955V71.3162C58.4842 70.7417 58.9458 70.2708 59.5299 70.2708C60.1139 70.2708 60.5756 70.7417 60.5756 71.3162V73.5955C60.5756 75.206 59.2567 76.5246 57.6457 76.5246H56.5718C55.5167 76.5246 54.65 77.3817 54.65 78.4459C54.65 79.0205 54.1884 79.4914 53.6043 79.4914Z" fill="#23295B"/>
<path id="Vector_12" d="M64.7098 79.4914C64.1351 79.4914 63.6641 79.0205 63.6641 78.4459C63.6641 76.242 65.4634 74.4431 67.6678 74.4431H68.7418C69.2128 74.4431 69.5896 74.0664 69.5896 73.5955V71.3162C69.5896 70.7417 70.0513 70.2708 70.6353 70.2708C71.2194 70.2708 71.681 70.7417 71.681 71.3162V73.5955C71.681 75.206 70.3621 76.5246 68.7512 76.5246H67.6772C66.6221 76.5246 65.7554 77.3817 65.7554 78.4459C65.7554 79.0205 65.2938 79.4914 64.7098 79.4914Z" fill="#23295B"/>
<path id="Vector_13" d="M65.2576 51.9709C64.796 51.9709 64.3344 51.8956 63.8916 51.7354C62.846 51.3681 62.0169 50.6241 61.5365 49.6257C61.056 48.6274 60.9995 47.5066 61.3669 46.4706L61.9322 44.86C63.8257 39.4821 62.9307 33.1718 59.5958 28.3872C59.2661 27.9163 59.3886 27.2664 59.8596 26.9368C60.3306 26.6071 60.9807 26.7296 61.3104 27.2005C65.0127 32.5313 66.0113 39.5669 63.9011 45.557L63.3358 47.1675C63.1568 47.6855 63.1851 48.2412 63.4206 48.731C63.6561 49.2207 64.0706 49.5975 64.5888 49.7764C64.9844 49.9177 65.3989 49.9271 65.7946 49.8235C66.4541 49.6446 66.9722 49.1642 67.1983 48.5238L67.7635 46.9132C70.1281 40.2073 69.2802 32.4465 65.4932 26.155C65.2011 25.6653 65.3518 25.0248 65.8511 24.7234C66.341 24.4315 66.9816 24.5822 67.2831 25.0813C71.3905 31.9003 72.3043 40.3203 69.7324 47.6102L69.1672 49.2207C68.715 50.5111 67.6599 51.4906 66.3316 51.8391C65.983 51.9332 65.625 51.9803 65.2671 51.9803L65.2576 51.9709Z" fill="#23295B"/>
<path id="Vector_14" d="M67.7813 47.6384C67.6682 47.6384 67.5646 47.6196 67.4516 47.5819L63.005 46.1032C62.4586 45.9243 62.1666 45.3309 62.3456 44.7846C62.5246 44.2384 63.1181 43.9464 63.6645 44.1253L68.111 45.604C68.6574 45.783 68.9494 46.3763 68.7704 46.9226C68.6291 47.3559 68.2146 47.6384 67.7813 47.6384Z" fill="#23295B"/>
<path id="Vector_15" d="M57.5042 25.2036C54.6686 25.2036 51.9931 23.1033 50.8626 19.9858C49.9206 17.3957 49.7698 14.6738 50.4481 12.517C51.0322 10.6333 52.0496 10.3978 53.1236 10.1529C53.8772 9.97399 54.8099 9.75737 56.223 8.94739C56.5715 8.7496 57.0049 8.76844 57.3346 8.99448C59.0869 10.2 60.5376 10.6333 61.6964 10.9818C63.1471 11.415 64.5226 11.8294 64.8334 13.6283C65.1726 15.5874 64.9371 17.8478 64.1552 19.9952C63.0153 23.1127 60.3492 25.213 57.5136 25.213L57.5042 25.2036ZM56.6846 11.0571C55.2998 11.7729 54.2823 12.0178 53.5852 12.1779C52.9697 12.3223 52.5835 12.6425 52.4265 13.1386C51.8895 14.8433 52.0402 17.1414 52.8127 19.27C53.6417 21.5398 55.5635 23.1221 57.5042 23.1221C59.4448 23.1221 61.3666 21.5398 62.1957 19.27C62.8457 17.4805 63.0624 15.5497 62.7797 13.9674C62.7044 13.5153 62.5725 13.4023 61.0934 12.9596C59.9724 12.6206 58.4651 12.1779 56.6846 11.0477V11.0571Z" fill="#23295B"/>
<path id="Vector_16" d="M63.6736 18.9969C63.3344 18.9969 63.0329 18.8557 62.8351 18.6108C62.6373 18.3659 62.5619 18.0457 62.6279 17.7349C62.9199 16.3975 62.967 15.0977 62.7786 13.9769C62.7032 13.5248 62.5713 13.4118 61.0923 12.9692C59.9712 12.6301 58.4639 12.1874 56.6834 11.0572C55.2986 11.773 54.2906 12.0179 53.5935 12.178C52.7174 12.3852 52.7079 12.3852 52.5101 12.9221C52.3876 13.2423 52.1239 13.4872 51.7847 13.5719C51.455 13.6567 51.097 13.5719 50.8427 13.3365C49.7028 12.3287 49.0527 10.8877 49.0527 9.38074C49.0527 7.50648 50.0136 5.81116 51.6246 4.84107C53 4.01225 54.6297 3.87097 56.1182 4.41724C57.7197 3.13633 60.1785 2.77843 62.2699 3.579C63.975 4.23829 65.0772 5.53803 65.3504 7.13916C66.8012 7.7231 67.9411 8.9004 68.5629 10.4827C69.26 12.2628 69.0151 14.4949 67.9317 16.3033C67.0179 17.8196 65.6519 18.7992 64.1728 18.9781C64.0127 18.9969 63.8431 19.0064 63.6641 19.0064L63.6736 18.9969ZM56.7305 8.7968C56.9378 8.7968 57.1451 8.86273 57.324 8.98517C59.0763 10.1907 60.5271 10.624 61.6858 10.9725C63.1366 11.4057 64.512 11.8201 64.8229 13.619C64.983 14.5232 65.0113 15.5121 64.9171 16.5387C65.3787 16.2468 65.8026 15.8041 66.1418 15.2296C66.886 13.9769 67.0744 12.4135 66.6128 11.2362C65.9722 9.59737 64.7758 9.08877 64.1257 8.92866C63.6641 8.81564 63.325 8.39181 63.325 7.91147C63.325 6.43278 62.1945 5.77349 61.5162 5.51919C59.9618 4.91641 58.0589 5.27431 57.0885 6.33859C56.7682 6.69649 56.2501 6.78126 55.8262 6.56464C54.8087 6.01837 53.6594 6.04662 52.6891 6.63057C51.7094 7.21451 51.1253 8.25053 51.1253 9.38074C51.1253 9.87992 51.2477 10.3791 51.4644 10.8218C51.9543 10.4356 52.5195 10.3037 53.0942 10.1625C53.8478 9.98352 54.7805 9.7669 56.1936 8.9475C56.3537 8.85331 56.5327 8.80622 56.7117 8.80622L56.7305 8.7968Z" fill="#23295B"/>
<path id="Vector_17" d="M64.7395 9.06051C64.6265 9.06051 64.5134 9.04168 64.4098 9.004C64.2779 8.95691 64.1743 8.93807 64.1272 8.91924C63.6655 8.80622 63.3358 8.38239 63.3358 7.91147C63.3358 6.72475 62.601 6.06546 61.9793 5.72639C60.6981 5.02001 58.9081 5.06711 57.7117 5.82058C57.382 6.02778 56.9486 6.0372 56.6095 5.83C56.2704 5.62279 56.0819 5.24606 56.1102 4.85048C56.3551 2.08147 58.6349 0 61.414 0C64.3533 0 66.7367 2.38286 66.7367 5.3214C66.7367 6.53638 66.3127 7.7231 65.5497 8.67436C65.3518 8.91924 65.0504 9.06051 64.7395 9.06051ZM59.9256 3.14575C60.9901 3.14575 62.064 3.39063 62.9778 3.89922C63.6844 4.28538 64.2496 4.79397 64.6547 5.39675C64.6547 5.36849 64.6547 5.34966 64.6547 5.3214C64.6547 3.5319 63.2039 2.08147 61.414 2.08147C60.4437 2.08147 59.5676 2.52413 58.9647 3.21168C59.285 3.16459 59.6053 3.14575 59.9256 3.14575Z" fill="#23295B"/>
<path id="Vector_18" d="M63.6922 79.303C63.1175 79.303 62.6465 78.832 62.6465 78.2575V51.189C62.6465 50.6145 63.1081 50.1436 63.6922 50.1436C64.2763 50.1436 64.7379 50.6145 64.7379 51.189V78.2575C64.7379 78.832 64.2763 79.303 63.6922 79.303Z" fill="#23295B"/>
<path id="Vector_19" d="M70.3726 53.3082C69.7979 53.3082 69.3269 52.8373 69.3269 52.2628C69.3269 51.3492 68.7146 50.5581 67.8385 50.332C67.2826 50.1907 66.9435 49.6256 67.0848 49.07C67.2261 48.5143 67.7914 48.1752 68.3472 48.3165C70.1465 48.778 71.4089 50.398 71.4089 52.2628C71.4089 52.8373 70.9473 53.3082 70.3632 53.3082H70.3726Z" fill="#23295B"/>
<path id="Vector_20" d="M40.8852 78.446C40.3106 78.446 39.8395 77.975 39.8395 77.4005C39.8395 76.5717 39.4627 76.3362 37.6257 75.9972C36.2503 75.7429 34.1777 75.3661 34.1777 73.1622V45.6416C34.1777 45.0671 34.6393 44.5962 35.2234 44.5962C35.8075 44.5962 36.2691 45.0671 36.2691 45.6416V73.1622C36.2691 73.5013 36.4198 73.6614 38.0119 73.9534C39.4815 74.2265 41.9309 74.6692 41.9309 77.4099C41.9309 77.9845 41.4693 78.4554 40.8852 78.4554V78.446Z" fill="#23295B"/>
<path id="Vector_21" d="M13.7078 78.6155C13.1331 78.6155 12.6621 78.1446 12.6621 77.5701V45.6416C12.6621 45.0671 13.1237 44.5962 13.7078 44.5962C14.2919 44.5962 14.7535 45.0671 14.7535 45.6416V77.5701C14.7535 78.1446 14.2919 78.6155 13.7078 78.6155Z" fill="#23295B"/>
<path id="Vector_22" d="M31.1723 78.4459C30.5977 78.4459 30.1266 77.975 30.1266 77.4005C30.1266 76.5717 29.7498 76.3362 27.9128 75.9971C26.5374 75.7428 24.4648 75.3661 24.4648 73.1622V50.5015C24.4648 49.927 24.9265 49.4561 25.5105 49.4561C26.0946 49.4561 26.5562 49.927 26.5562 50.5015V73.1622C26.5562 73.5013 26.707 73.6614 28.299 73.9533C29.7687 74.2265 32.218 74.6691 32.218 77.4099C32.218 77.9844 31.7564 78.4554 31.1723 78.4554V78.4459Z" fill="#23295B"/>
<path id="Vector_23" d="M40.9713 48.7686C40.8394 48.7686 40.6981 48.7404 40.5756 48.6933C40.3024 48.5803 40.0857 48.3542 39.9915 48.0717L36.2798 37.297V45.6511C36.2798 46.2257 35.8182 46.6966 35.2341 46.6966H13.708C13.1333 46.6966 12.6623 46.2257 12.6623 45.6511V30.9867C12.0405 32.795 11.5318 35.7053 11.8709 40.0189C11.8898 40.3109 11.7956 40.5935 11.5977 40.8101C11.3999 41.0267 11.1267 41.1491 10.8347 41.1491H4.38153C3.83514 41.1491 3.38295 40.7347 3.34526 40.1885C3.30758 39.7458 2.57277 29.2066 8.64908 22.7361C16.0725 14.8341 25.578 15.4463 25.983 15.4746C26.5577 15.5216 26.9911 16.0208 26.9439 16.5859C26.8968 17.1604 26.3976 17.5937 25.8323 17.5466C25.7475 17.5466 16.8921 17.0003 10.1658 24.1583C5.70984 28.8958 5.36128 36.4117 5.38954 39.0583H9.73245C9.42157 32.8327 10.8252 28.9335 12.3137 27.3229C12.7753 26.8237 13.2463 26.56 13.7174 26.56C14.292 26.56 14.7631 27.0309 14.7631 27.6055V44.6057H34.1978V31.0714C34.1978 30.5628 34.5652 30.1296 35.0645 30.0448C35.5638 29.9601 36.0537 30.252 36.2233 30.7324L41.5836 46.2822L45.4272 44.4268L37.853 23.094C37.6646 22.5572 37.9472 21.9544 38.4842 21.7661C39.0306 21.5683 39.6241 21.8602 39.8125 22.3971L47.707 44.6057C47.886 45.1049 47.6599 45.6606 47.1795 45.896L41.4423 48.6745C41.301 48.7404 41.1408 48.7781 40.9901 48.7781L40.9713 48.7686Z" fill="#23295B"/>
<path id="Vector_24" d="M7.83867 47.384C5.50235 47.384 3.64648 45.5286 3.64648 43.2493V40.1035C3.64648 39.529 4.1081 39.0581 4.69217 39.0581C5.27625 39.0581 5.73786 39.529 5.73786 40.1035V43.2493C5.73786 44.3795 6.66109 45.3025 7.79156 45.3025C8.92204 45.3025 9.90178 44.3795 9.90178 43.2493V40.1035C9.90178 39.529 10.3634 39.0581 10.9475 39.0581C11.5316 39.0581 11.9932 39.529 11.9932 40.1035V43.2493C11.9932 45.5286 10.1373 47.384 7.85751 47.384H7.83867Z" fill="#23295B"/>
<path id="Vector_25" d="M44.3525 53.101C42.6379 53.101 41.027 52.0273 40.4335 50.3132L39.4537 47.4782C39.2653 46.932 39.5574 46.3386 40.1038 46.1597C40.6502 45.9713 41.2437 46.2633 41.4321 46.8095L42.4118 49.6445C42.7792 50.7182 43.9474 51.2927 45.0213 50.916L45.1815 50.8595C46.2554 50.4921 46.8207 49.3148 46.4533 48.2506L45.4735 45.4156C45.2851 44.8693 45.5771 44.276 46.1235 44.097C46.6699 43.9087 47.2634 44.2006 47.4518 44.7469L48.4316 47.5818C49.1758 49.7387 48.0265 52.0933 45.8692 52.8373L45.709 52.8938C45.2663 53.0445 44.8141 53.1199 44.3713 53.1199L44.3525 53.101Z" fill="#23295B"/>
<path id="Vector_26" d="M34.4895 24.3089C34.1597 24.3089 33.83 24.29 33.4909 24.2429C30.3538 23.8097 27.5182 21.3797 26.1051 17.8949C25.8036 17.1509 25.5587 16.0489 25.4268 14.8057C25.3609 14.2312 25.7754 13.7226 26.35 13.6566C26.9247 13.5907 27.4334 14.0051 27.4994 14.5797C27.6124 15.6063 27.8102 16.5481 28.0363 17.1038C29.1574 19.854 31.4089 21.8413 33.7829 22.1709C35.6294 22.4252 37.2968 21.6811 38.5969 20.0235C42.2897 15.286 41.2817 8.95686 38.9643 6.68702C36.5997 4.36068 32.0589 4.1158 29.6284 6.18785C29.327 6.45156 29.2516 6.50807 29.082 6.74353C29.0726 6.75295 29.0632 6.77179 29.0538 6.78121C29.0349 6.80946 29.0067 6.83772 28.9784 6.86597C28.9219 6.92248 28.8653 6.96958 28.8088 7.00725C28.7146 7.07318 28.611 7.12027 28.4885 7.14853C28.4603 7.14853 28.432 7.15794 28.4037 7.16736C28.253 7.19562 28.1117 7.1862 27.9798 7.14853C27.8573 7.12027 27.7349 7.06376 27.6312 6.98841C27.5936 6.96016 27.5465 6.92248 27.5088 6.89423C27.4523 6.83772 27.4052 6.78121 27.358 6.7247C27.2921 6.63051 27.245 6.52691 27.2167 6.41389C27.2167 6.37622 27.1979 6.34796 27.1979 6.31029C27.1979 6.27261 27.1885 6.23494 27.1885 6.19727C27.1791 6.0089 27.2167 5.82053 27.3109 5.651C27.3675 5.53798 27.4334 5.44379 27.5182 5.35903C27.782 5.02938 27.9704 4.86927 28.2813 4.60555C31.5879 1.79887 37.2591 2.072 40.4339 5.19892C43.7405 8.44827 44.3623 16.0207 40.2455 21.3044C38.7193 23.2634 36.7033 24.3089 34.4989 24.3089H34.4895Z" fill="#23295B"/>
<path id="Vector_27" d="M29.3353 31.9095C29.2506 31.9095 29.1658 31.9001 29.081 31.8813C28.6665 31.7777 28.3556 31.4292 28.2991 30.9959L26.886 19.6844C26.8106 19.1099 27.2157 18.5919 27.7904 18.526C28.365 18.46 28.8831 18.8556 28.9491 19.4301L30.0325 28.0574L33.4333 23.1975C33.763 22.7266 34.4131 22.6136 34.8841 22.9432C35.3551 23.2728 35.4682 23.9227 35.1384 24.3936L30.1832 31.4669C29.9854 31.7494 29.6651 31.9095 29.3259 31.9095H29.3353Z" fill="#23295B"/>
<path id="Vector_28" d="M20.1419 76.4492C19.7274 76.4492 19.3411 76.2043 19.1716 75.7899C18.9549 75.2531 19.2187 74.6503 19.7556 74.4337C19.9158 74.3677 23.6369 72.8985 26.7646 73.6802C27.3204 73.8215 27.6595 74.3866 27.5182 74.9423C27.3769 75.4979 26.8117 75.837 26.2559 75.6957C24.2022 75.1871 21.4231 75.9971 20.5281 76.355C20.4057 76.4021 20.2738 76.4304 20.1419 76.4304V76.4492Z" fill="#23295B"/>
<path id="Vector_29" d="M33.5757 75.7429C33.312 75.7429 33.0388 75.6393 32.8409 75.4416C32.4358 75.0366 32.4358 74.3773 32.8409 73.9723L33.5475 73.2659C33.9526 72.8609 34.612 72.8609 35.0171 73.2659C35.4222 73.6709 35.4222 74.3302 35.0171 74.7352L34.3105 75.4416C34.1033 75.6488 33.8395 75.7429 33.5757 75.7429Z" fill="#23295B"/>
</g>
<defs>
<clipPath id="clip0_610_236">
<rect width="80" height="80" fill="white"/>
</clipPath>
</defs>
</svg>
