<svg width="80" height="80" viewBox="0 0 80 80" fill="none" xmlns="http://www.w3.org/2000/svg">
<g id="famicons:bed-outline">
<path id="Vector" d="M4 78V58.4C4.00868 55.4323 5.17849 52.5886 7.25394 50.4901C9.32939 48.3916 12.1418 47.2088 15.0769 47.2H64.9231C67.8582 47.2088 70.6706 48.3916 72.7461 50.4901C74.8215 52.5886 75.9913 55.4323 76 58.4V78M62.1538 47.2H12.3077V29C12.3132 27.1452 13.0443 25.3679 14.3415 24.0564C15.6386 22.7448 17.3963 22.0055 19.2308 22H60.7692C62.6037 22.0055 64.3614 22.7448 65.6585 24.0564C66.9557 25.3679 67.6868 27.1452 67.6923 29V47.2H62.1538Z" stroke="#23295B" stroke-width="2.5" stroke-linecap="round" stroke-linejoin="round"/>
<path id="Vector_2" d="M4 78V76.6071C4.0032 75.4999 4.44186 74.4389 5.22016 73.656C5.99847 72.8731 7.05316 72.4318 8.15385 72.4286H71.8462C72.9468 72.4318 74.0015 72.8731 74.7798 73.656C75.5581 74.4389 75.9968 75.4999 76 76.6071V78M15.0769 47.3571V44.5714C15.081 43.0951 15.6659 41.6804 16.7036 40.6364C17.7414 39.5925 19.1478 39.0041 20.6154 39H34.4615C35.9292 39.0041 37.3355 39.5925 38.3733 40.6364C39.4111 41.6804 39.9959 43.0951 40 44.5714M40 44.5714V47.3571M40 44.5714C40.0041 43.0951 40.5889 41.6804 41.6267 40.6364C42.6645 39.5925 44.0708 39.0041 45.5385 39H59.3846C60.8522 39.0041 62.2586 39.5925 63.2964 40.6364C64.3341 41.6804 64.919 43.0951 64.9231 44.5714V47.3571" stroke="#23295B" stroke-width="2.5" stroke-linecap="round" stroke-linejoin="round"/>
</g>
</svg>
