<svg width="80" height="80" viewBox="0 0 80 80" fill="none" xmlns="http://www.w3.org/2000/svg">
<g id="_?&#235;&#141;&#137;&#236;&#148;&#160;??1" clip-path="url(#clip0_611_444)">
<g id="meditation">
<g id="Group">
<path id="Vector" d="M39.992 41.1085C35.4786 41.1085 31.8164 37.4375 31.8164 32.924V27.6214C31.8164 23.108 35.4874 19.437 39.992 19.437C44.4965 19.437 48.1675 23.108 48.1675 27.6214V32.924C48.1675 37.4375 44.4965 41.1085 39.992 41.1085ZM39.992 21.6627C36.7022 21.6627 34.0332 24.3406 34.0332 27.6303V32.9329C34.0332 36.2226 36.7111 38.9005 39.992 38.9005C43.2728 38.9005 45.9507 36.2226 45.9507 32.9329V27.6303C45.9507 24.3406 43.2728 21.6627 39.992 21.6627Z" fill="#23295B"/>
<path id="Vector_2" d="M16.4398 63.6932H8.63667C3.87497 63.6932 0 59.8182 0 55.0565C0 54.4447 0.496564 53.9481 1.1084 53.9481H13.1323L22.3365 42.8996C24.4558 40.3547 27.577 38.8916 30.9022 38.8916H40C40.6118 38.8916 41.1084 39.3882 41.1084 40C41.1084 40.6118 40.6118 41.1084 40 41.1084H30.9022C28.2421 41.1084 25.7415 42.2789 24.039 44.3183L14.5068 55.7659C14.2939 56.0231 13.9836 56.1649 13.6555 56.1649H2.31434C2.83751 59.1798 5.47994 61.4764 8.63667 61.4764H16.4398C17.5482 61.4764 18.6034 61.0064 19.3483 60.1818L29.1465 49.2928C29.448 48.9559 29.9357 48.8317 30.3702 49.0002C30.7958 49.1687 31.0796 49.5766 31.0796 50.0377V61.3257C31.0796 61.9375 30.583 62.4341 29.9712 62.4341C29.3593 62.4341 28.8628 61.9375 28.8628 61.3257V52.9195L20.9976 61.6537C19.836 62.9395 18.1778 63.6843 16.4398 63.6843V63.6932Z" fill="#23295B"/>
<path id="Vector_3" d="M43.7682 80H40.6913C38.3858 80 36.0626 79.7872 33.8015 79.3615L14.6749 75.7792C12.6886 75.4068 10.9329 74.2008 9.86886 72.4806C8.80479 70.7603 8.51217 68.6588 9.07081 66.708C9.61171 64.8193 10.9418 63.2409 12.7152 62.3808C14.4887 61.5296 16.5459 61.4675 18.3636 62.2212L37.7208 70.2549H43.7771C46.4638 70.2549 48.6452 72.4362 48.6452 75.123C48.6452 77.8098 46.4638 80 43.7771 80H43.7682ZM15.7035 63.9149C15.003 63.9149 14.3025 64.0745 13.664 64.3848C12.4581 64.9701 11.5625 66.0341 11.1901 67.3199C10.7999 68.6854 10.995 70.1042 11.7398 71.319C12.4847 72.5338 13.6729 73.3407 15.065 73.6067L34.1916 77.1891C36.3198 77.5881 38.5011 77.792 40.6736 77.792H43.7505C45.2136 77.792 46.4018 76.6038 46.4018 75.1319C46.4018 73.6599 45.2136 72.4806 43.7505 72.4806H37.4725C37.3306 72.4806 37.1799 72.454 37.0469 72.3919L17.4858 64.2695C16.9094 64.0301 16.2976 63.9149 15.6857 63.9149H15.7035Z" fill="#23295B"/>
<path id="Vector_4" d="M71.3721 63.6934H63.569C61.831 63.6934 60.1728 62.9574 59.0112 61.6628L51.146 52.9286V61.3347C51.146 61.9465 50.6495 62.4431 50.0376 62.4431C49.4258 62.4431 48.9292 61.9465 48.9292 61.3347V50.0467C48.9292 49.5856 49.213 49.1777 49.6386 49.0093C50.0642 48.8408 50.5519 48.9649 50.8623 49.3019L60.6605 60.1908C61.3965 61.0155 62.4606 61.4854 63.569 61.4854H71.3721C74.5377 61.4854 77.1713 59.1888 77.6945 56.174H66.3533C66.0252 56.174 65.7148 56.0232 65.502 55.7749L55.9698 44.3274C54.2673 42.2879 51.7667 41.1174 49.1066 41.1174H40.0088C39.397 41.1174 38.9004 40.6209 38.9004 40.009C38.9004 39.3972 39.397 38.9006 40.0088 38.9006H49.1066C52.4229 38.9006 55.5442 40.3637 57.6723 42.9086L66.8764 53.9572H78.9004C79.5122 53.9572 80.0088 54.4537 80.0088 55.0656C80.0088 59.8273 76.1338 63.7022 71.3721 63.7022V63.6934Z" fill="#23295B"/>
<path id="Vector_5" d="M45.0188 80H43.7686C43.1567 80 42.6602 79.5034 42.6602 78.8916C42.6602 78.2798 43.1567 77.7832 43.7686 77.7832H44.9124L64.7395 73.7398C66.1937 73.4471 67.4263 72.5781 68.1977 71.3101C68.9692 70.0421 69.1731 68.5524 68.7564 67.1248C68.4017 65.8745 67.5238 64.8371 66.3534 64.2784C65.1829 63.7198 63.8262 63.6755 62.6291 64.1809L50.4899 69.2441C49.9224 69.4835 49.2751 69.2086 49.0446 68.65C48.8051 68.0825 49.08 67.4352 49.6387 67.2046L61.7779 62.1414C63.5602 61.3966 65.5819 61.4498 67.3199 62.2922C69.0578 63.1257 70.3613 64.6775 70.8934 66.5307C71.4609 68.5347 71.1771 70.6983 70.0953 72.4806C69.0135 74.254 67.2312 75.5132 65.1917 75.93L45.2494 79.9911C45.1784 80.0089 45.0986 80.0177 45.0277 80.0177L45.0188 80Z" fill="#23295B"/>
</g>
<g id="Group_2">
<path id="Vector_6" d="M48.1225 10.8181C48.0249 10.8181 47.9274 10.8092 47.8387 10.7826C47.2446 10.623 46.8988 10.02 47.0584 9.42591L48.353 4.57554C48.5126 3.98144 49.1245 3.63562 49.7097 3.79523C50.3038 3.95484 50.6496 4.55781 50.49 5.15191L49.1954 10.0023C49.0624 10.4988 48.619 10.8269 48.1225 10.8269V10.8181Z" fill="#23295B"/>
<path id="Vector_7" d="M62.1765 18.9315C61.8928 18.9315 61.609 18.8251 61.3962 18.6034C60.9617 18.1689 60.9617 17.4684 61.3962 17.0339L64.9431 13.487C65.3776 13.0525 66.0781 13.0525 66.5126 13.487C66.9471 13.9215 66.9471 14.622 66.5126 15.0565L62.9657 18.6034C62.7529 18.8162 62.4691 18.9315 62.1854 18.9315H62.1765Z" fill="#23295B"/>
<path id="Vector_8" d="M70.2987 32.9949C69.811 32.9949 69.3588 32.6669 69.2258 32.1703C69.0662 31.5762 69.4209 30.9732 70.0061 30.8136L74.8565 29.519C75.4506 29.3594 76.0535 29.7141 76.2131 30.2993C76.3728 30.8845 76.0181 31.4964 75.4328 31.656L70.5825 32.9506C70.4849 32.9772 70.3874 32.9861 70.2987 32.9861V32.9949Z" fill="#23295B"/>
<path id="Vector_9" d="M75.1506 50.5255C75.053 50.5255 74.9555 50.5166 74.8668 50.49L70.0165 49.1954C69.4224 49.0358 69.0765 48.4328 69.2361 47.8387C69.3958 47.2446 70.0076 46.8988 70.5928 47.0584L75.4432 48.353C76.0373 48.5126 76.3831 49.1156 76.2235 49.7097C76.0905 50.2063 75.6471 50.5344 75.1506 50.5344V50.5255Z" fill="#23295B"/>
<path id="Vector_10" d="M4.85927 50.5255C4.37157 50.5255 3.91934 50.1974 3.78633 49.7008C3.62672 49.1067 3.98141 48.5037 4.56665 48.3441L9.41701 47.0495C10.0111 46.8899 10.6141 47.2446 10.7737 47.8298C10.9333 48.4151 10.5786 49.0269 9.99338 49.1865L5.14302 50.4811C5.04548 50.5077 4.94794 50.5166 4.85927 50.5166V50.5255Z" fill="#23295B"/>
<path id="Vector_11" d="M9.70917 32.995C9.61163 32.995 9.51409 32.9861 9.42542 32.9595L4.57505 31.6649C3.98095 31.5053 3.63513 30.9023 3.79474 30.3082C3.95435 29.7141 4.56619 29.3683 5.15142 29.5279L10.0018 30.8225C10.5959 30.9821 10.9417 31.5851 10.7821 32.1792C10.6491 32.6758 10.2057 33.0038 9.70917 33.0038V32.995Z" fill="#23295B"/>
<path id="Vector_12" d="M17.823 18.9315C17.5392 18.9315 17.2555 18.8251 17.0427 18.6034L13.4958 15.0565C13.0613 14.622 13.0613 13.9215 13.4958 13.487C13.9303 13.0525 14.6308 13.0525 15.0653 13.487L18.6122 17.0339C19.0467 17.4684 19.0467 18.1689 18.6122 18.6034C18.3994 18.8162 18.1156 18.9315 17.8319 18.9315H17.823Z" fill="#23295B"/>
<path id="Vector_13" d="M31.8863 10.818C31.3986 10.818 30.9464 10.4899 30.8134 9.99338L29.5188 5.14302C29.3591 4.54891 29.7138 3.94594 30.2991 3.78633C30.8932 3.62672 31.4961 3.98141 31.6558 4.56665L32.9504 9.41701C33.11 10.0111 32.7553 10.6141 32.17 10.7737C32.0725 10.8003 31.975 10.8092 31.8863 10.8092V10.818Z" fill="#23295B"/>
<path id="Vector_14" d="M55.6862 13.9481C55.5 13.9481 55.3049 13.9037 55.1364 13.7973C54.6044 13.487 54.427 12.8131 54.7285 12.281L58.4882 5.76362C58.7986 5.23159 59.4725 5.05424 60.0045 5.35573C60.5366 5.66608 60.7139 6.33999 60.4124 6.87202L56.6527 13.3894C56.4488 13.7441 56.0763 13.9392 55.6951 13.9392L55.6862 13.9481Z" fill="#23295B"/>
<path id="Vector_15" d="M67.1686 25.4313C66.7874 25.4313 66.4149 25.2362 66.211 24.8815C65.9006 24.3495 66.0868 23.6756 66.6189 23.3652L73.1363 19.6055C73.6683 19.2952 74.3422 19.4814 74.6526 20.0134C74.9629 20.5454 74.7767 21.2194 74.2447 21.5297L67.7273 25.2983C67.5499 25.3958 67.3637 25.449 67.1775 25.449L67.1686 25.4313Z" fill="#23295B"/>
<path id="Vector_16" d="M78.8925 41.1084H71.3643C70.7524 41.1084 70.2559 40.6118 70.2559 40C70.2559 39.3882 70.7524 38.8916 71.3643 38.8916H78.8925C79.5044 38.8916 80.0009 39.3882 80.0009 40C80.0009 40.6118 79.5044 41.1084 78.8925 41.1084Z" fill="#23295B"/>
<path id="Vector_17" d="M8.63667 41.1084H1.1084C0.496564 41.1084 0 40.6118 0 40C0 39.3882 0.496564 38.8916 1.1084 38.8916H8.63667C9.2485 38.8916 9.74507 39.3882 9.74507 40C9.74507 40.6118 9.2485 41.1084 8.63667 41.1084Z" fill="#23295B"/>
<path id="Vector_18" d="M12.8403 25.4312C12.6541 25.4312 12.459 25.3868 12.2905 25.2804L5.77314 21.5118C5.24111 21.2015 5.06376 20.5276 5.36525 19.9956C5.6756 19.4635 6.34951 19.2862 6.88154 19.5877L13.3989 23.3474C13.931 23.6577 14.1083 24.3316 13.8068 24.8637C13.6029 25.2183 13.2305 25.4134 12.8492 25.4134L12.8403 25.4312Z" fill="#23295B"/>
<path id="Vector_19" d="M24.322 13.948C23.9407 13.948 23.5683 13.7529 23.3643 13.3982L19.5958 6.88085C19.2854 6.34881 19.4716 5.6749 20.0036 5.36455C20.5357 5.0542 21.2096 5.24041 21.5199 5.77244L25.2885 12.2898C25.5989 12.8219 25.4126 13.4958 24.8806 13.8061C24.7033 13.9037 24.5171 13.9569 24.3308 13.9569L24.322 13.948Z" fill="#23295B"/>
<path id="Vector_20" d="M39.999 9.74507C39.3872 9.74507 38.8906 9.2485 38.8906 8.63667V1.1084C38.8906 0.496564 39.3872 0 39.999 0C40.6109 0 41.1074 0.496564 41.1074 1.1084V8.63667C41.1074 9.2485 40.6109 9.74507 39.999 9.74507Z" fill="#23295B"/>
</g>
</g>
</g>
<defs>
<clipPath id="clip0_611_444">
<rect width="80" height="80" fill="white"/>
</clipPath>
</defs>
</svg>
